<?xml version="1.0" encoding="UTF-8"?>
<!DOCTYPE svg PUBLIC "-//W3C//DTD SVG 1.1//EN" "http://www.w3.org/Graphics/SVG/1.1/DTD/svg11.dtd">
<svg xmlns="http://www.w3.org/2000/svg" version="1.1" width="128px" height="128px" style="shape-rendering:geometricPrecision; text-rendering:geometricPrecision; image-rendering:optimizeQuality; fill-rule:evenodd; clip-rule:evenodd" xmlns:xlink="http://www.w3.org/1999/xlink">
<g><path style="opacity:1" fill="#0a0a09" d="M 48.5,40.5 C 57.2535,41.2509 65.2535,44.0842 72.5,49C 81.857,48.0008 91.1903,48.3342 100.5,50C 108.515,53.5605 116.682,56.7272 125,59.5C 126.176,63.2601 125.01,66.0934 121.5,68C 107.819,75.419 93.1525,78.7524 77.5,78C 72.5417,82.4795 66.875,84.6462 60.5,84.5C 61.0525,82.2727 61.0525,79.9393 60.5,77.5C 52.9948,77.7766 45.6615,79.1099 38.5,81.5C 36.4341,80.0776 36.6007,78.4109 39,76.5C 39.6667,75.5 39.6667,74.5 39,73.5C 36.7497,72.2921 34.583,70.9587 32.5,69.5C 26.5908,71.7879 20.9242,74.6212 15.5,78C 11.3121,79.6307 6.97876,80.4641 2.5,80.5C 2.35055,79.448 2.51722,78.448 3,77.5C 7.42159,73.585 11.2549,69.2517 14.5,64.5C 11.5888,59.5798 8.2555,54.9131 4.5,50.5C 12.5041,49.9802 19.8374,52.1468 26.5,57C 28.5,57.1667 30.5,57.3333 32.5,57.5C 39.8784,56.3728 47.2117,55.0394 54.5,53.5C 54.6803,49.1526 52.847,45.8193 49,43.5C 48.5172,42.552 48.3505,41.552 48.5,40.5 Z"/></g>
</svg>
