<?xml version="1.0" encoding="UTF-8"?>
<!DOCTYPE svg PUBLIC "-//W3C//DTD SVG 1.1//EN" "http://www.w3.org/Graphics/SVG/1.1/DTD/svg11.dtd">
<svg xmlns="http://www.w3.org/2000/svg" version="1.1" width="128px" height="128px" style="shape-rendering:geometricPrecision; text-rendering:geometricPrecision; image-rendering:optimizeQuality; fill-rule:evenodd; clip-rule:evenodd" xmlns:xlink="http://www.w3.org/1999/xlink">
<g><path style="opacity:0.827" fill="#dcd6ad" d="M 65.5,45.5 C 64.8333,45.5 64.1667,45.5 63.5,45.5C 61.5,44.8333 59.5,44.1667 57.5,43.5C 55.2181,42.6103 52.8848,42.4436 50.5,43C 52.3734,44.7038 54.0401,46.5372 55.5,48.5C 55.1568,50.4832 55.8235,51.8166 57.5,52.5C 57.5,52.8333 57.5,53.1667 57.5,53.5C 56.5,53.5 55.5,53.5 54.5,53.5C 54.6803,49.1526 52.847,45.8193 49,43.5C 48.5172,42.552 48.3505,41.552 48.5,40.5C 54.5893,41.1012 60.256,42.7679 65.5,45.5 Z"/></g>
<g><path style="opacity:1" fill="#b6a953" d="M 57.5,43.5 C 57.4326,44.9587 57.7659,46.2921 58.5,47.5C 57.609,48.1098 56.609,48.4431 55.5,48.5C 54.0401,46.5372 52.3734,44.7038 50.5,43C 52.8848,42.4436 55.2181,42.6103 57.5,43.5 Z"/></g>
<g><path style="opacity:1" fill="#887c50" d="M 63.5,45.5 C 64.1667,45.5 64.8333,45.5 65.5,45.5C 65.8333,45.5 66.1667,45.5 66.5,45.5C 66.7086,46.9217 67.2086,48.255 68,49.5C 68.9772,48.2264 69.8106,48.2264 70.5,49.5C 69.5416,49.9528 68.7083,50.6195 68,51.5C 67.0138,50.8288 65.8471,50.8288 64.5,51.5C 64.1667,49.5 63.8333,47.5 63.5,45.5 Z"/></g>
<g><path style="opacity:1" fill="#a29e86" d="M 66.5,45.5 C 68.9962,46.5804 71.3295,47.9138 73.5,49.5C 73.5,49.8333 73.5,50.1667 73.5,50.5C 72.391,50.4431 71.391,50.1098 70.5,49.5C 69.8106,48.2264 68.9772,48.2264 68,49.5C 67.2086,48.255 66.7086,46.9217 66.5,45.5 Z"/></g>
<g><path style="opacity:1" fill="#b9ad58" d="M 58.5,47.5 C 59.8816,48.8005 61.5483,49.6339 63.5,50C 61.4982,51.0192 59.4982,51.8525 57.5,52.5C 55.8235,51.8166 55.1568,50.4832 55.5,48.5C 56.609,48.4431 57.609,48.1098 58.5,47.5 Z"/></g>
<g><path style="opacity:1" fill="#a19753" d="M 57.5,43.5 C 59.5,44.1667 61.5,44.8333 63.5,45.5C 63.8333,47.5 64.1667,49.5 64.5,51.5C 63.8333,51.8333 63.1667,52.1667 62.5,52.5C 60.8828,53.038 59.2161,53.3713 57.5,53.5C 57.5,53.1667 57.5,52.8333 57.5,52.5C 59.4982,51.8525 61.4982,51.0192 63.5,50C 61.5483,49.6339 59.8816,48.8005 58.5,47.5C 57.7659,46.2921 57.4326,44.9587 57.5,43.5 Z"/></g>
<g><path style="opacity:0.875" fill="#948c82" d="M 100.5,50.5 C 99.5,50.5 98.5,50.5 97.5,50.5C 89.8333,50.5 82.1667,50.5 74.5,50.5C 74.1667,50.5 73.8333,50.5 73.5,50.5C 73.5,50.1667 73.5,49.8333 73.5,49.5C 82.7144,47.8918 91.7144,48.2252 100.5,50.5 Z"/></g>
<g><path style="opacity:1" fill="#412e1a" d="M 70.5,49.5 C 71.391,50.1098 72.391,50.4431 73.5,50.5C 73.8333,50.5 74.1667,50.5 74.5,50.5C 74.3284,51.4916 74.6618,52.1583 75.5,52.5C 74.791,53.404 73.791,53.7373 72.5,53.5C 72.1667,53.5 71.8333,53.5 71.5,53.5C 68.2869,53.81 65.2869,53.4767 62.5,52.5C 63.1667,52.1667 63.8333,51.8333 64.5,51.5C 65.8471,50.8288 67.0138,50.8288 68,51.5C 68.7083,50.6195 69.5416,49.9528 70.5,49.5 Z"/></g>
<g><path style="opacity:1" fill="#3b2917" d="M 74.5,50.5 C 82.1667,50.5 89.8333,50.5 97.5,50.5C 97.1788,52.0481 96.1788,52.7148 94.5,52.5C 88.1667,52.5 81.8333,52.5 75.5,52.5C 74.6618,52.1583 74.3284,51.4916 74.5,50.5 Z"/></g>
<g><path style="opacity:1" fill="#918e56" d="M 11.5,51.5 C 13.3717,54.5827 14.705,57.916 15.5,61.5C 14.8333,61.5 14.1667,61.5 13.5,61.5C 10.4838,58.4797 7.81712,55.1464 5.5,51.5C 7.3469,50.4271 9.3469,50.4271 11.5,51.5 Z"/></g>
<g><path style="opacity:0.745" fill="#c9c5a8" d="M 23.5,55.5 C 19.4379,54.3682 15.4379,53.0349 11.5,51.5C 9.3469,50.4271 7.3469,50.4271 5.5,51.5C 4.95691,51.44 4.62358,51.1067 4.5,50.5C 11.5253,49.5113 17.8586,51.1779 23.5,55.5 Z"/></g>
<g><path style="opacity:1" fill="#44351f" d="M 97.5,50.5 C 98.5,50.5 99.5,50.5 100.5,50.5C 100.833,50.5 101.167,50.5 101.5,50.5C 104.515,52.6744 107.849,54.3411 111.5,55.5C 111.5,56.8333 110.833,57.5 109.5,57.5C 108.292,56.7659 106.959,56.4326 105.5,56.5C 102.169,54.6775 98.5024,53.6775 94.5,53.5C 94.5,53.1667 94.5,52.8333 94.5,52.5C 96.1788,52.7148 97.1788,52.0481 97.5,50.5 Z"/></g>
<g><path style="opacity:0.573" fill="#89857c" d="M 101.5,50.5 C 105.582,51.3764 109.249,53.0431 112.5,55.5C 112.167,55.5 111.833,55.5 111.5,55.5C 107.849,54.3411 104.515,52.6744 101.5,50.5 Z"/></g>
<g><path style="opacity:1" fill="#514722" d="M 62.5,52.5 C 65.2869,53.4767 68.2869,53.81 71.5,53.5C 67.2703,54.2202 62.937,54.8868 58.5,55.5C 56.1667,55.5 53.8333,55.5 51.5,55.5C 52.5,54.8333 53.5,54.1667 54.5,53.5C 55.5,53.5 56.5,53.5 57.5,53.5C 59.2161,53.3713 60.8828,53.038 62.5,52.5 Z"/></g>
<g><path style="opacity:1" fill="#544b23" d="M 75.5,52.5 C 81.8333,52.5 88.1667,52.5 94.5,52.5C 94.5,52.8333 94.5,53.1667 94.5,53.5C 89.1463,53.5688 83.813,53.9022 78.5,54.5C 76.2646,54.7947 74.2646,54.4614 72.5,53.5C 73.791,53.7373 74.791,53.404 75.5,52.5 Z"/></g>
<g><path style="opacity:1" fill="#6f6835" d="M 94.5,53.5 C 98.5024,53.6775 102.169,54.6775 105.5,56.5C 105.5,57.1667 105.167,57.5 104.5,57.5C 103.167,57.1667 101.833,56.8333 100.5,56.5C 92.3279,55.4614 83.9946,55.4614 75.5,56.5C 76.5,55.8333 77.5,55.1667 78.5,54.5C 83.813,53.9022 89.1463,53.5688 94.5,53.5 Z"/></g>
<g><path style="opacity:1" fill="#5e582a" d="M 71.5,53.5 C 71.8333,53.5 72.1667,53.5 72.5,53.5C 74.2646,54.4614 76.2646,54.7947 78.5,54.5C 77.5,55.1667 76.5,55.8333 75.5,56.5C 69.2614,56.2764 63.2614,56.9431 57.5,58.5C 55.1667,58.5 52.8333,58.5 50.5,58.5C 53.3129,57.9182 55.9796,56.9182 58.5,55.5C 62.937,54.8868 67.2703,54.2202 71.5,53.5 Z"/></g>
<g><path style="opacity:1" fill="#9f985a" d="M 11.5,51.5 C 15.4379,53.0349 19.4379,54.3682 23.5,55.5C 23.5,55.8333 23.5,56.1667 23.5,56.5C 22.8333,57.1667 22.1667,57.8333 21.5,58.5C 20.8333,58.5 20.1667,58.5 19.5,58.5C 18.791,57.596 17.791,57.2627 16.5,57.5C 16.5,59.1667 16.5,60.8333 16.5,62.5C 15.8333,62.5 15.5,62.1667 15.5,61.5C 14.705,57.916 13.3717,54.5827 11.5,51.5 Z"/></g>
<g><path style="opacity:0.004" fill="#e0dec3" d="M 23.5,56.5 C 23.5,56.1667 23.5,55.8333 23.5,55.5C 25.0269,55.427 26.0269,56.0937 26.5,57.5C 26.1667,57.5 25.8333,57.5 25.5,57.5C 24.8333,57.1667 24.1667,56.8333 23.5,56.5 Z"/></g>
<g><path style="opacity:0.843" fill="#938e7c" d="M 54.5,53.5 C 53.5,54.1667 52.5,54.8333 51.5,55.5C 47.1928,56.3266 42.8595,56.9933 38.5,57.5C 43.4968,55.2507 48.8302,53.9174 54.5,53.5 Z"/></g>
<g><path style="opacity:1" fill="#655e36" d="M 51.5,55.5 C 53.8333,55.5 56.1667,55.5 58.5,55.5C 55.9796,56.9182 53.3129,57.9182 50.5,58.5C 42.1917,59.4278 33.8584,60.0945 25.5,60.5C 24.375,59.6522 24.375,58.6522 25.5,57.5C 25.8333,57.5 26.1667,57.5 26.5,57.5C 30.5,57.5 34.5,57.5 38.5,57.5C 42.8595,56.9933 47.1928,56.3266 51.5,55.5 Z"/></g>
<g><path style="opacity:1" fill="#8d8a49" d="M 100.5,56.5 C 94.9738,56.1786 89.6405,56.5119 84.5,57.5C 84.1667,57.5 83.8333,57.5 83.5,57.5C 74.8451,58.0825 66.1785,58.4159 57.5,58.5C 63.2614,56.9431 69.2614,56.2764 75.5,56.5C 83.9946,55.4614 92.3279,55.4614 100.5,56.5 Z"/></g>
<g><path style="opacity:1" fill="#b0ac59" d="M 84.5,57.5 C 89.6405,56.5119 94.9738,56.1786 100.5,56.5C 101.833,56.8333 103.167,57.1667 104.5,57.5C 103.833,58.8333 102.833,59.8333 101.5,60.5C 101.5,59.5 101.5,58.5 101.5,57.5C 99.0971,57.448 96.7638,57.7814 94.5,58.5C 91.272,57.5863 87.9387,57.2529 84.5,57.5 Z"/></g>
<g><path style="opacity:1" fill="#bdbc64" d="M 83.5,57.5 C 83.8333,57.5 84.1667,57.5 84.5,57.5C 87.9387,57.2529 91.272,57.5863 94.5,58.5C 94.3893,59.1174 94.056,59.6174 93.5,60C 90.5184,60.498 87.5184,60.6646 84.5,60.5C 84.1667,59.8333 83.8333,59.1667 83.5,58.5C 83.5,58.1667 83.5,57.8333 83.5,57.5 Z"/></g>
<g><path style="opacity:1" fill="#727055" d="M 111.5,55.5 C 111.833,55.5 112.167,55.5 112.5,55.5C 114.786,55.595 116.786,56.2616 118.5,57.5C 118.918,58.2216 119.584,58.7216 120.5,59C 119.944,59.3826 119.611,59.8826 119.5,60.5C 117.412,59.0605 115.079,58.3939 112.5,58.5C 111.209,58.7373 110.209,58.404 109.5,57.5C 110.833,57.5 111.5,56.8333 111.5,55.5 Z"/></g>
<g><path style="opacity:0.631" fill="#a3a481" d="M 118.5,57.5 C 120.216,57.6287 121.883,57.962 123.5,58.5C 123.737,59.791 123.404,60.791 122.5,61.5C 121.791,60.596 120.791,60.2627 119.5,60.5C 119.611,59.8826 119.944,59.3826 120.5,59C 119.584,58.7216 118.918,58.2216 118.5,57.5 Z"/></g>
<g><path style="opacity:1" fill="#b0af5d" d="M 83.5,57.5 C 83.5,57.8333 83.5,58.1667 83.5,58.5C 80.2869,58.19 77.2869,58.5233 74.5,59.5C 72.1691,60.3173 69.6691,60.9839 67,61.5C 64.0647,59.8084 60.8981,59.1417 57.5,59.5C 57.5,59.1667 57.5,58.8333 57.5,58.5C 66.1785,58.4159 74.8451,58.0825 83.5,57.5 Z"/></g>
<g><path style="opacity:1" fill="#b9b861" d="M 74.5,59.5 C 77.2869,58.5233 80.2869,58.19 83.5,58.5C 83.8333,59.1667 84.1667,59.8333 84.5,60.5C 84.5,60.8333 84.5,61.1667 84.5,61.5C 82.8333,61.5 81.1667,61.5 79.5,61.5C 77.9724,60.6908 76.3057,60.0241 74.5,59.5 Z"/></g>
<g><path style="opacity:1" fill="#dcde8d" d="M 101.5,60.5 C 100.833,60.8333 100.167,61.1667 99.5,61.5C 96.1533,62.8125 92.4866,62.8125 88.5,61.5C 87.1667,61.5 85.8333,61.5 84.5,61.5C 84.5,61.1667 84.5,60.8333 84.5,60.5C 87.5184,60.6646 90.5184,60.498 93.5,60C 94.056,59.6174 94.3893,59.1174 94.5,58.5C 96.7638,57.7814 99.0971,57.448 101.5,57.5C 101.5,58.5 101.5,59.5 101.5,60.5 Z"/></g>
<g><path style="opacity:1" fill="#9c9254" d="M 112.5,58.5 C 115.079,58.3939 117.412,59.0605 119.5,60.5C 120.791,60.2627 121.791,60.596 122.5,61.5C 121.52,65.3258 120.687,65.3258 120,61.5C 119.487,62.5266 118.987,63.5266 118.5,64.5C 118.167,64.5 117.833,64.5 117.5,64.5C 117.587,61.4017 117.087,61.0684 116,63.5C 115.764,61.8807 114.931,60.8807 113.5,60.5C 112.662,60.1583 112.328,59.4916 112.5,58.5 Z"/></g>
<g><path style="opacity:1" fill="#868341" d="M 50.5,58.5 C 52.8333,58.5 55.1667,58.5 57.5,58.5C 57.5,58.8333 57.5,59.1667 57.5,59.5C 50.9384,59.3369 44.605,60.0035 38.5,61.5C 34.5,61.5 30.5,61.5 26.5,61.5C 25.8333,61.5 25.5,61.1667 25.5,60.5C 33.8584,60.0945 42.1917,59.4278 50.5,58.5 Z"/></g>
<g><path style="opacity:1" fill="#c1c16a" d="M 52.5,60.5 C 59.3216,61.932 66.9883,62.5987 75.5,62.5C 75.5,63.1667 75.1667,63.5 74.5,63.5C 72.8333,63.5 71.1667,63.5 69.5,63.5C 64.1667,63.5 58.8333,63.5 53.5,63.5C 52.791,62.596 51.791,62.2627 50.5,62.5C 51.1667,61.8333 51.8333,61.1667 52.5,60.5 Z"/></g>
<g><path style="opacity:1" fill="#b1ae59" d="M 57.5,59.5 C 60.8981,59.1417 64.0647,59.8084 67,61.5C 69.6691,60.9839 72.1691,60.3173 74.5,59.5C 76.3057,60.0241 77.9724,60.6908 79.5,61.5C 77.901,61.2322 76.5676,61.5655 75.5,62.5C 66.9883,62.5987 59.3216,61.932 52.5,60.5C 47.8592,61.1266 43.1925,61.4599 38.5,61.5C 44.605,60.0035 50.9384,59.3369 57.5,59.5 Z"/></g>
<g><path style="opacity:1" fill="#cdc870" d="M 105.5,56.5 C 106.959,56.4326 108.292,56.7659 109.5,57.5C 110.209,58.404 111.209,58.7373 112.5,58.5C 112.328,59.4916 112.662,60.1583 113.5,60.5C 113.232,62.099 113.566,63.4324 114.5,64.5C 114.44,65.0431 114.107,65.3764 113.5,65.5C 112.148,64.4756 110.815,63.4756 109.5,62.5C 108.791,61.596 107.791,61.2627 106.5,61.5C 105.5,61.5 104.5,61.5 103.5,61.5C 102.508,61.6716 101.842,61.3382 101.5,60.5C 102.833,59.8333 103.833,58.8333 104.5,57.5C 105.167,57.5 105.5,57.1667 105.5,56.5 Z"/></g>
<g><path style="opacity:1" fill="#bbb966" d="M 52.5,60.5 C 51.8333,61.1667 51.1667,61.8333 50.5,62.5C 42.5,62.5 34.5,62.5 26.5,62.5C 26.5,62.1667 26.5,61.8333 26.5,61.5C 30.5,61.5 34.5,61.5 38.5,61.5C 43.1925,61.4599 47.8592,61.1266 52.5,60.5 Z"/></g>
<g><path style="opacity:1" fill="#e3e394" d="M 75.5,62.5 C 76.5676,61.5655 77.901,61.2322 79.5,61.5C 81.1667,61.5 82.8333,61.5 84.5,61.5C 85.8333,61.5 87.1667,61.5 88.5,61.5C 89.6005,62.6049 90.2671,63.9382 90.5,65.5C 87.1667,65.5 83.8333,65.5 80.5,65.5C 80.3893,64.8826 80.056,64.3826 79.5,64C 81.1667,63.6667 82.8333,63.3333 84.5,63C 81.5184,62.502 78.5184,62.3354 75.5,62.5 Z"/></g>
<g><path style="opacity:1" fill="#b8b05f" d="M 23.5,56.5 C 24.1667,56.8333 24.8333,57.1667 25.5,57.5C 24.375,58.6522 24.375,59.6522 25.5,60.5C 25.5,61.1667 25.8333,61.5 26.5,61.5C 26.5,61.8333 26.5,62.1667 26.5,62.5C 25.5,62.5 24.5,62.5 23.5,62.5C 23.2322,64.099 23.5655,65.4324 24.5,66.5C 24.5,67.1667 24.5,67.8333 24.5,68.5C 21.1632,65.9948 20.8299,63.1615 23.5,60C 22.5842,59.7216 21.9175,59.2216 21.5,58.5C 22.1667,57.8333 22.8333,57.1667 23.5,56.5 Z"/></g>
<g><path style="opacity:1" fill="#d7d786" d="M 26.5,62.5 C 34.5,62.5 42.5,62.5 50.5,62.5C 51.791,62.2627 52.791,62.596 53.5,63.5C 43.985,63.1731 34.6517,63.5064 25.5,64.5C 24.6618,64.8417 24.3284,65.5084 24.5,66.5C 23.5655,65.4324 23.2322,64.099 23.5,62.5C 24.5,62.5 25.5,62.5 26.5,62.5 Z"/></g>
<g><path style="opacity:1" fill="#dde092" d="M 25.5,64.5 C 34.6517,63.5064 43.985,63.1731 53.5,63.5C 58.8333,63.5 64.1667,63.5 69.5,63.5C 65.7016,64.4834 61.7016,64.8168 57.5,64.5C 54.5,64.5 51.5,64.5 48.5,64.5C 47.5084,64.3284 46.8417,64.6618 46.5,65.5C 45.8333,65.5 45.1667,65.5 44.5,65.5C 42.5,65.5 40.5,65.5 38.5,65.5C 34.3656,64.5151 30.0323,64.1818 25.5,64.5 Z"/></g>
<g><path style="opacity:1" fill="#e3e798" d="M 69.5,63.5 C 71.1667,63.5 72.8333,63.5 74.5,63.5C 78.4191,64.9849 78.0857,65.9849 73.5,66.5C 69.0567,66.2775 64.3901,66.2775 59.5,66.5C 58.8333,65.8333 58.1667,65.1667 57.5,64.5C 61.7016,64.8168 65.7016,64.4834 69.5,63.5 Z"/></g>
<g><path style="opacity:1" fill="#e1e498" d="M 75.5,62.5 C 78.5184,62.3354 81.5184,62.502 84.5,63C 82.8333,63.3333 81.1667,63.6667 79.5,64C 80.056,64.3826 80.3893,64.8826 80.5,65.5C 80.5,65.8333 80.5,66.1667 80.5,66.5C 79.8333,66.5 79.5,66.8333 79.5,67.5C 79.1667,67.5 78.8333,67.5 78.5,67.5C 75.9588,67.8514 74.2921,67.5181 73.5,66.5C 78.0857,65.9849 78.4191,64.9849 74.5,63.5C 75.1667,63.5 75.5,63.1667 75.5,62.5 Z"/></g>
<g><path style="opacity:1" fill="#dfe299" d="M 99.5,61.5 C 99.9926,63.8056 100.326,66.139 100.5,68.5C 100.167,68.5 99.8333,68.5 99.5,68.5C 96.5565,67.6326 93.5565,66.6326 90.5,65.5C 90.2671,63.9382 89.6005,62.6049 88.5,61.5C 92.4866,62.8125 96.1533,62.8125 99.5,61.5 Z"/></g>
<g><path style="opacity:1" fill="#a59c39" d="M 113.5,60.5 C 114.931,60.8807 115.764,61.8807 116,63.5C 117.087,61.0684 117.587,61.4017 117.5,64.5C 116.5,64.5 115.5,64.5 114.5,64.5C 113.566,63.4324 113.232,62.099 113.5,60.5 Z"/></g>
<g><path style="opacity:1" fill="#e3e799" d="M 25.5,64.5 C 30.0323,64.1818 34.3656,64.5151 38.5,65.5C 39.6085,66.29 40.9419,66.79 42.5,67C 41.244,67.4169 40.5774,68.2502 40.5,69.5C 36.367,68.2737 32.367,68.2737 28.5,69.5C 27.0413,69.5674 25.7079,69.2341 24.5,68.5C 24.5,67.8333 24.5,67.1667 24.5,66.5C 24.3284,65.5084 24.6618,64.8417 25.5,64.5 Z"/></g>
<g><path style="opacity:1" fill="#b3ad69" d="M 101.5,60.5 C 101.842,61.3382 102.508,61.6716 103.5,61.5C 104.044,64.6992 104.044,67.6992 103.5,70.5C 102.5,69.8333 101.5,69.1667 100.5,68.5C 100.326,66.139 99.9926,63.8056 99.5,61.5C 100.167,61.1667 100.833,60.8333 101.5,60.5 Z"/></g>
<g><path style="opacity:1" fill="#cecb94" d="M 123.5,58.5 C 124.947,59.1342 125.613,60.3009 125.5,62C 125.613,63.6991 124.947,64.8658 123.5,65.5C 121.585,65.7845 119.919,65.4511 118.5,64.5C 118.987,63.5266 119.487,62.5266 120,61.5C 120.687,65.3258 121.52,65.3258 122.5,61.5C 123.404,60.791 123.737,59.791 123.5,58.5 Z"/></g>
<g><path style="opacity:1" fill="#e4e396" d="M 38.5,65.5 C 40.5,65.5 42.5,65.5 44.5,65.5C 44.4606,66.5832 44.1272,67.5832 43.5,68.5C 45.3022,69.2749 45.9689,70.2749 45.5,71.5C 45.5,71.8333 45.5,72.1667 45.5,72.5C 43.7162,72.1075 42.0495,71.4408 40.5,70.5C 40.5,70.1667 40.5,69.8333 40.5,69.5C 40.5774,68.2502 41.244,67.4169 42.5,67C 40.9419,66.79 39.6085,66.29 38.5,65.5 Z"/></g>
<g><path style="opacity:1" fill="#e2e69a" d="M 44.5,65.5 C 45.1667,65.5 45.8333,65.5 46.5,65.5C 47.2625,66.2679 48.2625,66.7679 49.5,67C 48.1667,67.6667 48.1667,68.3333 49.5,69C 48.2644,70.0848 46.9311,70.9181 45.5,71.5C 45.9689,70.2749 45.3022,69.2749 43.5,68.5C 44.1272,67.5832 44.4606,66.5832 44.5,65.5 Z"/></g>
<g><path style="opacity:1" fill="#d4d5a4" d="M 117.5,64.5 C 117.833,64.5 118.167,64.5 118.5,64.5C 119.919,65.4511 121.585,65.7845 123.5,65.5C 121.704,67.9 119.37,69.5667 116.5,70.5C 116.167,70.5 115.833,70.5 115.5,70.5C 115.733,68.9382 116.4,67.6049 117.5,66.5C 117.5,65.8333 117.5,65.1667 117.5,64.5 Z"/></g>
<g><path style="opacity:1" fill="#e1e69b" d="M 48.5,64.5 C 50.631,65.3138 52.9644,65.8138 55.5,66C 48.7628,68.7813 49.0962,70.2813 56.5,70.5C 53.0264,71.5249 49.3597,72.1916 45.5,72.5C 45.5,72.1667 45.5,71.8333 45.5,71.5C 46.9311,70.9181 48.2644,70.0848 49.5,69C 48.1667,68.3333 48.1667,67.6667 49.5,67C 48.2625,66.7679 47.2625,66.2679 46.5,65.5C 46.8417,64.6618 47.5084,64.3284 48.5,64.5 Z"/></g>
<g><path style="opacity:1" fill="#e2e799" d="M 48.5,64.5 C 51.5,64.5 54.5,64.5 57.5,64.5C 58.1667,65.1667 58.8333,65.8333 59.5,66.5C 58.448,66.3505 57.448,66.5172 56.5,67C 57.3366,68.0113 57.67,69.1779 57.5,70.5C 57.1667,70.5 56.8333,70.5 56.5,70.5C 49.0962,70.2813 48.7628,68.7813 55.5,66C 52.9644,65.8138 50.631,65.3138 48.5,64.5 Z"/></g>
<g><path style="opacity:1" fill="#e1e69a" d="M 73.5,66.5 C 74.2921,67.5181 75.9588,67.8514 78.5,67.5C 71.9193,69.4897 64.9193,70.4897 57.5,70.5C 57.67,69.1779 57.3366,68.0113 56.5,67C 57.448,66.5172 58.448,66.3505 59.5,66.5C 64.3901,66.2775 69.0567,66.2775 73.5,66.5 Z"/></g>
<g><path style="opacity:1" fill="#f3ba8c" d="M 80.5,66.5 C 80.5,66.1667 80.5,65.8333 80.5,65.5C 83.8333,65.5 87.1667,65.5 90.5,65.5C 93.5565,66.6326 96.5565,67.6326 99.5,68.5C 97.2567,70.1178 94.9234,71.4512 92.5,72.5C 91.1667,72.5 89.8333,72.5 88.5,72.5C 88.5,72.1667 88.5,71.8333 88.5,71.5C 89.3324,70.6715 88.999,69.8382 87.5,69C 85.1457,68.1529 82.8123,67.3195 80.5,66.5 Z"/></g>
<g><path style="opacity:1" fill="#b4b29b" d="M 109.5,62.5 C 110.815,63.4756 112.148,64.4756 113.5,65.5C 114.107,65.3764 114.44,65.0431 114.5,64.5C 115.5,64.5 116.5,64.5 117.5,64.5C 117.5,65.1667 117.5,65.8333 117.5,66.5C 114.306,67.7576 110.973,68.4242 107.5,68.5C 107.025,65.9179 107.692,63.9179 109.5,62.5 Z"/></g>
<g><path style="opacity:1" fill="#b4b26d" d="M 19.5,58.5 C 19.4129,61.7013 19.0796,65.0346 18.5,68.5C 17.7777,69.5511 16.7777,70.2178 15.5,70.5C 16.379,68.772 17.0457,66.9386 17.5,65C 17.472,63.9302 17.1386,63.0968 16.5,62.5C 16.5,60.8333 16.5,59.1667 16.5,57.5C 17.791,57.2627 18.791,57.596 19.5,58.5 Z"/></g>
<g><path style="opacity:0.58" fill="#e9e1be" d="M 40.5,69.5 C 40.5,69.8333 40.5,70.1667 40.5,70.5C 38.901,70.2322 37.5676,70.5655 36.5,71.5C 35.2003,70.8921 33.8669,70.2255 32.5,69.5C 31.1508,69.8457 29.8175,70.179 28.5,70.5C 28.5,70.1667 28.5,69.8333 28.5,69.5C 32.367,68.2737 36.367,68.2737 40.5,69.5 Z"/></g>
<g><path style="opacity:1" fill="#c6c599" d="M 106.5,61.5 C 107.791,61.2627 108.791,61.596 109.5,62.5C 107.692,63.9179 107.025,65.9179 107.5,68.5C 110.973,68.4242 114.306,67.7576 117.5,66.5C 116.4,67.6049 115.733,68.9382 115.5,70.5C 114.5,70.5 113.5,70.5 112.5,70.5C 110.738,70.6427 109.071,70.3094 107.5,69.5C 106.52,66.9135 106.187,64.2469 106.5,61.5 Z"/></g>
<g><path style="opacity:1" fill="#d5d279" d="M 19.5,58.5 C 20.1667,58.5 20.8333,58.5 21.5,58.5C 21.9175,59.2216 22.5842,59.7216 23.5,60C 20.8299,63.1615 21.1632,65.9948 24.5,68.5C 24.4431,69.609 24.1098,70.609 23.5,71.5C 21.8333,71.5 20.1667,71.5 18.5,71.5C 18.5,70.5 18.5,69.5 18.5,68.5C 19.0796,65.0346 19.4129,61.7013 19.5,58.5 Z"/></g>
<g><path style="opacity:1" fill="#e2e5a3" d="M 78.5,67.5 C 78.8333,67.5 79.1667,67.5 79.5,67.5C 81.153,67.6596 82.4863,68.3263 83.5,69.5C 81.6208,70.3414 79.6208,70.6747 77.5,70.5C 74.4552,70.5079 71.4552,70.8413 68.5,71.5C 64.6286,71.815 60.9619,71.4816 57.5,70.5C 64.9193,70.4897 71.9193,69.4897 78.5,67.5 Z"/></g>
<g><path style="opacity:1" fill="#e99261" d="M 79.5,67.5 C 79.5,66.8333 79.8333,66.5 80.5,66.5C 82.8123,67.3195 85.1457,68.1529 87.5,69C 88.999,69.8382 89.3324,70.6715 88.5,71.5C 86.7162,71.1075 85.0495,70.4408 83.5,69.5C 82.4863,68.3263 81.153,67.6596 79.5,67.5 Z"/></g>
<g><path style="opacity:1" fill="#c4c073" d="M 18.5,68.5 C 18.5,69.5 18.5,70.5 18.5,71.5C 20.1667,71.5 21.8333,71.5 23.5,71.5C 23.1667,72.1667 22.8333,72.8333 22.5,73.5C 20.901,73.2322 19.5676,73.5655 18.5,74.5C 17.1266,74.6567 15.7932,74.49 14.5,74C 15.3366,72.9887 15.67,71.8221 15.5,70.5C 16.7777,70.2178 17.7777,69.5511 18.5,68.5 Z"/></g>
<g><path style="opacity:0.949" fill="#b8b287" d="M 24.5,68.5 C 25.7079,69.2341 27.0413,69.5674 28.5,69.5C 28.5,69.8333 28.5,70.1667 28.5,70.5C 26.7837,72.0248 24.7837,73.0248 22.5,73.5C 22.8333,72.8333 23.1667,72.1667 23.5,71.5C 24.1098,70.609 24.4431,69.609 24.5,68.5 Z"/></g>
<g><path style="opacity:1" fill="#dfe5b0" d="M 83.5,69.5 C 85.0495,70.4408 86.7162,71.1075 88.5,71.5C 88.5,71.8333 88.5,72.1667 88.5,72.5C 88.1667,72.5 87.8333,72.5 87.5,72.5C 82.799,71.3682 78.4657,71.3682 74.5,72.5C 75.5,71.8333 76.5,71.1667 77.5,70.5C 79.6208,70.6747 81.6208,70.3414 83.5,69.5 Z"/></g>
<g><path style="opacity:1" fill="#e0e5a6" d="M 56.5,70.5 C 56.8333,70.5 57.1667,70.5 57.5,70.5C 60.9619,71.4816 64.6286,71.815 68.5,71.5C 62.4041,71.9723 56.4041,72.9723 50.5,74.5C 49.391,74.4431 48.391,74.1098 47.5,73.5C 46.5084,73.6716 45.8417,73.3382 45.5,72.5C 49.3597,72.1916 53.0264,71.5249 56.5,70.5 Z"/></g>
<g><path style="opacity:1" fill="#e2e2b8" d="M 99.5,68.5 C 99.8333,68.5 100.167,68.5 100.5,68.5C 101.5,69.1667 102.5,69.8333 103.5,70.5C 103.5,70.8333 103.5,71.1667 103.5,71.5C 99.9009,72.3439 96.2343,72.6773 92.5,72.5C 94.9234,71.4512 97.2567,70.1178 99.5,68.5 Z"/></g>
<g><path style="opacity:1" fill="#dad99b" d="M 103.5,61.5 C 104.5,61.5 105.5,61.5 106.5,61.5C 106.187,64.2469 106.52,66.9135 107.5,69.5C 109.071,70.3094 110.738,70.6427 112.5,70.5C 109.778,72.6727 106.778,73.0061 103.5,71.5C 103.5,71.1667 103.5,70.8333 103.5,70.5C 104.044,67.6992 104.044,64.6992 103.5,61.5 Z"/></g>
<g><path style="opacity:1" fill="#e0e5ae" d="M 77.5,70.5 C 76.5,71.1667 75.5,71.8333 74.5,72.5C 69.6764,72.9924 65.0097,73.659 60.5,74.5C 57.7628,74.4013 55.0961,74.7347 52.5,75.5C 51.5084,75.6716 50.8417,75.3382 50.5,74.5C 56.4041,72.9723 62.4041,71.9723 68.5,71.5C 71.4552,70.8413 74.4552,70.5079 77.5,70.5 Z"/></g>
<g><path style="opacity:1" fill="#e0e2b7" d="M 87.5,72.5 C 83.0926,73.1389 78.7593,74.1389 74.5,75.5C 73.8333,75.5 73.1667,75.5 72.5,75.5C 70.8333,75.5 69.1667,75.5 67.5,75.5C 66.5,75.5 65.5,75.5 64.5,75.5C 63.4324,74.5655 62.099,74.2322 60.5,74.5C 65.0097,73.659 69.6764,72.9924 74.5,72.5C 78.4657,71.3682 82.799,71.3682 87.5,72.5 Z"/></g>
<g><path style="opacity:1" fill="#e0e4c5" d="M 112.5,70.5 C 113.5,70.5 114.5,70.5 115.5,70.5C 115.833,70.5 116.167,70.5 116.5,70.5C 114.11,72.0198 111.443,73.0198 108.5,73.5C 103.156,73.8159 97.8222,74.3159 92.5,75C 91.944,75.3826 91.6107,75.8826 91.5,76.5C 86.5,76.5 81.5,76.5 76.5,76.5C 75.5084,76.6716 74.8417,76.3382 74.5,75.5C 78.7593,74.1389 83.0926,73.1389 87.5,72.5C 87.8333,72.5 88.1667,72.5 88.5,72.5C 89.8333,72.5 91.1667,72.5 92.5,72.5C 96.2343,72.6773 99.9009,72.3439 103.5,71.5C 106.778,73.0061 109.778,72.6727 112.5,70.5 Z"/></g>
<g><path style="opacity:1" fill="#ab4c25" d="M 36.5,71.5 C 37.5676,70.5655 38.901,70.2322 40.5,70.5C 42.0495,71.4408 43.7162,72.1075 45.5,72.5C 45.8417,73.3382 46.5084,73.6716 47.5,73.5C 47.7413,75.8863 47.0746,77.8863 45.5,79.5C 43.396,79.7989 41.396,79.4656 39.5,78.5C 40.5202,76.5675 40.6869,74.5675 40,72.5C 38.9887,71.6634 37.8221,71.33 36.5,71.5 Z"/></g>
<g><path style="opacity:1" fill="#dfdfbb" d="M 60.5,74.5 C 62.099,74.2322 63.4324,74.5655 64.5,75.5C 63.2905,75.9321 62.2905,76.5987 61.5,77.5C 61.1667,77.5 60.8333,77.5 60.5,77.5C 56.4517,77.3946 52.4517,77.7279 48.5,78.5C 49.8333,77.5 51.1667,76.5 52.5,75.5C 55.0961,74.7347 57.7628,74.4013 60.5,74.5 Z"/></g>
<g><path style="opacity:1" fill="#e3e6d5" d="M 108.5,73.5 C 106.095,74.7682 103.428,75.4349 100.5,75.5C 97.4552,75.5079 94.4552,75.8413 91.5,76.5C 91.6107,75.8826 91.944,75.3826 92.5,75C 97.8222,74.3159 103.156,73.8159 108.5,73.5 Z"/></g>
<g><path style="opacity:0.647" fill="#bfbfa2" d="M 14.5,63.5 C 15.5983,64.6009 15.765,65.9343 15,67.5C 11.1667,71.3333 7.33333,75.1667 3.5,79C 4.44802,79.4828 5.44802,79.6495 6.5,79.5C 6.5,79.8333 6.5,80.1667 6.5,80.5C 5.16667,80.5 3.83333,80.5 2.5,80.5C 2.35055,79.448 2.51722,78.448 3,77.5C 6.66667,73.8333 10.3333,70.1667 14,66.5C 14.4828,65.552 14.6495,64.552 14.5,63.5 Z"/></g>
<g><path style="opacity:1" fill="#93925b" d="M 13.5,61.5 C 14.1667,61.5 14.8333,61.5 15.5,61.5C 15.5,62.1667 15.8333,62.5 16.5,62.5C 17.1386,63.0968 17.472,63.9302 17.5,65C 17.0457,66.9386 16.379,68.772 15.5,70.5C 11.5,72.5 8.5,75.5 6.5,79.5C 5.44802,79.6495 4.44802,79.4828 3.5,79C 7.33333,75.1667 11.1667,71.3333 15,67.5C 15.765,65.9343 15.5983,64.6009 14.5,63.5C 14.1667,62.8333 13.8333,62.1667 13.5,61.5 Z"/></g>
<g><path style="opacity:1" fill="#a7a268" d="M 15.5,70.5 C 15.67,71.8221 15.3366,72.9887 14.5,74C 15.7932,74.49 17.1266,74.6567 18.5,74.5C 14.5502,76.0718 10.5502,77.7385 6.5,79.5C 8.5,75.5 11.5,72.5 15.5,70.5 Z"/></g>
<g><path style="opacity:1" fill="#d4a273" d="M 47.5,73.5 C 48.391,74.1098 49.391,74.4431 50.5,74.5C 50.8417,75.3382 51.5084,75.6716 52.5,75.5C 51.1667,76.5 49.8333,77.5 48.5,78.5C 47.791,79.404 46.791,79.7373 45.5,79.5C 47.0746,77.8863 47.7413,75.8863 47.5,73.5 Z"/></g>
<g><path style="opacity:0.029" fill="#e4e5da" d="M 100.5,75.5 C 92.673,77.0596 84.673,78.0596 76.5,78.5C 76.5,77.8333 76.5,77.1667 76.5,76.5C 81.5,76.5 86.5,76.5 91.5,76.5C 94.4552,75.8413 97.4552,75.5079 100.5,75.5 Z"/></g>
<g><path style="opacity:0.125" fill="#d1ceb2" d="M 22.5,73.5 C 17.9305,77.3645 12.5972,79.6978 6.5,80.5C 6.5,80.1667 6.5,79.8333 6.5,79.5C 10.5502,77.7385 14.5502,76.0718 18.5,74.5C 19.5676,73.5655 20.901,73.2322 22.5,73.5 Z"/></g>
<g><path style="opacity:1" fill="#e4a069" d="M 67.5,75.5 C 69.1667,75.5 70.8333,75.5 72.5,75.5C 73.7065,76.8804 73.3731,78.0471 71.5,79C 69.9751,80.0086 68.3084,80.5086 66.5,80.5C 65.2655,78.6017 65.5989,76.935 67.5,75.5 Z"/></g>
<g><path style="opacity:0.729" fill="#d3a69b" d="M 36.5,71.5 C 37.8221,71.33 38.9887,71.6634 40,72.5C 40.6869,74.5675 40.5202,76.5675 39.5,78.5C 41.396,79.4656 43.396,79.7989 45.5,79.5C 42.658,80.9994 39.658,81.3328 36.5,80.5C 37.3802,78.5708 38.3802,76.7374 39.5,75C 38.9293,73.4009 37.9293,72.2342 36.5,71.5 Z"/></g>
<g><path style="opacity:1" fill="#ecbd9e" d="M 72.5,75.5 C 73.1667,75.5 73.8333,75.5 74.5,75.5C 74.8417,76.3382 75.5084,76.6716 76.5,76.5C 76.5,77.1667 76.5,77.8333 76.5,78.5C 71.8971,82.6979 66.5637,84.6979 60.5,84.5C 61.0525,82.2727 61.0525,79.9393 60.5,77.5C 60.8333,77.5 61.1667,77.5 61.5,77.5C 61.8333,79.5 62.1667,81.5 62.5,83.5C 64.6188,83.5323 65.9522,82.5323 66.5,80.5C 68.3084,80.5086 69.9751,80.0086 71.5,79C 73.3731,78.0471 73.7065,76.8804 72.5,75.5 Z"/></g>
<g><path style="opacity:1" fill="#e2916c" d="M 64.5,75.5 C 65.5,75.5 66.5,75.5 67.5,75.5C 65.5989,76.935 65.2655,78.6017 66.5,80.5C 65.9522,82.5323 64.6188,83.5323 62.5,83.5C 62.1667,81.5 61.8333,79.5 61.5,77.5C 62.2905,76.5987 63.2905,75.9321 64.5,75.5 Z"/></g>
</svg>
