<?xml version="1.0" encoding="UTF-8"?>
<!DOCTYPE svg PUBLIC "-//W3C//DTD SVG 1.1//EN" "http://www.w3.org/Graphics/SVG/1.1/DTD/svg11.dtd">
<svg xmlns="http://www.w3.org/2000/svg" version="1.1" width="128px" height="128px" style="shape-rendering:geometricPrecision; text-rendering:geometricPrecision; image-rendering:optimizeQuality; fill-rule:evenodd; clip-rule:evenodd" xmlns:xlink="http://www.w3.org/1999/xlink">
<g><path style="opacity:0.729" fill="#a5a6a8" d="M 57.5,44.5 C 59.5979,43.5155 61.5979,43.8489 63.5,45.5C 63.1667,45.5 62.8333,45.5 62.5,45.5C 60.7085,45.634 59.0418,45.3007 57.5,44.5 Z"/></g>
<g><path style="opacity:1" fill="#5d6163" d="M 57.5,44.5 C 59.0418,45.3007 60.7085,45.634 62.5,45.5C 62.1583,46.3382 61.4916,46.6716 60.5,46.5C 60.1667,46.5 59.8333,46.5 59.5,46.5C 58.8333,46.5 58.1667,46.5 57.5,46.5C 57.5,46.1667 57.5,45.8333 57.5,45.5C 57.5,45.1667 57.5,44.8333 57.5,44.5 Z"/></g>
<g><path style="opacity:0.118" fill="#d5d6d6" d="M 57.5,45.5 C 57.5,45.8333 57.5,46.1667 57.5,46.5C 56.8333,46.8333 56.1667,47.1667 55.5,47.5C 55.5,46.1667 56.1667,45.5 57.5,45.5 Z"/></g>
<g><path style="opacity:1" fill="#6e7072" d="M 62.5,45.5 C 62.8333,45.5 63.1667,45.5 63.5,45.5C 63.8333,45.5 64.1667,45.5 64.5,45.5C 64.5,45.8333 64.5,46.1667 64.5,46.5C 64.5,47.1667 64.1667,47.5 63.5,47.5C 62.5,47.5 61.5,47.5 60.5,47.5C 60.5,47.1667 60.5,46.8333 60.5,46.5C 61.4916,46.6716 62.1583,46.3382 62.5,45.5 Z"/></g>
<g><path style="opacity:0.886" fill="#9e9e9e" d="M 64.5,46.5 C 64.5,46.1667 64.5,45.8333 64.5,45.5C 66.5529,45.4021 68.2196,46.0687 69.5,47.5C 67.7085,47.634 66.0418,47.3007 64.5,46.5 Z"/></g>
<g><path style="opacity:1" fill="#787b81" d="M 6.5,46.5 C 8.17876,46.2852 9.17876,46.9519 9.5,48.5C 8.39105,48.5569 7.39105,48.8902 6.5,49.5C 6.5,48.5 6.5,47.5 6.5,46.5 Z"/></g>
<g><path style="opacity:1" fill="#8f9294" d="M 6.5,46.5 C 9.01182,45.1326 11.3452,45.466 13.5,47.5C 12.0413,47.4326 10.7079,47.7659 9.5,48.5C 9.17876,46.9519 8.17876,46.2852 6.5,46.5 Z"/></g>
<g><path style="opacity:1" fill="#636767" d="M 57.5,46.5 C 58.1667,46.5 58.8333,46.5 59.5,46.5C 58.9423,47.7899 57.9423,48.6232 56.5,49C 57.448,49.4828 58.448,49.6495 59.5,49.5C 60.791,49.2627 61.791,49.596 62.5,50.5C 59.5,50.5 56.5,50.5 53.5,50.5C 52.8333,50.5 52.1667,50.5 51.5,50.5C 53.2191,49.9779 54.5525,48.9779 55.5,47.5C 56.1667,47.1667 56.8333,46.8333 57.5,46.5 Z"/></g>
<g><path style="opacity:1" fill="#595f63" d="M 59.5,46.5 C 59.8333,46.5 60.1667,46.5 60.5,46.5C 60.5,46.8333 60.5,47.1667 60.5,47.5C 60.1667,48.1667 59.8333,48.8333 59.5,49.5C 58.448,49.6495 57.448,49.4828 56.5,49C 57.9423,48.6232 58.9423,47.7899 59.5,46.5 Z"/></g>
<g><path style="opacity:0.99" fill="#636669" d="M 64.5,46.5 C 66.0418,47.3007 67.7085,47.634 69.5,47.5C 70.1667,48.1667 70.8333,48.8333 71.5,49.5C 70.1667,49.5 68.8333,49.5 67.5,49.5C 66.0048,49.0113 64.6715,48.3446 63.5,47.5C 64.1667,47.5 64.5,47.1667 64.5,46.5 Z"/></g>
<g><path style="opacity:1" fill="#6a6e76" d="M 13.5,47.5 C 13.5,48.1667 13.5,48.8333 13.5,49.5C 13.1667,49.5 12.8333,49.5 12.5,49.5C 11.5,49.5 10.5,49.5 9.5,49.5C 9.5,49.1667 9.5,48.8333 9.5,48.5C 10.7079,47.7659 12.0413,47.4326 13.5,47.5 Z"/></g>
<g><path style="opacity:1" fill="#74787d" d="M 13.5,47.5 C 14.9587,47.4326 16.2921,47.7659 17.5,48.5C 17.5,48.8333 17.5,49.1667 17.5,49.5C 16.5084,49.3284 15.8417,49.6618 15.5,50.5C 14.5084,50.6716 13.8417,50.3382 13.5,49.5C 13.5,48.8333 13.5,48.1667 13.5,47.5 Z"/></g>
<g><path style="opacity:1" fill="#545a5f" d="M 60.5,47.5 C 61.5,47.5 62.5,47.5 63.5,47.5C 64.6715,48.3446 66.0048,49.0113 67.5,49.5C 66.0813,50.4511 64.4147,50.7845 62.5,50.5C 61.791,49.596 60.791,49.2627 59.5,49.5C 59.8333,48.8333 60.1667,48.1667 60.5,47.5 Z"/></g>
<g><path style="opacity:0.424" fill="#a6a7a3" d="M 69.5,47.5 C 72.7861,48.2071 76.1194,48.5405 79.5,48.5C 79.5,48.8333 79.5,49.1667 79.5,49.5C 76.8333,49.5 74.1667,49.5 71.5,49.5C 70.8333,48.8333 70.1667,48.1667 69.5,47.5 Z"/></g>
<g><path style="opacity:1" fill="#93969c" d="M 9.5,48.5 C 9.5,48.8333 9.5,49.1667 9.5,49.5C 8.66175,49.8417 8.32842,50.5084 8.5,51.5C 7.83333,51.1667 7.16667,50.8333 6.5,50.5C 6.5,50.1667 6.5,49.8333 6.5,49.5C 7.39105,48.8902 8.39105,48.5569 9.5,48.5 Z"/></g>
<g><path style="opacity:1" fill="#878c95" d="M 9.5,49.5 C 10.5,49.5 11.5,49.5 12.5,49.5C 11.5,50.1667 10.5,50.8333 9.5,51.5C 9.16667,51.5 8.83333,51.5 8.5,51.5C 8.32842,50.5084 8.66175,49.8417 9.5,49.5 Z"/></g>
<g><path style="opacity:1" fill="#757b82" d="M 12.5,49.5 C 12.8333,49.5 13.1667,49.5 13.5,49.5C 13.8417,50.3382 14.5084,50.6716 15.5,50.5C 15.1667,51.1667 14.8333,51.8333 14.5,52.5C 13.3478,51.375 12.3478,51.375 11.5,52.5C 10.8333,52.1667 10.1667,51.8333 9.5,51.5C 10.5,50.8333 11.5,50.1667 12.5,49.5 Z"/></g>
<g><path style="opacity:0.388" fill="#acaea9" d="M 17.5,49.5 C 17.5,49.1667 17.5,48.8333 17.5,48.5C 19.153,48.6596 20.4863,49.3263 21.5,50.5C 21.1667,50.5 20.8333,50.5 20.5,50.5C 19.8333,50.5 19.1667,50.5 18.5,50.5C 18.5,49.8333 18.1667,49.5 17.5,49.5 Z"/></g>
<g><path style="opacity:0.992" fill="#89877f" d="M 79.5,48.5 C 85.3856,48.9797 91.0522,49.9797 96.5,51.5C 90.8387,51.0932 85.172,50.7599 79.5,50.5C 79.5,50.1667 79.5,49.8333 79.5,49.5C 79.5,49.1667 79.5,48.8333 79.5,48.5 Z"/></g>
<g><path style="opacity:1" fill="#63676b" d="M 17.5,49.5 C 18.1667,49.5 18.5,49.8333 18.5,50.5C 18.5,51.1667 18.5,51.8333 18.5,52.5C 18.1667,52.5 17.8333,52.5 17.5,52.5C 16.5,52.5 15.5,52.5 14.5,52.5C 14.8333,51.8333 15.1667,51.1667 15.5,50.5C 15.8417,49.6618 16.5084,49.3284 17.5,49.5 Z"/></g>
<g><path style="opacity:1" fill="#4a4527" d="M 67.5,49.5 C 68.8333,49.5 70.1667,49.5 71.5,49.5C 74.1667,49.5 76.8333,49.5 79.5,49.5C 79.5,49.8333 79.5,50.1667 79.5,50.5C 73.2252,51.418 66.8918,51.7513 60.5,51.5C 57.9407,51.8016 55.6074,51.4682 53.5,50.5C 56.5,50.5 59.5,50.5 62.5,50.5C 64.4147,50.7845 66.0813,50.4511 67.5,49.5 Z"/></g>
<g><path style="opacity:1" fill="#676968" d="M 18.5,50.5 C 19.1667,50.5 19.8333,50.5 20.5,50.5C 20.5,50.8333 20.5,51.1667 20.5,51.5C 20.5,52.1667 20.5,52.8333 20.5,53.5C 19.5084,53.6716 18.8417,53.3382 18.5,52.5C 18.5,51.8333 18.5,51.1667 18.5,50.5 Z"/></g>
<g><path style="opacity:0.976" fill="#94938d" d="M 20.5,51.5 C 20.5,51.1667 20.5,50.8333 20.5,50.5C 20.8333,50.5 21.1667,50.5 21.5,50.5C 23.153,50.6596 24.4863,51.3263 25.5,52.5C 24.8333,52.5 24.1667,52.5 23.5,52.5C 22.609,51.8902 21.609,51.5569 20.5,51.5 Z"/></g>
<g><path style="opacity:1" fill="#83827a" d="M 51.5,50.5 C 49.2854,51.2679 46.9521,51.9346 44.5,52.5C 43.5084,52.6716 42.8417,52.3382 42.5,51.5C 45.2869,50.5233 48.2869,50.19 51.5,50.5 Z"/></g>
<g><path style="opacity:1" fill="#554e2f" d="M 51.5,50.5 C 52.1667,50.5 52.8333,50.5 53.5,50.5C 55.6074,51.4682 57.9407,51.8016 60.5,51.5C 60.5,51.8333 60.5,52.1667 60.5,52.5C 55.1463,52.5688 49.813,52.9022 44.5,53.5C 44.5,53.1667 44.5,52.8333 44.5,52.5C 46.9521,51.9346 49.2854,51.2679 51.5,50.5 Z"/></g>
<g><path style="opacity:1" fill="#877741" d="M 79.5,50.5 C 81.5,51.1667 83.5,51.8333 85.5,52.5C 78.8333,52.5 72.1667,52.5 65.5,52.5C 63.8333,52.5 62.1667,52.5 60.5,52.5C 60.5,52.1667 60.5,51.8333 60.5,51.5C 66.8918,51.7513 73.2252,51.418 79.5,50.5 Z"/></g>
<g><path style="opacity:1" fill="#594f2a" d="M 79.5,50.5 C 85.172,50.7599 90.8387,51.0932 96.5,51.5C 96.5,51.8333 96.5,52.1667 96.5,52.5C 93.1667,52.5 89.8333,52.5 86.5,52.5C 86.1667,52.5 85.8333,52.5 85.5,52.5C 83.5,51.8333 81.5,51.1667 79.5,50.5 Z"/></g>
<g><path style="opacity:1" fill="#b3b5b8" d="M 6.5,50.5 C 7.16667,50.8333 7.83333,51.1667 8.5,51.5C 8.83333,51.5 9.16667,51.5 9.5,51.5C 10.1667,51.8333 10.8333,52.1667 11.5,52.5C 11.5,52.8333 11.5,53.1667 11.5,53.5C 10.5,54.8333 9.5,54.8333 8.5,53.5C 7.09368,53.0269 6.42702,52.0269 6.5,50.5 Z"/></g>
<g><path style="opacity:1" fill="#878b91" d="M 14.5,52.5 C 15.5,52.5 16.5,52.5 17.5,52.5C 17.1667,53.1667 16.8333,53.8333 16.5,54.5C 14.8828,53.962 13.2161,53.6287 11.5,53.5C 11.5,53.1667 11.5,52.8333 11.5,52.5C 12.3478,51.375 13.3478,51.375 14.5,52.5 Z"/></g>
<g><path style="opacity:1" fill="#5a5a56" d="M 20.5,51.5 C 21.609,51.5569 22.609,51.8902 23.5,52.5C 23.5,53.1667 23.5,53.8333 23.5,54.5C 23.1667,54.5 22.8333,54.5 22.5,54.5C 21.8333,54.5 21.1667,54.5 20.5,54.5C 20.5,54.1667 20.5,53.8333 20.5,53.5C 20.5,52.8333 20.5,52.1667 20.5,51.5 Z"/></g>
<g><path style="opacity:1" fill="#69634d" d="M 42.5,51.5 C 42.8417,52.3382 43.5084,52.6716 44.5,52.5C 44.5,52.8333 44.5,53.1667 44.5,53.5C 41.5,53.5 38.5,53.5 35.5,53.5C 35.5,53.1667 35.5,52.8333 35.5,52.5C 37.6074,51.5318 39.9407,51.1984 42.5,51.5 Z"/></g>
<g><path style="opacity:1" fill="#7a6b39" d="M 86.5,53.5 C 86.5,53.1667 86.5,52.8333 86.5,52.5C 89.8333,52.5 93.1667,52.5 96.5,52.5C 97.5,52.8333 98.1667,53.5 98.5,54.5C 97.8333,54.5 97.1667,54.5 96.5,54.5C 93.3752,53.5206 90.0419,53.1872 86.5,53.5 Z"/></g>
<g><path style="opacity:1" fill="#9da0a4" d="M 8.5,53.5 C 9.5,54.8333 10.5,54.8333 11.5,53.5C 13.2161,53.6287 14.8828,53.962 16.5,54.5C 17.1667,54.5 17.5,54.8333 17.5,55.5C 16.8333,55.5 16.1667,55.5 15.5,55.5C 14.2921,56.2341 12.9587,56.5674 11.5,56.5C 9.81018,56.1436 8.81018,55.1436 8.5,53.5 Z"/></g>
<g><path style="opacity:1" fill="#848685" d="M 17.5,52.5 C 17.8333,52.5 18.1667,52.5 18.5,52.5C 18.8417,53.3382 19.5084,53.6716 20.5,53.5C 20.5,53.8333 20.5,54.1667 20.5,54.5C 19.8333,54.5 19.5,54.8333 19.5,55.5C 18.8333,55.5 18.1667,55.5 17.5,55.5C 17.5,54.8333 17.1667,54.5 16.5,54.5C 16.8333,53.8333 17.1667,53.1667 17.5,52.5 Z"/></g>
<g><path style="opacity:1" fill="#7c7763" d="M 23.5,52.5 C 24.1667,52.5 24.8333,52.5 25.5,52.5C 28.8333,52.5 32.1667,52.5 35.5,52.5C 35.5,52.8333 35.5,53.1667 35.5,53.5C 35.1667,53.5 34.8333,53.5 34.5,53.5C 30.9359,54.4227 27.2693,54.756 23.5,54.5C 23.5,53.8333 23.5,53.1667 23.5,52.5 Z"/></g>
<g><path style="opacity:1" fill="#938356" d="M 60.5,52.5 C 62.1667,52.5 63.8333,52.5 65.5,52.5C 65.5,52.8333 65.5,53.1667 65.5,53.5C 65.1667,53.5 64.8333,53.5 64.5,53.5C 60.6286,53.185 56.9619,53.5184 53.5,54.5C 50.5,54.5 47.5,54.5 44.5,54.5C 41.5,54.5 38.5,54.5 35.5,54.5C 34.8333,54.5 34.5,54.1667 34.5,53.5C 34.8333,53.5 35.1667,53.5 35.5,53.5C 38.5,53.5 41.5,53.5 44.5,53.5C 49.813,52.9022 55.1463,52.5688 60.5,52.5 Z"/></g>
<g><path style="opacity:1" fill="#867e6c" d="M 96.5,52.5 C 96.5,52.1667 96.5,51.8333 96.5,51.5C 99.5418,51.7329 102.208,52.7329 104.5,54.5C 103.209,54.2627 102.209,54.596 101.5,55.5C 100.391,55.4431 99.391,55.1098 98.5,54.5C 98.1667,53.5 97.5,52.8333 96.5,52.5 Z"/></g>
<g><path style="opacity:1" fill="#95875c" d="M 34.5,53.5 C 34.5,54.1667 34.8333,54.5 35.5,54.5C 33.7354,55.4614 31.7354,55.7947 29.5,55.5C 29.1667,55.5 28.8333,55.5 28.5,55.5C 27.8333,55.5 27.1667,55.5 26.5,55.5C 25.1667,55.5 23.8333,55.5 22.5,55.5C 22.5,55.1667 22.5,54.8333 22.5,54.5C 22.8333,54.5 23.1667,54.5 23.5,54.5C 27.2693,54.756 30.9359,54.4227 34.5,53.5 Z"/></g>
<g><path style="opacity:1" fill="#ccb78a" d="M 44.5,55.5 C 44.5,55.1667 44.5,54.8333 44.5,54.5C 47.5,54.5 50.5,54.5 53.5,54.5C 51.6264,55.2852 49.6264,55.9518 47.5,56.5C 46.791,55.596 45.791,55.2627 44.5,55.5 Z"/></g>
<g><path style="opacity:1" fill="#e6deca" d="M 55.5,54.5 C 57.4147,54.2155 59.0813,54.5489 60.5,55.5C 59.2921,56.2341 57.9587,56.5674 56.5,56.5C 54.3023,56.5912 53.9689,55.9245 55.5,54.5 Z"/></g>
<g><path style="opacity:1" fill="#d5caa9" d="M 53.5,54.5 C 56.9619,53.5184 60.6286,53.185 64.5,53.5C 64.1667,54.1667 63.8333,54.8333 63.5,55.5C 63.4361,56.3652 63.1027,57.3652 62.5,58.5C 61.8333,58.5 61.5,58.1667 61.5,57.5C 61.1667,56.8333 60.8333,56.1667 60.5,55.5C 59.0813,54.5489 57.4147,54.2155 55.5,54.5C 54.8333,54.5 54.1667,54.5 53.5,54.5 Z"/></g>
<g><path style="opacity:1" fill="#ebe3cf" d="M 64.5,53.5 C 64.8333,53.5 65.1667,53.5 65.5,53.5C 66.8333,53.5 68.1667,53.5 69.5,53.5C 69.6716,54.4916 69.3382,55.1583 68.5,55.5C 67.8333,55.5 67.1667,55.5 66.5,55.5C 66.1667,55.5 65.8333,55.5 65.5,55.5C 64.8333,55.5 64.1667,55.5 63.5,55.5C 63.8333,54.8333 64.1667,54.1667 64.5,53.5 Z"/></g>
<g><path style="opacity:1" fill="#ede8cd" d="M 69.5,53.5 C 70.675,53.281 71.675,53.6143 72.5,54.5C 72.3764,55.1067 72.0431,55.44 71.5,55.5C 70.8333,55.5 70.5,55.8333 70.5,56.5C 69.5084,56.6716 68.8417,56.3382 68.5,55.5C 69.3382,55.1583 69.6716,54.4916 69.5,53.5 Z"/></g>
<g><path style="opacity:1" fill="#ddd0ab" d="M 65.5,53.5 C 65.5,53.1667 65.5,52.8333 65.5,52.5C 72.1667,52.5 78.8333,52.5 85.5,52.5C 85.8333,52.5 86.1667,52.5 86.5,52.5C 86.5,52.8333 86.5,53.1667 86.5,53.5C 84.2646,53.2053 82.2646,53.5386 80.5,54.5C 78.901,54.2322 77.5676,54.5655 76.5,55.5C 75.209,55.2627 74.209,55.596 73.5,56.5C 73.1667,56.5 72.8333,56.5 72.5,56.5C 71.8333,56.5 71.5,56.1667 71.5,55.5C 72.0431,55.44 72.3764,55.1067 72.5,54.5C 71.675,53.6143 70.675,53.281 69.5,53.5C 68.1667,53.5 66.8333,53.5 65.5,53.5 Z"/></g>
<g><path style="opacity:1" fill="#ece8d8" d="M 80.5,54.5 C 84.8383,54.6219 85.1716,54.9553 81.5,55.5C 80.5084,55.3284 79.8417,55.6618 79.5,56.5C 78.5,56.5 77.5,56.5 76.5,56.5C 76.5,56.1667 76.5,55.8333 76.5,55.5C 77.5676,54.5655 78.901,54.2322 80.5,54.5 Z"/></g>
<g><path style="opacity:1" fill="#e6ddbc" d="M 80.5,54.5 C 82.2646,53.5386 84.2646,53.2053 86.5,53.5C 90.0419,53.1872 93.3752,53.5206 96.5,54.5C 94.1432,54.3367 91.8098,54.5034 89.5,55C 90.8584,55.9344 92.1917,56.7677 93.5,57.5C 93.1667,57.5 92.8333,57.5 92.5,57.5C 90.901,57.7678 89.5676,57.4345 88.5,56.5C 88.2648,55.9033 87.7648,55.5699 87,55.5C 85.9231,56.4295 84.7564,57.0962 83.5,57.5C 83.1583,56.6618 82.4916,56.3284 81.5,56.5C 81.5,56.1667 81.5,55.8333 81.5,55.5C 85.1716,54.9553 84.8383,54.6219 80.5,54.5 Z"/></g>
<g><path style="opacity:1" fill="#7f8081" d="M 15.5,55.5 C 16.1667,55.5 16.8333,55.5 17.5,55.5C 18.1667,55.5 18.8333,55.5 19.5,55.5C 20.404,56.209 20.7373,57.209 20.5,58.5C 19.9694,57.2046 18.6361,56.5379 16.5,56.5C 15.8333,56.5 15.5,56.1667 15.5,55.5 Z"/></g>
<g><path style="opacity:1" fill="#b3a079" d="M 22.5,55.5 C 23.8333,55.5 25.1667,55.5 26.5,55.5C 26.5,55.8333 26.5,56.1667 26.5,56.5C 25.5084,56.3284 24.8417,56.6618 24.5,57.5C 23.8333,57.5 23.1667,57.5 22.5,57.5C 22.5,56.8333 22.5,56.1667 22.5,55.5 Z"/></g>
<g><path style="opacity:1" fill="#c4b07c" d="M 35.5,54.5 C 38.5,54.5 41.5,54.5 44.5,54.5C 44.5,54.8333 44.5,55.1667 44.5,55.5C 42.1667,55.5 39.8333,55.5 37.5,55.5C 36.8333,55.8333 36.1667,56.1667 35.5,56.5C 34.1667,56.5 32.8333,56.5 31.5,56.5C 30.5084,56.6716 29.8417,56.3382 29.5,55.5C 31.7354,55.7947 33.7354,55.4614 35.5,54.5 Z"/></g>
<g><path style="opacity:1" fill="#e6d6a8" d="M 37.5,55.5 C 39.8333,55.5 42.1667,55.5 44.5,55.5C 45.791,55.2627 46.791,55.596 47.5,56.5C 45.2646,56.2053 43.2646,56.5386 41.5,57.5C 40.0048,57.0113 38.6715,56.3446 37.5,55.5 Z"/></g>
<g><path style="opacity:1" fill="#e6dcbb" d="M 53.5,54.5 C 54.1667,54.5 54.8333,54.5 55.5,54.5C 53.9689,55.9245 54.3023,56.5912 56.5,56.5C 56.5,56.8333 56.5,57.1667 56.5,57.5C 56.1667,57.5 55.8333,57.5 55.5,57.5C 53.901,57.2322 52.5676,57.5655 51.5,58.5C 50.8333,58.5 50.1667,58.5 49.5,58.5C 48.5,58.5 47.5,58.5 46.5,58.5C 45.391,58.4431 44.391,58.1098 43.5,57.5C 42.8333,57.5 42.1667,57.5 41.5,57.5C 43.2646,56.5386 45.2646,56.2053 47.5,56.5C 49.6264,55.9518 51.6264,55.2852 53.5,54.5 Z"/></g>
<g><path style="opacity:1" fill="#f0ead2" d="M 96.5,54.5 C 96.5,55.1667 96.5,55.8333 96.5,56.5C 95.609,57.1098 94.609,57.4431 93.5,57.5C 92.1917,56.7677 90.8584,55.9344 89.5,55C 91.8098,54.5034 94.1432,54.3367 96.5,54.5 Z"/></g>
<g><path style="opacity:1" fill="#554823" d="M 104.5,54.5 C 104.833,55.1667 105.167,55.8333 105.5,56.5C 105.167,56.5 104.833,56.5 104.5,56.5C 103.5,56.5 102.5,56.5 101.5,56.5C 101.5,56.1667 101.5,55.8333 101.5,55.5C 102.209,54.596 103.209,54.2627 104.5,54.5 Z"/></g>
<g><path style="opacity:0.49" fill="#85837b" d="M 104.5,54.5 C 106.819,54.9925 108.819,55.9925 110.5,57.5C 109.5,57.5 108.5,57.5 107.5,57.5C 107.158,56.6618 106.492,56.3284 105.5,56.5C 105.167,55.8333 104.833,55.1667 104.5,54.5 Z"/></g>
<g><path style="opacity:1" fill="#8c8f93" d="M 15.5,55.5 C 15.5,56.1667 15.8333,56.5 16.5,56.5C 15.4324,57.4345 14.099,57.7678 12.5,57.5C 11.8333,57.5 11.5,57.1667 11.5,56.5C 12.9587,56.5674 14.2921,56.2341 15.5,55.5 Z"/></g>
<g><path style="opacity:1" fill="#7f7d73" d="M 19.5,55.5 C 19.5,54.8333 19.8333,54.5 20.5,54.5C 21.1667,54.5 21.8333,54.5 22.5,54.5C 22.5,54.8333 22.5,55.1667 22.5,55.5C 22.5,56.1667 22.5,56.8333 22.5,57.5C 22.5,57.8333 22.5,58.1667 22.5,58.5C 21.8333,58.5 21.1667,58.5 20.5,58.5C 20.7373,57.209 20.404,56.209 19.5,55.5 Z"/></g>
<g><path style="opacity:1" fill="#d9bf87" d="M 26.5,55.5 C 27.1667,55.5 27.8333,55.5 28.5,55.5C 28.5,56.5 28.5,57.5 28.5,58.5C 28.1667,58.5 27.8333,58.5 27.5,58.5C 27.1667,57.8333 26.8333,57.1667 26.5,56.5C 26.5,56.1667 26.5,55.8333 26.5,55.5 Z"/></g>
<g><path style="opacity:1" fill="#ead398" d="M 28.5,55.5 C 28.8333,55.5 29.1667,55.5 29.5,55.5C 29.8417,56.3382 30.5084,56.6716 31.5,56.5C 32.1667,57.1667 32.8333,57.8333 33.5,58.5C 33.1667,58.5 32.8333,58.5 32.5,58.5C 31.0413,58.4326 29.7079,58.7659 28.5,59.5C 28.5,59.1667 28.5,58.8333 28.5,58.5C 28.5,57.5 28.5,56.5 28.5,55.5 Z"/></g>
<g><path style="opacity:1" fill="#efe4b3" d="M 37.5,55.5 C 38.6715,56.3446 40.0048,57.0113 41.5,57.5C 42.1667,57.5 42.8333,57.5 43.5,57.5C 43.5,57.8333 43.5,58.1667 43.5,58.5C 42.5,58.5 41.5,58.5 40.5,58.5C 39.5,58.5 38.5,58.5 37.5,58.5C 37.1667,58.5 36.8333,58.5 36.5,58.5C 36.1667,57.8333 35.8333,57.1667 35.5,56.5C 36.1667,56.1667 36.8333,55.8333 37.5,55.5 Z"/></g>
<g><path style="opacity:1" fill="#d1c8a6" d="M 60.5,55.5 C 60.8333,56.1667 61.1667,56.8333 61.5,57.5C 59.8333,57.5 58.1667,57.5 56.5,57.5C 56.5,57.1667 56.5,56.8333 56.5,56.5C 57.9587,56.5674 59.2921,56.2341 60.5,55.5 Z"/></g>
<g><path style="opacity:1" fill="#d1c295" d="M 65.5,55.5 C 65.8333,55.5 66.1667,55.5 66.5,55.5C 67.1098,56.391 67.4431,57.391 67.5,58.5C 66.8333,58.1667 66.1667,57.8333 65.5,57.5C 65.1667,57.5 64.8333,57.5 64.5,57.5C 64.8333,56.8333 65.1667,56.1667 65.5,55.5 Z"/></g>
<g><path style="opacity:1" fill="#e9dfb4" d="M 76.5,55.5 C 76.5,55.8333 76.5,56.1667 76.5,56.5C 76.5,56.8333 76.5,57.1667 76.5,57.5C 76.5,57.8333 76.5,58.1667 76.5,58.5C 75.5,58.5 74.5,58.5 73.5,58.5C 73.5,57.8333 73.5,57.1667 73.5,56.5C 74.209,55.596 75.209,55.2627 76.5,55.5 Z"/></g>
<g><path style="opacity:1" fill="#e1d6b8" d="M 81.5,55.5 C 81.5,55.8333 81.5,56.1667 81.5,56.5C 81.7148,58.1788 81.0481,59.1788 79.5,59.5C 78.209,59.7373 77.209,59.404 76.5,58.5C 76.5,58.1667 76.5,57.8333 76.5,57.5C 79.0764,59.1166 80.0764,58.7833 79.5,56.5C 79.8417,55.6618 80.5084,55.3284 81.5,55.5 Z"/></g>
<g><path style="opacity:1" fill="#d4bd78" d="M 96.5,54.5 C 97.1667,54.5 97.8333,54.5 98.5,54.5C 99.391,55.1098 100.391,55.4431 101.5,55.5C 101.5,55.8333 101.5,56.1667 101.5,56.5C 100.041,56.4326 98.7079,56.7659 97.5,57.5C 97.1667,57.5 96.8333,57.5 96.5,57.5C 96.5,57.1667 96.5,56.8333 96.5,56.5C 96.5,55.8333 96.5,55.1667 96.5,54.5 Z"/></g>
<g><path style="opacity:1" fill="#fbe09f" d="M 101.5,56.5 C 101.833,57.1667 102.167,57.8333 102.5,58.5C 102.167,58.5 101.833,58.5 101.5,58.5C 100.833,58.5 100.167,58.5 99.5,58.5C 98.8333,58.5 98.1667,58.5 97.5,58.5C 97.5,58.1667 97.5,57.8333 97.5,57.5C 98.7079,56.7659 100.041,56.4326 101.5,56.5 Z"/></g>
<g><path style="opacity:1" fill="#e9ce90" d="M 26.5,56.5 C 26.8333,57.1667 27.1667,57.8333 27.5,58.5C 26.5084,58.3284 25.8417,58.6618 25.5,59.5C 24.6618,59.1583 24.3284,58.4916 24.5,57.5C 24.8417,56.6618 25.5084,56.3284 26.5,56.5 Z"/></g>
<g><path style="opacity:1" fill="#efd9a8" d="M 31.5,56.5 C 32.8333,56.5 34.1667,56.5 35.5,56.5C 35.8333,57.1667 36.1667,57.8333 36.5,58.5C 35.5,58.5 34.5,58.5 33.5,58.5C 32.8333,57.8333 32.1667,57.1667 31.5,56.5 Z"/></g>
<g><path style="opacity:1" fill="#d6cd9a" d="M 51.5,58.5 C 52.5676,57.5655 53.901,57.2322 55.5,57.5C 55.5,57.8333 55.5,58.1667 55.5,58.5C 55.1583,59.3382 54.4916,59.6716 53.5,59.5C 53.1583,58.6618 52.4916,58.3284 51.5,58.5 Z"/></g>
<g><path style="opacity:1" fill="#ccbf8f" d="M 55.5,58.5 C 55.5,58.1667 55.5,57.8333 55.5,57.5C 55.8333,57.5 56.1667,57.5 56.5,57.5C 58.1667,57.5 59.8333,57.5 61.5,57.5C 61.5,58.1667 61.8333,58.5 62.5,58.5C 62.5,58.8333 62.5,59.1667 62.5,59.5C 60.5648,58.8505 58.5648,58.5172 56.5,58.5C 56.1667,58.5 55.8333,58.5 55.5,58.5 Z"/></g>
<g><path style="opacity:1" fill="#e2d6b8" d="M 63.5,55.5 C 64.1667,55.5 64.8333,55.5 65.5,55.5C 65.1667,56.1667 64.8333,56.8333 64.5,57.5C 64.1583,58.3382 63.4916,58.6716 62.5,58.5C 63.1027,57.3652 63.4361,56.3652 63.5,55.5 Z"/></g>
<g><path style="opacity:1" fill="#e4d7a5" d="M 66.5,55.5 C 67.1667,55.5 67.8333,55.5 68.5,55.5C 68.8417,56.3382 69.5084,56.6716 70.5,56.5C 70.5,56.8333 70.5,57.1667 70.5,57.5C 70.5,58.1667 70.1667,58.5 69.5,58.5C 68.8333,58.5 68.1667,58.5 67.5,58.5C 67.4431,57.391 67.1098,56.391 66.5,55.5 Z"/></g>
<g><path style="opacity:1" fill="#dac69a" d="M 71.5,55.5 C 71.5,56.1667 71.8333,56.5 72.5,56.5C 72.5,57.5 72.5,58.5 72.5,59.5C 71.8333,58.8333 71.1667,58.1667 70.5,57.5C 70.5,57.1667 70.5,56.8333 70.5,56.5C 70.5,55.8333 70.8333,55.5 71.5,55.5 Z"/></g>
<g><path style="opacity:1" fill="#eadfc7" d="M 76.5,57.5 C 76.5,57.1667 76.5,56.8333 76.5,56.5C 77.5,56.5 78.5,56.5 79.5,56.5C 80.0764,58.7833 79.0764,59.1166 76.5,57.5 Z"/></g>
<g><path style="opacity:1" fill="#e8deb4" d="M 88.5,56.5 C 85.8333,57.1667 85.8333,57.8333 88.5,58.5C 88.5,59.1667 88.1667,59.5 87.5,59.5C 86.8333,59.5 86.1667,59.5 85.5,59.5C 84.8333,58.8333 84.1667,58.1667 83.5,57.5C 84.7564,57.0962 85.9231,56.4295 87,55.5C 87.7648,55.5699 88.2648,55.9033 88.5,56.5 Z"/></g>
<g><path style="opacity:1" fill="#eee1a3" d="M 88.5,56.5 C 89.5676,57.4345 90.901,57.7678 92.5,57.5C 92.5,58.1667 92.5,58.8333 92.5,59.5C 92.1667,59.5 91.8333,59.5 91.5,59.5C 90.609,58.8902 89.609,58.5569 88.5,58.5C 85.8333,57.8333 85.8333,57.1667 88.5,56.5 Z"/></g>
<g><path style="opacity:1" fill="#f5e6a7" d="M 96.5,56.5 C 96.5,56.8333 96.5,57.1667 96.5,57.5C 96.1667,58.1667 95.8333,58.8333 95.5,59.5C 94.2022,60.1157 93.2022,60.1157 92.5,59.5C 92.5,58.8333 92.5,58.1667 92.5,57.5C 92.8333,57.5 93.1667,57.5 93.5,57.5C 94.609,57.4431 95.609,57.1098 96.5,56.5 Z"/></g>
<g><path style="opacity:1" fill="#d4a658" d="M 101.5,56.5 C 102.5,56.5 103.5,56.5 104.5,56.5C 104.833,57.1667 105.167,57.8333 105.5,58.5C 104.5,58.5 103.5,58.5 102.5,58.5C 102.167,57.8333 101.833,57.1667 101.5,56.5 Z"/></g>
<g><path style="opacity:1" fill="#625128" d="M 104.5,56.5 C 104.833,56.5 105.167,56.5 105.5,56.5C 106.492,56.3284 107.158,56.6618 107.5,57.5C 107.5,58.1667 107.5,58.8333 107.5,59.5C 107.167,59.5 106.833,59.5 106.5,59.5C 106.5,58.8333 106.167,58.5 105.5,58.5C 105.167,57.8333 104.833,57.1667 104.5,56.5 Z"/></g>
<g><path style="opacity:1" fill="#696048" d="M 107.5,57.5 C 108.5,57.5 109.5,57.5 110.5,57.5C 111.609,57.5569 112.609,57.8902 113.5,58.5C 113.5,59.1667 113.5,59.8333 113.5,60.5C 112.5,60.5 111.5,60.5 110.5,60.5C 110.44,59.9569 110.107,59.6236 109.5,59.5C 108.818,60.2427 108.151,60.9094 107.5,61.5C 107.5,60.8333 107.5,60.1667 107.5,59.5C 107.5,58.8333 107.5,58.1667 107.5,57.5 Z"/></g>
<g><path style="opacity:1" fill="#9a9d9f" d="M 16.5,56.5 C 18.6361,56.5379 19.9694,57.2046 20.5,58.5C 20.5,58.8333 20.5,59.1667 20.5,59.5C 19.391,59.5569 18.391,59.8902 17.5,60.5C 16.5,60.5 15.5,60.5 14.5,60.5C 14.6716,59.5084 14.3382,58.8417 13.5,58.5C 12.8333,58.5 12.5,58.1667 12.5,57.5C 14.099,57.7678 15.4324,57.4345 16.5,56.5 Z"/></g>
<g><path style="opacity:1" fill="#dfca87" d="M 37.5,58.5 C 38.5,58.5 39.5,58.5 40.5,58.5C 40.5,59.1667 40.5,59.8333 40.5,60.5C 39.5,59.1667 38.5,59.1667 37.5,60.5C 37.5,59.8333 37.5,59.1667 37.5,58.5 Z"/></g>
<g><path style="opacity:1" fill="#c6b47e" d="M 46.5,58.5 C 47.5,58.5 48.5,58.5 49.5,58.5C 49.5,59.1667 49.5,59.8333 49.5,60.5C 48.5,59.1667 47.5,59.1667 46.5,60.5C 46.5,59.8333 46.5,59.1667 46.5,58.5 Z"/></g>
<g><path style="opacity:1" fill="#d4c586" d="M 56.5,58.5 C 58.5648,58.5172 60.5648,58.8505 62.5,59.5C 63.1667,59.5 63.5,59.8333 63.5,60.5C 63.1667,60.5 62.8333,60.5 62.5,60.5C 61.5,60.5 60.5,60.5 59.5,60.5C 58.5,59.8333 57.5,59.1667 56.5,58.5 Z"/></g>
<g><path style="opacity:1" fill="#e3d6ad" d="M 64.5,57.5 C 64.8333,57.5 65.1667,57.5 65.5,57.5C 65.4431,58.609 65.1098,59.609 64.5,60.5C 64.1667,60.5 63.8333,60.5 63.5,60.5C 63.5,59.8333 63.1667,59.5 62.5,59.5C 62.5,59.1667 62.5,58.8333 62.5,58.5C 63.4916,58.6716 64.1583,58.3382 64.5,57.5 Z"/></g>
<g><path style="opacity:1" fill="#e3d2a2" d="M 65.5,57.5 C 66.1667,57.8333 66.8333,58.1667 67.5,58.5C 68.1667,58.5 68.8333,58.5 69.5,58.5C 69.1667,59.1667 68.8333,59.8333 68.5,60.5C 67.1667,60.5 65.8333,60.5 64.5,60.5C 65.1098,59.609 65.4431,58.609 65.5,57.5 Z"/></g>
<g><path style="opacity:1" fill="#e6ce9b" d="M 70.5,57.5 C 71.1667,58.1667 71.8333,58.8333 72.5,59.5C 73.1667,60.1667 73.8333,60.8333 74.5,61.5C 74.1667,61.5 73.8333,61.5 73.5,61.5C 71.8612,61.0742 70.5279,61.0742 69.5,61.5C 68.8333,61.5 68.5,61.1667 68.5,60.5C 68.8333,59.8333 69.1667,59.1667 69.5,58.5C 70.1667,58.5 70.5,58.1667 70.5,57.5 Z"/></g>
<g><path style="opacity:1" fill="#d9cca7" d="M 81.5,56.5 C 82.4916,56.3284 83.1583,56.6618 83.5,57.5C 84.1667,58.1667 84.8333,58.8333 85.5,59.5C 84.5084,59.3284 83.8417,59.6618 83.5,60.5C 81.901,60.7678 80.5676,60.4345 79.5,59.5C 81.0481,59.1788 81.7148,58.1788 81.5,56.5 Z"/></g>
<g><path style="opacity:1" fill="#ecd8a5" d="M 88.5,58.5 C 89.609,58.5569 90.609,58.8902 91.5,59.5C 91.5,60.1667 91.5,60.8333 91.5,61.5C 90.391,61.4431 89.391,61.1098 88.5,60.5C 88.1667,60.5 87.8333,60.5 87.5,60.5C 87.5,60.1667 87.5,59.8333 87.5,59.5C 88.1667,59.5 88.5,59.1667 88.5,58.5 Z"/></g>
<g><path style="opacity:1" fill="#d2ae6d" d="M 96.5,57.5 C 96.8333,57.5 97.1667,57.5 97.5,57.5C 97.5,57.8333 97.5,58.1667 97.5,58.5C 97.5,59.1667 97.5,59.8333 97.5,60.5C 97.5,60.8333 97.5,61.1667 97.5,61.5C 96.8333,60.8333 96.1667,60.1667 95.5,59.5C 95.8333,58.8333 96.1667,58.1667 96.5,57.5 Z"/></g>
<g><path style="opacity:1" fill="#fae57b" d="M 97.5,58.5 C 98.1667,58.5 98.8333,58.5 99.5,58.5C 100.66,60.2027 99.9935,60.8693 97.5,60.5C 97.5,59.8333 97.5,59.1667 97.5,58.5 Z"/></g>
<g><path style="opacity:1" fill="#ebc88a" d="M 101.5,58.5 C 101.833,58.5 102.167,58.5 102.5,58.5C 103.5,58.5 104.5,58.5 105.5,58.5C 106.167,58.5 106.5,58.8333 106.5,59.5C 105.209,59.2627 104.209,59.596 103.5,60.5C 102.5,60.1667 101.833,59.5 101.5,58.5 Z"/></g>
<g><path style="opacity:1" fill="#dcc291" d="M 22.5,57.5 C 23.1667,57.5 23.8333,57.5 24.5,57.5C 24.3284,58.4916 24.6618,59.1583 25.5,59.5C 26.1667,60.5 26.8333,61.5 27.5,62.5C 25.8333,61.8333 24.1667,61.1667 22.5,60.5C 22.5,59.8333 22.5,59.1667 22.5,58.5C 22.5,58.1667 22.5,57.8333 22.5,57.5 Z"/></g>
<g><path style="opacity:1" fill="#efd48d" d="M 32.5,58.5 C 32.4431,59.609 32.1098,60.609 31.5,61.5C 31.1667,61.5 30.8333,61.5 30.5,61.5C 29.8333,60.8333 29.1667,60.1667 28.5,59.5C 29.7079,58.7659 31.0413,58.4326 32.5,58.5 Z"/></g>
<g><path style="opacity:1" fill="#ebd08f" d="M 36.5,58.5 C 36.8333,58.5 37.1667,58.5 37.5,58.5C 37.5,59.1667 37.5,59.8333 37.5,60.5C 35.1497,61.1103 35.483,61.4437 38.5,61.5C 38.5,61.8333 38.5,62.1667 38.5,62.5C 37.1667,62.5 35.8333,62.5 34.5,62.5C 32.8333,62.5 31.1667,62.5 29.5,62.5C 29.5,61.8333 29.8333,61.5 30.5,61.5C 30.8333,61.5 31.1667,61.5 31.5,61.5C 33.2879,60.6396 34.9545,59.6396 36.5,58.5 Z"/></g>
<g><path style="opacity:1" fill="#eae199" d="M 40.5,58.5 C 41.5,58.5 42.5,58.5 43.5,58.5C 43.5,58.8333 43.5,59.1667 43.5,59.5C 42.9569,59.56 42.6236,59.8933 42.5,60.5C 43.325,61.3857 44.325,61.719 45.5,61.5C 46.9587,61.4326 48.2921,61.7659 49.5,62.5C 49.5,62.8333 49.5,63.1667 49.5,63.5C 47.5,63.5 45.5,63.5 43.5,63.5C 43.1667,63.5 42.8333,63.5 42.5,63.5C 42.0679,62.2905 41.4013,61.2905 40.5,60.5C 40.5,59.8333 40.5,59.1667 40.5,58.5 Z"/></g>
<g><path style="opacity:1" fill="#d6c486" d="M 43.5,57.5 C 44.391,58.1098 45.391,58.4431 46.5,58.5C 46.5,59.1667 46.5,59.8333 46.5,60.5C 46.1667,60.5 45.8333,60.5 45.5,60.5C 44.8333,60.1667 44.1667,59.8333 43.5,59.5C 43.5,59.1667 43.5,58.8333 43.5,58.5C 43.5,58.1667 43.5,57.8333 43.5,57.5 Z"/></g>
<g><path style="opacity:1" fill="#c9b882" d="M 49.5,58.5 C 50.1667,58.5 50.8333,58.5 51.5,58.5C 52.4916,58.3284 53.1583,58.6618 53.5,59.5C 52.1667,59.8333 50.8333,60.1667 49.5,60.5C 49.5,59.8333 49.5,59.1667 49.5,58.5 Z"/></g>
<g><path style="opacity:1" fill="#c8b677" d="M 55.5,58.5 C 55.8333,58.5 56.1667,58.5 56.5,58.5C 57.5,59.1667 58.5,59.8333 59.5,60.5C 58.5,61.8333 57.5,61.8333 56.5,60.5C 55.8333,60.5 55.1667,60.5 54.5,60.5C 53.8333,60.5 53.5,60.1667 53.5,59.5C 54.4916,59.6716 55.1583,59.3382 55.5,58.5 Z"/></g>
<g><path style="opacity:1" fill="#e3cfa5" d="M 72.5,56.5 C 72.8333,56.5 73.1667,56.5 73.5,56.5C 73.5,57.1667 73.5,57.8333 73.5,58.5C 74.8333,59.5 76.1667,60.5 77.5,61.5C 76.5,61.5 75.5,61.5 74.5,61.5C 73.8333,60.8333 73.1667,60.1667 72.5,59.5C 72.5,58.5 72.5,57.5 72.5,56.5 Z"/></g>
<g><path style="opacity:1" fill="#d8c496" d="M 73.5,58.5 C 74.5,58.5 75.5,58.5 76.5,58.5C 77.209,59.404 78.209,59.7373 79.5,59.5C 80.5676,60.4345 81.901,60.7678 83.5,60.5C 83.5,60.8333 83.5,61.1667 83.5,61.5C 81.5,61.5 79.5,61.5 77.5,61.5C 76.1667,60.5 74.8333,59.5 73.5,58.5 Z"/></g>
<g><path style="opacity:1" fill="#e1cd9b" d="M 85.5,59.5 C 86.1667,59.5 86.8333,59.5 87.5,59.5C 87.5,59.8333 87.5,60.1667 87.5,60.5C 86.209,60.2627 85.209,60.596 84.5,61.5C 84.1667,61.5 83.8333,61.5 83.5,61.5C 83.5,61.1667 83.5,60.8333 83.5,60.5C 83.8417,59.6618 84.5084,59.3284 85.5,59.5 Z"/></g>
<g><path style="opacity:1" fill="#e0bd74" d="M 103.5,60.5 C 104.209,59.596 105.209,59.2627 106.5,59.5C 106.833,59.5 107.167,59.5 107.5,59.5C 107.5,60.1667 107.5,60.8333 107.5,61.5C 106.833,61.1667 106.167,60.8333 105.5,60.5C 104.833,60.5 104.167,60.5 103.5,60.5 Z"/></g>
<g><path style="opacity:0.894" fill="#848789" d="M 13.5,58.5 C 14.3382,58.8417 14.6716,59.5084 14.5,60.5C 13.5416,60.9528 12.7083,61.6195 12,62.5C 11.6012,62.2716 11.4346,61.9382 11.5,61.5C 12.1667,60.5 12.8333,59.5 13.5,58.5 Z"/></g>
<g><path style="opacity:1" fill="#8f9398" d="M 20.5,59.5 C 20.2178,60.7777 19.5511,61.7777 18.5,62.5C 18.8333,63.1667 19.1667,63.8333 19.5,64.5C 18.8333,64.5 18.1667,64.5 17.5,64.5C 17.5,64.1667 17.5,63.8333 17.5,63.5C 17.5,63.1667 17.5,62.8333 17.5,62.5C 17.5,61.8333 17.5,61.1667 17.5,60.5C 18.391,59.8902 19.391,59.5569 20.5,59.5 Z"/></g>
<g><path style="opacity:1" fill="#debd85" d="M 27.5,58.5 C 27.8333,58.5 28.1667,58.5 28.5,58.5C 28.5,58.8333 28.5,59.1667 28.5,59.5C 29.1667,60.1667 29.8333,60.8333 30.5,61.5C 29.8333,61.5 29.5,61.8333 29.5,62.5C 28.8333,62.5 28.1667,62.5 27.5,62.5C 26.8333,61.5 26.1667,60.5 25.5,59.5C 25.8417,58.6618 26.5084,58.3284 27.5,58.5 Z"/></g>
<g><path style="opacity:1" fill="#e1c182" d="M 32.5,58.5 C 32.8333,58.5 33.1667,58.5 33.5,58.5C 34.5,58.5 35.5,58.5 36.5,58.5C 34.9545,59.6396 33.2879,60.6396 31.5,61.5C 32.1098,60.609 32.4431,59.609 32.5,58.5 Z"/></g>
<g><path style="opacity:1" fill="#d6bf79" d="M 40.5,60.5 C 40.1583,61.3382 39.4916,61.6716 38.5,61.5C 35.483,61.4437 35.1497,61.1103 37.5,60.5C 38.5,59.1667 39.5,59.1667 40.5,60.5 Z"/></g>
<g><path style="opacity:1" fill="#dcd084" d="M 43.5,59.5 C 44.1667,59.8333 44.8333,60.1667 45.5,60.5C 45.5,60.8333 45.5,61.1667 45.5,61.5C 44.325,61.719 43.325,61.3857 42.5,60.5C 42.6236,59.8933 42.9569,59.56 43.5,59.5 Z"/></g>
<g><path style="opacity:1" fill="#d7c37e" d="M 49.5,60.5 C 50.209,61.404 51.209,61.7373 52.5,61.5C 51.791,62.404 50.791,62.7373 49.5,62.5C 48.2921,61.7659 46.9587,61.4326 45.5,61.5C 45.5,61.1667 45.5,60.8333 45.5,60.5C 45.8333,60.5 46.1667,60.5 46.5,60.5C 47.5,59.1667 48.5,59.1667 49.5,60.5 Z"/></g>
<g><path style="opacity:1" fill="#d5bb7c" d="M 53.5,59.5 C 53.5,60.1667 53.8333,60.5 54.5,60.5C 54.5,61.1667 54.1667,61.5 53.5,61.5C 53.1667,61.5 52.8333,61.5 52.5,61.5C 51.209,61.7373 50.209,61.404 49.5,60.5C 50.8333,60.1667 52.1667,59.8333 53.5,59.5 Z"/></g>
<g><path style="opacity:1" fill="#e5d698" d="M 84.5,61.5 C 85.209,60.596 86.209,60.2627 87.5,60.5C 87.8333,60.5 88.1667,60.5 88.5,60.5C 88.5,61.1667 88.5,61.8333 88.5,62.5C 87.2921,61.7659 85.9587,61.4326 84.5,61.5 Z"/></g>
<g><path style="opacity:1" fill="#dbc088" d="M 91.5,59.5 C 91.8333,59.5 92.1667,59.5 92.5,59.5C 93.2022,60.1157 94.2022,60.1157 95.5,59.5C 94.6993,61.0418 94.366,62.7085 94.5,64.5C 94.1667,64.5 93.8333,64.5 93.5,64.5C 93.7373,63.209 93.404,62.209 92.5,61.5C 92.1667,61.5 91.8333,61.5 91.5,61.5C 91.5,60.8333 91.5,60.1667 91.5,59.5 Z"/></g>
<g><path style="opacity:1" fill="#f9dc7f" d="M 99.5,58.5 C 100.167,58.5 100.833,58.5 101.5,58.5C 101.833,59.5 102.5,60.1667 103.5,60.5C 104.167,60.5 104.833,60.5 105.5,60.5C 105.5,61.1667 105.5,61.8333 105.5,62.5C 104.604,61.4937 103.938,61.4937 103.5,62.5C 101.565,61.8505 99.5648,61.5172 97.5,61.5C 97.5,61.1667 97.5,60.8333 97.5,60.5C 99.9935,60.8693 100.66,60.2027 99.5,58.5 Z"/></g>
<g><path style="opacity:0.953" fill="#817b6d" d="M 113.5,58.5 C 115.175,60.002 117.008,61.3353 119,62.5C 119.692,63.4368 119.525,64.1034 118.5,64.5C 118.167,64.5 117.833,64.5 117.5,64.5C 117.167,63.5 116.5,62.8333 115.5,62.5C 114.833,61.8333 114.167,61.1667 113.5,60.5C 113.5,59.8333 113.5,59.1667 113.5,58.5 Z"/></g>
<g><path style="opacity:1" fill="#81868a" d="M 14.5,60.5 C 15.5,60.5 16.5,60.5 17.5,60.5C 17.5,61.1667 17.5,61.8333 17.5,62.5C 15.9731,62.573 14.9731,61.9063 14.5,60.5 Z"/></g>
<g><path style="opacity:1" fill="#a19f9c" d="M 20.5,58.5 C 21.1667,58.5 21.8333,58.5 22.5,58.5C 22.5,59.1667 22.5,59.8333 22.5,60.5C 22.5,61.5 22.5,62.5 22.5,63.5C 21.2921,62.7659 19.9587,62.4326 18.5,62.5C 19.5511,61.7777 20.2178,60.7777 20.5,59.5C 20.5,59.1667 20.5,58.8333 20.5,58.5 Z"/></g>
<g><path style="opacity:1" fill="#ded08c" d="M 40.5,60.5 C 41.4013,61.2905 42.0679,62.2905 42.5,63.5C 41.8333,63.5 41.1667,63.5 40.5,63.5C 40.1583,62.6618 39.4916,62.3284 38.5,62.5C 38.5,62.1667 38.5,61.8333 38.5,61.5C 39.4916,61.6716 40.1583,61.3382 40.5,60.5 Z"/></g>
<g><path style="opacity:1" fill="#d9bc79" d="M 54.5,60.5 C 55.1667,60.5 55.8333,60.5 56.5,60.5C 56.5,61.1667 56.5,61.8333 56.5,62.5C 55.209,62.7373 54.209,62.404 53.5,61.5C 54.1667,61.5 54.5,61.1667 54.5,60.5 Z"/></g>
<g><path style="opacity:1" fill="#e0c57f" d="M 56.5,60.5 C 57.5,61.8333 58.5,61.8333 59.5,60.5C 60.5,60.5 61.5,60.5 62.5,60.5C 62.5,61.8333 61.8333,62.5 60.5,62.5C 59.1667,62.5 57.8333,62.5 56.5,62.5C 56.5,61.8333 56.5,61.1667 56.5,60.5 Z"/></g>
<g><path style="opacity:1" fill="#e3c482" d="M 63.5,60.5 C 63.8333,60.5 64.1667,60.5 64.5,60.5C 65.8333,60.5 67.1667,60.5 68.5,60.5C 68.5,61.1667 68.8333,61.5 69.5,61.5C 69.5,62.1667 69.1667,62.5 68.5,62.5C 66.2188,62.9227 64.5521,62.256 63.5,60.5 Z"/></g>
<g><path style="opacity:1" fill="#e3ca88" d="M 73.5,61.5 C 73.5,61.8333 73.5,62.1667 73.5,62.5C 71.7839,62.6287 70.1172,62.962 68.5,63.5C 68.5,63.1667 68.5,62.8333 68.5,62.5C 69.1667,62.5 69.5,62.1667 69.5,61.5C 70.5279,61.0742 71.8612,61.0742 73.5,61.5 Z"/></g>
<g><path style="opacity:1" fill="#f0ce84" d="M 97.5,61.5 C 99.5648,61.5172 101.565,61.8505 103.5,62.5C 103.5,62.8333 103.5,63.1667 103.5,63.5C 102.5,63.5 101.5,63.5 100.5,63.5C 99.3774,62.2426 98.7107,62.5759 98.5,64.5C 98.1667,64.5 97.8333,64.5 97.5,64.5C 97.5,63.5 97.5,62.5 97.5,61.5 Z"/></g>
<g><path style="opacity:1" fill="#cbc394" d="M 110.5,60.5 C 109.662,60.8417 109.328,61.5084 109.5,62.5C 109.5,62.8333 109.5,63.1667 109.5,63.5C 108.5,63.1667 107.833,62.5 107.5,61.5C 108.151,60.9094 108.818,60.2427 109.5,59.5C 110.107,59.6236 110.44,59.9569 110.5,60.5 Z"/></g>
<g><path style="opacity:1" fill="#a08c5f" d="M 110.5,60.5 C 111.5,60.5 112.5,60.5 113.5,60.5C 114.167,61.1667 114.833,61.8333 115.5,62.5C 113.5,62.5 111.5,62.5 109.5,62.5C 109.328,61.5084 109.662,60.8417 110.5,60.5 Z"/></g>
<g><path style="opacity:1" fill="#999ea3" d="M 14.5,60.5 C 14.9731,61.9063 15.9731,62.573 17.5,62.5C 17.5,62.8333 17.5,63.1667 17.5,63.5C 16.5,64.1667 15.5,64.8333 14.5,65.5C 13.2196,64.0687 11.5529,63.4021 9.5,63.5C 9.83333,62.5 10.5,61.8333 11.5,61.5C 11.4346,61.9382 11.6012,62.2716 12,62.5C 12.7083,61.6195 13.5416,60.9528 14.5,60.5 Z"/></g>
<g><path style="opacity:1" fill="#868b90" d="M 18.5,62.5 C 19.9587,62.4326 21.2921,62.7659 22.5,63.5C 22.5,63.8333 22.5,64.1667 22.5,64.5C 21.5,64.5 20.5,64.5 19.5,64.5C 19.1667,63.8333 18.8333,63.1667 18.5,62.5 Z"/></g>
<g><path style="opacity:1" fill="#d1c5af" d="M 22.5,60.5 C 24.1667,61.1667 25.8333,61.8333 27.5,62.5C 28.1667,62.5 28.8333,62.5 29.5,62.5C 31.1667,62.5 32.8333,62.5 34.5,62.5C 34.5,63.1667 34.1667,63.5 33.5,63.5C 33.1667,63.5 32.8333,63.5 32.5,63.5C 31.8333,63.5 31.1667,63.5 30.5,63.5C 30.1667,63.5 29.8333,63.5 29.5,63.5C 27.0897,64.4385 24.7564,64.4385 22.5,63.5C 22.5,62.5 22.5,61.5 22.5,60.5 Z"/></g>
<g><path style="opacity:1" fill="#e6d494" d="M 52.5,61.5 C 52.8333,61.5 53.1667,61.5 53.5,61.5C 54.209,62.404 55.209,62.7373 56.5,62.5C 57.8333,62.5 59.1667,62.5 60.5,62.5C 60.1583,63.3382 59.4916,63.6716 58.5,63.5C 55.5,63.5 52.5,63.5 49.5,63.5C 49.5,63.1667 49.5,62.8333 49.5,62.5C 50.791,62.7373 51.791,62.404 52.5,61.5 Z"/></g>
<g><path style="opacity:1" fill="#ebe299" d="M 62.5,60.5 C 62.8333,60.5 63.1667,60.5 63.5,60.5C 64.5521,62.256 66.2188,62.9227 68.5,62.5C 68.5,62.8333 68.5,63.1667 68.5,63.5C 65.9407,63.1984 63.6074,63.5318 61.5,64.5C 60.8333,64.5 60.1667,64.5 59.5,64.5C 59.1667,64.5 58.8333,64.5 58.5,64.5C 58.5,64.1667 58.5,63.8333 58.5,63.5C 59.4916,63.6716 60.1583,63.3382 60.5,62.5C 61.8333,62.5 62.5,61.8333 62.5,60.5 Z"/></g>
<g><path style="opacity:1" fill="#f3efb0" d="M 74.5,62.5 C 76.099,62.2322 77.4324,62.5655 78.5,63.5C 77.0413,63.4326 75.7079,63.7659 74.5,64.5C 74.5,63.8333 74.5,63.1667 74.5,62.5 Z"/></g>
<g><path style="opacity:1" fill="#e3db9e" d="M 73.5,62.5 C 73.5,62.1667 73.5,61.8333 73.5,61.5C 73.8333,61.5 74.1667,61.5 74.5,61.5C 75.5,61.5 76.5,61.5 77.5,61.5C 79.5,61.5 81.5,61.5 83.5,61.5C 84.1667,62.1667 84.8333,62.8333 85.5,63.5C 85.1667,63.5 84.8333,63.5 84.5,63.5C 83.8333,63.5 83.1667,63.5 82.5,63.5C 81.3684,62.6457 80.035,62.6457 78.5,63.5C 77.4324,62.5655 76.099,62.2322 74.5,62.5C 74.1667,62.5 73.8333,62.5 73.5,62.5 Z"/></g>
<g><path style="opacity:1" fill="#f1e8a2" d="M 83.5,61.5 C 83.8333,61.5 84.1667,61.5 84.5,61.5C 85.9587,61.4326 87.2921,61.7659 88.5,62.5C 89.0674,63.4202 88.4008,63.7535 86.5,63.5C 86.1667,63.5 85.8333,63.5 85.5,63.5C 84.8333,62.8333 84.1667,62.1667 83.5,61.5 Z"/></g>
<g><path style="opacity:1" fill="#ebdaa2" d="M 88.5,60.5 C 89.391,61.1098 90.391,61.4431 91.5,61.5C 91.8333,61.5 92.1667,61.5 92.5,61.5C 91.8902,62.391 91.5569,63.391 91.5,64.5C 90.1667,64.5 88.8333,64.5 87.5,64.5C 86.8333,64.5 86.5,64.1667 86.5,63.5C 88.4008,63.7535 89.0674,63.4202 88.5,62.5C 88.5,61.8333 88.5,61.1667 88.5,60.5 Z"/></g>
<g><path style="opacity:1" fill="#ead097" d="M 92.5,61.5 C 93.404,62.209 93.7373,63.209 93.5,64.5C 92.8333,64.5 92.1667,64.5 91.5,64.5C 91.5569,63.391 91.8902,62.391 92.5,61.5 Z"/></g>
<g><path style="opacity:1" fill="#f6e48f" d="M 105.5,60.5 C 106.167,60.8333 106.833,61.1667 107.5,61.5C 107.833,62.5 108.5,63.1667 109.5,63.5C 110.167,63.5 110.833,63.5 111.5,63.5C 111.5,63.8333 111.5,64.1667 111.5,64.5C 109.5,64.5 107.5,64.5 105.5,64.5C 105.5,63.8333 105.5,63.1667 105.5,62.5C 105.5,61.8333 105.5,61.1667 105.5,60.5 Z"/></g>
<g><path style="opacity:1" fill="#b89c6b" d="M 109.5,63.5 C 109.5,63.1667 109.5,62.8333 109.5,62.5C 111.5,62.5 113.5,62.5 115.5,62.5C 116.5,62.8333 117.167,63.5 117.5,64.5C 116.833,64.5 116.167,64.5 115.5,64.5C 114.432,63.5655 113.099,63.2322 111.5,63.5C 110.833,63.5 110.167,63.5 109.5,63.5 Z"/></g>
<g><path style="opacity:1" fill="#594448" d="M 36.5,64.5 C 37.5676,63.5655 38.901,63.2322 40.5,63.5C 41.1667,63.5 41.8333,63.5 42.5,63.5C 42.5,64.1667 42.5,64.8333 42.5,65.5C 41.8333,65.5 41.1667,65.5 40.5,65.5C 39.2921,64.7659 37.9587,64.4326 36.5,64.5 Z"/></g>
<g><path style="opacity:1" fill="#ece2b6" d="M 43.5,63.5 C 45.5,63.5 47.5,63.5 49.5,63.5C 52.5,63.5 55.5,63.5 58.5,63.5C 58.5,63.8333 58.5,64.1667 58.5,64.5C 56.901,64.2322 55.5676,64.5655 54.5,65.5C 51.1933,64.9492 47.8599,64.6159 44.5,64.5C 43.8333,64.5 43.5,64.1667 43.5,63.5 Z"/></g>
<g><path style="opacity:1" fill="#eae5a4" d="M 73.5,62.5 C 73.8333,62.5 74.1667,62.5 74.5,62.5C 74.5,63.1667 74.5,63.8333 74.5,64.5C 70.1667,64.5 65.8333,64.5 61.5,64.5C 63.6074,63.5318 65.9407,63.1984 68.5,63.5C 70.1172,62.962 71.7839,62.6287 73.5,62.5 Z"/></g>
<g><path style="opacity:1" fill="#e8e5b0" d="M 82.5,63.5 C 82.1583,64.3382 81.4916,64.6716 80.5,64.5C 78.901,64.2322 77.5676,64.5655 76.5,65.5C 71.8333,65.5 67.1667,65.5 62.5,65.5C 61.5,65.5 60.5,65.5 59.5,65.5C 59.5,65.1667 59.5,64.8333 59.5,64.5C 60.1667,64.5 60.8333,64.5 61.5,64.5C 65.8333,64.5 70.1667,64.5 74.5,64.5C 75.7079,63.7659 77.0413,63.4326 78.5,63.5C 80.035,62.6457 81.3684,62.6457 82.5,63.5 Z"/></g>
<g><path style="opacity:1" fill="#978763" d="M 84.5,63.5 C 84.8333,63.5 85.1667,63.5 85.5,63.5C 85.8333,63.5 86.1667,63.5 86.5,63.5C 86.5,64.1667 86.8333,64.5 87.5,64.5C 88.5,65.1667 89.5,65.8333 90.5,66.5C 88.8333,66.5 87.1667,66.5 85.5,66.5C 85.1667,66.5 84.8333,66.5 84.5,66.5C 84.5,66.1667 84.5,65.8333 84.5,65.5C 84.5,64.8333 84.5,64.1667 84.5,63.5 Z"/></g>
<g><path style="opacity:1" fill="#af8e64" d="M 95.5,59.5 C 96.1667,60.1667 96.8333,60.8333 97.5,61.5C 97.5,62.5 97.5,63.5 97.5,64.5C 97.1667,64.5 96.8333,64.5 96.5,64.5C 95.8897,62.1497 95.5563,62.483 95.5,65.5C 94.8333,65.5 94.5,65.1667 94.5,64.5C 94.366,62.7085 94.6993,61.0418 95.5,59.5 Z"/></g>
<g><path style="opacity:1" fill="#fae494" d="M 100.5,63.5 C 100.5,63.8333 100.5,64.1667 100.5,64.5C 99.8333,64.5 99.5,64.8333 99.5,65.5C 98.8333,65.5 98.5,65.1667 98.5,64.5C 98.7107,62.5759 99.3774,62.2426 100.5,63.5 Z"/></g>
<g><path style="opacity:1" fill="#f7de92" d="M 100.5,64.5 C 100.5,64.1667 100.5,63.8333 100.5,63.5C 101.5,63.5 102.5,63.5 103.5,63.5C 103.5,63.8333 103.5,64.1667 103.5,64.5C 103.5,64.8333 103.5,65.1667 103.5,65.5C 102.391,65.4431 101.391,65.1098 100.5,64.5 Z"/></g>
<g><path style="opacity:1" fill="#f8edb0" d="M 111.5,63.5 C 113.099,63.2322 114.432,63.5655 115.5,64.5C 115.167,64.5 114.833,64.5 114.5,64.5C 113.391,64.5569 112.391,64.8902 111.5,65.5C 111.5,65.1667 111.5,64.8333 111.5,64.5C 111.5,64.1667 111.5,63.8333 111.5,63.5 Z"/></g>
<g><path style="opacity:0.902" fill="#a8a8ab" d="M 7.5,65.5 C 7.5,64.8333 7.83333,64.5 8.5,64.5C 12.2434,64.4592 12.4101,65.1259 9,66.5C 8.61742,65.944 8.11742,65.6107 7.5,65.5 Z"/></g>
<g><path style="opacity:1" fill="#72787f" d="M 17.5,64.5 C 18.1667,64.5 18.8333,64.5 19.5,64.5C 20.5,64.5 21.5,64.5 22.5,64.5C 22.0269,65.9063 21.0269,66.573 19.5,66.5C 18.1667,66.5 17.5,65.8333 17.5,64.5 Z"/></g>
<g><path style="opacity:0.996" fill="#9b9a99" d="M 22.5,63.5 C 24.7564,64.4385 27.0897,64.4385 29.5,63.5C 29.5,64.1667 29.1667,64.5 28.5,64.5C 27.8333,64.5 27.5,64.8333 27.5,65.5C 24.6703,65.6941 22.0037,66.3608 19.5,67.5C 19.5,67.1667 19.5,66.8333 19.5,66.5C 21.0269,66.573 22.0269,65.9063 22.5,64.5C 22.5,64.1667 22.5,63.8333 22.5,63.5 Z"/></g>
<g><path style="opacity:1" fill="#766e65" d="M 34.5,62.5 C 35.8333,62.5 37.1667,62.5 38.5,62.5C 39.4916,62.3284 40.1583,62.6618 40.5,63.5C 38.901,63.2322 37.5676,63.5655 36.5,64.5C 35.8333,65.1667 35.1667,65.8333 34.5,66.5C 33.596,65.791 33.2627,64.791 33.5,63.5C 34.1667,63.5 34.5,63.1667 34.5,62.5 Z"/></g>
<g><path style="opacity:1" fill="#e4dbb3" d="M 58.5,64.5 C 58.8333,64.5 59.1667,64.5 59.5,64.5C 59.5,64.8333 59.5,65.1667 59.5,65.5C 58.8333,65.5 58.5,65.8333 58.5,66.5C 58.1667,66.5 57.8333,66.5 57.5,66.5C 56.8333,66.5 56.1667,66.5 55.5,66.5C 55.1667,66.5 54.8333,66.5 54.5,66.5C 54.5,66.1667 54.5,65.8333 54.5,65.5C 55.5676,64.5655 56.901,64.2322 58.5,64.5 Z"/></g>
<g><path style="opacity:1" fill="#dad5a5" d="M 82.5,63.5 C 83.1667,63.5 83.8333,63.5 84.5,63.5C 84.5,64.1667 84.5,64.8333 84.5,65.5C 82.901,65.7678 81.5676,65.4345 80.5,64.5C 81.4916,64.6716 82.1583,64.3382 82.5,63.5 Z"/></g>
<g><path style="opacity:1" fill="#b4a07a" d="M 87.5,64.5 C 88.8333,64.5 90.1667,64.5 91.5,64.5C 92.1667,64.5 92.8333,64.5 93.5,64.5C 93.8333,64.5 94.1667,64.5 94.5,64.5C 94.5,65.1667 94.8333,65.5 95.5,65.5C 95.5,65.8333 95.5,66.1667 95.5,66.5C 93.8333,66.5 92.1667,66.5 90.5,66.5C 89.5,65.8333 88.5,65.1667 87.5,64.5 Z"/></g>
<g><path style="opacity:1" fill="#c2a278" d="M 96.5,64.5 C 96.8333,64.5 97.1667,64.5 97.5,64.5C 97.8333,64.5 98.1667,64.5 98.5,64.5C 98.5,65.1667 98.8333,65.5 99.5,65.5C 99.5,65.8333 99.5,66.1667 99.5,66.5C 99.5,67.1667 99.5,67.8333 99.5,68.5C 99.1667,68.5 98.8333,68.5 98.5,68.5C 98.2671,66.9382 97.6005,65.6049 96.5,64.5 Z"/></g>
<g><path style="opacity:1" fill="#c7a875" d="M 105.5,62.5 C 105.5,63.1667 105.5,63.8333 105.5,64.5C 105.5,64.8333 105.5,65.1667 105.5,65.5C 105.5,66.1667 105.5,66.8333 105.5,67.5C 104.833,66.5 104.167,65.5 103.5,64.5C 103.5,64.1667 103.5,63.8333 103.5,63.5C 103.5,63.1667 103.5,62.8333 103.5,62.5C 103.938,61.4937 104.604,61.4937 105.5,62.5 Z"/></g>
<g><path style="opacity:1" fill="#8c8f94" d="M 8.5,64.5 C 8.5,63.8333 8.83333,63.5 9.5,63.5C 11.5529,63.4021 13.2196,64.0687 14.5,65.5C 14.5,65.8333 14.5,66.1667 14.5,66.5C 12.9731,66.427 11.9731,67.0937 11.5,68.5C 10.8333,68.8333 10.1667,69.1667 9.5,69.5C 8.26166,69.19 8.26166,68.69 9.5,68C 8.90558,67.5357 8.23891,67.369 7.5,67.5C 7.5,67.1667 7.5,66.8333 7.5,66.5C 7.5,66.1667 7.5,65.8333 7.5,65.5C 8.11742,65.6107 8.61742,65.944 9,66.5C 12.4101,65.1259 12.2434,64.4592 8.5,64.5 Z"/></g>
<g><path style="opacity:1" fill="#868a90" d="M 17.5,63.5 C 17.5,63.8333 17.5,64.1667 17.5,64.5C 17.5,65.8333 18.1667,66.5 19.5,66.5C 19.5,66.8333 19.5,67.1667 19.5,67.5C 19.1583,68.3382 18.4916,68.6716 17.5,68.5C 16.1667,68.5 14.8333,68.5 13.5,68.5C 14.2625,67.7321 15.2625,67.2321 16.5,67C 15.9056,66.5357 15.2389,66.369 14.5,66.5C 14.5,66.1667 14.5,65.8333 14.5,65.5C 15.5,64.8333 16.5,64.1667 17.5,63.5 Z"/></g>
<g><path style="opacity:0.878" fill="#b5b5b4" d="M 29.5,63.5 C 29.8333,63.5 30.1667,63.5 30.5,63.5C 31.057,65.2352 31.3903,66.9018 31.5,68.5C 30.8333,68.5 30.1667,68.5 29.5,68.5C 28.596,67.791 28.2627,66.791 28.5,65.5C 28.5,65.1667 28.5,64.8333 28.5,64.5C 29.1667,64.5 29.5,64.1667 29.5,63.5 Z"/></g>
<g><path style="opacity:1" fill="#9a9999" d="M 30.5,63.5 C 31.1667,63.5 31.8333,63.5 32.5,63.5C 32.7845,65.4147 32.4511,67.0813 31.5,68.5C 31.3903,66.9018 31.057,65.2352 30.5,63.5 Z"/></g>
<g><path style="opacity:1" fill="#5a5559" d="M 36.5,64.5 C 37.9587,64.4326 39.2921,64.7659 40.5,65.5C 40.5,65.8333 40.5,66.1667 40.5,66.5C 39.8333,66.5 39.1667,66.5 38.5,66.5C 37.1667,66.5 35.8333,66.5 34.5,66.5C 35.1667,65.8333 35.8333,65.1667 36.5,64.5 Z"/></g>
<g><path style="opacity:1" fill="#555256" d="M 40.5,65.5 C 41.1667,65.5 41.8333,65.5 42.5,65.5C 42.4431,66.609 42.1098,67.609 41.5,68.5C 41.1667,68.5 40.8333,68.5 40.5,68.5C 40.5,67.8333 40.5,67.1667 40.5,66.5C 40.5,66.1667 40.5,65.8333 40.5,65.5 Z"/></g>
<g><path style="opacity:1" fill="#f3eed5" d="M 44.5,65.5 C 44.5,65.1667 44.5,64.8333 44.5,64.5C 47.8599,64.6159 51.1933,64.9492 54.5,65.5C 54.5,65.8333 54.5,66.1667 54.5,66.5C 53.8333,66.8333 53.1667,67.1667 52.5,67.5C 49.5794,67.7174 46.9128,67.0507 44.5,65.5 Z"/></g>
<g><path style="opacity:1" fill="#eee6bf" d="M 58.5,66.5 C 58.5,65.8333 58.8333,65.5 59.5,65.5C 60.5,65.5 61.5,65.5 62.5,65.5C 62.1667,66.1667 61.8333,66.8333 61.5,67.5C 60.391,67.4431 59.391,67.1098 58.5,66.5 Z"/></g>
<g><path style="opacity:1" fill="#eeebc8" d="M 62.5,65.5 C 67.1667,65.5 71.8333,65.5 76.5,65.5C 76.5,65.8333 76.5,66.1667 76.5,66.5C 74.1667,66.5 71.8333,66.5 69.5,66.5C 68.5,66.5 67.5,66.5 66.5,66.5C 65.209,66.2627 64.209,66.596 63.5,67.5C 62.8333,67.5 62.1667,67.5 61.5,67.5C 61.8333,66.8333 62.1667,66.1667 62.5,65.5 Z"/></g>
<g><path style="opacity:1" fill="#eae9bb" d="M 80.5,64.5 C 81.5676,65.4345 82.901,65.7678 84.5,65.5C 84.5,65.8333 84.5,66.1667 84.5,66.5C 81.8333,66.5 79.1667,66.5 76.5,66.5C 76.5,66.1667 76.5,65.8333 76.5,65.5C 77.5676,64.5655 78.901,64.2322 80.5,64.5 Z"/></g>
<g><path style="opacity:1" fill="#f8ed9e" d="M 100.5,64.5 C 101.391,65.1098 102.391,65.4431 103.5,65.5C 102.791,66.404 101.791,66.7373 100.5,66.5C 100.167,66.5 99.8333,66.5 99.5,66.5C 99.5,66.1667 99.5,65.8333 99.5,65.5C 99.5,64.8333 99.8333,64.5 100.5,64.5 Z"/></g>
<g><path style="opacity:1" fill="#faf4b4" d="M 105.5,65.5 C 105.5,65.1667 105.5,64.8333 105.5,64.5C 107.5,64.5 109.5,64.5 111.5,64.5C 111.5,64.8333 111.5,65.1667 111.5,65.5C 111.5,66.1667 111.5,66.8333 111.5,67.5C 109.114,67.7413 107.114,67.0746 105.5,65.5 Z"/></g>
<g><path style="opacity:0.831" fill="#b69f99" d="M 114.5,64.5 C 114.833,64.5 115.167,64.5 115.5,64.5C 116.167,64.5 116.833,64.5 117.5,64.5C 117.833,64.5 118.167,64.5 118.5,64.5C 118.672,65.4916 118.338,66.1583 117.5,66.5C 116.298,65.5946 114.964,65.5946 113.5,66.5C 113.833,65.8333 114.167,65.1667 114.5,64.5 Z"/></g>
<g><path style="opacity:1" fill="#626870" d="M 14.5,66.5 C 15.2389,66.369 15.9056,66.5357 16.5,67C 15.2625,67.2321 14.2625,67.7321 13.5,68.5C 12.8333,68.5 12.1667,68.5 11.5,68.5C 11.9731,67.0937 12.9731,66.427 14.5,66.5 Z"/></g>
<g><path style="opacity:0.412" fill="#8e8e8e" d="M 27.5,65.5 C 27.8333,65.5 28.1667,65.5 28.5,65.5C 28.2627,66.791 28.596,67.791 29.5,68.5C 29.5,68.8333 29.5,69.1667 29.5,69.5C 27.8235,68.8166 27.1568,67.4832 27.5,65.5 Z"/></g>
<g><path style="opacity:1" fill="#5d5c5e" d="M 34.5,66.5 C 35.8333,66.5 37.1667,66.5 38.5,66.5C 38.2178,67.7777 37.5511,68.7777 36.5,69.5C 36.1667,69.5 35.8333,69.5 35.5,69.5C 34.8902,68.609 34.5569,67.609 34.5,66.5 Z"/></g>
<g><path style="opacity:1" fill="#858486" d="M 38.5,66.5 C 39.1667,66.5 39.8333,66.5 40.5,66.5C 40.5,67.1667 40.5,67.8333 40.5,68.5C 39.4324,69.4345 38.099,69.7678 36.5,69.5C 37.5511,68.7777 38.2178,67.7777 38.5,66.5 Z"/></g>
<g><path style="opacity:1" fill="#787572" d="M 42.5,63.5 C 42.8333,63.5 43.1667,63.5 43.5,63.5C 43.5,64.1667 43.8333,64.5 44.5,64.5C 44.5,64.8333 44.5,65.1667 44.5,65.5C 44.5,66.1667 44.5,66.8333 44.5,67.5C 43.791,68.404 42.791,68.7373 41.5,68.5C 42.1098,67.609 42.4431,66.609 42.5,65.5C 42.5,64.8333 42.5,64.1667 42.5,63.5 Z"/></g>
<g><path style="opacity:1" fill="#f6f6e0" d="M 69.5,66.5 C 71.8333,66.5 74.1667,66.5 76.5,66.5C 76.5,66.8333 76.5,67.1667 76.5,67.5C 75.1266,67.3433 73.7932,67.51 72.5,68C 73.4158,68.2784 74.0825,68.7784 74.5,69.5C 72.901,69.7678 71.5676,69.4345 70.5,68.5C 70.1667,67.8333 69.8333,67.1667 69.5,66.5 Z"/></g>
<g><path style="opacity:1" fill="#dcceb1" d="M 85.5,66.5 C 87.1667,66.5 88.8333,66.5 90.5,66.5C 92.1667,66.5 93.8333,66.5 95.5,66.5C 95.5,67.1667 95.5,67.8333 95.5,68.5C 94.8333,68.5 94.1667,68.5 93.5,68.5C 92.2921,67.7659 90.9587,67.4326 89.5,67.5C 88.5,67.5 87.5,67.5 86.5,67.5C 85.8333,67.5 85.5,67.1667 85.5,66.5 Z"/></g>
<g><path style="opacity:1" fill="#f2e1ac" d="M 103.5,64.5 C 104.167,65.5 104.833,66.5 105.5,67.5C 105.5,67.8333 105.5,68.1667 105.5,68.5C 104.5,68.5 103.5,68.5 102.5,68.5C 101.5,68.1667 100.833,67.5 100.5,66.5C 101.791,66.7373 102.791,66.404 103.5,65.5C 103.5,65.1667 103.5,64.8333 103.5,64.5 Z"/></g>
<g><path style="opacity:1" fill="#e5dbc9" d="M 114.5,64.5 C 114.167,65.1667 113.833,65.8333 113.5,66.5C 112.833,66.8333 112.167,67.1667 111.5,67.5C 111.5,66.8333 111.5,66.1667 111.5,65.5C 112.391,64.8902 113.391,64.5569 114.5,64.5 Z"/></g>
<g><path style="opacity:0.8" fill="#998685" d="M 117.5,66.5 C 117.5,66.8333 117.5,67.1667 117.5,67.5C 115.973,67.427 114.973,68.0937 114.5,69.5C 113.609,68.8902 112.609,68.5569 111.5,68.5C 111.5,68.1667 111.5,67.8333 111.5,67.5C 112.167,67.1667 112.833,66.8333 113.5,66.5C 114.964,65.5946 116.298,65.5946 117.5,66.5 Z"/></g>
<g><path style="opacity:0.663" fill="#a8a5a1" d="M 44.5,65.5 C 46.9128,67.0507 49.5794,67.7174 52.5,67.5C 52.5,67.8333 52.5,68.1667 52.5,68.5C 49.7628,68.5987 47.0961,68.2653 44.5,67.5C 44.5,66.8333 44.5,66.1667 44.5,65.5 Z"/></g>
<g><path style="opacity:1" fill="#8f8a81" d="M 54.5,66.5 C 54.8333,66.5 55.1667,66.5 55.5,66.5C 55.5569,67.609 55.8902,68.609 56.5,69.5C 55.8333,69.5 55.1667,69.5 54.5,69.5C 54.1583,68.6618 53.4916,68.3284 52.5,68.5C 52.5,68.1667 52.5,67.8333 52.5,67.5C 53.1667,67.1667 53.8333,66.8333 54.5,66.5 Z"/></g>
<g><path style="opacity:1" fill="#887f6d" d="M 55.5,66.5 C 56.1667,66.5 56.8333,66.5 57.5,66.5C 58.1667,67.5 58.8333,68.5 59.5,69.5C 58.5,69.5 57.5,69.5 56.5,69.5C 55.8902,68.609 55.5569,67.609 55.5,66.5 Z"/></g>
<g><path style="opacity:1" fill="#a89e7b" d="M 57.5,66.5 C 57.8333,66.5 58.1667,66.5 58.5,66.5C 59.391,67.1098 60.391,67.4431 61.5,67.5C 61.5,68.1667 61.5,68.8333 61.5,69.5C 60.8333,69.5 60.1667,69.5 59.5,69.5C 58.8333,68.5 58.1667,67.5 57.5,66.5 Z"/></g>
<g><path style="opacity:1" fill="#f3f1df" d="M 66.5,66.5 C 67.1667,67.1667 67.8333,67.8333 68.5,68.5C 67.609,69.1098 66.609,69.4431 65.5,69.5C 65.1667,69.5 64.8333,69.5 64.5,69.5C 64.1667,68.8333 63.8333,68.1667 63.5,67.5C 64.209,66.596 65.209,66.2627 66.5,66.5 Z"/></g>
<g><path style="opacity:1" fill="#f3f2dc" d="M 66.5,66.5 C 67.5,66.5 68.5,66.5 69.5,66.5C 69.8333,67.1667 70.1667,67.8333 70.5,68.5C 69.8333,68.5 69.1667,68.5 68.5,68.5C 67.8333,67.8333 67.1667,67.1667 66.5,66.5 Z"/></g>
<g><path style="opacity:1" fill="#f8f8d5" d="M 76.5,67.5 C 76.5,67.1667 76.5,66.8333 76.5,66.5C 79.1667,66.5 81.8333,66.5 84.5,66.5C 84.8333,66.5 85.1667,66.5 85.5,66.5C 85.5,67.1667 85.8333,67.5 86.5,67.5C 86.5,68.5 86.5,69.5 86.5,70.5C 86.1667,70.5 85.8333,70.5 85.5,70.5C 83.4973,68.0181 80.8306,67.0181 77.5,67.5C 77.1667,67.5 76.8333,67.5 76.5,67.5 Z"/></g>
<g><path style="opacity:1" fill="#f8f4d9" d="M 86.5,67.5 C 87.5,67.5 88.5,67.5 89.5,67.5C 89.5,67.8333 89.5,68.1667 89.5,68.5C 88.8333,69.1667 88.1667,69.8333 87.5,70.5C 87.1667,70.5 86.8333,70.5 86.5,70.5C 86.5,69.5 86.5,68.5 86.5,67.5 Z"/></g>
<g><path style="opacity:1" fill="#ebd6ab" d="M 96.5,64.5 C 97.6005,65.6049 98.2671,66.9382 98.5,68.5C 97.5,68.5 96.5,68.5 95.5,68.5C 95.5,67.8333 95.5,67.1667 95.5,66.5C 95.5,66.1667 95.5,65.8333 95.5,65.5C 95.5563,62.483 95.8897,62.1497 96.5,64.5 Z"/></g>
<g><path style="opacity:1" fill="#d0b79b" d="M 105.5,65.5 C 107.114,67.0746 109.114,67.7413 111.5,67.5C 111.5,67.8333 111.5,68.1667 111.5,68.5C 109.833,68.5 108.167,68.5 106.5,68.5C 106.167,68.5 105.833,68.5 105.5,68.5C 105.5,68.1667 105.5,67.8333 105.5,67.5C 105.5,66.8333 105.5,66.1667 105.5,65.5 Z"/></g>
<g><path style="opacity:1" fill="#afb1b3" d="M 7.5,67.5 C 8.23891,67.369 8.90558,67.5357 9.5,68C 8.26166,68.69 8.26166,69.19 9.5,69.5C 9.5,69.8333 9.5,70.1667 9.5,70.5C 7.95186,70.1788 7.28519,69.1788 7.5,67.5 Z"/></g>
<g><path style="opacity:0.463" fill="#b1b2b6" d="M 11.5,68.5 C 12.1667,68.5 12.8333,68.5 13.5,68.5C 14.8333,68.5 16.1667,68.5 17.5,68.5C 16.3285,69.3446 14.9952,70.0113 13.5,70.5C 12.8333,69.8333 12.1667,69.1667 11.5,68.5 Z"/></g>
<g><path style="opacity:0.863" fill="#848484" d="M 32.5,63.5 C 32.8333,63.5 33.1667,63.5 33.5,63.5C 33.2627,64.791 33.596,65.791 34.5,66.5C 34.5569,67.609 34.8902,68.609 35.5,69.5C 33.5,69.5 31.5,69.5 29.5,69.5C 29.5,69.1667 29.5,68.8333 29.5,68.5C 30.1667,68.5 30.8333,68.5 31.5,68.5C 32.4511,67.0813 32.7845,65.4147 32.5,63.5 Z"/></g>
<g><path style="opacity:1" fill="#b8ad8d" d="M 61.5,67.5 C 62.1667,67.5 62.8333,67.5 63.5,67.5C 63.8333,68.1667 64.1667,68.8333 64.5,69.5C 63.5,69.5 62.5,69.5 61.5,69.5C 61.5,68.8333 61.5,68.1667 61.5,67.5 Z"/></g>
<g><path style="opacity:1" fill="#fbf9ed" d="M 76.5,67.5 C 76.8333,67.5 77.1667,67.5 77.5,67.5C 77.5,67.8333 77.5,68.1667 77.5,68.5C 76.5084,68.3284 75.8417,68.6618 75.5,69.5C 75.1667,69.5 74.8333,69.5 74.5,69.5C 74.0825,68.7784 73.4158,68.2784 72.5,68C 73.7932,67.51 75.1266,67.3433 76.5,67.5 Z"/></g>
<g><path style="opacity:1" fill="#faf8d3" d="M 77.5,68.5 C 79.4832,68.1568 80.8166,68.8235 81.5,70.5C 80.0048,70.0113 78.6715,69.3446 77.5,68.5 Z"/></g>
<g><path style="opacity:1" fill="#faf6df" d="M 77.5,68.5 C 77.5,68.1667 77.5,67.8333 77.5,67.5C 80.8306,67.0181 83.4973,68.0181 85.5,70.5C 84.1667,70.5 82.8333,70.5 81.5,70.5C 80.8166,68.8235 79.4832,68.1568 77.5,68.5 Z"/></g>
<g><path style="opacity:1" fill="#eae5c8" d="M 89.5,68.5 C 90.391,69.1098 91.391,69.4431 92.5,69.5C 92.5,69.8333 92.5,70.1667 92.5,70.5C 92.1667,70.5 91.8333,70.5 91.5,70.5C 90.1667,70.5 88.8333,70.5 87.5,70.5C 88.1667,69.8333 88.8333,69.1667 89.5,68.5 Z"/></g>
<g><path style="opacity:1" fill="#eeebc1" d="M 89.5,68.5 C 89.5,68.1667 89.5,67.8333 89.5,67.5C 90.9587,67.4326 92.2921,67.7659 93.5,68.5C 93.5,69.1667 93.1667,69.5 92.5,69.5C 91.391,69.4431 90.391,69.1098 89.5,68.5 Z"/></g>
<g><path style="opacity:1" fill="#eee7d7" d="M 93.5,68.5 C 94.1667,68.5 94.8333,68.5 95.5,68.5C 96.5,68.5 97.5,68.5 98.5,68.5C 98.8333,68.5 99.1667,68.5 99.5,68.5C 99.5,68.8333 99.5,69.1667 99.5,69.5C 99.1667,69.5 98.8333,69.5 98.5,69.5C 96.4352,69.5172 94.4352,69.8505 92.5,70.5C 92.5,70.1667 92.5,69.8333 92.5,69.5C 93.1667,69.5 93.5,69.1667 93.5,68.5 Z"/></g>
<g><path style="opacity:1" fill="#a3877b" d="M 99.5,66.5 C 99.8333,66.5 100.167,66.5 100.5,66.5C 100.833,67.5 101.5,68.1667 102.5,68.5C 101.791,69.404 100.791,69.7373 99.5,69.5C 99.5,69.1667 99.5,68.8333 99.5,68.5C 99.5,67.8333 99.5,67.1667 99.5,66.5 Z"/></g>
<g><path style="opacity:1" fill="#b4a5a0" d="M 102.5,68.5 C 103.5,68.5 104.5,68.5 105.5,68.5C 105.833,68.5 106.167,68.5 106.5,68.5C 106.5,68.8333 106.5,69.1667 106.5,69.5C 106.5,69.8333 106.5,70.1667 106.5,70.5C 103.833,70.5 101.167,70.5 98.5,70.5C 98.5,70.1667 98.5,69.8333 98.5,69.5C 98.8333,69.5 99.1667,69.5 99.5,69.5C 100.791,69.7373 101.791,69.404 102.5,68.5 Z"/></g>
<g><path style="opacity:0.676" fill="#bdbdbc" d="M 117.5,67.5 C 117.179,69.0481 116.179,69.7148 114.5,69.5C 114.973,68.0937 115.973,67.427 117.5,67.5 Z"/></g>
<g><path style="opacity:0.929" fill="#929498" d="M 11.5,68.5 C 12.1667,69.1667 12.8333,69.8333 13.5,70.5C 12.8333,70.5 12.1667,70.5 11.5,70.5C 10.8333,70.5 10.1667,70.5 9.5,70.5C 9.5,70.1667 9.5,69.8333 9.5,69.5C 10.1667,69.1667 10.8333,68.8333 11.5,68.5 Z"/></g>
<g><path style="opacity:0.306" fill="#a5a5a5" d="M 52.5,68.5 C 53.4916,68.3284 54.1583,68.6618 54.5,69.5C 55.8333,70.1667 57.1667,70.8333 58.5,71.5C 56.8008,71.6602 55.1341,71.4935 53.5,71C 52.7476,70.3292 52.4142,69.4959 52.5,68.5 Z"/></g>
<g><path style="opacity:1" fill="#7c7870" d="M 54.5,69.5 C 55.1667,69.5 55.8333,69.5 56.5,69.5C 57.5,69.5 58.5,69.5 59.5,69.5C 60.1667,69.5 60.8333,69.5 61.5,69.5C 62.5,69.5 63.5,69.5 64.5,69.5C 63.1667,70.1667 61.8333,70.8333 60.5,71.5C 59.8333,71.5 59.1667,71.5 58.5,71.5C 57.1667,70.8333 55.8333,70.1667 54.5,69.5 Z"/></g>
<g><path style="opacity:1" fill="#eae7db" d="M 68.5,68.5 C 69.1667,68.5 69.8333,68.5 70.5,68.5C 71.5676,69.4345 72.901,69.7678 74.5,69.5C 74.8333,69.5 75.1667,69.5 75.5,69.5C 76.5,70.1667 77.5,70.8333 78.5,71.5C 75.8333,71.5 73.1667,71.5 70.5,71.5C 69.609,70.8902 68.609,70.5569 67.5,70.5C 66.5084,70.6716 65.8417,70.3382 65.5,69.5C 66.609,69.4431 67.609,69.1098 68.5,68.5 Z"/></g>
<g><path style="opacity:1" fill="#efe7c7" d="M 77.5,68.5 C 78.6715,69.3446 80.0048,70.0113 81.5,70.5C 82.8333,70.5 84.1667,70.5 85.5,70.5C 85.8333,70.5 86.1667,70.5 86.5,70.5C 86.8333,70.5 87.1667,70.5 87.5,70.5C 84.7131,71.4767 81.7131,71.81 78.5,71.5C 77.5,70.8333 76.5,70.1667 75.5,69.5C 75.8417,68.6618 76.5084,68.3284 77.5,68.5 Z"/></g>
<g><path style="opacity:0.992" fill="#bab7b6" d="M 98.5,69.5 C 98.5,69.8333 98.5,70.1667 98.5,70.5C 96.3926,71.4682 94.0593,71.8016 91.5,71.5C 91.5,71.1667 91.5,70.8333 91.5,70.5C 91.8333,70.5 92.1667,70.5 92.5,70.5C 94.4352,69.8505 96.4352,69.5172 98.5,69.5 Z"/></g>
<g><path style="opacity:0.412" fill="#a0a0a1" d="M 7.5,66.5 C 7.5,66.8333 7.5,67.1667 7.5,67.5C 7.28519,69.1788 7.95186,70.1788 9.5,70.5C 10.1667,70.5 10.8333,70.5 11.5,70.5C 10.0536,71.6129 8.38695,71.7796 6.5,71C 5.44678,69.2507 5.78011,67.7507 7.5,66.5 Z"/></g>
<g><path style="opacity:0.816" fill="#afaeae" d="M 64.5,69.5 C 64.8333,69.5 65.1667,69.5 65.5,69.5C 65.8417,70.3382 66.5084,70.6716 67.5,70.5C 67.5,71.1667 67.1667,71.5 66.5,71.5C 64.5,71.5 62.5,71.5 60.5,71.5C 61.8333,70.8333 63.1667,70.1667 64.5,69.5 Z"/></g>
<g><path style="opacity:0.992" fill="#a8a497" d="M 87.5,70.5 C 88.8333,70.5 90.1667,70.5 91.5,70.5C 91.5,70.8333 91.5,71.1667 91.5,71.5C 84.6866,72.4912 77.6866,72.8245 70.5,72.5C 70.5,72.1667 70.5,71.8333 70.5,71.5C 73.1667,71.5 75.8333,71.5 78.5,71.5C 81.7131,71.81 84.7131,71.4767 87.5,70.5 Z"/></g>
<g><path style="opacity:0.4" fill="#a19999" d="M 106.5,69.5 C 106.5,69.1667 106.5,68.8333 106.5,68.5C 108.167,68.5 109.833,68.5 111.5,68.5C 111.5,69.1667 111.5,69.8333 111.5,70.5C 109.716,71.7199 108.05,71.7199 106.5,70.5C 107.833,70.1667 107.833,69.8333 106.5,69.5 Z"/></g>
<g><path style="opacity:0.016" fill="#acacac" d="M 111.5,68.5 C 112.609,68.5569 113.609,68.8902 114.5,69.5C 113.947,71.5518 112.947,71.8852 111.5,70.5C 111.5,69.8333 111.5,69.1667 111.5,68.5 Z"/></g>
<g><path style="opacity:0.161" fill="#c2c2c0" d="M 67.5,70.5 C 68.609,70.5569 69.609,70.8902 70.5,71.5C 70.5,71.8333 70.5,72.1667 70.5,72.5C 68.901,72.7678 67.5676,72.4345 66.5,71.5C 67.1667,71.5 67.5,71.1667 67.5,70.5 Z"/></g>
</svg>
