<?xml version="1.0" encoding="UTF-8"?>
<!DOCTYPE svg PUBLIC "-//W3C//DTD SVG 1.1//EN" "http://www.w3.org/Graphics/SVG/1.1/DTD/svg11.dtd">
<svg xmlns="http://www.w3.org/2000/svg" version="1.1" width="128px" height="128px" style="shape-rendering:geometricPrecision; text-rendering:geometricPrecision; image-rendering:optimizeQuality; fill-rule:evenodd; clip-rule:evenodd" xmlns:xlink="http://www.w3.org/1999/xlink">
<g><path style="opacity:0.969" fill="#939391" d="M 54.5,29.5 C 52.302,29.1201 50.6354,29.7868 49.5,31.5C 48.478,30.1083 48.8113,28.775 50.5,27.5C 52.0255,27.9943 53.3588,28.661 54.5,29.5 Z"/></g>
<g><path style="opacity:1" fill="#3c281c" d="M 54.5,29.5 C 56.2322,33.1875 58.0655,36.8542 60,40.5C 61.4705,41.2666 62.9705,41.9332 64.5,42.5C 61.9209,44.0252 59.2542,45.3586 56.5,46.5C 56.1667,46.5 55.8333,46.5 55.5,46.5C 54.4324,45.5655 53.099,45.2322 51.5,45.5C 50.0857,43.4017 50.7524,42.4017 53.5,42.5C 53.3969,39.3642 52.3969,36.6975 50.5,34.5C 49.596,33.791 49.2627,32.791 49.5,31.5C 50.6354,29.7868 52.302,29.1201 54.5,29.5 Z"/></g>
<g><path style="opacity:1" fill="#5d4841" d="M 54.5,29.5 C 59.6788,31.2579 64.0122,34.2579 67.5,38.5C 69.5078,40.0826 71.8411,41.0826 74.5,41.5C 71.0977,41.3424 67.7644,41.6758 64.5,42.5C 62.9705,41.9332 61.4705,41.2666 60,40.5C 58.0655,36.8542 56.2322,33.1875 54.5,29.5 Z"/></g>
<g><path style="opacity:1" fill="#58524d" d="M 50.5,34.5 C 52.3969,36.6975 53.3969,39.3642 53.5,42.5C 50.7524,42.4017 50.0857,43.4017 51.5,45.5C 50.4138,45.38 49.7472,44.7133 49.5,43.5C 49.8868,41.7257 50.5535,40.059 51.5,38.5C 50.7542,37.2638 50.4208,35.9305 50.5,34.5 Z"/></g>
<g><path style="opacity:1" fill="#938d81" d="M 67.5,38.5 C 75.0586,39.0585 82.3919,40.3919 89.5,42.5C 84.3846,41.599 79.3846,41.2657 74.5,41.5C 71.8411,41.0826 69.5078,40.0826 67.5,38.5 Z"/></g>
<g><path style="opacity:1" fill="#ab8b5b" d="M 109.5,53.5 C 110.609,53.5569 111.609,53.8902 112.5,54.5C 113.038,56.1172 113.371,57.7839 113.5,59.5C 111.02,58.0883 108.687,56.4216 106.5,54.5C 105.055,56.3936 103.388,58.0603 101.5,59.5C 101.946,56.9899 101.28,54.9899 99.5,53.5C 95.7864,50.3097 91.4531,48.1431 86.5,47C 78.7304,45.5606 71.0637,45.0606 63.5,45.5C 68.0645,43.96 72.8979,43.2933 78,43.5C 85.9795,43.1794 92.9795,45.5128 99,50.5C 99.3333,50.1667 99.6667,49.8333 100,49.5C 102.892,51.5772 106.059,52.9105 109.5,53.5 Z"/></g>
<g><path style="opacity:0.98" fill="#8b8274" d="M 91.5,42.5 C 100.215,44.689 107.882,48.689 114.5,54.5C 113.833,54.5 113.167,54.5 112.5,54.5C 111.609,53.8902 110.609,53.5569 109.5,53.5C 103.814,49.3233 97.8136,45.6566 91.5,42.5 Z"/></g>
<g><path style="opacity:0.914" fill="#898275" d="M 51.5,45.5 C 53.099,45.2322 54.4324,45.5655 55.5,46.5C 47.9803,48.0465 40.647,50.2131 33.5,53C 30.854,53.4974 28.1873,53.6641 25.5,53.5C 25.5,53.1667 25.5,52.8333 25.5,52.5C 34.4775,50.946 43.1442,48.6126 51.5,45.5 Z"/></g>
<g><path style="opacity:1" fill="#625d5a" d="M 14.5,46.5 C 14.1667,46.5 13.8333,46.5 13.5,46.5C 10.7557,45.795 8.08901,45.795 5.5,46.5C 6.72305,48.4599 8.05638,50.2932 9.5,52C 8.94404,52.3826 8.61071,52.8826 8.5,53.5C 5.83518,51.1645 4.50185,48.1645 4.5,44.5C 8.1595,44.1588 11.4928,44.8255 14.5,46.5 Z"/></g>
<g><path style="opacity:0.4" fill="#8a8b89" d="M 15.5,46.5 C 17.674,46.7497 19.3406,47.7497 20.5,49.5C 18.326,49.2503 16.6594,48.2503 15.5,46.5 Z"/></g>
<g><path style="opacity:1" fill="#8a6f4d" d="M 74.5,41.5 C 79.3846,41.2657 84.3846,41.599 89.5,42.5C 90.1667,42.5 90.8333,42.5 91.5,42.5C 97.8136,45.6566 103.814,49.3233 109.5,53.5C 106.059,52.9105 102.892,51.5772 100,49.5C 99.6667,49.8333 99.3333,50.1667 99,50.5C 92.9795,45.5128 85.9795,43.1794 78,43.5C 72.8979,43.2933 68.0645,43.96 63.5,45.5C 61.1944,45.9926 58.861,46.3259 56.5,46.5C 59.2542,45.3586 61.9209,44.0252 64.5,42.5C 67.7644,41.6758 71.0977,41.3424 74.5,41.5 Z"/></g>
<g><path style="opacity:1" fill="#d3c577" d="M 80.5,48.5 C 82.5273,48.3379 84.5273,48.5045 86.5,49C 89.0221,50.8433 91.8555,52.0099 95,52.5C 96.3102,53.1301 97.1435,54.1301 97.5,55.5C 94.7938,55.5751 92.1272,55.9084 89.5,56.5C 83.7414,56.7857 78.0748,56.4524 72.5,55.5C 72.6324,50.2093 74.1324,50.2093 77,55.5C 77.6172,54.5509 77.4506,53.7175 76.5,53C 78.5,52.6667 80.5,52.3333 82.5,52C 81.2068,51.51 79.8734,51.3433 78.5,51.5C 78.2852,49.8212 78.9519,48.8212 80.5,48.5 Z"/></g>
<g><path style="opacity:0.424" fill="#7d7d7c" d="M 22.5,50.5 C 24.0269,50.427 25.0269,51.0937 25.5,52.5C 23.9731,52.573 22.9731,51.9063 22.5,50.5 Z"/></g>
<g><path style="opacity:1" fill="#cbab70" d="M 63.5,45.5 C 71.0637,45.0606 78.7304,45.5606 86.5,47C 91.4531,48.1431 95.7864,50.3097 99.5,53.5C 98.8333,54.1667 98.1667,54.8333 97.5,55.5C 97.1435,54.1301 96.3102,53.1301 95,52.5C 91.8555,52.0099 89.0221,50.8433 86.5,49C 84.5273,48.5045 82.5273,48.3379 80.5,48.5C 68.0418,46.6445 55.7085,47.8112 43.5,52C 49.7062,52.3818 55.7062,53.2151 61.5,54.5C 60.7784,54.9175 60.2784,55.5842 60,56.5C 57.7916,57.4453 55.2916,57.4453 52.5,56.5C 51.537,56.9698 51.537,57.6365 52.5,58.5C 47.3054,58.1795 42.3054,58.5128 37.5,59.5C 37.1667,59.5 36.8333,59.5 36.5,59.5C 33.4816,59.6646 30.4816,59.498 27.5,59C 26.4178,57.6703 25.7512,56.1703 25.5,54.5C 25.5,54.1667 25.5,53.8333 25.5,53.5C 28.1873,53.6641 30.854,53.4974 33.5,53C 40.647,50.2131 47.9803,48.0465 55.5,46.5C 55.8333,46.5 56.1667,46.5 56.5,46.5C 58.861,46.3259 61.1944,45.9926 63.5,45.5 Z"/></g>
<g><path style="opacity:1" fill="#cfc074" d="M 80.5,48.5 C 78.9519,48.8212 78.2852,49.8212 78.5,51.5C 79.8734,51.3433 81.2068,51.51 82.5,52C 80.5,52.3333 78.5,52.6667 76.5,53C 77.4506,53.7175 77.6172,54.5509 77,55.5C 74.1324,50.2093 72.6324,50.2093 72.5,55.5C 68.8019,55.4476 65.1352,55.1143 61.5,54.5C 55.7062,53.2151 49.7062,52.3818 43.5,52C 55.7085,47.8112 68.0418,46.6445 80.5,48.5 Z"/></g>
<g><path style="opacity:1" fill="#dcb977" d="M 61.5,54.5 C 65.1352,55.1143 68.8019,55.4476 72.5,55.5C 78.0748,56.4524 83.7414,56.7857 89.5,56.5C 87.3692,57.6587 86.0359,59.4921 85.5,62C 84.552,62.4828 83.552,62.6495 82.5,62.5C 82.5,61.5 82.5,60.5 82.5,59.5C 81.0695,59.5792 79.7362,59.2458 78.5,58.5C 78.1667,59.1667 77.8333,59.8333 77.5,60.5C 78.6616,62.5384 80.3283,63.8718 82.5,64.5C 81.5,64.5 80.5,64.5 79.5,64.5C 70.6979,61.6787 61.6979,59.6787 52.5,58.5C 51.537,57.6365 51.537,56.9698 52.5,56.5C 55.2916,57.4453 57.7916,57.4453 60,56.5C 60.2784,55.5842 60.7784,54.9175 61.5,54.5 Z"/></g>
<g><path style="opacity:1" fill="#876b42" d="M 112.5,54.5 C 113.167,54.5 113.833,54.5 114.5,54.5C 115.6,55.5585 116.934,56.3918 118.5,57C 117.829,57.9862 117.829,59.1529 118.5,60.5C 116.412,63.2534 114.745,62.92 113.5,59.5C 113.371,57.7839 113.038,56.1172 112.5,54.5 Z"/></g>
<g><path style="opacity:0.863" fill="#666465" d="M 9.5,55.5 C 11.3841,55.7118 12.7174,56.7118 13.5,58.5C 12.9953,59.9185 11.9953,60.5852 10.5,60.5C 11.7345,58.6017 11.4011,56.935 9.5,55.5 Z"/></g>
<g><path style="opacity:1" fill="#dcb777" d="M 99.5,53.5 C 101.28,54.9899 101.946,56.9899 101.5,59.5C 101.5,60.5 101.5,61.5 101.5,62.5C 95.3019,64.1827 88.9685,64.8494 82.5,64.5C 80.3283,63.8718 78.6616,62.5384 77.5,60.5C 77.8333,59.8333 78.1667,59.1667 78.5,58.5C 79.7362,59.2458 81.0695,59.5792 82.5,59.5C 82.5,60.5 82.5,61.5 82.5,62.5C 83.552,62.6495 84.552,62.4828 85.5,62C 86.0359,59.4921 87.3692,57.6587 89.5,56.5C 92.1272,55.9084 94.7938,55.5751 97.5,55.5C 98.1667,54.8333 98.8333,54.1667 99.5,53.5 Z"/></g>
<g><path style="opacity:1" fill="#aea46b" d="M 25.5,54.5 C 25.7512,56.1703 26.4178,57.6703 27.5,59C 30.4816,59.498 33.4816,59.6646 36.5,59.5C 35.9717,60.8474 35.805,62.1807 36,63.5C 39.257,66.5869 43.0903,68.5869 47.5,69.5C 48.3624,70.7658 49.0291,72.0992 49.5,73.5C 47.9382,73.2671 46.6049,72.6005 45.5,71.5C 42.0246,69.5928 38.6912,67.4262 35.5,65C 33.2884,64.2109 31.2884,64.3775 29.5,65.5C 28.2921,66.2341 26.9587,66.5674 25.5,66.5C 23.4764,62.5375 23.4764,58.5375 25.5,54.5 Z"/></g>
<g><path style="opacity:1" fill="#412c1e" d="M 13.5,46.5 C 13.3398,48.1992 13.5065,49.8659 14,51.5C 20.849,56.1375 21.0157,60.8041 14.5,65.5C 13.7542,66.7362 13.4208,68.0695 13.5,69.5C 12.209,69.2627 11.209,69.596 10.5,70.5C 6.0779,72.1489 4.41124,70.8156 5.5,66.5C 5.5,65.8333 5.83333,65.5 6.5,65.5C 8.6879,64.5557 10.0212,62.889 10.5,60.5C 11.9953,60.5852 12.9953,59.9185 13.5,58.5C 12.7174,56.7118 11.3841,55.7118 9.5,55.5C 8.66175,55.1583 8.32842,54.4916 8.5,53.5C 8.61071,52.8826 8.94404,52.3826 9.5,52C 8.05638,50.2932 6.72305,48.4599 5.5,46.5C 8.08901,45.795 10.7557,45.795 13.5,46.5 Z"/></g>
<g><path style="opacity:1" fill="#c7be6b" d="M 79.5,64.5 C 80.5,64.5 81.5,64.5 82.5,64.5C 88.9685,64.8494 95.3019,64.1827 101.5,62.5C 101.229,64.4305 100.229,65.7638 98.5,66.5C 98.0825,67.2216 97.4158,67.7216 96.5,68C 90.7964,68.3669 85.1298,69.0336 79.5,70C 81.0261,71.8871 83.0261,72.8871 85.5,73C 88.8168,73.4983 92.1501,73.665 95.5,73.5C 89.7709,75.4621 84.1043,77.7955 78.5,80.5C 77.5,80.5 76.5,80.5 75.5,80.5C 73.9519,80.1788 73.2852,79.1788 73.5,77.5C 70.5,77.5 67.5,77.5 64.5,77.5C 67.4213,76.8061 70.4213,75.9728 73.5,75C 68.6989,74.6217 64.0322,73.6217 59.5,72C 54.2983,68.8994 48.9649,66.0661 43.5,63.5C 43.3505,62.448 43.5172,61.448 44,60.5C 44.779,61.7282 45.779,62.7282 47,63.5C 49.6064,63.5215 52.273,63.1882 55,62.5C 56.6158,63.5448 58.2825,64.5448 60,65.5C 61.1131,64.2889 62.2798,64.2889 63.5,65.5C 64.5407,63.0087 65.3741,63.0087 66,65.5C 67.3204,63.4172 68.6538,63.7506 70,66.5C 71.016,65.3659 71.6827,65.6992 72,67.5C 72.3333,66.8333 72.6667,66.1667 73,65.5C 74.1545,66.7433 75.4878,67.7433 77,68.5C 77.4384,66.3582 78.2718,65.0249 79.5,64.5 Z"/></g>
<g><path style="opacity:1" fill="#67625d" d="M 10.5,60.5 C 10.0212,62.889 8.6879,64.5557 6.5,65.5C 7.13554,63.2054 8.46888,61.5387 10.5,60.5 Z"/></g>
<g><path style="opacity:1" fill="#c3b968" d="M 37.5,59.5 C 42.3054,58.5128 47.3054,58.1795 52.5,58.5C 61.6979,59.6787 70.6979,61.6787 79.5,64.5C 78.2718,65.0249 77.4384,66.3582 77,68.5C 75.4878,67.7433 74.1545,66.7433 73,65.5C 72.6667,66.1667 72.3333,66.8333 72,67.5C 71.6827,65.6992 71.016,65.3659 70,66.5C 68.6538,63.7506 67.3204,63.4172 66,65.5C 65.3741,63.0087 64.5407,63.0087 63.5,65.5C 62.2798,64.2889 61.1131,64.2889 60,65.5C 58.2825,64.5448 56.6158,63.5448 55,62.5C 52.273,63.1882 49.6064,63.5215 47,63.5C 45.779,62.7282 44.779,61.7282 44,60.5C 43.5172,61.448 43.3505,62.448 43.5,63.5C 40.6113,62.4748 38.6113,61.1414 37.5,59.5 Z"/></g>
<g><path style="opacity:1" fill="#c2b772" d="M 113.5,59.5 C 114.745,62.92 116.412,63.2534 118.5,60.5C 119.978,60.238 121.311,60.5713 122.5,61.5C 121.359,62.4255 121.359,63.2588 122.5,64C 118.663,67.337 114.329,69.837 109.5,71.5C 107.964,68.9078 105.631,67.9078 102.5,68.5C 101.817,66.8235 100.483,66.1568 98.5,66.5C 100.229,65.7638 101.229,64.4305 101.5,62.5C 101.5,61.5 101.5,60.5 101.5,59.5C 103.388,58.0603 105.055,56.3936 106.5,54.5C 108.687,56.4216 111.02,58.0883 113.5,59.5 Z"/></g>
<g><path style="opacity:1" fill="#2a1f17" d="M 13.5,46.5 C 13.8333,46.5 14.1667,46.5 14.5,46.5C 14.8333,46.5 15.1667,46.5 15.5,46.5C 16.6594,48.2503 18.326,49.2503 20.5,49.5C 21.4916,49.3284 22.1583,49.6618 22.5,50.5C 22.9731,51.9063 23.9731,52.573 25.5,52.5C 25.5,52.8333 25.5,53.1667 25.5,53.5C 25.5,53.8333 25.5,54.1667 25.5,54.5C 23.4764,58.5375 23.4764,62.5375 25.5,66.5C 25.1583,67.3382 24.4916,67.6716 23.5,67.5C 19.2138,68.7066 14.8805,69.7066 10.5,70.5C 11.209,69.596 12.209,69.2627 13.5,69.5C 13.4208,68.0695 13.7542,66.7362 14.5,65.5C 21.0157,60.8041 20.849,56.1375 14,51.5C 13.5065,49.8659 13.3398,48.1992 13.5,46.5 Z"/></g>
<g><path style="opacity:1" fill="#bcb36b" d="M 36.5,59.5 C 36.8333,59.5 37.1667,59.5 37.5,59.5C 38.6113,61.1414 40.6113,62.4748 43.5,63.5C 48.9649,66.0661 54.2983,68.8994 59.5,72C 64.0322,73.6217 68.6989,74.6217 73.5,75C 70.4213,75.9728 67.4213,76.8061 64.5,77.5C 59.2778,76.9812 54.2778,75.6478 49.5,73.5C 49.0291,72.0992 48.3624,70.7658 47.5,69.5C 43.0903,68.5869 39.257,66.5869 36,63.5C 35.805,62.1807 35.9717,60.8474 36.5,59.5 Z"/></g>
<g><path style="opacity:0.729" fill="#7c7c7b" d="M 5.5,66.5 C 4.41124,70.8156 6.0779,72.1489 10.5,70.5C 14.8805,69.7066 19.2138,68.7066 23.5,67.5C 18.7921,70.235 13.6254,71.9017 8,72.5C 1.90808,72.1826 1.07474,70.1826 5.5,66.5 Z"/></g>
<g><path style="opacity:1" fill="#3d2c22" d="M 98.5,66.5 C 100.483,66.1568 101.817,66.8235 102.5,68.5C 99.9686,69.9067 97.6352,71.5734 95.5,73.5C 92.1501,73.665 88.8168,73.4983 85.5,73C 83.0261,72.8871 81.0261,71.8871 79.5,70C 85.1298,69.0336 90.7964,68.3669 96.5,68C 97.4158,67.7216 98.0825,67.2216 98.5,66.5 Z"/></g>
<g><path style="opacity:1" fill="#e3d8aa" d="M 102.5,68.5 C 105.631,67.9078 107.964,68.9078 109.5,71.5C 104.316,76.2634 98.3162,79.7634 91.5,82C 86.9796,82.8136 82.6463,82.647 78.5,81.5C 78.5,81.1667 78.5,80.8333 78.5,80.5C 84.1043,77.7955 89.7709,75.4621 95.5,73.5C 97.6352,71.5734 99.9686,69.9067 102.5,68.5 Z"/></g>
<g><path style="opacity:0.596" fill="#b4b3b3" d="M 36.5,72.5 C 39.1667,73.1667 40.8333,74.8333 41.5,77.5C 39.5,76.1667 37.8333,74.5 36.5,72.5 Z"/></g>
<g><path style="opacity:1" fill="#625f5e" d="M 41.5,77.5 C 43.5106,78.4166 44.5106,80.0832 44.5,82.5C 44.3333,83.8333 44.1667,85.1667 44,86.5C 43.6174,87.056 43.1174,87.3893 42.5,87.5C 43.2033,84.2212 42.8699,80.8879 41.5,77.5 Z"/></g>
<g><path style="opacity:1" fill="#5e3f37" d="M 45.5,71.5 C 46.6049,72.6005 47.9382,73.2671 49.5,73.5C 52.3017,76.6417 55.635,78.9751 59.5,80.5C 58.1667,80.5 57.5,81.1667 57.5,82.5C 57.1667,83.5 56.5,84.1667 55.5,84.5C 54.0937,84.9731 53.427,85.9731 53.5,87.5C 53.1667,87.5 52.8333,87.5 52.5,87.5C 51.8333,87.5 51.1667,87.5 50.5,87.5C 49.1667,87.5 47.8333,87.5 46.5,87.5C 46.5715,84.8067 46.9049,82.1401 47.5,79.5C 46.8246,76.8222 46.158,74.1555 45.5,71.5 Z"/></g>
<g><path style="opacity:1" fill="#d9d0a2" d="M 49.5,73.5 C 54.2778,75.6478 59.2778,76.9812 64.5,77.5C 67.5,77.5 70.5,77.5 73.5,77.5C 73.2852,79.1788 73.9519,80.1788 75.5,80.5C 73.8984,82.0739 71.8984,82.7406 69.5,82.5C 66.3443,81.5661 63.0109,80.8994 59.5,80.5C 55.635,78.9751 52.3017,76.6417 49.5,73.5 Z"/></g>
<g><path style="opacity:1" fill="#938e83" d="M 59.5,80.5 C 63.0109,80.8994 66.3443,81.5661 69.5,82.5C 67.3621,84.7072 65.3621,87.0406 63.5,89.5C 66.6756,83.0786 64.6756,80.7452 57.5,82.5C 57.5,81.1667 58.1667,80.5 59.5,80.5 Z"/></g>
<g><path style="opacity:0.408" fill="#98917f" d="M 114.5,54.5 C 118.23,55.0558 121.397,56.7225 124,59.5C 125.176,63.2601 124.01,66.0934 120.5,68C 116.952,69.9407 113.286,71.6074 109.5,73C 100.4,82.0899 89.3997,85.9232 76.5,84.5C 76.9321,83.2905 77.5987,82.2905 78.5,81.5C 82.6463,82.647 86.9796,82.8136 91.5,82C 98.3162,79.7634 104.316,76.2634 109.5,71.5C 114.329,69.837 118.663,67.337 122.5,64C 121.359,63.2588 121.359,62.4255 122.5,61.5C 121.311,60.5713 119.978,60.238 118.5,60.5C 117.829,59.1529 117.829,57.9862 118.5,57C 116.934,56.3918 115.6,55.5585 114.5,54.5 Z"/></g>
<g><path style="opacity:1" fill="#352922" d="M 75.5,80.5 C 76.5,80.5 77.5,80.5 78.5,80.5C 78.5,80.8333 78.5,81.1667 78.5,81.5C 77.5987,82.2905 76.9321,83.2905 76.5,84.5C 75.5637,85.9744 74.2303,86.9744 72.5,87.5C 69.2674,87.7829 66.6007,89.1163 64.5,91.5C 63.7025,91.0431 63.3691,90.3764 63.5,89.5C 65.3621,87.0406 67.3621,84.7072 69.5,82.5C 71.8984,82.7406 73.8984,82.0739 75.5,80.5 Z"/></g>
<g><path style="opacity:1" fill="#35261c" d="M 45.5,71.5 C 46.158,74.1555 46.8246,76.8222 47.5,79.5C 46.9049,82.1401 46.5715,84.8067 46.5,87.5C 47.8333,87.5 49.1667,87.5 50.5,87.5C 48.2332,89.977 45.5665,90.6436 42.5,89.5C 42.5,88.8333 42.5,88.1667 42.5,87.5C 43.1174,87.3893 43.6174,87.056 44,86.5C 44.1667,85.1667 44.3333,83.8333 44.5,82.5C 44.5106,80.0832 43.5106,78.4166 41.5,77.5C 40.8333,74.8333 39.1667,73.1667 36.5,72.5C 35.0131,71.1964 33.3464,70.0298 31.5,69C 30.1772,68.1841 29.5106,67.0174 29.5,65.5C 31.2884,64.3775 33.2884,64.2109 35.5,65C 38.6912,67.4262 42.0246,69.5928 45.5,71.5 Z"/></g>
<g><path style="opacity:0.027" fill="#bababa" d="M 55.5,84.5 C 55.573,86.0269 54.9063,87.0269 53.5,87.5C 53.427,85.9731 54.0937,84.9731 55.5,84.5 Z"/></g>
<g><path style="opacity:1" fill="#7a7776" d="M 72.5,87.5 C 69.7049,90.2309 66.3716,91.8975 62.5,92.5C 62.2627,91.209 62.596,90.209 63.5,89.5C 63.3691,90.3764 63.7025,91.0431 64.5,91.5C 66.6007,89.1163 69.2674,87.7829 72.5,87.5 Z"/></g>
<g><path style="opacity:0.216" fill="#81807f" d="M 50.5,87.5 C 51.1667,87.5 51.8333,87.5 52.5,87.5C 50.5593,89.7226 48.0593,91.0559 45,91.5C 43.6244,91.3158 42.7911,90.6491 42.5,89.5C 45.5665,90.6436 48.2332,89.977 50.5,87.5 Z"/></g>
</svg>
