<?xml version="1.0" encoding="UTF-8"?>
<!DOCTYPE svg PUBLIC "-//W3C//DTD SVG 1.1//EN" "http://www.w3.org/Graphics/SVG/1.1/DTD/svg11.dtd">
<svg xmlns="http://www.w3.org/2000/svg" version="1.1" width="128px" height="128px" style="shape-rendering:geometricPrecision; text-rendering:geometricPrecision; image-rendering:optimizeQuality; fill-rule:evenodd; clip-rule:evenodd" xmlns:xlink="http://www.w3.org/1999/xlink">
<g><path style="opacity:1" fill="#050505" d="M 49.5,27.5 C 57.2033,29.0301 63.5367,32.8635 68.5,39C 80.7229,39.3061 92.3896,41.9727 103.5,47C 110.354,51.1983 117.187,55.3649 124,59.5C 125.176,63.2601 124.01,66.0934 120.5,68C 113.531,70.1479 107.531,73.8145 102.5,79C 94.4334,83.5163 85.7668,85.5163 76.5,85C 72.4827,88.8402 67.816,91.3402 62.5,92.5C 62.8069,89.7201 63.8069,87.2201 65.5,85C 65.3552,84.228 65.0219,83.5613 64.5,83C 62.7818,82.654 61.1151,82.154 59.5,81.5C 56.9372,84.1421 54.2706,86.6421 51.5,89C 48.7935,90.9076 45.7935,91.741 42.5,91.5C 44.0213,86.5478 43.5213,81.8811 41,77.5C 37.1509,73.2635 33.1509,69.2635 29,65.5C 22.4193,69.0269 15.4193,71.3602 8,72.5C 5.97919,72.3266 4.14585,71.6599 2.5,70.5C 5.02508,66.1038 8.02508,62.1038 11.5,58.5C 7.56014,54.6203 5.22681,49.9536 4.5,44.5C 9.03446,44.267 13.3678,45.1003 17.5,47C 20.7099,49.104 24.0432,50.9373 27.5,52.5C 35.5238,50.4367 43.5238,48.2701 51.5,46C 49.1649,43.6966 49.1649,41.1966 51.5,38.5C 49.5089,34.9237 48.8422,31.2571 49.5,27.5 Z"/></g>
</svg>
