<?xml version="1.0" encoding="UTF-8"?>
<!DOCTYPE svg PUBLIC "-//W3C//DTD SVG 1.1//EN" "http://www.w3.org/Graphics/SVG/1.1/DTD/svg11.dtd">
<svg xmlns="http://www.w3.org/2000/svg" version="1.1" width="128px" height="128px" style="shape-rendering:geometricPrecision; text-rendering:geometricPrecision; image-rendering:optimizeQuality; fill-rule:evenodd; clip-rule:evenodd" xmlns:xlink="http://www.w3.org/1999/xlink">
<g><path style="opacity:1" fill="#070706" d="M 114.5,74.5 C 114.5,75.1667 114.167,75.5 113.5,75.5C 108.158,74.4953 102.825,74.8286 97.5,76.5C 97.2201,79.7265 95.8868,82.3932 93.5,84.5C 92.9005,81.9331 91.4005,80.2664 89,79.5C 79.9069,81.0338 70.7403,82.0338 61.5,82.5C 51.1383,80.1013 40.805,77.6013 30.5,75C 28.3964,74.2092 27.063,72.7092 26.5,70.5C 21.8799,72.83 17.2133,72.9967 12.5,71C 9.52435,66.9063 10.191,63.573 14.5,61C 18.0324,59.3485 21.3657,59.5152 24.5,61.5C 27.9123,58.4735 31.9123,56.6402 36.5,56C 43.8905,55.9567 51.0572,54.79 58,52.5C 59.9705,54.0997 61.8038,54.2664 63.5,53C 68.748,51.524 73.0813,52.8574 76.5,57C 89.3907,58.3058 101.724,61.6392 113.5,67C 115.324,69.1515 115.657,71.6515 114.5,74.5 Z"/></g>
<g><path style="opacity:0.039" fill="#dfdfdf" d="M 114.5,74.5 C 115.043,74.56 115.376,74.8933 115.5,75.5C 114.743,76.7733 114.077,76.7733 113.5,75.5C 114.167,75.5 114.5,75.1667 114.5,74.5 Z"/></g>
</svg>
