<?xml version="1.0" encoding="UTF-8"?>
<!DOCTYPE svg PUBLIC "-//W3C//DTD SVG 1.1//EN" "http://www.w3.org/Graphics/SVG/1.1/DTD/svg11.dtd">
<svg xmlns="http://www.w3.org/2000/svg" version="1.1" width="128px" height="128px" style="shape-rendering:geometricPrecision; text-rendering:geometricPrecision; image-rendering:optimizeQuality; fill-rule:evenodd; clip-rule:evenodd" xmlns:xlink="http://www.w3.org/1999/xlink">
<g><path style="opacity:0.761" fill="#9b917a" d="M 67.5,52.5 C 67.5,52.8333 67.5,53.1667 67.5,53.5C 67.1667,53.5 66.8333,53.5 66.5,53.5C 65.1667,53.5 64.5,54.1667 64.5,55.5C 63.6618,55.1583 63.3284,54.4916 63.5,53.5C 64.5676,52.5655 65.901,52.2322 67.5,52.5 Z"/></g>
<g><path style="opacity:0.565" fill="#b8b093" d="M 67.5,53.5 C 67.5,53.1667 67.5,52.8333 67.5,52.5C 69.698,52.1201 71.3646,52.7868 72.5,54.5C 71.1667,54.1667 69.8333,53.8333 68.5,53.5C 68.1667,53.5 67.8333,53.5 67.5,53.5 Z"/></g>
<g><path style="opacity:0.918" fill="#d8d1a5" d="M 61.5,54.5 C 61.1667,54.5 60.8333,54.5 60.5,54.5C 59.5,54.5 58.5,54.5 57.5,54.5C 57.5,54.1667 57.5,53.8333 57.5,53.5C 57.4346,53.0618 57.6012,52.7284 58,52.5C 59.3024,53.0848 60.469,53.7515 61.5,54.5 Z"/></g>
<g><path style="opacity:0.569" fill="#c8c0a2" d="M 57.5,53.5 C 57.5,53.8333 57.5,54.1667 57.5,54.5C 57.1667,54.5 56.8333,54.5 56.5,54.5C 55.391,54.5569 54.391,54.8902 53.5,55.5C 51.8333,55.5 50.1667,55.5 48.5,55.5C 51.2727,54.3428 54.2727,53.6761 57.5,53.5 Z"/></g>
<g><path style="opacity:1" fill="#8c7c3f" d="M 66.5,53.5 C 67.2341,54.7079 67.5674,56.0413 67.5,57.5C 67.1667,57.5 66.8333,57.5 66.5,57.5C 66.1667,56.5 65.5,55.8333 64.5,55.5C 64.5,54.1667 65.1667,53.5 66.5,53.5 Z"/></g>
<g><path style="opacity:1" fill="#958740" d="M 68.5,53.5 C 69.8333,53.8333 71.1667,54.1667 72.5,54.5C 72.5,54.8333 72.5,55.1667 72.5,55.5C 70.6203,55.7709 69.287,55.1042 68.5,53.5 Z"/></g>
<g><path style="opacity:0.757" fill="#d7d1ac" d="M 36.5,56.5 C 40.2984,55.5166 44.2984,55.1832 48.5,55.5C 48.5,55.8333 48.5,56.1667 48.5,56.5C 48.5,57.1667 48.1667,57.5 47.5,57.5C 45.7354,56.5386 43.7354,56.2053 41.5,56.5C 40.8333,56.5 40.1667,56.5 39.5,56.5C 38.8333,56.5 38.1667,56.5 37.5,56.5C 37.1667,56.5 36.8333,56.5 36.5,56.5 Z"/></g>
<g><path style="opacity:1" fill="#7d6126" d="M 56.5,54.5 C 56.5,55.1667 56.5,55.8333 56.5,56.5C 56.5,56.8333 56.5,57.1667 56.5,57.5C 56.1667,57.5 55.8333,57.5 55.5,57.5C 54.8333,56.8333 54.1667,56.1667 53.5,55.5C 54.391,54.8902 55.391,54.5569 56.5,54.5 Z"/></g>
<g><path style="opacity:1" fill="#8f7a2c" d="M 56.5,54.5 C 56.8333,54.5 57.1667,54.5 57.5,54.5C 58.5,54.5 59.5,54.5 60.5,54.5C 61.1098,55.391 61.4431,56.391 61.5,57.5C 60.8333,57.5 60.1667,57.5 59.5,57.5C 58.791,56.596 57.791,56.2627 56.5,56.5C 56.5,55.8333 56.5,55.1667 56.5,54.5 Z"/></g>
<g><path style="opacity:1" fill="#aa9d41" d="M 66.5,53.5 C 66.8333,53.5 67.1667,53.5 67.5,53.5C 67.8333,53.5 68.1667,53.5 68.5,53.5C 69.287,55.1042 70.6203,55.7709 72.5,55.5C 72.5,55.8333 72.5,56.1667 72.5,56.5C 71.1667,56.8333 69.8333,57.1667 68.5,57.5C 68.1667,57.5 67.8333,57.5 67.5,57.5C 67.5674,56.0413 67.2341,54.7079 66.5,53.5 Z"/></g>
<g><path style="opacity:1" fill="#b9b192" d="M 72.5,54.5 C 74.0269,54.427 75.0269,55.0937 75.5,56.5C 74.1667,56.5 73.5,57.1667 73.5,58.5C 73.1667,58.5 72.8333,58.5 72.5,58.5C 72.5,57.8333 72.5,57.1667 72.5,56.5C 72.5,56.1667 72.5,55.8333 72.5,55.5C 72.5,55.1667 72.5,54.8333 72.5,54.5 Z"/></g>
<g><path style="opacity:1" fill="#857047" d="M 48.5,56.5 C 48.5,56.1667 48.5,55.8333 48.5,55.5C 50.1667,55.5 51.8333,55.5 53.5,55.5C 54.1667,56.1667 54.8333,56.8333 55.5,57.5C 53.8333,57.5 52.1667,57.5 50.5,57.5C 50.1583,56.6618 49.4916,56.3284 48.5,56.5 Z"/></g>
<g><path style="opacity:1" fill="#b0a687" d="M 63.5,53.5 C 63.3284,54.4916 63.6618,55.1583 64.5,55.5C 65.5,55.8333 66.1667,56.5 66.5,57.5C 66.1667,57.5 65.8333,57.5 65.5,57.5C 64.6043,56.4937 63.9377,56.4937 63.5,57.5C 62.596,56.791 62.2627,55.791 62.5,54.5C 62.5,53.8333 62.8333,53.5 63.5,53.5 Z"/></g>
<g><path style="opacity:0.861" fill="#8f8266" d="M 75.5,56.5 C 76.1667,56.5 76.5,56.8333 76.5,57.5C 75.791,58.404 74.791,58.7373 73.5,58.5C 73.5,57.1667 74.1667,56.5 75.5,56.5 Z"/></g>
<g><path style="opacity:1" fill="#958331" d="M 37.5,56.5 C 38.1667,56.5 38.8333,56.5 39.5,56.5C 39.5,57.1667 39.5,57.8333 39.5,58.5C 39.1667,58.5 38.8333,58.5 38.5,58.5C 37.5084,58.6716 36.8417,58.3382 36.5,57.5C 37.1667,57.5 37.5,57.1667 37.5,56.5 Z"/></g>
<g><path style="opacity:1" fill="#aea254" d="M 39.5,56.5 C 40.1667,56.5 40.8333,56.5 41.5,56.5C 41.8333,57.1667 42.1667,57.8333 42.5,58.5C 41.5,58.5 40.5,58.5 39.5,58.5C 39.5,57.8333 39.5,57.1667 39.5,56.5 Z"/></g>
<g><path style="opacity:1" fill="#95833f" d="M 41.5,56.5 C 43.7354,56.2053 45.7354,56.5386 47.5,57.5C 46.5084,57.3284 45.8417,57.6618 45.5,58.5C 44.5,58.5 43.5,58.5 42.5,58.5C 42.1667,57.8333 41.8333,57.1667 41.5,56.5 Z"/></g>
<g><path style="opacity:1" fill="#b1aa86" d="M 48.5,56.5 C 49.4916,56.3284 50.1583,56.6618 50.5,57.5C 50.5,57.8333 50.5,58.1667 50.5,58.5C 50.5,59.1667 50.1667,59.5 49.5,59.5C 48.4324,58.5655 47.099,58.2322 45.5,58.5C 45.8417,57.6618 46.5084,57.3284 47.5,57.5C 48.1667,57.5 48.5,57.1667 48.5,56.5 Z"/></g>
<g><path style="opacity:1" fill="#bab389" d="M 50.5,58.5 C 50.5,58.1667 50.5,57.8333 50.5,57.5C 52.1667,57.5 53.8333,57.5 55.5,57.5C 55.1788,59.0481 54.1788,59.7148 52.5,59.5C 52.1583,58.6618 51.4916,58.3284 50.5,58.5 Z"/></g>
<g><path style="opacity:1" fill="#9d8f56" d="M 56.5,56.5 C 57.791,56.2627 58.791,56.596 59.5,57.5C 58.8333,58.1667 58.1667,58.8333 57.5,59.5C 56.6618,59.1583 56.3284,58.4916 56.5,57.5C 56.5,57.1667 56.5,56.8333 56.5,56.5 Z"/></g>
<g><path style="opacity:1" fill="#9f9255" d="M 60.5,54.5 C 60.8333,54.5 61.1667,54.5 61.5,54.5C 61.8333,54.5 62.1667,54.5 62.5,54.5C 62.2627,55.791 62.596,56.791 63.5,57.5C 63.5,58.1667 63.5,58.8333 63.5,59.5C 62.8333,59.5 62.1667,59.5 61.5,59.5C 61.5,58.8333 61.5,58.1667 61.5,57.5C 61.4431,56.391 61.1098,55.391 60.5,54.5 Z"/></g>
<g><path style="opacity:1" fill="#83703a" d="M 65.5,57.5 C 65.5,58.1667 65.5,58.8333 65.5,59.5C 64.8333,59.5 64.1667,59.5 63.5,59.5C 63.5,58.8333 63.5,58.1667 63.5,57.5C 63.9377,56.4937 64.6043,56.4937 65.5,57.5 Z"/></g>
<g><path style="opacity:1" fill="#8f7f3a" d="M 72.5,56.5 C 72.5,57.1667 72.5,57.8333 72.5,58.5C 71.1667,58.5 69.8333,58.5 68.5,58.5C 68.5,58.1667 68.5,57.8333 68.5,57.5C 69.8333,57.1667 71.1667,56.8333 72.5,56.5 Z"/></g>
<g><path style="opacity:0.369" fill="#c9c1a1" d="M 33.5,57.5 C 33.5,57.8333 33.5,58.1667 33.5,58.5C 31.7839,58.6287 30.1172,58.962 28.5,59.5C 28.1667,59.5 27.8333,59.5 27.5,59.5C 29.1016,57.9261 31.1016,57.2594 33.5,57.5 Z"/></g>
<g><path style="opacity:1" fill="#b4aa71" d="M 36.5,56.5 C 36.8333,56.5 37.1667,56.5 37.5,56.5C 37.5,57.1667 37.1667,57.5 36.5,57.5C 34.3023,57.4088 33.9689,58.0755 35.5,59.5C 35.5,60.1667 35.1667,60.5 34.5,60.5C 34.1667,59.8333 33.8333,59.1667 33.5,58.5C 33.5,58.1667 33.5,57.8333 33.5,57.5C 34.209,56.596 35.209,56.2627 36.5,56.5 Z"/></g>
<g><path style="opacity:1" fill="#b1a759" d="M 36.5,57.5 C 36.8417,58.3382 37.5084,58.6716 38.5,58.5C 38.5,59.1667 38.1667,59.5 37.5,59.5C 36.8333,59.5 36.1667,59.5 35.5,59.5C 33.9689,58.0755 34.3023,57.4088 36.5,57.5 Z"/></g>
<g><path style="opacity:1" fill="#cecca5" d="M 45.5,58.5 C 47.099,58.2322 48.4324,58.5655 49.5,59.5C 48.5084,59.3284 47.8417,59.6618 47.5,60.5C 46.5,60.1667 45.8333,59.5 45.5,58.5 Z"/></g>
<g><path style="opacity:1" fill="#7b662b" d="M 55.5,57.5 C 55.8333,57.5 56.1667,57.5 56.5,57.5C 56.3284,58.4916 56.6618,59.1583 57.5,59.5C 58.8333,59.5 60.1667,59.5 61.5,59.5C 61.5,59.8333 61.5,60.1667 61.5,60.5C 61.1667,60.5 60.8333,60.5 60.5,60.5C 57.8333,60.5 55.1667,60.5 52.5,60.5C 52.5,60.1667 52.5,59.8333 52.5,59.5C 54.1788,59.7148 55.1788,59.0481 55.5,57.5 Z"/></g>
<g><path style="opacity:1" fill="#9b8b39" d="M 59.5,57.5 C 60.1667,57.5 60.8333,57.5 61.5,57.5C 61.5,58.1667 61.5,58.8333 61.5,59.5C 60.1667,59.5 58.8333,59.5 57.5,59.5C 58.1667,58.8333 58.8333,58.1667 59.5,57.5 Z"/></g>
<g><path style="opacity:1" fill="#988a5d" d="M 65.5,57.5 C 65.8333,57.5 66.1667,57.5 66.5,57.5C 66.8333,57.5 67.1667,57.5 67.5,57.5C 67.8333,57.5 68.1667,57.5 68.5,57.5C 68.5,57.8333 68.5,58.1667 68.5,58.5C 67.609,59.1098 66.609,59.4431 65.5,59.5C 65.5,58.8333 65.5,58.1667 65.5,57.5 Z"/></g>
<g><path style="opacity:1" fill="#48331e" d="M 76.5,57.5 C 77.1667,57.5 77.8333,57.5 78.5,57.5C 80.6287,58.2028 82.6287,59.2028 84.5,60.5C 83.8333,60.5 83.1667,60.5 82.5,60.5C 81.391,60.4431 80.391,60.1098 79.5,59.5C 77.8333,59.5 76.1667,59.5 74.5,59.5C 73.8333,59.5 73.5,59.1667 73.5,58.5C 74.791,58.7373 75.791,58.404 76.5,57.5 Z"/></g>
<g><path style="opacity:1" fill="#6b501b" d="M 33.5,58.5 C 33.8333,59.1667 34.1667,59.8333 34.5,60.5C 33.8333,60.5 33.1667,60.5 32.5,60.5C 31.5084,60.3284 30.8417,60.6618 30.5,61.5C 29.5084,61.6716 28.8417,61.3382 28.5,60.5C 28.5,60.1667 28.5,59.8333 28.5,59.5C 30.1172,58.962 31.7839,58.6287 33.5,58.5 Z"/></g>
<g><path style="opacity:1" fill="#ada26d" d="M 38.5,58.5 C 38.8333,58.5 39.1667,58.5 39.5,58.5C 40.5,58.5 41.5,58.5 42.5,58.5C 42.5,58.8333 42.5,59.1667 42.5,59.5C 41.209,59.2627 40.209,59.596 39.5,60.5C 38.6618,60.8417 38.3284,61.5084 38.5,62.5C 38.1667,62.5 37.8333,62.5 37.5,62.5C 37.5,62.1667 37.5,61.8333 37.5,61.5C 37.5,60.8333 37.5,60.1667 37.5,59.5C 38.1667,59.5 38.5,59.1667 38.5,58.5 Z"/></g>
<g><path style="opacity:1" fill="#a59c71" d="M 42.5,58.5 C 43.5,58.5 44.5,58.5 45.5,58.5C 45.8333,59.5 46.5,60.1667 47.5,60.5C 47.8333,60.5 48.1667,60.5 48.5,60.5C 48.5,60.8333 48.5,61.1667 48.5,61.5C 47.8333,61.5 47.1667,61.5 46.5,61.5C 45.3478,60.375 44.3478,60.375 43.5,61.5C 43.1667,61.5 42.8333,61.5 42.5,61.5C 42.5,60.8333 42.5,60.1667 42.5,59.5C 42.5,59.1667 42.5,58.8333 42.5,58.5 Z"/></g>
<g><path style="opacity:1" fill="#cac591" d="M 50.5,58.5 C 51.4916,58.3284 52.1583,58.6618 52.5,59.5C 52.5,59.8333 52.5,60.1667 52.5,60.5C 51.1667,60.5 49.8333,60.5 48.5,60.5C 48.1667,60.5 47.8333,60.5 47.5,60.5C 47.8417,59.6618 48.5084,59.3284 49.5,59.5C 50.1667,59.5 50.5,59.1667 50.5,58.5 Z"/></g>
<g><path style="opacity:1" fill="#4b3515" d="M 68.5,58.5 C 69.8333,58.5 71.1667,58.5 72.5,58.5C 72.8333,58.5 73.1667,58.5 73.5,58.5C 73.5,59.1667 73.8333,59.5 74.5,59.5C 74.1583,60.3382 73.4916,60.6716 72.5,60.5C 70.4265,59.6684 68.0932,59.6684 65.5,60.5C 64.8333,60.5 64.1667,60.5 63.5,60.5C 62.8333,60.5 62.1667,60.5 61.5,60.5C 61.5,60.1667 61.5,59.8333 61.5,59.5C 62.1667,59.5 62.8333,59.5 63.5,59.5C 64.1667,59.5 64.8333,59.5 65.5,59.5C 66.609,59.4431 67.609,59.1098 68.5,58.5 Z"/></g>
<g><path style="opacity:1" fill="#7f7266" d="M 78.5,57.5 C 82.8945,57.8437 87.2278,58.5103 91.5,59.5C 91.5,59.8333 91.5,60.1667 91.5,60.5C 90.5,60.5 89.5,60.5 88.5,60.5C 87.1667,60.5 85.8333,60.5 84.5,60.5C 82.6287,59.2028 80.6287,58.2028 78.5,57.5 Z"/></g>
<g><path style="opacity:0.839" fill="#989085" d="M 23.5,61.5 C 22.5,61.5 21.5,61.5 20.5,61.5C 18.5,61.5 16.5,61.5 14.5,61.5C 16.3432,60.7171 18.3432,60.0505 20.5,59.5C 21.7387,59.9424 22.7387,60.6091 23.5,61.5 Z"/></g>
<g><path style="opacity:1" fill="#c3bd93" d="M 35.5,59.5 C 36.1667,59.5 36.8333,59.5 37.5,59.5C 37.5,60.1667 37.5,60.8333 37.5,61.5C 36.1667,61.8333 34.8333,62.1667 33.5,62.5C 33.1667,61.8333 32.8333,61.1667 32.5,60.5C 33.1667,60.5 33.8333,60.5 34.5,60.5C 35.1667,60.5 35.5,60.1667 35.5,59.5 Z"/></g>
<g><path style="opacity:1" fill="#c9c7a1" d="M 39.5,60.5 C 40.209,59.596 41.209,59.2627 42.5,59.5C 42.5,60.1667 42.5,60.8333 42.5,61.5C 41.391,61.4431 40.391,61.1098 39.5,60.5 Z"/></g>
<g><path style="opacity:1" fill="#6c5218" d="M 60.5,61.5 C 60.5,61.1667 60.5,60.8333 60.5,60.5C 60.8333,60.5 61.1667,60.5 61.5,60.5C 62.1667,60.5 62.8333,60.5 63.5,60.5C 63.5,61.1667 63.5,61.8333 63.5,62.5C 63.1667,62.5 62.8333,62.5 62.5,62.5C 62.1667,62.5 61.8333,62.5 61.5,62.5C 61.5,61.8333 61.1667,61.5 60.5,61.5 Z"/></g>
<g><path style="opacity:1" fill="#664d16" d="M 72.5,60.5 C 71.5,61.1667 70.5,61.8333 69.5,62.5C 68.0048,62.0113 66.6715,61.3446 65.5,60.5C 68.0932,59.6684 70.4265,59.6684 72.5,60.5 Z"/></g>
<g><path style="opacity:0.671" fill="#9e9489" d="M 91.5,60.5 C 91.5,60.1667 91.5,59.8333 91.5,59.5C 93.6976,59.8751 95.6976,60.5418 97.5,61.5C 95.8333,61.5 94.1667,61.5 92.5,61.5C 92.5,60.8333 92.1667,60.5 91.5,60.5 Z"/></g>
<g><path style="opacity:1" fill="#78623d" d="M 20.5,61.5 C 21.5,61.5 22.5,61.5 23.5,61.5C 23.8333,61.5 24.1667,61.5 24.5,61.5C 24.5,61.8333 24.5,62.1667 24.5,62.5C 23.8333,62.5 23.1667,62.5 22.5,62.5C 21.8333,62.8333 21.1667,63.1667 20.5,63.5C 19.8333,63.5 19.5,63.1667 19.5,62.5C 20.1667,62.5 20.5,62.1667 20.5,61.5 Z"/></g>
<g><path style="opacity:0.078" fill="#d6cbb4" d="M 26.5,60.5 C 26.5,61.5 26.5,62.5 26.5,63.5C 25.8333,63.5 25.1667,63.5 24.5,63.5C 24.5,63.1667 24.5,62.8333 24.5,62.5C 24.5,62.1667 24.5,61.8333 24.5,61.5C 25.1667,61.1667 25.8333,60.8333 26.5,60.5 Z"/></g>
<g><path style="opacity:0.99" fill="#7c6952" d="M 27.5,59.5 C 27.8333,59.5 28.1667,59.5 28.5,59.5C 28.5,59.8333 28.5,60.1667 28.5,60.5C 27.596,61.209 27.2627,62.209 27.5,63.5C 27.1667,63.5 26.8333,63.5 26.5,63.5C 26.5,62.5 26.5,61.5 26.5,60.5C 26.5,59.8333 26.8333,59.5 27.5,59.5 Z"/></g>
<g><path style="opacity:1" fill="#6d5421" d="M 28.5,60.5 C 28.8417,61.3382 29.5084,61.6716 30.5,61.5C 29.8333,62.1667 29.1667,62.8333 28.5,63.5C 28.1667,63.5 27.8333,63.5 27.5,63.5C 27.2627,62.209 27.596,61.209 28.5,60.5 Z"/></g>
<g><path style="opacity:1" fill="#705529" d="M 39.5,60.5 C 40.391,61.1098 41.391,61.4431 42.5,61.5C 42.1667,62.1667 41.8333,62.8333 41.5,63.5C 40.8333,63.5 40.1667,63.5 39.5,63.5C 39.5,62.8333 39.1667,62.5 38.5,62.5C 38.3284,61.5084 38.6618,60.8417 39.5,60.5 Z"/></g>
<g><path style="opacity:1" fill="#5a411a" d="M 48.5,61.5 C 48.5,61.1667 48.5,60.8333 48.5,60.5C 49.8333,60.5 51.1667,60.5 52.5,60.5C 55.1667,60.5 57.8333,60.5 60.5,60.5C 60.5,60.8333 60.5,61.1667 60.5,61.5C 59.5,61.5 58.5,61.5 57.5,61.5C 55.901,61.2322 54.5676,61.5655 53.5,62.5C 52.8333,62.5 52.1667,62.5 51.5,62.5C 50.609,61.8902 49.609,61.5569 48.5,61.5 Z"/></g>
<g><path style="opacity:1" fill="#765b16" d="M 57.5,61.5 C 58.5,61.5 59.5,61.5 60.5,61.5C 61.1667,61.5 61.5,61.8333 61.5,62.5C 60.8333,62.5 60.1667,62.5 59.5,62.5C 58.8333,63.1667 58.1667,63.8333 57.5,64.5C 57.5,63.5 57.5,62.5 57.5,61.5 Z"/></g>
<g><path style="opacity:1" fill="#6f5817" d="M 74.5,59.5 C 76.1667,59.5 77.8333,59.5 79.5,59.5C 78.7095,60.4013 77.7095,61.0679 76.5,61.5C 75.209,61.2627 74.209,61.596 73.5,62.5C 72.1667,62.5 70.8333,62.5 69.5,62.5C 70.5,61.8333 71.5,61.1667 72.5,60.5C 73.4916,60.6716 74.1583,60.3382 74.5,59.5 Z"/></g>
<g><path style="opacity:1" fill="#7e6618" d="M 79.5,59.5 C 80.391,60.1098 81.391,60.4431 82.5,60.5C 82.4431,61.609 82.1098,62.609 81.5,63.5C 80.1667,63.5 78.8333,63.5 77.5,63.5C 77.1667,62.8333 76.8333,62.1667 76.5,61.5C 77.7095,61.0679 78.7095,60.4013 79.5,59.5 Z"/></g>
<g><path style="opacity:1" fill="#8d7a1c" d="M 82.5,60.5 C 83.1667,60.5 83.8333,60.5 84.5,60.5C 84.5,60.8333 84.5,61.1667 84.5,61.5C 84.5,61.8333 84.5,62.1667 84.5,62.5C 83.8333,62.5 83.5,62.8333 83.5,63.5C 82.8333,63.5 82.1667,63.5 81.5,63.5C 82.1098,62.609 82.4431,61.609 82.5,60.5 Z"/></g>
<g><path style="opacity:1" fill="#735b16" d="M 84.5,61.5 C 84.5,61.1667 84.5,60.8333 84.5,60.5C 85.8333,60.5 87.1667,60.5 88.5,60.5C 88.5,60.8333 88.5,61.1667 88.5,61.5C 87.8333,62.1667 87.1667,62.8333 86.5,63.5C 86.1667,62.5 85.5,61.8333 84.5,61.5 Z"/></g>
<g><path style="opacity:1" fill="#654917" d="M 88.5,61.5 C 88.5,61.1667 88.5,60.8333 88.5,60.5C 89.5,60.5 90.5,60.5 91.5,60.5C 92.1667,60.5 92.5,60.8333 92.5,61.5C 92.8417,62.3382 93.5084,62.6716 94.5,62.5C 94.5,62.8333 94.5,63.1667 94.5,63.5C 94.1667,63.5 93.8333,63.5 93.5,63.5C 92.8333,63.5 92.1667,63.5 91.5,63.5C 91.5,62.8333 91.1667,62.5 90.5,62.5C 89.8333,62.1667 89.1667,61.8333 88.5,61.5 Z"/></g>
<g><path style="opacity:1" fill="#49351c" d="M 92.5,61.5 C 94.1667,61.5 95.8333,61.5 97.5,61.5C 97.8333,61.5 98.1667,61.5 98.5,61.5C 98.8333,62.1667 99.1667,62.8333 99.5,63.5C 97.7085,63.634 96.0418,63.3007 94.5,62.5C 93.5084,62.6716 92.8417,62.3382 92.5,61.5 Z"/></g>
<g><path style="opacity:1" fill="#71551c" d="M 22.5,62.5 C 23.1667,62.5 23.8333,62.5 24.5,62.5C 24.5,62.8333 24.5,63.1667 24.5,63.5C 24.8333,64.1667 25.1667,64.8333 25.5,65.5C 23.8564,65.1898 22.8564,64.1898 22.5,62.5 Z"/></g>
<g><path style="opacity:1" fill="#978634" d="M 32.5,60.5 C 32.8333,61.1667 33.1667,61.8333 33.5,62.5C 33.5,62.8333 33.5,63.1667 33.5,63.5C 33.5,64.1667 33.1667,64.5 32.5,64.5C 32.1583,63.6618 31.4916,63.3284 30.5,63.5C 29.8333,63.5 29.1667,63.5 28.5,63.5C 29.1667,62.8333 29.8333,62.1667 30.5,61.5C 30.8417,60.6618 31.5084,60.3284 32.5,60.5 Z"/></g>
<g><path style="opacity:1" fill="#6d5e31" d="M 37.5,61.5 C 37.5,61.8333 37.5,62.1667 37.5,62.5C 36.8333,62.5 36.5,62.8333 36.5,63.5C 35.5,63.5 34.5,63.5 33.5,63.5C 33.5,63.1667 33.5,62.8333 33.5,62.5C 34.8333,62.1667 36.1667,61.8333 37.5,61.5 Z"/></g>
<g><path style="opacity:1" fill="#4c3412" d="M 42.5,61.5 C 42.8333,61.5 43.1667,61.5 43.5,61.5C 44.3382,61.8417 44.6716,62.5084 44.5,63.5C 43.5,63.5 42.5,63.5 41.5,63.5C 41.8333,62.8333 42.1667,62.1667 42.5,61.5 Z"/></g>
<g><path style="opacity:1" fill="#735319" d="M 43.5,61.5 C 44.3478,60.375 45.3478,60.375 46.5,61.5C 47.1667,62.1667 47.8333,62.8333 48.5,63.5C 47.8333,63.5 47.5,63.8333 47.5,64.5C 46.609,63.8902 45.609,63.5569 44.5,63.5C 44.6716,62.5084 44.3382,61.8417 43.5,61.5 Z"/></g>
<g><path style="opacity:1" fill="#5c3d11" d="M 46.5,61.5 C 47.1667,61.5 47.8333,61.5 48.5,61.5C 49.609,61.5569 50.609,61.8902 51.5,62.5C 51.5,63.5 51.5,64.5 51.5,65.5C 50.5,64.8333 49.5,64.1667 48.5,63.5C 47.8333,62.8333 47.1667,62.1667 46.5,61.5 Z"/></g>
<g><path style="opacity:1" fill="#6d4e13" d="M 57.5,61.5 C 57.5,62.5 57.5,63.5 57.5,64.5C 57.1667,64.5 56.8333,64.5 56.5,64.5C 56.1583,63.6618 55.4916,63.3284 54.5,63.5C 53.8333,63.5 53.5,63.1667 53.5,62.5C 54.5676,61.5655 55.901,61.2322 57.5,61.5 Z"/></g>
<g><path style="opacity:1" fill="#7b5f16" d="M 63.5,60.5 C 64.1667,60.5 64.8333,60.5 65.5,60.5C 66.6715,61.3446 68.0048,62.0113 69.5,62.5C 69.5,63.8333 68.8333,64.5 67.5,64.5C 66.9941,62.8946 66.3274,62.5613 65.5,63.5C 64.5084,63.6716 63.8417,63.3382 63.5,62.5C 63.5,61.8333 63.5,61.1667 63.5,60.5 Z"/></g>
<g><path style="opacity:1" fill="#978623" d="M 76.5,61.5 C 76.8333,62.1667 77.1667,62.8333 77.5,63.5C 76.4937,63.9377 76.4937,64.6043 77.5,65.5C 76.8333,65.5 76.1667,65.5 75.5,65.5C 74.4489,64.7777 73.7822,63.7777 73.5,62.5C 74.209,61.596 75.209,61.2627 76.5,61.5 Z"/></g>
<g><path style="opacity:1" fill="#9d8a34" d="M 84.5,61.5 C 85.5,61.8333 86.1667,62.5 86.5,63.5C 86.5,63.8333 86.5,64.1667 86.5,64.5C 85.1667,64.5 84.5,63.8333 84.5,62.5C 84.5,62.1667 84.5,61.8333 84.5,61.5 Z"/></g>
<g><path style="opacity:1" fill="#897326" d="M 88.5,61.5 C 89.1667,61.8333 89.8333,62.1667 90.5,62.5C 90.0269,63.9063 89.0269,64.573 87.5,64.5C 87.1667,64.5 86.8333,64.5 86.5,64.5C 86.5,64.1667 86.5,63.8333 86.5,63.5C 87.1667,62.8333 87.8333,62.1667 88.5,61.5 Z"/></g>
<g><path style="opacity:0.631" fill="#8d8580" d="M 98.5,61.5 C 102.395,62.4624 106.061,63.7957 109.5,65.5C 108.833,65.5 108.167,65.5 107.5,65.5C 106.833,65.5 106.167,65.5 105.5,65.5C 103.786,64.2616 101.786,63.595 99.5,63.5C 99.1667,62.8333 98.8333,62.1667 98.5,61.5 Z"/></g>
<g><path style="opacity:0.557" fill="#93877a" d="M 14.5,61.5 C 14.1667,62.1667 13.8333,62.8333 13.5,63.5C 12.5987,64.2905 11.9321,65.2905 11.5,66.5C 11.5,67.1667 11.5,67.8333 11.5,68.5C 10.4017,67.3991 10.235,66.0657 11,64.5C 11.4224,62.5743 12.5891,61.5743 14.5,61.5 Z"/></g>
<g><path style="opacity:1" fill="#6a5636" d="M 14.5,61.5 C 16.5,61.5 18.5,61.5 20.5,61.5C 20.5,62.1667 20.1667,62.5 19.5,62.5C 18.1667,62.5 17.5,63.1667 17.5,64.5C 17.1667,64.5 16.8333,64.5 16.5,64.5C 15.209,64.7373 14.209,64.404 13.5,63.5C 13.8333,62.8333 14.1667,62.1667 14.5,61.5 Z"/></g>
<g><path style="opacity:1" fill="#958867" d="M 19.5,62.5 C 19.5,63.1667 19.8333,63.5 20.5,63.5C 20.5,63.8333 20.5,64.1667 20.5,64.5C 19.5,64.5 18.5,64.5 17.5,64.5C 17.5,63.1667 18.1667,62.5 19.5,62.5 Z"/></g>
<g><path style="opacity:1" fill="#4c2f10" d="M 36.5,63.5 C 36.5,62.8333 36.8333,62.5 37.5,62.5C 37.8333,62.5 38.1667,62.5 38.5,62.5C 39.1667,62.5 39.5,62.8333 39.5,63.5C 39.5,64.5 39.5,65.5 39.5,66.5C 39.1667,66.5 38.8333,66.5 38.5,66.5C 38.6716,65.5084 38.3382,64.8417 37.5,64.5C 37.5,63.8333 37.1667,63.5 36.5,63.5 Z"/></g>
<g><path style="opacity:1" fill="#785a16" d="M 51.5,62.5 C 52.1667,62.5 52.8333,62.5 53.5,62.5C 53.5,63.1667 53.8333,63.5 54.5,63.5C 53.8333,64.1667 53.1667,64.8333 52.5,65.5C 52.1667,65.5 51.8333,65.5 51.5,65.5C 51.5,64.5 51.5,63.5 51.5,62.5 Z"/></g>
<g><path style="opacity:1" fill="#a18f25" d="M 59.5,62.5 C 60.8333,63.8333 60.8333,65.1667 59.5,66.5C 58.5,66.5 57.5,66.5 56.5,66.5C 56.5,66.1667 56.5,65.8333 56.5,65.5C 56.5,65.1667 56.5,64.8333 56.5,64.5C 56.8333,64.5 57.1667,64.5 57.5,64.5C 58.1667,63.8333 58.8333,63.1667 59.5,62.5 Z"/></g>
<g><path style="opacity:1" fill="#8c731b" d="M 62.5,62.5 C 62.8333,62.5 63.1667,62.5 63.5,62.5C 63.8417,63.3382 64.5084,63.6716 65.5,63.5C 65.5,64.5 65.5,65.5 65.5,66.5C 65.5,66.8333 65.5,67.1667 65.5,67.5C 63.901,67.7678 62.5676,67.4345 61.5,66.5C 62.675,66.719 63.675,66.3857 64.5,65.5C 64.0431,64.7025 63.3764,64.3691 62.5,64.5C 62.5,63.8333 62.5,63.1667 62.5,62.5 Z"/></g>
<g><path style="opacity:1" fill="#917b2b" d="M 69.5,62.5 C 70.8333,62.5 72.1667,62.5 73.5,62.5C 73.7822,63.7777 74.4489,64.7777 75.5,65.5C 74.2905,65.9321 73.2905,66.5987 72.5,67.5C 72.1667,67.5 71.8333,67.5 71.5,67.5C 71.5,66.8333 71.1667,66.5 70.5,66.5C 69.791,65.596 68.791,65.2627 67.5,65.5C 67.5,65.1667 67.5,64.8333 67.5,64.5C 68.8333,64.5 69.5,63.8333 69.5,62.5 Z"/></g>
<g><path style="opacity:1" fill="#4f3b23" d="M 99.5,63.5 C 101.786,63.595 103.786,64.2616 105.5,65.5C 105.167,65.5 104.833,65.5 104.5,65.5C 103.167,65.5 101.833,65.5 100.5,65.5C 100.167,64.8333 99.8333,64.1667 99.5,63.5 Z"/></g>
<g><path style="opacity:1" fill="#756035" d="M 16.5,64.5 C 16.8333,64.5 17.1667,64.5 17.5,64.5C 18.5,64.5 19.5,64.5 20.5,64.5C 21.8333,64.5 22.5,65.1667 22.5,66.5C 20.8333,65.1667 19.1667,65.1667 17.5,66.5C 17.1667,66.5 16.8333,66.5 16.5,66.5C 16.5,65.8333 16.5,65.1667 16.5,64.5 Z"/></g>
<g><path style="opacity:1" fill="#7f6b31" d="M 24.5,63.5 C 25.1667,63.5 25.8333,63.5 26.5,63.5C 26.8333,63.5 27.1667,63.5 27.5,63.5C 27.8333,63.5 28.1667,63.5 28.5,63.5C 29.1667,63.5 29.8333,63.5 30.5,63.5C 30.5,64.1667 30.1667,64.5 29.5,64.5C 28.2921,65.2341 26.9587,65.5674 25.5,65.5C 25.1667,64.8333 24.8333,64.1667 24.5,63.5 Z"/></g>
<g><path style="opacity:1" fill="#664812" d="M 33.5,63.5 C 34.5,63.5 35.5,63.5 36.5,63.5C 37.1667,63.5 37.5,63.8333 37.5,64.5C 35.3023,64.4088 34.9689,65.0755 36.5,66.5C 35.8333,66.5 35.1667,66.5 34.5,66.5C 34.1583,65.6618 33.4916,65.3284 32.5,65.5C 32.5,65.1667 32.5,64.8333 32.5,64.5C 33.1667,64.5 33.5,64.1667 33.5,63.5 Z"/></g>
<g><path style="opacity:1" fill="#8e7219" d="M 37.5,64.5 C 38.3382,64.8417 38.6716,65.5084 38.5,66.5C 37.8333,66.5 37.1667,66.5 36.5,66.5C 34.9689,65.0755 35.3023,64.4088 37.5,64.5 Z"/></g>
<g><path style="opacity:1" fill="#806116" d="M 39.5,63.5 C 40.1667,63.5 40.8333,63.5 41.5,63.5C 42.5,63.5 43.5,63.5 44.5,63.5C 45.1667,64.5 45.8333,65.5 46.5,66.5C 45.8333,66.5 45.5,66.8333 45.5,67.5C 45.1667,67.5 44.8333,67.5 44.5,67.5C 44.5,67.1667 44.5,66.8333 44.5,66.5C 43.779,64.6182 42.779,64.2848 41.5,65.5C 40.8333,65.5 40.5,65.8333 40.5,66.5C 40.1667,66.5 39.8333,66.5 39.5,66.5C 39.5,65.5 39.5,64.5 39.5,63.5 Z"/></g>
<g><path style="opacity:1" fill="#997f17" d="M 44.5,66.5 C 43.209,66.7373 42.209,66.404 41.5,65.5C 42.779,64.2848 43.779,64.6182 44.5,66.5 Z"/></g>
<g><path style="opacity:1" fill="#8e7319" d="M 44.5,63.5 C 45.609,63.5569 46.609,63.8902 47.5,64.5C 47.5,65.1667 47.5,65.8333 47.5,66.5C 47.1667,66.5 46.8333,66.5 46.5,66.5C 45.8333,65.5 45.1667,64.5 44.5,63.5 Z"/></g>
<g><path style="opacity:1" fill="#947b1f" d="M 48.5,63.5 C 49.5,64.1667 50.5,64.8333 51.5,65.5C 51.5,66.1667 51.1667,66.5 50.5,66.5C 49.5,66.5 48.5,66.5 47.5,66.5C 47.5,65.8333 47.5,65.1667 47.5,64.5C 47.5,63.8333 47.8333,63.5 48.5,63.5 Z"/></g>
<g><path style="opacity:1" fill="#a39147" d="M 54.5,63.5 C 55.4916,63.3284 56.1583,63.6618 56.5,64.5C 56.5,64.8333 56.5,65.1667 56.5,65.5C 55.209,65.2627 54.209,65.596 53.5,66.5C 52.8333,66.5 52.5,66.1667 52.5,65.5C 53.1667,64.8333 53.8333,64.1667 54.5,63.5 Z"/></g>
<g><path style="opacity:1" fill="#7d641d" d="M 59.5,62.5 C 60.1667,62.5 60.8333,62.5 61.5,62.5C 61.8333,62.5 62.1667,62.5 62.5,62.5C 62.5,63.1667 62.5,63.8333 62.5,64.5C 62.1667,65.1667 61.8333,65.8333 61.5,66.5C 60.8333,66.5 60.1667,66.5 59.5,66.5C 60.8333,65.1667 60.8333,63.8333 59.5,62.5 Z"/></g>
<g><path style="opacity:1" fill="#9f8b25" d="M 62.5,64.5 C 63.3764,64.3691 64.0431,64.7025 64.5,65.5C 63.675,66.3857 62.675,66.719 61.5,66.5C 61.8333,65.8333 62.1667,65.1667 62.5,64.5 Z"/></g>
<g><path style="opacity:1" fill="#9a861c" d="M 67.5,64.5 C 67.5,64.8333 67.5,65.1667 67.5,65.5C 66.8333,65.8333 66.1667,66.1667 65.5,66.5C 65.5,65.5 65.5,64.5 65.5,63.5C 66.3274,62.5613 66.9941,62.8946 67.5,64.5 Z"/></g>
<g><path style="opacity:1" fill="#907d30" d="M 77.5,63.5 C 78.8333,63.5 80.1667,63.5 81.5,63.5C 82.1667,63.5 82.8333,63.5 83.5,63.5C 83.5,64.1667 83.5,64.8333 83.5,65.5C 82.5,65.5 81.5,65.5 80.5,65.5C 79.6522,64.375 78.6522,64.375 77.5,65.5C 76.4937,64.6043 76.4937,63.9377 77.5,63.5 Z"/></g>
<g><path style="opacity:1" fill="#786125" d="M 90.5,62.5 C 91.1667,62.5 91.5,62.8333 91.5,63.5C 93.0311,64.9245 92.6977,65.5912 90.5,65.5C 89.5,65.5 88.5,65.5 87.5,65.5C 87.5,65.1667 87.5,64.8333 87.5,64.5C 89.0269,64.573 90.0269,63.9063 90.5,62.5 Z"/></g>
<g><path style="opacity:1" fill="#857028" d="M 94.5,62.5 C 96.0418,63.3007 97.7085,63.634 99.5,63.5C 99.8333,64.1667 100.167,64.8333 100.5,65.5C 99.5084,65.3284 98.8417,65.6618 98.5,66.5C 98.1667,66.5 97.8333,66.5 97.5,66.5C 97.5,65.1667 96.8333,64.5 95.5,64.5C 94.8333,64.5 94.5,64.1667 94.5,63.5C 94.5,63.1667 94.5,62.8333 94.5,62.5 Z"/></g>
<g><path style="opacity:1" fill="#69451c" d="M 13.5,63.5 C 14.209,64.404 15.209,64.7373 16.5,64.5C 16.5,65.1667 16.5,65.8333 16.5,66.5C 15.8333,66.5 15.1667,66.5 14.5,66.5C 13.5,66.5 12.5,66.5 11.5,66.5C 11.9321,65.2905 12.5987,64.2905 13.5,63.5 Z"/></g>
<g><path style="opacity:1" fill="#897634" d="M 22.5,62.5 C 22.8564,64.1898 23.8564,65.1898 25.5,65.5C 24.791,66.404 23.791,66.7373 22.5,66.5C 22.5,65.1667 21.8333,64.5 20.5,64.5C 20.5,64.1667 20.5,63.8333 20.5,63.5C 21.1667,63.1667 21.8333,62.8333 22.5,62.5 Z"/></g>
<g><path style="opacity:1" fill="#9c8933" d="M 29.5,64.5 C 29.5,65.1667 29.5,65.8333 29.5,66.5C 29.5,66.8333 29.5,67.1667 29.5,67.5C 28.8333,67.5 28.1667,67.5 27.5,67.5C 25.8333,67.5 24.1667,67.5 22.5,67.5C 22.5,67.1667 22.5,66.8333 22.5,66.5C 23.791,66.7373 24.791,66.404 25.5,65.5C 26.9587,65.5674 28.2921,65.2341 29.5,64.5 Z"/></g>
<g><path style="opacity:1" fill="#6e551b" d="M 30.5,63.5 C 31.4916,63.3284 32.1583,63.6618 32.5,64.5C 32.5,64.8333 32.5,65.1667 32.5,65.5C 31.391,65.5569 30.391,65.8902 29.5,66.5C 29.5,65.8333 29.5,65.1667 29.5,64.5C 30.1667,64.5 30.5,64.1667 30.5,63.5 Z"/></g>
<g><path style="opacity:1" fill="#8c7832" d="M 53.5,66.5 C 54.209,65.596 55.209,65.2627 56.5,65.5C 56.5,65.8333 56.5,66.1667 56.5,66.5C 56.5,67.1667 56.5,67.8333 56.5,68.5C 56.5,69.1667 56.1667,69.5 55.5,69.5C 55.1667,68.8333 54.8333,68.1667 54.5,67.5C 54.5,66.8333 54.1667,66.5 53.5,66.5 Z"/></g>
<g><path style="opacity:1" fill="#a99a36" d="M 80.5,65.5 C 80.5,65.8333 80.5,66.1667 80.5,66.5C 79.209,66.7373 78.209,66.404 77.5,65.5C 78.6522,64.375 79.6522,64.375 80.5,65.5 Z"/></g>
<g><path style="opacity:1" fill="#98872d" d="M 80.5,66.5 C 80.5,66.1667 80.5,65.8333 80.5,65.5C 81.5,65.5 82.5,65.5 83.5,65.5C 84.391,66.1098 85.391,66.4431 86.5,66.5C 86.5,67.1667 86.8333,67.5 87.5,67.5C 87.5,67.8333 87.5,68.1667 87.5,68.5C 86.0413,68.5674 84.7079,68.2341 83.5,67.5C 82.8333,67.1667 82.1667,66.8333 81.5,66.5C 81.1667,66.5 80.8333,66.5 80.5,66.5 Z"/></g>
<g><path style="opacity:1" fill="#7e691a" d="M 84.5,62.5 C 84.5,63.8333 85.1667,64.5 86.5,64.5C 86.8333,64.5 87.1667,64.5 87.5,64.5C 87.5,64.8333 87.5,65.1667 87.5,65.5C 86.8333,65.5 86.5,65.8333 86.5,66.5C 85.391,66.4431 84.391,66.1098 83.5,65.5C 83.5,64.8333 83.5,64.1667 83.5,63.5C 83.5,62.8333 83.8333,62.5 84.5,62.5 Z"/></g>
<g><path style="opacity:1" fill="#89721c" d="M 87.5,65.5 C 88.5,65.5 89.5,65.5 90.5,65.5C 90.5,66.1667 90.8333,66.5 91.5,66.5C 90.791,67.404 89.791,67.7373 88.5,67.5C 88.1667,67.5 87.8333,67.5 87.5,67.5C 86.8333,67.5 86.5,67.1667 86.5,66.5C 86.5,65.8333 86.8333,65.5 87.5,65.5 Z"/></g>
<g><path style="opacity:1" fill="#938134" d="M 91.5,63.5 C 92.1667,63.5 92.8333,63.5 93.5,63.5C 93.5,64.5 93.5,65.5 93.5,66.5C 93.1667,66.5 92.8333,66.5 92.5,66.5C 92.1667,66.5 91.8333,66.5 91.5,66.5C 90.8333,66.5 90.5,66.1667 90.5,65.5C 92.6977,65.5912 93.0311,64.9245 91.5,63.5 Z"/></g>
<g><path style="opacity:1" fill="#9d8a2a" d="M 93.5,63.5 C 93.8333,63.5 94.1667,63.5 94.5,63.5C 94.5,64.1667 94.8333,64.5 95.5,64.5C 95.5,65.5 95.5,66.5 95.5,67.5C 95.1667,67.5 94.8333,67.5 94.5,67.5C 94.5,66.8333 94.1667,66.5 93.5,66.5C 93.5,65.5 93.5,64.5 93.5,63.5 Z"/></g>
<g><path style="opacity:1" fill="#8a7725" d="M 100.5,65.5 C 101.833,65.5 103.167,65.5 104.5,65.5C 104.5,65.8333 104.5,66.1667 104.5,66.5C 103.596,67.209 103.263,68.209 103.5,69.5C 103.167,69.5 102.833,69.5 102.5,69.5C 102.719,68.325 102.386,67.325 101.5,66.5C 100.893,66.6236 100.56,66.9569 100.5,67.5C 99.8333,67.5 99.1667,67.5 98.5,67.5C 98.5,67.1667 98.5,66.8333 98.5,66.5C 98.8417,65.6618 99.5084,65.3284 100.5,65.5 Z"/></g>
<g><path style="opacity:1" fill="#9e9060" d="M 22.5,66.5 C 22.5,66.8333 22.5,67.1667 22.5,67.5C 21.8333,67.5 21.5,67.8333 21.5,68.5C 21.1667,68.5 20.8333,68.5 20.5,68.5C 20.5,67.8333 20.1667,67.5 19.5,67.5C 18.5084,67.6716 17.8417,67.3382 17.5,66.5C 19.1667,65.1667 20.8333,65.1667 22.5,66.5 Z"/></g>
<g><path style="opacity:1" fill="#988533" d="M 32.5,65.5 C 33.4916,65.3284 34.1583,65.6618 34.5,66.5C 34.1667,66.5 33.8333,66.5 33.5,66.5C 32.2921,67.2341 30.9587,67.5674 29.5,67.5C 29.5,67.1667 29.5,66.8333 29.5,66.5C 30.391,65.8902 31.391,65.5569 32.5,65.5 Z"/></g>
<g><path style="opacity:1" fill="#96853f" d="M 33.5,66.5 C 33.8333,66.5 34.1667,66.5 34.5,66.5C 35.1667,66.5 35.8333,66.5 36.5,66.5C 36.5,66.8333 36.5,67.1667 36.5,67.5C 35.609,68.1098 34.609,68.4431 33.5,68.5C 33.5,67.8333 33.5,67.1667 33.5,66.5 Z"/></g>
<g><path style="opacity:1" fill="#a1904a" d="M 36.5,66.5 C 37.1667,66.5 37.8333,66.5 38.5,66.5C 38.8333,66.5 39.1667,66.5 39.5,66.5C 39.8333,66.5 40.1667,66.5 40.5,66.5C 39.8333,67.1667 39.1667,67.8333 38.5,68.5C 37.5084,68.6716 36.8417,68.3382 36.5,67.5C 36.5,67.1667 36.5,66.8333 36.5,66.5 Z"/></g>
<g><path style="opacity:1" fill="#b9ad5a" d="M 46.5,66.5 C 46.8333,66.5 47.1667,66.5 47.5,66.5C 48.5,66.5 49.5,66.5 50.5,66.5C 50.5,67.5 50.5,68.5 50.5,69.5C 49.8333,69.5 49.1667,69.5 48.5,69.5C 48.2178,68.2223 47.5511,67.2223 46.5,66.5 Z"/></g>
<g><path style="opacity:1" fill="#a18f2d" d="M 51.5,65.5 C 51.8333,65.5 52.1667,65.5 52.5,65.5C 52.5,66.1667 52.8333,66.5 53.5,66.5C 54.1667,66.5 54.5,66.8333 54.5,67.5C 53.1667,67.5 52.5,68.1667 52.5,69.5C 51.8333,69.5 51.1667,69.5 50.5,69.5C 50.5,68.5 50.5,67.5 50.5,66.5C 51.1667,66.5 51.5,66.1667 51.5,65.5 Z"/></g>
<g><path style="opacity:1" fill="#7c6623" d="M 67.5,65.5 C 68.791,65.2627 69.791,65.596 70.5,66.5C 69.1667,66.5 68.5,67.1667 68.5,68.5C 68.1667,68.5 67.8333,68.5 67.5,68.5C 67.5,67.5 67.5,66.5 67.5,65.5 Z"/></g>
<g><path style="opacity:1" fill="#a4974a" d="M 75.5,66.5 C 75.5,66.1667 75.5,65.8333 75.5,65.5C 76.1667,65.5 76.8333,65.5 77.5,65.5C 78.209,66.404 79.209,66.7373 80.5,66.5C 80.8333,66.5 81.1667,66.5 81.5,66.5C 81.5,67.1667 81.1667,67.5 80.5,67.5C 78.7085,67.634 77.0418,67.3007 75.5,66.5 Z"/></g>
<g><path style="opacity:1" fill="#aca265" d="M 95.5,64.5 C 96.8333,64.5 97.5,65.1667 97.5,66.5C 96.596,67.209 96.2627,68.209 96.5,69.5C 95.6618,69.1583 95.3284,68.4916 95.5,67.5C 95.5,66.5 95.5,65.5 95.5,64.5 Z"/></g>
<g><path style="opacity:1" fill="#82692e" d="M 104.5,65.5 C 104.833,65.5 105.167,65.5 105.5,65.5C 106.167,65.5 106.833,65.5 107.5,65.5C 107.167,66.1667 106.833,66.8333 106.5,67.5C 106.167,68.1667 105.833,68.8333 105.5,69.5C 104.596,68.791 104.263,67.791 104.5,66.5C 104.5,66.1667 104.5,65.8333 104.5,65.5 Z"/></g>
<g><path style="opacity:1" fill="#7a623c" d="M 11.5,66.5 C 12.5,66.5 13.5,66.5 14.5,66.5C 14.5,67.1667 14.5,67.8333 14.5,68.5C 13.8333,68.5 13.1667,68.5 12.5,68.5C 12.1667,68.5 11.8333,68.5 11.5,68.5C 11.5,67.8333 11.5,67.1667 11.5,66.5 Z"/></g>
<g><path style="opacity:1" fill="#81692c" d="M 14.5,66.5 C 15.1667,66.5 15.8333,66.5 16.5,66.5C 16.8333,66.5 17.1667,66.5 17.5,66.5C 17.8417,67.3382 18.5084,67.6716 19.5,67.5C 19.1583,68.3382 18.4916,68.6716 17.5,68.5C 16.5,68.5 15.5,68.5 14.5,68.5C 14.5,67.8333 14.5,67.1667 14.5,66.5 Z"/></g>
<g><path style="opacity:1" fill="#b7ac5b" d="M 33.5,66.5 C 33.5,67.1667 33.5,67.8333 33.5,68.5C 32.8333,68.5 32.1667,68.5 31.5,68.5C 30.5,68.5 29.5,68.5 28.5,68.5C 27.8333,68.5 27.5,68.1667 27.5,67.5C 28.1667,67.5 28.8333,67.5 29.5,67.5C 30.9587,67.5674 32.2921,67.2341 33.5,66.5 Z"/></g>
<g><path style="opacity:1" fill="#9e8c34" d="M 41.5,65.5 C 42.209,66.404 43.209,66.7373 44.5,66.5C 44.5,66.8333 44.5,67.1667 44.5,67.5C 44.1667,68.1667 43.8333,68.8333 43.5,69.5C 43.1667,69.5 42.8333,69.5 42.5,69.5C 41.8333,69.5 41.1667,69.5 40.5,69.5C 40.1583,68.6618 39.4916,68.3284 38.5,68.5C 39.1667,67.8333 39.8333,67.1667 40.5,66.5C 40.5,65.8333 40.8333,65.5 41.5,65.5 Z"/></g>
<g><path style="opacity:1" fill="#9d8d44" d="M 46.5,66.5 C 47.5511,67.2223 48.2178,68.2223 48.5,69.5C 48.1667,69.5 47.8333,69.5 47.5,69.5C 46.8333,68.8333 46.1667,68.1667 45.5,67.5C 45.5,66.8333 45.8333,66.5 46.5,66.5 Z"/></g>
<g><path style="opacity:1" fill="#ab9f5a" d="M 56.5,66.5 C 57.5,66.5 58.5,66.5 59.5,66.5C 60.1667,66.5 60.8333,66.5 61.5,66.5C 62.5676,67.4345 63.901,67.7678 65.5,67.5C 65.5,67.8333 65.5,68.1667 65.5,68.5C 63.8333,68.5 62.1667,68.5 60.5,68.5C 59.1667,68.5 57.8333,68.5 56.5,68.5C 56.5,67.8333 56.5,67.1667 56.5,66.5 Z"/></g>
<g><path style="opacity:1" fill="#917e27" d="M 67.5,65.5 C 67.5,66.5 67.5,67.5 67.5,68.5C 67.1667,68.5 66.8333,68.5 66.5,68.5C 66.1667,68.5 65.8333,68.5 65.5,68.5C 65.5,68.1667 65.5,67.8333 65.5,67.5C 65.5,67.1667 65.5,66.8333 65.5,66.5C 66.1667,66.1667 66.8333,65.8333 67.5,65.5 Z"/></g>
<g><path style="opacity:1" fill="#97883a" d="M 70.5,66.5 C 71.1667,66.5 71.5,66.8333 71.5,67.5C 71.1583,68.3382 70.4916,68.6716 69.5,68.5C 69.1667,68.5 68.8333,68.5 68.5,68.5C 68.5,67.1667 69.1667,66.5 70.5,66.5 Z"/></g>
<g><path style="opacity:1" fill="#a4953c" d="M 75.5,65.5 C 75.5,65.8333 75.5,66.1667 75.5,66.5C 75.5,67.1667 75.5,67.8333 75.5,68.5C 74.8333,68.5 74.1667,68.5 73.5,68.5C 72.8333,68.5 72.5,68.1667 72.5,67.5C 73.2905,66.5987 74.2905,65.9321 75.5,65.5 Z"/></g>
<g><path style="opacity:1" fill="#bdb579" d="M 75.5,66.5 C 77.0418,67.3007 78.7085,67.634 80.5,67.5C 80.5,67.8333 80.5,68.1667 80.5,68.5C 79.8333,68.5 79.5,68.8333 79.5,69.5C 78.6043,68.4937 77.9377,68.4937 77.5,69.5C 77.1667,69.5 76.8333,69.5 76.5,69.5C 76.5,68.8333 76.1667,68.5 75.5,68.5C 75.5,67.8333 75.5,67.1667 75.5,66.5 Z"/></g>
<g><path style="opacity:1" fill="#bbb276" d="M 81.5,66.5 C 82.1667,66.8333 82.8333,67.1667 83.5,67.5C 82.8333,68.1667 82.1667,68.8333 81.5,69.5C 80.8333,69.5 80.5,69.1667 80.5,68.5C 80.5,68.1667 80.5,67.8333 80.5,67.5C 81.1667,67.5 81.5,67.1667 81.5,66.5 Z"/></g>
<g><path style="opacity:1" fill="#b0a55a" d="M 83.5,67.5 C 84.7079,68.2341 86.0413,68.5674 87.5,68.5C 85.8333,69.1667 84.1667,69.8333 82.5,70.5C 82.1667,70.5 81.8333,70.5 81.5,70.5C 81.5,70.1667 81.5,69.8333 81.5,69.5C 82.1667,68.8333 82.8333,68.1667 83.5,67.5 Z"/></g>
<g><path style="opacity:1" fill="#c6be76" d="M 92.5,66.5 C 92.8333,66.5 93.1667,66.5 93.5,66.5C 94.1667,66.5 94.5,66.8333 94.5,67.5C 94.5,68.1667 94.5,68.8333 94.5,69.5C 94.1667,69.5 93.8333,69.5 93.5,69.5C 93.1667,69.5 92.8333,69.5 92.5,69.5C 92.5,68.5 92.5,67.5 92.5,66.5 Z"/></g>
<g><path style="opacity:1" fill="#947f24" d="M 97.5,66.5 C 97.8333,66.5 98.1667,66.5 98.5,66.5C 98.5,66.8333 98.5,67.1667 98.5,67.5C 98.1667,68.1667 97.8333,68.8333 97.5,69.5C 97.1667,69.5 96.8333,69.5 96.5,69.5C 96.2627,68.209 96.596,67.209 97.5,66.5 Z"/></g>
<g><path style="opacity:1" fill="#b3a96b" d="M 102.5,69.5 C 101.833,69.5 101.167,69.5 100.5,69.5C 100.5,68.8333 100.5,68.1667 100.5,67.5C 100.56,66.9569 100.893,66.6236 101.5,66.5C 102.386,67.325 102.719,68.325 102.5,69.5 Z"/></g>
<g><path style="opacity:1" fill="#685125" d="M 106.5,67.5 C 107.609,67.5569 108.609,67.8902 109.5,68.5C 109.672,69.4916 109.338,70.1583 108.5,70.5C 107.391,70.4431 106.391,70.1098 105.5,69.5C 105.833,68.8333 106.167,68.1667 106.5,67.5 Z"/></g>
<g><path style="opacity:1" fill="#837552" d="M 107.5,65.5 C 108.167,65.5 108.833,65.5 109.5,65.5C 110.492,65.3284 111.158,65.6618 111.5,66.5C 110.167,66.5 109.5,67.1667 109.5,68.5C 108.609,67.8902 107.609,67.5569 106.5,67.5C 106.833,66.8333 107.167,66.1667 107.5,65.5 Z"/></g>
<g><path style="opacity:1" fill="#a0923e" d="M 20.5,68.5 C 20.8333,68.5 21.1667,68.5 21.5,68.5C 22.8333,68.5 24.1667,68.5 25.5,68.5C 24.713,70.1042 23.3797,70.7709 21.5,70.5C 20.6618,70.1583 20.3284,69.4916 20.5,68.5 Z"/></g>
<g><path style="opacity:1" fill="#cdc790" d="M 21.5,68.5 C 21.5,67.8333 21.8333,67.5 22.5,67.5C 24.1667,67.5 25.8333,67.5 27.5,67.5C 27.5,68.1667 27.8333,68.5 28.5,68.5C 28.5,68.8333 28.5,69.1667 28.5,69.5C 28.5,69.8333 28.5,70.1667 28.5,70.5C 28.1667,70.5 27.8333,70.5 27.5,70.5C 27.1667,69.5 26.5,68.8333 25.5,68.5C 24.1667,68.5 22.8333,68.5 21.5,68.5 Z"/></g>
<g><path style="opacity:1" fill="#d3cd87" d="M 28.5,69.5 C 28.5,69.1667 28.5,68.8333 28.5,68.5C 29.5,68.5 30.5,68.5 31.5,68.5C 31.5,69.1667 31.5,69.8333 31.5,70.5C 30.391,70.4431 29.391,70.1098 28.5,69.5 Z"/></g>
<g><path style="opacity:1" fill="#c5bf85" d="M 36.5,67.5 C 36.8417,68.3382 37.5084,68.6716 38.5,68.5C 39.4916,68.3284 40.1583,68.6618 40.5,69.5C 38.5,69.5 36.5,69.5 34.5,69.5C 33.8333,69.5 33.5,69.1667 33.5,68.5C 34.609,68.4431 35.609,68.1098 36.5,67.5 Z"/></g>
<g><path style="opacity:1" fill="#c2b874" d="M 44.5,67.5 C 44.8333,67.5 45.1667,67.5 45.5,67.5C 46.1667,68.1667 46.8333,68.8333 47.5,69.5C 46.1667,69.5 44.8333,69.5 43.5,69.5C 43.8333,68.8333 44.1667,68.1667 44.5,67.5 Z"/></g>
<g><path style="opacity:1" fill="#bdb571" d="M 54.5,67.5 C 54.8333,68.1667 55.1667,68.8333 55.5,69.5C 55.5,69.8333 55.5,70.1667 55.5,70.5C 55.1667,70.5 54.8333,70.5 54.5,70.5C 54.1583,69.6618 53.4916,69.3284 52.5,69.5C 52.5,68.1667 53.1667,67.5 54.5,67.5 Z"/></g>
<g><path style="opacity:1" fill="#c0b872" d="M 71.5,67.5 C 71.8333,67.5 72.1667,67.5 72.5,67.5C 72.5,68.1667 72.8333,68.5 73.5,68.5C 73.8333,69.1667 74.1667,69.8333 74.5,70.5C 73.5,70.5 72.5,70.5 71.5,70.5C 71.1583,69.6618 70.4916,69.3284 69.5,69.5C 69.5,69.1667 69.5,68.8333 69.5,68.5C 70.4916,68.6716 71.1583,68.3382 71.5,67.5 Z"/></g>
<g><path style="opacity:1" fill="#aa9c4a" d="M 91.5,66.5 C 91.8333,66.5 92.1667,66.5 92.5,66.5C 92.5,67.5 92.5,68.5 92.5,69.5C 91.8333,69.5 91.1667,69.5 90.5,69.5C 89.1667,69.5 88.5,68.8333 88.5,67.5C 89.791,67.7373 90.791,67.404 91.5,66.5 Z"/></g>
<g><path style="opacity:1" fill="#b8ad5a" d="M 98.5,67.5 C 99.1667,67.5 99.8333,67.5 100.5,67.5C 100.5,68.1667 100.5,68.8333 100.5,69.5C 100.158,70.3382 99.4916,70.6716 98.5,70.5C 98.5,69.8333 98.1667,69.5 97.5,69.5C 97.8333,68.8333 98.1667,68.1667 98.5,67.5 Z"/></g>
<g><path style="opacity:1" fill="#897343" d="M 111.5,66.5 C 111.833,66.5 112.167,66.5 112.5,66.5C 113.354,68.035 113.354,69.3684 112.5,70.5C 112.082,69.7784 111.416,69.2784 110.5,69C 111.252,68.3292 111.586,67.4959 111.5,66.5 Z"/></g>
<g><path style="opacity:0.012" fill="#b3a498" d="M 11.5,68.5 C 11.8333,68.5 12.1667,68.5 12.5,68.5C 13.1667,69.5 13.8333,70.5 14.5,71.5C 12.5,71.5 11.5,70.5 11.5,68.5 Z"/></g>
<g><path style="opacity:1" fill="#5b4021" d="M 12.5,68.5 C 13.1667,68.5 13.8333,68.5 14.5,68.5C 15.5,68.5 16.5,68.5 17.5,68.5C 18.1098,69.391 18.4431,70.391 18.5,71.5C 17.1667,71.5 15.8333,71.5 14.5,71.5C 13.8333,70.5 13.1667,69.5 12.5,68.5 Z"/></g>
<g><path style="opacity:1" fill="#dfdc9b" d="M 31.5,68.5 C 32.1667,68.5 32.8333,68.5 33.5,68.5C 33.5,69.1667 33.8333,69.5 34.5,69.5C 34.5,70.1667 34.1667,70.5 33.5,70.5C 33.1667,70.5 32.8333,70.5 32.5,70.5C 32.1667,70.5 31.8333,70.5 31.5,70.5C 31.5,69.8333 31.5,69.1667 31.5,68.5 Z"/></g>
<g><path style="opacity:1" fill="#d3d19f" d="M 34.5,69.5 C 36.5,69.5 38.5,69.5 40.5,69.5C 41.1667,69.5 41.8333,69.5 42.5,69.5C 42.5,69.8333 42.5,70.1667 42.5,70.5C 39.9407,70.1984 37.6074,70.5318 35.5,71.5C 34.5084,71.6716 33.8417,71.3382 33.5,70.5C 34.1667,70.5 34.5,70.1667 34.5,69.5 Z"/></g>
<g><path style="opacity:1" fill="#aaa279" d="M 42.5,70.5 C 42.5,70.1667 42.5,69.8333 42.5,69.5C 42.8333,69.5 43.1667,69.5 43.5,69.5C 44.8333,69.5 46.1667,69.5 47.5,69.5C 47.5,69.8333 47.5,70.1667 47.5,70.5C 47.5,70.8333 47.5,71.1667 47.5,71.5C 46.8333,71.5 46.1667,71.5 45.5,71.5C 44.791,70.596 43.791,70.2627 42.5,70.5 Z"/></g>
<g><path style="opacity:1" fill="#bcb788" d="M 47.5,70.5 C 47.5,70.1667 47.5,69.8333 47.5,69.5C 47.8333,69.5 48.1667,69.5 48.5,69.5C 49.1667,69.5 49.8333,69.5 50.5,69.5C 51.1667,69.5 51.8333,69.5 52.5,69.5C 53.4916,69.3284 54.1583,69.6618 54.5,70.5C 54.5,71.1667 54.1667,71.5 53.5,71.5C 51.5648,70.8505 49.5648,70.5172 47.5,70.5 Z"/></g>
<g><path style="opacity:1" fill="#c0bb87" d="M 56.5,68.5 C 57.8333,68.5 59.1667,68.5 60.5,68.5C 60.5,68.8333 60.5,69.1667 60.5,69.5C 59.209,69.2627 58.209,69.596 57.5,70.5C 56.8333,70.5 56.1667,70.5 55.5,70.5C 55.5,70.1667 55.5,69.8333 55.5,69.5C 56.1667,69.5 56.5,69.1667 56.5,68.5 Z"/></g>
<g><path style="opacity:1" fill="#c3c09a" d="M 57.5,70.5 C 58.209,69.596 59.209,69.2627 60.5,69.5C 60.5,70.1667 60.8333,70.5 61.5,70.5C 61.6716,71.4916 61.3382,72.1583 60.5,72.5C 60.5,71.8333 60.1667,71.5 59.5,71.5C 59.1583,70.6618 58.4916,70.3284 57.5,70.5 Z"/></g>
<g><path style="opacity:1" fill="#a9a173" d="M 60.5,68.5 C 62.1667,68.5 63.8333,68.5 65.5,68.5C 65.8333,68.5 66.1667,68.5 66.5,68.5C 66.5,69.5 66.5,70.5 66.5,71.5C 65.8333,71.1667 65.1667,70.8333 64.5,70.5C 63.8333,69.1667 63.1667,69.1667 62.5,70.5C 62.1667,70.5 61.8333,70.5 61.5,70.5C 60.8333,70.5 60.5,70.1667 60.5,69.5C 60.5,69.1667 60.5,68.8333 60.5,68.5 Z"/></g>
<g><path style="opacity:1" fill="#8f7d36" d="M 66.5,68.5 C 66.8333,68.5 67.1667,68.5 67.5,68.5C 67.8333,68.5 68.1667,68.5 68.5,68.5C 68.8333,68.5 69.1667,68.5 69.5,68.5C 69.5,68.8333 69.5,69.1667 69.5,69.5C 68.6618,69.8417 68.3284,70.5084 68.5,71.5C 68.0623,72.5063 67.3957,72.5063 66.5,71.5C 66.5,70.5 66.5,69.5 66.5,68.5 Z"/></g>
<g><path style="opacity:1" fill="#9f8e4a" d="M 73.5,68.5 C 74.1667,68.5 74.8333,68.5 75.5,68.5C 76.1667,68.5 76.5,68.8333 76.5,69.5C 76.5,70.8333 76.5,72.1667 76.5,73.5C 76.1667,73.5 75.8333,73.5 75.5,73.5C 74.8333,73.5 74.5,73.1667 74.5,72.5C 75.5063,71.6043 75.5063,70.9377 74.5,70.5C 74.1667,69.8333 73.8333,69.1667 73.5,68.5 Z"/></g>
<g><path style="opacity:1" fill="#9d9052" d="M 79.5,69.5 C 79.5,70.1667 79.5,70.8333 79.5,71.5C 79.44,72.0431 79.1067,72.3764 78.5,72.5C 77.6143,71.675 77.281,70.675 77.5,69.5C 77.9377,68.4937 78.6043,68.4937 79.5,69.5 Z"/></g>
<g><path style="opacity:1" fill="#c0b872" d="M 80.5,68.5 C 80.5,69.1667 80.8333,69.5 81.5,69.5C 81.5,69.8333 81.5,70.1667 81.5,70.5C 81.5,70.8333 81.5,71.1667 81.5,71.5C 80.8333,71.5 80.1667,71.5 79.5,71.5C 79.5,70.8333 79.5,70.1667 79.5,69.5C 79.5,68.8333 79.8333,68.5 80.5,68.5 Z"/></g>
<g><path style="opacity:1" fill="#a59759" d="M 104.5,66.5 C 104.263,67.791 104.596,68.791 105.5,69.5C 105.5,70.1667 105.5,70.8333 105.5,71.5C 105.167,71.5 104.833,71.5 104.5,71.5C 104.167,70.8333 103.833,70.1667 103.5,69.5C 103.263,68.209 103.596,67.209 104.5,66.5 Z"/></g>
<g><path style="opacity:1" fill="#6e551b" d="M 19.5,67.5 C 20.1667,67.5 20.5,67.8333 20.5,68.5C 20.3284,69.4916 20.6618,70.1583 21.5,70.5C 20.791,71.404 19.791,71.7373 18.5,71.5C 18.4431,70.391 18.1098,69.391 17.5,68.5C 18.4916,68.6716 19.1583,68.3382 19.5,67.5 Z"/></g>
<g><path style="opacity:0.745" fill="#a4997d" d="M 25.5,68.5 C 26.5,68.8333 27.1667,69.5 27.5,70.5C 23.1373,72.4276 18.804,72.7609 14.5,71.5C 15.8333,71.5 17.1667,71.5 18.5,71.5C 19.791,71.7373 20.791,71.404 21.5,70.5C 23.3797,70.7709 24.713,70.1042 25.5,68.5 Z"/></g>
<g><path style="opacity:1" fill="#847242" d="M 28.5,69.5 C 29.391,70.1098 30.391,70.4431 31.5,70.5C 31.8333,70.5 32.1667,70.5 32.5,70.5C 31.4937,71.3957 31.4937,72.0623 32.5,72.5C 32.5,72.8333 32.5,73.1667 32.5,73.5C 30.368,73.4456 29.0347,72.4456 28.5,70.5C 28.5,70.1667 28.5,69.8333 28.5,69.5 Z"/></g>
<g><path style="opacity:1" fill="#e2e1c0" d="M 35.5,71.5 C 37.6074,70.5318 39.9407,70.1984 42.5,70.5C 43.791,70.2627 44.791,70.596 45.5,71.5C 43.901,71.2322 42.5676,71.5655 41.5,72.5C 40.1667,72.5 38.8333,72.5 37.5,72.5C 37.1583,71.6618 36.4916,71.3284 35.5,71.5 Z"/></g>
<g><path style="opacity:1" fill="#bab68f" d="M 64.5,70.5 C 64.5,71.8333 63.8333,72.5 62.5,72.5C 62.5,71.8333 62.5,71.1667 62.5,70.5C 63.1667,69.1667 63.8333,69.1667 64.5,70.5 Z"/></g>
<g><path style="opacity:1" fill="#bdb584" d="M 69.5,69.5 C 70.4916,69.3284 71.1583,69.6618 71.5,70.5C 71.6716,71.4916 71.3382,72.1583 70.5,72.5C 70.1583,71.6618 69.4916,71.3284 68.5,71.5C 68.3284,70.5084 68.6618,69.8417 69.5,69.5 Z"/></g>
<g><path style="opacity:1" fill="#aea35d" d="M 71.5,70.5 C 72.5,70.5 73.5,70.5 74.5,70.5C 75.5063,70.9377 75.5063,71.6043 74.5,72.5C 73.1667,72.5 72.5,73.1667 72.5,74.5C 72.1583,75.3382 71.4916,75.6716 70.5,75.5C 70.5,74.5 70.5,73.5 70.5,72.5C 71.3382,72.1583 71.6716,71.4916 71.5,70.5 Z"/></g>
<g><path style="opacity:1" fill="#857236" d="M 87.5,67.5 C 87.8333,67.5 88.1667,67.5 88.5,67.5C 88.5,68.8333 89.1667,69.5 90.5,69.5C 90.5,69.8333 90.5,70.1667 90.5,70.5C 88.4524,70.1596 87.4524,70.4929 87.5,71.5C 87.5,72.1667 87.1667,72.5 86.5,72.5C 85.8333,72.1667 85.1667,71.8333 84.5,71.5C 84.1583,70.6618 83.4916,70.3284 82.5,70.5C 84.1667,69.8333 85.8333,69.1667 87.5,68.5C 87.5,68.1667 87.5,67.8333 87.5,67.5 Z"/></g>
<g><path style="opacity:1" fill="#968453" d="M 90.5,70.5 C 90.5,71.1667 90.5,71.8333 90.5,72.5C 90.1667,72.5 89.8333,72.5 89.5,72.5C 89.5,71.8333 89.1667,71.5 88.5,71.5C 88.1667,71.5 87.8333,71.5 87.5,71.5C 87.4524,70.4929 88.4524,70.1596 90.5,70.5 Z"/></g>
<g><path style="opacity:1" fill="#897d52" d="M 90.5,69.5 C 91.1667,69.5 91.8333,69.5 92.5,69.5C 92.8333,69.5 93.1667,69.5 93.5,69.5C 93.4326,70.9587 93.7659,72.2921 94.5,73.5C 93.8333,73.5 93.1667,73.5 92.5,73.5C 92.5912,71.3023 91.9245,70.9689 90.5,72.5C 90.5,71.8333 90.5,71.1667 90.5,70.5C 90.5,70.1667 90.5,69.8333 90.5,69.5 Z"/></g>
<g><path style="opacity:1" fill="#c0b97e" d="M 100.5,69.5 C 101.167,69.5 101.833,69.5 102.5,69.5C 102.833,69.5 103.167,69.5 103.5,69.5C 103.833,70.1667 104.167,70.8333 104.5,71.5C 103.5,72.1667 102.5,72.8333 101.5,73.5C 100.833,73.5 100.5,73.1667 100.5,72.5C 100.158,71.6618 99.4916,71.3284 98.5,71.5C 98.5,71.1667 98.5,70.8333 98.5,70.5C 99.4916,70.6716 100.158,70.3382 100.5,69.5 Z"/></g>
<g><path style="opacity:1" fill="#958236" d="M 105.5,69.5 C 106.391,70.1098 107.391,70.4431 108.5,70.5C 108.5,70.8333 108.5,71.1667 108.5,71.5C 108.062,72.5063 107.396,72.5063 106.5,71.5C 106.167,71.5 105.833,71.5 105.5,71.5C 105.5,70.8333 105.5,70.1667 105.5,69.5 Z"/></g>
<g><path style="opacity:1" fill="#7b601e" d="M 111.5,66.5 C 111.586,67.4959 111.252,68.3292 110.5,69C 111.416,69.2784 112.082,69.7784 112.5,70.5C 111.391,70.5569 110.391,70.8902 109.5,71.5C 109.167,71.5 108.833,71.5 108.5,71.5C 108.5,71.1667 108.5,70.8333 108.5,70.5C 109.338,70.1583 109.672,69.4916 109.5,68.5C 109.5,67.1667 110.167,66.5 111.5,66.5 Z"/></g>
<g><path style="opacity:0.133" fill="#c9c3ac" d="M 112.5,66.5 C 114.953,68.0417 115.62,70.0417 114.5,72.5C 113.833,72.8333 113.167,73.1667 112.5,73.5C 112.5,72.5 112.5,71.5 112.5,70.5C 113.354,69.3684 113.354,68.035 112.5,66.5 Z"/></g>
<g><path style="opacity:1" fill="#978852" d="M 32.5,70.5 C 32.8333,70.5 33.1667,70.5 33.5,70.5C 33.8417,71.3382 34.5084,71.6716 35.5,71.5C 34.791,72.404 33.791,72.7373 32.5,72.5C 31.4937,72.0623 31.4937,71.3957 32.5,70.5 Z"/></g>
<g><path style="opacity:1" fill="#dbdbc8" d="M 45.5,71.5 C 46.1667,71.5 46.8333,71.5 47.5,71.5C 48.791,71.2627 49.791,71.596 50.5,72.5C 48.5853,72.2155 46.9187,72.5489 45.5,73.5C 44.8333,73.5 44.1667,73.5 43.5,73.5C 42.5084,73.6716 41.8417,73.3382 41.5,72.5C 42.5676,71.5655 43.901,71.2322 45.5,71.5 Z"/></g>
<g><path style="opacity:1" fill="#c0c0ac" d="M 47.5,71.5 C 47.5,71.1667 47.5,70.8333 47.5,70.5C 49.5648,70.5172 51.5648,70.8505 53.5,71.5C 53.5,71.8333 53.5,72.1667 53.5,72.5C 52.8333,72.5 52.1667,72.5 51.5,72.5C 51.1667,72.5 50.8333,72.5 50.5,72.5C 49.791,71.596 48.791,71.2627 47.5,71.5 Z"/></g>
<g><path style="opacity:1" fill="#aeab99" d="M 54.5,70.5 C 54.8333,70.5 55.1667,70.5 55.5,70.5C 56.1667,70.5 56.8333,70.5 57.5,70.5C 58.4916,70.3284 59.1583,70.6618 59.5,71.5C 57.6208,72.3414 55.6208,72.6747 53.5,72.5C 53.5,72.1667 53.5,71.8333 53.5,71.5C 54.1667,71.5 54.5,71.1667 54.5,70.5 Z"/></g>
<g><path style="opacity:1" fill="#bcb8a6" d="M 93.5,69.5 C 93.8333,69.5 94.1667,69.5 94.5,69.5C 95.2341,70.7079 95.5674,72.0413 95.5,73.5C 95.1667,73.5 94.8333,73.5 94.5,73.5C 93.7659,72.2921 93.4326,70.9587 93.5,69.5 Z"/></g>
<g><path style="opacity:1" fill="#a0956f" d="M 98.5,71.5 C 99.4916,71.3284 100.158,71.6618 100.5,72.5C 99.5084,72.3284 98.8417,72.6618 98.5,73.5C 95.8133,71.6061 95.8133,70.9394 98.5,71.5 Z"/></g>
<g><path style="opacity:1" fill="#99884c" d="M 112.5,70.5 C 112.5,71.5 112.5,72.5 112.5,73.5C 110.973,73.573 109.973,72.9063 109.5,71.5C 110.391,70.8902 111.391,70.5569 112.5,70.5 Z"/></g>
<g><path style="opacity:1" fill="#aba37c" d="M 35.5,71.5 C 36.4916,71.3284 37.1583,71.6618 37.5,72.5C 36.8333,72.5 36.5,72.8333 36.5,73.5C 35.1667,73.5 33.8333,73.5 32.5,73.5C 32.5,73.1667 32.5,72.8333 32.5,72.5C 33.791,72.7373 34.791,72.404 35.5,71.5 Z"/></g>
<g><path style="opacity:1" fill="#918655" d="M 36.5,73.5 C 36.5,72.8333 36.8333,72.5 37.5,72.5C 38.8333,72.5 40.1667,72.5 41.5,72.5C 41.8417,73.3382 42.5084,73.6716 43.5,73.5C 43.5,73.8333 43.5,74.1667 43.5,74.5C 42.1667,74.5 40.8333,74.5 39.5,74.5C 38.791,73.596 37.791,73.2627 36.5,73.5 Z"/></g>
<g><path style="opacity:1" fill="#e8e8da" d="M 45.5,73.5 C 46.9187,72.5489 48.5853,72.2155 50.5,72.5C 50.8333,72.5 51.1667,72.5 51.5,72.5C 51.5,72.8333 51.5,73.1667 51.5,73.5C 51.5,73.8333 51.5,74.1667 51.5,74.5C 50.8333,74.5 50.1667,74.5 49.5,74.5C 48.791,73.596 47.791,73.2627 46.5,73.5C 46.1667,73.5 45.8333,73.5 45.5,73.5 Z"/></g>
<g><path style="opacity:1" fill="#c8c7b7" d="M 59.5,71.5 C 60.1667,71.5 60.5,71.8333 60.5,72.5C 60.5,72.8333 60.5,73.1667 60.5,73.5C 60.5,73.8333 60.5,74.1667 60.5,74.5C 57.6085,73.5975 54.6085,73.2641 51.5,73.5C 51.5,73.1667 51.5,72.8333 51.5,72.5C 52.1667,72.5 52.8333,72.5 53.5,72.5C 55.6208,72.6747 57.6208,72.3414 59.5,71.5 Z"/></g>
<g><path style="opacity:1" fill="#d8d8c5" d="M 61.5,70.5 C 61.8333,70.5 62.1667,70.5 62.5,70.5C 62.5,71.1667 62.5,71.8333 62.5,72.5C 62.5,72.8333 62.5,73.1667 62.5,73.5C 62.0623,74.5063 61.3957,74.5063 60.5,73.5C 60.5,73.1667 60.5,72.8333 60.5,72.5C 61.3382,72.1583 61.6716,71.4916 61.5,70.5 Z"/></g>
<g><path style="opacity:1" fill="#c6c5ac" d="M 64.5,70.5 C 65.1667,70.8333 65.8333,71.1667 66.5,71.5C 66.5,72.5 66.5,73.5 66.5,74.5C 65.8333,74.1667 65.1667,73.8333 64.5,73.5C 63.8333,73.5 63.1667,73.5 62.5,73.5C 62.5,73.1667 62.5,72.8333 62.5,72.5C 63.8333,72.5 64.5,71.8333 64.5,70.5 Z"/></g>
<g><path style="opacity:1" fill="#c0bb92" d="M 66.5,71.5 C 67.3957,72.5063 68.0623,72.5063 68.5,71.5C 69.4916,71.3284 70.1583,71.6618 70.5,72.5C 70.5,73.5 70.5,74.5 70.5,75.5C 70.1667,75.5 69.8333,75.5 69.5,75.5C 69.631,74.7611 69.4643,74.0944 69,73.5C 68.3292,74.2524 67.4959,74.5858 66.5,74.5C 66.5,73.5 66.5,72.5 66.5,71.5 Z"/></g>
<g><path style="opacity:1" fill="#aba370" d="M 76.5,69.5 C 76.8333,69.5 77.1667,69.5 77.5,69.5C 77.281,70.675 77.6143,71.675 78.5,72.5C 79.1067,72.3764 79.44,72.0431 79.5,71.5C 80.1667,71.5 80.8333,71.5 81.5,71.5C 81.5569,72.609 81.8902,73.609 82.5,74.5C 81.5,74.5 80.5,74.5 79.5,74.5C 78.8333,73.1667 78.1667,73.1667 77.5,74.5C 76.8333,74.5 76.5,74.1667 76.5,73.5C 76.5,72.1667 76.5,70.8333 76.5,69.5 Z"/></g>
<g><path style="opacity:1" fill="#7a6636" d="M 81.5,70.5 C 81.8333,70.5 82.1667,70.5 82.5,70.5C 83.4916,70.3284 84.1583,70.6618 84.5,71.5C 84.7373,72.791 84.404,73.791 83.5,74.5C 83.1667,74.5 82.8333,74.5 82.5,74.5C 81.8902,73.609 81.5569,72.609 81.5,71.5C 81.5,71.1667 81.5,70.8333 81.5,70.5 Z"/></g>
<g><path style="opacity:1" fill="#8a7a48" d="M 94.5,67.5 C 94.8333,67.5 95.1667,67.5 95.5,67.5C 95.3284,68.4916 95.6618,69.1583 96.5,69.5C 96.8333,69.5 97.1667,69.5 97.5,69.5C 98.1667,69.5 98.5,69.8333 98.5,70.5C 98.5,70.8333 98.5,71.1667 98.5,71.5C 95.8133,70.9394 95.8133,71.6061 98.5,73.5C 99.5,73.8333 100.167,74.5 100.5,75.5C 98.4862,75.6085 96.8195,74.9418 95.5,73.5C 95.5674,72.0413 95.2341,70.7079 94.5,69.5C 94.5,68.8333 94.5,68.1667 94.5,67.5 Z"/></g>
<g><path style="opacity:1" fill="#dcdbb5" d="M 104.5,71.5 C 104.833,71.5 105.167,71.5 105.5,71.5C 105.833,71.5 106.167,71.5 106.5,71.5C 106.179,73.0481 105.179,73.7148 103.5,73.5C 102.833,73.5 102.167,73.5 101.5,73.5C 102.5,72.8333 103.5,72.1667 104.5,71.5 Z"/></g>
<g><path style="opacity:0.843" fill="#7b6d5d" d="M 27.5,70.5 C 27.8333,70.5 28.1667,70.5 28.5,70.5C 29.0347,72.4456 30.368,73.4456 32.5,73.5C 33.1667,74.1667 33.8333,74.8333 34.5,75.5C 34.1667,75.5 33.8333,75.5 33.5,75.5C 29.8079,75.6757 27.8079,74.0091 27.5,70.5 Z"/></g>
<g><path style="opacity:1" fill="#857449" d="M 32.5,73.5 C 33.8333,73.5 35.1667,73.5 36.5,73.5C 36.5,74.8333 35.8333,75.5 34.5,75.5C 33.8333,74.8333 33.1667,74.1667 32.5,73.5 Z"/></g>
<g><path style="opacity:1" fill="#cfccaa" d="M 74.5,72.5 C 74.5,73.1667 74.8333,73.5 75.5,73.5C 75.5,73.8333 75.5,74.1667 75.5,74.5C 74.8333,74.8333 74.1667,75.1667 73.5,75.5C 73.5,74.8333 73.1667,74.5 72.5,74.5C 72.5,73.1667 73.1667,72.5 74.5,72.5 Z"/></g>
<g><path style="opacity:1" fill="#a3974a" d="M 79.5,74.5 C 79.5,75.8333 78.8333,76.5 77.5,76.5C 77.5,75.8333 77.5,75.1667 77.5,74.5C 78.1667,73.1667 78.8333,73.1667 79.5,74.5 Z"/></g>
<g><path style="opacity:1" fill="#8c7c55" d="M 84.5,71.5 C 85.1667,71.8333 85.8333,72.1667 86.5,72.5C 86.5,73.5 86.5,74.5 86.5,75.5C 85.5,75.5 84.5,75.5 83.5,75.5C 83.5,75.1667 83.5,74.8333 83.5,74.5C 84.404,73.791 84.7373,72.791 84.5,71.5 Z"/></g>
<g><path style="opacity:1" fill="#745724" d="M 87.5,71.5 C 87.8333,71.5 88.1667,71.5 88.5,71.5C 88.8432,73.4832 88.1765,74.8166 86.5,75.5C 86.5,74.5 86.5,73.5 86.5,72.5C 87.1667,72.5 87.5,72.1667 87.5,71.5 Z"/></g>
<g><path style="opacity:1" fill="#a59c79" d="M 92.5,73.5 C 92.1583,74.3382 91.4916,74.6716 90.5,74.5C 89.6618,74.1583 89.3284,73.4916 89.5,72.5C 89.8333,72.5 90.1667,72.5 90.5,72.5C 91.9245,70.9689 92.5912,71.3023 92.5,73.5 Z"/></g>
<g><path style="opacity:0.961" fill="#bdb89a" d="M 106.5,71.5 C 107.396,72.5063 108.062,72.5063 108.5,71.5C 108.833,71.5 109.167,71.5 109.5,71.5C 109.973,72.9063 110.973,73.573 112.5,73.5C 112.5,73.8333 112.5,74.1667 112.5,74.5C 109.119,74.4595 105.786,74.7929 102.5,75.5C 102.833,74.8333 103.167,74.1667 103.5,73.5C 105.179,73.7148 106.179,73.0481 106.5,71.5 Z"/></g>
<g><path style="opacity:0.21" fill="#dbdbd9" d="M 114.5,72.5 C 115.292,73.9669 115.292,75.3002 114.5,76.5C 113.478,76.1445 112.811,75.4778 112.5,74.5C 112.5,74.1667 112.5,73.8333 112.5,73.5C 113.167,73.1667 113.833,72.8333 114.5,72.5 Z"/></g>
<g><path style="opacity:1" fill="#a39773" d="M 36.5,73.5 C 37.791,73.2627 38.791,73.596 39.5,74.5C 39.5,75.1667 39.5,75.8333 39.5,76.5C 37.2646,76.7947 35.2646,76.4614 33.5,75.5C 33.8333,75.5 34.1667,75.5 34.5,75.5C 35.8333,75.5 36.5,74.8333 36.5,73.5 Z"/></g>
<g><path style="opacity:1" fill="#c0b98c" d="M 39.5,74.5 C 40.8333,74.5 42.1667,74.5 43.5,74.5C 42.8333,75.1667 42.1667,75.8333 41.5,76.5C 41.5,76.8333 41.5,77.1667 41.5,77.5C 40.5084,77.6716 39.8417,77.3382 39.5,76.5C 39.5,75.8333 39.5,75.1667 39.5,74.5 Z"/></g>
<g><path style="opacity:1" fill="#968a5c" d="M 43.5,73.5 C 44.1667,73.5 44.8333,73.5 45.5,73.5C 45.8333,73.5 46.1667,73.5 46.5,73.5C 46.5,74.1667 46.5,74.8333 46.5,75.5C 46.5,75.8333 46.5,76.1667 46.5,76.5C 46.1667,76.5 45.8333,76.5 45.5,76.5C 44.1667,76.5 42.8333,76.5 41.5,76.5C 42.1667,75.8333 42.8333,75.1667 43.5,74.5C 43.5,74.1667 43.5,73.8333 43.5,73.5 Z"/></g>
<g><path style="opacity:1" fill="#b5b094" d="M 46.5,73.5 C 47.791,73.2627 48.791,73.596 49.5,74.5C 48.609,75.1098 47.609,75.4431 46.5,75.5C 46.5,74.8333 46.5,74.1667 46.5,73.5 Z"/></g>
<g><path style="opacity:1" fill="#b1ab85" d="M 49.5,74.5 C 50.1667,74.5 50.8333,74.5 51.5,74.5C 52.4916,74.3284 53.1583,74.6618 53.5,75.5C 52.6618,75.8417 52.3284,76.5084 52.5,77.5C 50.5648,76.8505 48.5648,76.5172 46.5,76.5C 46.5,76.1667 46.5,75.8333 46.5,75.5C 47.609,75.4431 48.609,75.1098 49.5,74.5 Z"/></g>
<g><path style="opacity:1" fill="#e4e4db" d="M 51.5,74.5 C 51.5,74.1667 51.5,73.8333 51.5,73.5C 54.6085,73.2641 57.6085,73.5975 60.5,74.5C 60.5,75.1667 60.8333,75.5 61.5,75.5C 61.5,76.1667 61.1667,76.5 60.5,76.5C 59.8333,76.5 59.1667,76.5 58.5,76.5C 57.8333,76.1667 57.1667,75.8333 56.5,75.5C 55.5,75.5 54.5,75.5 53.5,75.5C 53.1583,74.6618 52.4916,74.3284 51.5,74.5 Z"/></g>
<g><path style="opacity:1" fill="#cacbc0" d="M 60.5,73.5 C 61.3957,74.5063 62.0623,74.5063 62.5,73.5C 63.1667,73.5 63.8333,73.5 64.5,73.5C 64.5,74.1667 64.5,74.8333 64.5,75.5C 63.5,75.5 62.5,75.5 61.5,75.5C 60.8333,75.5 60.5,75.1667 60.5,74.5C 60.5,74.1667 60.5,73.8333 60.5,73.5 Z"/></g>
<g><path style="opacity:1" fill="#d8d9c6" d="M 64.5,73.5 C 65.1667,73.8333 65.8333,74.1667 66.5,74.5C 67.4959,74.5858 68.3292,74.2524 69,73.5C 69.4643,74.0944 69.631,74.7611 69.5,75.5C 68.8333,75.8333 68.1667,76.1667 67.5,76.5C 66.391,76.4431 65.391,76.1098 64.5,75.5C 64.5,74.8333 64.5,74.1667 64.5,73.5 Z"/></g>
<g><path style="opacity:1" fill="#8d7949" d="M 88.5,71.5 C 89.1667,71.5 89.5,71.8333 89.5,72.5C 89.3284,73.4916 89.6618,74.1583 90.5,74.5C 90.5,74.8333 90.5,75.1667 90.5,75.5C 89.609,76.1098 88.609,76.4431 87.5,76.5C 87.1667,76.5 86.8333,76.5 86.5,76.5C 86.5,76.1667 86.5,75.8333 86.5,75.5C 88.1765,74.8166 88.8432,73.4832 88.5,71.5 Z"/></g>
<g><path style="opacity:1" fill="#cccbb1" d="M 92.5,73.5 C 93.1667,73.5 93.8333,73.5 94.5,73.5C 94.8333,73.5 95.1667,73.5 95.5,73.5C 95.5,74.1667 95.1667,74.5 94.5,74.5C 93.5987,75.2905 92.9321,76.2905 92.5,77.5C 92.1667,77.5 91.8333,77.5 91.5,77.5C 91.6716,76.5084 91.3382,75.8417 90.5,75.5C 90.5,75.1667 90.5,74.8333 90.5,74.5C 91.4916,74.6716 92.1583,74.3382 92.5,73.5 Z"/></g>
<g><path style="opacity:0.478" fill="#b6ae91" d="M 98.5,73.5 C 98.8417,72.6618 99.5084,72.3284 100.5,72.5C 100.5,73.1667 100.833,73.5 101.5,73.5C 102.167,73.5 102.833,73.5 103.5,73.5C 103.167,74.1667 102.833,74.8333 102.5,75.5C 101.833,75.5 101.167,75.5 100.5,75.5C 100.167,74.5 99.5,73.8333 98.5,73.5 Z"/></g>
<g><path style="opacity:1" fill="#dcddd4" d="M 61.5,75.5 C 62.5,75.5 63.5,75.5 64.5,75.5C 65.391,76.1098 66.391,76.4431 67.5,76.5C 67.5,76.8333 67.5,77.1667 67.5,77.5C 65.602,76.9035 63.9354,76.9035 62.5,77.5C 61.5084,77.6716 60.8417,77.3382 60.5,76.5C 61.1667,76.5 61.5,76.1667 61.5,75.5 Z"/></g>
<g><path style="opacity:1" fill="#b1ab7a" d="M 72.5,74.5 C 73.1667,74.5 73.5,74.8333 73.5,75.5C 73.5,76.1667 73.5,76.8333 73.5,77.5C 72.8333,77.5 72.1667,77.5 71.5,77.5C 71.1667,76.8333 70.8333,76.1667 70.5,75.5C 71.4916,75.6716 72.1583,75.3382 72.5,74.5 Z"/></g>
<g><path style="opacity:1" fill="#bdb88e" d="M 75.5,73.5 C 75.8333,73.5 76.1667,73.5 76.5,73.5C 76.5,74.1667 76.8333,74.5 77.5,74.5C 77.5,75.1667 77.5,75.8333 77.5,76.5C 77.5,76.8333 77.5,77.1667 77.5,77.5C 77.1667,77.5 76.8333,77.5 76.5,77.5C 75.8902,76.609 75.5569,75.609 75.5,74.5C 75.5,74.1667 75.5,73.8333 75.5,73.5 Z"/></g>
<g><path style="opacity:1" fill="#c2bf9b" d="M 79.5,74.5 C 80.5,74.5 81.5,74.5 82.5,74.5C 82.8333,74.5 83.1667,74.5 83.5,74.5C 83.5,74.8333 83.5,75.1667 83.5,75.5C 82.8333,75.5 82.5,75.8333 82.5,76.5C 81.8826,76.3893 81.3826,76.056 81,75.5C 80.5831,76.756 79.7498,77.4226 78.5,77.5C 78.1667,77.5 77.8333,77.5 77.5,77.5C 77.5,77.1667 77.5,76.8333 77.5,76.5C 78.8333,76.5 79.5,75.8333 79.5,74.5 Z"/></g>
<g><path style="opacity:1" fill="#a99b71" d="M 94.5,74.5 C 94.8333,75.1667 95.1667,75.8333 95.5,76.5C 95.7373,77.791 95.404,78.791 94.5,79.5C 94.1667,79.5 93.8333,79.5 93.5,79.5C 95.0311,78.0755 94.6977,77.4088 92.5,77.5C 92.9321,76.2905 93.5987,75.2905 94.5,74.5 Z"/></g>
<g><path style="opacity:0.886" fill="#b7b297" d="M 95.5,73.5 C 96.8195,74.9418 98.4862,75.6085 100.5,75.5C 99.0998,76.1001 98.0998,77.1001 97.5,78.5C 96.8333,77.8333 96.1667,77.1667 95.5,76.5C 95.1667,75.8333 94.8333,75.1667 94.5,74.5C 95.1667,74.5 95.5,74.1667 95.5,73.5 Z"/></g>
<g><path style="opacity:0.741" fill="#968a70" d="M 41.5,77.5 C 41.5,77.1667 41.5,76.8333 41.5,76.5C 42.8333,76.5 44.1667,76.5 45.5,76.5C 45.5,77.1667 45.5,77.8333 45.5,78.5C 44.1667,78.1667 42.8333,77.8333 41.5,77.5 Z"/></g>
<g><path style="opacity:1" fill="#907c39" d="M 45.5,76.5 C 45.8333,76.5 46.1667,76.5 46.5,76.5C 48.5648,76.5172 50.5648,76.8505 52.5,77.5C 52.8333,78.1667 53.1667,78.8333 53.5,79.5C 51.1944,79.0074 48.861,78.6741 46.5,78.5C 46.1667,78.5 45.8333,78.5 45.5,78.5C 45.5,77.8333 45.5,77.1667 45.5,76.5 Z"/></g>
<g><path style="opacity:1" fill="#a69e74" d="M 53.5,75.5 C 54.5,75.5 55.5,75.5 56.5,75.5C 55.5,76.1667 54.5,76.8333 53.5,77.5C 53.1667,77.5 52.8333,77.5 52.5,77.5C 52.3284,76.5084 52.6618,75.8417 53.5,75.5 Z"/></g>
<g><path style="opacity:1" fill="#b8b48d" d="M 56.5,75.5 C 57.1667,75.8333 57.8333,76.1667 58.5,76.5C 59.287,78.1042 60.6203,78.7709 62.5,78.5C 62.8333,79.1667 63.1667,79.8333 63.5,80.5C 61.8828,79.962 60.2161,79.6287 58.5,79.5C 57.0697,78.4625 55.403,77.7959 53.5,77.5C 54.5,76.8333 55.5,76.1667 56.5,75.5 Z"/></g>
<g><path style="opacity:1" fill="#b0ac97" d="M 58.5,76.5 C 59.1667,76.5 59.8333,76.5 60.5,76.5C 60.8417,77.3382 61.5084,77.6716 62.5,77.5C 62.5,77.8333 62.5,78.1667 62.5,78.5C 60.6203,78.7709 59.287,78.1042 58.5,76.5 Z"/></g>
<g><path style="opacity:1" fill="#c0bfaf" d="M 75.5,74.5 C 75.5569,75.609 75.8902,76.609 76.5,77.5C 75.8333,77.5 75.1667,77.5 74.5,77.5C 74.1667,77.5 73.8333,77.5 73.5,77.5C 73.5,76.8333 73.5,76.1667 73.5,75.5C 74.1667,75.1667 74.8333,74.8333 75.5,74.5 Z"/></g>
<g><path style="opacity:1" fill="#e5e6dd" d="M 67.5,77.5 C 67.5,77.8333 67.5,78.1667 67.5,78.5C 67.5,78.8333 67.5,79.1667 67.5,79.5C 65.8828,78.962 64.2161,78.6287 62.5,78.5C 62.5,78.1667 62.5,77.8333 62.5,77.5C 63.9354,76.9035 65.602,76.9035 67.5,77.5 Z"/></g>
<g><path style="opacity:1" fill="#dcded6" d="M 69.5,75.5 C 69.8333,75.5 70.1667,75.5 70.5,75.5C 70.8333,76.1667 71.1667,76.8333 71.5,77.5C 71.5,78.1667 71.5,78.8333 71.5,79.5C 71.1667,79.5 70.8333,79.5 70.5,79.5C 69.791,78.596 68.791,78.2627 67.5,78.5C 67.5,78.1667 67.5,77.8333 67.5,77.5C 67.5,77.1667 67.5,76.8333 67.5,76.5C 68.1667,76.1667 68.8333,75.8333 69.5,75.5 Z"/></g>
<g><path style="opacity:1" fill="#d2d3c6" d="M 82.5,76.5 C 82.5,76.8333 82.5,77.1667 82.5,77.5C 82.1583,78.3382 81.4916,78.6716 80.5,78.5C 79.5084,78.6716 78.8417,78.3382 78.5,77.5C 79.7498,77.4226 80.5831,76.756 81,75.5C 81.3826,76.056 81.8826,76.3893 82.5,76.5 Z"/></g>
<g><path style="opacity:0.983" fill="#dedfd5" d="M 83.5,75.5 C 84.5,75.5 85.5,75.5 86.5,75.5C 86.5,75.8333 86.5,76.1667 86.5,76.5C 86.719,77.675 86.3857,78.675 85.5,79.5C 84.8933,79.3764 84.56,79.0431 84.5,78.5C 84.1583,77.6618 83.4916,77.3284 82.5,77.5C 82.5,77.1667 82.5,76.8333 82.5,76.5C 82.5,75.8333 82.8333,75.5 83.5,75.5 Z"/></g>
<g><path style="opacity:1" fill="#cecebf" d="M 90.5,75.5 C 90.1667,76.8333 89.8333,78.1667 89.5,79.5C 88.8333,79.5 88.1667,79.5 87.5,79.5C 87.5,78.5 87.5,77.5 87.5,76.5C 88.609,76.4431 89.609,76.1098 90.5,75.5 Z"/></g>
<g><path style="opacity:0.69" fill="#dbdbc6" d="M 90.5,75.5 C 91.3382,75.8417 91.6716,76.5084 91.5,77.5C 91.1667,78.1667 90.8333,78.8333 90.5,79.5C 90.1667,79.5 89.8333,79.5 89.5,79.5C 89.8333,78.1667 90.1667,76.8333 90.5,75.5 Z"/></g>
<g><path style="opacity:1" fill="#b2a759" d="M 52.5,77.5 C 52.8333,77.5 53.1667,77.5 53.5,77.5C 55.403,77.7959 57.0697,78.4625 58.5,79.5C 57.5,79.5 56.5,79.5 55.5,79.5C 54.8333,79.5 54.1667,79.5 53.5,79.5C 53.1667,78.8333 52.8333,78.1667 52.5,77.5 Z"/></g>
<g><path style="opacity:1" fill="#e2e2db" d="M 67.5,78.5 C 68.791,78.2627 69.791,78.596 70.5,79.5C 69.4937,79.9377 69.4937,80.6043 70.5,81.5C 69.1667,81.5 67.8333,81.5 66.5,81.5C 66.8333,80.8333 67.1667,80.1667 67.5,79.5C 67.5,79.1667 67.5,78.8333 67.5,78.5 Z"/></g>
<g><path style="opacity:1" fill="#d0d2c8" d="M 71.5,77.5 C 72.1667,77.5 72.8333,77.5 73.5,77.5C 73.8333,77.5 74.1667,77.5 74.5,77.5C 75.1667,78.1667 75.8333,78.8333 76.5,79.5C 75.5,79.5 74.5,79.5 73.5,79.5C 72.8333,79.5 72.1667,79.5 71.5,79.5C 71.5,78.8333 71.5,78.1667 71.5,77.5 Z"/></g>
<g><path style="opacity:1" fill="#dee0d8" d="M 74.5,77.5 C 75.1667,77.5 75.8333,77.5 76.5,77.5C 76.8333,77.5 77.1667,77.5 77.5,77.5C 77.8333,77.5 78.1667,77.5 78.5,77.5C 78.8417,78.3382 79.5084,78.6716 80.5,78.5C 80.1583,79.3382 79.4916,79.6716 78.5,79.5C 77.8333,79.5 77.1667,79.5 76.5,79.5C 75.8333,78.8333 75.1667,78.1667 74.5,77.5 Z"/></g>
<g><path style="opacity:0.655" fill="#bbb6a2" d="M 91.5,77.5 C 91.8333,77.5 92.1667,77.5 92.5,77.5C 94.6977,77.4088 95.0311,78.0755 93.5,79.5C 93.5,80.1667 93.1667,80.5 92.5,80.5C 91.5084,80.6716 90.8417,80.3382 90.5,79.5C 90.8333,78.8333 91.1667,78.1667 91.5,77.5 Z"/></g>
<g><path style="opacity:0.559" fill="#ccccbe" d="M 95.5,76.5 C 96.1667,77.1667 96.8333,77.8333 97.5,78.5C 96.7368,80.3684 95.7368,82.0351 94.5,83.5C 94.5,82.1667 94.5,80.8333 94.5,79.5C 95.404,78.791 95.7373,77.791 95.5,76.5 Z"/></g>
<g><path style="opacity:0.541" fill="#ac9f83" d="M 46.5,78.5 C 48.861,78.6741 51.1944,79.0074 53.5,79.5C 54.1667,79.5 54.8333,79.5 55.5,79.5C 56.8333,80.1667 58.1667,80.8333 59.5,81.5C 59.1667,81.5 58.8333,81.5 58.5,81.5C 54.1997,81.2453 50.1997,80.2453 46.5,78.5 Z"/></g>
<g><path style="opacity:1" fill="#97883e" d="M 55.5,79.5 C 56.5,79.5 57.5,79.5 58.5,79.5C 60.2161,79.6287 61.8828,79.962 63.5,80.5C 62.4324,81.4345 61.099,81.7678 59.5,81.5C 58.1667,80.8333 56.8333,80.1667 55.5,79.5 Z"/></g>
<g><path style="opacity:1" fill="#b5af95" d="M 62.5,78.5 C 64.2161,78.6287 65.8828,78.962 67.5,79.5C 67.1667,80.1667 66.8333,80.8333 66.5,81.5C 63.6926,82.6567 61.0259,82.6567 58.5,81.5C 58.8333,81.5 59.1667,81.5 59.5,81.5C 61.099,81.7678 62.4324,81.4345 63.5,80.5C 63.1667,79.8333 62.8333,79.1667 62.5,78.5 Z"/></g>
<g><path style="opacity:0.885" fill="#e4e6df" d="M 70.5,79.5 C 70.8333,79.5 71.1667,79.5 71.5,79.5C 72.1667,79.5 72.8333,79.5 73.5,79.5C 73.8333,80.1667 74.1667,80.8333 74.5,81.5C 73.1667,81.5 71.8333,81.5 70.5,81.5C 69.4937,80.6043 69.4937,79.9377 70.5,79.5 Z"/></g>
<g><path style="opacity:0.857" fill="#e2e3dc" d="M 73.5,79.5 C 74.5,79.5 75.5,79.5 76.5,79.5C 77.1667,79.5 77.8333,79.5 78.5,79.5C 79.5,80.1667 80.5,80.8333 81.5,81.5C 79.1667,81.5 76.8333,81.5 74.5,81.5C 74.1667,80.8333 73.8333,80.1667 73.5,79.5 Z"/></g>
<g><path style="opacity:1" fill="#ecede4" d="M 82.5,77.5 C 83.4916,77.3284 84.1583,77.6618 84.5,78.5C 83.5,78.8333 82.8333,79.5 82.5,80.5C 82.5,81.1667 82.1667,81.5 81.5,81.5C 80.5,80.8333 79.5,80.1667 78.5,79.5C 79.4916,79.6716 80.1583,79.3382 80.5,78.5C 81.4916,78.6716 82.1583,78.3382 82.5,77.5 Z"/></g>
<g><path style="opacity:0.831" fill="#e5e7de" d="M 86.5,76.5 C 86.8333,76.5 87.1667,76.5 87.5,76.5C 87.5,77.5 87.5,78.5 87.5,79.5C 86.0813,80.4511 84.4147,80.7845 82.5,80.5C 82.8333,79.5 83.5,78.8333 84.5,78.5C 84.56,79.0431 84.8933,79.3764 85.5,79.5C 86.3857,78.675 86.719,77.675 86.5,76.5 Z"/></g>
<g><path style="opacity:0.533" fill="#a3997c" d="M 93.5,79.5 C 93.8333,79.5 94.1667,79.5 94.5,79.5C 94.5,80.8333 94.5,82.1667 94.5,83.5C 94.44,84.0431 94.1067,84.3764 93.5,84.5C 92.5713,83.3112 92.238,81.9778 92.5,80.5C 93.1667,80.5 93.5,80.1667 93.5,79.5 Z"/></g>
</svg>
