<?xml version="1.0" encoding="UTF-8"?>
<!DOCTYPE svg PUBLIC "-//W3C//DTD SVG 1.1//EN" "http://www.w3.org/Graphics/SVG/1.1/DTD/svg11.dtd">
<svg xmlns="http://www.w3.org/2000/svg" version="1.1" width="128px" height="128px" style="shape-rendering:geometricPrecision; text-rendering:geometricPrecision; image-rendering:optimizeQuality; fill-rule:evenodd; clip-rule:evenodd" xmlns:xlink="http://www.w3.org/1999/xlink">
<g><path style="opacity:1" fill="#ae9060" d="M 53.5,46.5 C 52.2749,46.9689 51.2749,46.3022 50.5,44.5C 51.7701,43.7124 52.7701,42.7124 53.5,41.5C 53.8417,40.6618 54.5084,40.3284 55.5,40.5C 59.285,38.612 63.285,37.2786 67.5,36.5C 74.6605,38.7047 74.8271,40.3714 68,41.5C 67.228,41.3552 66.5613,41.0219 66,40.5C 62.1403,42.3704 57.9736,44.3704 53.5,46.5 Z"/></g>
<g><path style="opacity:1" fill="#6b4d31" d="M 76.5,40.5 C 81.3553,40.9202 86.0219,42.0868 90.5,44C 97.0044,47.6966 103.338,51.5299 109.5,55.5C 107.801,55.3796 106.135,55.0463 104.5,54.5C 101.816,52.8067 99.1492,51.14 96.5,49.5C 95.7095,48.5987 94.7095,47.9321 93.5,47.5C 92.209,47.7373 91.209,47.404 90.5,46.5C 89.0697,45.4625 87.403,44.7959 85.5,44.5C 83.8621,43.8411 82.1955,43.1744 80.5,42.5C 79.5481,44.0453 79.2148,45.712 79.5,47.5C 79.0276,45.4687 78.0276,43.8021 76.5,42.5C 76.5,41.8333 76.5,41.1667 76.5,40.5 Z"/></g>
<g><path style="opacity:1" fill="#6f4f2f" d="M 76.5,40.5 C 76.5,41.1667 76.5,41.8333 76.5,42.5C 76.1667,42.5 75.8333,42.5 75.5,42.5C 71.0794,42.3012 67.4128,43.6345 64.5,46.5C 64.5,47.5 64.5,48.5 64.5,49.5C 63.8386,48.2825 63.1719,46.9492 62.5,45.5C 61.8027,47.3845 60.8027,47.7178 59.5,46.5C 58.7492,47.376 58.2492,48.376 58,49.5C 57.6924,48.6919 57.1924,48.0253 56.5,47.5C 54.2346,49.1274 51.9013,50.4608 49.5,51.5C 48.2905,51.9321 47.2905,52.5987 46.5,53.5C 45.2905,53.9321 44.2905,54.5987 43.5,55.5C 42.8333,55.8333 42.1667,56.1667 41.5,56.5C 41.5,55.5 41.5,54.5 41.5,53.5C 45.8962,51.6426 49.8962,49.3093 53.5,46.5C 57.9736,44.3704 62.1403,42.3704 66,40.5C 66.5613,41.0219 67.228,41.3552 68,41.5C 74.8271,40.3714 74.6605,38.7047 67.5,36.5C 63.285,37.2786 59.285,38.612 55.5,40.5C 62.5612,34.0089 69.5612,34.0089 76.5,40.5 Z"/></g>
<g><path style="opacity:1" fill="#b48c57" d="M 76.5,42.5 C 78.0276,43.8021 79.0276,45.4687 79.5,47.5C 80.2679,46.7375 80.7679,45.7375 81,44.5C 81.4992,49.1548 81.6658,53.8215 81.5,58.5C 80.5084,58.3284 79.8417,58.6618 79.5,59.5C 79.1187,55.8812 78.1187,52.5479 76.5,49.5C 76.5,47.1667 76.5,44.8333 76.5,42.5 Z"/></g>
<g><path style="opacity:1" fill="#9c7148" d="M 75.5,42.5 C 75.8333,42.5 76.1667,42.5 76.5,42.5C 76.5,44.8333 76.5,47.1667 76.5,49.5C 76.1755,56.6866 76.5088,63.6866 77.5,70.5C 77.2172,71.2891 76.7172,71.9558 76,72.5C 75.5017,69.1832 75.335,65.8499 75.5,62.5C 75.5,55.8333 75.5,49.1667 75.5,42.5 Z"/></g>
<g><path style="opacity:1" fill="#6f5537" d="M 48.5,44.5 C 47.1979,46.8218 45.1979,48.1551 42.5,48.5C 44.1475,46.6736 46.1475,45.3403 48.5,44.5 Z"/></g>
<g><path style="opacity:1" fill="#bf975a" d="M 64.5,46.5 C 65.1667,46.8333 65.8333,47.1667 66.5,47.5C 66.0846,51.0461 66.0846,54.7127 66.5,58.5C 67.5,58.5 68.5,58.5 69.5,58.5C 69.3342,63.1785 69.5008,67.8452 70,72.5C 70.3826,71.944 70.8826,71.6107 71.5,71.5C 72.0447,75.1716 72.3781,74.8383 72.5,70.5C 72.8333,70.5 73.1667,70.5 73.5,70.5C 73.7234,72.7781 73.8901,75.1114 74,77.5C 72.9207,75.6063 71.5874,75.273 70,76.5C 69.6655,73.8101 68.4988,73.1435 66.5,74.5C 66.8266,69.7863 66.4933,65.1196 65.5,60.5C 64.7189,61.7287 64.2189,63.062 64,64.5C 63.6667,63.8333 63.3333,63.1667 63,62.5C 62.7679,63.7375 62.2679,64.7375 61.5,65.5C 61.6567,64.1266 61.49,62.7932 61,61.5C 60.6924,62.3081 60.1924,62.9747 59.5,63.5C 58.3414,59.878 58.1747,56.2113 59,52.5C 60.1628,54.2852 60.8295,56.2852 61,58.5C 61.1967,53.8218 62.1967,53.4884 64,57.5C 64.4974,54.854 64.6641,52.1873 64.5,49.5C 64.5,48.5 64.5,47.5 64.5,46.5 Z"/></g>
<g><path style="opacity:1" fill="#c19a5d" d="M 70.5,44.5 C 72.4698,52.7688 73.1364,61.4355 72.5,70.5C 72.3781,74.8383 72.0447,75.1716 71.5,71.5C 70.7151,66.2484 70.2151,60.9151 70,55.5C 68.6166,58.0756 67.7833,57.7423 67.5,54.5C 67.7833,51.2577 68.6166,50.9244 70,53.5C 70.498,50.5184 70.6646,47.5184 70.5,44.5 Z"/></g>
<g><path style="opacity:1" fill="#a68859" d="M 53.5,41.5 C 52.7701,42.7124 51.7701,43.7124 50.5,44.5C 51.2749,46.3022 52.2749,46.9689 53.5,46.5C 49.8962,49.3093 45.8962,51.6426 41.5,53.5C 40.5222,53.189 39.8555,52.5223 39.5,51.5C 40.7701,50.7124 41.7701,49.7124 42.5,48.5C 45.1979,48.1551 47.1979,46.8218 48.5,44.5C 49.6594,42.7497 51.326,41.7497 53.5,41.5 Z"/></g>
<g><path style="opacity:1" fill="#a8804f" d="M 64.5,49.5 C 64.6641,52.1873 64.4974,54.854 64,57.5C 62.1967,53.4884 61.1967,53.8218 61,58.5C 60.8295,56.2852 60.1628,54.2852 59,52.5C 58.1747,56.2113 58.3414,59.878 59.5,63.5C 60.1924,62.9747 60.6924,62.3081 61,61.5C 61.49,62.7932 61.6567,64.1266 61.5,65.5C 61.5654,65.9382 61.3988,66.2716 61,66.5C 60.6924,65.6919 60.1924,65.0253 59.5,64.5C 58.5713,65.6888 58.238,67.0222 58.5,68.5C 57.8354,66.6309 57.1687,64.6309 56.5,62.5C 55.8281,63.9492 55.1614,65.2825 54.5,66.5C 54.6224,61.7682 54.1224,57.1016 53,52.5C 52.7963,57.7806 51.9629,58.2806 50.5,54C 52.0978,52.2739 51.7645,51.4406 49.5,51.5C 51.9013,50.4608 54.2346,49.1274 56.5,47.5C 57.1924,48.0253 57.6924,48.6919 58,49.5C 58.2492,48.376 58.7492,47.376 59.5,46.5C 60.8027,47.7178 61.8027,47.3845 62.5,45.5C 63.1719,46.9492 63.8386,48.2825 64.5,49.5 Z"/></g>
<g><path style="opacity:1" fill="#6e5134" d="M 13.5,53.5 C 11.1944,53.0074 8.86105,52.6741 6.5,52.5C 4.74831,52.4176 3.74831,53.2509 3.5,55C 4.31952,56.8003 4.98619,58.6336 5.5,60.5C 2.92497,58.1547 1.92497,55.1547 2.5,51.5C 5.51838,51.3354 8.51838,51.502 11.5,52C 12.4158,52.2784 13.0825,52.7784 13.5,53.5 Z"/></g>
<g><path style="opacity:1" fill="#b59766" d="M 6.5,52.5 C 8.86105,52.6741 11.1944,53.0074 13.5,53.5C 15.1815,55.0075 17.1815,56.0075 19.5,56.5C 18.4726,58.1942 17.1392,59.5275 15.5,60.5C 12.7294,60.5793 10.0627,60.0793 7.5,59C 11.2259,57.9568 10.8926,57.4568 6.5,57.5C 6.5,55.8333 6.5,54.1667 6.5,52.5 Z"/></g>
<g><path style="opacity:1" fill="#b68e59" d="M 75.5,42.5 C 75.5,49.1667 75.5,55.8333 75.5,62.5C 74.2318,64.9052 73.5651,67.5718 73.5,70.5C 73.1667,70.5 72.8333,70.5 72.5,70.5C 73.1364,61.4355 72.4698,52.7688 70.5,44.5C 69.8365,46.0419 69.1698,47.7086 68.5,49.5C 67.7189,48.2713 67.2189,46.938 67,45.5C 66.5357,46.0944 66.369,46.7611 66.5,47.5C 65.8333,47.1667 65.1667,46.8333 64.5,46.5C 67.4128,43.6345 71.0794,42.3012 75.5,42.5 Z"/></g>
<g><path style="opacity:1" fill="#ae8450" d="M 85.5,44.5 C 87.403,44.7959 89.0697,45.4625 90.5,46.5C 89.3871,47.9464 89.2204,49.6131 90,51.5C 90.3076,50.6919 90.8076,50.0253 91.5,49.5C 92.9053,52.9844 92.7387,56.3177 91,59.5C 90.8142,57.0995 90.3142,54.7662 89.5,52.5C 88.7016,56.7094 88.7016,60.7094 89.5,64.5C 89.3611,65.9191 88.8611,67.2524 88,68.5C 87.6667,63.8333 87.3333,59.1667 87,54.5C 86.5324,60.4619 86.0324,66.1286 85.5,71.5C 84.7474,65.2149 84.2474,58.8815 84,52.5C 83.79,54.0581 83.29,55.3915 82.5,56.5C 82.3345,52.4862 82.5012,48.4862 83,44.5C 84.1937,46.6234 84.8603,48.9568 85,51.5C 85.4966,49.1902 85.6633,46.8568 85.5,44.5 Z"/></g>
<g><path style="opacity:1" fill="#c59a5f" d="M 90.5,46.5 C 91.209,47.404 92.209,47.7373 93.5,47.5C 93.5,52.5 93.5,57.5 93.5,62.5C 92.6829,64.9686 92.1829,67.6353 92,70.5C 90.9808,68.4982 90.1475,66.4982 89.5,64.5C 88.7016,60.7094 88.7016,56.7094 89.5,52.5C 90.3142,54.7662 90.8142,57.0995 91,59.5C 92.7387,56.3177 92.9053,52.9844 91.5,49.5C 90.8076,50.0253 90.3076,50.6919 90,51.5C 89.2204,49.6131 89.3871,47.9464 90.5,46.5 Z"/></g>
<g><path style="opacity:1" fill="#9a7c4a" d="M 96.5,49.5 C 99.1492,51.14 101.816,52.8067 104.5,54.5C 106.135,55.0463 107.801,55.3796 109.5,55.5C 110.492,55.3284 111.158,55.6618 111.5,56.5C 112.141,57.4822 112.807,58.4822 113.5,59.5C 112.398,60.1757 111.398,60.8423 110.5,61.5C 110.5,62.5 110.5,63.5 110.5,64.5C 111.5,64.5 112.5,64.5 113.5,64.5C 114.985,66.9282 116.652,69.2615 118.5,71.5C 118.315,72.5837 117.982,73.5837 117.5,74.5C 117.167,74.5 116.833,74.5 116.5,74.5C 117.214,70.7539 116.047,69.7539 113,71.5C 106.24,68.6139 105.74,69.6139 111.5,74.5C 110.833,74.5 110.5,74.8333 110.5,75.5C 103.88,73.2896 100.38,68.6229 100,61.5C 99.2303,60.4019 98.397,60.4019 97.5,61.5C 97.7031,59.9557 98.3698,58.6223 99.5,57.5C 99.3333,57.1667 99.1667,56.8333 99,56.5C 98.2917,57.3805 97.4584,58.0472 96.5,58.5C 96.5,55.5 96.5,52.5 96.5,49.5 Z"/></g>
<g><path style="opacity:1" fill="#c1985c" d="M 46.5,53.5 C 47.2389,53.369 47.9056,53.5357 48.5,54C 48.4143,57.1133 48.081,60.28 47.5,63.5C 46.7285,61.1378 45.8952,58.8045 45,56.5C 44.3162,57.7839 44.4829,58.9505 45.5,60C 45,60.5 44.5,61 44,61.5C 43.5045,59.5273 43.3379,57.5273 43.5,55.5C 44.2905,54.5987 45.2905,53.9321 46.5,53.5 Z"/></g>
<g><path style="opacity:1" fill="#c69e62" d="M 55.5,50.5 C 56.2891,50.7828 56.9558,51.2828 57.5,52C 56.2117,54.4665 56.2117,56.9665 57.5,59.5C 57.1924,60.3081 56.6924,60.9747 56,61.5C 55.5014,57.8484 55.3347,54.1817 55.5,50.5 Z"/></g>
<g><path style="opacity:1" fill="#c09659" d="M 96.5,49.5 C 96.5,52.5 96.5,55.5 96.5,58.5C 96.3713,60.2161 96.038,61.8828 95.5,63.5C 94.6249,59.1793 94.2915,54.846 94.5,50.5C 94.9569,49.7025 95.6236,49.3691 96.5,49.5 Z"/></g>
<g><path style="opacity:1" fill="#a1784a" d="M 70.5,44.5 C 70.6646,47.5184 70.498,50.5184 70,53.5C 68.6166,50.9244 67.7833,51.2577 67.5,54.5C 67.7833,57.7423 68.6166,58.0756 70,55.5C 70.2151,60.9151 70.7151,66.2484 71.5,71.5C 70.8826,71.6107 70.3826,71.944 70,72.5C 69.5008,67.8452 69.3342,63.1785 69.5,58.5C 68.5,58.5 67.5,58.5 66.5,58.5C 66.0846,54.7127 66.0846,51.0461 66.5,47.5C 66.369,46.7611 66.5357,46.0944 67,45.5C 67.2189,46.938 67.7189,48.2713 68.5,49.5C 69.1698,47.7086 69.8365,46.0419 70.5,44.5 Z"/></g>
<g><path style="opacity:1" fill="#684b30" d="M 42.5,48.5 C 41.7701,49.7124 40.7701,50.7124 39.5,51.5C 39.8555,52.5223 40.5222,53.189 41.5,53.5C 41.5,54.5 41.5,55.5 41.5,56.5C 40.8333,56.5 40.5,56.8333 40.5,57.5C 38.0347,57.767 35.7014,58.4336 33.5,59.5C 32.8333,59.5 32.1667,59.5 31.5,59.5C 30.1779,59.33 29.0113,59.6634 28,60.5C 27.1925,64.0267 27.3592,67.3601 28.5,70.5C 28.5,70.8333 28.5,71.1667 28.5,71.5C 26.7754,67.9162 25.7754,63.9162 25.5,59.5C 23.4823,58.4912 21.4823,57.4912 19.5,56.5C 17.1815,56.0075 15.1815,55.0075 13.5,53.5C 19.1908,55.5912 25.0241,57.2579 31,58.5C 34.3987,58.2084 37.2321,56.8751 39.5,54.5C 36.6854,50.9282 37.6854,48.9282 42.5,48.5 Z"/></g>
<g><path style="opacity:1" fill="#9f754d" d="M 85.5,44.5 C 85.6633,46.8568 85.4966,49.1902 85,51.5C 84.8603,48.9568 84.1937,46.6234 83,44.5C 82.5012,48.4862 82.3345,52.4862 82.5,56.5C 82.4251,61.2572 82.7584,66.0905 83.5,71C 83.1667,71.1667 82.8333,71.3333 82.5,71.5C 81.5078,67.2172 81.1744,62.8839 81.5,58.5C 81.6658,53.8215 81.4992,49.1548 81,44.5C 80.7679,45.7375 80.2679,46.7375 79.5,47.5C 79.2148,45.712 79.5481,44.0453 80.5,42.5C 82.1955,43.1744 83.8621,43.8411 85.5,44.5 Z"/></g>
<g><path style="opacity:1" fill="#987047" d="M 93.5,47.5 C 94.7095,47.9321 95.7095,48.5987 96.5,49.5C 95.6236,49.3691 94.9569,49.7025 94.5,50.5C 94.2915,54.846 94.6249,59.1793 95.5,63.5C 95.5,63.8333 95.5,64.1667 95.5,64.5C 94.8333,64.8333 94.1667,65.1667 93.5,65.5C 93.5,64.5 93.5,63.5 93.5,62.5C 93.5,57.5 93.5,52.5 93.5,47.5 Z"/></g>
<g><path style="opacity:1" fill="#c59c5f" d="M 49.5,51.5 C 51.7645,51.4406 52.0978,52.2739 50.5,54C 51.9629,58.2806 52.7963,57.7806 53,52.5C 54.1224,57.1016 54.6224,61.7682 54.5,66.5C 53.5,66.5 52.5,66.5 51.5,66.5C 51.7989,68.604 51.4656,70.604 50.5,72.5C 49.7025,72.0431 49.3691,71.3764 49.5,70.5C 49.1866,67.7531 49.52,65.0865 50.5,62.5C 51.9501,65.1414 52.6168,64.8081 52.5,61.5C 52.3333,60.5 52.1667,59.5 52,58.5C 51.5814,59.6721 50.9147,60.6721 50,61.5C 49.5017,58.1832 49.335,54.8499 49.5,51.5 Z"/></g>
<g><path style="opacity:1" fill="#a97f4f" d="M 49.5,51.5 C 49.335,54.8499 49.5017,58.1832 50,61.5C 50.9147,60.6721 51.5814,59.6721 52,58.5C 52.1667,59.5 52.3333,60.5 52.5,61.5C 52.6168,64.8081 51.9501,65.1414 50.5,62.5C 49.52,65.0865 49.1866,67.7531 49.5,70.5C 49.1667,70.5 48.8333,70.5 48.5,70.5C 48.7989,68.396 48.4656,66.396 47.5,64.5C 46.7189,65.7287 46.2189,67.062 46,68.5C 45.0266,66.6079 44.3599,64.6079 44,62.5C 43.6667,63.8333 43.3333,65.1667 43,66.5C 43.0704,63.008 42.2371,60.008 40.5,57.5C 40.5,56.8333 40.8333,56.5 41.5,56.5C 42.1667,56.1667 42.8333,55.8333 43.5,55.5C 43.3379,57.5273 43.5045,59.5273 44,61.5C 44.5,61 45,60.5 45.5,60C 44.4829,58.9505 44.3162,57.7839 45,56.5C 45.8952,58.8045 46.7285,61.1378 47.5,63.5C 48.081,60.28 48.4143,57.1133 48.5,54C 47.9056,53.5357 47.2389,53.369 46.5,53.5C 47.2905,52.5987 48.2905,51.9321 49.5,51.5 Z"/></g>
<g><path style="opacity:1" fill="#bf975b" d="M 76.5,49.5 C 78.1187,52.5479 79.1187,55.8812 79.5,59.5C 80.3978,63.7566 80.3978,68.09 79.5,72.5C 78.7724,69.9205 78.2724,67.2538 78,64.5C 77.5045,66.4727 77.3379,68.4727 77.5,70.5C 76.5088,63.6866 76.1755,56.6866 76.5,49.5 Z"/></g>
<g><path style="opacity:1" fill="#7b6140" d="M 111.5,56.5 C 115.363,57.6936 118.363,60.027 120.5,63.5C 118.685,62.3702 116.685,61.7036 114.5,61.5C 114.737,62.791 114.404,63.791 113.5,64.5C 113.082,63.7784 112.416,63.2784 111.5,63C 112.712,61.8932 112.379,61.3932 110.5,61.5C 111.398,60.8423 112.398,60.1757 113.5,59.5C 112.807,58.4822 112.141,57.4822 111.5,56.5 Z"/></g>
<g><path style="opacity:1" fill="#a98151" d="M 31.5,59.5 C 31.6653,63.1817 31.4986,66.8484 31,70.5C 29.8488,62.526 29.0155,62.526 28.5,70.5C 27.3592,67.3601 27.1925,64.0267 28,60.5C 29.0113,59.6634 30.1779,59.33 31.5,59.5 Z"/></g>
<g><path style="opacity:1" fill="#b78e56" d="M 40.5,57.5 C 40.5,62.1667 40.5,66.8333 40.5,71.5C 40.631,72.2389 40.4643,72.9056 40,73.5C 39.8142,71.0995 39.3142,68.7662 38.5,66.5C 37.2309,68.6948 37.2309,70.8615 38.5,73C 36.9562,72.5134 35.2895,72.0134 33.5,71.5C 32.3538,67.3085 32.3538,63.3085 33.5,59.5C 35.7014,58.4336 38.0347,57.767 40.5,57.5 Z"/></g>
<g><path style="opacity:1" fill="#dbbf9a" d="M 110.5,61.5 C 112.379,61.3932 112.712,61.8932 111.5,63C 112.416,63.2784 113.082,63.7784 113.5,64.5C 112.5,64.5 111.5,64.5 110.5,64.5C 110.5,63.5 110.5,62.5 110.5,61.5 Z"/></g>
<g><path style="opacity:1" fill="#bd9458" d="M 58.5,68.5 C 59.6772,70.1026 59.5106,71.436 58,72.5C 57.6667,71.5 57.3333,70.5 57,69.5C 56.1354,71.2251 55.4687,72.8917 55,74.5C 54.8078,72.4233 54.3078,70.4233 53.5,68.5C 53.5769,70.5417 52.9102,72.5417 51.5,74.5C 50.6043,73.4937 49.9377,73.4937 49.5,74.5C 48.2058,70.7771 47.0391,70.7771 46,74.5C 45.6174,73.944 45.1174,73.6107 44.5,73.5C 45.0478,71.4677 46.3812,70.4677 48.5,70.5C 48.8333,70.5 49.1667,70.5 49.5,70.5C 49.3691,71.3764 49.7025,72.0431 50.5,72.5C 51.4656,70.604 51.7989,68.604 51.5,66.5C 52.5,66.5 53.5,66.5 54.5,66.5C 55.1614,65.2825 55.8281,63.9492 56.5,62.5C 57.1687,64.6309 57.8354,66.6309 58.5,68.5 Z"/></g>
<g><path style="opacity:1" fill="#977949" d="M 120.5,63.5 C 121.29,64.7942 122.29,65.9609 123.5,67C 122.833,67.6667 122.167,68.3333 121.5,69C 122.756,69.4169 123.423,70.2502 123.5,71.5C 121.777,73.2181 119.777,74.5514 117.5,75.5C 117.5,75.1667 117.5,74.8333 117.5,74.5C 117.982,73.5837 118.315,72.5837 118.5,71.5C 116.652,69.2615 114.985,66.9282 113.5,64.5C 114.404,63.791 114.737,62.791 114.5,61.5C 116.685,61.7036 118.685,62.3702 120.5,63.5 Z"/></g>
<g><path style="opacity:1" fill="#6b4f2f" d="M 5.5,60.5 C 7.74022,61.5676 9.57355,63.2342 11,65.5C 11.3845,67.1966 11.2178,68.8632 10.5,70.5C 10.1667,70.5 9.83333,70.5 9.5,70.5C 9.59165,66.5933 8.25831,63.2599 5.5,60.5 Z"/></g>
<g><path style="opacity:1" fill="#684e33" d="M 120.5,63.5 C 123.55,64.2418 125.217,66.2418 125.5,69.5C 125.145,70.5223 124.478,71.189 123.5,71.5C 123.423,70.2502 122.756,69.4169 121.5,69C 122.167,68.3333 122.833,67.6667 123.5,67C 122.29,65.9609 121.29,64.7942 120.5,63.5 Z"/></g>
<g><path style="opacity:1" fill="#917249" d="M 19.5,56.5 C 21.4823,57.4912 23.4823,58.4912 25.5,59.5C 25.7754,63.9162 26.7754,67.9162 28.5,71.5C 28.5,72.1667 28.5,72.8333 28.5,73.5C 25.3273,74.0417 22.3273,75.0417 19.5,76.5C 19.0825,75.7784 18.4158,75.2784 17.5,75C 19.7416,73.9926 19.4082,73.1593 16.5,72.5C 15.7611,72.631 15.0944,72.4643 14.5,72C 15.8333,71.6667 17.1667,71.3333 18.5,71C 16.1224,70.0255 16.4557,69.3589 19.5,69C 17.3766,67.8063 15.0432,67.1397 12.5,67C 21.8333,66.3333 21.8333,65.6667 12.5,65C 15.0432,64.8603 17.3766,64.1937 19.5,63C 18.2644,61.9152 16.9311,61.0819 15.5,60.5C 17.1392,59.5275 18.4726,58.1942 19.5,56.5 Z"/></g>
<g><path style="opacity:1" fill="#bc955e" d="M 95.5,64.5 C 96.475,67.0667 97.1417,69.7334 97.5,72.5C 95.1667,72.5 92.8333,72.5 90.5,72.5C 91.6085,71.71 92.9419,71.21 94.5,71C 93.5939,69.3005 93.2606,67.4672 93.5,65.5C 94.1667,65.1667 94.8333,64.8333 95.5,64.5 Z"/></g>
<g><path style="opacity:1" fill="#b49458" d="M 110.5,75.5 C 110.5,76.1667 110.5,76.8333 110.5,77.5C 108.585,77.7845 106.919,77.4511 105.5,76.5C 106.552,76.6495 107.552,76.4828 108.5,76C 103.572,74.0732 100.406,70.5732 99,65.5C 98.5172,66.448 98.3505,67.448 98.5,68.5C 97.5318,66.3926 97.1984,64.0593 97.5,61.5C 98.397,60.4019 99.2303,60.4019 100,61.5C 100.38,68.6229 103.88,73.2896 110.5,75.5 Z"/></g>
<g><path style="opacity:1" fill="#b39562" d="M 6.5,52.5 C 6.5,54.1667 6.5,55.8333 6.5,57.5C 10.8926,57.4568 11.2259,57.9568 7.5,59C 10.0627,60.0793 12.7294,60.5793 15.5,60.5C 16.9311,61.0819 18.2644,61.9152 19.5,63C 17.3766,64.1937 15.0432,64.8603 12.5,65C 21.8333,65.6667 21.8333,66.3333 12.5,67C 15.0432,67.1397 17.3766,67.8063 19.5,69C 16.4557,69.3589 16.1224,70.0255 18.5,71C 17.1667,71.3333 15.8333,71.6667 14.5,72C 15.0944,72.4643 15.7611,72.631 16.5,72.5C 15.7375,73.2679 14.7375,73.7679 13.5,74C 14.5,74.3333 15.5,74.6667 16.5,75C 14.5527,75.9913 12.5527,76.3247 10.5,76C 13.1667,75.3333 13.1667,74.6667 10.5,74C 11.1667,73.6667 11.8333,73.3333 12.5,73C 11.244,72.5831 10.5774,71.7498 10.5,70.5C 11.2178,68.8632 11.3845,67.1966 11,65.5C 9.57355,63.2342 7.74022,61.5676 5.5,60.5C 4.98619,58.6336 4.31952,56.8003 3.5,55C 3.74831,53.2509 4.74831,52.4176 6.5,52.5 Z"/></g>
<g><path style="opacity:1" fill="#c89f62" d="M 66.5,74.5 C 65.8826,74.6107 65.3826,74.944 65,75.5C 64.0147,73.8251 63.1814,72.1585 62.5,70.5C 61.1667,69.8333 59.8333,69.1667 58.5,68.5C 58.238,67.0222 58.5713,65.6888 59.5,64.5C 60.1924,65.0253 60.6924,65.6919 61,66.5C 61.3988,66.2716 61.5654,65.9382 61.5,65.5C 62.2679,64.7375 62.7679,63.7375 63,62.5C 63.3333,63.1667 63.6667,63.8333 64,64.5C 64.2189,63.062 64.7189,61.7287 65.5,60.5C 66.4933,65.1196 66.8266,69.7863 66.5,74.5 Z"/></g>
<g><path style="opacity:1" fill="#d1a967" d="M 85.5,71.5 C 85.5,72.1667 85.8333,72.5 86.5,72.5C 86.5,72.8333 86.5,73.1667 86.5,73.5C 83.9664,73.2591 82.2998,74.2591 81.5,76.5C 78.5189,76.2056 77.8522,74.8722 79.5,72.5C 80.3978,68.09 80.3978,63.7566 79.5,59.5C 79.8417,58.6618 80.5084,58.3284 81.5,58.5C 81.1744,62.8839 81.5078,67.2172 82.5,71.5C 82.8333,71.3333 83.1667,71.1667 83.5,71C 82.7584,66.0905 82.4251,61.2572 82.5,56.5C 83.29,55.3915 83.79,54.0581 84,52.5C 84.2474,58.8815 84.7474,65.2149 85.5,71.5 Z"/></g>
<g><path style="opacity:1" fill="#d4ab69" d="M 89.5,64.5 C 90.1475,66.4982 90.9808,68.4982 92,70.5C 92.1829,67.6353 92.6829,64.9686 93.5,62.5C 93.5,63.5 93.5,64.5 93.5,65.5C 93.2606,67.4672 93.5939,69.3005 94.5,71C 92.9419,71.21 91.6085,71.71 90.5,72.5C 89.8333,72.5 89.1667,72.5 88.5,72.5C 87.8333,72.5 87.1667,72.5 86.5,72.5C 85.8333,72.5 85.5,72.1667 85.5,71.5C 86.0324,66.1286 86.5324,60.4619 87,54.5C 87.3333,59.1667 87.6667,63.8333 88,68.5C 88.8611,67.2524 89.3611,65.9191 89.5,64.5 Z"/></g>
<g><path style="opacity:1" fill="#c5a062" d="M 116.5,74.5 C 114.833,74.5 113.167,74.5 111.5,74.5C 105.74,69.6139 106.24,68.6139 113,71.5C 116.047,69.7539 117.214,70.7539 116.5,74.5 Z"/></g>
<g><path style="opacity:1" fill="#c89e60" d="M 40.5,57.5 C 42.2371,60.008 43.0704,63.008 43,66.5C 43.3333,65.1667 43.6667,63.8333 44,62.5C 44.3599,64.6079 45.0266,66.6079 46,68.5C 46.2189,67.062 46.7189,65.7287 47.5,64.5C 48.4656,66.396 48.7989,68.396 48.5,70.5C 46.3812,70.4677 45.0478,71.4677 44.5,73.5C 42.9382,73.2671 41.6049,72.6005 40.5,71.5C 40.5,66.8333 40.5,62.1667 40.5,57.5 Z"/></g>
<g><path style="opacity:1" fill="#cda261" d="M 58.5,68.5 C 59.8333,69.1667 61.1667,69.8333 62.5,70.5C 62.313,72.5643 61.813,74.5643 61,76.5C 58.9783,75.0091 57.3117,75.3424 56,77.5C 54.5913,76.2189 53.0913,75.2189 51.5,74.5C 52.9102,72.5417 53.5769,70.5417 53.5,68.5C 54.3078,70.4233 54.8078,72.4233 55,74.5C 55.4687,72.8917 56.1354,71.2251 57,69.5C 57.3333,70.5 57.6667,71.5 58,72.5C 59.5106,71.436 59.6772,70.1026 58.5,68.5 Z"/></g>
<g><path style="opacity:1" fill="#795935" d="M 97.5,61.5 C 97.1984,64.0593 97.5318,66.3926 98.5,68.5C 99.063,71.2948 100.396,73.6282 102.5,75.5C 101.662,75.8417 101.328,76.5084 101.5,77.5C 100.685,76.5707 99.8518,75.5707 99,74.5C 98.2917,75.3805 97.4584,76.0472 96.5,76.5C 94.8243,74.1663 92.491,73.1663 89.5,73.5C 88.8333,73.5 88.5,73.1667 88.5,72.5C 89.1667,72.5 89.8333,72.5 90.5,72.5C 92.8333,72.5 95.1667,72.5 97.5,72.5C 97.1417,69.7334 96.475,67.0667 95.5,64.5C 95.5,64.1667 95.5,63.8333 95.5,63.5C 96.038,61.8828 96.3713,60.2161 96.5,58.5C 97.4584,58.0472 98.2917,57.3805 99,56.5C 99.1667,56.8333 99.3333,57.1667 99.5,57.5C 98.3698,58.6223 97.7031,59.9557 97.5,61.5 Z"/></g>
<g><path style="opacity:1" fill="#8d6e46" d="M 89.5,73.5 C 92.491,73.1663 94.8243,74.1663 96.5,76.5C 92.3777,81.2017 88.0443,81.535 83.5,77.5C 85.3664,78.0138 87.1997,78.6805 89,79.5C 91.9265,77.8564 92.0931,75.8564 89.5,73.5 Z"/></g>
<g><path style="opacity:1" fill="#6c5134" d="M 9.5,70.5 C 8.79287,73.7861 8.45954,77.1194 8.5,80.5C 12.2644,79.4519 15.931,78.1185 19.5,76.5C 22.3273,75.0417 25.3273,74.0417 28.5,73.5C 30.1667,74.1667 31.8333,74.8333 33.5,75.5C 25.9033,74.9597 18.9033,76.7931 12.5,81C 10.8659,81.4935 9.19919,81.6602 7.5,81.5C 7.33537,78.4816 7.50204,75.4816 8,72.5C 8.27842,71.5842 8.77842,70.9175 9.5,70.5 Z"/></g>
<g><path style="opacity:1" fill="#d4ab67" d="M 31.5,59.5 C 32.1667,59.5 32.8333,59.5 33.5,59.5C 32.3538,63.3085 32.3538,67.3085 33.5,71.5C 35.2895,72.0134 36.9562,72.5134 38.5,73C 37.2309,70.8615 37.2309,68.6948 38.5,66.5C 39.3142,68.7662 39.8142,71.0995 40,73.5C 40.4643,72.9056 40.631,72.2389 40.5,71.5C 41.6049,72.6005 42.9382,73.2671 44.5,73.5C 45.1174,73.6107 45.6174,73.944 46,74.5C 47.0391,70.7771 48.2058,70.7771 49.5,74.5C 51.129,76.1959 50.7957,77.1959 48.5,77.5C 46.901,77.2322 45.5676,77.5655 44.5,78.5C 40.9756,77.0352 37.309,76.0352 33.5,75.5C 31.8333,74.8333 30.1667,74.1667 28.5,73.5C 28.5,72.8333 28.5,72.1667 28.5,71.5C 28.5,71.1667 28.5,70.8333 28.5,70.5C 29.0155,62.526 29.8488,62.526 31,70.5C 31.4986,66.8484 31.6653,63.1817 31.5,59.5 Z"/></g>
<g><path style="opacity:1" fill="#d7b26f" d="M 105.5,76.5 C 104.391,76.4431 103.391,76.1098 102.5,75.5C 100.396,73.6282 99.063,71.2948 98.5,68.5C 98.3505,67.448 98.5172,66.448 99,65.5C 100.406,70.5732 103.572,74.0732 108.5,76C 107.552,76.4828 106.552,76.6495 105.5,76.5 Z"/></g>
<g><path style="opacity:1" fill="#dcb069" d="M 62.5,70.5 C 63.1814,72.1585 64.0147,73.8251 65,75.5C 65.3826,74.944 65.8826,74.6107 66.5,74.5C 66.7031,76.0443 67.3698,77.3777 68.5,78.5C 68.1373,79.1835 67.8039,79.8501 67.5,80.5C 62.1494,79.9631 56.8161,79.2965 51.5,78.5C 50.209,78.7373 49.209,78.404 48.5,77.5C 50.7957,77.1959 51.129,76.1959 49.5,74.5C 49.9377,73.4937 50.6043,73.4937 51.5,74.5C 53.0913,75.2189 54.5913,76.2189 56,77.5C 57.3117,75.3424 58.9783,75.0091 61,76.5C 61.813,74.5643 62.313,72.5643 62.5,70.5 Z"/></g>
<g><path style="opacity:1" fill="#ad8e5d" d="M 9.5,70.5 C 9.83333,70.5 10.1667,70.5 10.5,70.5C 10.5774,71.7498 11.244,72.5831 12.5,73C 11.8333,73.3333 11.1667,73.6667 10.5,74C 13.1667,74.6667 13.1667,75.3333 10.5,76C 12.5527,76.3247 14.5527,75.9913 16.5,75C 15.5,74.6667 14.5,74.3333 13.5,74C 14.7375,73.7679 15.7375,73.2679 16.5,72.5C 19.4082,73.1593 19.7416,73.9926 17.5,75C 18.4158,75.2784 19.0825,75.7784 19.5,76.5C 15.931,78.1185 12.2644,79.4519 8.5,80.5C 8.45954,77.1194 8.79287,73.7861 9.5,70.5 Z"/></g>
<g><path style="opacity:1" fill="#785631" d="M 86.5,73.5 C 86.9382,73.4346 87.2716,73.6012 87.5,74C 85.0898,74.0572 83.7565,75.2239 83.5,77.5C 82.8333,77.1667 82.1667,76.8333 81.5,76.5C 82.2998,74.2591 83.9664,73.2591 86.5,73.5 Z"/></g>
<g><path style="opacity:1" fill="#ae9162" d="M 86.5,73.5 C 86.5,73.1667 86.5,72.8333 86.5,72.5C 87.1667,72.5 87.8333,72.5 88.5,72.5C 88.5,73.1667 88.8333,73.5 89.5,73.5C 92.0931,75.8564 91.9265,77.8564 89,79.5C 87.1997,78.6805 85.3664,78.0138 83.5,77.5C 83.7565,75.2239 85.0898,74.0572 87.5,74C 87.2716,73.6012 86.9382,73.4346 86.5,73.5 Z"/></g>
<g><path style="opacity:1" fill="#705031" d="M 111.5,74.5 C 113.167,74.5 114.833,74.5 116.5,74.5C 116.833,74.5 117.167,74.5 117.5,74.5C 117.5,74.8333 117.5,75.1667 117.5,75.5C 115.254,76.4552 112.921,77.1218 110.5,77.5C 110.5,76.8333 110.5,76.1667 110.5,75.5C 110.5,74.8333 110.833,74.5 111.5,74.5 Z"/></g>
<g><path style="opacity:0.082" fill="#d1cbc4" d="M 118.5,76.5 C 119.833,77.1667 119.833,77.1667 118.5,76.5 Z"/></g>
<g><path style="opacity:1" fill="#d4ab65" d="M 75.5,62.5 C 75.335,65.8499 75.5017,69.1832 76,72.5C 76.7172,71.9558 77.2172,71.2891 77.5,70.5C 77.3379,68.4727 77.5045,66.4727 78,64.5C 78.2724,67.2538 78.7724,69.9205 79.5,72.5C 77.8522,74.8722 78.5189,76.2056 81.5,76.5C 81.4142,77.4959 81.7476,78.3292 82.5,79C 77.5364,79.9122 72.5364,80.4122 67.5,80.5C 67.8039,79.8501 68.1373,79.1835 68.5,78.5C 67.3698,77.3777 66.7031,76.0443 66.5,74.5C 68.4988,73.1435 69.6655,73.8101 70,76.5C 71.5874,75.273 72.9207,75.6063 74,77.5C 73.8901,75.1114 73.7234,72.7781 73.5,70.5C 73.5651,67.5718 74.2318,64.9052 75.5,62.5 Z"/></g>
<g><path style="opacity:1" fill="#eaca97" d="M 44.5,78.5 C 45.5676,77.5655 46.901,77.2322 48.5,77.5C 49.209,78.404 50.209,78.7373 51.5,78.5C 55.3764,79.9422 59.0431,81.6089 62.5,83.5C 56.2688,82.6449 50.2688,80.9782 44.5,78.5 Z"/></g>
<g><path style="opacity:1" fill="#745739" d="M 33.5,75.5 C 37.309,76.0352 40.9756,77.0352 44.5,78.5C 50.2688,80.9782 56.2688,82.6449 62.5,83.5C 64.9815,84.2583 67.6481,84.2583 70.5,83.5C 73.5,83.5 76.5,83.5 79.5,83.5C 79.7373,84.791 79.404,85.791 78.5,86.5C 76.5516,85.9179 74.2183,85.2513 71.5,84.5C 66.5091,84.1585 65.5091,85.8252 68.5,89.5C 66.4559,88.9688 64.7893,87.8022 63.5,86C 58.1596,84.7827 52.9929,83.2827 48,81.5C 46.3732,81.6251 44.8732,82.1251 43.5,83C 41.2953,85.5402 38.7953,87.7068 36,89.5C 33.2288,85.5296 33.0621,81.5296 35.5,77.5C 34.7573,76.8182 34.0906,76.1515 33.5,75.5 Z"/></g>
<g><path style="opacity:1" fill="#e2bd80" d="M 101.5,77.5 C 101.426,79.4109 100.426,80.5776 98.5,81C 93.1121,83.6306 87.4454,85.1306 81.5,85.5C 81.67,84.1779 81.3366,83.0113 80.5,82C 77.8333,81.3333 75.1667,81.3333 72.5,82C 71.5842,82.2784 70.9175,82.7784 70.5,83.5C 67.6481,84.2583 64.9815,84.2583 62.5,83.5C 59.0431,81.6089 55.3764,79.9422 51.5,78.5C 56.8161,79.2965 62.1494,79.9631 67.5,80.5C 72.5364,80.4122 77.5364,79.9122 82.5,79C 81.7476,78.3292 81.4142,77.4959 81.5,76.5C 82.1667,76.8333 82.8333,77.1667 83.5,77.5C 88.0443,81.535 92.3777,81.2017 96.5,76.5C 97.4584,76.0472 98.2917,75.3805 99,74.5C 99.8518,75.5707 100.685,76.5707 101.5,77.5 Z"/></g>
<g><path style="opacity:1" fill="#ac8d60" d="M 36.5,78.5 C 38.5795,79.0444 40.5795,79.8777 42.5,81C 36.4343,90.2697 34.4343,89.4364 36.5,78.5 Z"/></g>
<g><path style="opacity:1" fill="#6d5032" d="M 102.5,75.5 C 103.391,76.1098 104.391,76.4431 105.5,76.5C 106.919,77.4511 108.585,77.7845 110.5,77.5C 105.468,79.307 100.468,81.4737 95.5,84C 90.6496,85.7315 85.6496,86.7315 80.5,87C 77.1092,91.786 73.1092,92.6194 68.5,89.5C 72.8247,91.5077 76.158,90.5077 78.5,86.5C 79.404,85.791 79.7373,84.791 79.5,83.5C 76.5,83.5 73.5,83.5 70.5,83.5C 70.9175,82.7784 71.5842,82.2784 72.5,82C 75.1667,81.3333 77.8333,81.3333 80.5,82C 81.3366,83.0113 81.67,84.1779 81.5,85.5C 87.4454,85.1306 93.1121,83.6306 98.5,81C 100.426,80.5776 101.426,79.4109 101.5,77.5C 101.328,76.5084 101.662,75.8417 102.5,75.5 Z"/></g>
<g><path style="opacity:1" fill="#ad8f62" d="M 78.5,86.5 C 76.158,90.5077 72.8247,91.5077 68.5,89.5C 65.5091,85.8252 66.5091,84.1585 71.5,84.5C 74.2183,85.2513 76.5516,85.9179 78.5,86.5 Z"/></g>
</svg>
