<?xml version="1.0" encoding="UTF-8"?>
<!DOCTYPE svg PUBLIC "-//W3C//DTD SVG 1.1//EN" "http://www.w3.org/Graphics/SVG/1.1/DTD/svg11.dtd">
<svg xmlns="http://www.w3.org/2000/svg" version="1.1" width="128px" height="128px" style="shape-rendering:geometricPrecision; text-rendering:geometricPrecision; image-rendering:optimizeQuality; fill-rule:evenodd; clip-rule:evenodd" xmlns:xlink="http://www.w3.org/1999/xlink">
<g><path style="opacity:1" fill="#000000" d="M 63.5,35.5 C 68.4373,34.6034 72.4373,36.1034 75.5,40C 80.6573,40.8025 85.6573,42.1359 90.5,44C 102.261,50.2937 113.428,57.4604 124,65.5C 125.864,67.9551 125.698,70.1217 123.5,72C 121.884,72.6152 120.551,73.6152 119.5,75C 111.124,77.0902 103.124,80.0902 95.5,84C 90.6496,85.7315 85.6496,86.7315 80.5,87C 74.6015,93.1177 68.9349,92.7843 63.5,86C 58.1596,84.7827 52.9929,83.2827 48,81.5C 46.3732,81.6251 44.8732,82.1251 43.5,83C 41.2953,85.5402 38.7953,87.7068 36,89.5C 33.2288,85.5296 33.0621,81.5296 35.5,77.5C 34.9747,76.8076 34.3081,76.3076 33.5,76C 25.9002,74.956 18.9002,76.6227 12.5,81C 10.8659,81.4935 9.19919,81.6602 7.5,81.5C 7.18452,76.8321 7.85119,72.3321 9.5,68C 8.18579,64.0092 6.01913,60.5092 3,57.5C 2.50454,55.5273 2.33788,53.5273 2.5,51.5C 9.92722,51.5376 16.9272,53.371 23.5,57C 28.9696,59.3705 34.1363,58.8705 39,55.5C 39.3334,53.9532 38.8334,52.6199 37.5,51.5C 45.5584,45.1395 54.2251,39.8061 63.5,35.5 Z"/></g>
<g><path style="opacity:0.082" fill="#d1cbc4" d="M 118.5,76.5 C 119.833,77.1667 119.833,77.1667 118.5,76.5 Z"/></g>
</svg>
