<?xml version="1.0" encoding="UTF-8"?>
<!DOCTYPE svg PUBLIC "-//W3C//DTD SVG 1.1//EN" "http://www.w3.org/Graphics/SVG/1.1/DTD/svg11.dtd">
<svg xmlns="http://www.w3.org/2000/svg" version="1.1" width="128px" height="128px" style="shape-rendering:geometricPrecision; text-rendering:geometricPrecision; image-rendering:optimizeQuality; fill-rule:evenodd; clip-rule:evenodd" xmlns:xlink="http://www.w3.org/1999/xlink">
<g><path style="opacity:0.412" fill="#2f2e2e" d="M 61.5,26.5 C 61.44,27.0431 61.1067,27.3764 60.5,27.5C 56.9494,25.5628 53.2828,25.2295 49.5,26.5C 50.0253,27.1924 50.6919,27.6924 51.5,28C 48.5184,28.498 45.5184,28.6646 42.5,28.5C 43.9187,27.5489 45.5853,27.2155 47.5,27.5C 47.5,26.5 47.5,25.5 47.5,24.5C 50.2492,24.7261 52.9159,24.3928 55.5,23.5C 57.78,24.1359 59.78,25.1359 61.5,26.5 Z"/></g>
<g><path style="opacity:0.353" fill="#3a3a39" d="M 75.5,28.5 C 78.9116,29.0749 81.9116,30.4082 84.5,32.5C 81.5,31.8333 78.5,31.1667 75.5,30.5C 75.5,29.8333 75.5,29.1667 75.5,28.5 Z"/></g>
<g><path style="opacity:0.012" fill="#353433" d="M 35.5,29.5 C 33.6724,31.1614 31.6724,32.8281 29.5,34.5C 28.5832,33.8728 27.5832,33.5394 26.5,33.5C 29.318,31.9278 32.318,30.5945 35.5,29.5 Z"/></g>
<g><path style="opacity:0.962" fill="#5d5d5c" d="M 61.5,26.5 C 66.2022,27.0042 70.8689,27.6709 75.5,28.5C 75.5,29.1667 75.5,29.8333 75.5,30.5C 73.2181,29.6103 70.8848,29.4436 68.5,30C 70.5922,30.9525 70.9255,32.2859 69.5,34C 67.8008,34.3932 66.3008,33.8932 65,32.5C 64.2352,32.5699 63.7352,32.9033 63.5,33.5C 58.8418,31.7114 54.6751,32.3781 51,35.5C 50.4387,34.9781 49.772,34.6448 49,34.5C 42.9018,35.5915 36.9018,36.9248 31,38.5C 30.6121,37.572 29.9454,36.9054 29,36.5C 24.3522,38.6721 19.8522,41.0055 15.5,43.5C 11.562,46.0985 7.89533,49.0985 4.5,52.5C 4.37201,50.3453 4.87201,48.3453 6,46.5C 8.45362,44.5588 10.287,42.2254 11.5,39.5C 16.1682,36.6658 21.1682,34.6658 26.5,33.5C 27.5832,33.5394 28.5832,33.8728 29.5,34.5C 31.6724,32.8281 33.6724,31.1614 35.5,29.5C 37.7638,28.7814 40.0971,28.448 42.5,28.5C 45.5184,28.6646 48.5184,28.498 51.5,28C 50.6919,27.6924 50.0253,27.1924 49.5,26.5C 53.2828,25.2295 56.9494,25.5628 60.5,27.5C 61.1067,27.3764 61.44,27.0431 61.5,26.5 Z"/></g>
<g><path style="opacity:1" fill="#848382" d="M 75.5,30.5 C 78.5,31.1667 81.5,31.8333 84.5,32.5C 84.8333,32.5 85.1667,32.5 85.5,32.5C 85.7214,33.7348 86.3881,34.7348 87.5,35.5C 87,35.8333 86.5,36.1667 86,36.5C 82.7789,35.4724 79.6123,34.3058 76.5,33C 74.7412,32.2025 73.0745,32.3691 71.5,33.5C 72.5,35.8333 74.1667,37.5 76.5,38.5C 79.4748,39.1393 82.4748,39.6393 85.5,40C 85.9662,41.2988 85.9662,42.7988 85.5,44.5C 82.8822,44.7792 80.3822,45.4459 78,46.5C 76.7758,51.3859 76.1091,56.3859 76,61.5C 74.6152,60.4495 73.6152,59.1161 73,57.5C 72.7537,54.1103 72.2537,50.777 71.5,47.5C 73.1392,46.084 73.9725,44.4174 74,42.5C 71.841,44.9563 71.0077,44.2896 71.5,40.5C 69.8333,40.5 68.1667,40.5 66.5,40.5C 62.5,40.5 58.5,40.5 54.5,40.5C 46.8304,40.778 39.1637,41.1114 31.5,41.5C 39.9774,40.0084 48.644,38.8418 57.5,38C 53.5138,37.5012 49.5138,37.3345 45.5,37.5C 53.6791,36.5735 62.0124,36.4068 70.5,37C 67.8079,36.2567 65.4746,35.09 63.5,33.5C 63.7352,32.9033 64.2352,32.5699 65,32.5C 66.3008,33.8932 67.8008,34.3932 69.5,34C 70.9255,32.2859 70.5922,30.9525 68.5,30C 70.8848,29.4436 73.2181,29.6103 75.5,30.5 Z"/></g>
<g><path style="opacity:1" fill="#a5a5a5" d="M 45.5,37.5 C 49.5138,37.3345 53.5138,37.5012 57.5,38C 48.644,38.8418 39.9774,40.0084 31.5,41.5C 29.1432,41.6633 26.8098,41.4966 24.5,41C 31.4404,39.2305 38.4404,38.0638 45.5,37.5 Z"/></g>
<g><path style="opacity:1" fill="#797978" d="M 63.5,33.5 C 65.4746,35.09 67.8079,36.2567 70.5,37C 62.0124,36.4068 53.6791,36.5735 45.5,37.5C 38.4404,38.0638 31.4404,39.2305 24.5,41C 26.8098,41.4966 29.1432,41.6633 31.5,41.5C 39.1637,41.1114 46.8304,40.778 54.5,40.5C 55.5676,41.4345 56.901,41.7678 58.5,41.5C 59.0577,42.7899 60.0577,43.6232 61.5,44C 57.5858,46.0607 53.9192,45.5607 50.5,42.5C 46.0007,43.2449 41.6674,44.4115 37.5,46C 39.1667,46.3333 40.8333,46.6667 42.5,47C 40.0481,47.2895 37.7148,47.9562 35.5,49C 32.1667,48.6667 28.8333,48.3333 25.5,48C 25.1667,48.3333 24.8333,48.6667 24.5,49C 29.6245,50.1487 29.4579,51.3154 24,52.5C 21.9534,51.3906 19.7867,50.7239 17.5,50.5C 17.6495,49.448 17.4828,48.448 17,47.5C 14.0568,49.0521 11.2235,50.7188 8.5,52.5C 10.4273,49.2327 12.7606,46.2327 15.5,43.5C 19.8522,41.0055 24.3522,38.6721 29,36.5C 29.9454,36.9054 30.6121,37.572 31,38.5C 36.9018,36.9248 42.9018,35.5915 49,34.5C 49.772,34.6448 50.4387,34.9781 51,35.5C 54.6751,32.3781 58.8418,31.7114 63.5,33.5 Z"/></g>
<g><path style="opacity:1" fill="#838382" d="M 58.5,41.5 C 64.8923,41.7481 66.059,43.7481 62,47.5C 61.5172,48.448 61.3505,49.448 61.5,50.5C 56.5192,49.6684 51.5192,49.5017 46.5,50C 44.771,51.7889 44.1043,53.9556 44.5,56.5C 34.3787,54.8061 24.3787,55.3061 14.5,58C 13.1772,58.8159 12.5106,59.9826 12.5,61.5C 11.5041,61.5858 10.6708,61.2524 10,60.5C 9.71039,58.9559 9.04373,57.6226 8,56.5C 7.42094,55.0715 7.58761,53.7382 8.5,52.5C 11.2235,50.7188 14.0568,49.0521 17,47.5C 17.4828,48.448 17.6495,49.448 17.5,50.5C 19.7867,50.7239 21.9534,51.3906 24,52.5C 29.4579,51.3154 29.6245,50.1487 24.5,49C 24.8333,48.6667 25.1667,48.3333 25.5,48C 28.8333,48.3333 32.1667,48.6667 35.5,49C 37.7148,47.9562 40.0481,47.2895 42.5,47C 40.8333,46.6667 39.1667,46.3333 37.5,46C 41.6674,44.4115 46.0007,43.2449 50.5,42.5C 53.9192,45.5607 57.5858,46.0607 61.5,44C 60.0577,43.6232 59.0577,42.7899 58.5,41.5 Z"/></g>
<g><path style="opacity:1" fill="#878787" d="M 93.5,42.5 C 98.311,44.4423 102.811,47.109 107,50.5C 107.423,49.0439 108.256,48.5439 109.5,49C 111.301,51.0643 113.301,52.8977 115.5,54.5C 115.782,55.7777 116.449,56.7777 117.5,57.5C 116.737,58.2679 115.737,58.7679 114.5,59C 115.731,60.1827 115.731,61.3493 114.5,62.5C 112.358,63.6005 110.192,64.6005 108,65.5C 107.612,64.572 106.945,63.9054 106,63.5C 103.6,64.0441 101.267,64.7108 99,65.5C 99.0833,62.8806 99.25,60.214 99.5,57.5C 94.7863,57.2008 93.1196,59.2008 94.5,63.5C 93.8075,64.5178 93.1408,65.5178 92.5,66.5C 90.6233,66.9003 89.1233,67.9003 88,69.5C 86.7387,69.2409 85.7387,68.5742 85,67.5C 82.5545,62.3268 82.0545,56.9934 83.5,51.5C 82.1667,50.8333 80.8333,50.1667 79.5,49.5C 82.1071,48.6816 84.7737,48.1816 87.5,48C 87.5,46 87.5,44 87.5,42C 89.4884,41.8195 91.4884,41.9862 93.5,42.5 Z"/></g>
<g><path style="opacity:0.964" fill="#565655" d="M 94.5,37.5 C 100.064,40.3842 105.398,43.7176 110.5,47.5C 112.605,49.5916 114.272,51.9249 115.5,54.5C 113.301,52.8977 111.301,51.0643 109.5,49C 108.256,48.5439 107.423,49.0439 107,50.5C 102.811,47.109 98.311,44.4423 93.5,42.5C 92.537,41.6365 92.537,40.9698 93.5,40.5C 94.7678,41.4279 96.1011,41.5946 97.5,41C 95.5743,40.5776 94.5743,39.4109 94.5,37.5 Z"/></g>
<g><path style="opacity:1" fill="#666561" d="M 54.5,40.5 C 58.5,40.5 62.5,40.5 66.5,40.5C 67.5676,41.4345 68.901,41.7678 70.5,41.5C 71.1258,45.3754 69.4592,47.2087 65.5,47C 63.0663,50.0395 62.8997,53.2062 65,56.5C 65.7822,53.9242 67.2822,51.9242 69.5,50.5C 69.8333,51.1667 70.1667,51.8333 70.5,52.5C 67.5312,56.2925 68.1979,59.2925 72.5,61.5C 73.4287,62.6888 73.762,64.0222 73.5,65.5C 67.5219,64.5018 61.5219,63.5018 55.5,62.5C 57.9686,61.6829 60.6353,61.1829 63.5,61C 61.4982,58.4056 59.9982,55.5722 59,52.5C 57.2942,53.3079 56.4609,54.6412 56.5,56.5C 53.1262,56.6744 49.7928,57.1744 46.5,58C 48.0153,59.7258 49.6819,61.2258 51.5,62.5C 49.6253,63.4095 48.292,64.7428 47.5,66.5C 47.1667,66.5 46.8333,66.5 46.5,66.5C 43.8333,66.1667 41.1667,65.8333 38.5,65.5C 38.7492,62.2556 40.4159,60.2556 43.5,59.5C 45.7957,59.1959 46.129,58.1959 44.5,56.5C 44.1043,53.9556 44.771,51.7889 46.5,50C 51.5192,49.5017 56.5192,49.6684 61.5,50.5C 61.3505,49.448 61.5172,48.448 62,47.5C 66.059,43.7481 64.8923,41.7481 58.5,41.5C 56.901,41.7678 55.5676,41.4345 54.5,40.5 Z"/></g>
<g><path style="opacity:1" fill="#a59a76" d="M 44.5,56.5 C 46.129,58.1959 45.7957,59.1959 43.5,59.5C 42.391,59.4431 41.391,59.1098 40.5,58.5C 30.894,56.8783 21.5607,57.8783 12.5,61.5C 12.5106,59.9826 13.1772,58.8159 14.5,58C 24.3787,55.3061 34.3787,54.8061 44.5,56.5 Z"/></g>
<g><path style="opacity:1" fill="#4d4b46" d="M 55.5,62.5 C 57.5061,63.4851 59.1727,64.8184 60.5,66.5C 58.095,66.1336 55.7617,65.4669 53.5,64.5C 51.484,65.1776 49.484,65.8443 47.5,66.5C 48.292,64.7428 49.6253,63.4095 51.5,62.5C 49.6819,61.2258 48.0153,59.7258 46.5,58C 49.7928,57.1744 53.1262,56.6744 56.5,56.5C 56.4609,54.6412 57.2942,53.3079 59,52.5C 59.9982,55.5722 61.4982,58.4056 63.5,61C 60.6353,61.1829 57.9686,61.6829 55.5,62.5 Z"/></g>
<g><path style="opacity:1" fill="#767574" d="M 85.5,32.5 C 88.6612,33.9131 91.6612,35.5797 94.5,37.5C 94.5743,39.4109 95.5743,40.5776 97.5,41C 96.1011,41.5946 94.7678,41.4279 93.5,40.5C 92.537,40.9698 92.537,41.6365 93.5,42.5C 91.4884,41.9862 89.4884,41.8195 87.5,42C 87.5,44 87.5,46 87.5,48C 84.7737,48.1816 82.1071,48.6816 79.5,49.5C 80.8333,50.1667 82.1667,50.8333 83.5,51.5C 82.0545,56.9934 82.5545,62.3268 85,67.5C 85.7387,68.5742 86.7387,69.2409 88,69.5C 89.1233,67.9003 90.6233,66.9003 92.5,66.5C 91.375,67.6522 91.375,68.6522 92.5,69.5C 90.0521,70.4731 87.3854,70.8064 84.5,70.5C 80.7925,68.9554 77.1258,67.2887 73.5,65.5C 73.762,64.0222 73.4287,62.6888 72.5,61.5C 68.1979,59.2925 67.5312,56.2925 70.5,52.5C 70.1667,51.8333 69.8333,51.1667 69.5,50.5C 67.2822,51.9242 65.7822,53.9242 65,56.5C 62.8997,53.2062 63.0663,50.0395 65.5,47C 69.4592,47.2087 71.1258,45.3754 70.5,41.5C 68.901,41.7678 67.5676,41.4345 66.5,40.5C 68.1667,40.5 69.8333,40.5 71.5,40.5C 71.0077,44.2896 71.841,44.9563 74,42.5C 73.9725,44.4174 73.1392,46.084 71.5,47.5C 72.2537,50.777 72.7537,54.1103 73,57.5C 73.6152,59.1161 74.6152,60.4495 76,61.5C 76.1091,56.3859 76.7758,51.3859 78,46.5C 80.3822,45.4459 82.8822,44.7792 85.5,44.5C 85.9662,42.7988 85.9662,41.2988 85.5,40C 82.4748,39.6393 79.4748,39.1393 76.5,38.5C 74.1667,37.5 72.5,35.8333 71.5,33.5C 73.0745,32.3691 74.7412,32.2025 76.5,33C 79.6123,34.3058 82.7789,35.4724 86,36.5C 86.5,36.1667 87,35.8333 87.5,35.5C 86.3881,34.7348 85.7214,33.7348 85.5,32.5 Z"/></g>
<g><path style="opacity:0.991" fill="#515150" d="M 40.5,58.5 C 41.391,59.1098 42.391,59.4431 43.5,59.5C 40.4159,60.2556 38.7492,62.2556 38.5,65.5C 41.1667,65.8333 43.8333,66.1667 46.5,66.5C 43.6965,67.6378 40.6965,67.8045 37.5,67C 36.9221,65.583 35.9221,64.7496 34.5,64.5C 34.44,63.9569 34.1067,63.6236 33.5,63.5C 30.2066,64.801 27.2066,66.4677 24.5,68.5C 23.596,67.791 23.2627,66.791 23.5,65.5C 22.5,65.5 21.5,65.5 20.5,65.5C 20.3433,64.1266 20.51,62.7932 21,61.5C 21.3076,62.3081 21.8076,62.9747 22.5,63.5C 23.4478,60.285 24.7811,59.9516 26.5,62.5C 27.2508,61.624 27.7508,60.624 28,59.5C 28.4935,61.1341 28.6602,62.8008 28.5,64.5C 32.7412,63.6836 36.7412,61.6836 40.5,58.5 Z"/></g>
<g><path style="opacity:1" fill="#696865" d="M 117.5,57.5 C 118.708,58.2341 120.041,58.5674 121.5,58.5C 121.5,59.8333 121.5,61.1667 121.5,62.5C 118.848,62.4095 116.515,63.0762 114.5,64.5C 111.167,65.5 107.833,66.5 104.5,67.5C 102.278,68.3862 100.112,68.3862 98,67.5C 96.0999,68.0769 94.2666,68.7435 92.5,69.5C 91.375,68.6522 91.375,67.6522 92.5,66.5C 93.1408,65.5178 93.8075,64.5178 94.5,63.5C 93.1196,59.2008 94.7863,57.2008 99.5,57.5C 99.25,60.214 99.0833,62.8806 99,65.5C 101.267,64.7108 103.6,64.0441 106,63.5C 106.945,63.9054 107.612,64.572 108,65.5C 110.192,64.6005 112.358,63.6005 114.5,62.5C 115.731,61.3493 115.731,60.1827 114.5,59C 115.737,58.7679 116.737,58.2679 117.5,57.5 Z"/></g>
<g><path style="opacity:1" fill="#716f6c" d="M 15.5,43.5 C 12.7606,46.2327 10.4273,49.2327 8.5,52.5C 7.58761,53.7382 7.42094,55.0715 8,56.5C 9.04373,57.6226 9.71039,58.9559 10,60.5C 10.6708,61.2524 11.5041,61.5858 12.5,61.5C 21.5607,57.8783 30.894,56.8783 40.5,58.5C 36.7412,61.6836 32.7412,63.6836 28.5,64.5C 28.6602,62.8008 28.4935,61.1341 28,59.5C 27.7508,60.624 27.2508,61.624 26.5,62.5C 24.7811,59.9516 23.4478,60.285 22.5,63.5C 21.8076,62.9747 21.3076,62.3081 21,61.5C 20.51,62.7932 20.3433,64.1266 20.5,65.5C 21.5,65.5 22.5,65.5 23.5,65.5C 23.2627,66.791 23.596,67.791 24.5,68.5C 25.1667,68.5 25.8333,68.5 26.5,68.5C 26.8333,68.5 27.1667,68.5 27.5,68.5C 27.5,68.8333 27.5,69.1667 27.5,69.5C 21.9924,69.3601 16.6591,68.3601 11.5,66.5C 8.64619,62.4882 6.47952,58.1549 5,53.5C 4.25177,58.179 5.41843,62.3457 8.5,66C 7.97771,66.9503 7.31105,67.7836 6.5,68.5C 7.80372,71.1301 9.47039,73.4634 11.5,75.5C 9.28428,74.7974 7.45095,73.4641 6,71.5C 5.00302,67.0152 4.16968,62.5152 3.5,58C 3.50558,55.9674 3.83891,54.134 4.5,52.5C 7.89533,49.0985 11.562,46.0985 15.5,43.5 Z"/></g>
<g><path style="opacity:0.224" fill="#272726" d="M 34.5,64.5 C 31.9325,65.9559 29.2658,67.2892 26.5,68.5C 25.8333,68.5 25.1667,68.5 24.5,68.5C 27.2066,66.4677 30.2066,64.801 33.5,63.5C 34.1067,63.6236 34.44,63.9569 34.5,64.5 Z"/></g>
<g><path style="opacity:0.89" fill="#645b44" d="M 61.5,66.5 C 64.5719,66.1826 67.5719,66.5159 70.5,67.5C 70.8627,68.1835 71.1961,68.8501 71.5,69.5C 67.9752,68.7903 64.6418,67.7903 61.5,66.5 Z"/></g>
<g><path style="opacity:1" fill="#848382" d="M 27.5,69.5 C 30.3915,70.4025 33.3915,70.7359 36.5,70.5C 37.8333,70.5 39.1667,70.5 40.5,70.5C 41.5521,72.256 43.2188,72.9227 45.5,72.5C 47.3859,75.7966 46.7192,78.2966 43.5,80C 37.2315,81.643 30.8982,81.8097 24.5,80.5C 20.9288,79.3578 17.2621,78.6911 13.5,78.5C 12.8333,77.5 12.1667,76.5 11.5,75.5C 9.47039,73.4634 7.80372,71.1301 6.5,68.5C 7.31105,67.7836 7.97771,66.9503 8.5,66C 5.41843,62.3457 4.25177,58.179 5,53.5C 6.47952,58.1549 8.64619,62.4882 11.5,66.5C 16.6591,68.3601 21.9924,69.3601 27.5,69.5 Z"/></g>
<g><path style="opacity:1" fill="#c66045" d="M 114.5,64.5 C 115.11,65.391 115.443,66.391 115.5,67.5C 111.103,70.8493 106.103,72.1827 100.5,71.5C 101.37,69.7263 102.703,68.393 104.5,67.5C 107.833,66.5 111.167,65.5 114.5,64.5 Z"/></g>
<g><path style="opacity:0.482" fill="#3c3a34" d="M 27.5,69.5 C 27.5,69.1667 27.5,68.8333 27.5,68.5C 30.6888,68.8583 33.6888,69.525 36.5,70.5C 33.3915,70.7359 30.3915,70.4025 27.5,69.5 Z"/></g>
<g><path style="opacity:1" fill="#868070" d="M 104.5,67.5 C 102.703,68.393 101.37,69.7263 100.5,71.5C 97.0897,72.3146 93.7564,72.648 90.5,72.5C 88.5,71.8333 86.5,71.1667 84.5,70.5C 87.3854,70.8064 90.0521,70.4731 92.5,69.5C 94.2666,68.7435 96.0999,68.0769 98,67.5C 100.112,68.3862 102.278,68.3862 104.5,67.5 Z"/></g>
<g><path style="opacity:0.867" fill="#9f9470" d="M 55.5,62.5 C 61.5219,63.5018 67.5219,64.5018 73.5,65.5C 77.1258,67.2887 80.7925,68.9554 84.5,70.5C 86.5,71.1667 88.5,71.8333 90.5,72.5C 88.368,72.5544 87.0347,73.5544 86.5,75.5C 86.1667,75.5 85.8333,75.5 85.5,75.5C 85.0825,74.7784 84.4158,74.2784 83.5,74C 84.1667,73.6667 84.8333,73.3333 85.5,73C 84.2068,72.51 82.8734,72.3433 81.5,72.5C 78.2328,71.2474 74.8994,70.2474 71.5,69.5C 71.1961,68.8501 70.8627,68.1835 70.5,67.5C 67.5719,66.5159 64.5719,66.1826 61.5,66.5C 61.1667,66.5 60.8333,66.5 60.5,66.5C 59.1727,64.8184 57.5061,63.4851 55.5,62.5 Z"/></g>
<g><path style="opacity:1" fill="#625f5c" d="M 96.5,78.5 C 93.1563,77.4925 89.8229,76.4925 86.5,75.5C 87.0347,73.5544 88.368,72.5544 90.5,72.5C 93.7564,72.648 97.0897,72.3146 100.5,71.5C 106.103,72.1827 111.103,70.8493 115.5,67.5C 116.684,65.5901 118.184,65.2568 120,66.5C 120.018,68.7972 119.851,71.1305 119.5,73.5C 116.235,73.918 113.235,75.0847 110.5,77C 105.802,77.3511 101.136,77.8511 96.5,78.5 Z"/></g>
<g><path style="opacity:0.055" fill="#272726" d="M 11.5,39.5 C 10.287,42.2254 8.45362,44.5588 6,46.5C 4.87201,48.3453 4.37201,50.3453 4.5,52.5C 3.83891,54.134 3.50558,55.9674 3.5,58C 4.16968,62.5152 5.00302,67.0152 6,71.5C 7.45095,73.4641 9.28428,74.7974 11.5,75.5C 12.1667,76.5 12.8333,77.5 13.5,78.5C 5.00687,75.2248 0.673534,68.8914 0.5,59.5C 1.0547,51.0524 4.72136,44.3857 11.5,39.5 Z"/></g>
<g><path style="opacity:0.216" fill="#1c1b19" d="M 76.5,74.5 C 75.6715,75.3324 74.8382,74.999 74,73.5C 73.51,74.7932 73.3433,76.1266 73.5,77.5C 70.784,77.3862 68.784,78.3862 67.5,80.5C 66.1134,78.5112 66.4468,76.6779 68.5,75C 70.5873,74.2078 72.4207,73.0412 74,71.5C 75.417,72.0779 76.2504,73.0779 76.5,74.5 Z"/></g>
<g><path style="opacity:0.706" fill="#777365" d="M 59.5,73.5 C 59.7852,75.288 59.4519,76.9547 58.5,78.5C 56.9137,76.8273 56.2471,74.8273 56.5,72.5C 52.8333,72.5 49.1667,72.5 45.5,72.5C 43.2188,72.9227 41.5521,72.256 40.5,70.5C 45.6369,69.1719 50.9702,68.6719 56.5,69C 58.3757,69.9184 59.3757,71.4184 59.5,73.5 Z"/></g>
<g><path style="opacity:0.188" fill="#595547" d="M 81.5,72.5 C 82.8734,72.3433 84.2068,72.51 85.5,73C 84.8333,73.3333 84.1667,73.6667 83.5,74C 84.4158,74.2784 85.0825,74.7784 85.5,75.5C 83.1098,77.0198 80.4432,78.0198 77.5,78.5C 76.5266,78.0133 75.5266,77.5133 74.5,77C 76.1193,76.7645 77.1193,75.9311 77.5,74.5C 78.9952,74.0113 80.3285,73.3446 81.5,72.5 Z"/></g>
<g><path style="opacity:0.761" fill="#2d2d2c" d="M 115.5,54.5 C 117.877,56.0395 120.377,57.3728 123,58.5C 123.536,60.5672 123.036,62.4006 121.5,64C 123.851,67.0523 124.018,70.219 122,73.5C 114.272,79.9282 105.772,81.5949 96.5,78.5C 101.136,77.8511 105.802,77.3511 110.5,77C 113.235,75.0847 116.235,73.918 119.5,73.5C 119.851,71.1305 120.018,68.7972 120,66.5C 118.184,65.2568 116.684,65.5901 115.5,67.5C 115.443,66.391 115.11,65.391 114.5,64.5C 116.515,63.0762 118.848,62.4095 121.5,62.5C 121.5,61.1667 121.5,59.8333 121.5,58.5C 120.041,58.5674 118.708,58.2341 117.5,57.5C 116.449,56.7777 115.782,55.7777 115.5,54.5 Z"/></g>
<g><path style="opacity:0.505" fill="#383631" d="M 76.5,74.5 C 76.8333,74.5 77.1667,74.5 77.5,74.5C 77.1193,75.9311 76.1193,76.7645 74.5,77C 75.5266,77.5133 76.5266,78.0133 77.5,78.5C 74.4557,80.0114 71.1224,80.678 67.5,80.5C 68.784,78.3862 70.784,77.3862 73.5,77.5C 73.3433,76.1266 73.51,74.7932 74,73.5C 74.8382,74.999 75.6715,75.3324 76.5,74.5 Z"/></g>
<g><path style="opacity:0.933" fill="#3e3e3e" d="M 13.5,78.5 C 17.2621,78.6911 20.9288,79.3578 24.5,80.5C 25.1667,81.1667 25.8333,81.8333 26.5,82.5C 21.6401,82.5404 17.3068,81.2071 13.5,78.5 Z"/></g>
<g><path style="opacity:0.624" fill="#242423" d="M 27.5,82.5 C 29.8863,82.2587 31.8863,82.9254 33.5,84.5C 33.5,85.1667 33.5,85.8333 33.5,86.5C 31.2048,85.5254 29.2048,84.1921 27.5,82.5 Z"/></g>
<g><path style="opacity:1" fill="#626260" d="M 45.5,72.5 C 49.1667,72.5 52.8333,72.5 56.5,72.5C 56.2471,74.8273 56.9137,76.8273 58.5,78.5C 59.4519,76.9547 59.7852,75.288 59.5,73.5C 60.1582,74.7933 60.4915,76.2933 60.5,78C 60.664,80.5437 59.9973,82.7103 58.5,84.5C 58.053,78.0677 56.8864,78.0677 55,84.5C 47.61,84.6133 40.4433,84.6133 33.5,84.5C 31.8863,82.9254 29.8863,82.2587 27.5,82.5C 27.1667,82.5 26.8333,82.5 26.5,82.5C 25.8333,81.8333 25.1667,81.1667 24.5,80.5C 30.8982,81.8097 37.2315,81.643 43.5,80C 46.7192,78.2966 47.3859,75.7966 45.5,72.5 Z"/></g>
<g><path style="opacity:0.984" fill="#898370" d="M 58.5,84.5 C 54.5483,85.1958 50.5483,85.6958 46.5,86C 44.8807,86.2355 43.8807,87.0689 43.5,88.5C 42.5,88.5 41.5,88.5 40.5,88.5C 39.7893,86.1582 38.456,85.8249 36.5,87.5C 35.391,87.4431 34.391,87.1098 33.5,86.5C 33.5,85.8333 33.5,85.1667 33.5,84.5C 40.4433,84.6133 47.61,84.6133 55,84.5C 56.8864,78.0677 58.053,78.0677 58.5,84.5 Z"/></g>
<g><path style="opacity:0.09" fill="#43403a" d="M 40.5,88.5 C 38.901,88.7678 37.5676,88.4345 36.5,87.5C 38.456,85.8249 39.7893,86.1582 40.5,88.5 Z"/></g>
<g><path style="opacity:0.098" fill="#454237" d="M 58.5,84.5 C 58.4226,85.7498 57.756,86.5831 56.5,87C 52.1371,87.3694 47.8038,87.8694 43.5,88.5C 43.8807,87.0689 44.8807,86.2355 46.5,86C 50.5483,85.6958 54.5483,85.1958 58.5,84.5 Z"/></g>
</svg>
