<?xml version="1.0" encoding="UTF-8"?>
<!DOCTYPE svg PUBLIC "-//W3C//DTD SVG 1.1//EN" "http://www.w3.org/Graphics/SVG/1.1/DTD/svg11.dtd">
<svg xmlns="http://www.w3.org/2000/svg" version="1.1" width="128px" height="128px" style="shape-rendering:geometricPrecision; text-rendering:geometricPrecision; image-rendering:optimizeQuality; fill-rule:evenodd; clip-rule:evenodd" xmlns:xlink="http://www.w3.org/1999/xlink">
<g><path style="opacity:0.98" fill="#010101" d="M 54.5,23.5 C 62.9782,26.3129 71.6449,28.4796 80.5,30C 96.8953,37.4519 111.229,47.4519 123.5,60C 123.097,61.4728 122.43,62.8061 121.5,64C 124.727,71.2814 122.394,75.9481 114.5,78C 111.436,79.244 108.269,80.0773 105,80.5C 98.8712,79.8514 93.0379,78.1847 87.5,75.5C 80.8283,78.5847 73.8283,80.2514 66.5,80.5C 66.3433,79.1266 66.51,77.7932 67,76.5C 69.3333,74.8333 71.6667,73.1667 74,71.5C 75.3139,72.3128 76.4805,73.3128 77.5,74.5C 78.7946,73.9017 80.1279,73.4017 81.5,73C 72.2752,69.8597 62.9419,67.0264 53.5,64.5C 48.4441,67.1173 43.1107,67.9506 37.5,67C 36.9535,66.0754 36.2868,65.2421 35.5,64.5C 32.6594,65.9746 29.6594,67.1413 26.5,68C 30.4776,68.9407 34.4776,69.7741 38.5,70.5C 44.4639,69.2997 50.4639,68.7997 56.5,69C 59.4458,71.2292 60.7792,74.2292 60.5,78C 60.7792,81.7708 59.4458,84.7708 56.5,87C 46.0688,90.3277 36.4021,88.9944 27.5,83C 18.9949,82.1628 11.4949,78.9961 5,73.5C -2.18997,60.8535 -0.356637,49.6868 10.5,40C 22.2272,33.9244 34.5606,29.7577 47.5,27.5C 47.5,26.5 47.5,25.5 47.5,24.5C 50.0593,24.8016 52.3926,24.4682 54.5,23.5 Z"/></g>
</svg>
