<?xml version="1.0" encoding="UTF-8"?>
<!DOCTYPE svg PUBLIC "-//W3C//DTD SVG 1.1//EN" "http://www.w3.org/Graphics/SVG/1.1/DTD/svg11.dtd">
<svg xmlns="http://www.w3.org/2000/svg" version="1.1" width="128px" height="128px" style="shape-rendering:geometricPrecision; text-rendering:geometricPrecision; image-rendering:optimizeQuality; fill-rule:evenodd; clip-rule:evenodd" xmlns:xlink="http://www.w3.org/1999/xlink">
<g><path style="opacity:1" fill="#1b190f" d="M 60.5,39.5 C 59.548,40.452 58.548,41.452 57.5,42.5C 57.0356,45.5133 56.0356,47.8467 54.5,49.5C 53.5386,47.7354 53.2053,45.7354 53.5,43.5C 55.3264,41.8525 56.6597,39.8525 57.5,37.5C 57.5,36.1667 58.1667,35.5 59.5,35.5C 61.144,34.6343 62.8107,34.1343 64.5,34C 63.3441,36.7185 62.0108,38.5519 60.5,39.5 Z"/></g>
<g><path style="opacity:0.659" fill="#6b6a6b" d="M 57.5,37.5 C 56.6597,39.8525 55.3264,41.8525 53.5,43.5C 53.8449,40.8021 55.1782,38.8021 57.5,37.5 Z"/></g>
<g><path style="opacity:1" fill="#4b462d" d="M 70.5,45.5 C 68.4265,42.3576 66.5932,39.0242 65,35.5C 64.5272,37.779 63.5272,39.779 62,41.5C 61.2828,40.9558 60.7828,40.2891 60.5,39.5C 62.0108,38.5519 63.3441,36.7185 64.5,34C 62.8107,34.1343 61.144,34.6343 59.5,35.5C 60.7892,32.6781 62.7892,32.0114 65.5,33.5C 68.2719,37.0432 69.9385,41.0432 70.5,45.5 Z"/></g>
<g><path style="opacity:0.973" fill="#797972" d="M 53.5,43.5 C 53.2053,45.7354 53.5386,47.7354 54.5,49.5C 54.5,49.8333 54.5,50.1667 54.5,50.5C 50.8352,48.8103 50.5019,46.477 53.5,43.5 Z"/></g>
<g><path style="opacity:1" fill="#534c0f" d="M 70.5,45.5 C 70.5,46.1667 70.5,46.8333 70.5,47.5C 69.448,47.3505 68.448,47.5172 67.5,48C 66.1667,48.6667 66.1667,49.3333 67.5,50C 64.6181,50.2724 61.9514,51.1057 59.5,52.5C 58.3646,50.7868 56.698,50.1201 54.5,50.5C 54.5,50.1667 54.5,49.8333 54.5,49.5C 56.0356,47.8467 57.0356,45.5133 57.5,42.5C 58.548,41.452 59.548,40.452 60.5,39.5C 60.7828,40.2891 61.2828,40.9558 62,41.5C 63.5272,39.779 64.5272,37.779 65,35.5C 66.5932,39.0242 68.4265,42.3576 70.5,45.5 Z"/></g>
<g><path style="opacity:0.31" fill="#969788" d="M 70.5,45.5 C 71.2485,46.531 71.9152,47.6976 72.5,49C 76.0252,49.1787 79.3586,49.6787 82.5,50.5C 78.8183,50.6653 75.1516,50.4986 71.5,50C 70.7476,49.3292 70.4142,48.4959 70.5,47.5C 70.5,46.8333 70.5,46.1667 70.5,45.5 Z"/></g>
<g><path style="opacity:0.659" fill="#878680" d="M 17.5,53.5 C 16.5,53.5 15.5,53.5 14.5,53.5C 14.1583,52.6618 13.4916,52.3284 12.5,52.5C 10.6208,51.6586 8.6208,51.3253 6.5,51.5C 6.62867,53.2161 6.962,54.8828 7.5,56.5C 5.72017,55.0101 5.05351,53.0101 5.5,50.5C 9.98162,50.0339 13.9816,51.0339 17.5,53.5 Z"/></g>
<g><path style="opacity:1" fill="#272f29" d="M 70.5,47.5 C 70.4142,48.4959 70.7476,49.3292 71.5,50C 75.1516,50.4986 78.8183,50.6653 82.5,50.5C 85.2788,50.2786 87.9455,50.612 90.5,51.5C 93.5885,52.7846 96.9219,53.4512 100.5,53.5C 101.492,53.3284 102.158,53.6618 102.5,54.5C 103.09,55.766 103.59,57.0993 104,58.5C 104.556,56.4049 105.056,56.2382 105.5,58C 104.419,59.3707 103.585,60.8707 103,62.5C 102.667,61.1667 102.333,59.8333 102,58.5C 101.683,60.3008 101.016,60.6341 100,59.5C 99.51,60.7932 99.3433,62.1266 99.5,63.5C 98.8333,63.5 98.5,63.1667 98.5,62.5C 98.7852,60.712 98.4519,59.0453 97.5,57.5C 96.8076,58.0253 96.3076,58.6919 96,59.5C 94.2493,58.1912 92.7493,58.5245 91.5,60.5C 90.433,58.4414 89.0996,56.608 87.5,55C 85.1912,54.9944 83.0246,54.8277 81,54.5C 80.0546,54.9054 79.3879,55.572 79,56.5C 78.2904,55.0267 77.1238,54.3601 75.5,54.5C 75.2714,56.433 74.4381,58.0997 73,59.5C 73.0058,57.7015 73.3391,56.0348 74,54.5C 73.3333,55.8333 72.6667,55.8333 72,54.5C 71.6667,55.8333 71.3333,57.1667 71,58.5C 70.0805,58.0698 69.2472,57.7365 68.5,57.5C 71.2764,55.7213 70.9431,54.7213 67.5,54.5C 64.4806,54.2555 62.6473,55.5888 62,58.5C 61.6667,57.5 61.3333,56.5 61,55.5C 57.7049,56.3858 54.0382,57.0525 50,57.5C 48.2933,57.4915 46.7933,57.1582 45.5,56.5C 50.2244,55.3696 54.8911,54.0363 59.5,52.5C 61.9514,51.1057 64.6181,50.2724 67.5,50C 66.1667,49.3333 66.1667,48.6667 67.5,48C 68.448,47.5172 69.448,47.3505 70.5,47.5 Z"/></g>
<g><path style="opacity:0.647" fill="#838685" d="M 90.5,51.5 C 94.1224,51.322 97.4557,51.9886 100.5,53.5C 96.9219,53.4512 93.5885,52.7846 90.5,51.5 Z"/></g>
<g><path style="opacity:1" fill="#363328" d="M 12.5,52.5 C 12.5,60.8333 12.5,69.1667 12.5,77.5C 11.8333,78.1667 11.1667,78.8333 10.5,79.5C 8.5,79.5 6.5,79.5 4.5,79.5C 4.62867,77.7839 4.962,76.1172 5.5,74.5C 7.62186,71.0434 9.28852,67.3767 10.5,63.5C 11.0431,63.44 11.3764,63.1067 11.5,62.5C 10.6389,60.0894 9.30556,58.0894 7.5,56.5C 6.962,54.8828 6.62867,53.2161 6.5,51.5C 8.6208,51.3253 10.6208,51.6586 12.5,52.5 Z"/></g>
<g><path style="opacity:1" fill="#574e28" d="M 12.5,52.5 C 13.4916,52.3284 14.1583,52.6618 14.5,53.5C 14.7944,58.3534 14.7944,62.8534 14.5,67C 17.1667,67.6667 17.1667,68.3333 14.5,69C 15.2135,70.3431 14.8802,71.6764 13.5,73C 13.9662,74.2988 13.9662,75.7988 13.5,77.5C 13.1667,77.5 12.8333,77.5 12.5,77.5C 12.5,69.1667 12.5,60.8333 12.5,52.5 Z"/></g>
<g><path style="opacity:0.918" fill="#868c83" d="M 54.5,50.5 C 56.698,50.1201 58.3646,50.7868 59.5,52.5C 54.8911,54.0363 50.2244,55.3696 45.5,56.5C 44.2921,57.2341 42.9587,57.5674 41.5,57.5C 36.7331,58.7973 32.0665,58.7973 27.5,57.5C 37.5434,57.7401 47.2101,55.9068 56.5,52C 55.5842,51.7216 54.9175,51.2216 54.5,50.5 Z"/></g>
<g><path style="opacity:0.216" fill="#999894" d="M 7.5,56.5 C 9.30556,58.0894 10.6389,60.0894 11.5,62.5C 11.3764,63.1067 11.0431,63.44 10.5,63.5C 9.22713,61.2872 8.22713,58.9538 7.5,56.5 Z"/></g>
<g><path style="opacity:1" fill="#666e51" d="M 102.5,54.5 C 106.655,55.7417 110.322,57.7417 113.5,60.5C 111.83,60.2488 110.33,59.5822 109,58.5C 107.951,60.6175 106.451,62.2842 104.5,63.5C 103.5,64.1667 102.5,64.8333 101.5,65.5C 100.25,65.5774 99.4169,66.244 99,67.5C 98.4209,66.0715 98.5876,64.7382 99.5,63.5C 99.3433,62.1266 99.51,60.7932 100,59.5C 101.016,60.6341 101.683,60.3008 102,58.5C 102.333,59.8333 102.667,61.1667 103,62.5C 103.585,60.8707 104.419,59.3707 105.5,58C 105.056,56.2382 104.556,56.4049 104,58.5C 103.59,57.0993 103.09,55.766 102.5,54.5 Z"/></g>
<g><path style="opacity:1" fill="#45513f" d="M 98.5,62.5 C 97.5416,62.0472 96.7083,61.3805 96,60.5C 95.6667,61.8333 95.3333,63.1667 95,64.5C 94.31,63.2617 93.81,63.2617 93.5,64.5C 92.8423,63.6016 92.1757,62.6016 91.5,61.5C 90.8076,62.0253 90.3076,62.6919 90,63.5C 87.9288,60.5845 86.5954,60.9178 86,64.5C 85.6667,63.1667 85.3333,61.8333 85,60.5C 84.6667,61.1667 84.3333,61.8333 84,62.5C 83,61.5 82,60.5 81,59.5C 78.9926,60.3277 76.9926,61.3277 75,62.5C 73.0036,62.0037 71.3369,61.0037 70,59.5C 69.6667,60.1667 69.3333,60.8333 69,61.5C 68,60.5 67,59.5 66,58.5C 65.6121,59.428 64.9454,60.0946 64,60.5C 61.321,60.4754 58.6544,60.4754 56,60.5C 55.6667,59.8333 55.3333,59.1667 55,58.5C 51.2488,59.655 47.4154,60.155 43.5,60C 44.5,59.6667 45.5,59.3333 46.5,59C 44.6183,58.8019 42.9516,58.3019 41.5,57.5C 42.9587,57.5674 44.2921,57.2341 45.5,56.5C 46.7933,57.1582 48.2933,57.4915 50,57.5C 54.0382,57.0525 57.7049,56.3858 61,55.5C 61.3333,56.5 61.6667,57.5 62,58.5C 62.6473,55.5888 64.4806,54.2555 67.5,54.5C 70.9431,54.7213 71.2764,55.7213 68.5,57.5C 69.2472,57.7365 70.0805,58.0698 71,58.5C 71.3333,57.1667 71.6667,55.8333 72,54.5C 72.6667,55.8333 73.3333,55.8333 74,54.5C 73.3391,56.0348 73.0058,57.7015 73,59.5C 74.4381,58.0997 75.2714,56.433 75.5,54.5C 77.1238,54.3601 78.2904,55.0267 79,56.5C 79.3879,55.572 80.0546,54.9054 81,54.5C 83.0246,54.8277 85.1912,54.9944 87.5,55C 89.0996,56.608 90.433,58.4414 91.5,60.5C 92.7493,58.5245 94.2493,58.1912 96,59.5C 96.3076,58.6919 96.8076,58.0253 97.5,57.5C 98.4519,59.0453 98.7852,60.712 98.5,62.5 Z"/></g>
<g><path style="opacity:1" fill="#2f2915" d="M 113.5,60.5 C 116.972,62.7381 120.638,64.7381 124.5,66.5C 125.678,68.3379 125.345,70.0045 123.5,71.5C 121.236,70.7814 118.903,70.448 116.5,70.5C 119.461,68.1022 119.128,66.4355 115.5,65.5C 111.872,66.4355 111.539,68.1022 114.5,70.5C 110.71,71.0468 108.71,69.3801 108.5,65.5C 107.051,64.8281 105.718,64.1614 104.5,63.5C 106.451,62.2842 107.951,60.6175 109,58.5C 110.33,59.5822 111.83,60.2488 113.5,60.5 Z"/></g>
<g><path style="opacity:1" fill="#7b6c30" d="M 14.5,53.5 C 15.5,53.5 16.5,53.5 17.5,53.5C 19.153,53.6596 20.4863,54.3263 21.5,55.5C 20.2227,56.6936 19.5561,58.3603 19.5,60.5C 20.7126,64.2343 20.7126,67.7343 19.5,71C 20.7356,72.0848 22.0689,72.9181 23.5,73.5C 22.3406,75.2503 20.674,76.2503 18.5,76.5C 16.7839,76.6287 15.1172,76.962 13.5,77.5C 13.9662,75.7988 13.9662,74.2988 13.5,73C 14.8802,71.6764 15.2135,70.3431 14.5,69C 17.1667,68.3333 17.1667,67.6667 14.5,67C 14.7944,62.8534 14.7944,58.3534 14.5,53.5 Z"/></g>
<g><path style="opacity:1" fill="#6e7c56" d="M 21.5,55.5 C 23.5,56.1667 25.5,56.8333 27.5,57.5C 32.0665,58.7973 36.7331,58.7973 41.5,57.5C 42.9516,58.3019 44.6183,58.8019 46.5,59C 45.5,59.3333 44.5,59.6667 43.5,60C 47.4154,60.155 51.2488,59.655 55,58.5C 55.3333,59.1667 55.6667,59.8333 56,60.5C 58.6544,60.4754 61.321,60.4754 64,60.5C 64.9454,60.0946 65.6121,59.428 66,58.5C 67,59.5 68,60.5 69,61.5C 69.3333,60.8333 69.6667,60.1667 70,59.5C 71.3369,61.0037 73.0036,62.0037 75,62.5C 76.9926,61.3277 78.9926,60.3277 81,59.5C 82,60.5 83,61.5 84,62.5C 84.3333,61.8333 84.6667,61.1667 85,60.5C 85.3333,61.8333 85.6667,63.1667 86,64.5C 86.5954,60.9178 87.9288,60.5845 90,63.5C 90.3076,62.6919 90.8076,62.0253 91.5,61.5C 92.1757,62.6016 92.8423,63.6016 93.5,64.5C 93.631,65.2389 93.4643,65.9056 93,66.5C 91.1575,64.1656 88.9909,63.8323 86.5,65.5C 85.5,65.5 84.5,65.5 83.5,65.5C 83.2792,62.9028 82.7792,62.9028 82,65.5C 78.783,65.2843 75.4496,64.6177 72,63.5C 69.5806,64.2509 67.2472,64.2509 65,63.5C 64.0546,63.9054 63.3879,64.572 63,65.5C 60.7939,64.6479 58.6272,63.6479 56.5,62.5C 52.0253,62.5907 48.0253,62.924 44.5,63.5C 43.8076,62.9747 43.3076,62.3081 43,61.5C 42.3109,62.3567 41.4776,63.0233 40.5,63.5C 39.3974,61.8964 37.8974,60.8964 36,60.5C 33.2243,60.7183 30.3909,60.7183 27.5,60.5C 26.8333,61.1667 26.1667,61.8333 25.5,62.5C 24.4763,61.1468 23.143,60.4802 21.5,60.5C 21.9528,59.5416 22.6195,58.7083 23.5,58C 22.6195,57.2917 21.9528,56.4584 21.5,55.5 Z"/></g>
<g><path style="opacity:1" fill="#9aac76" d="M 21.5,60.5 C 23.143,60.4802 24.4763,61.1468 25.5,62.5C 26.1667,61.8333 26.8333,61.1667 27.5,60.5C 30.3909,60.7183 33.2243,60.7183 36,60.5C 37.8974,60.8964 39.3974,61.8964 40.5,63.5C 41.4776,63.0233 42.3109,62.3567 43,61.5C 43.3076,62.3081 43.8076,62.9747 44.5,63.5C 48.0253,62.924 52.0253,62.5907 56.5,62.5C 58.6272,63.6479 60.7939,64.6479 63,65.5C 63.3879,64.572 64.0546,63.9054 65,63.5C 67.2472,64.2509 69.5806,64.2509 72,63.5C 75.4496,64.6177 78.783,65.2843 82,65.5C 82.7792,62.9028 83.2792,62.9028 83.5,65.5C 83.8925,67.2838 84.5592,68.9505 85.5,70.5C 84.2652,70.2786 83.2652,69.6119 82.5,68.5C 79.2892,68.6225 76.1225,68.6225 73,68.5C 71.6201,65.9422 70.1201,65.9422 68.5,68.5C 67.8076,67.9747 67.3076,67.3081 67,66.5C 66.3378,67.9839 65.5045,69.3172 64.5,70.5C 64.1667,70.5 63.8333,70.5 63.5,70.5C 63.6567,69.1266 63.49,67.7932 63,66.5C 62.3333,67.8333 61.6667,67.8333 61,66.5C 60.3333,71.8333 59.6667,71.8333 59,66.5C 55.6027,67.9291 52.6027,67.2625 50,64.5C 50.6171,66.0948 50.2837,67.4281 49,68.5C 48.6667,67.5 48.3333,66.5 48,65.5C 47.3333,66.8333 46.6667,66.8333 46,65.5C 45.7619,70.3902 45.0952,70.3902 44,65.5C 43.6667,65.8333 43.3333,66.1667 43,66.5C 41.6201,63.9422 40.1201,63.9422 38.5,66.5C 36.5394,64.4565 35.0394,65.1232 34,68.5C 33.6667,67.1667 33.3333,65.8333 33,64.5C 32.6667,64.8333 32.3333,65.1667 32,65.5C 30.8456,63.0426 29.5123,63.0426 28,65.5C 26.6201,62.9422 25.1201,62.9422 23.5,65.5C 22.8182,64.7573 22.1515,64.0906 21.5,63.5C 21.5,62.5 21.5,61.5 21.5,60.5 Z"/></g>
<g><path style="opacity:0.314" fill="#8a877f" d="M 113.5,60.5 C 117.997,61.2435 121.664,63.2435 124.5,66.5C 120.638,64.7381 116.972,62.7381 113.5,60.5 Z"/></g>
<g><path style="opacity:1" fill="#92a06a" d="M 98.5,62.5 C 98.5,63.1667 98.8333,63.5 99.5,63.5C 98.5876,64.7382 98.4209,66.0715 99,67.5C 99.4169,66.244 100.25,65.5774 101.5,65.5C 100.27,67.2972 99.6036,69.2972 99.5,71.5C 98.8333,71.1667 98.1667,70.8333 97.5,70.5C 93.904,68.5328 90.2373,66.8662 86.5,65.5C 88.9909,63.8323 91.1575,64.1656 93,66.5C 93.4643,65.9056 93.631,65.2389 93.5,64.5C 93.81,63.2617 94.31,63.2617 95,64.5C 95.3333,63.1667 95.6667,61.8333 96,60.5C 96.7083,61.3805 97.5416,62.0472 98.5,62.5 Z"/></g>
<g><path style="opacity:1" fill="#837713" d="M 83.5,65.5 C 84.5,65.5 85.5,65.5 86.5,65.5C 90.2373,66.8662 93.904,68.5328 97.5,70.5C 97.1993,73.3592 95.5327,74.6925 92.5,74.5C 89.1815,74.841 86.8482,73.5076 85.5,70.5C 84.5592,68.9505 83.8925,67.2838 83.5,65.5 Z"/></g>
<g><path style="opacity:1" fill="#9f9f7e" d="M 116.5,70.5 C 115.833,70.5 115.167,70.5 114.5,70.5C 111.539,68.1022 111.872,66.4355 115.5,65.5C 119.128,66.4355 119.461,68.1022 116.5,70.5 Z"/></g>
<g><path style="opacity:1" fill="#c3d4a6" d="M 21.5,63.5 C 22.1515,64.0906 22.8182,64.7573 23.5,65.5C 25.1201,62.9422 26.6201,62.9422 28,65.5C 29.5123,63.0426 30.8456,63.0426 32,65.5C 32.3333,65.1667 32.6667,64.8333 33,64.5C 33.3333,65.8333 33.6667,67.1667 34,68.5C 35.0394,65.1232 36.5394,64.4565 38.5,66.5C 40.1201,63.9422 41.6201,63.9422 43,66.5C 43.3333,66.1667 43.6667,65.8333 44,65.5C 45.0952,70.3902 45.7619,70.3902 46,65.5C 46.6667,66.8333 47.3333,66.8333 48,65.5C 48.3333,66.5 48.6667,67.5 49,68.5C 50.2837,67.4281 50.6171,66.0948 50,64.5C 52.6027,67.2625 55.6027,67.9291 59,66.5C 59.6667,71.8333 60.3333,71.8333 61,66.5C 61.6667,67.8333 62.3333,67.8333 63,66.5C 63.49,67.7932 63.6567,69.1266 63.5,70.5C 63.6309,71.3764 63.2975,72.0431 62.5,72.5C 60.3855,71.9661 58.5522,70.9661 57,69.5C 55.4152,70.3757 54.4152,71.7091 54,73.5C 52.4374,70.9557 50.9374,70.9557 49.5,73.5C 47.9974,72.9478 46.3307,72.9478 44.5,73.5C 43.1667,73.5 41.8333,73.5 40.5,73.5C 35.2044,71.1293 29.871,71.1293 24.5,73.5C 24.4142,72.5041 24.7476,71.6708 25.5,71C 22.4792,69.4612 21.1459,66.9612 21.5,63.5 Z"/></g>
<g><path style="opacity:1" fill="#41391a" d="M 21.5,55.5 C 21.9528,56.4584 22.6195,57.2917 23.5,58C 22.6195,58.7083 21.9528,59.5416 21.5,60.5C 21.5,61.5 21.5,62.5 21.5,63.5C 21.1459,66.9612 22.4792,69.4612 25.5,71C 24.7476,71.6708 24.4142,72.5041 24.5,73.5C 24.1667,73.5 23.8333,73.5 23.5,73.5C 22.0689,72.9181 20.7356,72.0848 19.5,71C 20.7126,67.7343 20.7126,64.2343 19.5,60.5C 19.5561,58.3603 20.2227,56.6936 21.5,55.5 Z"/></g>
<g><path style="opacity:1" fill="#c4d5a6" d="M 85.5,70.5 C 86.8482,73.5076 89.1815,74.841 92.5,74.5C 95.5327,74.6925 97.1993,73.3592 97.5,70.5C 98.1667,70.8333 98.8333,71.1667 99.5,71.5C 101.262,72.2623 102.262,73.5956 102.5,75.5C 97.4889,75.6659 92.4889,75.4993 87.5,75C 85.5975,74.8008 84.0975,73.9675 83,72.5C 81.4419,73.3452 80.4419,72.6785 80,70.5C 77.8339,74.1459 75.8339,73.8125 74,69.5C 73.3162,70.7839 73.4829,71.9505 74.5,73C 73.2559,73.4561 72.4226,72.9561 72,71.5C 70.2087,73.5127 68.8753,73.5127 68,71.5C 67.586,71.9574 67.086,72.2907 66.5,72.5C 65.8182,71.7573 65.1515,71.0906 64.5,70.5C 65.5045,69.3172 66.3378,67.9839 67,66.5C 67.3076,67.3081 67.8076,67.9747 68.5,68.5C 70.1201,65.9422 71.6201,65.9422 73,68.5C 76.1225,68.6225 79.2892,68.6225 82.5,68.5C 83.2652,69.6119 84.2652,70.2786 85.5,70.5 Z"/></g>
<g><path style="opacity:1" fill="#7f723f" d="M 104.5,63.5 C 105.718,64.1614 107.051,64.8281 108.5,65.5C 108.71,69.3801 110.71,71.0468 114.5,70.5C 115.167,70.5 115.833,70.5 116.5,70.5C 118.903,70.448 121.236,70.7814 123.5,71.5C 121.47,74.182 118.803,75.8486 115.5,76.5C 111.784,77.6567 108.117,77.6567 104.5,76.5C 104.158,75.6618 103.492,75.3284 102.5,75.5C 102.262,73.5956 101.262,72.2623 99.5,71.5C 99.6036,69.2972 100.27,67.2972 101.5,65.5C 102.5,64.8333 103.5,64.1667 104.5,63.5 Z"/></g>
<g><path style="opacity:1" fill="#d2dec0" d="M 63.5,70.5 C 63.8333,70.5 64.1667,70.5 64.5,70.5C 65.1515,71.0906 65.8182,71.7573 66.5,72.5C 67.086,72.2907 67.586,71.9574 68,71.5C 68.8753,73.5127 70.2087,73.5127 72,71.5C 72.4226,72.9561 73.2559,73.4561 74.5,73C 73.4829,71.9505 73.3162,70.7839 74,69.5C 75.8339,73.8125 77.8339,74.1459 80,70.5C 80.4419,72.6785 81.4419,73.3452 83,72.5C 84.0975,73.9675 85.5975,74.8008 87.5,75C 92.4889,75.4993 97.4889,75.6659 102.5,75.5C 103.492,75.3284 104.158,75.6618 104.5,76.5C 103.735,76.9234 102.902,77.2568 102,77.5C 95.351,76.7801 89.0177,76.1134 83,75.5C 79.8803,77.7143 76.8803,77.7143 74,75.5C 72.2859,76.9255 70.9525,76.5922 70,74.5C 69.3333,75.8333 68.6667,75.8333 68,74.5C 67.6667,75.1667 67.3333,75.8333 67,76.5C 65.4878,75.7433 64.1545,74.7433 63,73.5C 60.6667,74.5 58.3333,75.5 56,76.5C 54.2644,73.936 53.0978,74.2693 52.5,77.5C 50.0733,77.477 47.74,76.977 45.5,76C 44.7476,75.3292 44.4142,74.4959 44.5,73.5C 46.3307,72.9478 47.9974,72.9478 49.5,73.5C 50.9374,70.9557 52.4374,70.9557 54,73.5C 54.4152,71.7091 55.4152,70.3757 57,69.5C 58.5522,70.9661 60.3855,71.9661 62.5,72.5C 63.2975,72.0431 63.6309,71.3764 63.5,70.5 Z"/></g>
<g><path style="opacity:1" fill="#dde5d8" d="M 104.5,76.5 C 108.117,77.6567 111.784,77.6567 115.5,76.5C 112.497,78.2617 109.163,79.4283 105.5,80C 95.8227,80.9996 86.156,81.833 76.5,82.5C 76.1667,82.5 75.8333,82.5 75.5,82.5C 75.5,81.1667 75.5,79.8333 75.5,78.5C 74.1667,78.5 72.8333,78.5 71.5,78.5C 69.1944,78.9926 66.861,79.3259 64.5,79.5C 61.1667,79.5 57.8333,79.5 54.5,79.5C 54.6716,78.5084 54.3382,77.8417 53.5,77.5C 53.1667,77.5 52.8333,77.5 52.5,77.5C 53.0978,74.2693 54.2644,73.936 56,76.5C 58.3333,75.5 60.6667,74.5 63,73.5C 64.1545,74.7433 65.4878,75.7433 67,76.5C 67.3333,75.8333 67.6667,75.1667 68,74.5C 68.6667,75.8333 69.3333,75.8333 70,74.5C 70.9525,76.5922 72.2859,76.9255 74,75.5C 76.8803,77.7143 79.8803,77.7143 83,75.5C 89.0177,76.1134 95.351,76.7801 102,77.5C 102.902,77.2568 103.735,76.9234 104.5,76.5 Z"/></g>
<g><path style="opacity:0.184" fill="#a6a398" d="M 18.5,76.5 C 16.2084,78.2671 13.5418,79.2671 10.5,79.5C 11.1667,78.8333 11.8333,78.1667 12.5,77.5C 12.8333,77.5 13.1667,77.5 13.5,77.5C 15.1172,76.962 16.7839,76.6287 18.5,76.5 Z"/></g>
<g><path style="opacity:0.38" fill="#e18377" d="M 40.5,74.5 C 39.791,75.404 38.791,75.7373 37.5,75.5C 37.5,77.1667 37.5,78.8333 37.5,80.5C 34.6295,76.902 35.6295,74.902 40.5,74.5 Z"/></g>
<g><path style="opacity:1" fill="#c93a09" d="M 40.5,73.5 C 41.8333,73.5 43.1667,73.5 44.5,73.5C 44.4142,74.4959 44.7476,75.3292 45.5,76C 47.74,76.977 50.0733,77.477 52.5,77.5C 52.8333,77.5 53.1667,77.5 53.5,77.5C 53.4921,80.5448 53.1587,83.5448 52.5,86.5C 48.5152,85.5119 44.5152,84.5119 40.5,83.5C 40.1667,83.5 39.8333,83.5 39.5,83.5C 39.573,81.9731 38.9063,80.9731 37.5,80.5C 37.5,78.8333 37.5,77.1667 37.5,75.5C 38.791,75.7373 39.791,75.404 40.5,74.5C 40.5,74.1667 40.5,73.8333 40.5,73.5 Z"/></g>
<g><path style="opacity:0.445" fill="#7e7e7e" d="M 5.5,74.5 C 4.962,76.1172 4.62867,77.7839 4.5,79.5C 6.5,79.5 8.5,79.5 10.5,79.5C 8.39263,80.4682 6.0593,80.8016 3.5,80.5C 3.05351,77.9899 3.72017,75.9899 5.5,74.5 Z"/></g>
<g><path style="opacity:1" fill="#f57a14" d="M 71.5,78.5 C 72.8333,78.5 74.1667,78.5 75.5,78.5C 75.5,79.8333 75.5,81.1667 75.5,82.5C 75.6495,83.552 75.4828,84.552 75,85.5C 74.0524,83.4299 72.5524,81.9299 70.5,81C 71.2524,80.3292 71.5858,79.4959 71.5,78.5 Z"/></g>
<g><path style="opacity:0.224" fill="#d29682" d="M 37.5,80.5 C 38.9063,80.9731 39.573,81.9731 39.5,83.5C 38.0937,83.0269 37.427,82.0269 37.5,80.5 Z"/></g>
<g><path style="opacity:0.463" fill="#d29e85" d="M 39.5,83.5 C 39.8333,83.5 40.1667,83.5 40.5,83.5C 41.853,84.5261 42.853,85.8595 43.5,87.5C 41.1667,87.1667 39.8333,85.8333 39.5,83.5 Z"/></g>
<g><path style="opacity:1" fill="#b14e10" d="M 40.5,83.5 C 44.5152,84.5119 48.5152,85.5119 52.5,86.5C 52.5,87.5 52.5,88.5 52.5,89.5C 50.5,89.5 48.5,89.5 46.5,89.5C 44.9731,89.573 43.9731,88.9063 43.5,87.5C 42.853,85.8595 41.853,84.5261 40.5,83.5 Z"/></g>
<g><path style="opacity:1" fill="#ea4011" d="M 71.5,78.5 C 71.5858,79.4959 71.2524,80.3292 70.5,81C 72.5524,81.9299 74.0524,83.4299 75,85.5C 75.4828,84.552 75.6495,83.552 75.5,82.5C 75.8333,82.5 76.1667,82.5 76.5,82.5C 76.5,82.8333 76.5,83.1667 76.5,83.5C 76.1489,86.9032 75.4822,90.2365 74.5,93.5C 73.8333,93.5 73.1667,93.5 72.5,93.5C 71.1979,91.1782 69.1979,89.8449 66.5,89.5C 65.2504,86.994 64.5838,84.3274 64.5,81.5C 64.5,80.8333 64.5,80.1667 64.5,79.5C 66.861,79.3259 69.1944,78.9926 71.5,78.5 Z"/></g>
<g><path style="opacity:0.325" fill="#eea894" d="M 64.5,81.5 C 64.5838,84.3274 65.2504,86.994 66.5,89.5C 63.6599,87.2849 62.9932,84.6182 64.5,81.5 Z"/></g>
<g><path style="opacity:0.686" fill="#f29183" d="M 76.5,83.5 C 77.5176,86.3768 77.3509,89.3768 76,92.5C 75.6174,93.056 75.1174,93.3893 74.5,93.5C 75.4822,90.2365 76.1489,86.9032 76.5,83.5 Z"/></g>
<g><path style="opacity:0.996" fill="#d38e74" d="M 53.5,77.5 C 54.3382,77.8417 54.6716,78.5084 54.5,79.5C 54.4358,83.2198 53.9358,86.8865 53,90.5C 50.5444,91.8422 48.3778,91.5089 46.5,89.5C 48.5,89.5 50.5,89.5 52.5,89.5C 52.5,88.5 52.5,87.5 52.5,86.5C 53.1587,83.5448 53.4921,80.5448 53.5,77.5 Z"/></g>
<g><path style="opacity:0.302" fill="#e3a888" d="M 66.5,89.5 C 69.1979,89.8449 71.1979,91.1782 72.5,93.5C 70.1475,92.6597 68.1475,91.3264 66.5,89.5 Z"/></g>
</svg>
