<?xml version="1.0" encoding="UTF-8"?>
<!DOCTYPE svg PUBLIC "-//W3C//DTD SVG 1.1//EN" "http://www.w3.org/Graphics/SVG/1.1/DTD/svg11.dtd">
<svg xmlns="http://www.w3.org/2000/svg" version="1.1" width="128px" height="128px" style="shape-rendering:geometricPrecision; text-rendering:geometricPrecision; image-rendering:optimizeQuality; fill-rule:evenodd; clip-rule:evenodd" xmlns:xlink="http://www.w3.org/1999/xlink">
<g><path style="opacity:1" fill="#080808" d="M 61.5,32.5 C 63.9806,32.3234 65.8139,33.3234 67,35.5C 69.0333,39.9366 70.8666,44.4366 72.5,49C 81.9176,49.7739 91.2509,51.1073 100.5,53C 108.198,56.8489 115.864,60.6822 123.5,64.5C 126.12,68.1666 125.453,71.3332 121.5,74C 114.4,78.0275 106.733,80.3608 98.5,81C 91.8333,81.3333 85.1667,81.6667 78.5,82C 76.6016,82.6401 76.2683,83.9734 77.5,86C 75.6059,95.1833 71.4392,96.0167 65,88.5C 63.3137,85.9117 63.1471,83.2451 64.5,80.5C 61.2317,79.513 57.8984,79.1796 54.5,79.5C 54.951,93.2775 50.1176,95.2775 40,85.5C 38.1031,82.8726 36.6031,80.0393 35.5,77C 36.7786,75.3539 38.4453,74.1872 40.5,73.5C 36.2757,71.9199 31.9424,71.4199 27.5,72C 20.3641,77.3228 12.3641,80.1561 3.5,80.5C 3.33982,78.8008 3.50649,77.1341 4,75.5C 6.68639,72.1252 8.85305,68.4585 10.5,64.5C 9.52981,61.2263 8.02981,58.2263 6,55.5C 5.50649,53.8659 5.33982,52.1992 5.5,50.5C 12.7867,50.6374 19.4534,52.804 25.5,57C 36.2486,58.065 46.5819,56.3983 56.5,52C 52.5394,51.3922 51.0394,49.2256 52,45.5C 54.2573,40.4229 57.424,36.0896 61.5,32.5 Z"/></g>
</svg>
