<?xml version="1.0" encoding="UTF-8"?>
<!DOCTYPE svg PUBLIC "-//W3C//DTD SVG 1.1//EN" "http://www.w3.org/Graphics/SVG/1.1/DTD/svg11.dtd">
<svg xmlns="http://www.w3.org/2000/svg" version="1.1" width="128px" height="128px" style="shape-rendering:geometricPrecision; text-rendering:geometricPrecision; image-rendering:optimizeQuality; fill-rule:evenodd; clip-rule:evenodd" xmlns:xlink="http://www.w3.org/1999/xlink">
<g><path style="opacity:1" fill="#9d8166" d="M 69.5,28.5 C 68.1667,27.5 66.8333,26.5 65.5,25.5C 63.62,25.0702 61.62,25.0702 59.5,25.5C 61.3413,22.5744 63.6747,22.0744 66.5,24C 68.1412,25.129 69.1412,26.629 69.5,28.5 Z"/></g>
<g><path style="opacity:1" fill="#b28658" d="M 65.5,25.5 C 65.5,26.1667 65.5,26.8333 65.5,27.5C 64.6365,26.537 63.9698,26.537 63.5,27.5C 64.6302,28.6223 65.2969,29.9557 65.5,31.5C 64.5,30.1667 63.5,30.1667 62.5,31.5C 62.2402,29.405 61.0736,28.0717 59,27.5C 57.5936,28.4138 56.0936,29.0805 54.5,29.5C 55.5846,27.4131 57.2512,26.0798 59.5,25.5C 61.62,25.0702 63.62,25.0702 65.5,25.5 Z"/></g>
<g><path style="opacity:1" fill="#b78752" d="M 62.5,31.5 C 61.399,30.2003 60.0657,29.7003 58.5,30C 60.7341,32.0627 62.7341,34.2294 64.5,36.5C 64.631,37.2389 64.4643,37.9056 64,38.5C 63.2917,37.6195 62.4584,36.9528 61.5,36.5C 60.9688,34.4559 59.8022,32.7893 58,31.5C 57.6012,31.7284 57.4346,32.0618 57.5,32.5C 56.7777,31.4489 55.7777,30.7822 54.5,30.5C 54.5,30.1667 54.5,29.8333 54.5,29.5C 56.0936,29.0805 57.5936,28.4138 59,27.5C 61.0736,28.0717 62.2402,29.405 62.5,31.5 Z"/></g>
<g><path style="opacity:1" fill="#b0814e" d="M 65.5,27.5 C 68.8947,29.3482 69.228,30.6816 66.5,31.5C 67.1272,32.4168 67.4606,33.4168 67.5,34.5C 66.8333,34.1667 66.1667,33.8333 65.5,33.5C 65.5,32.8333 65.5,32.1667 65.5,31.5C 65.2969,29.9557 64.6302,28.6223 63.5,27.5C 63.9698,26.537 64.6365,26.537 65.5,27.5 Z"/></g>
<g><path style="opacity:1" fill="#92683f" d="M 65.5,25.5 C 66.8333,26.5 68.1667,27.5 69.5,28.5C 70.1746,30.2832 70.5079,31.9498 70.5,33.5C 70.5,34.1667 70.5,34.8333 70.5,35.5C 69.8333,36.1667 69.1667,36.8333 68.5,37.5C 67.8902,36.609 67.5569,35.609 67.5,34.5C 67.4606,33.4168 67.1272,32.4168 66.5,31.5C 69.228,30.6816 68.8947,29.3482 65.5,27.5C 65.5,26.8333 65.5,26.1667 65.5,25.5 Z"/></g>
<g><path style="opacity:1" fill="#7d5f43" d="M 69.5,28.5 C 71.2624,29.2623 72.2624,30.5956 72.5,32.5C 72.5912,34.6977 71.9245,35.0311 70.5,33.5C 70.5079,31.9498 70.1746,30.2832 69.5,28.5 Z"/></g>
<g><path style="opacity:1" fill="#b98853" d="M 54.5,30.5 C 54.5569,31.609 54.8902,32.609 55.5,33.5C 56.8333,35.8333 58.1667,38.1667 59.5,40.5C 58.5,39.8333 57.5,39.1667 56.5,38.5C 55.8333,37.1667 54.8333,36.1667 53.5,35.5C 52.2942,33.563 52.6275,31.8963 54.5,30.5 Z"/></g>
<g><path style="opacity:1" fill="#a47848" d="M 62.5,31.5 C 63.5,30.1667 64.5,30.1667 65.5,31.5C 65.5,32.1667 65.5,32.8333 65.5,33.5C 65.5394,34.5832 65.8728,35.5832 66.5,36.5C 66.0302,37.463 65.3635,37.463 64.5,36.5C 62.7341,34.2294 60.7341,32.0627 58.5,30C 60.0657,29.7003 61.399,30.2003 62.5,31.5 Z"/></g>
<g><path style="opacity:1" fill="#8f663c" d="M 61.5,36.5 C 61.427,38.0269 62.0937,39.0269 63.5,39.5C 63.5,40.1667 63.5,40.8333 63.5,41.5C 62.8333,41.1667 62.1667,40.8333 61.5,40.5C 61.5,39.8333 61.1667,39.5 60.5,39.5C 60.5,38.8333 60.5,38.1667 60.5,37.5C 59.925,35.5887 58.925,33.922 57.5,32.5C 57.4346,32.0618 57.6012,31.7284 58,31.5C 59.8022,32.7893 60.9688,34.4559 61.5,36.5 Z"/></g>
<g><path style="opacity:1" fill="#b18d69" d="M 54.5,29.5 C 54.5,29.8333 54.5,30.1667 54.5,30.5C 52.6275,31.8963 52.2942,33.563 53.5,35.5C 53.1667,35.5 52.8333,35.5 52.5,35.5C 50.7085,35.366 49.0418,35.6993 47.5,36.5C 47.369,35.7611 47.5357,35.0944 48,34.5C 50.3556,32.9255 52.5223,31.2588 54.5,29.5 Z"/></g>
<g><path style="opacity:1" fill="#ba8a53" d="M 54.5,30.5 C 55.7777,30.7822 56.7777,31.4489 57.5,32.5C 58.925,33.922 59.925,35.5887 60.5,37.5C 58.8333,36.1667 57.1667,34.8333 55.5,33.5C 54.8902,32.609 54.5569,31.609 54.5,30.5 Z"/></g>
<g><path style="opacity:1" fill="#8a613a" d="M 55.5,33.5 C 57.1667,34.8333 58.8333,36.1667 60.5,37.5C 60.5,38.1667 60.5,38.8333 60.5,39.5C 60.5393,41.2239 60.206,41.5573 59.5,40.5C 58.1667,38.1667 56.8333,35.8333 55.5,33.5 Z"/></g>
<g><path style="opacity:1" fill="#765a40" d="M 72.5,32.5 C 74.2503,33.6594 75.2503,35.326 75.5,37.5C 75.1667,37.5 74.8333,37.5 74.5,37.5C 72.9272,35.1638 71.5939,35.1638 70.5,37.5C 70.5,36.8333 70.5,36.1667 70.5,35.5C 70.5,34.8333 70.5,34.1667 70.5,33.5C 71.9245,35.0311 72.5912,34.6977 72.5,32.5 Z"/></g>
<g><path style="opacity:1" fill="#643f1c" d="M 70.5,35.5 C 70.5,36.1667 70.5,36.8333 70.5,37.5C 70.7373,38.791 70.404,39.791 69.5,40.5C 69.5654,40.0618 69.3988,39.7284 69,39.5C 68.2208,42.0972 67.7208,42.0972 67.5,39.5C 67.3284,38.5084 67.6618,37.8417 68.5,37.5C 69.1667,36.8333 69.8333,36.1667 70.5,35.5 Z"/></g>
<g><path style="opacity:1" fill="#b88752" d="M 52.5,35.5 C 53.3029,36.4232 53.4696,37.4232 53,38.5C 50.025,37.4046 49.8583,37.7379 52.5,39.5C 53.1408,40.4822 53.8075,41.4822 54.5,42.5C 54.3764,43.1067 54.0431,43.44 53.5,43.5C 52.078,42.075 50.4113,41.075 48.5,40.5C 47.391,40.4431 46.391,40.1098 45.5,39.5C 46.5511,38.7777 47.2178,37.7777 47.5,36.5C 49.0418,35.6993 50.7085,35.366 52.5,35.5 Z"/></g>
<g><path style="opacity:1" fill="#aa7c4c" d="M 52.5,35.5 C 52.8333,35.5 53.1667,35.5 53.5,35.5C 54.8333,36.1667 55.8333,37.1667 56.5,38.5C 55.4937,38.9377 55.4937,39.6043 56.5,40.5C 56.5654,40.9382 56.3988,41.2716 56,41.5C 55.1841,40.1772 54.0174,39.5106 52.5,39.5C 49.8583,37.7379 50.025,37.4046 53,38.5C 53.4696,37.4232 53.3029,36.4232 52.5,35.5 Z"/></g>
<g><path style="opacity:1" fill="#8b6239" d="M 52.5,39.5 C 54.0174,39.5106 55.1841,40.1772 56,41.5C 56.3988,41.2716 56.5654,40.9382 56.5,40.5C 57.9063,40.9731 58.573,41.9731 58.5,43.5C 57.5768,42.6971 56.5768,42.5304 55.5,43C 56.4506,43.7175 56.6172,44.5509 56,45.5C 55.3292,44.7476 54.4959,44.4142 53.5,44.5C 53.5,44.1667 53.5,43.8333 53.5,43.5C 54.0431,43.44 54.3764,43.1067 54.5,42.5C 53.8075,41.4822 53.1408,40.4822 52.5,39.5 Z"/></g>
<g><path style="opacity:1" fill="#6e4825" d="M 65.5,33.5 C 66.1667,33.8333 66.8333,34.1667 67.5,34.5C 67.5569,35.609 67.8902,36.609 68.5,37.5C 67.6618,37.8417 67.3284,38.5084 67.5,39.5C 66.7321,40.2625 66.2321,41.2625 66,42.5C 65.6232,41.0577 64.7899,40.0577 63.5,39.5C 62.0937,39.0269 61.427,38.0269 61.5,36.5C 62.4584,36.9528 63.2917,37.6195 64,38.5C 64.4643,37.9056 64.631,37.2389 64.5,36.5C 65.3635,37.463 66.0302,37.463 66.5,36.5C 65.8728,35.5832 65.5394,34.5832 65.5,33.5 Z"/></g>
<g><path style="opacity:1" fill="#492708" d="M 74.5,37.5 C 74.8333,37.5 75.1667,37.5 75.5,37.5C 75.5569,38.609 75.8902,39.609 76.5,40.5C 75.0813,41.4511 73.4147,41.7845 71.5,41.5C 71.7086,40.0783 72.2086,38.745 73,37.5C 73.69,38.7383 74.19,38.7383 74.5,37.5 Z"/></g>
<g><path style="opacity:1" fill="#724d29" d="M 56.5,38.5 C 57.5,39.1667 58.5,39.8333 59.5,40.5C 60.206,41.5573 60.5393,41.2239 60.5,39.5C 61.1667,39.5 61.5,39.8333 61.5,40.5C 61.4142,41.4959 61.7476,42.3292 62.5,43C 61.5509,43.6172 60.7175,43.4506 60,42.5C 59.3828,43.4491 59.5494,44.2825 60.5,45C 59.5632,45.6917 58.8966,45.525 58.5,44.5C 58.5,44.1667 58.5,43.8333 58.5,43.5C 58.573,41.9731 57.9063,40.9731 56.5,40.5C 55.4937,39.6043 55.4937,38.9377 56.5,38.5 Z"/></g>
<g><path style="opacity:1" fill="#522e0e" d="M 74.5,37.5 C 74.19,38.7383 73.69,38.7383 73,37.5C 72.2086,38.745 71.7086,40.0783 71.5,41.5C 71.5,41.8333 71.5,42.1667 71.5,42.5C 70.8333,42.5 70.1667,42.5 69.5,42.5C 69.5,41.8333 69.5,41.1667 69.5,40.5C 70.404,39.791 70.7373,38.791 70.5,37.5C 71.5939,35.1638 72.9272,35.1638 74.5,37.5 Z"/></g>
<g><path style="opacity:0.639" fill="#847468" d="M 75.5,37.5 C 77.4918,39.5638 79.8252,40.8971 82.5,41.5C 80.3792,41.6747 78.3792,41.3414 76.5,40.5C 75.8902,39.609 75.5569,38.609 75.5,37.5 Z"/></g>
<g><path style="opacity:1" fill="#b78751" d="M 45.5,39.5 C 46.391,40.1098 47.391,40.4431 48.5,40.5C 49.2899,41.7942 50.2899,42.9609 51.5,44C 50.9056,44.4643 50.2389,44.631 49.5,44.5C 49.0269,43.0937 48.0269,42.427 46.5,42.5C 45.391,42.4431 44.391,42.1098 43.5,41.5C 43.8333,40.5 44.5,39.8333 45.5,39.5 Z"/></g>
<g><path style="opacity:1" fill="#7c592b" d="M 76.5,40.5 C 78.3792,41.3414 80.3792,41.6747 82.5,41.5C 84.7857,41.595 86.7857,42.2616 88.5,43.5C 87.1667,43.5 85.8333,43.5 84.5,43.5C 84.1667,43.5 83.8333,43.5 83.5,43.5C 80.7131,42.5233 77.7131,42.19 74.5,42.5C 74.1667,42.5 73.8333,42.5 73.5,42.5C 72.8333,42.5 72.1667,42.5 71.5,42.5C 71.5,42.1667 71.5,41.8333 71.5,41.5C 73.4147,41.7845 75.0813,41.4511 76.5,40.5 Z"/></g>
<g><path style="opacity:1" fill="#553313" d="M 61.5,40.5 C 62.1667,40.8333 62.8333,41.1667 63.5,41.5C 64.2223,42.5511 65.2223,43.2178 66.5,43.5C 66.5,43.8333 66.5,44.1667 66.5,44.5C 64.847,44.6596 63.5137,45.3263 62.5,46.5C 61.5084,46.3284 60.8417,46.6618 60.5,47.5C 58.5,48.1667 56.5,48.8333 54.5,49.5C 54.1667,48.8333 53.8333,48.1667 53.5,47.5C 55.674,47.2503 57.3406,46.2503 58.5,44.5C 58.8966,45.525 59.5632,45.6917 60.5,45C 59.5494,44.2825 59.3828,43.4491 60,42.5C 60.7175,43.4506 61.5509,43.6172 62.5,43C 61.7476,42.3292 61.4142,41.4959 61.5,40.5 Z"/></g>
<g><path style="opacity:1" fill="#49290b" d="M 63.5,39.5 C 64.7899,40.0577 65.6232,41.0577 66,42.5C 66.2321,41.2625 66.7321,40.2625 67.5,39.5C 67.7208,42.0972 68.2208,42.0972 69,39.5C 69.3988,39.7284 69.5654,40.0618 69.5,40.5C 69.5,41.1667 69.5,41.8333 69.5,42.5C 68.8333,42.5 68.5,42.8333 68.5,43.5C 68.1667,43.5 67.8333,43.5 67.5,43.5C 67.1667,43.5 66.8333,43.5 66.5,43.5C 65.2223,43.2178 64.2223,42.5511 63.5,41.5C 63.5,40.8333 63.5,40.1667 63.5,39.5 Z"/></g>
<g><path style="opacity:1" fill="#af852f" d="M 74.5,42.5 C 77.7131,42.19 80.7131,42.5233 83.5,43.5C 82.448,43.3505 81.448,43.5172 80.5,44C 81.6721,44.4186 82.6721,45.0853 83.5,46C 83.2716,46.3988 82.9382,46.5654 82.5,46.5C 80.8333,46.5 79.1667,46.5 77.5,46.5C 76.7784,46.0825 76.2784,45.4158 76,44.5C 75.7216,45.4158 75.2216,46.0825 74.5,46.5C 74.5,45.1667 74.5,43.8333 74.5,42.5 Z"/></g>
<g><path style="opacity:1" fill="#af8861" d="M 47.5,36.5 C 47.2178,37.7777 46.5511,38.7777 45.5,39.5C 44.5,39.8333 43.8333,40.5 43.5,41.5C 43.5271,43.1993 44.1938,44.5326 45.5,45.5C 45.1667,45.5 44.8333,45.5 44.5,45.5C 43.391,45.4431 42.391,45.1098 41.5,44.5C 42.1098,43.609 42.4431,42.609 42.5,41.5C 43.1439,38.856 44.8106,37.1894 47.5,36.5 Z"/></g>
<g><path style="opacity:1" fill="#bc8a53" d="M 43.5,41.5 C 44.391,42.1098 45.391,42.4431 46.5,42.5C 46.9528,43.4584 47.6195,44.2917 48.5,45C 47.552,45.4828 46.552,45.6495 45.5,45.5C 44.1938,44.5326 43.5271,43.1993 43.5,41.5 Z"/></g>
<g><path style="opacity:1" fill="#b18632" d="M 69.5,42.5 C 70.1667,42.5 70.8333,42.5 71.5,42.5C 72.1667,42.5 72.8333,42.5 73.5,42.5C 73.5875,45.5983 73.0875,45.9316 72,43.5C 71.3333,44.8333 70.6667,46.1667 70,47.5C 69.6174,46.944 69.1174,46.6107 68.5,46.5C 68.5,45.5 68.5,44.5 68.5,43.5C 68.5,42.8333 68.8333,42.5 69.5,42.5 Z"/></g>
<g><path style="opacity:1" fill="#b88652" d="M 41.5,44.5 C 42.391,45.1098 43.391,45.4431 44.5,45.5C 44.6107,46.1174 44.944,46.6174 45.5,47C 44.1667,47 42.8333,47 41.5,47C 41.8836,47.9506 42.2169,48.7839 42.5,49.5C 42.1583,50.3382 41.4916,50.6716 40.5,50.5C 40.6716,49.5084 40.3382,48.8417 39.5,48.5C 39.2291,46.6203 39.8958,45.287 41.5,44.5 Z"/></g>
<g><path style="opacity:1" fill="#a07345" d="M 46.5,42.5 C 48.0269,42.427 49.0269,43.0937 49.5,44.5C 52.183,47.4248 51.5163,48.0915 47.5,46.5C 46.3044,46.8457 46.3044,47.3457 47.5,48C 46.255,48.7914 44.9217,49.2914 43.5,49.5C 43.1667,49.5 42.8333,49.5 42.5,49.5C 42.2169,48.7839 41.8836,47.9506 41.5,47C 42.8333,47 44.1667,47 45.5,47C 44.944,46.6174 44.6107,46.1174 44.5,45.5C 44.8333,45.5 45.1667,45.5 45.5,45.5C 46.552,45.6495 47.552,45.4828 48.5,45C 47.6195,44.2917 46.9528,43.4584 46.5,42.5 Z"/></g>
<g><path style="opacity:1" fill="#623d1c" d="M 58.5,43.5 C 58.5,43.8333 58.5,44.1667 58.5,44.5C 57.3406,46.2503 55.674,47.2503 53.5,47.5C 53.9268,46.7384 53.9268,45.7384 53.5,44.5C 54.4959,44.4142 55.3292,44.7476 56,45.5C 56.6172,44.5509 56.4506,43.7175 55.5,43C 56.5768,42.5304 57.5768,42.6971 58.5,43.5 Z"/></g>
<g><path style="opacity:1" fill="#c59b38" d="M 83.5,43.5 C 83.8333,43.5 84.1667,43.5 84.5,43.5C 86.2608,44.3127 87.9275,45.3127 89.5,46.5C 88.1207,46.6715 86.4541,46.8382 84.5,47C 83.7476,47.6708 83.4142,48.5041 83.5,49.5C 83.5,49.8333 83.5,50.1667 83.5,50.5C 83.1667,53.1667 82.8333,53.1667 82.5,50.5C 81.1667,49.1667 81.1667,47.8333 82.5,46.5C 82.9382,46.5654 83.2716,46.3988 83.5,46C 82.6721,45.0853 81.6721,44.4186 80.5,44C 81.448,43.5172 82.448,43.3505 83.5,43.5 Z"/></g>
<g><path style="opacity:1" fill="#b89b44" d="M 84.5,43.5 C 85.8333,43.5 87.1667,43.5 88.5,43.5C 90.5,44.8333 92.5,46.1667 94.5,47.5C 93.8333,47.5 93.1667,47.5 92.5,47.5C 91.391,47.4431 90.391,47.1098 89.5,46.5C 87.9275,45.3127 86.2608,44.3127 84.5,43.5 Z"/></g>
<g><path style="opacity:0.451" fill="#9c8f7d" d="M 88.5,43.5 C 93.0864,44.4598 97.0864,46.4598 100.5,49.5C 100.167,49.5 99.8333,49.5 99.5,49.5C 97.9505,48.5592 96.2838,47.8925 94.5,47.5C 92.5,46.1667 90.5,44.8333 88.5,43.5 Z"/></g>
<g><path style="opacity:0.769" fill="#a58b6f" d="M 42.5,41.5 C 42.4431,42.609 42.1098,43.609 41.5,44.5C 39.8958,45.287 39.2291,46.6203 39.5,48.5C 38.8333,48.5 38.1667,48.5 37.5,48.5C 38.0057,45.329 39.6724,42.9957 42.5,41.5 Z"/></g>
<g><path style="opacity:1" fill="#c39d3e" d="M 62.5,46.5 C 63.1667,46.5 63.5,46.8333 63.5,47.5C 63.016,49.8456 62.6827,52.1789 62.5,54.5C 61.5987,53.7095 60.9321,52.7095 60.5,51.5C 61.3543,50.3684 61.3543,49.035 60.5,47.5C 60.8417,46.6618 61.5084,46.3284 62.5,46.5 Z"/></g>
<g><path style="opacity:1" fill="#d1aa43" d="M 77.5,46.5 C 77.5,46.8333 77.5,47.1667 77.5,47.5C 77.5,48.5 77.5,49.5 77.5,50.5C 76.8423,49.6016 76.1757,48.6016 75.5,47.5C 74.8933,47.6236 74.56,47.9569 74.5,48.5C 73.6365,47.537 72.9698,47.537 72.5,48.5C 73.3721,50.4496 74.0388,52.4496 74.5,54.5C 74.5,54.8333 74.5,55.1667 74.5,55.5C 72.9348,53.4907 71.9348,51.1573 71.5,48.5C 71.8212,46.9519 72.8212,46.2852 74.5,46.5C 75.2216,46.0825 75.7216,45.4158 76,44.5C 76.2784,45.4158 76.7784,46.0825 77.5,46.5 Z"/></g>
<g><path style="opacity:1" fill="#b0832d" d="M 66.5,44.5 C 66.6621,46.5273 66.4955,48.5273 66,50.5C 65.6232,49.0577 64.7899,48.0577 63.5,47.5C 63.5,46.8333 63.1667,46.5 62.5,46.5C 63.5137,45.3263 64.847,44.6596 66.5,44.5 Z"/></g>
<g><path style="opacity:1" fill="#c8a13f" d="M 73.5,42.5 C 73.8333,42.5 74.1667,42.5 74.5,42.5C 74.5,43.8333 74.5,45.1667 74.5,46.5C 72.8212,46.2852 71.8212,46.9519 71.5,48.5C 70.596,49.209 70.2627,50.209 70.5,51.5C 69.4625,50.0697 68.7959,48.403 68.5,46.5C 69.1174,46.6107 69.6174,46.944 70,47.5C 70.6667,46.1667 71.3333,44.8333 72,43.5C 73.0875,45.9316 73.5875,45.5983 73.5,42.5 Z"/></g>
<g><path style="opacity:1" fill="#7c552f" d="M 48.5,40.5 C 50.4113,41.075 52.078,42.075 53.5,43.5C 53.5,43.8333 53.5,44.1667 53.5,44.5C 53.9268,45.7384 53.9268,46.7384 53.5,47.5C 53.8333,48.1667 54.1667,48.8333 54.5,49.5C 53.5,49.5 52.5,49.5 51.5,49.5C 51.44,48.9569 51.1067,48.6236 50.5,48.5C 48.8333,49.3333 47.1667,50.1667 45.5,51C 46.056,51.3826 46.3893,51.8826 46.5,52.5C 45.8333,52.5 45.1667,52.5 44.5,52.5C 44.5,52.1667 44.5,51.8333 44.5,51.5C 44.1667,50.8333 43.8333,50.1667 43.5,49.5C 44.9217,49.2914 46.255,48.7914 47.5,48C 46.3044,47.3457 46.3044,46.8457 47.5,46.5C 51.5163,48.0915 52.183,47.4248 49.5,44.5C 50.2389,44.631 50.9056,44.4643 51.5,44C 50.2899,42.9609 49.2899,41.7942 48.5,40.5 Z"/></g>
<g><path style="opacity:1" fill="#b1842c" d="M 67.5,43.5 C 67.8333,43.5 68.1667,43.5 68.5,43.5C 68.5,44.5 68.5,45.5 68.5,46.5C 68.7959,48.403 69.4625,50.0697 70.5,51.5C 70.1583,52.3382 69.4916,52.6716 68.5,52.5C 67.701,49.5701 67.3677,46.5701 67.5,43.5 Z"/></g>
<g><path style="opacity:1" fill="#b68b30" d="M 89.5,46.5 C 90.391,47.1098 91.391,47.4431 92.5,47.5C 93.1098,48.391 93.4431,49.391 93.5,50.5C 93.1667,50.5 92.8333,50.5 92.5,50.5C 92.1583,49.6618 91.4916,49.3284 90.5,49.5C 88.477,49.2847 86.1437,49.2847 83.5,49.5C 83.4142,48.5041 83.7476,47.6708 84.5,47C 86.4541,46.8382 88.1207,46.6715 89.5,46.5 Z"/></g>
<g><path style="opacity:1" fill="#bd9333" d="M 74.5,48.5 C 75.2341,49.7079 75.5674,51.0413 75.5,52.5C 75.6716,53.4916 75.3382,54.1583 74.5,54.5C 74.0388,52.4496 73.3721,50.4496 72.5,48.5C 72.9698,47.537 73.6365,47.537 74.5,48.5 Z"/></g>
<g><path style="opacity:1" fill="#bf9535" d="M 77.5,47.5 C 78.397,48.5981 79.2303,48.5981 80,47.5C 79.5241,49.3201 79.6907,50.9867 80.5,52.5C 80.2627,53.791 80.596,54.791 81.5,55.5C 81.5,56.8333 80.8333,57.5 79.5,57.5C 78.8333,55.1667 78.1667,52.8333 77.5,50.5C 77.5,49.5 77.5,48.5 77.5,47.5 Z"/></g>
<g><path style="opacity:1" fill="#d3aa41" d="M 77.5,47.5 C 77.5,47.1667 77.5,46.8333 77.5,46.5C 79.1667,46.5 80.8333,46.5 82.5,46.5C 81.1667,47.8333 81.1667,49.1667 82.5,50.5C 81.1667,50.5 80.5,51.1667 80.5,52.5C 79.6907,50.9867 79.5241,49.3201 80,47.5C 79.2303,48.5981 78.397,48.5981 77.5,47.5 Z"/></g>
<g><path style="opacity:1" fill="#c39c40" d="M 92.5,47.5 C 93.1667,47.5 93.8333,47.5 94.5,47.5C 96.2838,47.8925 97.9505,48.5592 99.5,49.5C 99.5,50.5 99.5,51.5 99.5,52.5C 99.1667,52.5 98.8333,52.5 98.5,52.5C 96.8868,52.0557 95.7202,51.0557 95,49.5C 94.7216,50.4158 94.2216,51.0825 93.5,51.5C 93.5,51.1667 93.5,50.8333 93.5,50.5C 93.4431,49.391 93.1098,48.391 92.5,47.5 Z"/></g>
<g><path style="opacity:1" fill="#b78652" d="M 37.5,48.5 C 38.1667,48.5 38.8333,48.5 39.5,48.5C 40.3382,48.8417 40.6716,49.5084 40.5,50.5C 38.9028,51.0905 37.5695,52.0905 36.5,53.5C 36.1667,53.1667 35.8333,52.8333 35.5,52.5C 36.6302,51.3777 37.2969,50.0443 37.5,48.5 Z"/></g>
<g><path style="opacity:1" fill="#b68e39" d="M 60.5,47.5 C 61.3543,49.035 61.3543,50.3684 60.5,51.5C 60.5,50.8333 60.1667,50.5 59.5,50.5C 58.6618,50.8417 58.3284,51.5084 58.5,52.5C 56.8007,52.4729 55.4674,51.8062 54.5,50.5C 54.5,50.1667 54.5,49.8333 54.5,49.5C 56.5,48.8333 58.5,48.1667 60.5,47.5 Z"/></g>
<g><path style="opacity:1" fill="#cfa946" d="M 66.5,43.5 C 66.8333,43.5 67.1667,43.5 67.5,43.5C 67.3677,46.5701 67.701,49.5701 68.5,52.5C 68.5,52.8333 68.5,53.1667 68.5,53.5C 67.7784,53.0825 67.2784,52.4158 67,51.5C 66.6667,52.5 66.3333,53.5 66,54.5C 64.8638,52.257 64.0305,49.9237 63.5,47.5C 64.7899,48.0577 65.6232,49.0577 66,50.5C 66.4955,48.5273 66.6621,46.5273 66.5,44.5C 66.5,44.1667 66.5,43.8333 66.5,43.5 Z"/></g>
<g><path style="opacity:1" fill="#936d49" d="M 37.5,48.5 C 37.2969,50.0443 36.6302,51.3777 35.5,52.5C 35.8333,52.8333 36.1667,53.1667 36.5,53.5C 37.5695,52.0905 38.9028,51.0905 40.5,50.5C 41.4916,50.6716 42.1583,50.3382 42.5,49.5C 42.8333,49.5 43.1667,49.5 43.5,49.5C 43.8333,50.1667 44.1667,50.8333 44.5,51.5C 41.821,51.5246 40.4877,52.858 40.5,55.5C 39.5,55.5 38.5,55.5 37.5,55.5C 35.5159,55.516 34.5159,54.516 34.5,52.5C 34.7538,50.5828 35.7538,49.2495 37.5,48.5 Z"/></g>
<g><path style="opacity:1" fill="#523212" d="M 51.5,49.5 C 52.5,49.5 53.5,49.5 54.5,49.5C 54.5,49.8333 54.5,50.1667 54.5,50.5C 53.5,50.8333 52.8333,51.5 52.5,52.5C 50.9382,52.7329 49.6049,53.3995 48.5,54.5C 48.5,54.1667 48.5,53.8333 48.5,53.5C 48.3893,52.8826 48.056,52.3826 47.5,52C 49.0664,51.3918 50.3998,50.5585 51.5,49.5 Z"/></g>
<g><path style="opacity:1" fill="#c79e3b" d="M 82.5,50.5 C 82.8333,53.1667 83.1667,53.1667 83.5,50.5C 85.0481,50.8212 85.7148,51.8212 85.5,53.5C 84.5084,53.3284 83.8417,53.6618 83.5,54.5C 82.8333,54.5 82.5,54.8333 82.5,55.5C 82.1667,55.5 81.8333,55.5 81.5,55.5C 80.596,54.791 80.2627,53.791 80.5,52.5C 80.5,51.1667 81.1667,50.5 82.5,50.5 Z"/></g>
<g><path style="opacity:1" fill="#d1a940" d="M 90.5,49.5 C 89.2825,50.1614 87.9492,50.8281 86.5,51.5C 87.5,51.8333 88.5,52.1667 89.5,52.5C 91.0296,52.3601 92.0296,51.6935 92.5,50.5C 92.8333,50.5 93.1667,50.5 93.5,50.5C 93.5,50.8333 93.5,51.1667 93.5,51.5C 93.5,51.8333 93.5,52.1667 93.5,52.5C 93.1583,53.3382 92.4916,53.6716 91.5,53.5C 89.5,53.5 87.5,53.5 85.5,53.5C 85.7148,51.8212 85.0481,50.8212 83.5,50.5C 83.5,50.1667 83.5,49.8333 83.5,49.5C 86.1437,49.2847 88.477,49.2847 90.5,49.5 Z"/></g>
<g><path style="opacity:1" fill="#c29838" d="M 90.5,49.5 C 91.4916,49.3284 92.1583,49.6618 92.5,50.5C 92.0296,51.6935 91.0296,52.3601 89.5,52.5C 88.5,52.1667 87.5,51.8333 86.5,51.5C 87.9492,50.8281 89.2825,50.1614 90.5,49.5 Z"/></g>
<g><path style="opacity:1" fill="#ad9275" d="M 7.5,50.5 C 6.83333,50.5 6.5,50.8333 6.5,51.5C 6.5,54.1667 6.5,56.8333 6.5,59.5C 4.71912,56.8166 4.21912,53.8166 5,50.5C 5.97722,49.2264 6.81056,49.2264 7.5,50.5 Z"/></g>
<g><path style="opacity:0.588" fill="#99836e" d="M 9.5,50.5 C 13.4201,51.1266 16.7534,52.7933 19.5,55.5C 18.8333,55.5 18.1667,55.5 17.5,55.5C 16.3951,54.3995 15.0618,53.7329 13.5,53.5C 12.1667,52.5 10.8333,51.5 9.5,50.5 Z"/></g>
<g><path style="opacity:1" fill="#6e4825" d="M 44.5,51.5 C 44.5,51.8333 44.5,52.1667 44.5,52.5C 43.8333,53.5 43.1667,54.5 42.5,55.5C 41.8333,55.5 41.1667,55.5 40.5,55.5C 40.4877,52.858 41.821,51.5246 44.5,51.5 Z"/></g>
<g><path style="opacity:1" fill="#5f3b1a" d="M 51.5,49.5 C 50.3998,50.5585 49.0664,51.3918 47.5,52C 48.056,52.3826 48.3893,52.8826 48.5,53.5C 47.5084,53.6716 46.8417,53.3382 46.5,52.5C 46.3893,51.8826 46.056,51.3826 45.5,51C 47.1667,50.1667 48.8333,49.3333 50.5,48.5C 51.1067,48.6236 51.44,48.9569 51.5,49.5 Z"/></g>
<g><path style="opacity:1" fill="#4f2e13" d="M 44.5,52.5 C 45.1667,52.5 45.8333,52.5 46.5,52.5C 46.8417,53.3382 47.5084,53.6716 48.5,53.5C 48.5,53.8333 48.5,54.1667 48.5,54.5C 47.1283,55.5116 45.795,56.5116 44.5,57.5C 44.1583,58.3382 43.4916,58.6716 42.5,58.5C 43.8333,57.5 43.8333,56.5 42.5,55.5C 43.1667,54.5 43.8333,53.5 44.5,52.5 Z"/></g>
<g><path style="opacity:1" fill="#b18327" d="M 59.5,50.5 C 59.8664,52.905 60.5331,55.2383 61.5,57.5C 61.3333,58.1667 61.1667,58.8333 61,59.5C 60.7216,58.5842 60.2216,57.9175 59.5,57.5C 59.3713,55.7839 59.038,54.1172 58.5,52.5C 58.3284,51.5084 58.6618,50.8417 59.5,50.5 Z"/></g>
<g><path style="opacity:1" fill="#b5882c" d="M 77.5,50.5 C 78.1667,52.8333 78.8333,55.1667 79.5,57.5C 78.8333,57.5 78.1667,57.5 77.5,57.5C 77.5979,55.4471 76.9313,53.7804 75.5,52.5C 75.5674,51.0413 75.2341,49.7079 74.5,48.5C 74.56,47.9569 74.8933,47.6236 75.5,47.5C 76.1757,48.6016 76.8423,49.6016 77.5,50.5 Z"/></g>
<g><path style="opacity:1" fill="#b4862b" d="M 98.5,52.5 C 98.1667,53.1667 97.8333,53.8333 97.5,54.5C 97.631,55.2389 97.4643,55.9056 97,56.5C 96.5518,54.7756 95.7185,54.109 94.5,54.5C 95.981,53.056 95.6477,52.3894 93.5,52.5C 93.5,52.1667 93.5,51.8333 93.5,51.5C 94.2216,51.0825 94.7216,50.4158 95,49.5C 95.7202,51.0557 96.8868,52.0557 98.5,52.5 Z"/></g>
<g><path style="opacity:1" fill="#b5872e" d="M 98.5,52.5 C 98.8333,52.5 99.1667,52.5 99.5,52.5C 102.336,52.8373 103.002,54.1707 101.5,56.5C 100.094,56.9731 99.427,57.9731 99.5,59.5C 98.6236,59.6309 97.9569,59.2975 97.5,58.5C 98.7053,57.0052 98.7053,55.6719 97.5,54.5C 97.8333,53.8333 98.1667,53.1667 98.5,52.5 Z"/></g>
<g><path style="opacity:1" fill="#a6794b" d="M 6.5,51.5 C 6.5,50.8333 6.83333,50.5 7.5,50.5C 8.16667,50.5 8.83333,50.5 9.5,50.5C 10.8333,51.5 12.1667,52.5 13.5,53.5C 13.5,55.1667 13.5,56.8333 13.5,58.5C 11.8599,57.6799 10.1932,56.8466 8.5,56C 8.83333,55.6667 9.16667,55.3333 9.5,55C 9.02568,53.2714 8.02568,52.1047 6.5,51.5 Z"/></g>
<g><path style="opacity:1" fill="#b68a2e" d="M 63.5,47.5 C 64.0305,49.9237 64.8638,52.257 66,54.5C 66.3333,53.5 66.6667,52.5 67,51.5C 67.2784,52.4158 67.7784,53.0825 68.5,53.5C 67.8333,54.8333 67.1667,56.1667 66.5,57.5C 66.5,58.1667 66.1667,58.5 65.5,58.5C 65.631,57.7611 65.4643,57.0944 65,56.5C 64.6667,57.5 64.3333,58.5 64,59.5C 62.9914,57.9751 62.4914,56.3084 62.5,54.5C 62.6827,52.1789 63.016,49.8456 63.5,47.5 Z"/></g>
<g><path style="opacity:1" fill="#c8a13e" d="M 75.5,52.5 C 76.9313,53.7804 77.5979,55.4471 77.5,57.5C 76.5,57.5 75.5,57.5 74.5,57.5C 74.5,56.8333 74.5,56.1667 74.5,55.5C 74.5,55.1667 74.5,54.8333 74.5,54.5C 75.3382,54.1583 75.6716,53.4916 75.5,52.5 Z"/></g>
<g><path style="opacity:1" fill="#c69c37" d="M 83.5,54.5 C 84.8333,54.5 86.1667,54.5 87.5,54.5C 87.5,55.5 87.5,56.5 87.5,57.5C 85.2188,57.9227 83.5521,57.256 82.5,55.5C 82.5,54.8333 82.8333,54.5 83.5,54.5 Z"/></g>
<g><path style="opacity:1" fill="#b98f33" d="M 83.5,54.5 C 83.8417,53.6618 84.5084,53.3284 85.5,53.5C 87.5,53.5 89.5,53.5 91.5,53.5C 91.4326,54.9587 91.7659,56.2921 92.5,57.5C 91.1667,57.5 89.8333,57.5 88.5,57.5C 91.3382,55.6941 91.0048,54.6941 87.5,54.5C 86.1667,54.5 84.8333,54.5 83.5,54.5 Z"/></g>
<g><path style="opacity:1" fill="#c9a03c" d="M 93.5,52.5 C 95.6477,52.3894 95.981,53.056 94.5,54.5C 95.7185,54.109 96.5518,54.7756 97,56.5C 97.4643,55.9056 97.631,55.2389 97.5,54.5C 98.7053,55.6719 98.7053,57.0052 97.5,58.5C 97.9569,59.2975 98.6236,59.6309 99.5,59.5C 99.5,59.8333 99.5,60.1667 99.5,60.5C 97.5,60.1667 95.5,59.8333 93.5,59.5C 93.6716,58.5084 93.3382,57.8417 92.5,57.5C 91.7659,56.2921 91.4326,54.9587 91.5,53.5C 92.4916,53.6716 93.1583,53.3382 93.5,52.5 Z"/></g>
<g><path style="opacity:0.553" fill="#8c7667" d="M 102.5,50.5 C 107.205,52.8527 111.872,55.1861 116.5,57.5C 115.041,57.5674 113.708,57.2341 112.5,56.5C 111.391,56.4431 110.391,56.1098 109.5,55.5C 109.167,55.5 108.833,55.5 108.5,55.5C 107.101,54.1103 105.434,53.1103 103.5,52.5C 103.167,51.8333 102.833,51.1667 102.5,50.5 Z"/></g>
<g><path style="opacity:1" fill="#b58551" d="M 6.5,51.5 C 8.02568,52.1047 9.02568,53.2714 9.5,55C 9.16667,55.3333 8.83333,55.6667 8.5,56C 10.1932,56.8466 11.8599,57.6799 13.5,58.5C 14.1667,58.5 14.5,58.8333 14.5,59.5C 13.0783,59.7086 11.745,60.2086 10.5,61C 12.6192,61.3418 12.9526,62.1751 11.5,63.5C 11.1667,63.5 10.8333,63.5 10.5,63.5C 9.97168,62.2794 9.30501,61.1127 8.5,60C 8.83333,59.6667 9.16667,59.3333 9.5,59C 8.42317,58.5304 7.42317,58.6971 6.5,59.5C 6.5,56.8333 6.5,54.1667 6.5,51.5 Z"/></g>
<g><path style="opacity:1" fill="#9d7246" d="M 13.5,53.5 C 15.0618,53.7329 16.3951,54.3995 17.5,55.5C 17.3893,56.1174 17.056,56.6174 16.5,57C 17.4158,57.2784 18.0825,57.7784 18.5,58.5C 17.8333,58.8333 17.1667,59.1667 16.5,59.5C 15.8333,59.5 15.1667,59.5 14.5,59.5C 14.5,58.8333 14.1667,58.5 13.5,58.5C 13.5,56.8333 13.5,55.1667 13.5,53.5 Z"/></g>
<g><path style="opacity:0.682" fill="#8e837b" d="M 37.5,55.5 C 38.5,55.5 39.5,55.5 40.5,55.5C 41.1667,55.5 41.8333,55.5 42.5,55.5C 43.8333,56.5 43.8333,57.5 42.5,58.5C 41.8333,58.5 41.5,58.8333 41.5,59.5C 40.5,59.5 39.5,59.5 38.5,59.5C 39.4293,58.6851 40.4293,57.8518 41.5,57C 39.9419,56.79 38.6085,56.29 37.5,55.5 Z"/></g>
<g><path style="opacity:1" fill="#b68f38" d="M 52.5,52.5 C 52.5,53.8333 52.5,55.1667 52.5,56.5C 50.8212,56.2852 49.8212,56.9519 49.5,58.5C 48.6043,57.4937 47.9377,57.4937 47.5,58.5C 46.609,57.8902 45.609,57.5569 44.5,57.5C 45.795,56.5116 47.1283,55.5116 48.5,54.5C 49.6049,53.3995 50.9382,52.7329 52.5,52.5 Z"/></g>
<g><path style="opacity:1" fill="#ba9033" d="M 54.5,50.5 C 54.4621,53.1813 55.1287,55.6813 56.5,58C 56.3166,59.6836 55.6499,59.8502 54.5,58.5C 53.5084,58.6716 52.8417,58.3382 52.5,57.5C 53.3764,57.6309 54.0431,57.2975 54.5,56.5C 54.0057,54.9745 53.339,53.6412 52.5,52.5C 52.8333,51.5 53.5,50.8333 54.5,50.5 Z"/></g>
<g><path style="opacity:1" fill="#d1aa42" d="M 68.5,53.5 C 69.7709,55.1086 70.7709,56.9419 71.5,59C 71.2716,59.3988 70.9382,59.5654 70.5,59.5C 70.1667,59.5 69.8333,59.5 69.5,59.5C 69.5875,56.4017 69.0875,56.0684 68,58.5C 67.6174,57.944 67.1174,57.6107 66.5,57.5C 67.1667,56.1667 67.8333,54.8333 68.5,53.5 Z"/></g>
<g><path style="opacity:1" fill="#c09839" d="M 71.5,48.5 C 71.9348,51.1573 72.9348,53.4907 74.5,55.5C 74.5,56.1667 74.5,56.8333 74.5,57.5C 74.5,57.8333 74.5,58.1667 74.5,58.5C 74.7947,60.7354 74.4614,62.7354 73.5,64.5C 74.0706,59.1488 73.0706,58.4822 70.5,62.5C 70.5,61.5 70.5,60.5 70.5,59.5C 70.9382,59.5654 71.2716,59.3988 71.5,59C 70.7709,56.9419 69.7709,55.1086 68.5,53.5C 68.5,53.1667 68.5,52.8333 68.5,52.5C 69.4916,52.6716 70.1583,52.3382 70.5,51.5C 70.2627,50.209 70.596,49.209 71.5,48.5 Z"/></g>
<g><path style="opacity:1" fill="#8f5918" d="M 99.5,49.5 C 99.8333,49.5 100.167,49.5 100.5,49.5C 101.492,49.3284 102.158,49.6618 102.5,50.5C 102.833,51.1667 103.167,51.8333 103.5,52.5C 104.174,54.0245 105.174,55.3578 106.5,56.5C 105.147,57.5237 104.48,58.857 104.5,60.5C 103.857,58.9236 102.857,57.5903 101.5,56.5C 103.002,54.1707 102.336,52.8373 99.5,52.5C 99.5,51.5 99.5,50.5 99.5,49.5 Z"/></g>
<g><path style="opacity:1" fill="#8c6b4c" d="M 17.5,55.5 C 18.1667,55.5 18.8333,55.5 19.5,55.5C 22.3311,56.0787 24.6644,57.412 26.5,59.5C 24.8333,59.5 23.1667,59.5 21.5,59.5C 20.609,58.8902 19.609,58.5569 18.5,58.5C 18.0825,57.7784 17.4158,57.2784 16.5,57C 17.056,56.6174 17.3893,56.1174 17.5,55.5 Z"/></g>
<g><path style="opacity:1" fill="#cea63e" d="M 52.5,52.5 C 53.339,53.6412 54.0057,54.9745 54.5,56.5C 54.0431,57.2975 53.3764,57.6309 52.5,57.5C 51.5084,57.3284 50.8417,57.6618 50.5,58.5C 50.1667,58.5 49.8333,58.5 49.5,58.5C 49.8212,56.9519 50.8212,56.2852 52.5,56.5C 52.5,55.1667 52.5,53.8333 52.5,52.5 Z"/></g>
<g><path style="opacity:1" fill="#804707" d="M 109.5,55.5 C 110.391,56.1098 111.391,56.4431 112.5,56.5C 111.261,57.212 110.761,58.212 111,59.5C 113.64,57.9003 115.807,58.2336 117.5,60.5C 114.917,59.0623 112.583,59.3956 110.5,61.5C 110.167,60.5 109.5,59.8333 108.5,59.5C 108.433,58.0413 108.766,56.7079 109.5,55.5 Z"/></g>
<g><path style="opacity:1" fill="#cfa840" d="M 87.5,54.5 C 91.0048,54.6941 91.3382,55.6941 88.5,57.5C 88.5,57.8333 88.5,58.1667 88.5,58.5C 87.603,59.5981 86.7697,59.5981 86,58.5C 85.5172,59.448 85.3505,60.448 85.5,61.5C 84.8333,61.5 84.1667,61.5 83.5,61.5C 84.4944,58.6008 83.4944,57.9341 80.5,59.5C 78.549,59.2267 77.049,59.8934 76,61.5C 75.7679,60.2625 75.2679,59.2625 74.5,58.5C 74.5,58.1667 74.5,57.8333 74.5,57.5C 75.5,57.5 76.5,57.5 77.5,57.5C 78.1667,57.5 78.8333,57.5 79.5,57.5C 80.8333,57.5 81.5,56.8333 81.5,55.5C 81.8333,55.5 82.1667,55.5 82.5,55.5C 83.5521,57.256 85.2188,57.9227 87.5,57.5C 87.5,56.5 87.5,55.5 87.5,54.5 Z"/></g>
<g><path style="opacity:1" fill="#d0a943" d="M 88.5,57.5 C 89.8333,57.5 91.1667,57.5 92.5,57.5C 93.3382,57.8417 93.6716,58.5084 93.5,59.5C 94.8333,60.8333 96.1667,62.1667 97.5,63.5C 95.8828,62.962 94.2161,62.6287 92.5,62.5C 92.5432,58.1074 92.0432,57.7741 91,61.5C 90.3333,57.5 89.6667,57.5 89,61.5C 88.5172,60.552 88.3505,59.552 88.5,58.5C 88.5,58.1667 88.5,57.8333 88.5,57.5 Z"/></g>
<g><path style="opacity:1" fill="#76450e" d="M 103.5,52.5 C 105.434,53.1103 107.101,54.1103 108.5,55.5C 106.409,58.2304 106.076,61.2304 107.5,64.5C 106.026,63.5637 105.026,62.2303 104.5,60.5C 104.48,58.857 105.147,57.5237 106.5,56.5C 105.174,55.3578 104.174,54.0245 103.5,52.5 Z"/></g>
<g><path style="opacity:1" fill="#4e2a07" d="M 108.5,55.5 C 108.833,55.5 109.167,55.5 109.5,55.5C 108.766,56.7079 108.433,58.0413 108.5,59.5C 108.5,60.1667 108.5,60.8333 108.5,61.5C 108.5,62.5 108.5,63.5 108.5,64.5C 108.167,64.5 107.833,64.5 107.5,64.5C 106.076,61.2304 106.409,58.2304 108.5,55.5 Z"/></g>
<g><path style="opacity:1" fill="#6f4625" d="M 112.5,56.5 C 113.708,57.2341 115.041,57.5674 116.5,57.5C 118.674,57.7497 120.341,58.7497 121.5,60.5C 120.504,60.5858 119.671,60.2524 119,59.5C 118.536,60.0944 118.369,60.7611 118.5,61.5C 118.167,61.5 117.833,61.5 117.5,61.5C 117.5,61.1667 117.5,60.8333 117.5,60.5C 115.807,58.2336 113.64,57.9003 111,59.5C 110.761,58.212 111.261,57.212 112.5,56.5 Z"/></g>
<g><path style="opacity:1" fill="#b48f6a" d="M 10.5,63.5 C 9.59603,64.209 9.26269,65.209 9.5,66.5C 7.70732,64.5739 6.70732,62.2406 6.5,59.5C 7.42317,58.6971 8.42317,58.5304 9.5,59C 9.16667,59.3333 8.83333,59.6667 8.5,60C 9.30501,61.1127 9.97168,62.2794 10.5,63.5 Z"/></g>
<g><path style="opacity:1" fill="#cca43e" d="M 49.5,58.5 C 49.8333,58.5 50.1667,58.5 50.5,58.5C 51.2625,59.2679 52.2625,59.7679 53.5,60C 51.273,60.704 50.9397,61.8706 52.5,63.5C 52.1667,63.5 51.8333,63.5 51.5,63.5C 50.5,63.5 49.5,63.5 48.5,63.5C 48.634,61.7085 48.3007,60.0418 47.5,58.5C 47.9377,57.4937 48.6043,57.4937 49.5,58.5 Z"/></g>
<g><path style="opacity:1" fill="#c29939" d="M 69.5,59.5 C 69.3068,63.449 68.8068,63.449 68,59.5C 67.5045,61.4727 67.3379,63.4727 67.5,65.5C 67.5,66.5 67.5,67.5 67.5,68.5C 66.5,68.5 65.5,68.5 64.5,68.5C 66.2788,65.8846 66.9454,63.2179 66.5,60.5C 66.1667,59.8333 65.8333,59.1667 65.5,58.5C 66.1667,58.5 66.5,58.1667 66.5,57.5C 67.1174,57.6107 67.6174,57.944 68,58.5C 69.0875,56.0684 69.5875,56.4017 69.5,59.5 Z"/></g>
<g><path style="opacity:1" fill="#976d44" d="M 18.5,58.5 C 19.609,58.5569 20.609,58.8902 21.5,59.5C 21.6716,60.4916 21.3382,61.1583 20.5,61.5C 18.847,61.3404 17.5137,60.6737 16.5,59.5C 17.1667,59.1667 17.8333,58.8333 18.5,58.5 Z"/></g>
<g><path style="opacity:1" fill="#be9738" d="M 44.5,57.5 C 45.609,57.5569 46.609,57.8902 47.5,58.5C 48.3007,60.0418 48.634,61.7085 48.5,63.5C 47.7321,62.7375 47.2321,61.7375 47,60.5C 46.7508,61.624 46.2508,62.624 45.5,63.5C 44.8933,63.3764 44.56,63.0431 44.5,62.5C 45.404,61.791 45.7373,60.791 45.5,59.5C 44.1667,59.5 42.8333,59.5 41.5,59.5C 41.5,58.8333 41.8333,58.5 42.5,58.5C 43.4916,58.6716 44.1583,58.3382 44.5,57.5 Z"/></g>
<g><path style="opacity:1" fill="#cea741" d="M 54.5,50.5 C 55.4674,51.8062 56.8007,52.4729 58.5,52.5C 59.038,54.1172 59.3713,55.7839 59.5,57.5C 58.7784,57.0825 58.2784,56.4158 58,55.5C 57.9504,57.744 57.1171,59.4107 55.5,60.5C 54.6618,60.1583 54.3284,59.4916 54.5,58.5C 55.6499,59.8502 56.3166,59.6836 56.5,58C 55.1287,55.6813 54.4621,53.1813 54.5,50.5 Z"/></g>
<g><path style="opacity:1" fill="#cda743" d="M 59.5,50.5 C 60.1667,50.5 60.5,50.8333 60.5,51.5C 60.9321,52.7095 61.5987,53.7095 62.5,54.5C 62.4914,56.3084 62.9914,57.9751 64,59.5C 64.3333,58.5 64.6667,57.5 65,56.5C 65.4643,57.0944 65.631,57.7611 65.5,58.5C 65.8333,59.1667 66.1667,59.8333 66.5,60.5C 65.0689,60.8807 64.2355,61.8807 64,63.5C 63.6667,62.5 63.3333,61.5 63,60.5C 62.5065,62.1341 62.3398,63.8008 62.5,65.5C 61.2247,63.7421 60.2247,62.0754 59.5,60.5C 59.5,59.5 59.5,58.5 59.5,57.5C 60.2216,57.9175 60.7216,58.5842 61,59.5C 61.1667,58.8333 61.3333,58.1667 61.5,57.5C 60.5331,55.2383 59.8664,52.905 59.5,50.5 Z"/></g>
<g><path style="opacity:1" fill="#ac8e6d" d="M 117.5,60.5 C 117.5,60.8333 117.5,61.1667 117.5,61.5C 117.5,62.5 117.5,63.5 117.5,64.5C 116.25,64.4226 115.417,63.756 115,62.5C 113.955,63.3734 113.122,64.3734 112.5,65.5C 112.167,65.5 111.833,65.5 111.5,65.5C 110.766,64.2921 110.433,62.9587 110.5,61.5C 112.583,59.3956 114.917,59.0623 117.5,60.5 Z"/></g>
<g><path style="opacity:0.031" fill="#a8a69c" d="M 27.5,59.5 C 28.7079,60.2341 30.0413,60.5674 31.5,60.5C 30.1667,61.8333 28.8333,61.8333 27.5,60.5C 27.5,60.1667 27.5,59.8333 27.5,59.5 Z"/></g>
<g><path style="opacity:1" fill="#877357" d="M 38.5,59.5 C 39.5,59.5 40.5,59.5 41.5,59.5C 40.5,60.1667 39.5,60.8333 38.5,61.5C 37.8333,61.5 37.1667,61.5 36.5,61.5C 35.8333,61.5 35.1667,61.5 34.5,61.5C 33.5084,61.6716 32.8417,61.3382 32.5,60.5C 34.5648,60.4828 36.5648,60.1495 38.5,59.5 Z"/></g>
<g><path style="opacity:1" fill="#c7a03c" d="M 41.5,59.5 C 42.8333,59.5 44.1667,59.5 45.5,59.5C 45.7373,60.791 45.404,61.791 44.5,62.5C 42.544,60.8249 41.2107,61.1582 40.5,63.5C 39.8333,62.8333 39.1667,62.1667 38.5,61.5C 39.5,60.8333 40.5,60.1667 41.5,59.5 Z"/></g>
<g><path style="opacity:1" fill="#c19837" d="M 52.5,57.5 C 52.8417,58.3382 53.5084,58.6716 54.5,58.5C 54.3284,59.4916 54.6618,60.1583 55.5,60.5C 55.8333,61.1667 56.1667,61.8333 56.5,62.5C 55.209,62.2627 54.209,62.596 53.5,63.5C 53.1667,63.5 52.8333,63.5 52.5,63.5C 50.9397,61.8706 51.273,60.704 53.5,60C 52.2625,59.7679 51.2625,59.2679 50.5,58.5C 50.8417,57.6618 51.5084,57.3284 52.5,57.5 Z"/></g>
<g><path style="opacity:1" fill="#c59e3e" d="M 59.5,57.5 C 59.5,58.5 59.5,59.5 59.5,60.5C 59.5875,63.5983 59.0875,63.9316 58,61.5C 57.5065,63.1341 57.3398,64.8008 57.5,66.5C 56.5655,65.4324 56.2322,64.099 56.5,62.5C 56.1667,61.8333 55.8333,61.1667 55.5,60.5C 57.1171,59.4107 57.9504,57.744 58,55.5C 58.2784,56.4158 58.7784,57.0825 59.5,57.5 Z"/></g>
<g><path style="opacity:1" fill="#ad802a" d="M 73.5,64.5 C 72.6618,64.8417 72.3284,65.5084 72.5,66.5C 70.8958,65.713 70.2291,64.3797 70.5,62.5C 73.0706,58.4822 74.0706,59.1488 73.5,64.5 Z"/></g>
<g><path style="opacity:1" fill="#bd963b" d="M 83.5,61.5 C 82.0222,61.238 80.6888,61.5713 79.5,62.5C 80.5695,62.6399 81.7361,62.6399 83,62.5C 83.4696,63.5768 83.3029,64.5768 82.5,65.5C 81.5,66.8333 80.5,66.8333 79.5,65.5C 79.1667,64.8333 78.8333,64.1667 78.5,63.5C 78.5858,62.5041 78.2524,61.6708 77.5,61C 78.7375,60.7679 79.7375,60.2679 80.5,59.5C 83.4944,57.9341 84.4944,58.6008 83.5,61.5 Z"/></g>
<g><path style="opacity:1" fill="#b48b33" d="M 93.5,59.5 C 95.5,59.8333 97.5,60.1667 99.5,60.5C 98.8902,61.391 98.5569,62.391 98.5,63.5C 98.1667,63.5 97.8333,63.5 97.5,63.5C 96.1667,62.1667 94.8333,60.8333 93.5,59.5 Z"/></g>
<g><path style="opacity:1" fill="#915e16" d="M 101.5,56.5 C 102.857,57.5903 103.857,58.9236 104.5,60.5C 105.026,62.2303 106.026,63.5637 107.5,64.5C 107.833,64.5 108.167,64.5 108.5,64.5C 108.5,65.5 108.5,66.5 108.5,67.5C 107.508,67.6716 106.842,67.3382 106.5,66.5C 104.827,62.8307 102.16,61.8307 98.5,63.5C 98.5569,62.391 98.8902,61.391 99.5,60.5C 99.5,60.1667 99.5,59.8333 99.5,59.5C 99.427,57.9731 100.094,56.9731 101.5,56.5 Z"/></g>
<g><path style="opacity:1" fill="#a47749" d="M 14.5,59.5 C 15.1667,59.5 15.8333,59.5 16.5,59.5C 17.5137,60.6737 18.847,61.3404 20.5,61.5C 20.5,61.8333 20.5,62.1667 20.5,62.5C 19.5,63.1667 18.5,63.8333 17.5,64.5C 16.0413,64.5674 14.7079,64.2341 13.5,63.5C 12.8333,63.5 12.1667,63.5 11.5,63.5C 12.9526,62.1751 12.6192,61.3418 10.5,61C 11.745,60.2086 13.0783,59.7086 14.5,59.5 Z"/></g>
<g><path style="opacity:1" fill="#cfa740" d="M 36.5,61.5 C 37.1667,61.5 37.8333,61.5 38.5,61.5C 39.1667,62.1667 39.8333,62.8333 40.5,63.5C 40.5875,66.5983 40.0875,66.9316 39,64.5C 38.7216,65.4158 38.2216,66.0825 37.5,66.5C 37.6716,65.5084 37.3382,64.8417 36.5,64.5C 36.5,63.5 36.5,62.5 36.5,61.5 Z"/></g>
<g><path style="opacity:1" fill="#a97b28" d="M 83.5,61.5 C 84.1667,61.5 84.8333,61.5 85.5,61.5C 86.4916,61.3284 87.1583,61.6618 87.5,62.5C 86.603,63.5981 85.7697,63.5981 85,62.5C 85.3308,64.0187 85.1641,65.352 84.5,66.5C 84.5654,66.0618 84.3988,65.7284 84,65.5C 83.2208,68.0972 82.7208,68.0972 82.5,65.5C 83.3029,64.5768 83.4696,63.5768 83,62.5C 81.7361,62.6399 80.5695,62.6399 79.5,62.5C 80.6888,61.5713 82.0222,61.238 83.5,61.5 Z"/></g>
<g><path style="opacity:1" fill="#b2862e" d="M 88.5,58.5 C 88.3505,59.552 88.5172,60.552 89,61.5C 89.6667,57.5 90.3333,57.5 91,61.5C 92.0432,57.7741 92.5432,58.1074 92.5,62.5C 90.901,62.2322 89.5676,62.5655 88.5,63.5C 88.5,64.1667 88.5,64.8333 88.5,65.5C 87.8333,65.5 87.5,65.8333 87.5,66.5C 86.6457,65.3684 86.6457,64.035 87.5,62.5C 87.1583,61.6618 86.4916,61.3284 85.5,61.5C 85.3505,60.448 85.5172,59.448 86,58.5C 86.7697,59.5981 87.603,59.5981 88.5,58.5 Z"/></g>
<g><path style="opacity:1" fill="#824807" d="M 117.5,61.5 C 117.833,61.5 118.167,61.5 118.5,61.5C 120.28,62.9899 120.946,64.9899 120.5,67.5C 119.5,66.8333 118.5,66.1667 117.5,65.5C 117.5,65.1667 117.5,64.8333 117.5,64.5C 117.5,63.5 117.5,62.5 117.5,61.5 Z"/></g>
<g><path style="opacity:1" fill="#74512f" d="M 21.5,59.5 C 23.1667,59.5 24.8333,59.5 26.5,59.5C 26.8333,59.5 27.1667,59.5 27.5,59.5C 27.5,59.8333 27.5,60.1667 27.5,60.5C 25.8564,60.8102 24.8564,61.8102 24.5,63.5C 24.1667,63.5 23.8333,63.5 23.5,63.5C 23.1667,63.5 22.8333,63.5 22.5,63.5C 22.1583,62.6618 21.4916,62.3284 20.5,62.5C 20.5,62.1667 20.5,61.8333 20.5,61.5C 21.3382,61.1583 21.6716,60.4916 21.5,59.5 Z"/></g>
<g><path style="opacity:1" fill="#a97a27" d="M 74.5,58.5 C 75.2679,59.2625 75.7679,60.2625 76,61.5C 77.049,59.8934 78.549,59.2267 80.5,59.5C 79.7375,60.2679 78.7375,60.7679 77.5,61C 78.2524,61.6708 78.5858,62.5041 78.5,63.5C 77.3523,62.105 76.3523,62.2716 75.5,64C 77.6192,64.3418 77.9526,65.1751 76.5,66.5C 75.8333,66.5 75.1667,66.5 74.5,66.5C 73.6618,66.1583 73.3284,65.4916 73.5,64.5C 74.4614,62.7354 74.7947,60.7354 74.5,58.5 Z"/></g>
<g><path style="opacity:1" fill="#b38934" d="M 88.5,63.5 C 89.5676,62.5655 90.901,62.2322 92.5,62.5C 94.2161,62.6287 95.8828,62.962 97.5,63.5C 97.5,64.5 97.5,65.5 97.5,66.5C 97.5,66.8333 97.5,67.1667 97.5,67.5C 97.1667,67.5 96.8333,67.5 96.5,67.5C 96.5,66.8333 96.5,66.1667 96.5,65.5C 94.1617,63.9605 91.4951,63.2938 88.5,63.5 Z"/></g>
<g><path style="opacity:1" fill="#9c6e1c" d="M 106.5,66.5 C 104.589,66.4257 103.422,65.4257 103,63.5C 100.901,64.1305 99.0677,65.1305 97.5,66.5C 97.5,65.5 97.5,64.5 97.5,63.5C 97.8333,63.5 98.1667,63.5 98.5,63.5C 102.16,61.8307 104.827,62.8307 106.5,66.5 Z"/></g>
<g><path style="opacity:1" fill="#966b41" d="M 20.5,62.5 C 21.4916,62.3284 22.1583,62.6618 22.5,63.5C 21.6586,65.3792 21.3253,67.3792 21.5,69.5C 20.8333,69.5 20.1667,69.5 19.5,69.5C 18.5,69.5 17.5,69.5 16.5,69.5C 17.5736,68.1154 18.9069,66.9487 20.5,66C 19.2625,65.7679 18.2625,65.2679 17.5,64.5C 18.5,63.8333 19.5,63.1667 20.5,62.5 Z"/></g>
<g><path style="opacity:1" fill="#b78f36" d="M 34.5,61.5 C 35.1667,61.5 35.8333,61.5 36.5,61.5C 36.5,62.5 36.5,63.5 36.5,64.5C 35.1765,63.1501 34.1765,63.3167 33.5,65C 35.0128,66.8792 35.6795,69.0459 35.5,71.5C 34.7321,70.7375 34.2321,69.7375 34,68.5C 33.5172,69.448 33.3505,70.448 33.5,71.5C 31.901,71.2322 30.5676,71.5655 29.5,72.5C 28.6618,72.1583 28.3284,71.4916 28.5,70.5C 28.3284,69.5084 28.6618,68.8417 29.5,68.5C 29.8212,70.0481 30.8212,70.7148 32.5,70.5C 32.5,69.1667 32.5,67.8333 32.5,66.5C 32.5,65.5 32.5,64.5 32.5,63.5C 30.6776,63.8308 29.0109,64.4975 27.5,65.5C 27.8039,64.8501 28.1373,64.1835 28.5,63.5C 30.6309,62.8313 32.6309,62.1646 34.5,61.5 Z"/></g>
<g><path style="opacity:1" fill="#d0a83f" d="M 48.5,63.5 C 48.5,63.8333 48.5,64.1667 48.5,64.5C 46.7085,64.366 45.0418,64.6993 43.5,65.5C 43.1667,62.8333 42.8333,62.8333 42.5,65.5C 41.8333,64.8333 41.1667,64.1667 40.5,63.5C 41.2107,61.1582 42.544,60.8249 44.5,62.5C 44.56,63.0431 44.8933,63.3764 45.5,63.5C 46.2508,62.624 46.7508,61.624 47,60.5C 47.2321,61.7375 47.7321,62.7375 48.5,63.5 Z"/></g>
<g><path style="opacity:1" fill="#c19a3e" d="M 51.5,63.5 C 51.8333,63.5 52.1667,63.5 52.5,63.5C 52.8333,63.5 53.1667,63.5 53.5,63.5C 54.2891,63.7828 54.9558,64.2828 55.5,65C 54.6198,66.3561 54.2865,67.8561 54.5,69.5C 54.1667,69.5 53.8333,69.5 53.5,69.5C 52.8071,65.2382 51.9737,64.9048 51,68.5C 50.3603,66.735 50.5269,65.0683 51.5,63.5 Z"/></g>
<g><path style="opacity:1" fill="#ad802a" d="M 69.5,59.5 C 69.8333,59.5 70.1667,59.5 70.5,59.5C 70.5,60.5 70.5,61.5 70.5,62.5C 70.2291,64.3797 70.8958,65.713 72.5,66.5C 71.3754,67.0141 70.2087,67.3474 69,67.5C 68.7216,66.5842 68.2216,65.9175 67.5,65.5C 67.3379,63.4727 67.5045,61.4727 68,59.5C 68.8068,63.449 69.3068,63.449 69.5,59.5 Z"/></g>
<g><path style="opacity:1" fill="#703f15" d="M 121.5,60.5 C 122.11,61.391 122.443,62.391 122.5,63.5C 121.566,64.5676 121.232,65.901 121.5,67.5C 121.167,67.5 120.833,67.5 120.5,67.5C 120.946,64.9899 120.28,62.9899 118.5,61.5C 118.369,60.7611 118.536,60.0944 119,59.5C 119.671,60.2524 120.504,60.5858 121.5,60.5 Z"/></g>
<g><path style="opacity:0.996" fill="#9d8e82" d="M 121.5,60.5 C 125.191,61.3362 126.191,63.3362 124.5,66.5C 124.573,64.9731 123.906,63.9731 122.5,63.5C 122.443,62.391 122.11,61.391 121.5,60.5 Z"/></g>
<g><path style="opacity:1" fill="#bb8f35" d="M 48.5,63.5 C 49.5,63.5 50.5,63.5 51.5,63.5C 50.5269,65.0683 50.3603,66.735 51,68.5C 51.9737,64.9048 52.8071,65.2382 53.5,69.5C 53.1583,70.3382 52.4916,70.6716 51.5,70.5C 50.5,70.5 49.5,70.5 48.5,70.5C 48.5,69.8333 48.5,69.1667 48.5,68.5C 48.5,67.1667 48.5,65.8333 48.5,64.5C 48.5,64.1667 48.5,63.8333 48.5,63.5 Z"/></g>
<g><path style="opacity:1" fill="#b48b32" d="M 78.5,63.5 C 78.8333,64.1667 79.1667,64.8333 79.5,65.5C 79.5,66.8333 78.8333,67.5 77.5,67.5C 77.5,66.8333 77.1667,66.5 76.5,66.5C 77.9526,65.1751 77.6192,64.3418 75.5,64C 76.3523,62.2716 77.3523,62.105 78.5,63.5 Z"/></g>
<g><path style="opacity:1" fill="#c7a241" d="M 87.5,62.5 C 86.6457,64.035 86.6457,65.3684 87.5,66.5C 87.5,67.1667 87.5,67.8333 87.5,68.5C 86.5,67.1667 85.5,67.1667 84.5,68.5C 84.5,67.8333 84.5,67.1667 84.5,66.5C 85.1641,65.352 85.3308,64.0187 85,62.5C 85.7697,63.5981 86.603,63.5981 87.5,62.5 Z"/></g>
<g><path style="opacity:1" fill="#c79c3a" d="M 88.5,63.5 C 91.4951,63.2938 94.1617,63.9605 96.5,65.5C 93.8333,65.5 91.1667,65.5 88.5,65.5C 88.5,64.8333 88.5,64.1667 88.5,63.5 Z"/></g>
<g><path style="opacity:1" fill="#986117" d="M 108.5,59.5 C 109.5,59.8333 110.167,60.5 110.5,61.5C 110.433,62.9587 110.766,64.2921 111.5,65.5C 111.5,65.8333 111.5,66.1667 111.5,66.5C 110.833,66.5 110.5,66.8333 110.5,67.5C 109.833,65.5 109.167,63.5 108.5,61.5C 108.5,60.8333 108.5,60.1667 108.5,59.5 Z"/></g>
<g><path style="opacity:1" fill="#a1815e" d="M 117.5,64.5 C 117.5,64.8333 117.5,65.1667 117.5,65.5C 115.716,66.7199 114.05,66.7199 112.5,65.5C 113.122,64.3734 113.955,63.3734 115,62.5C 115.417,63.756 116.25,64.4226 117.5,64.5 Z"/></g>
<g><path style="opacity:1" fill="#ba8954" d="M 10.5,63.5 C 10.8333,63.5 11.1667,63.5 11.5,63.5C 12.1667,63.5 12.8333,63.5 13.5,63.5C 13.0825,64.2216 12.4158,64.7216 11.5,65C 12.5,65.3333 13.5,65.6667 14.5,66C 13.2625,66.2321 12.2625,66.7321 11.5,67.5C 11.5,67.8333 11.5,68.1667 11.5,68.5C 10.8333,67.8333 10.1667,67.1667 9.5,66.5C 9.26269,65.209 9.59603,64.209 10.5,63.5 Z"/></g>
<g><path style="opacity:1" fill="#503117" d="M 27.5,60.5 C 28.8333,61.8333 30.1667,61.8333 31.5,60.5C 31.8333,60.5 32.1667,60.5 32.5,60.5C 32.8417,61.3382 33.5084,61.6716 34.5,61.5C 32.6309,62.1646 30.6309,62.8313 28.5,63.5C 28.1373,64.1835 27.8039,64.8501 27.5,65.5C 27.5,65.8333 27.5,66.1667 27.5,66.5C 26.6618,66.8417 26.3284,67.5084 26.5,68.5C 25.596,67.791 25.2627,66.791 25.5,65.5C 25.1667,64.8333 24.8333,64.1667 24.5,63.5C 24.8564,61.8102 25.8564,60.8102 27.5,60.5 Z"/></g>
<g><path style="opacity:1" fill="#b68b30" d="M 48.5,64.5 C 48.5,65.8333 48.5,67.1667 48.5,68.5C 47.7321,67.7375 47.2321,66.7375 47,65.5C 46.6411,68.5443 45.9745,68.8776 45,66.5C 44.5172,67.448 44.3505,68.448 44.5,69.5C 43.8333,69.5 43.1667,69.5 42.5,69.5C 43.2341,68.2921 43.5674,66.9587 43.5,65.5C 45.0418,64.6993 46.7085,64.366 48.5,64.5 Z"/></g>
<g><path style="opacity:1" fill="#ac7f2a" d="M 59.5,60.5 C 60.2247,62.0754 61.2247,63.7421 62.5,65.5C 62.719,66.675 62.3857,67.675 61.5,68.5C 60.5745,67.3595 59.7412,67.3595 59,68.5C 58.7216,67.5842 58.2216,66.9175 57.5,66.5C 57.3398,64.8008 57.5065,63.1341 58,61.5C 59.0875,63.9316 59.5875,63.5983 59.5,60.5 Z"/></g>
<g><path style="opacity:1" fill="#b18630" d="M 88.5,65.5 C 91.1667,65.5 93.8333,65.5 96.5,65.5C 96.5,66.1667 96.5,66.8333 96.5,67.5C 93.8296,66.8311 91.3296,66.8311 89,67.5C 88.5357,66.9056 88.369,66.2389 88.5,65.5 Z"/></g>
<g><path style="opacity:0.91" fill="#937861" d="M 122.5,63.5 C 123.906,63.9731 124.573,64.9731 124.5,66.5C 124.25,68.674 123.25,70.3406 121.5,71.5C 121.5,71.1667 121.5,70.8333 121.5,70.5C 122.625,69.3478 122.625,68.3478 121.5,67.5C 121.232,65.901 121.566,64.5676 122.5,63.5 Z"/></g>
<g><path style="opacity:1" fill="#af804d" d="M 13.5,63.5 C 14.7079,64.2341 16.0413,64.5674 17.5,64.5C 18.2625,65.2679 19.2625,65.7679 20.5,66C 18.9069,66.9487 17.5736,68.1154 16.5,69.5C 12.1074,69.5432 11.7741,69.0432 15.5,68C 14.2068,67.51 12.8734,67.3433 11.5,67.5C 12.2625,66.7321 13.2625,66.2321 14.5,66C 13.5,65.6667 12.5,65.3333 11.5,65C 12.4158,64.7216 13.0825,64.2216 13.5,63.5 Z"/></g>
<g><path style="opacity:1" fill="#724d29" d="M 23.5,63.5 C 23.8333,63.5 24.1667,63.5 24.5,63.5C 24.8333,64.1667 25.1667,64.8333 25.5,65.5C 23.2893,67.4945 22.9559,69.8279 24.5,72.5C 23.6554,73.6715 22.9887,75.0048 22.5,76.5C 22.1667,76.5 21.8333,76.5 21.5,76.5C 21.1667,75.8333 20.8333,75.1667 20.5,74.5C 22.389,71.3083 23.389,67.6416 23.5,63.5 Z"/></g>
<g><path style="opacity:1" fill="#c69e3b" d="M 32.5,66.5 C 32.5,67.8333 32.5,69.1667 32.5,70.5C 30.8212,70.7148 29.8212,70.0481 29.5,68.5C 29.7956,64.9073 30.7956,64.2406 32.5,66.5 Z"/></g>
<g><path style="opacity:1" fill="#ac7e29" d="M 66.5,60.5 C 66.9454,63.2179 66.2788,65.8846 64.5,68.5C 63.8333,67.5 63.1667,66.5 62.5,65.5C 62.3398,63.8008 62.5065,62.1341 63,60.5C 63.3333,61.5 63.6667,62.5 64,63.5C 64.2355,61.8807 65.0689,60.8807 66.5,60.5 Z"/></g>
<g><path style="opacity:1" fill="#bb8a53" d="M 11.5,67.5 C 12.8734,67.3433 14.2068,67.51 15.5,68C 11.7741,69.0432 12.1074,69.5432 16.5,69.5C 17.5,69.5 18.5,69.5 19.5,69.5C 17.7078,70.3091 15.7078,70.8091 13.5,71C 15.7078,71.1909 17.7078,71.6909 19.5,72.5C 18.5,72.5 17.5,72.5 16.5,72.5C 14.8561,72.2865 13.3561,72.6198 12,73.5C 11.5065,71.8659 11.3398,70.1992 11.5,68.5C 11.5,68.1667 11.5,67.8333 11.5,67.5 Z"/></g>
<g><path style="opacity:1" fill="#c7a03d" d="M 36.5,64.5 C 37.3382,64.8417 37.6716,65.5084 37.5,66.5C 36.9759,68.3057 36.3092,69.9724 35.5,71.5C 35.6795,69.0459 35.0128,66.8792 33.5,65C 34.1765,63.3167 35.1765,63.1501 36.5,64.5 Z"/></g>
<g><path style="opacity:1" fill="#c89f3b" d="M 43.5,65.5 C 43.5674,66.9587 43.2341,68.2921 42.5,69.5C 42.0133,70.4734 41.5133,71.4734 41,72.5C 40.31,71.2617 39.81,71.2617 39.5,72.5C 37.7274,71.6857 37.2274,70.3524 38,68.5C 39.0875,70.9316 39.5875,70.5983 39.5,67.5C 41.1788,67.7148 42.1788,67.0481 42.5,65.5C 42.8333,62.8333 43.1667,62.8333 43.5,65.5 Z"/></g>
<g><path style="opacity:1" fill="#b48a32" d="M 53.5,63.5 C 54.209,62.596 55.209,62.2627 56.5,62.5C 56.2322,64.099 56.5655,65.4324 57.5,66.5C 57.6495,67.552 57.4828,68.552 57,69.5C 56.2303,68.4019 55.397,68.4019 54.5,69.5C 54.2865,67.8561 54.6198,66.3561 55.5,65C 54.9558,64.2828 54.2891,63.7828 53.5,63.5 Z"/></g>
<g><path style="opacity:1" fill="#d2ad45" d="M 79.5,65.5 C 80.5,66.8333 81.5,66.8333 82.5,65.5C 82.7208,68.0972 83.2208,68.0972 84,65.5C 84.3988,65.7284 84.5654,66.0618 84.5,66.5C 84.5,67.1667 84.5,67.8333 84.5,68.5C 82.8333,68.5 81.1667,68.5 79.5,68.5C 78.5084,68.6716 77.8417,68.3382 77.5,67.5C 78.8333,67.5 79.5,66.8333 79.5,65.5 Z"/></g>
<g><path style="opacity:1" fill="#d6b145" d="M 88.5,65.5 C 88.369,66.2389 88.5357,66.9056 89,67.5C 91.3296,66.8311 93.8296,66.8311 96.5,67.5C 97.5,68.1667 98.5,68.8333 99.5,69.5C 97.5,69.5 95.5,69.5 93.5,69.5C 89.0293,69.6724 88.6959,70.5057 92.5,72C 91.9056,72.4643 91.2389,72.631 90.5,72.5C 89.8333,72.5 89.1667,72.5 88.5,72.5C 88.7373,71.209 88.404,70.209 87.5,69.5C 87.5,69.1667 87.5,68.8333 87.5,68.5C 87.5,67.8333 87.5,67.1667 87.5,66.5C 87.5,65.8333 87.8333,65.5 88.5,65.5 Z"/></g>
<g><path style="opacity:1" fill="#ae7d23" d="M 106.5,66.5 C 106.842,67.3382 107.508,67.6716 108.5,67.5C 109.275,69.3881 109.275,71.3881 108.5,73.5C 106.228,72.5589 104.228,71.2255 102.5,69.5C 101.18,68.0582 99.5138,67.3915 97.5,67.5C 97.5,67.1667 97.5,66.8333 97.5,66.5C 99.0677,65.1305 100.901,64.1305 103,63.5C 103.422,65.4257 104.589,66.4257 106.5,66.5 Z"/></g>
<g><path style="opacity:1" fill="#834f0f" d="M 111.5,65.5 C 111.833,65.5 112.167,65.5 112.5,65.5C 114.05,66.7199 115.716,66.7199 117.5,65.5C 118.5,66.1667 119.5,66.8333 120.5,67.5C 120.833,67.5 121.167,67.5 121.5,67.5C 122.625,68.3478 122.625,69.3478 121.5,70.5C 120.849,69.9094 120.182,69.2427 119.5,68.5C 118.893,68.6236 118.56,68.9569 118.5,69.5C 116.565,68.8505 114.565,68.5172 112.5,68.5C 112.167,67.8333 111.833,67.1667 111.5,66.5C 111.5,66.1667 111.5,65.8333 111.5,65.5 Z"/></g>
<g><path style="opacity:1" fill="#5b391a" d="M 25.5,65.5 C 25.2627,66.791 25.596,67.791 26.5,68.5C 25.438,70.0992 25.438,71.7659 26.5,73.5C 25.0119,76.1864 24.3453,75.8531 24.5,72.5C 22.9559,69.8279 23.2893,67.4945 25.5,65.5 Z"/></g>
<g><path style="opacity:1" fill="#d2ab41" d="M 32.5,66.5 C 30.7956,64.2406 29.7956,64.9073 29.5,68.5C 28.6618,68.8417 28.3284,69.5084 28.5,70.5C 27.8344,69.0878 27.5011,67.7545 27.5,66.5C 27.5,66.1667 27.5,65.8333 27.5,65.5C 29.0109,64.4975 30.6776,63.8308 32.5,63.5C 32.5,64.5 32.5,65.5 32.5,66.5 Z"/></g>
<g><path style="opacity:1" fill="#b98f31" d="M 40.5,63.5 C 41.1667,64.1667 41.8333,64.8333 42.5,65.5C 42.1788,67.0481 41.1788,67.7148 39.5,67.5C 39.5875,70.5983 39.0875,70.9316 38,68.5C 37.2274,70.3524 37.7274,71.6857 39.5,72.5C 39.5,73.1667 39.5,73.8333 39.5,74.5C 37.5879,74.5123 35.5879,74.179 33.5,73.5C 34.1667,72.8333 34.8333,72.1667 35.5,71.5C 36.3092,69.9724 36.9759,68.3057 37.5,66.5C 38.2216,66.0825 38.7216,65.4158 39,64.5C 40.0875,66.9316 40.5875,66.5983 40.5,63.5 Z"/></g>
<g><path style="opacity:1" fill="#c69e3d" d="M 48.5,68.5 C 48.5,69.1667 48.5,69.8333 48.5,70.5C 47.609,71.1098 46.609,71.4431 45.5,71.5C 45.6716,70.5084 45.3382,69.8417 44.5,69.5C 44.3505,68.448 44.5172,67.448 45,66.5C 45.9745,68.8776 46.6411,68.5443 47,65.5C 47.2321,66.7375 47.7321,67.7375 48.5,68.5 Z"/></g>
<g><path style="opacity:1" fill="#cda742" d="M 73.5,64.5 C 73.3284,65.4916 73.6618,66.1583 74.5,66.5C 74.6716,67.4916 74.3382,68.1583 73.5,68.5C 71.2967,68.9349 69.2967,68.9349 67.5,68.5C 67.5,67.5 67.5,66.5 67.5,65.5C 68.2216,65.9175 68.7216,66.5842 69,67.5C 70.2087,67.3474 71.3754,67.0141 72.5,66.5C 72.3284,65.5084 72.6618,64.8417 73.5,64.5 Z"/></g>
<g><path style="opacity:1" fill="#e0ba47" d="M 87.5,68.5 C 87.5,68.8333 87.5,69.1667 87.5,69.5C 84.0306,68.8872 82.0306,70.2206 81.5,73.5C 80.8333,72.1667 80.1667,70.8333 79.5,69.5C 79.5,69.1667 79.5,68.8333 79.5,68.5C 81.1667,68.5 82.8333,68.5 84.5,68.5C 85.5,67.1667 86.5,67.1667 87.5,68.5 Z"/></g>
<g><path style="opacity:1" fill="#b88a2a" d="M 96.5,67.5 C 96.8333,67.5 97.1667,67.5 97.5,67.5C 99.5138,67.3915 101.18,68.0582 102.5,69.5C 103.075,71.4113 104.075,73.078 105.5,74.5C 103.216,74.0248 101.216,73.0248 99.5,71.5C 99.5,70.8333 99.5,70.1667 99.5,69.5C 98.5,68.8333 97.5,68.1667 96.5,67.5 Z"/></g>
<g><path style="opacity:1" fill="#9a6313" d="M 112.5,68.5 C 114.565,68.5172 116.565,68.8505 118.5,69.5C 118.068,70.7095 117.401,71.7095 116.5,72.5C 114.861,71.5275 113.527,70.1942 112.5,68.5 Z"/></g>
<g><path style="opacity:1" fill="#d1ad45" d="M 62.5,65.5 C 63.1667,66.5 63.8333,67.5 64.5,68.5C 65.5,68.5 66.5,68.5 67.5,68.5C 63.6903,68.9965 60.0237,69.9965 56.5,71.5C 55.5655,72.5676 55.2322,73.901 55.5,75.5C 55.1667,75.5 54.8333,75.5 54.5,75.5C 54.5,74.1667 54.5,72.8333 54.5,71.5C 53.5,71.5 52.5,71.5 51.5,71.5C 51.5,71.1667 51.5,70.8333 51.5,70.5C 52.4916,70.6716 53.1583,70.3382 53.5,69.5C 53.8333,69.5 54.1667,69.5 54.5,69.5C 55.397,68.4019 56.2303,68.4019 57,69.5C 57.4828,68.552 57.6495,67.552 57.5,66.5C 58.2216,66.9175 58.7216,67.5842 59,68.5C 59.7412,67.3595 60.5745,67.3595 61.5,68.5C 62.3857,67.675 62.719,66.675 62.5,65.5 Z"/></g>
<g><path style="opacity:1" fill="#e0b945" d="M 67.5,68.5 C 69.2967,68.9349 71.2967,68.9349 73.5,68.5C 73.8333,69.1667 74.1667,69.8333 74.5,70.5C 74.1667,70.5 73.8333,70.5 73.5,70.5C 71.5,70.5 69.5,70.5 67.5,70.5C 67.1667,70.5 66.8333,70.5 66.5,70.5C 64.901,70.2322 63.5676,70.5655 62.5,71.5C 61.5,71.5 60.5,71.5 59.5,71.5C 58.5,71.5 57.5,71.5 56.5,71.5C 60.0237,69.9965 63.6903,68.9965 67.5,68.5 Z"/></g>
<g><path style="opacity:1" fill="#dcb746" d="M 76.5,66.5 C 77.1667,66.5 77.5,66.8333 77.5,67.5C 77.8417,68.3382 78.5084,68.6716 79.5,68.5C 79.5,68.8333 79.5,69.1667 79.5,69.5C 78.0813,70.4511 76.4147,70.7845 74.5,70.5C 74.1667,69.8333 73.8333,69.1667 73.5,68.5C 74.3382,68.1583 74.6716,67.4916 74.5,66.5C 75.1667,66.5 75.8333,66.5 76.5,66.5 Z"/></g>
<g><path style="opacity:1" fill="#a37547" d="M 19.5,69.5 C 20.1667,69.5 20.8333,69.5 21.5,69.5C 21.2079,70.8736 20.8746,72.2069 20.5,73.5C 20.1667,73.5 19.8333,73.5 19.5,73.5C 19.5,73.1667 19.5,72.8333 19.5,72.5C 17.7078,71.6909 15.7078,71.1909 13.5,71C 15.7078,70.8091 17.7078,70.3091 19.5,69.5 Z"/></g>
<g><path style="opacity:1" fill="#bf9b41" d="M 27.5,66.5 C 27.5011,67.7545 27.8344,69.0878 28.5,70.5C 28.3284,71.4916 28.6618,72.1583 29.5,72.5C 29.1583,73.3382 28.4916,73.6716 27.5,73.5C 27.1667,73.5 26.8333,73.5 26.5,73.5C 25.438,71.7659 25.438,70.0992 26.5,68.5C 26.3284,67.5084 26.6618,66.8417 27.5,66.5 Z"/></g>
<g><path style="opacity:1" fill="#b88f35" d="M 93.5,69.5 C 95.5,69.5 97.5,69.5 99.5,69.5C 99.5,70.1667 99.5,70.8333 99.5,71.5C 99.5,72.5 99.5,73.5 99.5,74.5C 98.8333,74.5 98.5,74.1667 98.5,73.5C 97.3646,71.7868 95.698,71.1201 93.5,71.5C 93.5,70.8333 93.5,70.1667 93.5,69.5 Z"/></g>
<g><path style="opacity:1" fill="#b68628" d="M 102.5,69.5 C 104.228,71.2255 106.228,72.5589 108.5,73.5C 108.5,73.8333 108.5,74.1667 108.5,74.5C 107.833,74.5 107.167,74.5 106.5,74.5C 106.167,74.5 105.833,74.5 105.5,74.5C 104.075,73.078 103.075,71.4113 102.5,69.5 Z"/></g>
<g><path style="opacity:1" fill="#a16e19" d="M 111.5,66.5 C 111.833,67.1667 112.167,67.8333 112.5,68.5C 113.527,70.1942 114.861,71.5275 116.5,72.5C 115.833,72.8333 115.167,73.1667 114.5,73.5C 114.158,72.6618 113.492,72.3284 112.5,72.5C 111.058,71.1805 110.392,69.5138 110.5,67.5C 110.5,66.8333 110.833,66.5 111.5,66.5 Z"/></g>
<g><path style="opacity:1" fill="#8e612a" d="M 121.5,70.5 C 121.5,70.8333 121.5,71.1667 121.5,71.5C 120.415,73.5869 118.749,74.9202 116.5,75.5C 115.833,74.8333 115.167,74.1667 114.5,73.5C 115.167,73.1667 115.833,72.8333 116.5,72.5C 117.401,71.7095 118.068,70.7095 118.5,69.5C 118.56,68.9569 118.893,68.6236 119.5,68.5C 120.182,69.2427 120.849,69.9094 121.5,70.5 Z"/></g>
<g><path style="opacity:1" fill="#cda640" d="M 35.5,71.5 C 34.8333,72.1667 34.1667,72.8333 33.5,73.5C 32.1667,73.1667 30.8333,72.8333 29.5,72.5C 30.5676,71.5655 31.901,71.2322 33.5,71.5C 33.3505,70.448 33.5172,69.448 34,68.5C 34.2321,69.7375 34.7321,70.7375 35.5,71.5 Z"/></g>
<g><path style="opacity:1" fill="#d1aa41" d="M 48.5,70.5 C 49.5,70.5 50.5,70.5 51.5,70.5C 51.5,70.8333 51.5,71.1667 51.5,71.5C 49.9519,71.8212 49.2852,72.8212 49.5,74.5C 49.1667,74.5 48.8333,74.5 48.5,74.5C 47.0121,72.1546 45.0121,71.8212 42.5,73.5C 42.8212,71.9519 43.8212,71.2852 45.5,71.5C 46.609,71.4431 47.609,71.1098 48.5,70.5 Z"/></g>
<g><path style="opacity:1" fill="#ad8028" d="M 51.5,71.5 C 52.5,71.5 53.5,71.5 54.5,71.5C 54.5,72.8333 54.5,74.1667 54.5,75.5C 53.7321,74.7375 53.2321,73.7375 53,72.5C 52.7679,73.7375 52.2679,74.7375 51.5,75.5C 51.6332,72.075 50.9665,71.7417 49.5,74.5C 49.2852,72.8212 49.9519,71.8212 51.5,71.5 Z"/></g>
<g><path style="opacity:1" fill="#c39d3d" d="M 87.5,69.5 C 88.404,70.209 88.7373,71.209 88.5,72.5C 86.5853,72.2155 84.9187,72.5489 83.5,73.5C 82.8333,73.5 82.1667,73.5 81.5,73.5C 82.0306,70.2206 84.0306,68.8872 87.5,69.5 Z"/></g>
<g><path style="opacity:1" fill="#a88140" d="M 108.5,61.5 C 109.167,63.5 109.833,65.5 110.5,67.5C 110.392,69.5138 111.058,71.1805 112.5,72.5C 112.095,73.5498 111.429,73.5498 110.5,72.5C 109.702,72.9569 109.369,73.6236 109.5,74.5C 109.167,74.5 108.833,74.5 108.5,74.5C 108.5,74.1667 108.5,73.8333 108.5,73.5C 109.275,71.3881 109.275,69.3881 108.5,67.5C 108.5,66.5 108.5,65.5 108.5,64.5C 108.5,63.5 108.5,62.5 108.5,61.5 Z"/></g>
<g><path style="opacity:1" fill="#835b33" d="M 22.5,63.5 C 22.8333,63.5 23.1667,63.5 23.5,63.5C 23.389,67.6416 22.389,71.3083 20.5,74.5C 20.5,74.1667 20.5,73.8333 20.5,73.5C 20.8746,72.2069 21.2079,70.8736 21.5,69.5C 21.3253,67.3792 21.6586,65.3792 22.5,63.5 Z"/></g>
<g><path style="opacity:1" fill="#bf9637" d="M 42.5,69.5 C 43.1667,69.5 43.8333,69.5 44.5,69.5C 45.3382,69.8417 45.6716,70.5084 45.5,71.5C 43.8212,71.2852 42.8212,71.9519 42.5,73.5C 41.8333,73.5 41.5,73.8333 41.5,74.5C 40.8333,74.5 40.1667,74.5 39.5,74.5C 39.5,73.8333 39.5,73.1667 39.5,72.5C 39.81,71.2617 40.31,71.2617 41,72.5C 41.5133,71.4734 42.0133,70.4734 42.5,69.5 Z"/></g>
<g><path style="opacity:1" fill="#be9436" d="M 66.5,70.5 C 66.5,71.5 66.5,72.5 66.5,73.5C 65.1667,73.5 63.8333,73.5 62.5,73.5C 62.5,72.8333 62.5,72.1667 62.5,71.5C 63.5676,70.5655 64.901,70.2322 66.5,70.5 Z"/></g>
<g><path style="opacity:1" fill="#ba8f30" d="M 67.5,70.5 C 69.5,70.5 71.5,70.5 73.5,70.5C 73.5,71.8333 73.5,73.1667 73.5,74.5C 73.1667,74.5 72.8333,74.5 72.5,74.5C 71.357,72.5001 69.857,71.8334 68,72.5C 67.5357,71.9056 67.369,71.2389 67.5,70.5 Z"/></g>
<g><path style="opacity:1" fill="#be9434" d="M 79.5,69.5 C 80.1667,70.8333 80.8333,72.1667 81.5,73.5C 81.5,74.5 81.5,75.5 81.5,76.5C 79.955,75.7703 79.1216,74.437 79,72.5C 78.79,74.0581 78.29,75.3915 77.5,76.5C 77.2971,73.3845 76.2971,71.3845 74.5,70.5C 76.4147,70.7845 78.0813,70.4511 79.5,69.5 Z"/></g>
<g><path style="opacity:1" fill="#7c5930" d="M 88.5,72.5 C 89.1667,72.5 89.8333,72.5 90.5,72.5C 90.5,72.8333 90.5,73.1667 90.5,73.5C 88.5853,73.2155 86.9187,73.5489 85.5,74.5C 85.8333,76.5 86.1667,78.5 86.5,80.5C 83.9078,78.9639 82.9078,76.6305 83.5,73.5C 84.9187,72.5489 86.5853,72.2155 88.5,72.5 Z"/></g>
<g><path style="opacity:1" fill="#c8a443" d="M 93.5,69.5 C 93.5,70.1667 93.5,70.8333 93.5,71.5C 93.5,72.1667 93.5,72.8333 93.5,73.5C 92.5,73.5 91.5,73.5 90.5,73.5C 90.5,73.1667 90.5,72.8333 90.5,72.5C 91.2389,72.631 91.9056,72.4643 92.5,72C 88.6959,70.5057 89.0293,69.6724 93.5,69.5 Z"/></g>
<g><path style="opacity:1" fill="#dbb949" d="M 93.5,71.5 C 95.698,71.1201 97.3646,71.7868 98.5,73.5C 97.5084,73.3284 96.8417,73.6618 96.5,74.5C 95.8333,74.5 95.1667,74.5 94.5,74.5C 94.5,73.8333 94.1667,73.5 93.5,73.5C 93.5,72.8333 93.5,72.1667 93.5,71.5 Z"/></g>
<g><path style="opacity:1" fill="#a87720" d="M 112.5,72.5 C 113.492,72.3284 114.158,72.6618 114.5,73.5C 115.167,74.1667 115.833,74.8333 116.5,75.5C 115.833,75.5 115.167,75.5 114.5,75.5C 114.167,75.5 113.833,75.5 113.5,75.5C 112.432,74.5655 111.099,74.2322 109.5,74.5C 109.369,73.6236 109.702,72.9569 110.5,72.5C 111.429,73.5498 112.095,73.5498 112.5,72.5 Z"/></g>
<g><path style="opacity:1" fill="#b3895d" d="M 9.5,66.5 C 10.1667,67.1667 10.8333,67.8333 11.5,68.5C 11.3398,70.1992 11.5065,71.8659 12,73.5C 13.3561,72.6198 14.8561,72.2865 16.5,72.5C 16.6107,73.1174 16.944,73.6174 17.5,74C 16.2068,74.49 14.8734,74.6567 13.5,74.5C 12.1667,75.1667 10.8333,75.8333 9.5,76.5C 9.5,75.8333 9.5,75.1667 9.5,74.5C 10.6303,71.8633 10.6303,69.1967 9.5,66.5 Z"/></g>
<g><path style="opacity:1" fill="#bb9135" d="M 29.5,72.5 C 30.8333,72.8333 32.1667,73.1667 33.5,73.5C 31.4939,74.4851 29.8273,75.8184 28.5,77.5C 27.6618,77.1583 27.3284,76.4916 27.5,75.5C 27.5,74.8333 27.5,74.1667 27.5,73.5C 28.4916,73.6716 29.1583,73.3382 29.5,72.5 Z"/></g>
<g><path style="opacity:1" fill="#b99238" d="M 48.5,74.5 C 48.1667,74.5 47.8333,74.5 47.5,74.5C 45.5,74.5 43.5,74.5 41.5,74.5C 41.5,73.8333 41.8333,73.5 42.5,73.5C 45.0121,71.8212 47.0121,72.1546 48.5,74.5 Z"/></g>
<g><path style="opacity:1" fill="#b0832a" d="M 56.5,71.5 C 57.5,71.5 58.5,71.5 59.5,71.5C 59.6309,72.3764 59.2975,73.0431 58.5,73.5C 57.6043,72.4937 56.9377,72.4937 56.5,73.5C 57.9935,74.1411 58.9935,75.1411 59.5,76.5C 58.8333,76.5 58.1667,76.5 57.5,76.5C 57.1583,75.6618 56.4916,75.3284 55.5,75.5C 55.2322,73.901 55.5655,72.5676 56.5,71.5 Z"/></g>
<g><path style="opacity:1" fill="#d7b246" d="M 66.5,70.5 C 66.8333,70.5 67.1667,70.5 67.5,70.5C 67.369,71.2389 67.5357,71.9056 68,72.5C 69.857,71.8334 71.357,72.5001 72.5,74.5C 71.8333,74.5 71.1667,74.5 70.5,74.5C 67.6146,74.8064 64.9479,74.4731 62.5,73.5C 63.8333,73.5 65.1667,73.5 66.5,73.5C 66.5,72.5 66.5,71.5 66.5,70.5 Z"/></g>
<g><path style="opacity:1" fill="#d7b346" d="M 73.5,70.5 C 73.8333,70.5 74.1667,70.5 74.5,70.5C 76.2971,71.3845 77.2971,73.3845 77.5,76.5C 77.1667,76.5 76.8333,76.5 76.5,76.5C 76.1788,74.9519 75.1788,74.2852 73.5,74.5C 73.5,73.1667 73.5,71.8333 73.5,70.5 Z"/></g>
<g><path style="opacity:1" fill="#9d7750" d="M 85.5,74.5 C 86.9187,73.5489 88.5853,73.2155 90.5,73.5C 91.5,73.5 92.5,73.5 93.5,73.5C 94.1667,73.5 94.5,73.8333 94.5,74.5C 92.712,74.2148 91.0453,74.5481 89.5,75.5C 89.8627,76.1835 90.1961,76.8501 90.5,77.5C 89.8333,77.5 89.1667,77.5 88.5,77.5C 86.7673,76.9924 86.434,76.159 87.5,75C 86.9056,74.5357 86.2389,74.369 85.5,74.5 Z"/></g>
<g><path style="opacity:1" fill="#aa7b4b" d="M 16.5,72.5 C 17.5,72.5 18.5,72.5 19.5,72.5C 19.5,72.8333 19.5,73.1667 19.5,73.5C 18.2617,73.81 18.2617,74.31 19.5,75C 16.4557,75.3589 16.1224,76.0255 18.5,77C 16.0144,77.7051 16.0144,78.5384 18.5,79.5C 18.1583,80.3382 17.4916,80.6716 16.5,80.5C 13.4761,80.0533 13.1428,79.22 15.5,78C 14.5842,77.7216 13.9175,77.2216 13.5,76.5C 14.2389,76.631 14.9056,76.4643 15.5,76C 14.5842,75.7216 13.9175,75.2216 13.5,74.5C 14.8734,74.6567 16.2068,74.49 17.5,74C 16.944,73.6174 16.6107,73.1174 16.5,72.5 Z"/></g>
<g><path style="opacity:1" fill="#d3ac41" d="M 33.5,73.5 C 35.5879,74.179 37.5879,74.5123 39.5,74.5C 39.5,74.8333 39.5,75.1667 39.5,75.5C 37.3023,75.4088 36.9689,76.0755 38.5,77.5C 35.1401,77.6159 31.8067,77.9492 28.5,78.5C 28.5,78.1667 28.5,77.8333 28.5,77.5C 29.8273,75.8184 31.4939,74.4851 33.5,73.5 Z"/></g>
<g><path style="opacity:1" fill="#c39b3a" d="M 59.5,71.5 C 60.5,71.5 61.5,71.5 62.5,71.5C 62.5,72.1667 62.5,72.8333 62.5,73.5C 64.9479,74.4731 67.6146,74.8064 70.5,74.5C 70.5,75.1667 70.5,75.8333 70.5,76.5C 70.1667,76.5 69.8333,76.5 69.5,76.5C 68.5,76.5 67.5,76.5 66.5,76.5C 64.8333,76.5 63.1667,76.5 61.5,76.5C 60.8333,76.5 60.1667,76.5 59.5,76.5C 58.9935,75.1411 57.9935,74.1411 56.5,73.5C 56.9377,72.4937 57.6043,72.4937 58.5,73.5C 59.2975,73.0431 59.6309,72.3764 59.5,71.5 Z"/></g>
<g><path style="opacity:1" fill="#b68d33" d="M 70.5,74.5 C 71.1667,74.5 71.8333,74.5 72.5,74.5C 72.8333,74.5 73.1667,74.5 73.5,74.5C 75.1788,74.2852 76.1788,74.9519 76.5,76.5C 76.1667,76.5 75.8333,76.5 75.5,76.5C 73.8333,76.5 72.1667,76.5 70.5,76.5C 70.5,75.8333 70.5,75.1667 70.5,74.5 Z"/></g>
<g><path style="opacity:1" fill="#8f6e2d" d="M 99.5,71.5 C 101.216,73.0248 103.216,74.0248 105.5,74.5C 105.833,74.5 106.167,74.5 106.5,74.5C 106.5,74.8333 106.5,75.1667 106.5,75.5C 105.209,75.2627 104.209,75.596 103.5,76.5C 102.167,75.8333 100.833,75.1667 99.5,74.5C 99.5,73.5 99.5,72.5 99.5,71.5 Z"/></g>
<g><path style="opacity:1" fill="#b98851" d="M 13.5,74.5 C 13.9175,75.2216 14.5842,75.7216 15.5,76C 14.9056,76.4643 14.2389,76.631 13.5,76.5C 10.5918,77.1593 10.2584,77.9926 12.5,79C 12.0426,79.414 11.7093,79.914 11.5,80.5C 12.2427,81.1818 12.9094,81.8485 13.5,82.5C 12.0413,82.4326 10.7079,82.7659 9.5,83.5C 8.83333,83.5 8.16667,83.5 7.5,83.5C 7.87816,81.079 8.54483,78.7457 9.5,76.5C 10.8333,75.8333 12.1667,75.1667 13.5,74.5 Z"/></g>
<g><path style="opacity:1" fill="#613e1c" d="M 24.5,72.5 C 24.3453,75.8531 25.0119,76.1864 26.5,73.5C 26.8333,73.5 27.1667,73.5 27.5,73.5C 27.5,74.1667 27.5,74.8333 27.5,75.5C 26.6906,76.4687 25.6906,77.3021 24.5,78C 25.7119,79.1068 25.3786,79.6068 23.5,79.5C 23.4361,78.6348 23.1027,77.6348 22.5,76.5C 22.9887,75.0048 23.6554,73.6715 24.5,72.5 Z"/></g>
<g><path style="opacity:1" fill="#d3ac41" d="M 51.5,75.5 C 50.448,75.3505 49.448,75.5172 48.5,76C 49.7375,76.2321 50.7375,76.7321 51.5,77.5C 52.2341,78.7079 52.5674,80.0413 52.5,81.5C 54.4008,81.2465 55.0674,81.5798 54.5,82.5C 53.0413,82.5674 51.7079,82.2341 50.5,81.5C 50.6107,80.8826 50.944,80.3826 51.5,80C 50.5842,79.7216 49.9175,79.2216 49.5,78.5C 48.1938,77.5326 47.5271,76.1993 47.5,74.5C 47.8333,74.5 48.1667,74.5 48.5,74.5C 48.8333,74.5 49.1667,74.5 49.5,74.5C 50.9665,71.7417 51.6332,72.075 51.5,75.5 Z"/></g>
<g><path style="opacity:1" fill="#d5b045" d="M 54.5,75.5 C 54.8333,75.5 55.1667,75.5 55.5,75.5C 56.4916,75.3284 57.1583,75.6618 57.5,76.5C 55.901,76.2322 54.5676,76.5655 53.5,77.5C 52.8333,77.5 52.1667,77.5 51.5,77.5C 50.7375,76.7321 49.7375,76.2321 48.5,76C 49.448,75.5172 50.448,75.3505 51.5,75.5C 52.2679,74.7375 52.7679,73.7375 53,72.5C 53.2321,73.7375 53.7321,74.7375 54.5,75.5 Z"/></g>
<g><path style="opacity:1" fill="#704b1e" d="M 81.5,73.5 C 82.1667,73.5 82.8333,73.5 83.5,73.5C 82.9078,76.6305 83.9078,78.9639 86.5,80.5C 86.9175,81.2216 87.5842,81.7216 88.5,82C 87.9056,82.4643 87.2389,82.631 86.5,82.5C 85.1667,81.5 83.8333,80.5 82.5,79.5C 82.1667,78.8333 81.8333,78.1667 81.5,77.5C 81.5,77.1667 81.5,76.8333 81.5,76.5C 81.5,75.5 81.5,74.5 81.5,73.5 Z"/></g>
<g><path style="opacity:1" fill="#b58e66" d="M 94.5,74.5 C 95.1667,74.5 95.8333,74.5 96.5,74.5C 96.5,74.8333 96.5,75.1667 96.5,75.5C 94.8967,75.3118 93.5634,75.8118 92.5,77C 93.3802,78.3561 93.7135,79.8561 93.5,81.5C 93.1667,81.5 92.8333,81.5 92.5,81.5C 92.1193,80.0689 91.1193,79.2355 89.5,79C 90.1667,78.6667 90.8333,78.3333 91.5,78C 91.2716,77.6012 90.9382,77.4346 90.5,77.5C 90.1961,76.8501 89.8627,76.1835 89.5,75.5C 91.0453,74.5481 92.712,74.2148 94.5,74.5 Z"/></g>
<g><path style="opacity:1" fill="#fbf57b" d="M 98.5,73.5 C 98.5,74.1667 98.8333,74.5 99.5,74.5C 98.8902,75.391 98.5569,76.391 98.5,77.5C 98.3404,79.153 97.6737,80.4863 96.5,81.5C 95.596,80.791 95.2627,79.791 95.5,78.5C 96.1098,77.609 96.4431,76.609 96.5,75.5C 96.5,75.1667 96.5,74.8333 96.5,74.5C 96.8417,73.6618 97.5084,73.3284 98.5,73.5 Z"/></g>
<g><path style="opacity:1" fill="#9e7225" d="M 106.5,75.5 C 106.5,75.1667 106.5,74.8333 106.5,74.5C 107.167,74.5 107.833,74.5 108.5,74.5C 108.833,74.5 109.167,74.5 109.5,74.5C 111.099,74.2322 112.432,74.5655 113.5,75.5C 111.126,76.6861 108.792,76.6861 106.5,75.5 Z"/></g>
<g><path style="opacity:1" fill="#d0ac45" d="M 39.5,75.5 C 40.5,75.8333 41.1667,76.5 41.5,77.5C 41.5,78.1667 41.8333,78.5 42.5,78.5C 42.5,79.5 42.5,80.5 42.5,81.5C 41.8333,80.8333 41.1667,80.1667 40.5,79.5C 40.1667,78.5 39.5,77.8333 38.5,77.5C 36.9689,76.0755 37.3023,75.4088 39.5,75.5 Z"/></g>
<g><path style="opacity:1" fill="#ddb645" d="M 39.5,75.5 C 39.5,75.1667 39.5,74.8333 39.5,74.5C 40.1667,74.5 40.8333,74.5 41.5,74.5C 43.5,74.5 45.5,74.5 47.5,74.5C 47.5271,76.1993 48.1938,77.5326 49.5,78.5C 48.5,79.8333 47.5,79.8333 46.5,78.5C 44.8306,77.1103 43.1639,76.7769 41.5,77.5C 41.1667,76.5 40.5,75.8333 39.5,75.5 Z"/></g>
<g><path style="opacity:1" fill="#deb846" d="M 57.5,76.5 C 58.1667,76.5 58.8333,76.5 59.5,76.5C 60.1667,76.5 60.8333,76.5 61.5,76.5C 61.1667,77.1667 60.8333,77.8333 60.5,78.5C 59.5084,78.3284 58.8417,78.6618 58.5,79.5C 58.1667,79.5 57.8333,79.5 57.5,79.5C 57.631,78.7611 57.4643,78.0944 57,77.5C 56.3333,78.8333 55.6667,78.8333 55,77.5C 55.0773,78.7376 54.9106,79.7376 54.5,80.5C 53.6143,79.675 53.281,78.675 53.5,77.5C 54.5676,76.5655 55.901,76.2322 57.5,76.5 Z"/></g>
<g><path style="opacity:1" fill="#d1aa3f" d="M 66.5,76.5 C 67.5,76.5 68.5,76.5 69.5,76.5C 70.7888,77.6366 71.7888,78.9699 72.5,80.5C 71.1667,80.5 69.8333,80.5 68.5,80.5C 67.5,79.8333 66.5,79.1667 65.5,78.5C 67.6977,78.5912 68.0311,77.9245 66.5,76.5 Z"/></g>
<g><path style="opacity:1" fill="#dcb544" d="M 69.5,76.5 C 69.8333,76.5 70.1667,76.5 70.5,76.5C 72.1667,76.5 73.8333,76.5 75.5,76.5C 75.5,77.1667 75.5,77.8333 75.5,78.5C 74.1667,78.5 73.5,79.1667 73.5,80.5C 73.1667,80.5 72.8333,80.5 72.5,80.5C 71.7888,78.9699 70.7888,77.6366 69.5,76.5 Z"/></g>
<g><path style="opacity:1" fill="#d0ae78" d="M 96.5,75.5 C 96.4431,76.609 96.1098,77.609 95.5,78.5C 94.8333,79.5 94.1667,80.5 93.5,81.5C 93.7135,79.8561 93.3802,78.3561 92.5,77C 93.5634,75.8118 94.8967,75.3118 96.5,75.5 Z"/></g>
<g><path style="opacity:1" fill="#f1e878" d="M 99.5,74.5 C 100.833,75.1667 102.167,75.8333 103.5,76.5C 103.631,77.3764 103.298,78.0431 102.5,78.5C 101.139,78.2124 99.8062,77.879 98.5,77.5C 98.5569,76.391 98.8902,75.391 99.5,74.5 Z"/></g>
<g><path style="opacity:1" fill="#b58a30" d="M 103.5,76.5 C 104.209,75.596 105.209,75.2627 106.5,75.5C 108.792,76.6861 111.126,76.6861 113.5,75.5C 113.833,75.5 114.167,75.5 114.5,75.5C 113.167,76.5 111.833,77.5 110.5,78.5C 108.973,78.427 107.973,79.0937 107.5,80.5C 106.833,79.5 106.167,78.5 105.5,77.5C 104.833,77.1667 104.167,76.8333 103.5,76.5 Z"/></g>
<g><path style="opacity:0.455" fill="#a28f71" d="M 114.5,75.5 C 115.167,75.5 115.833,75.5 116.5,75.5C 115.089,77.539 113.089,78.539 110.5,78.5C 111.833,77.5 113.167,76.5 114.5,75.5 Z"/></g>
<g><path style="opacity:1" fill="#a98d71" d="M 9.5,74.5 C 9.5,75.1667 9.5,75.8333 9.5,76.5C 8.54483,78.7457 7.87816,81.079 7.5,83.5C 7.16667,83.5 6.83333,83.5 6.5,83.5C 6.5,83.1667 6.5,82.8333 6.5,82.5C 6.73292,79.4582 7.73292,76.7916 9.5,74.5 Z"/></g>
<g><path style="opacity:1" fill="#775332" d="M 21.5,76.5 C 21.8333,76.5 22.1667,76.5 22.5,76.5C 23.1027,77.6348 23.4361,78.6348 23.5,79.5C 23.3284,80.4916 23.6618,81.1583 24.5,81.5C 24.5,81.8333 24.5,82.1667 24.5,82.5C 24.1583,83.3382 23.4916,83.6716 22.5,83.5C 20.8967,83.6882 19.5634,83.1882 18.5,82C 20.6192,81.6582 20.9526,80.8249 19.5,79.5C 21.9248,79.316 21.9248,78.6493 19.5,77.5C 19.9569,76.7025 20.6236,76.3691 21.5,76.5 Z"/></g>
<g><path style="opacity:1" fill="#4c2b0d" d="M 27.5,75.5 C 27.3284,76.4916 27.6618,77.1583 28.5,77.5C 28.5,77.8333 28.5,78.1667 28.5,78.5C 27.5637,79.9744 26.2303,80.9744 24.5,81.5C 23.6618,81.1583 23.3284,80.4916 23.5,79.5C 25.3786,79.6068 25.7119,79.1068 24.5,78C 25.6906,77.3021 26.6906,76.4687 27.5,75.5 Z"/></g>
<g><path style="opacity:1" fill="#e0bb46" d="M 61.5,76.5 C 63.1667,76.5 64.8333,76.5 66.5,76.5C 68.0311,77.9245 67.6977,78.5912 65.5,78.5C 63.8333,78.5 62.1667,78.5 60.5,78.5C 60.8333,77.8333 61.1667,77.1667 61.5,76.5 Z"/></g>
<g><path style="opacity:1" fill="#dab443" d="M 81.5,76.5 C 81.5,76.8333 81.5,77.1667 81.5,77.5C 79.6965,77.4241 77.6965,77.7575 75.5,78.5C 75.5,77.8333 75.5,77.1667 75.5,76.5C 75.8333,76.5 76.1667,76.5 76.5,76.5C 76.8333,76.5 77.1667,76.5 77.5,76.5C 78.29,75.3915 78.79,74.0581 79,72.5C 79.1216,74.437 79.955,75.7703 81.5,76.5 Z"/></g>
<g><path style="opacity:1" fill="#8d6741" d="M 85.5,74.5 C 86.2389,74.369 86.9056,74.5357 87.5,75C 86.434,76.159 86.7673,76.9924 88.5,77.5C 88.5,78.5 88.5,79.5 88.5,80.5C 87.8333,80.5 87.1667,80.5 86.5,80.5C 86.1667,78.5 85.8333,76.5 85.5,74.5 Z"/></g>
<g><path style="opacity:1" fill="#936940" d="M 19.5,73.5 C 19.8333,73.5 20.1667,73.5 20.5,73.5C 20.5,73.8333 20.5,74.1667 20.5,74.5C 20.8333,75.1667 21.1667,75.8333 21.5,76.5C 20.6236,76.3691 19.9569,76.7025 19.5,77.5C 21.9248,78.6493 21.9248,79.316 19.5,79.5C 19.1667,79.5 18.8333,79.5 18.5,79.5C 16.0144,78.5384 16.0144,77.7051 18.5,77C 16.1224,76.0255 16.4557,75.3589 19.5,75C 18.2617,74.31 18.2617,73.81 19.5,73.5 Z"/></g>
<g><path style="opacity:0.812" fill="#9f8f75" d="M 38.5,77.5 C 39.5,77.8333 40.1667,78.5 40.5,79.5C 39.609,80.1098 38.609,80.4431 37.5,80.5C 36.5,80.5 35.5,80.5 34.5,80.5C 34.9175,79.7784 35.5842,79.2784 36.5,79C 36,78.8333 35.5,78.6667 35,78.5C 31.1888,79.1769 27.6888,80.5102 24.5,82.5C 24.5,82.1667 24.5,81.8333 24.5,81.5C 26.2303,80.9744 27.5637,79.9744 28.5,78.5C 31.8067,77.9492 35.1401,77.6159 38.5,77.5 Z"/></g>
<g><path style="opacity:1" fill="#c89f3b" d="M 81.5,77.5 C 81.8333,78.1667 82.1667,78.8333 82.5,79.5C 80.8333,79.5 79.1667,79.5 77.5,79.5C 76.2921,80.2341 74.9587,80.5674 73.5,80.5C 73.5,79.1667 74.1667,78.5 75.5,78.5C 77.6965,77.7575 79.6965,77.4241 81.5,77.5 Z"/></g>
<g><path style="opacity:1" fill="#c19c37" d="M 46.5,78.5 C 47.5,79.8333 48.5,79.8333 49.5,78.5C 49.9175,79.2216 50.5842,79.7216 51.5,80C 50.944,80.3826 50.6107,80.8826 50.5,81.5C 49.8333,81.5 49.5,81.8333 49.5,82.5C 48.8333,82.5 48.1667,82.5 47.5,82.5C 47.1667,81.1667 46.8333,79.8333 46.5,78.5 Z"/></g>
<g><path style="opacity:1" fill="#cda63b" d="M 51.5,77.5 C 52.1667,77.5 52.8333,77.5 53.5,77.5C 53.281,78.675 53.6143,79.675 54.5,80.5C 54.9106,79.7376 55.0773,78.7376 55,77.5C 55.6667,78.8333 56.3333,78.8333 57,77.5C 57.4643,78.0944 57.631,78.7611 57.5,79.5C 56.3143,80.7054 56.3143,82.0387 57.5,83.5C 56.209,83.7373 55.209,83.404 54.5,82.5C 55.0674,81.5798 54.4008,81.2465 52.5,81.5C 52.5674,80.0413 52.2341,78.7079 51.5,77.5 Z"/></g>
<g><path style="opacity:1" fill="#e0bb46" d="M 57.5,79.5 C 57.8333,79.5 58.1667,79.5 58.5,79.5C 60.1788,79.2852 61.1788,79.9519 61.5,81.5C 60.8977,82.3896 62.5644,82.723 66.5,82.5C 65.0813,83.4511 63.4147,83.7845 61.5,83.5C 60.8333,83.5 60.1667,83.5 59.5,83.5C 58.8333,83.5 58.1667,83.5 57.5,83.5C 56.3143,82.0387 56.3143,80.7054 57.5,79.5 Z"/></g>
<g><path style="opacity:1" fill="#d8b141" d="M 58.5,79.5 C 58.8417,78.6618 59.5084,78.3284 60.5,78.5C 62.1667,78.5 63.8333,78.5 65.5,78.5C 66.5,79.1667 67.5,79.8333 68.5,80.5C 66.901,80.2322 65.5676,80.5655 64.5,81.5C 63.5,81.5 62.5,81.5 61.5,81.5C 61.1788,79.9519 60.1788,79.2852 58.5,79.5 Z"/></g>
<g><path style="opacity:1" fill="#9b764f" d="M 88.5,77.5 C 89.1667,77.5 89.8333,77.5 90.5,77.5C 90.9382,77.4346 91.2716,77.6012 91.5,78C 90.8333,78.3333 90.1667,78.6667 89.5,79C 91.1193,79.2355 92.1193,80.0689 92.5,81.5C 92.5,82.1667 92.1667,82.5 91.5,82.5C 90.7777,81.4489 89.7777,80.7822 88.5,80.5C 88.5,79.5 88.5,78.5 88.5,77.5 Z"/></g>
<g><path style="opacity:1" fill="#c1a967" d="M 105.5,77.5 C 106.167,78.5 106.833,79.5 107.5,80.5C 105.819,82.0075 103.819,83.0075 101.5,83.5C 101.833,82.8333 102.167,82.1667 102.5,81.5C 103.853,80.4739 104.853,79.1405 105.5,77.5 Z"/></g>
<g><path style="opacity:0.008" fill="#c4bcac" d="M 110.5,78.5 C 110.027,79.9063 109.027,80.573 107.5,80.5C 107.973,79.0937 108.973,78.427 110.5,78.5 Z"/></g>
<g><path style="opacity:1" fill="#af814f" d="M 13.5,76.5 C 13.9175,77.2216 14.5842,77.7216 15.5,78C 13.1428,79.22 13.4761,80.0533 16.5,80.5C 16.0825,81.2216 15.4158,81.7216 14.5,82C 15.7119,83.1068 15.3786,83.6068 13.5,83.5C 13.5,83.1667 13.5,82.8333 13.5,82.5C 12.9094,81.8485 12.2427,81.1818 11.5,80.5C 11.7093,79.914 12.0426,79.414 12.5,79C 10.2584,77.9926 10.5918,77.1593 13.5,76.5 Z"/></g>
<g><path style="opacity:1" fill="#e1bd4a" d="M 42.5,78.5 C 44.1667,79.8333 45.8333,81.1667 47.5,82.5C 47.1583,83.3382 46.4916,83.6716 45.5,83.5C 44.2223,83.2178 43.2223,82.5511 42.5,81.5C 42.5,80.5 42.5,79.5 42.5,78.5 Z"/></g>
<g><path style="opacity:1" fill="#d1ab3f" d="M 46.5,78.5 C 46.8333,79.8333 47.1667,81.1667 47.5,82.5C 45.8333,81.1667 44.1667,79.8333 42.5,78.5C 41.8333,78.5 41.5,78.1667 41.5,77.5C 43.1639,76.7769 44.8306,77.1103 46.5,78.5 Z"/></g>
<g><path style="opacity:1" fill="#e2bc47" d="M 77.5,79.5 C 77.6107,80.1174 77.944,80.6174 78.5,81C 76.4971,81.3345 74.8304,82.1679 73.5,83.5C 71.0122,81.6122 68.0122,80.9455 64.5,81.5C 65.5676,80.5655 66.901,80.2322 68.5,80.5C 69.8333,80.5 71.1667,80.5 72.5,80.5C 72.8333,80.5 73.1667,80.5 73.5,80.5C 74.9587,80.5674 76.2921,80.2341 77.5,79.5 Z"/></g>
<g><path style="opacity:1" fill="#cfa83d" d="M 77.5,79.5 C 79.1667,79.5 80.8333,79.5 82.5,79.5C 83.8333,80.5 85.1667,81.5 86.5,82.5C 86.5,82.8333 86.5,83.1667 86.5,83.5C 84.847,83.6596 83.5137,84.3263 82.5,85.5C 81.2264,84.8106 81.2264,83.9772 82.5,83C 82.1667,82.8333 81.8333,82.6667 81.5,82.5C 80.2624,86.3107 79.5958,86.3107 79.5,82.5C 78.5,82.5 77.5,82.5 76.5,82.5C 76.5,83.5 76.5,84.5 76.5,85.5C 75.1001,86.0998 74.1001,87.0998 73.5,88.5C 73.5,86.8333 73.5,85.1667 73.5,83.5C 74.8304,82.1679 76.4971,81.3345 78.5,81C 77.944,80.6174 77.6107,80.1174 77.5,79.5 Z"/></g>
<g><path style="opacity:1" fill="#795528" d="M 86.5,80.5 C 87.1667,80.5 87.8333,80.5 88.5,80.5C 89.7777,80.7822 90.7777,81.4489 91.5,82.5C 91.5,82.8333 91.5,83.1667 91.5,83.5C 89.8333,83.5 88.1667,83.5 86.5,83.5C 86.5,83.1667 86.5,82.8333 86.5,82.5C 87.2389,82.631 87.9056,82.4643 88.5,82C 87.5842,81.7216 86.9175,81.2216 86.5,80.5 Z"/></g>
<g><path style="opacity:1" fill="#dfcc62" d="M 103.5,76.5 C 104.167,76.8333 104.833,77.1667 105.5,77.5C 104.853,79.1405 103.853,80.4739 102.5,81.5C 100.784,81.6287 99.1172,81.962 97.5,82.5C 97.1667,82.5 96.8333,82.5 96.5,82.5C 96.5,82.1667 96.5,81.8333 96.5,81.5C 97.6737,80.4863 98.3404,79.153 98.5,77.5C 99.8062,77.879 101.139,78.2124 102.5,78.5C 103.298,78.0431 103.631,77.3764 103.5,76.5 Z"/></g>
<g><path style="opacity:1" fill="#9b734b" d="M 18.5,79.5 C 18.8333,79.5 19.1667,79.5 19.5,79.5C 20.9526,80.8249 20.6192,81.6582 18.5,82C 19.5634,83.1882 20.8967,83.6882 22.5,83.5C 21.4863,84.6737 20.153,85.3404 18.5,85.5C 17.1667,85.5 15.8333,85.5 14.5,85.5C 14.1667,84.8333 13.8333,84.1667 13.5,83.5C 15.3786,83.6068 15.7119,83.1068 14.5,82C 15.4158,81.7216 16.0825,81.2216 16.5,80.5C 17.4916,80.6716 18.1583,80.3382 18.5,79.5 Z"/></g>
<g><path style="opacity:1" fill="#ad7f4e" d="M 34.5,80.5 C 35.5,80.5 36.5,80.5 37.5,80.5C 37.5,81.1667 37.8333,81.5 38.5,81.5C 38.0825,82.2216 37.4158,82.7216 36.5,83C 37.5,84 38.5,85 39.5,86C 38.9056,86.4643 38.2389,86.631 37.5,86.5C 36.5,86.5 35.5,86.5 34.5,86.5C 34.5,84.5 34.5,82.5 34.5,80.5 Z"/></g>
<g><path style="opacity:1" fill="#cea73b" d="M 61.5,81.5 C 62.5,81.5 63.5,81.5 64.5,81.5C 68.0122,80.9455 71.0122,81.6122 73.5,83.5C 71.6208,82.6586 69.6208,82.3253 67.5,82.5C 67.1667,82.5 66.8333,82.5 66.5,82.5C 62.5644,82.723 60.8977,82.3896 61.5,81.5 Z"/></g>
<g><path style="opacity:1" fill="#ece173" d="M 95.5,78.5 C 95.2627,79.791 95.596,80.791 96.5,81.5C 96.5,81.8333 96.5,82.1667 96.5,82.5C 94.9382,82.7329 93.6049,83.3995 92.5,84.5C 92.5,83.8333 92.1667,83.5 91.5,83.5C 91.5,83.1667 91.5,82.8333 91.5,82.5C 92.1667,82.5 92.5,82.1667 92.5,81.5C 92.8333,81.5 93.1667,81.5 93.5,81.5C 94.1667,80.5 94.8333,79.5 95.5,78.5 Z"/></g>
<g><path style="opacity:1" fill="#ab7d4d" d="M 13.5,82.5 C 13.5,82.8333 13.5,83.1667 13.5,83.5C 13.8333,84.1667 14.1667,84.8333 14.5,85.5C 13.0357,86.4054 11.7024,86.4054 10.5,85.5C 10.1667,84.8333 9.83333,84.1667 9.5,83.5C 10.7079,82.7659 12.0413,82.4326 13.5,82.5 Z"/></g>
<g><path style="opacity:1" fill="#6b4a23" d="M 40.5,79.5 C 41.1667,80.1667 41.8333,80.8333 42.5,81.5C 43.2223,82.5511 44.2223,83.2178 45.5,83.5C 45.5,83.8333 45.5,84.1667 45.5,84.5C 44.2976,85.4054 42.9643,85.4054 41.5,84.5C 39.6214,84.6068 39.2881,84.1068 40.5,83C 39.9558,82.2828 39.2891,81.7828 38.5,81.5C 37.8333,81.5 37.5,81.1667 37.5,80.5C 38.609,80.4431 39.609,80.1098 40.5,79.5 Z"/></g>
<g><path style="opacity:1" fill="#b28e31" d="M 49.5,82.5 C 49.5,81.8333 49.8333,81.5 50.5,81.5C 51.7079,82.2341 53.0413,82.5674 54.5,82.5C 55.209,83.404 56.209,83.7373 57.5,83.5C 58.1667,83.5 58.8333,83.5 59.5,83.5C 61.0311,84.9245 60.6977,85.5912 58.5,85.5C 57.8333,85.5 57.1667,85.5 56.5,85.5C 54.3206,84.3228 51.9872,83.3228 49.5,82.5 Z"/></g>
<g><path style="opacity:1" fill="#c7b065" d="M 102.5,81.5 C 102.167,82.1667 101.833,82.8333 101.5,83.5C 100.22,84.9313 98.5529,85.5979 96.5,85.5C 97.1098,84.609 97.4431,83.609 97.5,82.5C 99.1172,81.962 100.784,81.6287 102.5,81.5 Z"/></g>
<g><path style="opacity:1" fill="#5a3819" d="M 41.5,84.5 C 42.9643,85.4054 44.2976,85.4054 45.5,84.5C 46.8717,85.5116 48.205,86.5116 49.5,87.5C 49.1583,88.3382 48.4916,88.6716 47.5,88.5C 46.0612,88.2705 44.3945,87.6039 42.5,86.5C 42.1667,85.8333 41.8333,85.1667 41.5,84.5 Z"/></g>
<g><path style="opacity:1" fill="#d9b545" d="M 47.5,82.5 C 48.1667,82.5 48.8333,82.5 49.5,82.5C 51.9872,83.3228 54.3206,84.3228 56.5,85.5C 54.6943,86.0241 53.0276,86.6908 51.5,87.5C 50.8333,87.5 50.1667,87.5 49.5,87.5C 48.205,86.5116 46.8717,85.5116 45.5,84.5C 45.5,84.1667 45.5,83.8333 45.5,83.5C 46.4916,83.6716 47.1583,83.3382 47.5,82.5 Z"/></g>
<g><path style="opacity:1" fill="#d7b242" d="M 66.5,82.5 C 66.8333,82.5 67.1667,82.5 67.5,82.5C 68.2625,83.2679 69.2625,83.7679 70.5,84C 68.563,84.1216 67.2297,84.955 66.5,86.5C 64.0107,86.7593 62.344,85.7593 61.5,83.5C 63.4147,83.7845 65.0813,83.4511 66.5,82.5 Z"/></g>
<g><path style="opacity:1" fill="#d3ad43" d="M 86.5,83.5 C 88.1667,83.5 89.8333,83.5 91.5,83.5C 92.1667,83.5 92.5,83.8333 92.5,84.5C 92.5,85.1667 92.5,85.8333 92.5,86.5C 92.5,86.8333 92.5,87.1667 92.5,87.5C 92.1667,87.5 91.8333,87.5 91.5,87.5C 90.8333,87.5 90.1667,87.5 89.5,87.5C 86.696,86.8885 83.696,86.8885 80.5,87.5C 81.1667,86.8333 81.8333,86.1667 82.5,85.5C 83.5137,84.3263 84.847,83.6596 86.5,83.5 Z"/></g>
<g><path style="opacity:1" fill="#d8c254" d="M 96.5,82.5 C 96.8333,82.5 97.1667,82.5 97.5,82.5C 97.4431,83.609 97.1098,84.609 96.5,85.5C 95.0413,85.4326 93.7079,85.7659 92.5,86.5C 92.5,85.8333 92.5,85.1667 92.5,84.5C 93.6049,83.3995 94.9382,82.7329 96.5,82.5 Z"/></g>
<g><path style="opacity:1" fill="#ad875f" d="M 10.5,85.5 C 11.7024,86.4054 13.0357,86.4054 14.5,85.5C 15.8333,85.5 17.1667,85.5 18.5,85.5C 16.4907,87.0652 14.1573,88.0652 11.5,88.5C 11.1667,88.5 10.8333,88.5 10.5,88.5C 9.90935,87.8485 9.24269,87.1818 8.5,86.5C 8.95689,85.7025 9.62356,85.3691 10.5,85.5 Z"/></g>
<g><path style="opacity:1" fill="#e4bf48" d="M 67.5,82.5 C 69.6208,82.3253 71.6208,82.6586 73.5,83.5C 73.5,85.1667 73.5,86.8333 73.5,88.5C 72.7784,88.0825 72.2784,87.4158 72,86.5C 71.5357,87.0944 71.369,87.7611 71.5,88.5C 70.2209,87.032 68.5542,86.3653 66.5,86.5C 67.2297,84.955 68.563,84.1216 70.5,84C 69.2625,83.7679 68.2625,83.2679 67.5,82.5 Z"/></g>
<g><path style="opacity:1" fill="#b88753" d="M 6.5,83.5 C 6.83333,83.5 7.16667,83.5 7.5,83.5C 8.16667,83.5 8.83333,83.5 9.5,83.5C 9.83333,84.1667 10.1667,84.8333 10.5,85.5C 9.62356,85.3691 8.95689,85.7025 8.5,86.5C 9.24269,87.1818 9.90935,87.8485 10.5,88.5C 9.16667,88.5 7.83333,88.5 6.5,88.5C 6.5,86.8333 6.5,85.1667 6.5,83.5 Z"/></g>
<g><path style="opacity:1" fill="#92683f" d="M 38.5,81.5 C 39.2891,81.7828 39.9558,82.2828 40.5,83C 39.2881,84.1068 39.6214,84.6068 41.5,84.5C 41.8333,85.1667 42.1667,85.8333 42.5,86.5C 42.4361,87.3652 42.1027,88.3652 41.5,89.5C 40.7978,90.1157 39.7978,90.1157 38.5,89.5C 38.0825,88.7784 37.4158,88.2784 36.5,88C 37.056,87.6174 37.3893,87.1174 37.5,86.5C 38.2389,86.631 38.9056,86.4643 39.5,86C 38.5,85 37.5,84 36.5,83C 37.4158,82.7216 38.0825,82.2216 38.5,81.5 Z"/></g>
<g><path style="opacity:1" fill="#e0bb48" d="M 56.5,85.5 C 57.1667,85.5 57.8333,85.5 58.5,85.5C 58.5569,86.609 58.8902,87.609 59.5,88.5C 56.8333,88.1667 54.1667,87.8333 51.5,87.5C 53.0276,86.6908 54.6943,86.0241 56.5,85.5 Z"/></g>
<g><path style="opacity:1" fill="#e0ba46" d="M 82.5,85.5 C 81.8333,86.1667 81.1667,86.8333 80.5,87.5C 80.1667,87.5 79.8333,87.5 79.5,87.5C 78.9101,86.234 78.4101,84.9007 78,83.5C 77.8413,85.3427 77.3413,86.0093 76.5,85.5C 76.5,84.5 76.5,83.5 76.5,82.5C 77.5,82.5 78.5,82.5 79.5,82.5C 79.5958,86.3107 80.2624,86.3107 81.5,82.5C 81.8333,82.6667 82.1667,82.8333 82.5,83C 81.2264,83.9772 81.2264,84.8106 82.5,85.5 Z"/></g>
<g><path style="opacity:0.012" fill="#bfb295" d="M 96.5,85.5 C 95.4863,86.6737 94.153,87.3404 92.5,87.5C 92.5,87.1667 92.5,86.8333 92.5,86.5C 93.7079,85.7659 95.0413,85.4326 96.5,85.5 Z"/></g>
<g><path style="opacity:1" fill="#7b5531" d="M 42.5,86.5 C 44.3945,87.6039 46.0612,88.2705 47.5,88.5C 46.8333,89.8333 45.8333,90.8333 44.5,91.5C 44.0269,90.0937 43.0269,89.427 41.5,89.5C 42.1027,88.3652 42.4361,87.3652 42.5,86.5 Z"/></g>
<g><path style="opacity:1" fill="#d1ac41" d="M 59.5,83.5 C 60.1667,83.5 60.8333,83.5 61.5,83.5C 62.344,85.7593 64.0107,86.7593 66.5,86.5C 65.4489,87.2223 64.7822,88.2223 64.5,89.5C 63.1667,89.5 61.8333,89.5 60.5,89.5C 60.5,88.8333 60.1667,88.5 59.5,88.5C 58.8902,87.609 58.5569,86.609 58.5,85.5C 60.6977,85.5912 61.0311,84.9245 59.5,83.5 Z"/></g>
<g><path style="opacity:1" fill="#d8b143" d="M 66.5,86.5 C 68.5542,86.3653 70.2209,87.032 71.5,88.5C 71.5,88.8333 71.5,89.1667 71.5,89.5C 69.1667,89.5 66.8333,89.5 64.5,89.5C 64.7822,88.2223 65.4489,87.2223 66.5,86.5 Z"/></g>
<g><path style="opacity:1" fill="#deb745" d="M 89.5,87.5 C 87.2362,88.2186 84.9029,88.552 82.5,88.5C 81.209,88.7373 80.209,88.404 79.5,87.5C 79.8333,87.5 80.1667,87.5 80.5,87.5C 83.696,86.8885 86.696,86.8885 89.5,87.5 Z"/></g>
<g><path style="opacity:0.588" fill="#9c8978" d="M 6.5,82.5 C 6.5,82.8333 6.5,83.1667 6.5,83.5C 6.5,85.1667 6.5,86.8333 6.5,88.5C 7.83333,88.5 9.16667,88.5 10.5,88.5C 10.8333,88.5 11.1667,88.5 11.5,88.5C 9.73535,89.4614 7.73535,89.7947 5.5,89.5C 5.19845,86.9407 5.53178,84.6074 6.5,82.5 Z"/></g>
<g><path style="opacity:0.929" fill="#b49981" d="M 34.5,80.5 C 34.5,82.5 34.5,84.5 34.5,86.5C 34.5,89.1667 34.5,91.8333 34.5,94.5C 32.0407,89.857 32.0407,85.1904 34.5,80.5 Z"/></g>
<g><path style="opacity:0.8" fill="#ab9465" d="M 51.5,88.5 C 51.5,88.1667 51.5,87.8333 51.5,87.5C 54.1667,87.8333 56.8333,88.1667 59.5,88.5C 60.1667,88.5 60.5,88.8333 60.5,89.5C 57.4552,89.4921 54.4552,89.1587 51.5,88.5 Z"/></g>
<g><path style="opacity:1" fill="#dab447" d="M 79.5,87.5 C 80.209,88.404 81.209,88.7373 82.5,88.5C 82.5,88.8333 82.5,89.1667 82.5,89.5C 81.8333,89.5 81.1667,89.5 80.5,89.5C 79.1667,89.5 77.8333,89.5 76.5,89.5C 75.5,89.5 74.5,89.5 73.5,89.5C 72.8333,89.5 72.1667,89.5 71.5,89.5C 71.5,89.1667 71.5,88.8333 71.5,88.5C 71.369,87.7611 71.5357,87.0944 72,86.5C 72.2784,87.4158 72.7784,88.0825 73.5,88.5C 74.1001,87.0998 75.1001,86.0998 76.5,85.5C 77.3413,86.0093 77.8413,85.3427 78,83.5C 78.4101,84.9007 78.9101,86.234 79.5,87.5 Z"/></g>
<g><path style="opacity:0.208" fill="#b5a58c" d="M 89.5,87.5 C 90.1667,87.5 90.8333,87.5 91.5,87.5C 89.064,88.871 86.3973,89.871 83.5,90.5C 83.5,89.8333 83.1667,89.5 82.5,89.5C 82.5,89.1667 82.5,88.8333 82.5,88.5C 84.9029,88.552 87.2362,88.2186 89.5,87.5 Z"/></g>
<g><path style="opacity:0.718" fill="#938071" d="M 60.5,89.5 C 61.8333,89.5 63.1667,89.5 64.5,89.5C 66.8333,89.5 69.1667,89.5 71.5,89.5C 72.1667,89.5 72.8333,89.5 73.5,89.5C 73.0269,90.9063 72.0269,91.573 70.5,91.5C 67.1667,90.8333 63.8333,90.1667 60.5,89.5 Z"/></g>
<g><path style="opacity:1" fill="#9b764f" d="M 38.5,89.5 C 39.7978,90.1157 40.7978,90.1157 41.5,89.5C 43.0269,89.427 44.0269,90.0937 44.5,91.5C 43.8106,92.7736 42.9772,92.7736 42,91.5C 41.5899,92.9007 41.0899,94.234 40.5,95.5C 39.7261,96.1471 38.7261,96.4805 37.5,96.5C 35.9704,96.3601 34.9704,95.6935 34.5,94.5C 36.0683,95.4731 37.735,95.6397 39.5,95C 38.5419,93.8525 38.8753,92.8525 40.5,92C 39.6721,91.0853 38.6721,90.4186 37.5,90C 37.7284,89.6012 38.0618,89.4346 38.5,89.5 Z"/></g>
<g><path style="opacity:1" fill="#87603c" d="M 76.5,89.5 C 77.8333,89.5 79.1667,89.5 80.5,89.5C 80.1436,91.1898 79.1436,92.1898 77.5,92.5C 76.3951,93.6005 75.0618,94.2671 73.5,94.5C 74.0475,92.5153 75.0475,90.8486 76.5,89.5 Z"/></g>
<g><path style="opacity:1" fill="#b38451" d="M 34.5,86.5 C 35.5,86.5 36.5,86.5 37.5,86.5C 37.3893,87.1174 37.056,87.6174 36.5,88C 37.4158,88.2784 38.0825,88.7784 38.5,89.5C 38.0618,89.4346 37.7284,89.6012 37.5,90C 38.6721,90.4186 39.6721,91.0853 40.5,92C 38.8753,92.8525 38.5419,93.8525 39.5,95C 37.735,95.6397 36.0683,95.4731 34.5,94.5C 34.5,91.8333 34.5,89.1667 34.5,86.5 Z"/></g>
<g><path style="opacity:1" fill="#a67c51" d="M 73.5,89.5 C 74.5,89.5 75.5,89.5 76.5,89.5C 75.0475,90.8486 74.0475,92.5153 73.5,94.5C 72.8333,94.8333 72.1667,95.1667 71.5,95.5C 70.2921,94.7659 68.9587,94.4326 67.5,94.5C 67.5,94.1667 67.5,93.8333 67.5,93.5C 67.9731,92.0937 68.9731,91.427 70.5,91.5C 72.0269,91.573 73.0269,90.9063 73.5,89.5 Z"/></g>
<g><path style="opacity:1" fill="#8f7a68" d="M 49.5,87.5 C 50.1667,87.5 50.8333,87.5 51.5,87.5C 51.5,87.8333 51.5,88.1667 51.5,88.5C 48.0834,91.2546 44.4167,93.588 40.5,95.5C 41.0899,94.234 41.5899,92.9007 42,91.5C 42.9772,92.7736 43.8106,92.7736 44.5,91.5C 45.8333,90.8333 46.8333,89.8333 47.5,88.5C 48.4916,88.6716 49.1583,88.3382 49.5,87.5 Z"/></g>
<g><path style="opacity:1" fill="#956c44" d="M 77.5,92.5 C 78.1098,93.391 78.4431,94.391 78.5,95.5C 78.0652,98.1573 77.0652,100.491 75.5,102.5C 75.6716,101.508 75.3382,100.842 74.5,100.5C 74.5394,99.4168 74.8728,98.4168 75.5,97.5C 74.1395,97.2124 72.8062,96.879 71.5,96.5C 71.5,96.1667 71.5,95.8333 71.5,95.5C 72.1667,95.1667 72.8333,94.8333 73.5,94.5C 75.0618,94.2671 76.3951,93.6005 77.5,92.5 Z"/></g>
<g><path style="opacity:1" fill="#77593c" d="M 80.5,89.5 C 81.1667,89.5 81.8333,89.5 82.5,89.5C 83.1667,89.5 83.5,89.8333 83.5,90.5C 82.596,91.209 82.2627,92.209 82.5,93.5C 81.1667,94.1667 79.8333,94.8333 78.5,95.5C 78.4431,94.391 78.1098,93.391 77.5,92.5C 79.1436,92.1898 80.1436,91.1898 80.5,89.5 Z"/></g>
<g><path style="opacity:0.812" fill="#a8907c" d="M 67.5,93.5 C 67.5,93.8333 67.5,94.1667 67.5,94.5C 67.5,94.8333 67.5,95.1667 67.5,95.5C 66.7497,99.7754 68.083,103.109 71.5,105.5C 71.5,105.833 71.5,106.167 71.5,106.5C 69.2475,106.084 67.7475,104.751 67,102.5C 66.1955,99.3035 66.3622,96.3035 67.5,93.5 Z"/></g>
<g><path style="opacity:1" fill="#b88852" d="M 67.5,95.5 C 67.977,98.021 69.1436,100.688 71,103.5C 71.3826,102.944 71.8826,102.611 72.5,102.5C 72.4431,103.609 72.1098,104.609 71.5,105.5C 68.083,103.109 66.7497,99.7754 67.5,95.5 Z"/></g>
<g><path style="opacity:1" fill="#c1a181" d="M 82.5,93.5 C 82.7367,97.2733 82.2367,100.94 81,104.5C 79.1575,106.834 76.9909,107.168 74.5,105.5C 75.1098,104.609 75.4431,103.609 75.5,102.5C 77.0652,100.491 78.0652,98.1573 78.5,95.5C 79.8333,94.8333 81.1667,94.1667 82.5,93.5 Z"/></g>
<g><path style="opacity:1" fill="#b38350" d="M 67.5,95.5 C 67.5,95.1667 67.5,94.8333 67.5,94.5C 68.9587,94.4326 70.2921,94.7659 71.5,95.5C 71.5,95.8333 71.5,96.1667 71.5,96.5C 71.3893,97.3366 71.056,98.3366 70.5,99.5C 71.1329,101.519 72.1329,101.853 73.5,100.5C 73.6716,101.492 73.3382,102.158 72.5,102.5C 71.8826,102.611 71.3826,102.944 71,103.5C 69.1436,100.688 67.977,98.021 67.5,95.5 Z"/></g>
<g><path style="opacity:1" fill="#a97c4d" d="M 71.5,96.5 C 72.8062,96.879 74.1395,97.2124 75.5,97.5C 74.8728,98.4168 74.5394,99.4168 74.5,100.5C 74.1667,100.5 73.8333,100.5 73.5,100.5C 72.1329,101.853 71.1329,101.519 70.5,99.5C 71.056,98.3366 71.3893,97.3366 71.5,96.5 Z"/></g>
<g><path style="opacity:1" fill="#9f7851" d="M 73.5,100.5 C 73.8333,100.5 74.1667,100.5 74.5,100.5C 75.3382,100.842 75.6716,101.508 75.5,102.5C 75.4431,103.609 75.1098,104.609 74.5,105.5C 73.779,107.382 72.779,107.715 71.5,106.5C 71.5,106.167 71.5,105.833 71.5,105.5C 72.1098,104.609 72.4431,103.609 72.5,102.5C 73.3382,102.158 73.6716,101.492 73.5,100.5 Z"/></g>
</svg>
