<?xml version="1.0" encoding="UTF-8"?>
<!DOCTYPE svg PUBLIC "-//W3C//DTD SVG 1.1//EN" "http://www.w3.org/Graphics/SVG/1.1/DTD/svg11.dtd">
<svg xmlns="http://www.w3.org/2000/svg" version="1.1" width="128px" height="128px" style="shape-rendering:geometricPrecision; text-rendering:geometricPrecision; image-rendering:optimizeQuality; fill-rule:evenodd; clip-rule:evenodd" xmlns:xlink="http://www.w3.org/1999/xlink">
<g><path style="opacity:1" fill="#050404" d="M 62.5,22.5 C 65.1955,22.933 67.3621,24.2663 69,26.5C 72.1667,31 75.3333,35.5 78.5,40C 82.8938,41.1312 87.2272,42.4646 91.5,44C 102.618,50.3079 113.785,56.4745 125,62.5C 124.769,69.0974 121.603,73.9307 115.5,77C 105.181,83.1594 94.1808,87.6594 82.5,90.5C 82.8092,95.2675 82.3092,99.9342 81,104.5C 78.1796,105.601 75.3462,106.601 72.5,107.5C 66.8574,104.5 65.0241,99.8334 67,93.5C 67.9025,92.2986 69.0692,91.4652 70.5,91C 64.4334,90.6268 58.4334,89.7934 52.5,88.5C 48.3909,90.7657 44.3909,93.2657 40.5,96C 38.4213,96.8077 36.4213,96.641 34.5,95.5C 32.0282,90.5811 31.8615,85.5811 34,80.5C 34.7504,79.8742 35.5838,79.3742 36.5,79C 36,78.8333 35.5,78.6667 35,78.5C 27.1482,81.8402 19.3149,85.3402 11.5,89C 9.5273,89.4955 7.5273,89.6621 5.5,89.5C 5.63091,82.9373 7.29758,76.7707 10.5,71C 8.5278,66.2218 6.69446,61.3884 5,56.5C 3.52584,49.4788 6.02584,47.6454 12.5,51C 17.8333,54 23.1667,57 28.5,60C 33.3683,61.1859 37.7016,60.1859 41.5,57C 38.0664,56.9639 35.7331,55.4639 34.5,52.5C 38.5437,45.2865 43.5437,38.7865 49.5,33C 53.7077,29.287 58.041,25.787 62.5,22.5 Z"/></g>
</svg>
