<?xml version="1.0" encoding="UTF-8"?>
<!DOCTYPE svg PUBLIC "-//W3C//DTD SVG 1.1//EN" "http://www.w3.org/Graphics/SVG/1.1/DTD/svg11.dtd">
<svg xmlns="http://www.w3.org/2000/svg" version="1.1" width="128px" height="128px" style="shape-rendering:geometricPrecision; text-rendering:geometricPrecision; image-rendering:optimizeQuality; fill-rule:evenodd; clip-rule:evenodd" xmlns:xlink="http://www.w3.org/1999/xlink">
<g><path style="opacity:1" fill="#070707" d="M 127.5,64.5 C 127.5,66.1667 127.5,67.8333 127.5,69.5C 115.946,75.6278 103.613,79.4611 90.5,81C 79.7093,88.2284 68.0426,93.5617 55.5,97C 46.5,97.6667 37.5,97.6667 28.5,97C 14.6543,93.6452 4.98762,85.4786 -0.5,72.5C -0.5,66.8333 -0.5,61.1667 -0.5,55.5C 1.98353,50.7253 5.31687,46.5587 9.5,43C 17.1227,39.2031 25.1227,38.5364 33.5,41C 39.8062,43.9513 46.1395,46.9513 52.5,50C 57.1667,50.6667 61.8333,50.6667 66.5,50C 59.774,46.0452 52.4407,43.7118 44.5,43C 40.8698,41.1085 37.8698,38.4418 35.5,35C 36.1667,34.3333 36.8333,33.6667 37.5,33C 44.0256,30.8916 50.6923,30.225 57.5,31C 58.1667,31.6667 58.8333,32.3333 59.5,33C 63.0189,33.3953 66.3522,34.3953 69.5,36C 80.3179,46.9859 79.9846,57.6526 68.5,68C 55.4085,71.7487 43.0752,70.082 31.5,63C 26.955,60.8565 22.2884,60.3565 17.5,61.5C 15.252,64.1259 15.4186,66.7925 18,69.5C 19.9874,70.218 21.8208,71.218 23.5,72.5C 31.7322,74.6241 40.0656,76.2908 48.5,77.5C 61.9417,71.7809 75.6083,66.6142 89.5,62C 101.82,59.0751 114.153,58.9085 126.5,61.5C 126.263,62.791 126.596,63.791 127.5,64.5 Z"/></g>
</svg>
