<?xml version="1.0" encoding="UTF-8"?>
<!DOCTYPE svg PUBLIC "-//W3C//DTD SVG 1.1//EN" "http://www.w3.org/Graphics/SVG/1.1/DTD/svg11.dtd">
<svg xmlns="http://www.w3.org/2000/svg" version="1.1" width="128px" height="128px" style="shape-rendering:geometricPrecision; text-rendering:geometricPrecision; image-rendering:optimizeQuality; fill-rule:evenodd; clip-rule:evenodd" xmlns:xlink="http://www.w3.org/1999/xlink">
<g><path style="opacity:1" fill="#a08667" d="M 50.5,30.5 C 53.9828,29.9159 56.9828,30.7492 59.5,33C 63.0189,33.3953 66.3522,34.3953 69.5,36C 70.2524,36.6708 70.5858,37.5041 70.5,38.5C 68.9582,37.6993 67.2915,37.366 65.5,37.5C 64.5,37.5 63.5,37.5 62.5,37.5C 60.4006,36.3882 58.0673,35.7215 55.5,35.5C 49.8623,34.7803 44.1956,34.447 38.5,34.5C 42.6763,33.7746 46.6763,32.4412 50.5,30.5 Z"/></g>
<g><path style="opacity:1" fill="#8f742b" d="M 38.5,34.5 C 44.1956,34.447 49.8623,34.7803 55.5,35.5C 57.2553,37.9883 59.2553,40.3216 61.5,42.5C 59.9052,43.4339 58.2385,43.4339 56.5,42.5C 50.6807,40.7485 45.014,38.7485 39.5,36.5C 37.8946,35.9941 37.5613,35.3274 38.5,34.5 Z"/></g>
<g><path style="opacity:0.949" fill="#a19280" d="M 50.5,30.5 C 46.6763,32.4412 42.6763,33.7746 38.5,34.5C 37.5613,35.3274 37.8946,35.9941 39.5,36.5C 40.2613,37.3909 41.2613,38.0576 42.5,38.5C 43.3857,39.325 43.719,40.325 43.5,41.5C 48.0586,41.2756 52.3919,41.9423 56.5,43.5C 57.5,44.1667 58.5,44.8333 59.5,45.5C 52.9851,44.69 46.6518,43.19 40.5,41C 39.2101,38.708 37.5435,36.708 35.5,35C 36.1667,34.3333 36.8333,33.6667 37.5,33C 41.8704,32.2629 46.2038,31.4296 50.5,30.5 Z"/></g>
<g><path style="opacity:1" fill="#a68a62" d="M 39.5,36.5 C 45.014,38.7485 50.6807,40.7485 56.5,42.5C 56.5,42.8333 56.5,43.1667 56.5,43.5C 52.3919,41.9423 48.0586,41.2756 43.5,41.5C 43.719,40.325 43.3857,39.325 42.5,38.5C 41.2613,38.0576 40.2613,37.3909 39.5,36.5 Z"/></g>
<g><path style="opacity:1" fill="#171b24" d="M 62.5,37.5 C 63.5,37.5 64.5,37.5 65.5,37.5C 67.785,39.1182 69.785,41.1182 71.5,43.5C 71.0057,45.0255 70.339,46.3588 69.5,47.5C 69.4191,44.4866 68.0858,42.4866 65.5,41.5C 64.7888,39.9699 63.7888,38.6366 62.5,37.5 Z"/></g>
<g><path style="opacity:1" fill="#90785f" d="M 28.5,44.5 C 24.8333,44.5 21.1667,44.5 17.5,44.5C 12.6799,42.7461 9.0132,44.0794 6.5,48.5C 5.5,49.1667 4.5,49.8333 3.5,50.5C 3.36899,49.7611 3.53566,49.0944 4,48.5C 6.08095,45.913 8.58095,43.913 11.5,42.5C 12.9672,42.1062 14.4672,41.7728 16,41.5C 20.1403,42.8962 24.307,43.8962 28.5,44.5 Z"/></g>
<g><path style="opacity:1" fill="#a38c73" d="M 60.5,46.5 C 61.5,46.5 62.5,46.5 63.5,46.5C 65.2303,47.0256 66.5637,48.0256 67.5,49.5C 67.8333,50.1667 68.1667,50.8333 68.5,51.5C 66.1568,53.7492 63.3235,54.7492 60,54.5C 55.0709,53.8921 50.2376,52.8921 45.5,51.5C 39.9374,48.8845 34.2708,46.5511 28.5,44.5C 24.307,43.8962 20.1403,42.8962 16,41.5C 14.4672,41.7728 12.9672,42.1062 11.5,42.5C 11.6107,41.8826 11.944,41.3826 12.5,41C 19.4449,39.7173 26.4449,39.7173 33.5,41C 39.8062,43.9513 46.1395,46.9513 52.5,50C 57.1667,50.6667 61.8333,50.6667 66.5,50C 64.5681,48.5415 62.5681,47.3748 60.5,46.5 Z"/></g>
<g><path style="opacity:1" fill="#56481f" d="M 55.5,35.5 C 58.0673,35.7215 60.4006,36.3882 62.5,37.5C 63.7888,38.6366 64.7888,39.9699 65.5,41.5C 65.6347,43.5542 64.968,45.2209 63.5,46.5C 62.5,46.5 61.5,46.5 60.5,46.5C 59.8333,46.5 59.5,46.1667 59.5,45.5C 58.5,44.8333 57.5,44.1667 56.5,43.5C 56.5,43.1667 56.5,42.8333 56.5,42.5C 58.2385,43.4339 59.9052,43.4339 61.5,42.5C 59.2553,40.3216 57.2553,37.9883 55.5,35.5 Z"/></g>
<g><path style="opacity:1" fill="#302b1d" d="M 65.5,41.5 C 68.0858,42.4866 69.4191,44.4866 69.5,47.5C 69.5,48.8333 68.8333,49.5 67.5,49.5C 66.5637,48.0256 65.2303,47.0256 63.5,46.5C 64.968,45.2209 65.6347,43.5542 65.5,41.5 Z"/></g>
<g><path style="opacity:1" fill="#554533" d="M 65.5,37.5 C 67.2915,37.366 68.9582,37.6993 70.5,38.5C 71.1667,39.8333 71.8333,41.1667 72.5,42.5C 72.5,43.8333 72.5,45.1667 72.5,46.5C 71.6618,46.8417 71.3284,47.5084 71.5,48.5C 70.7281,49.6935 69.7281,50.6935 68.5,51.5C 68.1667,50.8333 67.8333,50.1667 67.5,49.5C 68.8333,49.5 69.5,48.8333 69.5,47.5C 70.339,46.3588 71.0057,45.0255 71.5,43.5C 69.785,41.1182 67.785,39.1182 65.5,37.5 Z"/></g>
<g><path style="opacity:1" fill="#4f4416" d="M 72.5,42.5 C 74.2462,43.2495 75.2462,44.5828 75.5,46.5C 75.0606,49.1761 74.0606,51.5095 72.5,53.5C 72.5,51.1667 72.5,48.8333 72.5,46.5C 72.5,45.1667 72.5,43.8333 72.5,42.5 Z"/></g>
<g><path style="opacity:1" fill="#5b4329" d="M 17.5,44.5 C 14.0741,45.465 10.9074,47.1317 8,49.5C 7.21086,51.7116 7.37753,53.7116 8.5,55.5C 8.5,56.5 8.5,57.5 8.5,58.5C 7.83333,59.1667 7.16667,59.8333 6.5,60.5C 6.5,59.1667 6.5,57.8333 6.5,56.5C 6.5,53.8333 6.5,51.1667 6.5,48.5C 9.0132,44.0794 12.6799,42.7461 17.5,44.5 Z"/></g>
<g><path style="opacity:1" fill="#202739" d="M 17.5,44.5 C 21.1667,44.5 24.8333,44.5 28.5,44.5C 34.2708,46.5511 39.9374,48.8845 45.5,51.5C 42.1226,51.0405 38.7893,50.3739 35.5,49.5C 34.4617,47.4805 33.1284,47.1472 31.5,48.5C 27.5341,47.8379 23.5341,47.5045 19.5,47.5C 14.1512,47.8482 10.4845,50.5149 8.5,55.5C 7.37753,53.7116 7.21086,51.7116 8,49.5C 10.9074,47.1317 14.0741,45.465 17.5,44.5 Z"/></g>
<g><path style="opacity:1" fill="#423b15" d="M 19.5,47.5 C 23.5341,47.5045 27.5341,47.8379 31.5,48.5C 31.5,49.1667 31.8333,49.5 32.5,49.5C 32.5,50.1667 32.5,50.8333 32.5,51.5C 31.609,50.8902 30.609,50.5569 29.5,50.5C 25.5662,49.6403 21.5662,49.307 17.5,49.5C 18.1667,48.8333 18.8333,48.1667 19.5,47.5 Z"/></g>
<g><path style="opacity:1" fill="#838689" d="M 35.5,49.5 C 34.6522,50.625 33.6522,50.625 32.5,49.5C 31.8333,49.5 31.5,49.1667 31.5,48.5C 33.1284,47.1472 34.4617,47.4805 35.5,49.5 Z"/></g>
<g><path style="opacity:1" fill="#1d222b" d="M 71.5,48.5 C 69.2962,55.9422 64.2962,58.7756 56.5,57C 52.4006,54.9104 48.0672,53.7438 43.5,53.5C 39.7674,53.13 36.1007,52.4633 32.5,51.5C 32.5,50.8333 32.5,50.1667 32.5,49.5C 33.6522,50.625 34.6522,50.625 35.5,49.5C 38.7893,50.3739 42.1226,51.0405 45.5,51.5C 50.2376,52.8921 55.0709,53.8921 60,54.5C 63.3235,54.7492 66.1568,53.7492 68.5,51.5C 69.7281,50.6935 70.7281,49.6935 71.5,48.5 Z"/></g>
<g><path style="opacity:0.922" fill="#8a8062" d="M 70.5,38.5 C 76.6559,42.4456 78.8225,48.1123 77,55.5C 76.5762,58.0254 75.4095,60.0254 73.5,61.5C 74.038,59.8828 74.3713,58.2161 74.5,56.5C 75.3029,55.5768 75.4696,54.5768 75,53.5C 72.8719,55.8071 70.3719,57.4738 67.5,58.5C 68.973,56.6053 70.6397,54.9387 72.5,53.5C 74.0606,51.5095 75.0606,49.1761 75.5,46.5C 75.2462,44.5828 74.2462,43.2495 72.5,42.5C 71.8333,41.1667 71.1667,39.8333 70.5,38.5 Z"/></g>
<g><path style="opacity:1" fill="#876d18" d="M 29.5,51.5 C 30.1667,52.1667 30.8333,52.8333 31.5,53.5C 20.1501,50.8307 12.8168,54.8307 9.5,65.5C 9.65438,61.5473 10.6544,57.8806 12.5,54.5C 14.6807,54.7163 16.3474,53.883 17.5,52C 21.4862,51.5012 25.4862,51.3345 29.5,51.5 Z"/></g>
<g><path style="opacity:1" fill="#a58753" d="M 31.5,53.5 C 31.0825,54.2216 30.4158,54.7216 29.5,55C 31.2573,56.7495 33.2573,57.9162 35.5,58.5C 34.1667,58.5 32.8333,58.5 31.5,58.5C 30.5,58.5 29.5,58.5 28.5,58.5C 28.1583,57.6618 27.4916,57.3284 26.5,57.5C 21.2096,54.2333 16.7096,55.2333 13,60.5C 12.5045,62.4727 12.3379,64.4727 12.5,66.5C 11.5,66.5 10.5,66.5 9.5,66.5C 8.39105,66.4431 7.39105,66.1098 6.5,65.5C 4.38133,62.694 4.048,59.694 5.5,56.5C 5.83333,56.5 6.16667,56.5 6.5,56.5C 6.5,57.8333 6.5,59.1667 6.5,60.5C 6.74973,62.674 7.74973,64.3406 9.5,65.5C 12.8168,54.8307 20.1501,50.8307 31.5,53.5 Z"/></g>
<g><path style="opacity:1" fill="#bdbbb1" d="M 19.5,47.5 C 18.8333,48.1667 18.1667,48.8333 17.5,49.5C 16.0783,49.7086 14.745,50.2086 13.5,51C 11.4986,54.0039 9.83197,56.5039 8.5,58.5C 8.5,57.5 8.5,56.5 8.5,55.5C 10.4845,50.5149 14.1512,47.8482 19.5,47.5 Z"/></g>
<g><path style="opacity:1" fill="#bc9d74" d="M 26.5,57.5 C 23.3508,57.2114 20.3508,57.7114 17.5,59C 15.6692,61.9254 14.0026,64.7587 12.5,67.5C 12.5,67.1667 12.5,66.8333 12.5,66.5C 12.3379,64.4727 12.5045,62.4727 13,60.5C 16.7096,55.2333 21.2096,54.2333 26.5,57.5 Z"/></g>
<g><path style="opacity:1" fill="#312f1c" d="M 72.5,46.5 C 72.5,48.8333 72.5,51.1667 72.5,53.5C 70.6397,54.9387 68.973,56.6053 67.5,58.5C 58.7599,60.1365 50.7599,58.4698 43.5,53.5C 48.0672,53.7438 52.4006,54.9104 56.5,57C 64.2962,58.7756 69.2962,55.9422 71.5,48.5C 71.3284,47.5084 71.6618,46.8417 72.5,46.5 Z"/></g>
<g><path style="opacity:1" fill="#68560d" d="M 17.5,49.5 C 21.5662,49.307 25.5662,49.6403 29.5,50.5C 29.5,50.8333 29.5,51.1667 29.5,51.5C 25.4862,51.3345 21.4862,51.5012 17.5,52C 16.3474,53.883 14.6807,54.7163 12.5,54.5C 10.6544,57.8806 9.65438,61.5473 9.5,65.5C 7.74973,64.3406 6.74973,62.674 6.5,60.5C 7.16667,59.8333 7.83333,59.1667 8.5,58.5C 9.83197,56.5039 11.4986,54.0039 13.5,51C 14.745,50.2086 16.0783,49.7086 17.5,49.5 Z"/></g>
<g><path style="opacity:1" fill="#554811" d="M 29.5,50.5 C 30.609,50.5569 31.609,50.8902 32.5,51.5C 36.1007,52.4633 39.7674,53.13 43.5,53.5C 50.7599,58.4698 58.7599,60.1365 67.5,58.5C 70.3719,57.4738 72.8719,55.8071 75,53.5C 75.4696,54.5768 75.3029,55.5768 74.5,56.5C 70.8745,59.8305 66.5411,61.4972 61.5,61.5C 57.7512,61.2494 54.0845,60.5828 50.5,59.5C 43.8423,58.2796 37.509,56.2796 31.5,53.5C 30.8333,52.8333 30.1667,52.1667 29.5,51.5C 29.5,51.1667 29.5,50.8333 29.5,50.5 Z"/></g>
<g><path style="opacity:1" fill="#957930" d="M 31.5,53.5 C 37.509,56.2796 43.8423,58.2796 50.5,59.5C 50.9175,60.2216 51.5842,60.7216 52.5,61C 51.5842,61.2784 50.9175,61.7784 50.5,62.5C 45.1119,62.238 40.1119,60.9046 35.5,58.5C 33.2573,57.9162 31.2573,56.7495 29.5,55C 30.4158,54.7216 31.0825,54.2216 31.5,53.5 Z"/></g>
<g><path style="opacity:0.949" fill="#707a8b" d="M 93.5,61.5 C 90.5475,63.4098 87.2142,64.4098 83.5,64.5C 86.5046,62.7234 89.8379,61.7234 93.5,61.5 Z"/></g>
<g><path style="opacity:1" fill="#141a2b" d="M 110.5,62.5 C 110.167,63.1667 109.833,63.8333 109.5,64.5C 108.5,64.5 107.5,64.5 106.5,64.5C 103.36,63.3592 100.027,63.1925 96.5,64C 95.944,64.3826 95.6107,64.8826 95.5,65.5C 94.1667,65.5 92.8333,65.5 91.5,65.5C 92.8083,64.7677 94.1416,63.9344 95.5,63C 100.489,62.5007 105.489,62.3341 110.5,62.5 Z"/></g>
<g><path style="opacity:1" fill="#6a6e7b" d="M 113.5,59.5 C 116.833,60.1667 120.167,60.8333 123.5,61.5C 123.5,61.8333 123.5,62.1667 123.5,62.5C 120.941,62.1984 118.607,62.5318 116.5,63.5C 114.393,64.4682 112.059,64.8016 109.5,64.5C 109.833,63.8333 110.167,63.1667 110.5,62.5C 112.199,62.6602 113.866,62.4935 115.5,62C 114.244,61.5831 113.577,60.7498 113.5,59.5 Z"/></g>
<g><path style="opacity:1" fill="#1c273c" d="M 116.5,63.5 C 118.607,62.5318 120.941,62.1984 123.5,62.5C 124.439,63.3274 124.105,63.9941 122.5,64.5C 120.435,64.4828 118.435,64.1495 116.5,63.5 Z"/></g>
<g><path style="opacity:0.788" fill="#a39281" d="M 26.5,57.5 C 27.4916,57.3284 28.1583,57.6618 28.5,58.5C 28.0825,59.2216 27.4158,59.7216 26.5,60C 30.1667,61 33.8333,62 37.5,63C 36.1667,63.6667 36.1667,64.3333 37.5,65C 43.3904,66.6811 49.3904,68.1811 55.5,69.5C 58.6207,68.3567 61.6207,68.0234 64.5,68.5C 52.8619,71.3821 41.8619,69.5487 31.5,63C 26.955,60.8565 22.2884,60.3565 17.5,61.5C 16.8333,62.5 16.1667,63.5 15.5,64.5C 16.5133,66.5266 17.5133,68.5266 18.5,70.5C 18.1667,70.5 17.8333,70.5 17.5,70.5C 15.6316,69.7368 13.9649,68.7368 12.5,67.5C 14.0026,64.7587 15.6692,61.9254 17.5,59C 20.3508,57.7114 23.3508,57.2114 26.5,57.5 Z"/></g>
<g><path style="opacity:1" fill="#a78c6c" d="M 28.5,58.5 C 29.5,58.5 30.5,58.5 31.5,58.5C 40.6539,63.2491 50.4873,65.9158 61,66.5C 65.5772,65.7001 69.7439,64.0334 73.5,61.5C 72.5642,66.4315 69.5642,68.7648 64.5,68.5C 61.6207,68.0234 58.6207,68.3567 55.5,69.5C 49.3904,68.1811 43.3904,66.6811 37.5,65C 36.1667,64.3333 36.1667,63.6667 37.5,63C 33.8333,62 30.1667,61 26.5,60C 27.4158,59.7216 28.0825,59.2216 28.5,58.5 Z"/></g>
<g><path style="opacity:1" fill="#ad925d" d="M 74.5,56.5 C 74.3713,58.2161 74.038,59.8828 73.5,61.5C 69.7439,64.0334 65.5772,65.7001 61,66.5C 50.4873,65.9158 40.6539,63.2491 31.5,58.5C 32.8333,58.5 34.1667,58.5 35.5,58.5C 40.1119,60.9046 45.1119,62.238 50.5,62.5C 50.9175,63.2216 51.5842,63.7216 52.5,64C 55.7576,64.0771 58.9243,64.2438 62,64.5C 63.8114,63.9221 65.6447,63.4221 67.5,63C 65.2922,62.8091 63.2922,62.3091 61.5,61.5C 66.5411,61.4972 70.8745,59.8305 74.5,56.5 Z"/></g>
<g><path style="opacity:1" fill="#7d6514" d="M 50.5,59.5 C 54.0845,60.5828 57.7512,61.2494 61.5,61.5C 63.2922,62.3091 65.2922,62.8091 67.5,63C 65.6447,63.4221 63.8114,63.9221 62,64.5C 58.9243,64.2438 55.7576,64.0771 52.5,64C 51.5842,63.7216 50.9175,63.2216 50.5,62.5C 50.9175,61.7784 51.5842,61.2784 52.5,61C 51.5842,60.7216 50.9175,60.2216 50.5,59.5 Z"/></g>
<g><path style="opacity:1" fill="#888a8d" d="M 106.5,64.5 C 104.265,64.2053 102.265,64.5386 100.5,65.5C 98.8333,65.5 97.1667,65.5 95.5,65.5C 95.6107,64.8826 95.944,64.3826 96.5,64C 100.027,63.1925 103.36,63.3592 106.5,64.5 Z"/></g>
<g><path style="opacity:1" fill="#2c2e28" d="M 116.5,63.5 C 118.435,64.1495 120.435,64.4828 122.5,64.5C 122.217,65.2891 121.717,65.9558 121,66.5C 119.644,65.6198 118.144,65.2865 116.5,65.5C 111.167,65.5 105.833,65.5 100.5,65.5C 102.265,64.5386 104.265,64.2053 106.5,64.5C 107.5,64.5 108.5,64.5 109.5,64.5C 112.059,64.8016 114.393,64.4682 116.5,63.5 Z"/></g>
<g><path style="opacity:1" fill="#364059" d="M 113.5,59.5 C 113.577,60.7498 114.244,61.5831 115.5,62C 113.866,62.4935 112.199,62.6602 110.5,62.5C 105.489,62.3341 100.489,62.5007 95.5,63C 94.1416,63.9344 92.8083,64.7677 91.5,65.5C 87.9153,65.1524 84.582,65.819 81.5,67.5C 78.8145,68.9838 76.1478,70.3171 73.5,71.5C 72.0413,71.4326 70.7079,71.7659 69.5,72.5C 69.5,71.8333 69.1667,71.5 68.5,71.5C 73.4149,68.9734 78.4149,66.64 83.5,64.5C 87.2142,64.4098 90.5475,63.4098 93.5,61.5C 100.109,60.3408 106.776,59.6741 113.5,59.5 Z"/></g>
<g><path style="opacity:1" fill="#957930" d="M 6.5,48.5 C 6.5,51.1667 6.5,53.8333 6.5,56.5C 6.16667,56.5 5.83333,56.5 5.5,56.5C 5.56544,56.0618 5.39877,55.7284 5,55.5C 3.9526,58.0385 3.4526,60.7052 3.5,63.5C 3.79037,67.909 5.1237,71.909 7.5,75.5C 4.44446,73.737 2.61113,71.0703 2,67.5C 1.31139,61.7204 1.81139,56.0537 3.5,50.5C 4.5,49.8333 5.5,49.1667 6.5,48.5 Z"/></g>
<g><path style="opacity:1" fill="#9c9fa3" d="M 91.5,65.5 C 88.6619,66.635 85.6619,67.635 82.5,68.5C 81.8933,68.3764 81.56,68.0431 81.5,67.5C 84.582,65.819 87.9153,65.1524 91.5,65.5 Z"/></g>
<g><path style="opacity:0.867" fill="#697080" d="M 83.5,64.5 C 78.4149,66.64 73.4149,68.9734 68.5,71.5C 66.2543,72.4552 63.921,73.1218 61.5,73.5C 68.1427,68.9489 75.476,65.9489 83.5,64.5 Z"/></g>
<g><path style="opacity:1" fill="#323022" d="M 91.5,65.5 C 92.8333,65.5 94.1667,65.5 95.5,65.5C 97.1667,65.5 98.8333,65.5 100.5,65.5C 105.833,65.5 111.167,65.5 116.5,65.5C 116.5,66.1667 116.5,66.8333 116.5,67.5C 108.735,66.188 101.068,66.188 93.5,67.5C 86.0545,69.1218 78.7212,71.1218 71.5,73.5C 72.1667,72.8333 72.8333,72.1667 73.5,71.5C 76.1478,70.3171 78.8145,68.9838 81.5,67.5C 81.56,68.0431 81.8933,68.3764 82.5,68.5C 85.6619,67.635 88.6619,66.635 91.5,65.5 Z"/></g>
<g><path style="opacity:1" fill="#5a4b0d" d="M 116.5,67.5 C 116.5,67.8333 116.5,68.1667 116.5,68.5C 108.833,68.5 101.167,68.5 93.5,68.5C 93.5,68.1667 93.5,67.8333 93.5,67.5C 101.068,66.188 108.735,66.188 116.5,67.5 Z"/></g>
<g><path style="opacity:1" fill="#7d650d" d="M 5.5,56.5 C 4.048,59.694 4.38133,62.694 6.5,65.5C 7.44121,67.4664 8.44121,69.4664 9.5,71.5C 13.2567,74.2512 16.2567,77.5846 18.5,81.5C 14.3583,80.2418 10.6916,78.2418 7.5,75.5C 5.1237,71.909 3.79037,67.909 3.5,63.5C 3.4526,60.7052 3.9526,58.0385 5,55.5C 5.39877,55.7284 5.56544,56.0618 5.5,56.5 Z"/></g>
<g><path style="opacity:1" fill="#7c6407" d="M 93.5,68.5 C 101.167,68.5 108.833,68.5 116.5,68.5C 119.742,68.4668 120.075,69.8002 117.5,72.5C 114.243,73.5514 110.91,74.2181 107.5,74.5C 102.52,75.0147 97.8536,74.348 93.5,72.5C 90.4824,72.7038 87.4824,73.0371 84.5,73.5C 86.1815,71.9925 88.1815,70.9925 90.5,70.5C 92.0269,70.573 93.0269,69.9063 93.5,68.5 Z"/></g>
<g><path style="opacity:1" fill="#a18b71" d="M 123.5,62.5 C 123.5,62.1667 123.5,61.8333 123.5,61.5C 124.5,61.5 125.5,61.5 126.5,61.5C 126.263,62.791 126.596,63.791 127.5,64.5C 127.5,66.1667 127.5,67.8333 127.5,69.5C 115.946,75.6278 103.613,79.4611 90.5,81C 86.7802,82.8599 83.1136,84.6932 79.5,86.5C 81.7769,83.8979 84.4435,81.8979 87.5,80.5C 87.5,80.1667 87.5,79.8333 87.5,79.5C 88.609,79.4431 89.609,79.1098 90.5,78.5C 90.56,79.0431 90.8933,79.3764 91.5,79.5C 96.9206,77.5003 102.254,75.8336 107.5,74.5C 110.91,74.2181 114.243,73.5514 117.5,72.5C 120.075,69.8002 119.742,68.4668 116.5,68.5C 116.5,68.1667 116.5,67.8333 116.5,67.5C 116.5,66.8333 116.5,66.1667 116.5,65.5C 118.144,65.2865 119.644,65.6198 121,66.5C 121.717,65.9558 122.217,65.2891 122.5,64.5C 124.105,63.9941 124.439,63.3274 123.5,62.5 Z"/></g>
<g><path style="opacity:1" fill="#45351a" d="M 9.5,66.5 C 10.5,66.5 11.5,66.5 12.5,66.5C 12.5,66.8333 12.5,67.1667 12.5,67.5C 13.9649,68.7368 15.6316,69.7368 17.5,70.5C 17.5,71.5 17.5,72.5 17.5,73.5C 16.5416,73.0472 15.7083,72.3805 15,71.5C 14.5357,72.0944 14.369,72.7611 14.5,73.5C 11.6769,72.0077 10.0102,69.6743 9.5,66.5 Z"/></g>
<g><path style="opacity:1" fill="#4b4112" d="M 93.5,67.5 C 93.5,67.8333 93.5,68.1667 93.5,68.5C 93.0269,69.9063 92.0269,70.573 90.5,70.5C 90.2648,69.9033 89.7648,69.5699 89,69.5C 86.5351,70.6513 84.0351,71.6513 81.5,72.5C 73.5282,75.3243 65.8615,78.8243 58.5,83C 55.2072,83.8256 51.8738,84.3256 48.5,84.5C 53.8477,83.1944 59.0144,81.1944 64,78.5C 66.5526,76.7323 69.0526,75.0657 71.5,73.5C 78.7212,71.1218 86.0545,69.1218 93.5,67.5 Z"/></g>
<g><path style="opacity:1" fill="#8d8f8e" d="M 73.5,71.5 C 72.8333,72.1667 72.1667,72.8333 71.5,73.5C 69.965,74.3543 68.6316,74.3543 67.5,73.5C 68.1667,73.1667 68.8333,72.8333 69.5,72.5C 70.7079,71.7659 72.0413,71.4326 73.5,71.5 Z"/></g>
<g><path style="opacity:1" fill="#856a4e" d="M 17.5,70.5 C 17.8333,70.5 18.1667,70.5 18.5,70.5C 19.9587,70.4326 21.2921,70.7659 22.5,71.5C 22.366,73.2915 22.6993,74.9582 23.5,76.5C 21.2163,76.0248 19.2163,75.0248 17.5,73.5C 17.5,72.5 17.5,71.5 17.5,70.5 Z"/></g>
<g><path style="opacity:1" fill="#715f5c" d="M 93.5,72.5 C 93.1667,73.1667 92.8333,73.8333 92.5,74.5C 91.1667,74.5 89.8333,74.5 88.5,74.5C 86.2326,74.8545 84.8993,74.5211 84.5,73.5C 87.4824,73.0371 90.4824,72.7038 93.5,72.5 Z"/></g>
<g><path style="opacity:0.984" fill="#646872" d="M 61.5,73.5 C 59.8243,75.8337 57.491,76.8337 54.5,76.5C 56.4261,74.7073 58.7594,73.7073 61.5,73.5 Z"/></g>
<g><path style="opacity:0.996" fill="#af9477" d="M 22.5,71.5 C 25.9693,73.1482 29.636,74.4815 33.5,75.5C 37.5705,76.1767 41.5705,77.1767 45.5,78.5C 38.0763,78.6983 30.743,78.0317 23.5,76.5C 22.6993,74.9582 22.366,73.2915 22.5,71.5 Z"/></g>
<g><path style="opacity:1" fill="#1d2536" d="M 68.5,71.5 C 69.1667,71.5 69.5,71.8333 69.5,72.5C 68.8333,72.8333 68.1667,73.1667 67.5,73.5C 66.3951,74.6005 65.0618,75.2671 63.5,75.5C 60.2558,76.4629 57.2558,77.7962 54.5,79.5C 54.1667,79.5 53.8333,79.5 53.5,79.5C 45.3993,82.1354 37.3993,82.1354 29.5,79.5C 34.8333,79.5 40.1667,79.5 45.5,79.5C 48.7619,79.0248 51.7619,78.0248 54.5,76.5C 57.491,76.8337 59.8243,75.8337 61.5,73.5C 63.921,73.1218 66.2543,72.4552 68.5,71.5 Z"/></g>
<g><path style="opacity:1" fill="#939392" d="M 63.5,75.5 C 61.183,77.7532 58.3497,79.4198 55,80.5C 54.6012,80.2716 54.4346,79.9382 54.5,79.5C 57.2558,77.7962 60.2558,76.4629 63.5,75.5 Z"/></g>
<g><path style="opacity:1" fill="#a0844e" d="M 93.5,72.5 C 97.8536,74.348 102.52,75.0147 107.5,74.5C 102.254,75.8336 96.9206,77.5003 91.5,79.5C 90.8933,79.3764 90.56,79.0431 90.5,78.5C 92.1042,77.713 92.7709,76.3797 92.5,74.5C 92.8333,73.8333 93.1667,73.1667 93.5,72.5 Z"/></g>
<g><path style="opacity:1" fill="#b19778" d="M 1.5,74.5 C 6.75746,79.0477 11.7575,83.8811 16.5,89C 20.6666,89.8719 24.6666,91.0385 28.5,92.5C 29.6808,94.0672 31.3474,94.9005 33.5,95C 36.8168,95.4983 40.1501,95.665 43.5,95.5C 43.8417,96.3382 44.5084,96.6716 45.5,96.5C 45.5,96.8333 45.5,97.1667 45.5,97.5C 29.2284,99.7324 15.7284,94.7324 5,82.5C 3.0073,80.1825 1.84063,77.5158 1.5,74.5 Z"/></g>
<g><path style="opacity:1" fill="#614625" d="M 88.5,74.5 C 89.8333,74.5 91.1667,74.5 92.5,74.5C 92.7709,76.3797 92.1042,77.713 90.5,78.5C 89.609,79.1098 88.609,79.4431 87.5,79.5C 87.0618,79.5654 86.7284,79.3988 86.5,79C 88.1066,77.951 88.7733,76.451 88.5,74.5 Z"/></g>
<g><path style="opacity:1" fill="#896f53" d="M 23.5,76.5 C 30.743,78.0317 38.0763,78.6983 45.5,78.5C 45.5,78.8333 45.5,79.1667 45.5,79.5C 40.1667,79.5 34.8333,79.5 29.5,79.5C 27.5,78.5 25.5,77.5 23.5,76.5 Z"/></g>
<g><path style="opacity:1" fill="#827c78" d="M 33.5,75.5 C 38.6165,75.2907 43.6165,75.9574 48.5,77.5C 50.4534,76.8444 52.4534,76.5111 54.5,76.5C 51.7619,78.0248 48.7619,79.0248 45.5,79.5C 45.5,79.1667 45.5,78.8333 45.5,78.5C 41.5705,77.1767 37.5705,76.1767 33.5,75.5 Z"/></g>
<g><path style="opacity:1" fill="#937c52" d="M 90.5,70.5 C 88.1815,70.9925 86.1815,71.9925 84.5,73.5C 84.8993,74.5211 86.2326,74.8545 88.5,74.5C 88.7733,76.451 88.1066,77.951 86.5,79C 86.7284,79.3988 87.0618,79.5654 87.5,79.5C 87.5,79.8333 87.5,80.1667 87.5,80.5C 85.4352,80.4828 83.4352,80.1495 81.5,79.5C 81.5,78.8333 81.1667,78.5 80.5,78.5C 80.5,77.1667 80.5,75.8333 80.5,74.5C 80.8333,73.8333 81.1667,73.1667 81.5,72.5C 84.0351,71.6513 86.5351,70.6513 89,69.5C 89.7648,69.5699 90.2648,69.9033 90.5,70.5 Z"/></g>
<g><path style="opacity:1" fill="#77600b" d="M 81.5,72.5 C 81.1667,73.1667 80.8333,73.8333 80.5,74.5C 77.3175,76.2557 74.3175,78.2557 71.5,80.5C 66.8289,82.5026 62.1622,84.5026 57.5,86.5C 57.6309,85.6236 57.2975,84.9569 56.5,84.5C 47.813,87.9822 39.1463,88.3155 30.5,85.5C 36.1454,86.3871 41.812,86.5538 47.5,86C 48.056,85.6174 48.3893,85.1174 48.5,84.5C 51.8738,84.3256 55.2072,83.8256 58.5,83C 65.8615,78.8243 73.5282,75.3243 81.5,72.5 Z"/></g>
<g><path style="opacity:1" fill="#b6b2a3" d="M 20.5,79.5 C 24.5152,80.5119 28.5152,81.5119 32.5,82.5C 32.1583,83.3382 31.4916,83.6716 30.5,83.5C 26.6733,83.2484 23.3399,81.9151 20.5,79.5 Z"/></g>
<g><path style="opacity:1" fill="#282821" d="M 17.5,73.5 C 19.2163,75.0248 21.2163,76.0248 23.5,76.5C 25.5,77.5 27.5,78.5 29.5,79.5C 37.3993,82.1354 45.3993,82.1354 53.5,79.5C 53.4226,80.7498 52.756,81.5831 51.5,82C 48.854,82.4974 46.1873,82.6641 43.5,82.5C 39.8333,82.5 36.1667,82.5 32.5,82.5C 28.5152,81.5119 24.5152,80.5119 20.5,79.5C 19.4378,76.622 17.4378,74.622 14.5,73.5C 14.369,72.7611 14.5357,72.0944 15,71.5C 15.7083,72.3805 16.5416,73.0472 17.5,73.5 Z"/></g>
<g><path style="opacity:1" fill="#5d4d0f" d="M 6.5,65.5 C 7.39105,66.1098 8.39105,66.4431 9.5,66.5C 10.0102,69.6743 11.6769,72.0077 14.5,73.5C 17.4378,74.622 19.4378,76.622 20.5,79.5C 23.3399,81.9151 26.6733,83.2484 30.5,83.5C 34.6344,84.4849 38.9677,84.8182 43.5,84.5C 45.1667,84.5 46.8333,84.5 48.5,84.5C 48.3893,85.1174 48.056,85.6174 47.5,86C 41.812,86.5538 36.1454,86.3871 30.5,85.5C 26.3011,84.7323 22.3011,83.399 18.5,81.5C 16.2567,77.5846 13.2567,74.2512 9.5,71.5C 8.44121,69.4664 7.44121,67.4664 6.5,65.5 Z"/></g>
<g><path style="opacity:1" fill="#747265" d="M 32.5,82.5 C 36.1667,82.5 39.8333,82.5 43.5,82.5C 43.5,83.1667 43.5,83.8333 43.5,84.5C 38.9677,84.8182 34.6344,84.4849 30.5,83.5C 31.4916,83.6716 32.1583,83.3382 32.5,82.5 Z"/></g>
<g><path style="opacity:1" fill="#3c3619" d="M 67.5,73.5 C 68.6316,74.3543 69.965,74.3543 71.5,73.5C 69.0526,75.0657 66.5526,76.7323 64,78.5C 59.0144,81.1944 53.8477,83.1944 48.5,84.5C 46.8333,84.5 45.1667,84.5 43.5,84.5C 43.5,83.8333 43.5,83.1667 43.5,82.5C 46.1873,82.6641 48.854,82.4974 51.5,82C 52.756,81.5831 53.4226,80.7498 53.5,79.5C 53.8333,79.5 54.1667,79.5 54.5,79.5C 54.4346,79.9382 54.6012,80.2716 55,80.5C 58.3497,79.4198 61.183,77.7532 63.5,75.5C 65.0618,75.2671 66.3951,74.6005 67.5,73.5 Z"/></g>
<g><path style="opacity:1" fill="#b0915d" d="M 3.5,50.5 C 1.81139,56.0537 1.31139,61.7204 2,67.5C 2.61113,71.0703 4.44446,73.737 7.5,75.5C 15.3444,85.2489 25.6777,89.9156 38.5,89.5C 34.3148,90.4046 29.9815,90.5713 25.5,90C 26.5707,90.8518 27.5707,91.6851 28.5,92.5C 24.6666,91.0385 20.6666,89.8719 16.5,89C 11.7575,83.8811 6.75746,79.0477 1.5,74.5C 0.833333,73.8333 0.166667,73.1667 -0.5,72.5C -0.5,66.8333 -0.5,61.1667 -0.5,55.5C 0.593015,53.6508 1.92635,51.9842 3.5,50.5 Z"/></g>
<g><path style="opacity:1" fill="#997c35" d="M 80.5,74.5 C 80.5,75.8333 80.5,77.1667 80.5,78.5C 76.3919,81.4593 72.0586,84.126 67.5,86.5C 65.8008,86.6602 64.1341,86.4935 62.5,86C 65.8981,84.6429 68.8981,82.8096 71.5,80.5C 74.3175,78.2557 77.3175,76.2557 80.5,74.5 Z"/></g>
<g><path style="opacity:1" fill="#bf9f77" d="M 81.5,79.5 C 83.4352,80.1495 85.4352,80.4828 87.5,80.5C 84.4435,81.8979 81.7769,83.8979 79.5,86.5C 74.5156,88.3255 69.8489,90.6589 65.5,93.5C 58.961,95.2739 52.2943,96.2739 45.5,96.5C 44.5084,96.6716 43.8417,96.3382 43.5,95.5C 58.2117,94.6085 70.8784,89.2752 81.5,79.5 Z"/></g>
<g><path style="opacity:1" fill="#836911" d="M 7.5,75.5 C 10.6916,78.2418 14.3583,80.2418 18.5,81.5C 22.3011,83.399 26.3011,84.7323 30.5,85.5C 39.1463,88.3155 47.813,87.9822 56.5,84.5C 57.2975,84.9569 57.6309,85.6236 57.5,86.5C 51.3563,88.3945 45.0229,89.3945 38.5,89.5C 25.6777,89.9156 15.3444,85.2489 7.5,75.5 Z"/></g>
<g><path style="opacity:1" fill="#b49466" d="M 80.5,78.5 C 81.1667,78.5 81.5,78.8333 81.5,79.5C 70.8784,89.2752 58.2117,94.6085 43.5,95.5C 40.1501,95.665 36.8168,95.4983 33.5,95C 31.3474,94.9005 29.6808,94.0672 28.5,92.5C 38.8894,92.8698 49.2227,92.3698 59.5,91C 62.3538,89.6035 65.0205,88.1035 67.5,86.5C 72.0586,84.126 76.3919,81.4593 80.5,78.5 Z"/></g>
<g><path style="opacity:1" fill="#a38444" d="M 71.5,80.5 C 68.8981,82.8096 65.8981,84.6429 62.5,86C 64.1341,86.4935 65.8008,86.6602 67.5,86.5C 65.0205,88.1035 62.3538,89.6035 59.5,91C 49.2227,92.3698 38.8894,92.8698 28.5,92.5C 27.5707,91.6851 26.5707,90.8518 25.5,90C 29.9815,90.5713 34.3148,90.4046 38.5,89.5C 45.0229,89.3945 51.3563,88.3945 57.5,86.5C 62.1622,84.5026 66.8289,82.5026 71.5,80.5 Z"/></g>
<g><path style="opacity:0.357" fill="#a59b8f" d="M 79.5,86.5 C 75.4194,89.8737 70.7528,92.207 65.5,93.5C 69.8489,90.6589 74.5156,88.3255 79.5,86.5 Z"/></g>
<g><path style="opacity:0.341" fill="#a69889" d="M 65.5,93.5 C 59.3347,96.7023 52.668,98.0356 45.5,97.5C 45.5,97.1667 45.5,96.8333 45.5,96.5C 52.2943,96.2739 58.961,95.2739 65.5,93.5 Z"/></g>
</svg>
