<?xml version="1.0" encoding="UTF-8"?>
<!DOCTYPE svg PUBLIC "-//W3C//DTD SVG 1.1//EN" "http://www.w3.org/Graphics/SVG/1.1/DTD/svg11.dtd">
<svg xmlns="http://www.w3.org/2000/svg" version="1.1" width="128px" height="128px" style="shape-rendering:geometricPrecision; text-rendering:geometricPrecision; image-rendering:optimizeQuality; fill-rule:evenodd; clip-rule:evenodd" xmlns:xlink="http://www.w3.org/1999/xlink">
<g><path style="opacity:1" fill="#bec1be" d="M 68.5,40.5 C 66.7775,38.7472 65.2775,36.7472 64,34.5C 61.8709,37.4571 59.0376,39.4571 55.5,40.5C 56.412,38.4048 57.5787,36.4048 59,34.5C 64.834,32.1568 68.0006,34.1568 68.5,40.5 Z"/></g>
<g><path style="opacity:1" fill="#9ca087" d="M 68.5,40.5 C 69.5375,41.9303 70.2041,43.597 70.5,45.5C 68.9685,44.3226 67.4685,42.9893 66,41.5C 63.1165,44.5054 59.9498,46.3387 56.5,47C 57.8228,47.8159 58.4894,48.9826 58.5,50.5C 57.5,50.5 56.5,50.5 55.5,50.5C 54.4751,47.4361 54.4751,44.1028 55.5,40.5C 59.0376,39.4571 61.8709,37.4571 64,34.5C 65.2775,36.7472 66.7775,38.7472 68.5,40.5 Z"/></g>
<g><path style="opacity:1" fill="#7b7f53" d="M 70.5,45.5 C 70.5,45.8333 70.5,46.1667 70.5,46.5C 69.596,47.209 69.2627,48.209 69.5,49.5C 65.7307,49.244 62.0641,49.5773 58.5,50.5C 58.4894,48.9826 57.8228,47.8159 56.5,47C 59.9498,46.3387 63.1165,44.5054 66,41.5C 67.4685,42.9893 68.9685,44.3226 70.5,45.5 Z"/></g>
<g><path style="opacity:0.263" fill="#bebea0" d="M 70.5,46.5 C 77.9542,48.2605 85.6209,49.5938 93.5,50.5C 85.5097,49.9769 77.5097,49.6436 69.5,49.5C 69.2627,48.209 69.596,47.209 70.5,46.5 Z"/></g>
<g><path style="opacity:1" fill="#adb1a4" d="M 17.5,48.5 C 15.8467,49.6045 14.18,49.7712 12.5,49C 13.3279,49.9147 14.3279,50.5814 15.5,51C 12.8333,51.6667 12.8333,52.3333 15.5,53C 12.4557,53.3589 12.1224,54.0255 14.5,55C 10.5,55.6667 10.5,56.3333 14.5,57C 13.2625,57.2321 12.2625,57.7321 11.5,58.5C 7.56749,55.3691 6.23416,51.3691 7.5,46.5C 11.2293,45.3012 14.5627,45.9679 17.5,48.5 Z"/></g>
<g><path style="opacity:1" fill="#686927" d="M 69.5,49.5 C 77.5097,49.6436 85.5097,49.9769 93.5,50.5C 99.9495,50.9428 105.949,52.6095 111.5,55.5C 112.514,56.6737 113.847,57.3404 115.5,57.5C 115.833,58.5 116.5,59.1667 117.5,59.5C 116.554,62.4732 114.554,63.6398 111.5,63C 112.993,61.8438 112.826,61.0104 111,60.5C 109.902,61.3839 109.402,62.3839 109.5,63.5C 107.841,60.901 106.174,58.2344 104.5,55.5C 101.584,54.1387 99.2509,54.8053 97.5,57.5C 97.1667,57.5 96.8333,57.5 96.5,57.5C 96.5,57.1667 96.5,56.8333 96.5,56.5C 91.2082,55.1712 85.5415,54.5045 79.5,54.5C 69.0099,55.2856 58.6765,55.1189 48.5,54C 50.4319,52.5415 52.4319,51.3748 54.5,50.5C 54.8333,50.5 55.1667,50.5 55.5,50.5C 56.5,50.5 57.5,50.5 58.5,50.5C 62.0641,49.5773 65.7307,49.244 69.5,49.5 Z"/></g>
<g><path style="opacity:0.357" fill="#d6d6bd" d="M 23.5,52.5 C 23.5,52.1667 23.5,51.8333 23.5,51.5C 25.0269,51.427 26.0269,52.0937 26.5,53.5C 25.391,53.4431 24.391,53.1098 23.5,52.5 Z"/></g>
<g><path style="opacity:1" fill="#7d8158" d="M 17.5,48.5 C 19.8185,48.9925 21.8185,49.9925 23.5,51.5C 23.5,51.8333 23.5,52.1667 23.5,52.5C 21.9897,53.8361 20.3231,55.0027 18.5,56C 19.6906,56.6979 20.6906,57.5313 21.5,58.5C 21.1984,61.0593 21.5318,63.3926 22.5,65.5C 22.9321,66.7095 23.5987,67.7095 24.5,68.5C 24.8333,68.5 25.1667,68.5 25.5,68.5C 25.1667,69.1667 24.8333,69.8333 24.5,70.5C 20.8845,71.5916 17.2178,72.0916 13.5,72C 14.6341,70.984 14.3008,70.3173 12.5,70C 15.1667,69.3333 15.1667,68.6667 12.5,68C 14.9316,66.9125 14.5983,66.4125 11.5,66.5C 12.2894,65.085 12.9561,63.585 13.5,62C 13.1639,60.9701 12.4972,60.4701 11.5,60.5C 11.5,59.8333 11.5,59.1667 11.5,58.5C 12.2625,57.7321 13.2625,57.2321 14.5,57C 10.5,56.3333 10.5,55.6667 14.5,55C 12.1224,54.0255 12.4557,53.3589 15.5,53C 12.8333,52.3333 12.8333,51.6667 15.5,51C 14.3279,50.5814 13.3279,49.9147 12.5,49C 14.18,49.7712 15.8467,49.6045 17.5,48.5 Z"/></g>
<g><path style="opacity:1" fill="#7f7f42" d="M 54.5,50.5 C 52.4319,51.3748 50.4319,52.5415 48.5,54C 58.6765,55.1189 69.0099,55.2856 79.5,54.5C 85.5415,54.5045 91.2082,55.1712 96.5,56.5C 81.5961,56.3295 66.7628,56.6629 52,57.5C 51.196,56.1955 50.0293,55.5288 48.5,55.5C 41.18,56.9247 33.8467,57.258 26.5,56.5C 24.4861,56.4365 22.8194,57.1032 21.5,58.5C 20.6906,57.5313 19.6906,56.6979 18.5,56C 20.3231,55.0027 21.9897,53.8361 23.5,52.5C 24.391,53.1098 25.391,53.4431 26.5,53.5C 35.9184,53.2496 45.2517,52.2496 54.5,50.5 Z"/></g>
<g><path style="opacity:0.208" fill="#dadabf" d="M 111.5,55.5 C 113.38,55.2291 114.713,55.8958 115.5,57.5C 113.847,57.3404 112.514,56.6737 111.5,55.5 Z"/></g>
<g><path style="opacity:1" fill="#848440" d="M 96.5,56.5 C 96.5,56.8333 96.5,57.1667 96.5,57.5C 96.631,58.2389 96.4643,58.9056 96,59.5C 92.2296,59.0399 88.563,59.0399 85,59.5C 82.43,58.5844 79.7633,57.9177 77,57.5C 72.2694,58.0489 67.6027,58.7155 63,59.5C 51.4006,59.6151 39.734,59.6151 28,59.5C 26.124,59.5247 24.624,60.1914 23.5,61.5C 22.6618,61.8417 22.3284,62.5084 22.5,63.5C 22.5,64.1667 22.5,64.8333 22.5,65.5C 21.5318,63.3926 21.1984,61.0593 21.5,58.5C 22.8194,57.1032 24.4861,56.4365 26.5,56.5C 33.8467,57.258 41.18,56.9247 48.5,55.5C 50.0293,55.5288 51.196,56.1955 52,57.5C 66.7628,56.6629 81.5961,56.3295 96.5,56.5 Z"/></g>
<g><path style="opacity:0.278" fill="#dbddc2" d="M 115.5,57.5 C 117.027,57.427 118.027,58.0937 118.5,59.5C 118.167,59.5 117.833,59.5 117.5,59.5C 116.5,59.1667 115.833,58.5 115.5,57.5 Z"/></g>
<g><path style="opacity:1" fill="#92904b" d="M 96.5,57.5 C 96.8333,57.5 97.1667,57.5 97.5,57.5C 97.8652,59.588 97.8652,61.9213 97.5,64.5C 96.6618,64.1583 96.3284,63.4916 96.5,62.5C 95.8658,61.0532 94.6991,60.3866 93,60.5C 80.3921,60.7588 67.8921,60.7588 55.5,60.5C 51.6055,61.0598 47.7721,61.7264 44,62.5C 37.5291,61.6146 30.6958,61.2813 23.5,61.5C 24.624,60.1914 26.124,59.5247 28,59.5C 39.734,59.6151 51.4006,59.6151 63,59.5C 67.6027,58.7155 72.2694,58.0489 77,57.5C 79.7633,57.9177 82.43,58.5844 85,59.5C 88.563,59.0399 92.2296,59.0399 96,59.5C 96.4643,58.9056 96.631,58.2389 96.5,57.5 Z"/></g>
<g><path style="opacity:0.043" fill="#e0dfc1" d="M 118.5,59.5 C 119.833,59.5 120.5,60.1667 120.5,61.5C 120.5,60.1667 119.833,59.5 118.5,59.5 Z"/></g>
<g><path style="opacity:1" fill="#a9a257" d="M 96.5,62.5 C 91.344,62.58 86.1773,62.9133 81,63.5C 80.196,62.1955 79.0293,61.5288 77.5,61.5C 69.7471,62.4173 62.2471,63.4173 55,64.5C 44.1591,63.8351 33.3258,63.5017 22.5,63.5C 22.3284,62.5084 22.6618,61.8417 23.5,61.5C 30.6958,61.2813 37.5291,61.6146 44,62.5C 47.7721,61.7264 51.6055,61.0598 55.5,60.5C 67.8921,60.7588 80.3921,60.7588 93,60.5C 94.6991,60.3866 95.8658,61.0532 96.5,62.5 Z"/></g>
<g><path style="opacity:0.965" fill="#c4c7bd" d="M 11.5,60.5 C 12.4972,60.4701 13.1639,60.9701 13.5,62C 12.9561,63.585 12.2894,65.085 11.5,66.5C 11.4226,67.7498 10.756,68.5831 9.5,69C 10.1667,69.3333 10.8333,69.6667 11.5,70C 8.53633,70.8403 8.203,71.8403 10.5,73C 10.5,74 10.5,75 10.5,76C 11.0944,76.4643 11.7611,76.631 12.5,76.5C 9.54415,77.7612 7.87749,76.5945 7.5,73C 8.70693,68.7627 10.0403,64.596 11.5,60.5 Z"/></g>
<g><path style="opacity:1" fill="#c8b964" d="M 96.5,62.5 C 96.3284,63.4916 96.6618,64.1583 97.5,64.5C 97.5,65.1667 97.5,65.8333 97.5,66.5C 96.3478,65.375 95.3478,65.375 94.5,66.5C 91.1667,66.5 87.8333,66.5 84.5,66.5C 83.5,66.5 82.5,66.5 81.5,66.5C 78.2231,65.3673 74.7231,64.7006 71,64.5C 59.4691,65.755 47.9691,65.755 36.5,64.5C 32.2753,65.7271 28.2753,67.0604 24.5,68.5C 23.5987,67.7095 22.9321,66.7095 22.5,65.5C 22.5,64.8333 22.5,64.1667 22.5,63.5C 33.3258,63.5017 44.1591,63.8351 55,64.5C 62.2471,63.4173 69.7471,62.4173 77.5,61.5C 79.0293,61.5288 80.196,62.1955 81,63.5C 86.1773,62.9133 91.344,62.58 96.5,62.5 Z"/></g>
<g><path style="opacity:1" fill="#737331" d="M 117.5,59.5 C 117.833,59.5 118.167,59.5 118.5,59.5C 118.5,60.8333 119.167,61.5 120.5,61.5C 120.5,61.8333 120.5,62.1667 120.5,62.5C 114.303,67.0915 107.303,69.7582 99.5,70.5C 98.8333,69.1667 98.1667,67.8333 97.5,66.5C 97.5,65.8333 97.5,65.1667 97.5,64.5C 97.8652,61.9213 97.8652,59.588 97.5,57.5C 99.2509,54.8053 101.584,54.1387 104.5,55.5C 106.174,58.2344 107.841,60.901 109.5,63.5C 109.402,62.3839 109.902,61.3839 111,60.5C 112.826,61.0104 112.993,61.8438 111.5,63C 114.554,63.6398 116.554,62.4732 117.5,59.5 Z"/></g>
<g><path style="opacity:1" fill="#eed877" d="M 94.5,66.5 C 95.3478,65.375 96.3478,65.375 97.5,66.5C 98.1667,67.8333 98.8333,69.1667 99.5,70.5C 90.3693,72.9108 81.036,73.9108 71.5,73.5C 71.0377,72.1201 70.0377,71.4534 68.5,71.5C 66.8228,72.1869 65.1561,72.8535 63.5,73.5C 58.4674,72.9782 53.4674,72.3115 48.5,71.5C 48.1667,71.5 47.8333,71.5 47.5,71.5C 45.3024,71.1249 43.3024,70.4582 41.5,69.5C 41.0825,68.7784 40.4158,68.2784 39.5,68C 40.1667,67.8333 40.8333,67.6667 41.5,67.5C 49.9796,67.6437 58.4796,67.977 67,68.5C 69.9508,66.9239 73.1174,66.2572 76.5,66.5C 76.2627,67.791 76.596,68.791 77.5,69.5C 79.9128,71.0507 82.5794,71.7174 85.5,71.5C 87.5914,71.6816 89.5914,71.3482 91.5,70.5C 92.3636,68.8035 93.6969,67.6368 95.5,67C 95.2716,66.6012 94.9382,66.4346 94.5,66.5 Z"/></g>
<g><path style="opacity:1" fill="#e4ce71" d="M 81.5,66.5 C 79.368,66.5544 78.0347,67.5544 77.5,69.5C 76.596,68.791 76.2627,67.791 76.5,66.5C 73.1174,66.2572 69.9508,66.9239 67,68.5C 58.4796,67.977 49.9796,67.6437 41.5,67.5C 40.8333,67.6667 40.1667,67.8333 39.5,68C 40.4158,68.2784 41.0825,68.7784 41.5,69.5C 40.1667,69.5 38.8333,69.5 37.5,69.5C 33.7016,68.5166 29.7016,68.1832 25.5,68.5C 25.1667,68.5 24.8333,68.5 24.5,68.5C 28.2753,67.0604 32.2753,65.7271 36.5,64.5C 47.9691,65.755 59.4691,65.755 71,64.5C 74.7231,64.7006 78.2231,65.3673 81.5,66.5 Z"/></g>
<g><path style="opacity:0.569" fill="#f9f6d9" d="M 25.5,68.5 C 29.7016,68.1832 33.7016,68.5166 37.5,69.5C 37.1667,69.5 36.8333,69.5 36.5,69.5C 35.8333,69.5 35.1667,69.5 34.5,69.5C 31.1194,69.4595 27.7861,69.7929 24.5,70.5C 24.8333,69.8333 25.1667,69.1667 25.5,68.5 Z"/></g>
<g><path style="opacity:1" fill="#9ea085" d="M 81.5,66.5 C 82.5,66.5 83.5,66.5 84.5,66.5C 84.366,68.2915 84.6993,69.9582 85.5,71.5C 82.5794,71.7174 79.9128,71.0507 77.5,69.5C 78.0347,67.5544 79.368,66.5544 81.5,66.5 Z"/></g>
<g><path style="opacity:1" fill="#767742" d="M 84.5,66.5 C 87.8333,66.5 91.1667,66.5 94.5,66.5C 94.9382,66.4346 95.2716,66.6012 95.5,67C 93.6969,67.6368 92.3636,68.8035 91.5,70.5C 89.5914,71.3482 87.5914,71.6816 85.5,71.5C 84.6993,69.9582 84.366,68.2915 84.5,66.5 Z"/></g>
<g><path style="opacity:1" fill="#9ea28a" d="M 11.5,66.5 C 14.5983,66.4125 14.9316,66.9125 12.5,68C 15.1667,68.6667 15.1667,69.3333 12.5,70C 14.3008,70.3173 14.6341,70.984 13.5,72C 17.2178,72.0916 20.8845,71.5916 24.5,70.5C 21.0864,73.5402 17.0864,75.5402 12.5,76.5C 11.7611,76.631 11.0944,76.4643 10.5,76C 10.5,75 10.5,74 10.5,73C 8.203,71.8403 8.53633,70.8403 11.5,70C 10.8333,69.6667 10.1667,69.3333 9.5,69C 10.756,68.5831 11.4226,67.7498 11.5,66.5 Z"/></g>
<g><path style="opacity:1" fill="#aaafa0" d="M 34.5,69.5 C 35.1667,69.5 35.8333,69.5 36.5,69.5C 35.2935,70.8804 35.6269,72.0471 37.5,73C 39.9171,74.6258 42.4171,76.1258 45,77.5C 45.9383,75.5115 46.7717,73.5115 47.5,71.5C 47.8333,71.5 48.1667,71.5 48.5,71.5C 48.5,71.8333 48.5,72.1667 48.5,72.5C 47.6766,75.4802 46.3433,78.1469 44.5,80.5C 43.603,79.4019 42.7697,79.4019 42,80.5C 39.9633,78.2941 37.7966,76.2941 35.5,74.5C 33.6275,73.1037 33.2942,71.437 34.5,69.5 Z"/></g>
<g><path style="opacity:0.62" fill="#f8f4d4" d="M 48.5,72.5 C 48.5,72.1667 48.5,71.8333 48.5,71.5C 53.4674,72.3115 58.4674,72.9782 63.5,73.5C 63.5,74.1667 63.1667,74.5 62.5,74.5C 61.8333,74.5 61.1667,74.5 60.5,74.5C 56.4185,74.1082 52.4185,73.4416 48.5,72.5 Z"/></g>
<g><path style="opacity:0.549" fill="#f2efd1" d="M 120.5,62.5 C 117.374,66.2383 113.374,68.7383 108.5,70C 96.7511,73.4581 84.7511,75.2914 72.5,75.5C 71.6618,75.1583 71.3284,74.4916 71.5,73.5C 81.036,73.9108 90.3693,72.9108 99.5,70.5C 107.303,69.7582 114.303,67.0915 120.5,62.5 Z"/></g>
<g><path style="opacity:1" fill="#81855f" d="M 36.5,69.5 C 36.8333,69.5 37.1667,69.5 37.5,69.5C 38.8333,69.5 40.1667,69.5 41.5,69.5C 43.3024,70.4582 45.3024,71.1249 47.5,71.5C 46.7717,73.5115 45.9383,75.5115 45,77.5C 42.4171,76.1258 39.9171,74.6258 37.5,73C 35.6269,72.0471 35.2935,70.8804 36.5,69.5 Z"/></g>
<g><path style="opacity:1" fill="#afb2a9" d="M 60.5,74.5 C 61.1667,74.5 61.8333,74.5 62.5,74.5C 64.92,78.2802 68.2533,79.6135 72.5,78.5C 69.151,87.7378 65.3176,87.7378 61,78.5C 60.51,77.2068 60.3433,75.8734 60.5,74.5 Z"/></g>
<g><path style="opacity:1" fill="#858965" d="M 71.5,73.5 C 71.3284,74.4916 71.6618,75.1583 72.5,75.5C 72.5,76.5 72.5,77.5 72.5,78.5C 68.2533,79.6135 64.92,78.2802 62.5,74.5C 63.1667,74.5 63.5,74.1667 63.5,73.5C 65.1561,72.8535 66.8228,72.1869 68.5,71.5C 70.0377,71.4534 71.0377,72.1201 71.5,73.5 Z"/></g>
<g><path style="opacity:0.367" fill="#d0d3d8" d="M 35.5,74.5 C 37.7966,76.2941 39.9633,78.2941 42,80.5C 42.7697,79.4019 43.603,79.4019 44.5,80.5C 43.2942,83.1391 41.2942,83.9724 38.5,83C 36.8182,80.4582 35.8182,77.6249 35.5,74.5 Z"/></g>
</svg>
