<?xml version="1.0" encoding="UTF-8"?>
<!DOCTYPE svg PUBLIC "-//W3C//DTD SVG 1.1//EN" "http://www.w3.org/Graphics/SVG/1.1/DTD/svg11.dtd">
<svg xmlns="http://www.w3.org/2000/svg" version="1.1" width="128px" height="128px" style="shape-rendering:geometricPrecision; text-rendering:geometricPrecision; image-rendering:optimizeQuality; fill-rule:evenodd; clip-rule:evenodd" xmlns:xlink="http://www.w3.org/1999/xlink">
<g><path style="opacity:1" fill="#0c0c0c" d="M 59.5,33.5 C 62.3646,33.0548 64.8646,33.7215 67,35.5C 69.0896,39.5994 70.2562,43.9328 70.5,48.5C 85.7103,47.9113 100.377,50.4113 114.5,56C 117.002,57.3375 119.002,59.1708 120.5,61.5C 120.124,63.3829 119.124,64.8829 117.5,66C 103.213,72.3826 88.2129,75.5493 72.5,75.5C 72.5793,78.2706 72.0793,80.9373 71,83.5C 68.0337,86.2652 65.367,85.9318 63,82.5C 61.2932,80.0912 60.4598,77.4245 60.5,74.5C 56.5784,74.155 52.7451,73.4884 49,72.5C 42.7118,87.4651 37.5451,87.1318 33.5,71.5C 33.7093,70.914 34.0426,70.414 34.5,70C 32.1667,69.3333 29.8333,69.3333 27.5,70C 23.5311,71.9844 19.5311,73.9844 15.5,76C 11.2826,78.709 8.6159,77.709 7.5,73C 8.55384,68.8957 9.88718,64.8957 11.5,61C 9.61999,57.2779 7.95333,53.4446 6.5,49.5C 6.51295,47.1334 7.67961,45.8001 10,45.5C 15.9347,47.0508 21.4347,49.5508 26.5,53C 36.8034,53.5276 46.8034,52.1943 56.5,49C 54.5561,46.8471 54.0561,44.3471 55,41.5C 56.2949,38.7083 57.7949,36.0416 59.5,33.5 Z"/></g>
</svg>
