<?xml version="1.0" encoding="UTF-8"?>
<!DOCTYPE svg PUBLIC "-//W3C//DTD SVG 1.1//EN" "http://www.w3.org/Graphics/SVG/1.1/DTD/svg11.dtd">
<svg xmlns="http://www.w3.org/2000/svg" version="1.1" width="128px" height="128px" style="shape-rendering:geometricPrecision; text-rendering:geometricPrecision; image-rendering:optimizeQuality; fill-rule:evenodd; clip-rule:evenodd" xmlns:xlink="http://www.w3.org/1999/xlink">
<g><path style="opacity:1" fill="#a9bfc3" d="M 90.5,50.5 C 88.0504,50.702 85.717,50.3686 83.5,49.5C 82.3272,47.4959 80.6605,45.9959 78.5,45C 74.3027,43.3672 69.9694,42.2005 65.5,41.5C 62.3254,42.7538 59.1588,42.7538 56,41.5C 54.6739,41.7549 53.6739,42.4216 53,43.5C 51.9914,42.3418 50.6581,41.6752 49,41.5C 46.1834,42.0305 43.35,42.3639 40.5,42.5C 47.6563,40.4957 54.9897,38.6624 62.5,37C 68.9413,36.2885 74.9413,37.6218 80.5,41C 83.952,44.1026 87.2854,47.2693 90.5,50.5 Z"/></g>
<g><path style="opacity:1" fill="#9caf97" d="M 23.5,58.5 C 22.7387,59.3909 21.7387,60.0576 20.5,60.5C 19.2072,62.6365 19.2072,64.6365 20.5,66.5C 21.7888,67.6366 22.7888,68.9699 23.5,70.5C 19.3136,74.8469 14.647,78.6802 9.5,82C 7.88762,82.7203 6.38762,82.5536 5,81.5C 4.67533,79.4473 5.00867,77.4473 6,75.5C 8.18236,71.7956 10.349,68.1289 12.5,64.5C 9.28593,58.7389 6.61927,52.7389 4.5,46.5C 7.42455,46.4598 10.0912,47.2932 12.5,49C 16.359,52.0316 20.0257,55.1983 23.5,58.5 Z"/></g>
<g><path style="opacity:1" fill="#667879" d="M 83.5,49.5 C 76.1901,50.177 68.8568,51.5103 61.5,53.5C 59.1817,53.0029 56.8484,52.6695 54.5,52.5C 49.5172,52.5876 44.8506,51.421 40.5,49C 36.6449,46.4356 36.6449,44.2689 40.5,42.5C 43.35,42.3639 46.1834,42.0305 49,41.5C 50.6581,41.6752 51.9914,42.3418 53,43.5C 53.6739,42.4216 54.6739,41.7549 56,41.5C 59.1588,42.7538 62.3254,42.7538 65.5,41.5C 69.9694,42.2005 74.3027,43.3672 78.5,45C 80.6605,45.9959 82.3272,47.4959 83.5,49.5 Z"/></g>
<g><path style="opacity:1" fill="#9fc1c4" d="M 122.5,64.5 C 122.727,66.9328 121.727,68.5994 119.5,69.5C 118.735,69.0766 117.902,68.7432 117,68.5C 115.923,69.4295 114.756,70.0962 113.5,70.5C 111.712,70.7852 110.045,70.4519 108.5,69.5C 107.205,66.6341 107.205,63.8007 108.5,61C 105.975,58.7095 102.975,57.3762 99.5,57C 96.5738,56.7822 93.7405,56.2822 91,55.5C 82.3114,56.2794 73.6448,57.2794 65,58.5C 61.9433,57.5495 58.7766,57.2161 55.5,57.5C 74.4965,51.8997 93.4965,52.233 112.5,58.5C 112.92,60.326 112.92,62.326 112.5,64.5C 114.912,64.756 116.579,63.756 117.5,61.5C 118.726,63.2779 120.393,64.2779 122.5,64.5 Z"/></g>
<g><path style="opacity:0.988" fill="#859d91" d="M 83.5,49.5 C 85.717,50.3686 88.0504,50.702 90.5,50.5C 100.956,51.3617 110.623,54.5284 119.5,60C 121.141,61.129 122.141,62.629 122.5,64.5C 120.393,64.2779 118.726,63.2779 117.5,61.5C 116.579,63.756 114.912,64.756 112.5,64.5C 112.92,62.326 112.92,60.326 112.5,58.5C 93.4965,52.233 74.4965,51.8997 55.5,57.5C 48.096,59.2804 40.596,60.6138 33,61.5C 30.3701,61.536 27.8701,61.036 25.5,60C 25.7284,59.6012 26.0618,59.4346 26.5,59.5C 36.5312,57.9942 46.5312,56.1609 56.5,54C 55.5842,53.7216 54.9175,53.2216 54.5,52.5C 56.8484,52.6695 59.1817,53.0029 61.5,53.5C 68.8568,51.5103 76.1901,50.177 83.5,49.5 Z"/></g>
<g><path style="opacity:1" fill="#a4c6ca" d="M 113.5,70.5 C 109.85,71.2833 106.017,71.2833 102,70.5C 99.7047,70.5465 97.8714,71.2132 96.5,72.5C 93.4669,72.1315 90.8002,72.7982 88.5,74.5C 78.1613,74.6665 67.828,74.4998 57.5,74C 46.7789,71.8697 36.1123,69.5363 25.5,67C 23.6711,66.7265 22.1711,65.8932 21,64.5C 20.5357,65.0944 20.369,65.7611 20.5,66.5C 19.2072,64.6365 19.2072,62.6365 20.5,60.5C 21.7387,60.0576 22.7387,59.3909 23.5,58.5C 24.791,58.2627 25.791,58.596 26.5,59.5C 26.0618,59.4346 25.7284,59.6012 25.5,60C 27.8701,61.036 30.3701,61.536 33,61.5C 40.596,60.6138 48.096,59.2804 55.5,57.5C 58.7766,57.2161 61.9433,57.5495 65,58.5C 73.6448,57.2794 82.3114,56.2794 91,55.5C 93.7405,56.2822 96.5738,56.7822 99.5,57C 102.975,57.3762 105.975,58.7095 108.5,61C 107.205,63.8007 107.205,66.6341 108.5,69.5C 110.045,70.4519 111.712,70.7852 113.5,70.5 Z"/></g>
<g><path style="opacity:1" fill="#b3d1d7" d="M 79.5,57.5 C 87.2205,57.2384 94.8872,57.7384 102.5,59C 105.992,60.0659 106.992,62.2326 105.5,65.5C 103.929,66.3094 102.262,66.6427 100.5,66.5C 100.351,65.448 100.517,64.448 101,63.5C 101.423,64.9561 102.256,65.4561 103.5,65C 102.789,63.7453 101.956,62.5786 101,61.5C 99.6485,63.5938 99.1485,65.9272 99.5,68.5C 81.2428,71.3617 63.5761,70.1951 46.5,65C 46.0426,64.586 45.7093,64.086 45.5,63.5C 56.8865,61.1451 68.2198,59.1451 79.5,57.5 Z"/></g>
<g><path style="opacity:1" fill="#d9e0e3" d="M 88.5,74.5 C 87.7515,76.3325 86.7515,77.9991 85.5,79.5C 79.5164,78.9258 73.5164,78.5925 67.5,78.5C 64.8422,76.6316 61.6756,75.6316 58,75.5C 56.7441,75.6483 55.5774,75.9816 54.5,76.5C 51.0542,75.3126 47.3875,74.6459 43.5,74.5C 42.9423,73.2101 41.9423,72.3768 40.5,72C 36.9137,70.8924 33.247,70.3924 29.5,70.5C 27.6112,69.2584 25.6112,69.2584 23.5,70.5C 22.7888,68.9699 21.7888,67.6366 20.5,66.5C 20.369,65.7611 20.5357,65.0944 21,64.5C 22.1711,65.8932 23.6711,66.7265 25.5,67C 36.1123,69.5363 46.7789,71.8697 57.5,74C 67.828,74.4998 78.1613,74.6665 88.5,74.5 Z"/></g>
<g><path style="opacity:0.962" fill="#d0d8db" d="M 119.5,69.5 C 118.571,70.3149 117.571,71.1482 116.5,72C 109.776,73.743 103.109,75.5764 96.5,77.5C 96.7031,75.9557 97.3698,74.6223 98.5,73.5C 98.0431,72.7025 97.3764,72.3691 96.5,72.5C 97.8714,71.2132 99.7047,70.5465 102,70.5C 106.017,71.2833 109.85,71.2833 113.5,70.5C 114.756,70.0962 115.923,69.4295 117,68.5C 117.902,68.7432 118.735,69.0766 119.5,69.5 Z"/></g>
<g><path style="opacity:1" fill="#d3d9c5" d="M 96.5,72.5 C 97.3764,72.3691 98.0431,72.7025 98.5,73.5C 97.3698,74.6223 96.7031,75.9557 96.5,77.5C 93.35,81.0751 89.35,83.0751 84.5,83.5C 84.4326,82.0413 84.7659,80.7079 85.5,79.5C 86.7515,77.9991 87.7515,76.3325 88.5,74.5C 90.8002,72.7982 93.4669,72.1315 96.5,72.5 Z"/></g>
<g><path style="opacity:1" fill="#d0d5c2" d="M 29.5,70.5 C 33.247,70.3924 36.9137,70.8924 40.5,72C 41.9423,72.3768 42.9423,73.2101 43.5,74.5C 40.2209,78.146 36.2209,79.4794 31.5,78.5C 30.5178,75.9044 29.8511,73.2377 29.5,70.5 Z"/></g>
<g><path style="opacity:1" fill="#81ae9b" d="M 67.5,78.5 C 63.53,82.568 58.6967,84.9013 53,85.5C 51.5,85.1667 50,84.8333 48.5,84.5C 50.1712,81.5079 52.1712,78.8413 54.5,76.5C 55.5774,75.9816 56.7441,75.6483 58,75.5C 61.6756,75.6316 64.8422,76.6316 67.5,78.5 Z"/></g>
</svg>
