<?xml version="1.0" encoding="UTF-8"?>
<!DOCTYPE svg PUBLIC "-//W3C//DTD SVG 1.1//EN" "http://www.w3.org/Graphics/SVG/1.1/DTD/svg11.dtd">
<svg xmlns="http://www.w3.org/2000/svg" version="1.1" width="128px" height="128px" style="shape-rendering:geometricPrecision; text-rendering:geometricPrecision; image-rendering:optimizeQuality; fill-rule:evenodd; clip-rule:evenodd" xmlns:xlink="http://www.w3.org/1999/xlink">
<g><path style="opacity:1" fill="#070707" d="M 62.5,36.5 C 73.4253,36.1303 82.092,40.297 88.5,49C 94.7499,50.9177 101.083,52.5843 107.5,54C 112.833,56.0036 117.666,58.8369 122,62.5C 122.806,67.0598 120.973,70.2265 116.5,72C 110.171,73.6648 103.838,75.3314 97.5,77C 93.9536,80.7732 89.6202,82.9399 84.5,83.5C 84.33,82.1779 84.6634,81.0113 85.5,80C 79.2069,78.7253 72.8736,78.392 66.5,79C 61.6136,84.6162 55.6136,86.4495 48.5,84.5C 50.3056,81.528 52.3056,78.6947 54.5,76C 51.657,75.5539 48.8236,75.0539 46,74.5C 42.1449,76.4249 38.1449,78.0916 34,79.5C 32.6739,79.2451 31.6739,78.5784 31,77.5C 30.1785,74.8832 29.6785,72.2165 29.5,69.5C 27.8008,69.3398 26.1341,69.5065 24.5,70C 19.7886,74.3799 14.7886,78.3799 9.5,82C 7.0752,82.9859 5.40853,82.3193 4.5,80C 6.26845,74.2945 8.93512,69.1278 12.5,64.5C 9.28593,58.7389 6.61927,52.7389 4.5,46.5C 7.42455,46.4598 10.0912,47.2932 12.5,49C 16.1667,52 19.8333,55 23.5,58C 25.4233,58.8078 27.4233,59.3078 29.5,59.5C 38.4757,57.6048 47.4757,55.7715 56.5,54C 50.9808,52.9531 45.6475,51.2864 40.5,49C 38.2031,47.7367 37.3698,45.9034 38,43.5C 46.1879,40.9686 54.3545,38.6353 62.5,36.5 Z"/></g>
</svg>
