<?xml version="1.0" encoding="UTF-8"?>
<!DOCTYPE svg PUBLIC "-//W3C//DTD SVG 1.1//EN" "http://www.w3.org/Graphics/SVG/1.1/DTD/svg11.dtd">
<svg xmlns="http://www.w3.org/2000/svg" version="1.1" width="128px" height="128px" style="shape-rendering:geometricPrecision; text-rendering:geometricPrecision; image-rendering:optimizeQuality; fill-rule:evenodd; clip-rule:evenodd" xmlns:xlink="http://www.w3.org/1999/xlink">
<g><path style="opacity:0.612" fill="#ede6d7" d="M 57.5,43.5 C 60.0101,43.0535 62.0101,43.7202 63.5,45.5C 63.5,45.8333 63.5,46.1667 63.5,46.5C 63.1667,46.5 62.8333,46.5 62.5,46.5C 62.1667,46.5 61.8333,46.5 61.5,46.5C 61.5,45.8333 61.1667,45.5 60.5,45.5C 60.44,44.9569 60.1067,44.6236 59.5,44.5C 58.8182,45.2427 58.1515,45.9094 57.5,46.5C 57.5,45.5 57.5,44.5 57.5,43.5 Z"/></g>
<g><path style="opacity:0.045" fill="#fbfbf9" d="M 4.5,47.5 C 3.83333,47.5 3.5,47.8333 3.5,48.5C 2.54885,49.9187 2.21552,51.5853 2.5,53.5C 1.09053,50.8223 1.2572,48.1557 3,45.5C 3.71719,46.0442 4.21719,46.7109 4.5,47.5 Z"/></g>
<g><path style="opacity:0.439" fill="#f6efe4" d="M 57.5,43.5 C 57.5,44.5 57.5,45.5 57.5,46.5C 56.8333,47.8333 55.8333,48.8333 54.5,49.5C 54.5,49.1667 54.5,48.8333 54.5,48.5C 55.3604,46.7121 56.3604,45.0455 57.5,43.5 Z"/></g>
<g><path style="opacity:0.263" fill="#f5f0e6" d="M 63.5,45.5 C 65.3797,45.2291 66.713,45.8958 67.5,47.5C 66.8333,47.5 66.1667,47.5 65.5,47.5C 64.5084,47.6716 63.8417,47.3382 63.5,46.5C 63.5,46.1667 63.5,45.8333 63.5,45.5 Z"/></g>
<g><path style="opacity:0.012" fill="#eee5e0" d="M 3.5,48.5 C 3.5,47.8333 3.83333,47.5 4.5,47.5C 7.75414,47.7936 10.4208,49.127 12.5,51.5C 11.8333,51.5 11.1667,51.5 10.5,51.5C 10.1667,51.5 9.83333,51.5 9.5,51.5C 7.81853,49.9925 5.81853,48.9925 3.5,48.5 Z"/></g>
<g><path style="opacity:1" fill="#b18e65" d="M 60.5,45.5 C 61.1667,45.5 61.5,45.8333 61.5,46.5C 61.0252,48.7221 60.0252,49.3888 58.5,48.5C 58.9321,47.2905 59.5987,46.2905 60.5,45.5 Z"/></g>
<g><path style="opacity:1" fill="#bea37f" d="M 60.5,45.5 C 59.5987,46.2905 58.9321,47.2905 58.5,48.5C 57.3951,49.6005 56.0618,50.2671 54.5,50.5C 54.5,50.1667 54.5,49.8333 54.5,49.5C 55.8333,48.8333 56.8333,47.8333 57.5,46.5C 58.1515,45.9094 58.8182,45.2427 59.5,44.5C 60.1067,44.6236 60.44,44.9569 60.5,45.5 Z"/></g>
<g><path style="opacity:1" fill="#8d6f5c" d="M 62.5,46.5 C 62.8333,46.5 63.1667,46.5 63.5,46.5C 63.8417,47.3382 64.5084,47.6716 65.5,47.5C 66.1667,48.5 66.8333,49.5 67.5,50.5C 66.0267,51.0715 64.36,51.0715 62.5,50.5C 62.5,49.1667 62.5,47.8333 62.5,46.5 Z"/></g>
<g><path style="opacity:1" fill="#8d685d" d="M 3.5,48.5 C 5.81853,48.9925 7.81853,49.9925 9.5,51.5C 8.83333,51.5 8.5,51.8333 8.5,52.5C 8.16667,52.5 7.83333,52.5 7.5,52.5C 6.71304,50.8958 5.3797,50.2291 3.5,50.5C 3.5,49.8333 3.5,49.1667 3.5,48.5 Z"/></g>
<g><path style="opacity:1" fill="#a48360" d="M 61.5,46.5 C 61.8333,46.5 62.1667,46.5 62.5,46.5C 62.5,47.8333 62.5,49.1667 62.5,50.5C 60.8008,50.3398 59.1341,50.5065 57.5,51C 56.7476,51.6708 56.4142,52.5041 56.5,53.5C 55.8333,53.5 55.1667,53.5 54.5,53.5C 53.375,52.3478 53.375,51.3478 54.5,50.5C 56.0618,50.2671 57.3951,49.6005 58.5,48.5C 60.0252,49.3888 61.0252,48.7221 61.5,46.5 Z"/></g>
<g><path style="opacity:0.459" fill="#e5e2df" d="M 65.5,47.5 C 66.1667,47.5 66.8333,47.5 67.5,47.5C 68.9842,49.0737 70.6508,50.407 72.5,51.5C 72.1583,52.3382 71.4916,52.6716 70.5,52.5C 70.1667,52.5 69.8333,52.5 69.5,52.5C 69.5,51.8333 69.1667,51.5 68.5,51.5C 68.5,50.8333 68.1667,50.5 67.5,50.5C 66.8333,49.5 66.1667,48.5 65.5,47.5 Z"/></g>
<g><path style="opacity:1" fill="#8c5441" d="M 3.5,50.5 C 5.3797,50.2291 6.71304,50.8958 7.5,52.5C 6.66175,52.8417 6.32842,53.5084 6.5,54.5C 5.60895,53.8902 4.60895,53.5569 3.5,53.5C 3.5,52.5 3.5,51.5 3.5,50.5 Z"/></g>
<g><path style="opacity:1" fill="#836853" d="M 62.5,50.5 C 62.5,50.8333 62.5,51.1667 62.5,51.5C 60.6943,52.0241 59.0276,52.6908 57.5,53.5C 57.1667,53.5 56.8333,53.5 56.5,53.5C 56.4142,52.5041 56.7476,51.6708 57.5,51C 59.1341,50.5065 60.8008,50.3398 62.5,50.5 Z"/></g>
<g><path style="opacity:1" fill="#715b4e" d="M 62.5,51.5 C 62.5,51.1667 62.5,50.8333 62.5,50.5C 64.36,51.0715 66.0267,51.0715 67.5,50.5C 68.1667,50.5 68.5,50.8333 68.5,51.5C 67.609,52.1098 66.609,52.4431 65.5,52.5C 65.1667,52.5 64.8333,52.5 64.5,52.5C 64.1583,51.6618 63.4916,51.3284 62.5,51.5 Z"/></g>
<g><path style="opacity:0.867" fill="#d5ccc5" d="M 10.5,52.5 C 10.5,52.1667 10.5,51.8333 10.5,51.5C 11.1667,51.5 11.8333,51.5 12.5,51.5C 13.8717,52.5116 15.205,53.5116 16.5,54.5C 16.5,54.8333 16.5,55.1667 16.5,55.5C 14.5,54.5 12.5,53.5 10.5,52.5 Z"/></g>
<g><path style="opacity:0.439" fill="#f4ebe1" d="M 54.5,48.5 C 54.5,48.8333 54.5,49.1667 54.5,49.5C 54.5,49.8333 54.5,50.1667 54.5,50.5C 53.375,51.3478 53.375,52.3478 54.5,53.5C 53.5,53.5 52.5,53.5 51.5,53.5C 51.5,53.1667 51.5,52.8333 51.5,52.5C 51.5544,50.368 52.5544,49.0347 54.5,48.5 Z"/></g>
<g><path style="opacity:1" fill="#655143" d="M 62.5,51.5 C 63.4916,51.3284 64.1583,51.6618 64.5,52.5C 62.2362,53.2186 59.9029,53.552 57.5,53.5C 59.0276,52.6908 60.6943,52.0241 62.5,51.5 Z"/></g>
<g><path style="opacity:1" fill="#5b4e48" d="M 81.5,52.5 C 81.3893,53.1174 81.056,53.6174 80.5,54C 82.7078,54.1909 84.7078,54.6909 86.5,55.5C 84.1667,55.5 81.8333,55.5 79.5,55.5C 79.5,55.1667 79.5,54.8333 79.5,54.5C 77.7078,53.6909 75.7078,53.1909 73.5,53C 76.146,52.5026 78.8127,52.3359 81.5,52.5 Z"/></g>
<g><path style="opacity:0.663" fill="#bfbcb7" d="M 95.5,52.5 C 95.5,52.8333 95.5,53.1667 95.5,53.5C 93.5,53.5 91.5,53.5 89.5,53.5C 89.5,53.1667 89.5,52.8333 89.5,52.5C 91.3888,51.6201 93.3888,51.6201 95.5,52.5 Z"/></g>
<g><path style="opacity:0.024" fill="#e0dbd4" d="M 33.5,54.5 C 32.8333,54.5 32.1667,54.5 31.5,54.5C 30.5,54.5 29.5,54.5 28.5,54.5C 27.5,54.5 26.5,54.5 25.5,54.5C 26.531,53.7515 27.6976,53.0848 29,52.5C 30.6536,52.2063 32.1536,52.873 33.5,54.5 Z"/></g>
<g><path style="opacity:0.51" fill="#b0a3a5" d="M 51.5,52.5 C 51.5,52.8333 51.5,53.1667 51.5,53.5C 50.0813,54.4511 48.4147,54.7845 46.5,54.5C 46.5,54.1667 46.5,53.8333 46.5,53.5C 48.1172,52.962 49.7839,52.6287 51.5,52.5 Z"/></g>
<g><path style="opacity:1" fill="#4d3e3a" d="M 64.5,52.5 C 64.8333,52.5 65.1667,52.5 65.5,52.5C 64.2046,53.0306 63.5379,54.3639 63.5,56.5C 60.7892,56.8151 58.4559,56.1484 56.5,54.5C 56.5,54.1667 56.5,53.8333 56.5,53.5C 56.8333,53.5 57.1667,53.5 57.5,53.5C 59.9029,53.552 62.2362,53.2186 64.5,52.5 Z"/></g>
<g><path style="opacity:1" fill="#58453e" d="M 68.5,51.5 C 69.1667,51.5 69.5,51.8333 69.5,52.5C 67.8333,53.8333 66.1667,55.1667 64.5,56.5C 64.1667,56.5 63.8333,56.5 63.5,56.5C 63.5379,54.3639 64.2046,53.0306 65.5,52.5C 66.609,52.4431 67.609,52.1098 68.5,51.5 Z"/></g>
<g><path style="opacity:1" fill="#918681" d="M 72.5,51.5 C 78.358,51.1778 84.0247,51.5111 89.5,52.5C 86.8333,52.5 84.1667,52.5 81.5,52.5C 78.8127,52.3359 76.146,52.5026 73.5,53C 75.7078,53.1909 77.7078,53.6909 79.5,54.5C 76.5,54.5 73.5,54.5 70.5,54.5C 70.5,53.8333 70.5,53.1667 70.5,52.5C 71.4916,52.6716 72.1583,52.3382 72.5,51.5 Z"/></g>
<g><path style="opacity:1" fill="#6b6159" d="M 81.5,52.5 C 84.1667,52.5 86.8333,52.5 89.5,52.5C 89.5,52.8333 89.5,53.1667 89.5,53.5C 88.5,53.8333 87.8333,54.5 87.5,55.5C 87.1667,55.5 86.8333,55.5 86.5,55.5C 84.7078,54.6909 82.7078,54.1909 80.5,54C 81.056,53.6174 81.3893,53.1174 81.5,52.5 Z"/></g>
<g><path style="opacity:1" fill="#56453e" d="M 89.5,53.5 C 91.5,53.5 93.5,53.5 95.5,53.5C 93.8333,54.1667 92.1667,54.8333 90.5,55.5C 89.5,55.5 88.5,55.5 87.5,55.5C 87.8333,54.5 88.5,53.8333 89.5,53.5 Z"/></g>
<g><path style="opacity:0.475" fill="#bdb8b6" d="M 96.5,52.5 C 99.9055,52.9555 103.239,53.6222 106.5,54.5C 106.5,54.8333 106.5,55.1667 106.5,55.5C 105.167,55.5 103.833,55.5 102.5,55.5C 100.156,55.0603 98.1561,54.0603 96.5,52.5 Z"/></g>
<g><path style="opacity:1" fill="#794e40" d="M 7.5,52.5 C 7.83333,52.5 8.16667,52.5 8.5,52.5C 8.83333,53.8333 9.16667,55.1667 9.5,56.5C 9.16667,56.5 8.83333,56.5 8.5,56.5C 8.16667,56.5 7.83333,56.5 7.5,56.5C 7.67158,55.5084 7.33825,54.8417 6.5,54.5C 6.32842,53.5084 6.66175,52.8417 7.5,52.5 Z"/></g>
<g><path style="opacity:0.529" fill="#c4bcb9" d="M 46.5,53.5 C 46.5,53.8333 46.5,54.1667 46.5,54.5C 45.5084,54.3284 44.8417,54.6618 44.5,55.5C 41.7938,55.5751 39.1272,55.9084 36.5,56.5C 34.9582,55.6993 33.2915,55.366 31.5,55.5C 31.5,55.1667 31.5,54.8333 31.5,54.5C 32.1667,54.5 32.8333,54.5 33.5,54.5C 37.8566,54.4135 42.19,54.0802 46.5,53.5 Z"/></g>
<g><path style="opacity:1" fill="#594540" d="M 51.5,53.5 C 52.5,53.5 53.5,53.5 54.5,53.5C 55.1667,53.5 55.8333,53.5 56.5,53.5C 56.5,53.8333 56.5,54.1667 56.5,54.5C 56.6716,55.4916 56.3382,56.1583 55.5,56.5C 55.1667,56.5 54.8333,56.5 54.5,56.5C 53.2946,55.3143 51.9613,55.3143 50.5,56.5C 49.1667,55.8333 47.8333,55.1667 46.5,54.5C 48.4147,54.7845 50.0813,54.4511 51.5,53.5 Z"/></g>
<g><path style="opacity:1" fill="#665246" d="M 70.5,54.5 C 73.5,54.5 76.5,54.5 79.5,54.5C 79.5,54.8333 79.5,55.1667 79.5,55.5C 78.5084,55.3284 77.8417,55.6618 77.5,56.5C 76.1667,56.5 74.8333,56.5 73.5,56.5C 72.209,56.2627 71.209,56.596 70.5,57.5C 69.1667,57.5 67.8333,57.5 66.5,57.5C 67.9264,56.6588 69.2597,55.6588 70.5,54.5 Z"/></g>
<g><path style="opacity:1" fill="#67574f" d="M 95.5,52.5 C 95.8333,52.5 96.1667,52.5 96.5,52.5C 98.1561,54.0603 100.156,55.0603 102.5,55.5C 101.508,55.3284 100.842,55.6618 100.5,56.5C 99.8333,56.5 99.1667,56.5 98.5,56.5C 96.0521,55.5269 93.3854,55.1936 90.5,55.5C 92.1667,54.8333 93.8333,54.1667 95.5,53.5C 95.5,53.1667 95.5,52.8333 95.5,52.5 Z"/></g>
<g><path style="opacity:1" fill="#896455" d="M 9.5,51.5 C 9.83333,51.5 10.1667,51.5 10.5,51.5C 10.5,51.8333 10.5,52.1667 10.5,52.5C 12.0781,54.3747 11.7448,55.7081 9.5,56.5C 9.16667,55.1667 8.83333,53.8333 8.5,52.5C 8.5,51.8333 8.83333,51.5 9.5,51.5 Z"/></g>
<g><path style="opacity:0.255" fill="#dfd9d8" d="M 16.5,54.5 C 18.5439,55.5082 20.5439,56.5082 22.5,57.5C 21.5,57.5 20.5,57.5 19.5,57.5C 18.391,57.4431 17.391,57.1098 16.5,56.5C 16.5,56.1667 16.5,55.8333 16.5,55.5C 16.5,55.1667 16.5,54.8333 16.5,54.5 Z"/></g>
<g><path style="opacity:1" fill="#745a4f" d="M 28.5,54.5 C 29.5,54.5 30.5,54.5 31.5,54.5C 31.5,54.8333 31.5,55.1667 31.5,55.5C 30.1667,56.5 30.1667,57.5 31.5,58.5C 30.1667,58.5 28.8333,58.5 27.5,58.5C 26.1736,56.8049 26.5069,55.4716 28.5,54.5 Z"/></g>
<g><path style="opacity:1" fill="#5f4945" d="M 44.5,55.5 C 44.8417,54.6618 45.5084,54.3284 46.5,54.5C 47.8333,55.1667 49.1667,55.8333 50.5,56.5C 50.1667,56.5 49.8333,56.5 49.5,56.5C 48.609,57.1098 47.609,57.4431 46.5,57.5C 46.1667,56.5 45.5,55.8333 44.5,55.5 Z"/></g>
<g><path style="opacity:1" fill="#61483f" d="M 54.5,56.5 C 53.1667,56.5 52.5,57.1667 52.5,58.5C 52.1667,58.5 51.8333,58.5 51.5,58.5C 50.8333,57.8333 50.1667,57.1667 49.5,56.5C 49.8333,56.5 50.1667,56.5 50.5,56.5C 51.9613,55.3143 53.2946,55.3143 54.5,56.5 Z"/></g>
<g><path style="opacity:1" fill="#604d46" d="M 69.5,52.5 C 69.8333,52.5 70.1667,52.5 70.5,52.5C 70.5,53.1667 70.5,53.8333 70.5,54.5C 69.2597,55.6588 67.9264,56.6588 66.5,57.5C 65.8333,57.5 65.1667,57.5 64.5,57.5C 64.5,57.1667 64.5,56.8333 64.5,56.5C 66.1667,55.1667 67.8333,53.8333 69.5,52.5 Z"/></g>
<g><path style="opacity:1" fill="#5a4b3a" d="M 102.5,55.5 C 103.833,55.5 105.167,55.5 106.5,55.5C 106.5,56.1667 106.5,56.8333 106.5,57.5C 105.5,57.5 104.5,57.5 103.5,57.5C 102.209,57.7373 101.209,57.404 100.5,56.5C 100.842,55.6618 101.508,55.3284 102.5,55.5 Z"/></g>
<g><path style="opacity:0.431" fill="#d9d6d2" d="M 106.5,55.5 C 106.5,55.1667 106.5,54.8333 106.5,54.5C 109.152,54.4095 111.485,55.0762 113.5,56.5C 112.833,56.5 112.167,56.5 111.5,56.5C 109.883,55.962 108.216,55.6287 106.5,55.5 Z"/></g>
<g><path style="opacity:1" fill="#8b614c" d="M 3.5,53.5 C 4.60895,53.5569 5.60895,53.8902 6.5,54.5C 7.33825,54.8417 7.67158,55.5084 7.5,56.5C 7.06795,57.7095 6.40128,58.7095 5.5,59.5C 5.5,58.8333 5.16667,58.5 4.5,58.5C 4.37133,56.7839 4.038,55.1172 3.5,53.5 Z"/></g>
<g><path style="opacity:1" fill="#75594d" d="M 10.5,52.5 C 12.5,53.5 14.5,54.5 16.5,55.5C 16.5,55.8333 16.5,56.1667 16.5,56.5C 14.2972,56.6036 12.2972,57.2702 10.5,58.5C 10.1667,58.5 9.83333,58.5 9.5,58.5C 8.66175,58.1583 8.32842,57.4916 8.5,56.5C 8.83333,56.5 9.16667,56.5 9.5,56.5C 11.7448,55.7081 12.0781,54.3747 10.5,52.5 Z"/></g>
<g><path style="opacity:1" fill="#483a30" d="M 31.5,55.5 C 33.2915,55.366 34.9582,55.6993 36.5,56.5C 36.5,56.8333 36.5,57.1667 36.5,57.5C 34.901,57.2322 33.5676,57.5655 32.5,58.5C 32.1667,58.5 31.8333,58.5 31.5,58.5C 30.1667,57.5 30.1667,56.5 31.5,55.5 Z"/></g>
<g><path style="opacity:1" fill="#5d443f" d="M 44.5,55.5 C 45.5,55.8333 46.1667,56.5 46.5,57.5C 46.1667,57.5 45.8333,57.5 45.5,57.5C 42.5,57.5 39.5,57.5 36.5,57.5C 36.5,57.1667 36.5,56.8333 36.5,56.5C 39.1272,55.9084 41.7938,55.5751 44.5,55.5 Z"/></g>
<g><path style="opacity:1" fill="#5d4943" d="M 56.5,54.5 C 58.4559,56.1484 60.7892,56.8151 63.5,56.5C 63.8333,56.5 64.1667,56.5 64.5,56.5C 64.5,56.8333 64.5,57.1667 64.5,57.5C 61.2869,57.81 58.2869,57.4767 55.5,56.5C 56.3382,56.1583 56.6716,55.4916 56.5,54.5 Z"/></g>
<g><path style="opacity:1" fill="#b3917a" d="M 73.5,56.5 C 74.8333,56.5 76.1667,56.5 77.5,56.5C 79.099,56.2322 80.4324,56.5655 81.5,57.5C 79.901,57.2322 78.5676,57.5655 77.5,58.5C 76.2976,57.5946 74.9643,57.5946 73.5,58.5C 72.7611,58.631 72.0944,58.4643 71.5,58C 72.4158,57.7216 73.0825,57.2216 73.5,56.5 Z"/></g>
<g><path style="opacity:1" fill="#d2b69d" d="M 86.5,56.5 C 88.5,56.5 90.5,56.5 92.5,56.5C 92.1667,57.1667 91.8333,57.8333 91.5,58.5C 91.1667,58.5 90.8333,58.5 90.5,58.5C 89.1667,57.8333 87.8333,57.1667 86.5,56.5 Z"/></g>
<g><path style="opacity:0.922" fill="#9d9995" d="M 111.5,56.5 C 112.167,56.5 112.833,56.5 113.5,56.5C 114.959,56.4326 116.292,56.7659 117.5,57.5C 117.5,57.8333 117.5,58.1667 117.5,58.5C 116.5,58.5 115.5,58.5 114.5,58.5C 113.5,57.8333 112.5,57.1667 111.5,56.5 Z"/></g>
<g><path style="opacity:0.988" fill="#d0c6bc" d="M 25.5,54.5 C 26.5,54.5 27.5,54.5 28.5,54.5C 26.5069,55.4716 26.1736,56.8049 27.5,58.5C 25.901,58.7678 24.5676,58.4345 23.5,57.5C 23.2852,55.8212 23.9519,54.8212 25.5,54.5 Z"/></g>
<g><path style="opacity:1" fill="#61483e" d="M 36.5,57.5 C 36.1667,58.1667 35.8333,58.8333 35.5,59.5C 34.5,59.5 33.5,59.5 32.5,59.5C 32.5,59.1667 32.5,58.8333 32.5,58.5C 33.5676,57.5655 34.901,57.2322 36.5,57.5 Z"/></g>
<g><path style="opacity:1" fill="#705042" d="M 36.5,57.5 C 39.5,57.5 42.5,57.5 45.5,57.5C 45.5,57.8333 45.5,58.1667 45.5,58.5C 44.209,58.2627 43.209,58.596 42.5,59.5C 40.2078,58.3139 37.8744,58.3139 35.5,59.5C 35.8333,58.8333 36.1667,58.1667 36.5,57.5 Z"/></g>
<g><path style="opacity:1" fill="#715348" d="M 49.5,56.5 C 50.1667,57.1667 50.8333,57.8333 51.5,58.5C 49.5,58.5 47.5,58.5 45.5,58.5C 45.5,58.1667 45.5,57.8333 45.5,57.5C 45.8333,57.5 46.1667,57.5 46.5,57.5C 47.609,57.4431 48.609,57.1098 49.5,56.5 Z"/></g>
<g><path style="opacity:1" fill="#75584c" d="M 54.5,56.5 C 54.8333,56.5 55.1667,56.5 55.5,56.5C 58.2869,57.4767 61.2869,57.81 64.5,57.5C 65.1667,57.5 65.8333,57.5 66.5,57.5C 67.8333,57.5 69.1667,57.5 70.5,57.5C 70.5,57.8333 70.5,58.1667 70.5,58.5C 66.5,58.5 62.5,58.5 58.5,58.5C 57.1667,58.5 55.8333,58.5 54.5,58.5C 53.8333,58.5 53.1667,58.5 52.5,58.5C 52.5,57.1667 53.1667,56.5 54.5,56.5 Z"/></g>
<g><path style="opacity:1" fill="#ac856c" d="M 77.5,58.5 C 78.5676,57.5655 79.901,57.2322 81.5,57.5C 81.5,57.8333 81.5,58.1667 81.5,58.5C 81.7148,60.1788 81.0481,61.1788 79.5,61.5C 80.9143,59.4017 80.2476,58.4017 77.5,58.5 Z"/></g>
<g><path style="opacity:1" fill="#9d7d63" d="M 77.5,56.5 C 77.8417,55.6618 78.5084,55.3284 79.5,55.5C 81.8333,55.5 84.1667,55.5 86.5,55.5C 86.8333,55.5 87.1667,55.5 87.5,55.5C 88.5,55.5 89.5,55.5 90.5,55.5C 93.3854,55.1936 96.0521,55.5269 98.5,56.5C 97.8333,56.5 97.1667,56.5 96.5,56.5C 95.1667,56.5 93.8333,56.5 92.5,56.5C 90.5,56.5 88.5,56.5 86.5,56.5C 85.9569,56.56 85.6236,56.8933 85.5,57.5C 86.6119,58.2652 87.2786,59.2652 87.5,60.5C 87.5,60.8333 87.5,61.1667 87.5,61.5C 87.1667,61.5 86.8333,61.5 86.5,61.5C 85.5,61.5 84.5,61.5 83.5,61.5C 83.7148,59.8212 83.0481,58.8212 81.5,58.5C 81.5,58.1667 81.5,57.8333 81.5,57.5C 80.4324,56.5655 79.099,56.2322 77.5,56.5 Z"/></g>
<g><path style="opacity:1" fill="#e6d1b2" d="M 92.5,56.5 C 93.8333,56.5 95.1667,56.5 96.5,56.5C 96.5,57.1667 96.5,57.8333 96.5,58.5C 94.8333,58.5 93.1667,58.5 91.5,58.5C 91.8333,57.8333 92.1667,57.1667 92.5,56.5 Z"/></g>
<g><path style="opacity:1" fill="#c3b29a" d="M 103.5,57.5 C 104.5,57.5 105.5,57.5 106.5,57.5C 107.167,57.5 107.5,57.8333 107.5,58.5C 107.5,58.8333 107.5,59.1667 107.5,59.5C 107.167,59.5 106.833,59.5 106.5,59.5C 105.5,59.5 104.5,59.5 103.5,59.5C 102.833,59.5 102.5,59.1667 102.5,58.5C 103.167,58.5 103.5,58.1667 103.5,57.5 Z"/></g>
<g><path style="opacity:1" fill="#5c4e45" d="M 106.5,55.5 C 108.216,55.6287 109.883,55.962 111.5,56.5C 112.5,57.1667 113.5,57.8333 114.5,58.5C 113.5,58.5 112.5,58.5 111.5,58.5C 110.167,58.5 108.833,58.5 107.5,58.5C 107.5,57.8333 107.167,57.5 106.5,57.5C 106.5,56.8333 106.5,56.1667 106.5,55.5 Z"/></g>
<g><path style="opacity:1" fill="#774d42" d="M 7.5,56.5 C 7.83333,56.5 8.16667,56.5 8.5,56.5C 8.32842,57.4916 8.66175,58.1583 9.5,58.5C 8.97168,59.7206 8.30501,60.8873 7.5,62C 7.72845,62.3988 8.06178,62.5654 8.5,62.5C 8.5,64.5 8.5,66.5 8.5,68.5C 8.16667,68.5 7.83333,68.5 7.5,68.5C 7.76781,66.901 7.43448,65.5676 6.5,64.5C 5.54885,63.0813 5.21552,61.4147 5.5,59.5C 6.40128,58.7095 7.06795,57.7095 7.5,56.5 Z"/></g>
<g><path style="opacity:1" fill="#4f3534" d="M 16.5,56.5 C 17.391,57.1098 18.391,57.4431 19.5,57.5C 17.0656,58.1311 14.7323,59.1311 12.5,60.5C 11.5,60.1667 10.8333,59.5 10.5,58.5C 12.2972,57.2702 14.2972,56.6036 16.5,56.5 Z"/></g>
<g><path style="opacity:1" fill="#654844" d="M 19.5,57.5 C 20.5,57.5 21.5,57.5 22.5,57.5C 22.8333,57.5 23.1667,57.5 23.5,57.5C 24.5676,58.4345 25.901,58.7678 27.5,58.5C 28.8333,58.5 30.1667,58.5 31.5,58.5C 31.8333,58.5 32.1667,58.5 32.5,58.5C 32.5,58.8333 32.5,59.1667 32.5,59.5C 31.5,59.5 30.5,59.5 29.5,59.5C 24.3814,58.8969 19.7147,59.5636 15.5,61.5C 14.5,61.5 13.5,61.5 12.5,61.5C 12.5,61.1667 12.5,60.8333 12.5,60.5C 14.7323,59.1311 17.0656,58.1311 19.5,57.5 Z"/></g>
<g><path style="opacity:1" fill="#835e4d" d="M 42.5,59.5 C 43.209,58.596 44.209,58.2627 45.5,58.5C 47.5,58.5 49.5,58.5 51.5,58.5C 51.8333,58.5 52.1667,58.5 52.5,58.5C 53.1667,58.5 53.8333,58.5 54.5,58.5C 56.0311,59.9245 55.6977,60.5912 53.5,60.5C 51.7354,59.5386 49.7354,59.2053 47.5,59.5C 45.8333,59.5 44.1667,59.5 42.5,59.5 Z"/></g>
<g><path style="opacity:1" fill="#886550" d="M 58.5,59.5 C 58.5,59.1667 58.5,58.8333 58.5,58.5C 62.5,58.5 66.5,58.5 70.5,58.5C 70.1667,59.1667 69.8333,59.8333 69.5,60.5C 68.1667,59.1667 66.8333,59.1667 65.5,60.5C 63.7354,59.5386 61.7354,59.2053 59.5,59.5C 59.1667,59.5 58.8333,59.5 58.5,59.5 Z"/></g>
<g><path style="opacity:1" fill="#8e6a53" d="M 73.5,56.5 C 73.0825,57.2216 72.4158,57.7216 71.5,58C 72.0944,58.4643 72.7611,58.631 73.5,58.5C 73.5,59.1667 73.5,59.8333 73.5,60.5C 72.1667,60.5 70.8333,60.5 69.5,60.5C 69.8333,59.8333 70.1667,59.1667 70.5,58.5C 70.5,58.1667 70.5,57.8333 70.5,57.5C 71.209,56.596 72.209,56.2627 73.5,56.5 Z"/></g>
<g><path style="opacity:1" fill="#9d7359" d="M 77.5,58.5 C 80.2476,58.4017 80.9143,59.4017 79.5,61.5C 78.2921,60.7659 76.9587,60.4326 75.5,60.5C 74.8333,60.5 74.1667,60.5 73.5,60.5C 73.5,59.8333 73.5,59.1667 73.5,58.5C 74.9643,57.5946 76.2976,57.5946 77.5,58.5 Z"/></g>
<g><path style="opacity:1" fill="#b8967d" d="M 86.5,56.5 C 87.8333,57.1667 89.1667,57.8333 90.5,58.5C 89.7777,59.5511 88.7777,60.2178 87.5,60.5C 87.2786,59.2652 86.6119,58.2652 85.5,57.5C 85.6236,56.8933 85.9569,56.56 86.5,56.5 Z"/></g>
<g><path style="opacity:1" fill="#e3d0b4" d="M 96.5,56.5 C 97.1667,56.5 97.8333,56.5 98.5,56.5C 99.1667,56.5 99.8333,56.5 100.5,56.5C 101.209,57.404 102.209,57.7373 103.5,57.5C 103.5,58.1667 103.167,58.5 102.5,58.5C 101.833,58.5 101.167,58.5 100.5,58.5C 98.965,59.3543 97.6316,59.3543 96.5,58.5C 96.5,57.8333 96.5,57.1667 96.5,56.5 Z"/></g>
<g><path style="opacity:1" fill="#9c8671" d="M 111.5,58.5 C 112.5,58.5 113.5,58.5 114.5,58.5C 116.076,59.1429 117.41,60.1429 118.5,61.5C 118.167,61.5 117.833,61.5 117.5,61.5C 117.167,61.5 116.833,61.5 116.5,61.5C 115.791,60.596 114.791,60.2627 113.5,60.5C 112.833,60.5 112.167,60.5 111.5,60.5C 111.5,59.8333 111.5,59.1667 111.5,58.5 Z"/></g>
<g><path style="opacity:0.067" fill="#e7e4e3" d="M 117.5,58.5 C 117.5,58.1667 117.5,57.8333 117.5,57.5C 120.09,58.1283 122.423,59.295 124.5,61C 125.738,61.69 125.738,62.19 124.5,62.5C 124.167,62.5 123.833,62.5 123.5,62.5C 122.71,61.5987 121.71,60.9321 120.5,60.5C 119.71,59.5987 118.71,58.9321 117.5,58.5 Z"/></g>
<g><path style="opacity:1" fill="#6f4a41" d="M 29.5,59.5 C 28.791,60.404 27.791,60.7373 26.5,60.5C 22.7657,60.3227 19.0991,60.6561 15.5,61.5C 19.7147,59.5636 24.3814,58.8969 29.5,59.5 Z"/></g>
<g><path style="opacity:1" fill="#926853" d="M 42.5,59.5 C 44.1667,59.5 45.8333,59.5 47.5,59.5C 47.5,60.1667 47.5,60.8333 47.5,61.5C 46.1667,61.5 44.8333,61.5 43.5,61.5C 41.2743,60.2437 38.941,60.2437 36.5,61.5C 34.6112,60.2584 32.6112,60.2584 30.5,61.5C 29.1667,61.5 27.8333,61.5 26.5,61.5C 26.5,61.1667 26.5,60.8333 26.5,60.5C 27.791,60.7373 28.791,60.404 29.5,59.5C 30.5,59.5 31.5,59.5 32.5,59.5C 33.5,59.5 34.5,59.5 35.5,59.5C 37.8744,58.3139 40.2078,58.3139 42.5,59.5 Z"/></g>
<g><path style="opacity:1" fill="#91634e" d="M 47.5,59.5 C 49.7354,59.2053 51.7354,59.5386 53.5,60.5C 51.5853,60.2155 49.9187,60.5489 48.5,61.5C 48.1667,61.5 47.8333,61.5 47.5,61.5C 47.5,60.8333 47.5,60.1667 47.5,59.5 Z"/></g>
<g><path style="opacity:1" fill="#9b785f" d="M 59.5,59.5 C 61.7354,59.2053 63.7354,59.5386 65.5,60.5C 64.8333,60.5 64.5,60.8333 64.5,61.5C 63.8333,61.5 63.1667,61.5 62.5,61.5C 61.5,60.8333 60.5,60.1667 59.5,59.5 Z"/></g>
<g><path style="opacity:1" fill="#9d8469" d="M 90.5,58.5 C 90.8333,58.5 91.1667,58.5 91.5,58.5C 92.9002,59.1001 93.9002,60.1001 94.5,61.5C 93.391,61.5569 92.391,61.8902 91.5,62.5C 90.0878,61.8344 88.7545,61.5011 87.5,61.5C 87.5,61.1667 87.5,60.8333 87.5,60.5C 88.7777,60.2178 89.7777,59.5511 90.5,58.5 Z"/></g>
<g><path style="opacity:1" fill="#d7c4a6" d="M 107.5,59.5 C 107.5,59.1667 107.5,58.8333 107.5,58.5C 108.833,58.5 110.167,58.5 111.5,58.5C 111.5,59.1667 111.5,59.8333 111.5,60.5C 109.805,61.8264 108.472,61.4931 107.5,59.5 Z"/></g>
<g><path style="opacity:1" fill="#695d54" d="M 114.5,58.5 C 115.5,58.5 116.5,58.5 117.5,58.5C 118.71,58.9321 119.71,59.5987 120.5,60.5C 119.833,60.8333 119.167,61.1667 118.5,61.5C 117.41,60.1429 116.076,59.1429 114.5,58.5 Z"/></g>
<g><path style="opacity:1" fill="#523532" d="M 9.5,58.5 C 9.83333,58.5 10.1667,58.5 10.5,58.5C 10.8333,59.5 11.5,60.1667 12.5,60.5C 12.5,60.8333 12.5,61.1667 12.5,61.5C 12.5,61.8333 12.5,62.1667 12.5,62.5C 12.1667,62.5 11.8333,62.5 11.5,62.5C 10.5,62.5 9.5,62.5 8.5,62.5C 8.06178,62.5654 7.72845,62.3988 7.5,62C 8.30501,60.8873 8.97168,59.7206 9.5,58.5 Z"/></g>
<g><path style="opacity:1" fill="#a47a63" d="M 36.5,61.5 C 35.5,61.5 34.5,61.5 33.5,61.5C 32.3478,62.625 31.3478,62.625 30.5,61.5C 32.6112,60.2584 34.6112,60.2584 36.5,61.5 Z"/></g>
<g><path style="opacity:1" fill="#946f59" d="M 54.5,58.5 C 55.8333,58.5 57.1667,58.5 58.5,58.5C 58.5,58.8333 58.5,59.1667 58.5,59.5C 58.6716,60.4916 58.3382,61.1583 57.5,61.5C 56.5,61.5 55.5,61.5 54.5,61.5C 52.8333,61.5 51.1667,61.5 49.5,61.5C 49.1667,61.5 48.8333,61.5 48.5,61.5C 49.9187,60.5489 51.5853,60.2155 53.5,60.5C 55.6977,60.5912 56.0311,59.9245 54.5,58.5 Z"/></g>
<g><path style="opacity:1" fill="#a38567" d="M 58.5,59.5 C 58.8333,59.5 59.1667,59.5 59.5,59.5C 60.5,60.1667 61.5,60.8333 62.5,61.5C 61.391,61.5569 60.391,61.8902 59.5,62.5C 59.1667,62.5 58.8333,62.5 58.5,62.5C 57.8333,62.5 57.5,62.1667 57.5,61.5C 58.3382,61.1583 58.6716,60.4916 58.5,59.5 Z"/></g>
<g><path style="opacity:1" fill="#a48467" d="M 69.5,60.5 C 70.8333,60.5 72.1667,60.5 73.5,60.5C 73.1959,62.7957 72.1959,63.129 70.5,61.5C 68.5,61.5 66.5,61.5 64.5,61.5C 64.5,60.8333 64.8333,60.5 65.5,60.5C 66.8333,59.1667 68.1667,59.1667 69.5,60.5 Z"/></g>
<g><path style="opacity:1" fill="#c4ae8f" d="M 91.5,58.5 C 93.1667,58.5 94.8333,58.5 96.5,58.5C 97.6316,59.3543 98.965,59.3543 100.5,58.5C 100.5,59.8333 100.5,61.1667 100.5,62.5C 99.209,62.2627 98.209,62.596 97.5,63.5C 97.5,64.5 97.5,65.5 97.5,66.5C 96.9348,64.58 95.9348,62.9133 94.5,61.5C 93.9002,60.1001 92.9002,59.1001 91.5,58.5 Z"/></g>
<g><path style="opacity:1" fill="#6f5c49" d="M 103.5,59.5 C 104.5,59.5 105.5,59.5 106.5,59.5C 106.768,61.099 106.434,62.4324 105.5,63.5C 105.167,63.5 104.833,63.5 104.5,63.5C 102.507,62.5284 102.174,61.1951 103.5,59.5 Z"/></g>
<g><path style="opacity:0.355" fill="#e9ddd2" d="M 3.5,48.5 C 3.5,49.1667 3.5,49.8333 3.5,50.5C 3.5,51.5 3.5,52.5 3.5,53.5C 4.038,55.1172 4.37133,56.7839 4.5,58.5C 4.5,60.1667 4.5,61.8333 4.5,63.5C 4.16667,63.5 3.83333,63.5 3.5,63.5C 2.79287,60.2139 2.45954,56.8806 2.5,53.5C 2.21552,51.5853 2.54885,49.9187 3.5,48.5 Z"/></g>
<g><path style="opacity:1" fill="#896351" d="M 26.5,60.5 C 26.5,60.8333 26.5,61.1667 26.5,61.5C 26.1667,61.5 25.8333,61.5 25.5,61.5C 21.5752,61.4299 17.9085,62.0966 14.5,63.5C 13.8333,63.5 13.1667,63.5 12.5,63.5C 12.5,63.1667 12.5,62.8333 12.5,62.5C 12.5,62.1667 12.5,61.8333 12.5,61.5C 13.5,61.5 14.5,61.5 15.5,61.5C 19.0991,60.6561 22.7657,60.3227 26.5,60.5 Z"/></g>
<g><path style="opacity:1" fill="#ab8e71" d="M 43.5,61.5 C 42.209,61.2627 41.209,61.596 40.5,62.5C 39.8333,62.5 39.1667,62.5 38.5,62.5C 36.9731,62.427 35.9731,63.0937 35.5,64.5C 32.8333,64.5 30.1667,64.5 27.5,64.5C 29.8439,64.0603 31.8439,63.0603 33.5,61.5C 34.5,61.5 35.5,61.5 36.5,61.5C 38.941,60.2437 41.2743,60.2437 43.5,61.5 Z"/></g>
<g><path style="opacity:1" fill="#ab8e73" d="M 40.5,62.5 C 41.209,61.596 42.209,61.2627 43.5,61.5C 44.8333,61.5 46.1667,61.5 47.5,61.5C 47.8333,61.5 48.1667,61.5 48.5,61.5C 48.8333,61.5 49.1667,61.5 49.5,61.5C 49.8333,62.1667 50.1667,62.8333 50.5,63.5C 49.391,63.4431 48.391,63.1098 47.5,62.5C 45.1667,62.5 42.8333,62.5 40.5,62.5 Z"/></g>
<g><path style="opacity:1" fill="#a18a6c" d="M 49.5,61.5 C 51.1667,61.5 52.8333,61.5 54.5,61.5C 54.5,62.1667 54.5,62.8333 54.5,63.5C 52.965,64.3543 51.6316,64.3543 50.5,63.5C 50.1667,62.8333 49.8333,62.1667 49.5,61.5 Z"/></g>
<g><path style="opacity:1" fill="#ae9178" d="M 75.5,60.5 C 76.9587,60.4326 78.2921,60.7659 79.5,61.5C 79.5,61.8333 79.5,62.1667 79.5,62.5C 78.2921,63.2341 76.9587,63.5674 75.5,63.5C 75.5,62.5 75.5,61.5 75.5,60.5 Z"/></g>
<g><path style="opacity:1" fill="#977b5b" d="M 81.5,58.5 C 83.0481,58.8212 83.7148,59.8212 83.5,61.5C 82.5,61.8333 81.8333,62.5 81.5,63.5C 80.5084,63.6716 79.8417,63.3382 79.5,62.5C 79.5,62.1667 79.5,61.8333 79.5,61.5C 81.0481,61.1788 81.7148,60.1788 81.5,58.5 Z"/></g>
<g><path style="opacity:1" fill="#4e3a35" d="M 120.5,60.5 C 121.71,60.9321 122.71,61.5987 123.5,62.5C 123.5,62.8333 123.5,63.1667 123.5,63.5C 121.621,64.3414 119.621,64.6747 117.5,64.5C 117.918,63.7784 118.584,63.2784 119.5,63C 118.584,62.7216 117.918,62.2216 117.5,61.5C 117.833,61.5 118.167,61.5 118.5,61.5C 119.167,61.1667 119.833,60.8333 120.5,60.5 Z"/></g>
<g><path style="opacity:1" fill="#96755e" d="M 25.5,61.5 C 24.8333,62.1667 24.1667,62.8333 23.5,63.5C 20.5,63.5 17.5,63.5 14.5,63.5C 17.9085,62.0966 21.5752,61.4299 25.5,61.5 Z"/></g>
<g><path style="opacity:1" fill="#a28264" d="M 25.5,61.5 C 25.8333,61.5 26.1667,61.5 26.5,61.5C 27.8333,61.5 29.1667,61.5 30.5,61.5C 31.3478,62.625 32.3478,62.625 33.5,61.5C 31.8439,63.0603 29.8439,64.0603 27.5,64.5C 27.1667,64.5 26.8333,64.5 26.5,64.5C 25.791,63.596 24.791,63.2627 23.5,63.5C 24.1667,62.8333 24.8333,62.1667 25.5,61.5 Z"/></g>
<g><path style="opacity:1" fill="#a59178" d="M 38.5,62.5 C 39.1667,62.5 39.8333,62.5 40.5,62.5C 42.8333,62.5 45.1667,62.5 47.5,62.5C 47.5,63.1667 47.5,63.8333 47.5,64.5C 46.1667,64.5 44.8333,64.5 43.5,64.5C 41.8333,63.8333 40.1667,63.1667 38.5,62.5 Z"/></g>
<g><path style="opacity:1" fill="#937c67" d="M 54.5,61.5 C 55.5,61.5 56.5,61.5 57.5,61.5C 57.5,62.1667 57.8333,62.5 58.5,62.5C 58.1583,63.3382 57.4916,63.6716 56.5,63.5C 55.8333,63.5 55.1667,63.5 54.5,63.5C 54.5,62.8333 54.5,62.1667 54.5,61.5 Z"/></g>
<g><path style="opacity:1" fill="#a39074" d="M 62.5,61.5 C 63.1667,61.5 63.8333,61.5 64.5,61.5C 66.5,61.5 68.5,61.5 70.5,61.5C 70.5,62.1667 70.5,62.8333 70.5,63.5C 68.2078,64.6861 65.8744,64.6861 63.5,63.5C 61.901,63.7678 60.5676,63.4345 59.5,62.5C 60.391,61.8902 61.391,61.5569 62.5,61.5 Z"/></g>
<g><path style="opacity:1" fill="#9e8d68" d="M 73.5,60.5 C 74.1667,60.5 74.8333,60.5 75.5,60.5C 75.5,61.5 75.5,62.5 75.5,63.5C 75.5,63.8333 75.5,64.1667 75.5,64.5C 75.5,65.1667 75.1667,65.5 74.5,65.5C 73.4324,64.5655 72.099,64.2322 70.5,64.5C 70.5,64.1667 70.5,63.8333 70.5,63.5C 70.5,62.8333 70.5,62.1667 70.5,61.5C 72.1959,63.129 73.1959,62.7957 73.5,60.5 Z"/></g>
<g><path style="opacity:1" fill="#897a60" d="M 83.5,61.5 C 84.5,61.5 85.5,61.5 86.5,61.5C 85.4097,62.8571 84.0764,63.8571 82.5,64.5C 82.1667,64.5 81.8333,64.5 81.5,64.5C 81.5,64.1667 81.5,63.8333 81.5,63.5C 81.8333,62.5 82.5,61.8333 83.5,61.5 Z"/></g>
<g><path style="opacity:1" fill="#ac987b" d="M 100.5,58.5 C 101.167,58.5 101.833,58.5 102.5,58.5C 102.5,59.1667 102.833,59.5 103.5,59.5C 102.174,61.1951 102.507,62.5284 104.5,63.5C 103.167,63.5 101.833,63.5 100.5,63.5C 99.8333,63.8333 99.1667,64.1667 98.5,64.5C 98.5,63.8333 98.1667,63.5 97.5,63.5C 98.209,62.596 99.209,62.2627 100.5,62.5C 100.5,61.1667 100.5,59.8333 100.5,58.5 Z"/></g>
<g><path style="opacity:1" fill="#ae9777" d="M 106.5,59.5 C 106.833,59.5 107.167,59.5 107.5,59.5C 108.472,61.4931 109.805,61.8264 111.5,60.5C 111.881,62.9418 111.214,63.6085 109.5,62.5C 108.702,62.9569 108.369,63.6236 108.5,64.5C 108.443,65.609 108.11,66.609 107.5,67.5C 106.833,66.5 106.167,65.5 105.5,64.5C 105.5,64.1667 105.5,63.8333 105.5,63.5C 106.434,62.4324 106.768,61.099 106.5,59.5 Z"/></g>
<g><path style="opacity:1" fill="#7f604f" d="M 111.5,60.5 C 112.167,60.5 112.833,60.5 113.5,60.5C 113.567,61.9587 113.234,63.2921 112.5,64.5C 111.833,64.5 111.167,64.5 110.5,64.5C 109.833,64.5 109.167,64.5 108.5,64.5C 108.369,63.6236 108.702,62.9569 109.5,62.5C 111.214,63.6085 111.881,62.9418 111.5,60.5 Z"/></g>
<g><path style="opacity:1" fill="#a8927b" d="M 12.5,63.5 C 13.1667,63.5 13.8333,63.5 14.5,63.5C 17.5,63.5 20.5,63.5 23.5,63.5C 24.791,63.2627 25.791,63.596 26.5,64.5C 24.5,64.5 22.5,64.5 20.5,64.5C 17.7718,64.1706 15.4385,64.8372 13.5,66.5C 12.596,65.791 12.2627,64.791 12.5,63.5 Z"/></g>
<g><path style="opacity:1" fill="#a99d7f" d="M 38.5,62.5 C 40.1667,63.1667 41.8333,63.8333 43.5,64.5C 40.8333,64.5 38.1667,64.5 35.5,64.5C 35.9731,63.0937 36.9731,62.427 38.5,62.5 Z"/></g>
<g><path style="opacity:1" fill="#b2a48f" d="M 47.5,62.5 C 48.391,63.1098 49.391,63.4431 50.5,63.5C 51.6316,64.3543 52.965,64.3543 54.5,63.5C 55.1667,63.5 55.8333,63.5 56.5,63.5C 58.1667,64.1667 59.8333,64.8333 61.5,65.5C 59.2646,65.2053 57.2646,65.5386 55.5,66.5C 55.1667,66.5 54.8333,66.5 54.5,66.5C 52.7354,65.5386 50.7354,65.2053 48.5,65.5C 48.5,64.8333 48.1667,64.5 47.5,64.5C 47.5,63.8333 47.5,63.1667 47.5,62.5 Z"/></g>
<g><path style="opacity:1" fill="#9c9076" d="M 58.5,62.5 C 58.8333,62.5 59.1667,62.5 59.5,62.5C 60.5676,63.4345 61.901,63.7678 63.5,63.5C 63.1667,64.1667 62.8333,64.8333 62.5,65.5C 62.1667,65.5 61.8333,65.5 61.5,65.5C 59.8333,64.8333 58.1667,64.1667 56.5,63.5C 57.4916,63.6716 58.1583,63.3382 58.5,62.5 Z"/></g>
<g><path style="opacity:1" fill="#978b70" d="M 79.5,62.5 C 79.8417,63.3382 80.5084,63.6716 81.5,63.5C 81.5,63.8333 81.5,64.1667 81.5,64.5C 80.8333,64.5 80.5,64.8333 80.5,65.5C 78.8828,64.962 77.2161,64.6287 75.5,64.5C 75.5,64.1667 75.5,63.8333 75.5,63.5C 76.9587,63.5674 78.2921,63.2341 79.5,62.5 Z"/></g>
<g><path style="opacity:1" fill="#988c6e" d="M 86.5,61.5 C 86.8333,61.5 87.1667,61.5 87.5,61.5C 88.7545,61.5011 90.0878,61.8344 91.5,62.5C 91.5,62.8333 91.5,63.1667 91.5,63.5C 89.8828,64.038 88.2161,64.3713 86.5,64.5C 85.1667,64.5 83.8333,64.5 82.5,64.5C 84.0764,63.8571 85.4097,62.8571 86.5,61.5 Z"/></g>
<g><path style="opacity:1" fill="#b8a285" d="M 94.5,61.5 C 94.5,62.8333 94.5,64.1667 94.5,65.5C 93.0755,63.9689 92.4088,64.3023 92.5,66.5C 91.8333,66.5 91.5,66.1667 91.5,65.5C 91.5,64.8333 91.5,64.1667 91.5,63.5C 91.5,63.1667 91.5,62.8333 91.5,62.5C 92.391,61.8902 93.391,61.5569 94.5,61.5 Z"/></g>
<g><path style="opacity:1" fill="#ab9382" d="M 113.5,60.5 C 114.791,60.2627 115.791,60.596 116.5,61.5C 115.965,63.4456 114.632,64.4456 112.5,64.5C 113.234,63.2921 113.567,61.9587 113.5,60.5 Z"/></g>
<g><path style="opacity:1" fill="#563c37" d="M 8.5,62.5 C 9.5,62.5 10.5,62.5 11.5,62.5C 11.634,64.2915 11.3007,65.9582 10.5,67.5C 9.77842,67.9175 9.27842,68.5842 9,69.5C 8.60123,69.2716 8.43456,68.9382 8.5,68.5C 8.5,66.5 8.5,64.5 8.5,62.5 Z"/></g>
<g><path style="opacity:1" fill="#a09883" d="M 80.5,65.5 C 80.5,64.8333 80.8333,64.5 81.5,64.5C 81.8333,64.5 82.1667,64.5 82.5,64.5C 83.8333,64.5 85.1667,64.5 86.5,64.5C 86.5,65.1667 86.5,65.8333 86.5,66.5C 85.5,66.5 84.5,66.5 83.5,66.5C 82.791,65.596 81.791,65.2627 80.5,65.5 Z"/></g>
<g><path style="opacity:1" fill="#af9b7f" d="M 100.5,63.5 C 100.557,64.609 100.89,65.609 101.5,66.5C 100.596,67.209 100.263,68.209 100.5,69.5C 98.744,68.4479 98.0773,66.7812 98.5,64.5C 99.1667,64.1667 99.8333,63.8333 100.5,63.5 Z"/></g>
<g><path style="opacity:0.631" fill="#d4d0c8" d="M 123.5,62.5 C 123.833,62.5 124.167,62.5 124.5,62.5C 126.138,63.7046 126.471,65.0379 125.5,66.5C 124.833,66.5 124.167,66.5 123.5,66.5C 124.833,65.5 124.833,64.5 123.5,63.5C 123.5,63.1667 123.5,62.8333 123.5,62.5 Z"/></g>
<g><path style="opacity:1" fill="#794f41" d="M 6.5,64.5 C 7.43448,65.5676 7.76781,66.901 7.5,68.5C 7.5,70.1667 7.5,71.8333 7.5,73.5C 6.16667,73.5 5.5,72.8333 5.5,71.5C 5.67412,69.139 6.00745,66.8056 6.5,64.5 Z"/></g>
<g><path style="opacity:1" fill="#d7c8af" d="M 20.5,64.5 C 19.5,65.1667 18.5,65.8333 17.5,66.5C 16.1667,66.5 14.8333,66.5 13.5,66.5C 15.4385,64.8372 17.7718,64.1706 20.5,64.5 Z"/></g>
<g><path style="opacity:1" fill="#d2c4b2" d="M 20.5,64.5 C 22.5,64.5 24.5,64.5 26.5,64.5C 26.5,65.1667 26.5,65.8333 26.5,66.5C 23.5,66.5 20.5,66.5 17.5,66.5C 18.5,65.8333 19.5,65.1667 20.5,64.5 Z"/></g>
<g><path style="opacity:1" fill="#d6c6b0" d="M 26.5,64.5 C 26.8333,64.5 27.1667,64.5 27.5,64.5C 30.1667,64.5 32.8333,64.5 35.5,64.5C 38.1667,64.5 40.8333,64.5 43.5,64.5C 44.8333,64.5 46.1667,64.5 47.5,64.5C 48.1667,64.5 48.5,64.8333 48.5,65.5C 46.5,65.5 44.5,65.5 42.5,65.5C 41.8333,65.5 41.1667,65.5 40.5,65.5C 38.1432,65.3367 35.8098,65.5034 33.5,66C 34.056,66.3826 34.3893,66.8826 34.5,67.5C 33.5,67.5 32.5,67.5 31.5,67.5C 31.1667,67.5 30.8333,67.5 30.5,67.5C 29.4324,66.5655 28.099,66.2322 26.5,66.5C 26.5,65.8333 26.5,65.1667 26.5,64.5 Z"/></g>
<g><path style="opacity:1" fill="#e7d6c4" d="M 40.5,65.5 C 39.8902,66.391 39.5569,67.391 39.5,68.5C 37.9582,67.6993 36.2915,67.366 34.5,67.5C 34.3893,66.8826 34.056,66.3826 33.5,66C 35.8098,65.5034 38.1432,65.3367 40.5,65.5 Z"/></g>
<g><path style="opacity:1" fill="#ccc1af" d="M 55.5,66.5 C 57.2646,65.5386 59.2646,65.2053 61.5,65.5C 61.8333,65.5 62.1667,65.5 62.5,65.5C 62.5,65.8333 62.5,66.1667 62.5,66.5C 61.0413,66.4326 59.7079,66.7659 58.5,67.5C 57.791,66.596 56.791,66.2627 55.5,66.5 Z"/></g>
<g><path style="opacity:1" fill="#beb5a3" d="M 63.5,63.5 C 65.8744,64.6861 68.2078,64.6861 70.5,63.5C 70.5,63.8333 70.5,64.1667 70.5,64.5C 70.8333,65.1667 71.1667,65.8333 71.5,66.5C 69.901,66.2322 68.5676,66.5655 67.5,67.5C 66.8333,67.5 66.1667,67.5 65.5,67.5C 64.609,66.8902 63.609,66.5569 62.5,66.5C 62.5,66.1667 62.5,65.8333 62.5,65.5C 62.8333,64.8333 63.1667,64.1667 63.5,63.5 Z"/></g>
<g><path style="opacity:1" fill="#b9b89b" d="M 70.5,64.5 C 72.099,64.2322 73.4324,64.5655 74.5,65.5C 74.5,65.8333 74.5,66.1667 74.5,66.5C 74.1667,66.5 73.8333,66.5 73.5,66.5C 73.1667,66.5 72.8333,66.5 72.5,66.5C 72.1667,66.5 71.8333,66.5 71.5,66.5C 71.1667,65.8333 70.8333,65.1667 70.5,64.5 Z"/></g>
<g><path style="opacity:1" fill="#b4ac94" d="M 75.5,64.5 C 77.2161,64.6287 78.8828,64.962 80.5,65.5C 81.791,65.2627 82.791,65.596 83.5,66.5C 83.1667,66.5 82.8333,66.5 82.5,66.5C 81.8333,66.5 81.1667,66.5 80.5,66.5C 78.5,66.5 76.5,66.5 74.5,66.5C 74.5,66.1667 74.5,65.8333 74.5,65.5C 75.1667,65.5 75.5,65.1667 75.5,64.5 Z"/></g>
<g><path style="opacity:1" fill="#bdaf92" d="M 91.5,63.5 C 91.5,64.1667 91.5,64.8333 91.5,65.5C 90.1667,65.8333 88.8333,66.1667 87.5,66.5C 87.1667,66.5 86.8333,66.5 86.5,66.5C 86.5,65.8333 86.5,65.1667 86.5,64.5C 88.2161,64.3713 89.8828,64.038 91.5,63.5 Z"/></g>
<g><path style="opacity:1" fill="#daccae" d="M 100.5,63.5 C 101.833,63.5 103.167,63.5 104.5,63.5C 104.833,63.5 105.167,63.5 105.5,63.5C 105.5,63.8333 105.5,64.1667 105.5,64.5C 105.5,66.1667 105.5,67.8333 105.5,69.5C 105.167,69.5 104.833,69.5 104.5,69.5C 103.833,68.1667 102.833,67.1667 101.5,66.5C 100.89,65.609 100.557,64.609 100.5,63.5 Z"/></g>
<g><path style="opacity:1" fill="#ad9776" d="M 108.5,64.5 C 109.167,64.5 109.833,64.5 110.5,64.5C 112.261,65.3127 113.928,66.3127 115.5,67.5C 113.5,67.8333 111.5,68.1667 109.5,68.5C 108.833,68.1667 108.167,67.8333 107.5,67.5C 108.11,66.609 108.443,65.609 108.5,64.5 Z"/></g>
<g><path style="opacity:1" fill="#806c5b" d="M 116.5,61.5 C 116.833,61.5 117.167,61.5 117.5,61.5C 117.918,62.2216 118.584,62.7216 119.5,63C 118.584,63.2784 117.918,63.7784 117.5,64.5C 117.5,65.1667 117.5,65.8333 117.5,66.5C 117.5,66.8333 117.5,67.1667 117.5,67.5C 116.833,67.5 116.167,67.5 115.5,67.5C 113.928,66.3127 112.261,65.3127 110.5,64.5C 111.167,64.5 111.833,64.5 112.5,64.5C 114.632,64.4456 115.965,63.4456 116.5,61.5 Z"/></g>
<g><path style="opacity:1" fill="#7f614c" d="M 123.5,63.5 C 124.833,64.5 124.833,65.5 123.5,66.5C 121.5,65.1667 119.5,65.1667 117.5,66.5C 117.5,65.8333 117.5,65.1667 117.5,64.5C 119.621,64.6747 121.621,64.3414 123.5,63.5 Z"/></g>
<g><path style="opacity:1" fill="#bba087" d="M 123.5,66.5 C 122.833,67.1667 122.167,67.8333 121.5,68.5C 120.833,68.5 120.167,68.5 119.5,68.5C 119.158,67.6618 118.492,67.3284 117.5,67.5C 117.5,67.1667 117.5,66.8333 117.5,66.5C 119.5,65.1667 121.5,65.1667 123.5,66.5 Z"/></g>
<g><path style="opacity:1" fill="#9a8b7c" d="M 13.5,67.5 C 13.5,67.1667 13.5,66.8333 13.5,66.5C 14.8333,66.5 16.1667,66.5 17.5,66.5C 20.5,66.5 23.5,66.5 26.5,66.5C 28.099,66.2322 29.4324,66.5655 30.5,67.5C 29.609,68.1098 28.609,68.4431 27.5,68.5C 24.5,67.1667 21.5,67.1667 18.5,68.5C 17.8333,68.8333 17.1667,69.1667 16.5,69.5C 16.0269,68.0937 15.0269,67.427 13.5,67.5 Z"/></g>
<g><path style="opacity:1" fill="#eae0c9" d="M 40.5,65.5 C 41.1667,65.5 41.8333,65.5 42.5,65.5C 42.5,66.5 42.5,67.5 42.5,68.5C 41.5,68.5 40.5,68.5 39.5,68.5C 39.5569,67.391 39.8902,66.391 40.5,65.5 Z"/></g>
<g><path style="opacity:1" fill="#e3d8c9" d="M 42.5,65.5 C 44.5,65.5 46.5,65.5 48.5,65.5C 50.7354,65.2053 52.7354,65.5386 54.5,66.5C 52.5,66.5 50.5,66.5 48.5,66.5C 43.3706,66.719 43.3706,67.3856 48.5,68.5C 49.1667,68.5 49.5,68.8333 49.5,69.5C 48.5,69.5 47.5,69.5 46.5,69.5C 45.8333,69.5 45.1667,69.5 44.5,69.5C 44.1583,68.6618 43.4916,68.3284 42.5,68.5C 42.5,67.5 42.5,66.5 42.5,65.5 Z"/></g>
<g><path style="opacity:1" fill="#eae2d1" d="M 48.5,66.5 C 48.5,67.1667 48.5,67.8333 48.5,68.5C 43.3706,67.3856 43.3706,66.719 48.5,66.5 Z"/></g>
<g><path style="opacity:1" fill="#eaded7" d="M 48.5,66.5 C 50.5,66.5 52.5,66.5 54.5,66.5C 54.5,67.5 54.5,68.5 54.5,69.5C 52.8333,69.5 51.1667,69.5 49.5,69.5C 49.5,68.8333 49.1667,68.5 48.5,68.5C 48.5,67.8333 48.5,67.1667 48.5,66.5 Z"/></g>
<g><path style="opacity:1" fill="#dbd7ca" d="M 67.5,67.5 C 68.5676,66.5655 69.901,66.2322 71.5,66.5C 71.8333,66.5 72.1667,66.5 72.5,66.5C 72.5,67.1667 72.5,67.8333 72.5,68.5C 71.8333,68.5 71.1667,68.5 70.5,68.5C 69.791,67.596 68.791,67.2627 67.5,67.5 Z"/></g>
<g><path style="opacity:1" fill="#d4c8b6" d="M 82.5,67.5 C 82.5,67.1667 82.5,66.8333 82.5,66.5C 82.8333,66.5 83.1667,66.5 83.5,66.5C 84.5,66.5 85.5,66.5 86.5,66.5C 86.8333,66.5 87.1667,66.5 87.5,66.5C 87.5,67.1667 87.5,67.8333 87.5,68.5C 85.7839,68.3713 84.1172,68.038 82.5,67.5 Z"/></g>
<g><path style="opacity:1" fill="#a99276" d="M 94.5,65.5 C 94.8212,67.0481 95.8212,67.7148 97.5,67.5C 97.5,68.1667 97.5,68.8333 97.5,69.5C 95.9974,69.1654 94.664,69.1654 93.5,69.5C 93.1667,69.5 92.8333,69.5 92.5,69.5C 91.1667,69.5 89.8333,69.5 88.5,69.5C 88.5,69.1667 88.5,68.8333 88.5,68.5C 90.4832,68.8432 91.8166,68.1765 92.5,66.5C 92.4088,64.3023 93.0755,63.9689 94.5,65.5 Z"/></g>
<g><path style="opacity:1" fill="#bba37d" d="M 94.5,61.5 C 95.9348,62.9133 96.9348,64.58 97.5,66.5C 97.5,66.8333 97.5,67.1667 97.5,67.5C 95.8212,67.7148 94.8212,67.0481 94.5,65.5C 94.5,64.1667 94.5,62.8333 94.5,61.5 Z"/></g>
<g><path style="opacity:1" fill="#625249" d="M 11.5,62.5 C 11.8333,62.5 12.1667,62.5 12.5,62.5C 12.5,62.8333 12.5,63.1667 12.5,63.5C 12.2627,64.791 12.596,65.791 13.5,66.5C 13.5,66.8333 13.5,67.1667 13.5,67.5C 12.791,68.404 11.791,68.7373 10.5,68.5C 10.5,68.1667 10.5,67.8333 10.5,67.5C 11.3007,65.9582 11.634,64.2915 11.5,62.5 Z"/></g>
<g><path style="opacity:1" fill="#635649" d="M 13.5,67.5 C 15.0269,67.427 16.0269,68.0937 16.5,69.5C 15.8333,69.5 15.5,69.8333 15.5,70.5C 14.391,70.5569 13.391,70.8902 12.5,71.5C 12.1583,70.6618 11.4916,70.3284 10.5,70.5C 10.5,69.8333 10.5,69.1667 10.5,68.5C 11.791,68.7373 12.791,68.404 13.5,67.5 Z"/></g>
<g><path style="opacity:0.353" fill="#ddd6ce" d="M 18.5,68.5 C 21.5,67.1667 24.5,67.1667 27.5,68.5C 26.1667,68.5 25.5,69.1667 25.5,70.5C 24.7777,69.4489 23.7777,68.7822 22.5,68.5C 22.1667,68.5 21.8333,68.5 21.5,68.5C 20.5,68.5 19.5,68.5 18.5,68.5 Z"/></g>
<g><path style="opacity:1" fill="#e4dccd" d="M 62.5,66.5 C 63.609,66.5569 64.609,66.8902 65.5,67.5C 65.5299,68.4972 65.0299,69.1639 64,69.5C 62.6269,68.4848 61.4602,68.4848 60.5,69.5C 59.7611,69.631 59.0944,69.4643 58.5,69C 57.2617,68.31 57.2617,67.81 58.5,67.5C 59.7079,66.7659 61.0413,66.4326 62.5,66.5 Z"/></g>
<g><path style="opacity:1" fill="#e6dece" d="M 72.5,66.5 C 72.8333,66.5 73.1667,66.5 73.5,66.5C 74.8333,67.1667 76.1667,67.8333 77.5,68.5C 76.1667,68.5 75.5,69.1667 75.5,70.5C 74.8333,70.5 74.1667,70.5 73.5,70.5C 73.6716,69.5084 73.3382,68.8417 72.5,68.5C 72.5,67.8333 72.5,67.1667 72.5,66.5 Z"/></g>
<g><path style="opacity:1" fill="#ded5c6" d="M 73.5,66.5 C 73.8333,66.5 74.1667,66.5 74.5,66.5C 76.5,66.5 78.5,66.5 80.5,66.5C 81.4054,67.9643 81.4054,69.2976 80.5,70.5C 80.1667,70.5 79.8333,70.5 79.5,70.5C 79.5,69.1667 78.8333,68.5 77.5,68.5C 76.1667,67.8333 74.8333,67.1667 73.5,66.5 Z"/></g>
<g><path style="opacity:1" fill="#d8ccb8" d="M 80.5,66.5 C 81.1667,66.5 81.8333,66.5 82.5,66.5C 82.5,66.8333 82.5,67.1667 82.5,67.5C 82.3284,68.4916 82.6618,69.1583 83.5,69.5C 83.1583,70.3382 82.4916,70.6716 81.5,70.5C 81.1667,70.5 80.8333,70.5 80.5,70.5C 81.4054,69.2976 81.4054,67.9643 80.5,66.5 Z"/></g>
<g><path style="opacity:1" fill="#dbcbb1" d="M 91.5,65.5 C 91.5,66.1667 91.8333,66.5 92.5,66.5C 91.8166,68.1765 90.4832,68.8432 88.5,68.5C 88.1667,68.5 87.8333,68.5 87.5,68.5C 87.5,67.8333 87.5,67.1667 87.5,66.5C 88.8333,66.1667 90.1667,65.8333 91.5,65.5 Z"/></g>
<g><path style="opacity:0.054" fill="#f1f0e7" d="M 123.5,66.5 C 124.167,66.5 124.833,66.5 125.5,66.5C 125.5,68.5 124.5,69.5 122.5,69.5C 122.5,68.8333 122.167,68.5 121.5,68.5C 122.167,67.8333 122.833,67.1667 123.5,66.5 Z"/></g>
<g><path style="opacity:0.012" fill="#f0ece7" d="M 18.5,68.5 C 19.5,68.5 20.5,68.5 21.5,68.5C 20.0772,70.5449 18.0772,71.5449 15.5,71.5C 15.5,71.1667 15.5,70.8333 15.5,70.5C 15.5,69.8333 15.8333,69.5 16.5,69.5C 17.1667,69.1667 17.8333,68.8333 18.5,68.5 Z"/></g>
<g><path style="opacity:1" fill="#af9e8a" d="M 31.5,68.5 C 31.5,68.1667 31.5,67.8333 31.5,67.5C 32.5,67.5 33.5,67.5 34.5,67.5C 36.2915,67.366 37.9582,67.6993 39.5,68.5C 40.5,68.5 41.5,68.5 42.5,68.5C 43.4916,68.3284 44.1583,68.6618 44.5,69.5C 42.8333,69.5 41.1667,69.5 39.5,69.5C 38.1667,69.1667 36.8333,68.8333 35.5,68.5C 34.1667,68.5 32.8333,68.5 31.5,68.5 Z"/></g>
<g><path style="opacity:1" fill="#e9dfcf" d="M 70.5,68.5 C 71.1667,68.5 71.8333,68.5 72.5,68.5C 73.3382,68.8417 73.6716,69.5084 73.5,70.5C 71.1667,70.5 68.8333,70.5 66.5,70.5C 67.287,68.8958 68.6203,68.2291 70.5,68.5 Z"/></g>
<g><path style="opacity:1" fill="#eaddce" d="M 77.5,68.5 C 78.8333,68.5 79.5,69.1667 79.5,70.5C 78.1667,70.5 76.8333,70.5 75.5,70.5C 75.5,69.1667 76.1667,68.5 77.5,68.5 Z"/></g>
<g><path style="opacity:1" fill="#dfccc0" d="M 82.5,67.5 C 84.1172,68.038 85.7839,68.3713 87.5,68.5C 87.8333,68.5 88.1667,68.5 88.5,68.5C 88.5,68.8333 88.5,69.1667 88.5,69.5C 86.8333,69.5 85.1667,69.5 83.5,69.5C 82.6618,69.1583 82.3284,68.4916 82.5,67.5 Z"/></g>
<g><path style="opacity:1" fill="#cfbc98" d="M 105.5,64.5 C 106.167,65.5 106.833,66.5 107.5,67.5C 108.167,67.8333 108.833,68.1667 109.5,68.5C 109.5,68.8333 109.5,69.1667 109.5,69.5C 108.167,69.5 106.833,69.5 105.5,69.5C 105.5,67.8333 105.5,66.1667 105.5,64.5 Z"/></g>
<g><path style="opacity:1" fill="#bfac89" d="M 115.5,67.5 C 114.833,68.1667 114.167,68.8333 113.5,69.5C 112.167,69.5 110.833,69.5 109.5,69.5C 109.5,69.1667 109.5,68.8333 109.5,68.5C 111.5,68.1667 113.5,67.8333 115.5,67.5 Z"/></g>
<g><path style="opacity:1" fill="#d2c29f" d="M 115.5,67.5 C 116.167,67.5 116.833,67.5 117.5,67.5C 118.492,67.3284 119.158,67.6618 119.5,68.5C 118.791,69.404 117.791,69.7373 116.5,69.5C 115.5,69.5 114.5,69.5 113.5,69.5C 114.167,68.8333 114.833,68.1667 115.5,67.5 Z"/></g>
<g><path style="opacity:1" fill="#8a6858" d="M 4.5,58.5 C 5.16667,58.5 5.5,58.8333 5.5,59.5C 5.21552,61.4147 5.54885,63.0813 6.5,64.5C 6.00745,66.8056 5.67412,69.139 5.5,71.5C 5.16667,71.5 4.83333,71.5 4.5,71.5C 4.5,68.8333 4.5,66.1667 4.5,63.5C 4.5,61.8333 4.5,60.1667 4.5,58.5 Z"/></g>
<g><path style="opacity:1" fill="#6b5346" d="M 10.5,67.5 C 10.5,67.8333 10.5,68.1667 10.5,68.5C 10.5,69.1667 10.5,69.8333 10.5,70.5C 9.83333,71.5 9.16667,72.5 8.5,73.5C 8.16667,73.5 7.83333,73.5 7.5,73.5C 7.5,71.8333 7.5,70.1667 7.5,68.5C 7.83333,68.5 8.16667,68.5 8.5,68.5C 8.43456,68.9382 8.60123,69.2716 9,69.5C 9.27842,68.5842 9.77842,67.9175 10.5,67.5 Z"/></g>
<g><path style="opacity:1" fill="#86735f" d="M 27.5,68.5 C 27.8333,69.5 28.5,70.1667 29.5,70.5C 28.9744,72.2303 27.9744,73.5637 26.5,74.5C 26.7678,72.901 26.4345,71.5676 25.5,70.5C 25.5,69.1667 26.1667,68.5 27.5,68.5 Z"/></g>
<g><path style="opacity:1" fill="#78564b" d="M 30.5,67.5 C 30.8333,67.5 31.1667,67.5 31.5,67.5C 31.5,67.8333 31.5,68.1667 31.5,68.5C 31.5,69.1667 31.5,69.8333 31.5,70.5C 30.8333,70.5 30.1667,70.5 29.5,70.5C 28.5,70.1667 27.8333,69.5 27.5,68.5C 28.609,68.4431 29.609,68.1098 30.5,67.5 Z"/></g>
<g><path style="opacity:1" fill="#6f4d43" d="M 31.5,68.5 C 32.8333,68.5 34.1667,68.5 35.5,68.5C 35.5774,69.7498 36.244,70.5831 37.5,71C 36.0993,71.4101 34.766,71.9101 33.5,72.5C 33.1667,72.5 32.8333,72.5 32.5,72.5C 32.1667,71.8333 31.8333,71.1667 31.5,70.5C 31.5,69.8333 31.5,69.1667 31.5,68.5 Z"/></g>
<g><path style="opacity:1" fill="#9c9382" d="M 39.5,69.5 C 41.1667,69.5 42.8333,69.5 44.5,69.5C 45.1667,69.5 45.8333,69.5 46.5,69.5C 46.5,69.8333 46.5,70.1667 46.5,70.5C 45.1667,70.5 43.8333,70.5 42.5,70.5C 41.391,70.5569 40.391,70.8902 39.5,71.5C 39.5,70.8333 39.5,70.1667 39.5,69.5 Z"/></g>
<g><path style="opacity:1" fill="#ddd2c2" d="M 54.5,66.5 C 54.8333,66.5 55.1667,66.5 55.5,66.5C 56.791,66.2627 57.791,66.596 58.5,67.5C 57.2617,67.81 57.2617,68.31 58.5,69C 59.0944,69.4643 59.7611,69.631 60.5,69.5C 62.3792,70.3414 64.3792,70.6747 66.5,70.5C 68.8333,70.5 71.1667,70.5 73.5,70.5C 74.1667,70.5 74.8333,70.5 75.5,70.5C 76.8333,70.5 78.1667,70.5 79.5,70.5C 72.6866,71.4912 65.6866,71.8245 58.5,71.5C 57.1667,71.5 55.8333,71.5 54.5,71.5C 52.0521,70.5269 49.3854,70.1936 46.5,70.5C 46.5,70.1667 46.5,69.8333 46.5,69.5C 47.5,69.5 48.5,69.5 49.5,69.5C 51.1667,69.5 52.8333,69.5 54.5,69.5C 54.5,68.5 54.5,67.5 54.5,66.5 Z"/></g>
<g><path style="opacity:1" fill="#e4ddcc" d="M 65.5,67.5 C 66.1667,67.5 66.8333,67.5 67.5,67.5C 68.791,67.2627 69.791,67.596 70.5,68.5C 68.6203,68.2291 67.287,68.8958 66.5,70.5C 64.3792,70.6747 62.3792,70.3414 60.5,69.5C 61.4602,68.4848 62.6269,68.4848 64,69.5C 65.0299,69.1639 65.5299,68.4972 65.5,67.5 Z"/></g>
<g><path style="opacity:1" fill="#8e806a" d="M 101.5,66.5 C 102.833,67.1667 103.833,68.1667 104.5,69.5C 104.167,70.5 103.5,71.1667 102.5,71.5C 101.167,71.5 100.5,70.8333 100.5,69.5C 100.263,68.209 100.596,67.209 101.5,66.5 Z"/></g>
<g><path style="opacity:1" fill="#b4a892" d="M 104.5,69.5 C 104.833,69.5 105.167,69.5 105.5,69.5C 106.833,69.5 108.167,69.5 109.5,69.5C 110.833,69.5 112.167,69.5 113.5,69.5C 114.5,69.5 115.5,69.5 116.5,69.5C 116.5,69.8333 116.5,70.1667 116.5,70.5C 114.901,70.2322 113.568,70.5655 112.5,71.5C 110.283,72.3686 107.95,72.702 105.5,72.5C 104.5,72.5 103.5,72.5 102.5,72.5C 102.5,72.1667 102.5,71.8333 102.5,71.5C 103.5,71.1667 104.167,70.5 104.5,69.5 Z"/></g>
<g><path style="opacity:0.373" fill="#f4f1e3" d="M 119.5,68.5 C 120.167,68.5 120.833,68.5 121.5,68.5C 122.167,68.5 122.5,68.8333 122.5,69.5C 121.292,70.2341 119.959,70.5674 118.5,70.5C 117.833,70.5 117.167,70.5 116.5,70.5C 116.5,70.1667 116.5,69.8333 116.5,69.5C 117.791,69.7373 118.791,69.404 119.5,68.5 Z"/></g>
<g><path style="opacity:0.102" fill="#fbf7f2" d="M 3.5,66.5 C 3.5,69.8333 3.5,73.1667 3.5,76.5C 2.52216,76.189 1.85549,75.5223 1.5,74.5C 2.07963,71.6894 2.74629,69.0227 3.5,66.5 Z"/></g>
<g><path style="opacity:1" fill="#7f6050" d="M 35.5,68.5 C 36.8333,68.8333 38.1667,69.1667 39.5,69.5C 39.5,70.1667 39.5,70.8333 39.5,71.5C 38.1667,72.1667 36.8333,72.8333 35.5,73.5C 34.5084,73.6716 33.8417,73.3382 33.5,72.5C 34.766,71.9101 36.0993,71.4101 37.5,71C 36.244,70.5831 35.5774,69.7498 35.5,68.5 Z"/></g>
<g><path style="opacity:1" fill="#b0a696" d="M 42.5,71.5 C 42.5,71.1667 42.5,70.8333 42.5,70.5C 43.8333,70.5 45.1667,70.5 46.5,70.5C 49.3854,70.1936 52.0521,70.5269 54.5,71.5C 52.5853,71.2155 50.9187,71.5489 49.5,72.5C 48.8333,72.5 48.1667,72.5 47.5,72.5C 45.7839,72.3713 44.1172,72.038 42.5,71.5 Z"/></g>
<g><path style="opacity:1" fill="#816853" d="M 83.5,69.5 C 85.1667,69.5 86.8333,69.5 88.5,69.5C 88.5,69.8333 88.5,70.1667 88.5,70.5C 87.5084,70.3284 86.8417,70.6618 86.5,71.5C 84.5853,71.7845 82.9187,71.4511 81.5,70.5C 82.4916,70.6716 83.1583,70.3382 83.5,69.5 Z"/></g>
<g><path style="opacity:1" fill="#c4ad8d" d="M 97.5,69.5 C 97.5569,70.609 97.8902,71.609 98.5,72.5C 97.8333,72.5 97.1667,72.5 96.5,72.5C 95.0998,71.8999 94.0998,70.8999 93.5,69.5C 94.664,69.1654 95.9974,69.1654 97.5,69.5 Z"/></g>
<g><path style="opacity:1" fill="#a99078" d="M 97.5,63.5 C 98.1667,63.5 98.5,63.8333 98.5,64.5C 98.0773,66.7812 98.744,68.4479 100.5,69.5C 100.5,70.8333 101.167,71.5 102.5,71.5C 102.5,71.8333 102.5,72.1667 102.5,72.5C 101.5,72.5 100.5,72.5 99.5,72.5C 99.1667,72.5 98.8333,72.5 98.5,72.5C 97.8902,71.609 97.5569,70.609 97.5,69.5C 97.5,68.8333 97.5,68.1667 97.5,67.5C 97.5,67.1667 97.5,66.8333 97.5,66.5C 97.5,65.5 97.5,64.5 97.5,63.5 Z"/></g>
<g><path style="opacity:0.31" fill="#f4f1e8" d="M 116.5,70.5 C 117.167,70.5 117.833,70.5 118.5,70.5C 117.003,71.3058 115.336,71.9724 113.5,72.5C 112.893,72.3764 112.56,72.0431 112.5,71.5C 113.568,70.5655 114.901,70.2322 116.5,70.5 Z"/></g>
<g><path style="opacity:1" fill="#796d5c" d="M 10.5,70.5 C 11.4916,70.3284 12.1583,70.6618 12.5,71.5C 11.4863,72.6737 10.153,73.3404 8.5,73.5C 9.16667,72.5 9.83333,71.5 10.5,70.5 Z"/></g>
<g><path style="opacity:0.4" fill="#f5f2e6" d="M 22.5,68.5 C 23.7777,68.7822 24.7777,69.4489 25.5,70.5C 25.5,72.8333 25.5,75.1667 25.5,77.5C 24.8173,74.4841 23.8173,71.4841 22.5,68.5 Z"/></g>
<g><path style="opacity:1" fill="#6f5d4d" d="M 29.5,70.5 C 30.1667,70.5 30.8333,70.5 31.5,70.5C 31.8333,71.1667 32.1667,71.8333 32.5,72.5C 31.8333,73.8333 31.1667,75.1667 30.5,76.5C 30.5,76.8333 30.5,77.1667 30.5,77.5C 27.4633,79.1859 26.13,78.1859 26.5,74.5C 27.9744,73.5637 28.9744,72.2303 29.5,70.5 Z"/></g>
<g><path style="opacity:1" fill="#928671" d="M 49.5,72.5 C 50.9187,71.5489 52.5853,71.2155 54.5,71.5C 55.8333,71.5 57.1667,71.5 58.5,71.5C 58.5,71.8333 58.5,72.1667 58.5,72.5C 56.5853,72.2155 54.9187,72.5489 53.5,73.5C 53.1667,73.5 52.8333,73.5 52.5,73.5C 51.791,72.596 50.791,72.2627 49.5,72.5 Z"/></g>
<g><path style="opacity:1" fill="#a4927a" d="M 79.5,70.5 C 79.8333,70.5 80.1667,70.5 80.5,70.5C 80.8333,70.5 81.1667,70.5 81.5,70.5C 82.9187,71.4511 84.5853,71.7845 86.5,71.5C 86.5,72.1667 86.5,72.8333 86.5,73.5C 84.5976,72.4891 82.5976,72.3224 80.5,73C 81.7375,73.2321 82.7375,73.7321 83.5,74.5C 82.8333,74.5 82.1667,74.5 81.5,74.5C 80.8333,74.5 80.1667,74.5 79.5,74.5C 73.2504,72.5411 66.5837,71.8745 59.5,72.5C 59.1667,72.5 58.8333,72.5 58.5,72.5C 58.5,72.1667 58.5,71.8333 58.5,71.5C 65.6866,71.8245 72.6866,71.4912 79.5,70.5 Z"/></g>
<g><path style="opacity:1" fill="#6e5037" d="M 88.5,70.5 C 88.5,70.1667 88.5,69.8333 88.5,69.5C 89.8333,69.5 91.1667,69.5 92.5,69.5C 92.7373,70.791 92.404,71.791 91.5,72.5C 90.2223,72.2178 89.2223,71.5511 88.5,70.5 Z"/></g>
<g><path style="opacity:1" fill="#967e65" d="M 92.5,69.5 C 92.8333,69.5 93.1667,69.5 93.5,69.5C 94.0998,70.8999 95.0998,71.8999 96.5,72.5C 94.8828,73.038 93.2161,73.3713 91.5,73.5C 91.5,73.1667 91.5,72.8333 91.5,72.5C 92.404,71.791 92.7373,70.791 92.5,69.5 Z"/></g>
<g><path style="opacity:1" fill="#806154" d="M 4.5,71.5 C 4.83333,71.5 5.16667,71.5 5.5,71.5C 5.5,72.8333 6.16667,73.5 7.5,73.5C 7.83333,73.5 8.16667,73.5 8.5,73.5C 8.5,73.8333 8.5,74.1667 8.5,74.5C 5.4633,76.1859 4.12997,75.1859 4.5,71.5 Z"/></g>
<g><path style="opacity:0.114" fill="#e3d9d3" d="M 42.5,70.5 C 42.5,70.8333 42.5,71.1667 42.5,71.5C 40.6675,72.2485 39.0009,73.2485 37.5,74.5C 36.8333,74.5 36.1667,74.5 35.5,74.5C 35.5,74.1667 35.5,73.8333 35.5,73.5C 36.8333,72.8333 38.1667,72.1667 39.5,71.5C 40.391,70.8902 41.391,70.5569 42.5,70.5 Z"/></g>
<g><path style="opacity:0.647" fill="#ded8d1" d="M 47.5,72.5 C 48.1667,72.5 48.8333,72.5 49.5,72.5C 50.791,72.2627 51.791,72.596 52.5,73.5C 52.5,73.8333 52.5,74.1667 52.5,74.5C 51.6937,75.8675 50.6937,77.2008 49.5,78.5C 50.325,79.3857 51.325,79.719 52.5,79.5C 52.5,79.8333 52.5,80.1667 52.5,80.5C 51.5,80.5 50.5,80.5 49.5,80.5C 48.2651,78.983 48.2651,77.3163 49.5,75.5C 48.8075,74.4822 48.1408,73.4822 47.5,72.5 Z"/></g>
<g><path style="opacity:1" fill="#5f503f" d="M 53.5,73.5 C 54.9187,72.5489 56.5853,72.2155 58.5,72.5C 58.8333,72.5 59.1667,72.5 59.5,72.5C 59.5,72.8333 59.5,73.1667 59.5,73.5C 59.5,74.1667 59.1667,74.5 58.5,74.5C 57.391,74.5569 56.391,74.8902 55.5,75.5C 55.5,74.1667 54.8333,73.5 53.5,73.5 Z"/></g>
<g><path style="opacity:1" fill="#7c6d5f" d="M 59.5,73.5 C 59.5,73.1667 59.5,72.8333 59.5,72.5C 66.5837,71.8745 73.2504,72.5411 79.5,74.5C 73.8333,74.5 68.1667,74.5 62.5,74.5C 61.791,73.596 60.791,73.2627 59.5,73.5 Z"/></g>
<g><path style="opacity:1" fill="#8b754f" d="M 88.5,70.5 C 89.2223,71.5511 90.2223,72.2178 91.5,72.5C 91.5,72.8333 91.5,73.1667 91.5,73.5C 91.1667,73.5 90.8333,73.5 90.5,73.5C 89.1667,73.5 87.8333,73.5 86.5,73.5C 86.5,72.8333 86.5,72.1667 86.5,71.5C 86.8417,70.6618 87.5084,70.3284 88.5,70.5 Z"/></g>
<g><path style="opacity:0.102" fill="#e1ddd4" d="M 15.5,70.5 C 15.5,70.8333 15.5,71.1667 15.5,71.5C 13.7576,73.769 11.4243,75.1024 8.5,75.5C 8.5,75.1667 8.5,74.8333 8.5,74.5C 8.5,74.1667 8.5,73.8333 8.5,73.5C 10.153,73.3404 11.4863,72.6737 12.5,71.5C 13.391,70.8902 14.391,70.5569 15.5,70.5 Z"/></g>
<g><path style="opacity:1" fill="#b9aa8a" d="M 86.5,73.5 C 87.8333,73.5 89.1667,73.5 90.5,73.5C 90.5,73.8333 90.5,74.1667 90.5,74.5C 88.1667,74.5 85.8333,74.5 83.5,74.5C 82.7375,73.7321 81.7375,73.2321 80.5,73C 82.5976,72.3224 84.5976,72.4891 86.5,73.5 Z"/></g>
<g><path style="opacity:0.686" fill="#dbd2c4" d="M 96.5,72.5 C 97.1667,72.5 97.8333,72.5 98.5,72.5C 98.8333,72.5 99.1667,72.5 99.5,72.5C 98.5,73.1667 97.5,73.8333 96.5,74.5C 95.8333,74.5 95.1667,74.5 94.5,74.5C 93.1667,74.5 91.8333,74.5 90.5,74.5C 90.5,74.1667 90.5,73.8333 90.5,73.5C 90.8333,73.5 91.1667,73.5 91.5,73.5C 93.2161,73.3713 94.8828,73.038 96.5,72.5 Z"/></g>
<g><path style="opacity:0.275" fill="#f4f0e5" d="M 99.5,72.5 C 100.5,72.5 101.5,72.5 102.5,72.5C 103.5,72.5 104.5,72.5 105.5,72.5C 102.781,73.913 99.7814,74.5797 96.5,74.5C 97.5,73.8333 98.5,73.1667 99.5,72.5 Z"/></g>
<g><path style="opacity:0.02" fill="#efe5df" d="M 35.5,74.5 C 36.1667,74.5 36.8333,74.5 37.5,74.5C 36.2318,76.047 34.5652,77.047 32.5,77.5C 31.8333,77.5 31.1667,77.5 30.5,77.5C 30.5,77.1667 30.5,76.8333 30.5,76.5C 32.0495,75.5592 33.7162,74.8925 35.5,74.5 Z"/></g>
<g><path style="opacity:0.237" fill="#cbbbb4" d="M 3.5,63.5 C 3.83333,63.5 4.16667,63.5 4.5,63.5C 4.5,66.1667 4.5,68.8333 4.5,71.5C 4.12997,75.1859 5.4633,76.1859 8.5,74.5C 8.5,74.8333 8.5,75.1667 8.5,75.5C 7.08134,76.4511 5.41467,76.7845 3.5,76.5C 3.5,73.1667 3.5,69.8333 3.5,66.5C 3.5,65.5 3.5,64.5 3.5,63.5 Z"/></g>
<g><path style="opacity:1" fill="#856e61" d="M 32.5,72.5 C 32.8333,72.5 33.1667,72.5 33.5,72.5C 33.8417,73.3382 34.5084,73.6716 35.5,73.5C 35.5,73.8333 35.5,74.1667 35.5,74.5C 33.7162,74.8925 32.0495,75.5592 30.5,76.5C 31.1667,75.1667 31.8333,73.8333 32.5,72.5 Z"/></g>
<g><path style="opacity:1" fill="#6b5a47" d="M 58.5,74.5 C 57.9423,75.7899 56.9423,76.6232 55.5,77C 56.0442,77.7172 56.7109,78.2172 57.5,78.5C 57.5,78.8333 57.5,79.1667 57.5,79.5C 56.8333,79.5 56.1667,79.5 55.5,79.5C 54.1667,78.1667 54.1667,76.8333 55.5,75.5C 56.391,74.8902 57.391,74.5569 58.5,74.5 Z"/></g>
<g><path style="opacity:0.561" fill="#cec8c1" d="M 62.5,74.5 C 68.1667,74.5 73.8333,74.5 79.5,74.5C 80.1667,74.5 80.8333,74.5 81.5,74.5C 77.03,75.4861 72.3633,75.8195 67.5,75.5C 65.9018,75.6097 64.2352,75.943 62.5,76.5C 61.8333,76.5 61.1667,76.5 60.5,76.5C 60.8333,75.5 61.5,74.8333 62.5,74.5 Z"/></g>
<g><path style="opacity:0.163" fill="#f8f5ec" d="M 81.5,74.5 C 82.1667,74.5 82.8333,74.5 83.5,74.5C 85.8333,74.5 88.1667,74.5 90.5,74.5C 91.8333,74.5 93.1667,74.5 94.5,74.5C 89.4195,76.0152 84.0862,76.6818 78.5,76.5C 74.6508,76.4987 70.9841,76.1654 67.5,75.5C 72.3633,75.8195 77.03,75.4861 81.5,74.5 Z"/></g>
<g><path style="opacity:1" fill="#5a4f43" d="M 59.5,73.5 C 60.791,73.2627 61.791,73.596 62.5,74.5C 61.5,74.8333 60.8333,75.5 60.5,76.5C 59.5,77.1667 58.5,77.8333 57.5,78.5C 56.7109,78.2172 56.0442,77.7172 55.5,77C 56.9423,76.6232 57.9423,75.7899 58.5,74.5C 59.1667,74.5 59.5,74.1667 59.5,73.5 Z"/></g>
<g><path style="opacity:0.118" fill="#e2dfda" d="M 60.5,76.5 C 61.1667,76.5 61.8333,76.5 62.5,76.5C 61.1007,77.8897 59.4341,78.8897 57.5,79.5C 57.5,79.1667 57.5,78.8333 57.5,78.5C 58.5,77.8333 59.5,77.1667 60.5,76.5 Z"/></g>
<g><path style="opacity:0.039" fill="#e0dbd2" d="M 25.5,70.5 C 26.4345,71.5676 26.7678,72.901 26.5,74.5C 26.13,78.1859 27.4633,79.1859 30.5,77.5C 31.1667,77.5 31.8333,77.5 32.5,77.5C 31.0883,78.5325 29.4216,79.1992 27.5,79.5C 26.2867,79.2528 25.62,78.5862 25.5,77.5C 25.5,75.1667 25.5,72.8333 25.5,70.5 Z"/></g>
<g><path style="opacity:1" fill="#625145" d="M 52.5,74.5 C 53.0965,75.9354 53.0965,77.602 52.5,79.5C 51.325,79.719 50.325,79.3857 49.5,78.5C 50.6937,77.2008 51.6937,75.8675 52.5,74.5 Z"/></g>
<g><path style="opacity:1" fill="#8e7763" d="M 52.5,74.5 C 52.5,74.1667 52.5,73.8333 52.5,73.5C 52.8333,73.5 53.1667,73.5 53.5,73.5C 54.8333,73.5 55.5,74.1667 55.5,75.5C 54.1667,76.8333 54.1667,78.1667 55.5,79.5C 54.791,80.404 53.791,80.7373 52.5,80.5C 52.5,80.1667 52.5,79.8333 52.5,79.5C 53.0965,77.602 53.0965,75.9354 52.5,74.5 Z"/></g>
<g><path style="opacity:0.031" fill="#ede6de" d="M 55.5,79.5 C 56.1667,79.5 56.8333,79.5 57.5,79.5C 55.1177,82.8618 52.451,83.1951 49.5,80.5C 50.5,80.5 51.5,80.5 52.5,80.5C 53.791,80.7373 54.791,80.404 55.5,79.5 Z"/></g>
</svg>
