<?xml version="1.0" encoding="UTF-8"?>
<!DOCTYPE svg PUBLIC "-//W3C//DTD SVG 1.1//EN" "http://www.w3.org/Graphics/SVG/1.1/DTD/svg11.dtd">
<svg xmlns="http://www.w3.org/2000/svg" version="1.1" width="128px" height="128px" style="shape-rendering:geometricPrecision; text-rendering:geometricPrecision; image-rendering:optimizeQuality; fill-rule:evenodd; clip-rule:evenodd" xmlns:xlink="http://www.w3.org/1999/xlink">
<g><path style="opacity:1" fill="#0c0c0c" d="M 23.5,70.5 C 24.7574,69.3774 24.4241,68.7107 22.5,68.5C 17.7291,70.72 13.0624,73.22 8.5,76C 6.5,76.6667 4.5,76.6667 2.5,76C 2.04265,75.586 1.70931,75.086 1.5,74.5C 3.84407,66.1995 3.84407,57.8661 1.5,49.5C 2.22235,48.4489 3.22235,47.7822 4.5,47.5C 6.30839,47.4914 7.97506,47.9914 9.5,49C 13.6114,52.4712 18.1114,55.3045 23,57.5C 23.9805,54.6682 25.9805,53.0016 29,52.5C 35.6083,54.9302 42.6083,54.9302 50,52.5C 52.7904,49.8876 54.9571,46.8876 56.5,43.5C 58.5273,43.3379 60.5273,43.5045 62.5,44C 66.112,45.947 69.4453,48.2803 72.5,51C 88.3559,50.6948 104.023,53.0281 119.5,58C 121.5,59.3333 123.5,60.6667 125.5,62C 124.542,63.1475 124.875,64.1475 126.5,65C 125.833,66.3333 125.167,67.6667 124.5,69C 120.859,70.2695 117.192,71.4361 113.5,72.5C 112.914,72.2907 112.414,71.9574 112,71.5C 96.1781,76.2318 80.3447,77.5651 64.5,75.5C 60.9002,78.2166 57.0669,80.5499 53,82.5C 48.7036,81.3138 47.3703,78.6471 49,74.5C 44.3559,70.2583 40.1892,70.7583 36.5,76C 33.7251,77.649 30.7251,78.8157 27.5,79.5C 26.3527,79.1822 25.5194,78.5156 25,77.5C 24.7096,75.0796 24.2096,72.7463 23.5,70.5 Z"/></g>
<g><path style="opacity:0.937" fill="#9d9d9d" d="M 4.5,47.5 C 3.22235,47.7822 2.22235,48.4489 1.5,49.5C 1.45969,45.8001 2.45969,45.1335 4.5,47.5 Z"/></g>
<g><path style="opacity:0.008" fill="#f2eee9" d="M 22.5,68.5 C 24.4241,68.7107 24.7574,69.3774 23.5,70.5C 23.1667,69.8333 22.8333,69.1667 22.5,68.5 Z"/></g>
</svg>
