<svg width="224" height="219" viewBox="0 0 224 219" fill="none" xmlns="http://www.w3.org/2000/svg">
<path d="M194 85.1172L195.401 67.2373C195.754 62.7248 196.618 58.2668 197.974 53.9483L203.366 36.7765L196.429 31.813C192.078 28.7 187.286 26.2561 182.211 24.5626V24.5626C174.74 22.0692 166.736 21.2624 158.913 22.1827V22.1827C155.577 22.5752 152.253 23.2815 149.047 24.2851L140 27.1172" stroke="url(#paint0_linear_3_20)" stroke-width="6"/>
<path d="M177.804 131.464L167.503 144.292C157.072 157.281 142.214 165.965 125.777 168.678L121.784 169.337C107.647 171.67 93.1493 168.617 81.1545 160.78V160.78C69.0393 152.865 60.3719 140.654 56.8967 126.606L51.8038 106.019L46.402 125.957C43.6397 136.152 31.0091 139.728 23.3124 132.493V132.493C22.5847 131.809 21.9324 131.05 21.3665 130.227L4.71772 106.019L8.79845 130.462C10.7857 142.365 14.915 153.809 20.986 164.238V164.238C27.7935 175.933 36.9081 186.122 47.7757 194.185L51.3336 196.825C58.6012 202.217 66.6781 206.422 75.2632 209.284V209.284C91.2662 214.618 108.489 215.104 124.767 210.681L128.584 209.644C139.972 206.549 150.712 201.437 160.295 194.549L165.07 191.117C173.484 185.07 180.679 177.487 186.277 168.768V168.768C194.787 155.512 199.312 140.09 199.312 124.337L199.312 118.585C199.312 102.113 195.094 85.9146 187.061 71.5341L186.701 70.8911C180.826 60.3742 172.958 51.1028 163.537 43.5952V43.5952C151.887 34.3115 138.171 27.9711 123.552 25.1108L118.194 24.0625C106.076 21.6916 93.5894 21.9559 81.5825 24.8376L69.9 27.6414C64.9014 28.8411 60.241 31.1614 56.2711 34.427L52.7425 37.3296C40.7402 47.2024 38.6065 64.7607 47.8949 77.2208V77.2208C50.4688 80.6736 53.7764 83.5124 57.5796 85.5329L66.9753 90.5243C78.0254 96.3947 90.3469 99.4645 102.86 99.4645L122.951 99.4645C129.094 99.4645 135.145 100.96 140.581 103.821V103.821C153.017 110.366 160.804 123.41 160.804 137.464V137.464" stroke="url(#paint1_linear_3_20)" stroke-width="8" stroke-linecap="round" stroke-linejoin="round"/>
<circle cx="86.7177" cy="59.519" r="15.5" fill="#2E2B2B"/>
<path d="M87.276 59.519C87.276 68.0794 96.1447 75.019 87.276 75.019C78.4072 75.019 71.2177 68.0794 71.2177 59.519C71.2177 50.9586 78.4072 44.019 87.276 44.019C96.1447 44.019 87.276 50.9586 87.276 59.519Z" fill="url(#paint2_linear_3_20)"/>
<path d="M112.218 35.019V35.019C126.409 48.6647 126.409 71.3733 112.218 85.019V85.019" stroke="url(#paint3_linear_3_20)" stroke-width="8"/>
<defs>
<linearGradient id="paint0_linear_3_20" x1="154.563" y1="13.5586" x2="208.563" y2="71.5586" gradientUnits="userSpaceOnUse">
<stop stop-color="#FB00F0"/>
<stop offset="1" stop-color="#1180FF"/>
</linearGradient>
<linearGradient id="paint1_linear_3_20" x1="104.291" y1="20.5345" x2="101.214" y2="217.486" gradientUnits="userSpaceOnUse">
<stop stop-color="#FB00F0"/>
<stop offset="1" stop-color="#1180FF"/>
</linearGradient>
<linearGradient id="paint2_linear_3_20" x1="81.2177" y1="44.019" x2="81.2177" y2="75.019" gradientUnits="userSpaceOnUse">
<stop stop-color="#FB00F0"/>
<stop offset="1" stop-color="#1180FF"/>
</linearGradient>
<linearGradient id="paint3_linear_3_20" x1="125.218" y1="35.019" x2="125.218" y2="85.019" gradientUnits="userSpaceOnUse">
<stop stop-color="#FB00F0"/>
<stop offset="1" stop-color="#1180FF"/>
</linearGradient>
</defs>
</svg>
