<?xml version="1.0" encoding="UTF-8"?>
<!DOCTYPE svg PUBLIC "-//W3C//DTD SVG 1.1//EN" "http://www.w3.org/Graphics/SVG/1.1/DTD/svg11.dtd">
<svg xmlns="http://www.w3.org/2000/svg" version="1.1" width="128px" height="128px" style="shape-rendering:geometricPrecision; text-rendering:geometricPrecision; image-rendering:optimizeQuality; fill-rule:evenodd; clip-rule:evenodd" xmlns:xlink="http://www.w3.org/1999/xlink">
<g><path style="opacity:0.999" fill="#97989b" d="M 56.5,42.5 C 59.3777,44.1054 62.3777,45.4388 65.5,46.5C 65.6107,47.1174 65.944,47.6174 66.5,48C 71.5544,48.781 76.5544,48.6143 81.5,47.5C 84.1092,48.2305 86.7759,48.7305 89.5,49C 78.6588,49.1696 67.9921,49.6696 57.5,50.5C 55.1667,50.5 52.8333,50.5 50.5,50.5C 49.837,45.8303 51.837,43.1636 56.5,42.5 Z"/></g>
<g><path style="opacity:1" fill="#aeb0b1" d="M 56.5,42.5 C 51.837,43.1636 49.837,45.8303 50.5,50.5C 52.8333,50.5 55.1667,50.5 57.5,50.5C 62.006,50.1482 66.3393,50.8148 70.5,52.5C 77.8651,51.0757 85.1984,51.2424 92.5,53C 91.6634,54.0113 91.33,55.1779 91.5,56.5C 80.8281,56.6665 70.1615,56.4998 59.5,56C 57.0686,54.9478 54.7353,54.7811 52.5,55.5C 50.5,55 48.5,54.5 46.5,54C 48.0557,53.2798 49.0557,52.1132 49.5,50.5C 48.7564,46.8815 48.423,43.2148 48.5,39.5C 51.8306,39.0181 54.4973,40.0181 56.5,42.5 Z"/></g>
<g><path style="opacity:1" fill="#a3a4a7" d="M 65.5,46.5 C 80.6672,45.0922 95.0005,47.7589 108.5,54.5C 107.555,55.9928 106.555,57.4928 105.5,59C 105.645,59.772 105.978,60.4387 106.5,61C 102.775,61.7599 99.1078,61.5932 95.5,60.5C 94.2949,61.5769 93.6282,62.9102 93.5,64.5C 92.596,63.791 92.2627,62.791 92.5,61.5C 93.1386,60.9032 93.472,60.0698 93.5,59C 93.3158,57.6244 92.6491,56.7911 91.5,56.5C 91.33,55.1779 91.6634,54.0113 92.5,53C 85.1984,51.2424 77.8651,51.0757 70.5,52.5C 66.3393,50.8148 62.006,50.1482 57.5,50.5C 67.9921,49.6696 78.6588,49.1696 89.5,49C 86.7759,48.7305 84.1092,48.2305 81.5,47.5C 76.5544,48.6143 71.5544,48.781 66.5,48C 65.944,47.6174 65.6107,47.1174 65.5,46.5 Z"/></g>
<g><path style="opacity:1" fill="#b7b9bc" d="M 49.5,50.5 C 49.0557,52.1132 48.0557,53.2798 46.5,54C 48.5,54.5 50.5,55 52.5,55.5C 54.7353,54.7811 57.0686,54.9478 59.5,56C 70.1615,56.4998 80.8281,56.6665 91.5,56.5C 92.6491,56.7911 93.3158,57.6244 93.5,59C 93.472,60.0698 93.1386,60.9032 92.5,61.5C 92.5,60.5 92.5,59.5 92.5,58.5C 79.4434,57.2778 66.7767,57.2778 54.5,58.5C 49.0335,57.7085 43.3668,57.5419 37.5,58C 38.1667,57.6667 38.8333,57.3333 39.5,57C 37.2922,56.8091 35.2922,56.3091 33.5,55.5C 38.9661,54.2334 44.2995,52.5667 49.5,50.5 Z"/></g>
<g><path style="opacity:1" fill="#b3b5b9" d="M 31.5,55.5 C 31.0458,58.6069 31.0458,61.6069 31.5,64.5C 29.1979,65.8217 26.8646,65.8217 24.5,64.5C 23.8133,66.2744 22.9799,67.9411 22,69.5C 21.6758,67.4311 20.8425,67.0977 19.5,68.5C 16.9722,67.5022 16.9722,66.6689 19.5,66C 16.8333,65.3333 16.8333,64.6667 19.5,64C 16.8333,63.3333 16.8333,62.6667 19.5,62C 18.6634,60.9887 18.33,59.8221 18.5,58.5C 17.0222,58.762 15.6888,58.4287 14.5,57.5C 14.1207,55.7869 13.1207,54.7869 11.5,54.5C 10.5448,52.2543 9.87816,49.921 9.5,47.5C 10.8734,47.3433 12.2068,47.51 13.5,48C 16.9974,50.583 20.6641,52.9164 24.5,55C 26.8098,55.4966 29.1432,55.6633 31.5,55.5 Z"/></g>
<g><path style="opacity:1" fill="#c3c5ca" d="M 31.5,55.5 C 32.1667,55.5 32.8333,55.5 33.5,55.5C 35.2922,56.3091 37.2922,56.8091 39.5,57C 38.8333,57.3333 38.1667,57.6667 37.5,58C 43.3668,57.5419 49.0335,57.7085 54.5,58.5C 60.7129,60.018 67.0463,60.8513 73.5,61C 72.062,61.2189 70.7287,61.7189 69.5,62.5C 69.6667,62.8333 69.8333,63.1667 70,63.5C 75.0717,62.5286 80.2384,62.1953 85.5,62.5C 85.38,63.5862 84.7133,64.2528 83.5,64.5C 79.029,63.546 74.529,63.546 70,64.5C 63.1904,62.2145 56.3571,62.2145 49.5,64.5C 43.5,64.5 37.5,64.5 31.5,64.5C 31.0458,61.6069 31.0458,58.6069 31.5,55.5 Z"/></g>
<g><path style="opacity:1" fill="#bdbec2" d="M 54.5,58.5 C 66.7767,57.2778 79.4434,57.2778 92.5,58.5C 92.5,59.5 92.5,60.5 92.5,61.5C 89.9407,61.1984 87.6074,61.5318 85.5,62.5C 80.2384,62.1953 75.0717,62.5286 70,63.5C 69.8333,63.1667 69.6667,62.8333 69.5,62.5C 70.7287,61.7189 72.062,61.2189 73.5,61C 67.0463,60.8513 60.7129,60.018 54.5,58.5 Z"/></g>
<g><path style="opacity:1" fill="#b1b3b6" d="M 108.5,54.5 C 110.781,55.6082 112.948,56.9415 115,58.5C 116.153,61.8482 114.986,63.8482 111.5,64.5C 108.056,65.5911 104.556,66.5911 101,67.5C 98.2915,66.8914 95.7915,65.8914 93.5,64.5C 93.6282,62.9102 94.2949,61.5769 95.5,60.5C 99.1078,61.5932 102.775,61.7599 106.5,61C 105.978,60.4387 105.645,59.772 105.5,59C 106.555,57.4928 107.555,55.9928 108.5,54.5 Z"/></g>
<g><path style="opacity:1" fill="#404344" d="M 107.5,58.5 C 110.001,58.5109 110.168,59.1776 108,60.5C 107.536,59.9056 107.369,59.2389 107.5,58.5 Z"/></g>
<g><path style="opacity:1" fill="#b7babe" d="M 92.5,61.5 C 92.2627,62.791 92.596,63.791 93.5,64.5C 91.8185,66.0075 89.8185,67.0075 87.5,67.5C 74.6033,67.5323 61.9367,66.5323 49.5,64.5C 56.3571,62.2145 63.1904,62.2145 70,64.5C 74.529,63.546 79.029,63.546 83.5,64.5C 84.7133,64.2528 85.38,63.5862 85.5,62.5C 87.6074,61.5318 89.9407,61.1984 92.5,61.5 Z"/></g>
<g><path style="opacity:1" fill="#bec0c5" d="M 11.5,54.5 C 13.1207,54.7869 14.1207,55.7869 14.5,57.5C 15.6888,58.4287 17.0222,58.762 18.5,58.5C 18.33,59.8221 18.6634,60.9887 19.5,62C 16.8333,62.6667 16.8333,63.3333 19.5,64C 16.8333,64.6667 16.8333,65.3333 19.5,66C 16.9722,66.6689 16.9722,67.5022 19.5,68.5C 20.8425,67.0977 21.6758,67.4311 22,69.5C 22.9799,67.9411 23.8133,66.2744 24.5,64.5C 26.8646,65.8217 29.1979,65.8217 31.5,64.5C 37.5,64.5 43.5,64.5 49.5,64.5C 61.9367,66.5323 74.6033,67.5323 87.5,67.5C 84.094,69.109 80.4273,70.2756 76.5,71C 64.7874,71.791 53.1207,71.6244 41.5,70.5C 38.1353,69.9604 34.802,69.2937 31.5,68.5C 29.1432,68.3367 26.8098,68.5034 24.5,69C 22.658,71.5429 20.4913,73.7096 18,75.5C 15.7969,73.3312 14.9635,70.6646 15.5,67.5C 15.3712,62.7813 14.0379,58.448 11.5,54.5 Z"/></g>
<g><path style="opacity:0.985" fill="#e6e0d6" d="M 93.5,64.5 C 95.7915,65.8914 98.2915,66.8914 101,67.5C 104.556,66.5911 108.056,65.5911 111.5,64.5C 105.604,69.0287 98.9375,72.0287 91.5,73.5C 93.4376,71.8063 93.7709,69.8063 92.5,67.5C 89.1036,69.0686 86.6036,71.4019 85,74.5C 76.8697,73.3788 68.703,73.2121 60.5,74C 61.056,74.3826 61.3893,74.8826 61.5,75.5C 58.5917,74.3083 55.5917,73.3083 52.5,72.5C 50.3643,73.4228 49.1976,75.0895 49,77.5C 46.7328,78.9348 44.7328,78.6015 43,76.5C 42.6847,74.4144 42.1847,72.4144 41.5,70.5C 53.1207,71.6244 64.7874,71.791 76.5,71C 80.4273,70.2756 84.094,69.109 87.5,67.5C 89.8185,67.0075 91.8185,66.0075 93.5,64.5 Z"/></g>
<g><path style="opacity:1" fill="#cfd2d6" d="M 15.5,67.5 C 14.9635,70.6646 15.7969,73.3312 18,75.5C 20.4913,73.7096 22.658,71.5429 24.5,69C 26.8098,68.5034 29.1432,68.3367 31.5,68.5C 29.6115,69.322 27.6115,70.1553 25.5,71C 21.9128,77.2858 16.5795,80.7858 9.5,81.5C 10.412,76.3452 12.412,71.6785 15.5,67.5 Z"/></g>
<g><path style="opacity:0.942" fill="#e5dbcc" d="M 91.5,73.5 C 89.5242,75.0109 87.1909,75.8442 84.5,76C 80.5138,76.4988 76.5138,76.6655 72.5,76.5C 74.1834,83.6891 71.5167,86.5224 64.5,85C 60.9899,82.5104 59.9899,79.3438 61.5,75.5C 61.3893,74.8826 61.056,74.3826 60.5,74C 68.703,73.2121 76.8697,73.3788 85,74.5C 86.6036,71.4019 89.1036,69.0686 92.5,67.5C 93.7709,69.8063 93.4376,71.8063 91.5,73.5 Z"/></g>
</svg>
