<?xml version="1.0" encoding="UTF-8"?>
<!DOCTYPE svg PUBLIC "-//W3C//DTD SVG 1.1//EN" "http://www.w3.org/Graphics/SVG/1.1/DTD/svg11.dtd">
<svg xmlns="http://www.w3.org/2000/svg" version="1.1" width="128px" height="128px" style="shape-rendering:geometricPrecision; text-rendering:geometricPrecision; image-rendering:optimizeQuality; fill-rule:evenodd; clip-rule:evenodd" xmlns:xlink="http://www.w3.org/1999/xlink">
<g><path style="opacity:1" fill="#070707" d="M 48.5,39.5 C 50.1992,39.3398 51.8659,39.5065 53.5,40C 56.5017,42.503 59.8351,44.503 63.5,46C 82.19,44.2806 99.3567,48.4473 115,58.5C 115.72,60.1124 115.554,61.6124 114.5,63C 101.875,71.8146 87.8745,76.3146 72.5,76.5C 74.1834,83.6891 71.5167,86.5224 64.5,85C 61.144,82.6531 60.144,79.6531 61.5,76C 58.062,73.5632 54.3953,72.7299 50.5,73.5C 50.2879,77.5577 48.2879,79.0577 44.5,78C 43.009,75.9031 42.009,73.5697 41.5,71C 36.0608,68.2336 30.7275,68.2336 25.5,71C 21.9128,77.2858 16.5795,80.7858 9.5,81.5C 9.74923,77.3863 11.2492,73.7197 14,70.5C 14.704,68.7216 15.204,66.8882 15.5,65C 13.3473,59.2 11.3473,53.3667 9.5,47.5C 10.8734,47.3433 12.2068,47.51 13.5,48C 24.3883,57.1404 36.055,57.9737 48.5,50.5C 48.7825,46.9631 48.7825,43.2964 48.5,39.5 Z"/></g>
</svg>
