<?xml version="1.0" encoding="UTF-8"?>
<!DOCTYPE svg PUBLIC "-//W3C//DTD SVG 1.1//EN" "http://www.w3.org/Graphics/SVG/1.1/DTD/svg11.dtd">
<svg xmlns="http://www.w3.org/2000/svg" version="1.1" width="128px" height="128px" style="shape-rendering:geometricPrecision; text-rendering:geometricPrecision; image-rendering:optimizeQuality; fill-rule:evenodd; clip-rule:evenodd" xmlns:xlink="http://www.w3.org/1999/xlink">
<g><path style="opacity:0.051" fill="#31332a" d="M 82.5,37.5 C 78.6163,37.4238 74.9496,38.0905 71.5,39.5C 73.7693,37.6163 76.436,36.283 79.5,35.5C 81.0377,35.4534 82.0377,36.1201 82.5,37.5 Z"/></g>
<g><path style="opacity:0.325" fill="#41443a" d="M 83.5,37.5 C 85.3797,37.2291 86.713,37.8958 87.5,39.5C 86.1667,39.5 84.8333,39.5 83.5,39.5C 83.5,38.8333 83.5,38.1667 83.5,37.5 Z"/></g>
<g><path style="opacity:0.988" fill="#bbbd9e" d="M 82.5,37.5 C 82.8333,37.5 83.1667,37.5 83.5,37.5C 83.5,38.1667 83.5,38.8333 83.5,39.5C 83.5,39.8333 83.5,40.1667 83.5,40.5C 81.076,40.1924 78.7427,40.5258 76.5,41.5C 80.374,43.0025 80.0407,43.6691 75.5,43.5C 75.5299,42.5028 75.0299,41.8361 74,41.5C 72.8615,41.9891 71.6948,42.3225 70.5,42.5C 70.5,41.5 70.5,40.5 70.5,39.5C 70.8333,39.5 71.1667,39.5 71.5,39.5C 74.9496,38.0905 78.6163,37.4238 82.5,37.5 Z"/></g>
<g><path style="opacity:0.09" fill="#3b3f33" d="M 70.5,39.5 C 70.5,40.5 70.5,41.5 70.5,42.5C 67.3004,43.0435 64.9671,44.7102 63.5,47.5C 62.5,47.5 61.5,47.5 60.5,47.5C 63.5203,44.4838 66.8536,41.8171 70.5,39.5 Z"/></g>
<g><path style="opacity:0.016" fill="#1d241b" d="M 88.5,39.5 C 89.9063,39.9731 90.573,40.9731 90.5,42.5C 88.9519,42.1788 88.2852,41.1788 88.5,39.5 Z"/></g>
<g><path style="opacity:0.996" fill="#ced1ab" d="M 83.5,40.5 C 84.8333,40.5 86.1667,40.5 87.5,40.5C 88.449,42.7373 89.1156,45.0706 89.5,47.5C 88.5,47.5 87.5,47.5 86.5,47.5C 86.0269,46.0937 85.0269,45.427 83.5,45.5C 82.3784,44.8442 81.0451,44.5108 79.5,44.5C 76.8016,45.1914 74.135,45.8581 71.5,46.5C 72.9264,45.6588 74.2597,44.6588 75.5,43.5C 80.0407,43.6691 80.374,43.0025 76.5,41.5C 78.7427,40.5258 81.076,40.1924 83.5,40.5 Z"/></g>
<g><path style="opacity:0.006" fill="#5e6153" d="M 55.5,46.5 C 55.0618,46.4346 54.7284,46.6012 54.5,47C 55.756,47.4169 56.4226,48.2502 56.5,49.5C 53.418,47.819 50.0847,47.1524 46.5,47.5C 46.6107,46.8826 46.944,46.3826 47.5,46C 50.367,45.1993 53.0336,45.3659 55.5,46.5 Z"/></g>
<g><path style="opacity:0.997" fill="#d6d8b4" d="M 75.5,43.5 C 74.2597,44.6588 72.9264,45.6588 71.5,46.5C 69.5956,46.7376 68.2623,47.7376 67.5,49.5C 63.5443,48.9473 63.5443,48.1139 67.5,47C 68.8825,45.7292 69.8825,44.2292 70.5,42.5C 71.6948,42.3225 72.8615,41.9891 74,41.5C 75.0299,41.8361 75.5299,42.5028 75.5,43.5 Z"/></g>
<g><path style="opacity:1" fill="#8e955a" d="M 83.5,45.5 C 85.0269,45.427 86.0269,46.0937 86.5,47.5C 86.5,47.8333 86.5,48.1667 86.5,48.5C 85.5,48.5 84.5,48.5 83.5,48.5C 81.5497,46.2472 79.2163,45.9139 76.5,47.5C 78.2789,45.6565 80.6122,44.9898 83.5,45.5 Z"/></g>
<g><path style="opacity:1" fill="#acb186" d="M 83.5,45.5 C 80.6122,44.9898 78.2789,45.6565 76.5,47.5C 74.1667,48.1667 71.8333,48.8333 69.5,49.5C 68.8333,49.5 68.1667,49.5 67.5,49.5C 68.2623,47.7376 69.5956,46.7376 71.5,46.5C 74.135,45.8581 76.8016,45.1914 79.5,44.5C 81.0451,44.5108 82.3784,44.8442 83.5,45.5 Z"/></g>
<g><path style="opacity:1" fill="#666e3d" d="M 83.5,48.5 C 81.2646,48.2053 79.2646,48.5386 77.5,49.5C 74.7212,49.2786 72.0545,49.612 69.5,50.5C 69.5,50.1667 69.5,49.8333 69.5,49.5C 71.8333,48.8333 74.1667,48.1667 76.5,47.5C 79.2163,45.9139 81.5497,46.2472 83.5,48.5 Z"/></g>
<g><path style="opacity:0.773" fill="#8f9374" d="M 83.5,40.5 C 83.5,40.1667 83.5,39.8333 83.5,39.5C 84.8333,39.5 86.1667,39.5 87.5,39.5C 87.8333,39.5 88.1667,39.5 88.5,39.5C 88.2852,41.1788 88.9519,42.1788 90.5,42.5C 90.8333,43.1667 91.1667,43.8333 91.5,44.5C 92.038,46.1172 92.3713,47.7839 92.5,49.5C 90.3792,49.6747 88.3792,49.3414 86.5,48.5C 86.5,48.1667 86.5,47.8333 86.5,47.5C 87.5,47.5 88.5,47.5 89.5,47.5C 89.1156,45.0706 88.449,42.7373 87.5,40.5C 86.1667,40.5 84.8333,40.5 83.5,40.5 Z"/></g>
<g><path style="opacity:0.875" fill="#a4a68b" d="M 45.5,47.5 C 45.8333,47.5 46.1667,47.5 46.5,47.5C 50.0847,47.1524 53.418,47.819 56.5,49.5C 56.5,49.8333 56.5,50.1667 56.5,50.5C 55.5,50.5 54.5,50.5 53.5,50.5C 51.0635,48.5606 48.3968,48.2272 45.5,49.5C 45.5,48.8333 45.5,48.1667 45.5,47.5 Z"/></g>
<g><path style="opacity:0.341" fill="#272923" d="M 55.5,46.5 C 57.153,46.6596 58.4863,47.3263 59.5,48.5C 58.391,48.5569 57.391,48.8902 56.5,49.5C 56.4226,48.2502 55.756,47.4169 54.5,47C 54.7284,46.6012 55.0618,46.4346 55.5,46.5 Z"/></g>
<g><path style="opacity:0.941" fill="#a1a486" d="M 70.5,42.5 C 69.8825,44.2292 68.8825,45.7292 67.5,47C 63.5443,48.1139 63.5443,48.9473 67.5,49.5C 68.1667,49.5 68.8333,49.5 69.5,49.5C 69.5,49.8333 69.5,50.1667 69.5,50.5C 66.8333,50.8333 64.1667,51.1667 61.5,51.5C 61.5271,49.8007 62.1938,48.4674 63.5,47.5C 64.9671,44.7102 67.3004,43.0435 70.5,42.5 Z"/></g>
<g><path style="opacity:0.067" fill="#4a4e41" d="M 13.5,50.5 C 11.1667,50.5 8.83333,50.5 6.5,50.5C 7.31212,49.0069 8.64545,48.3402 10.5,48.5C 12.0296,48.6399 13.0296,49.3065 13.5,50.5 Z"/></g>
<g><path style="opacity:1" fill="#373f22" d="M 77.5,49.5 C 80.3854,49.1936 83.0521,49.5269 85.5,50.5C 81.2984,50.1832 77.2984,50.5166 73.5,51.5C 72.1667,51.5 70.8333,51.5 69.5,51.5C 69.5,51.1667 69.5,50.8333 69.5,50.5C 72.0545,49.612 74.7212,49.2786 77.5,49.5 Z"/></g>
<g><path style="opacity:1" fill="#576034" d="M 77.5,49.5 C 79.2646,48.5386 81.2646,48.2053 83.5,48.5C 84.5,48.5 85.5,48.5 86.5,48.5C 88.3792,49.3414 90.3792,49.6747 92.5,49.5C 90.7354,50.4614 88.7354,50.7947 86.5,50.5C 86.1667,50.5 85.8333,50.5 85.5,50.5C 83.0521,49.5269 80.3854,49.1936 77.5,49.5 Z"/></g>
<g><path style="opacity:0.682" fill="#565738" d="M 60.5,47.5 C 61.5,47.5 62.5,47.5 63.5,47.5C 62.1938,48.4674 61.5271,49.8007 61.5,51.5C 64.1667,51.1667 66.8333,50.8333 69.5,50.5C 69.5,50.8333 69.5,51.1667 69.5,51.5C 68.0413,51.4326 66.7079,51.7659 65.5,52.5C 62.7628,52.4013 60.0961,52.7347 57.5,53.5C 58.8146,52.1054 58.4812,51.1054 56.5,50.5C 56.5,50.1667 56.5,49.8333 56.5,49.5C 57.391,48.8902 58.391,48.5569 59.5,48.5C 60.1667,48.5 60.5,48.1667 60.5,47.5 Z"/></g>
<g><path style="opacity:1" fill="#232c17" d="M 73.5,51.5 C 77.2984,50.5166 81.2984,50.1832 85.5,50.5C 85.8333,50.5 86.1667,50.5 86.5,50.5C 86.5,50.8333 86.5,51.1667 86.5,51.5C 84.901,51.2322 83.5676,51.5655 82.5,52.5C 82.1667,52.5 81.8333,52.5 81.5,52.5C 79.8333,52.5 78.1667,52.5 76.5,52.5C 75.791,51.596 74.791,51.2627 73.5,51.5 Z"/></g>
<g><path style="opacity:0.8" fill="#29311e" d="M 91.5,44.5 C 93.5158,46.249 95.1825,48.249 96.5,50.5C 97.2593,52.4308 98.5926,53.9308 100.5,55C 98.8853,55.0622 97.5519,55.2289 96.5,55.5C 95.8333,55.1667 95.1667,54.8333 94.5,54.5C 94.3893,53.8826 94.056,53.3826 93.5,53C 91.5273,52.5045 89.5273,52.3379 87.5,52.5C 87.5,51.8333 87.1667,51.5 86.5,51.5C 86.5,51.1667 86.5,50.8333 86.5,50.5C 88.7354,50.7947 90.7354,50.4614 92.5,49.5C 92.3713,47.7839 92.038,46.1172 91.5,44.5 Z"/></g>
<g><path style="opacity:0.124" fill="#181f13" d="M 14.5,50.5 C 18.9757,51.6571 22.6423,53.9905 25.5,57.5C 25.1667,57.5 24.8333,57.5 24.5,57.5C 21.5536,56.5112 18.8869,55.1779 16.5,53.5C 15.4489,52.7777 14.7822,51.7777 14.5,50.5 Z"/></g>
<g><path style="opacity:1" fill="#949250" d="M 53.5,50.5 C 54.5,50.5 55.5,50.5 56.5,50.5C 58.4812,51.1054 58.8146,52.1054 57.5,53.5C 56.5,53.5 55.5,53.5 54.5,53.5C 52.4352,53.5172 50.4352,53.8505 48.5,54.5C 48.5,54.1667 48.5,53.8333 48.5,53.5C 50.3325,52.7515 51.9991,51.7515 53.5,50.5 Z"/></g>
<g><path style="opacity:1" fill="#1c2614" d="M 69.5,51.5 C 70.8333,51.5 72.1667,51.5 73.5,51.5C 72.8333,52.8333 72.1667,54.1667 71.5,55.5C 70.8333,55.1667 70.1667,54.8333 69.5,54.5C 68.1667,53.8333 66.8333,53.1667 65.5,52.5C 66.7079,51.7659 68.0413,51.4326 69.5,51.5 Z"/></g>
<g><path style="opacity:1" fill="#1d2715" d="M 73.5,51.5 C 74.791,51.2627 75.791,51.596 76.5,52.5C 76.5,53.5 76.5,54.5 76.5,55.5C 75.129,57.936 74.129,60.6027 73.5,63.5C 71.631,61.3647 70.9644,58.6981 71.5,55.5C 72.1667,54.1667 72.8333,52.8333 73.5,51.5 Z"/></g>
<g><path style="opacity:0.98" fill="#caccaa" d="M 53.5,50.5 C 51.9991,51.7515 50.3325,52.7515 48.5,53.5C 43.9624,55.2401 42.629,53.9067 44.5,49.5C 44.8333,49.5 45.1667,49.5 45.5,49.5C 48.3968,48.2272 51.0635,48.5606 53.5,50.5 Z"/></g>
<g><path style="opacity:1" fill="#2e351b" d="M 65.5,52.5 C 66.8333,53.1667 68.1667,53.8333 69.5,54.5C 67.901,54.2322 66.5676,54.5655 65.5,55.5C 64.5416,55.9528 63.7083,56.6195 63,57.5C 62.6667,62.1667 62.3333,66.8333 62,71.5C 61.7679,70.2625 61.2679,69.2625 60.5,68.5C 60.5,65.8333 60.5,63.1667 60.5,60.5C 61.0387,57.9584 62.372,55.7918 64.5,54C 61.1996,54.0455 57.8663,54.2122 54.5,54.5C 54.5,54.1667 54.5,53.8333 54.5,53.5C 55.5,53.5 56.5,53.5 57.5,53.5C 60.0961,52.7347 62.7628,52.4013 65.5,52.5 Z"/></g>
<g><path style="opacity:1" fill="#4b5329" d="M 76.5,52.5 C 78.1667,52.5 79.8333,52.5 81.5,52.5C 83.8333,56.5718 85.1666,60.9051 85.5,65.5C 85.5,65.8333 85.5,66.1667 85.5,66.5C 84.8333,66.5 84.1667,66.5 83.5,66.5C 83.6641,63.8127 83.4974,61.146 83,58.5C 82.7216,57.5842 82.2216,56.9175 81.5,56.5C 80.0813,55.5489 78.4147,55.2155 76.5,55.5C 76.5,54.5 76.5,53.5 76.5,52.5 Z"/></g>
<g><path style="opacity:1" fill="#162013" d="M 82.5,52.5 C 83.5676,51.5655 84.901,51.2322 86.5,51.5C 87.1667,51.5 87.5,51.8333 87.5,52.5C 87.8039,53.1499 88.1373,53.8165 88.5,54.5C 90.3381,55.1887 92.0048,55.5221 93.5,55.5C 91.7086,56.1698 90.0419,56.8365 88.5,57.5C 88.5,57.8333 88.5,58.1667 88.5,58.5C 87.0937,58.9731 86.427,59.9731 86.5,61.5C 86.0973,58.0937 84.764,55.0937 82.5,52.5 Z"/></g>
<g><path style="opacity:0.153" fill="#1b2515" d="M 96.5,50.5 C 100.57,51.5242 103.904,53.5242 106.5,56.5C 105.5,56.5 104.5,56.5 103.5,56.5C 103.5,57.5 103.5,58.5 103.5,59.5C 101.902,56.5152 99.5682,55.8486 96.5,57.5C 96.5,56.8333 96.5,56.1667 96.5,55.5C 97.5519,55.2289 98.8853,55.0622 100.5,55C 98.5926,53.9308 97.2593,52.4308 96.5,50.5 Z"/></g>
<g><path style="opacity:0.61" fill="#9b9e82" d="M 44.5,49.5 C 42.629,53.9067 43.9624,55.2401 48.5,53.5C 48.5,53.8333 48.5,54.1667 48.5,54.5C 48.5,55.1667 48.5,55.8333 48.5,56.5C 42.6554,56.4697 41.3221,54.1364 44.5,49.5 Z"/></g>
<g><path style="opacity:1" fill="#1a2314" d="M 60.5,60.5 C 60.1322,56.7987 58.1322,54.7987 54.5,54.5C 57.8663,54.2122 61.1996,54.0455 64.5,54C 62.372,55.7918 61.0387,57.9584 60.5,60.5 Z"/></g>
<g><path style="opacity:1" fill="#434a25" d="M 65.5,55.5 C 66.5676,54.5655 67.901,54.2322 69.5,54.5C 70.1667,54.8333 70.8333,55.1667 71.5,55.5C 70.9644,58.6981 71.631,61.3647 73.5,63.5C 73.1583,64.3382 72.4916,64.6716 71.5,64.5C 71.1667,64.5 70.8333,64.5 70.5,64.5C 70.5,62.5 70.5,60.5 70.5,58.5C 69.9517,55.9162 68.285,54.9162 65.5,55.5 Z"/></g>
<g><path style="opacity:1" fill="#192414" d="M 87.5,52.5 C 89.5273,52.3379 91.5273,52.5045 93.5,53C 94.056,53.3826 94.3893,53.8826 94.5,54.5C 94.5,55.5 94.5,56.5 94.5,57.5C 92.5,57.5 90.5,57.5 88.5,57.5C 90.0419,56.8365 91.7086,56.1698 93.5,55.5C 92.0048,55.5221 90.3381,55.1887 88.5,54.5C 88.1373,53.8165 87.8039,53.1499 87.5,52.5 Z"/></g>
<g><path style="opacity:1" fill="#454c26" d="M 54.5,53.5 C 54.5,53.8333 54.5,54.1667 54.5,54.5C 58.1322,54.7987 60.1322,56.7987 60.5,60.5C 58.4291,57.4877 55.7624,56.821 52.5,58.5C 52.1667,59.1667 51.8333,59.8333 51.5,60.5C 50.8333,60.8333 50.1667,61.1667 49.5,61.5C 49.7031,59.9557 50.3698,58.6223 51.5,57.5C 50.675,56.6143 49.675,56.281 48.5,56.5C 48.5,55.8333 48.5,55.1667 48.5,54.5C 50.4352,53.8505 52.4352,53.5172 54.5,53.5 Z"/></g>
<g><path style="opacity:0.471" fill="#383d2c" d="M 45.5,47.5 C 45.5,48.1667 45.5,48.8333 45.5,49.5C 45.1667,49.5 44.8333,49.5 44.5,49.5C 41.3221,54.1364 42.6554,56.4697 48.5,56.5C 47.5,57.1667 46.5,57.8333 45.5,58.5C 43.5,57.8333 41.5,57.1667 39.5,56.5C 39.3771,51.9825 41.3771,48.9825 45.5,47.5 Z"/></g>
<g><path style="opacity:1" fill="#778038" d="M 81.5,56.5 C 82.2216,56.9175 82.7216,57.5842 83,58.5C 83.4974,61.146 83.6641,63.8127 83.5,66.5C 83.5,67.1667 83.1667,67.5 82.5,67.5C 82.5,67.1667 82.5,66.8333 82.5,66.5C 82.7947,64.2646 82.4614,62.2646 81.5,60.5C 81.5,59.5 81.5,58.5 81.5,57.5C 79.4862,57.3915 77.8195,58.0582 76.5,59.5C 77.0483,56.9162 78.715,55.9162 81.5,56.5 Z"/></g>
<g><path style="opacity:0.998" fill="#172213" d="M 103.5,59.5 C 102.5,60.1667 101.5,60.8333 100.5,61.5C 98.8333,60.8333 97.1667,60.1667 95.5,59.5C 95.8333,58.8333 96.1667,58.1667 96.5,57.5C 99.5682,55.8486 101.902,56.5152 103.5,59.5 Z"/></g>
<g><path style="opacity:0.016" fill="#757763" d="M 6.5,50.5 C 8.83333,50.5 11.1667,50.5 13.5,50.5C 13.8333,50.5 14.1667,50.5 14.5,50.5C 14.7822,51.7777 15.4489,52.7777 16.5,53.5C 16.5,53.8333 16.5,54.1667 16.5,54.5C 15.391,54.4431 14.391,54.1098 13.5,53.5C 12.3646,51.7868 10.698,51.1201 8.5,51.5C 8.02164,55.3375 9.02164,58.6709 11.5,61.5C 11.8333,62.8333 12.1667,64.1667 12.5,65.5C 7.78493,61.707 5.78493,56.707 6.5,50.5 Z"/></g>
<g><path style="opacity:0.668" fill="#363e1f" d="M 24.5,57.5 C 24.8333,57.5 25.1667,57.5 25.5,57.5C 28.5,57.5 31.5,57.5 34.5,57.5C 34.8212,59.0481 35.8212,59.7148 37.5,59.5C 37.5,60.5 37.5,61.5 37.5,62.5C 33.812,60.7531 30.6453,61.4198 28,64.5C 25.1705,58.8413 24.0038,59.1746 24.5,65.5C 24.5,66.1667 24.1667,66.5 23.5,66.5C 23.2641,63.3915 23.5975,60.3915 24.5,57.5 Z"/></g>
<g><path style="opacity:1" fill="#687133" d="M 52.5,58.5 C 55.7624,56.821 58.4291,57.4877 60.5,60.5C 60.5,63.1667 60.5,65.8333 60.5,68.5C 59.8333,67.1667 59.1667,65.8333 58.5,64.5C 59.1679,59.8394 57.1679,57.8394 52.5,58.5 Z"/></g>
<g><path style="opacity:1" fill="#59602d" d="M 65.5,55.5 C 68.285,54.9162 69.9517,55.9162 70.5,58.5C 67.7752,55.5301 65.7752,55.8634 64.5,59.5C 63.5701,63.3998 63.2367,67.3998 63.5,71.5C 62.0527,72.8852 61.0527,72.5518 60.5,70.5C 60.5,69.8333 60.5,69.1667 60.5,68.5C 61.2679,69.2625 61.7679,70.2625 62,71.5C 62.3333,66.8333 62.6667,62.1667 63,57.5C 63.7083,56.6195 64.5416,55.9528 65.5,55.5 Z"/></g>
<g><path style="opacity:1" fill="#242d18" d="M 94.5,54.5 C 95.1667,54.8333 95.8333,55.1667 96.5,55.5C 96.5,56.1667 96.5,56.8333 96.5,57.5C 96.1667,58.1667 95.8333,58.8333 95.5,59.5C 93.139,59.3259 90.8056,58.9926 88.5,58.5C 88.5,58.1667 88.5,57.8333 88.5,57.5C 90.5,57.5 92.5,57.5 94.5,57.5C 94.5,56.5 94.5,55.5 94.5,54.5 Z"/></g>
<g><path style="opacity:0.714" fill="#c1c2a1" d="M 13.5,53.5 C 12.4168,53.4606 11.4168,53.1272 10.5,52.5C 10.1667,53.1667 9.83333,53.8333 9.5,54.5C 10.7674,56.7033 11.7674,59.0367 12.5,61.5C 12.1667,61.5 11.8333,61.5 11.5,61.5C 9.02164,58.6709 8.02164,55.3375 8.5,51.5C 10.698,51.1201 12.3646,51.7868 13.5,53.5 Z"/></g>
<g><path style="opacity:0.997" fill="#edeec6" d="M 13.5,53.5 C 13.643,56.3852 14.643,58.7185 16.5,60.5C 16.5,61.5 16.5,62.5 16.5,63.5C 15.5,63.5 14.5,63.5 13.5,63.5C 13.1667,62.8333 12.8333,62.1667 12.5,61.5C 11.7674,59.0367 10.7674,56.7033 9.5,54.5C 9.83333,53.8333 10.1667,53.1667 10.5,52.5C 11.4168,53.1272 12.4168,53.4606 13.5,53.5 Z"/></g>
<g><path style="opacity:0.85" fill="#2f381c" d="M 39.5,56.5 C 41.5,57.1667 43.5,57.8333 45.5,58.5C 46.1667,58.5 46.5,58.8333 46.5,59.5C 44.901,59.2322 43.5676,59.5655 42.5,60.5C 40.6159,60.7118 39.2826,61.7118 38.5,63.5C 37.8933,63.3764 37.56,63.0431 37.5,62.5C 37.5,61.5 37.5,60.5 37.5,59.5C 35.8212,59.7148 34.8212,59.0481 34.5,57.5C 35.9187,56.5489 37.5853,56.2155 39.5,56.5 Z"/></g>
<g><path style="opacity:1" fill="#2b351a" d="M 48.5,56.5 C 49.675,56.281 50.675,56.6143 51.5,57.5C 50.3698,58.6223 49.7031,59.9557 49.5,61.5C 49.9465,64.0101 49.2798,66.0101 47.5,67.5C 47.8064,64.6146 47.4731,61.9479 46.5,59.5C 46.5,58.8333 46.1667,58.5 45.5,58.5C 46.5,57.8333 47.5,57.1667 48.5,56.5 Z"/></g>
<g><path style="opacity:1" fill="#545d2c" d="M 76.5,55.5 C 78.4147,55.2155 80.0813,55.5489 81.5,56.5C 78.715,55.9162 77.0483,56.9162 76.5,59.5C 75.9744,61.2303 74.9744,62.5637 73.5,63.5C 74.129,60.6027 75.129,57.936 76.5,55.5 Z"/></g>
<g><path style="opacity:0.687" fill="#2e371e" d="M 112.5,59.5 C 112.773,61.451 112.107,62.951 110.5,64C 113.146,64.4974 115.813,64.6641 118.5,64.5C 118.567,65.9587 118.234,67.2921 117.5,68.5C 117.167,68.5 116.833,68.5 116.5,68.5C 116.5,67.5 116.5,66.5 116.5,65.5C 114.167,65.5 111.833,65.5 109.5,65.5C 109.912,63.0274 108.912,61.6941 106.5,61.5C 106.5,60.5 106.5,59.5 106.5,58.5C 108.5,58.8333 110.5,59.1667 112.5,59.5 Z"/></g>
<g><path style="opacity:1" fill="#c7ca9f" d="M 13.5,53.5 C 14.391,54.1098 15.391,54.4431 16.5,54.5C 17.1495,56.4352 17.4828,58.4352 17.5,60.5C 17.1667,60.5 16.8333,60.5 16.5,60.5C 14.643,58.7185 13.643,56.3852 13.5,53.5 Z"/></g>
<g><path style="opacity:1" fill="#9aa345" d="M 52.5,58.5 C 57.1679,57.8394 59.1679,59.8394 58.5,64.5C 57.2921,63.7659 55.9587,63.4326 54.5,63.5C 54.5983,60.7524 53.5983,60.0857 51.5,61.5C 51.5,61.1667 51.5,60.8333 51.5,60.5C 51.8333,59.8333 52.1667,59.1667 52.5,58.5 Z"/></g>
<g><path style="opacity:1" fill="#919842" d="M 81.5,60.5 C 77.5,59.8333 75.8333,61.5 76.5,65.5C 75.0011,66.494 73.3344,66.494 71.5,65.5C 71.5,65.1667 71.5,64.8333 71.5,64.5C 72.4916,64.6716 73.1583,64.3382 73.5,63.5C 74.9744,62.5637 75.9744,61.2303 76.5,59.5C 77.8195,58.0582 79.4862,57.3915 81.5,57.5C 81.5,58.5 81.5,59.5 81.5,60.5 Z"/></g>
<g><path style="opacity:1" fill="#475027" d="M 88.5,60.5 C 90.2589,60.0461 92.2589,60.0461 94.5,60.5C 94.5,61.5 94.5,62.5 94.5,63.5C 94.5,64.8333 94.5,66.1667 94.5,67.5C 95.552,67.6495 96.552,67.4828 97.5,67C 98.3994,65.3484 99.3994,63.8484 100.5,62.5C 100.5,63.5 100.5,64.5 100.5,65.5C 99.6618,65.8417 99.3284,66.5084 99.5,67.5C 97.6208,68.3414 95.6208,68.6747 93.5,68.5C 93.5,67.8333 93.5,67.1667 93.5,66.5C 93.5,64.8333 93.5,63.1667 93.5,61.5C 91.7085,61.634 90.0418,61.3007 88.5,60.5 Z"/></g>
<g><path style="opacity:1" fill="#394221" d="M 88.5,58.5 C 90.8056,58.9926 93.139,59.3259 95.5,59.5C 95.7678,61.099 95.4345,62.4324 94.5,63.5C 94.5,62.5 94.5,61.5 94.5,60.5C 92.2589,60.0461 90.2589,60.0461 88.5,60.5C 87.6873,62.2608 86.6873,63.9275 85.5,65.5C 85.4326,64.0413 85.7659,62.7079 86.5,61.5C 86.427,59.9731 87.0937,58.9731 88.5,58.5 Z"/></g>
<g><path style="opacity:0.996" fill="#1d2615" d="M 106.5,56.5 C 109.089,56.461 111.089,57.461 112.5,59.5C 110.5,59.1667 108.5,58.8333 106.5,58.5C 106.5,59.5 106.5,60.5 106.5,61.5C 104.5,61.5 102.5,61.5 100.5,61.5C 101.5,60.8333 102.5,60.1667 103.5,59.5C 103.5,58.5 103.5,57.5 103.5,56.5C 104.5,56.5 105.5,56.5 106.5,56.5 Z"/></g>
<g><path style="opacity:1" fill="#283118" d="M 81.5,52.5 C 81.8333,52.5 82.1667,52.5 82.5,52.5C 84.764,55.0937 86.0973,58.0937 86.5,61.5C 85.7659,62.7079 85.4326,64.0413 85.5,65.5C 85.1666,60.9051 83.8333,56.5718 81.5,52.5 Z"/></g>
<g><path style="opacity:1" fill="#656d30" d="M 42.5,60.5 C 43.5676,59.5655 44.901,59.2322 46.5,59.5C 47.4731,61.9479 47.8064,64.6146 47.5,67.5C 47.1667,67.5 46.8333,67.5 46.5,67.5C 46.5,65.1667 46.5,62.8333 46.5,60.5C 45.1667,60.5 43.8333,60.5 42.5,60.5 Z"/></g>
<g><path style="opacity:1" fill="#202916" d="M 95.5,59.5 C 97.1667,60.1667 98.8333,60.8333 100.5,61.5C 100.5,61.8333 100.5,62.1667 100.5,62.5C 99.3994,63.8484 98.3994,65.3484 97.5,67C 96.552,67.4828 95.552,67.6495 94.5,67.5C 94.5,66.1667 94.5,64.8333 94.5,63.5C 95.4345,62.4324 95.7678,61.099 95.5,59.5 Z"/></g>
<g><path style="opacity:1" fill="#9fa847" d="M 42.5,60.5 C 43.8333,60.5 45.1667,60.5 46.5,60.5C 46.5,62.8333 46.5,65.1667 46.5,67.5C 44.4513,66.3586 42.4513,66.3586 40.5,67.5C 40.5,66.8333 40.5,66.1667 40.5,65.5C 40.3915,63.4862 41.0582,61.8195 42.5,60.5 Z"/></g>
<g><path style="opacity:1" fill="#aaaf4c" d="M 68.5,64.5 C 67.9033,64.7352 67.5699,65.2352 67.5,66C 69.0997,67.1233 70.0997,68.6233 70.5,70.5C 70.5,71.1667 70.5,71.8333 70.5,72.5C 70.0667,69.7411 68.4,68.4078 65.5,68.5C 65.5,65.5 65.5,62.5 65.5,59.5C 66.209,58.596 67.209,58.2627 68.5,58.5C 68.5,60.5 68.5,62.5 68.5,64.5 Z"/></g>
<g><path style="opacity:1" fill="#858d3f" d="M 70.5,58.5 C 70.5,60.5 70.5,62.5 70.5,64.5C 69.8333,64.5 69.1667,64.5 68.5,64.5C 68.5,62.5 68.5,60.5 68.5,58.5C 67.209,58.2627 66.209,58.596 65.5,59.5C 65.1667,59.5 64.8333,59.5 64.5,59.5C 65.7752,55.8634 67.7752,55.5301 70.5,58.5 Z"/></g>
<g><path style="opacity:1" fill="#4a5228" d="M 100.5,61.5 C 102.5,61.5 104.5,61.5 106.5,61.5C 105.766,62.7079 105.433,64.0413 105.5,65.5C 103.833,65.5 102.167,65.5 100.5,65.5C 100.5,64.5 100.5,63.5 100.5,62.5C 100.5,62.1667 100.5,61.8333 100.5,61.5 Z"/></g>
<g><path style="opacity:0.037" fill="#131c0f" d="M 116.5,60.5 C 121.663,63.2031 122.663,66.8697 119.5,71.5C 119.813,68.7531 119.48,66.0865 118.5,63.5C 117.081,62.9953 116.415,61.9953 116.5,60.5 Z"/></g>
<g><path style="opacity:0.294" fill="#a6a78c" d="M 11.5,61.5 C 11.8333,61.5 12.1667,61.5 12.5,61.5C 12.8333,62.1667 13.1667,62.8333 13.5,63.5C 14.002,66.7428 13.6687,70.0762 12.5,73.5C 12.1667,73.5 11.8333,73.5 11.5,73.5C 11.6716,72.5084 11.3382,71.8417 10.5,71.5C 10.5,70.8333 10.5,70.1667 10.5,69.5C 12.0481,69.1788 12.7148,68.1788 12.5,66.5C 12.5,66.1667 12.5,65.8333 12.5,65.5C 12.1667,64.1667 11.8333,62.8333 11.5,61.5 Z"/></g>
<g><path style="opacity:1" fill="#313a1f" d="M 16.5,54.5 C 16.5,54.1667 16.5,53.8333 16.5,53.5C 18.8869,55.1779 21.5536,56.5112 24.5,57.5C 23.5975,60.3915 23.2641,63.3915 23.5,66.5C 22.2935,61.9244 19.9602,57.9244 16.5,54.5 Z"/></g>
<g><path style="opacity:1" fill="#9ea345" d="M 40.5,65.5 C 40.5,66.1667 40.5,66.8333 40.5,67.5C 40.5,67.8333 40.5,68.1667 40.5,68.5C 39.8333,68.5 39.1667,68.5 38.5,68.5C 36.927,65.1069 34.2604,63.7736 30.5,64.5C 30.9623,63.1201 31.9623,62.4534 33.5,62.5C 35.7277,63.2186 37.561,64.552 39,66.5C 39.3826,65.944 39.8826,65.6107 40.5,65.5 Z"/></g>
<g><path style="opacity:1" fill="#8d943f" d="M 51.5,60.5 C 51.5,60.8333 51.5,61.1667 51.5,61.5C 51.5,63.5 51.5,65.5 51.5,67.5C 50.0937,67.9731 49.427,68.9731 49.5,70.5C 48.5,70.5 47.5,70.5 46.5,70.5C 46.5,69.5 46.5,68.5 46.5,67.5C 46.8333,67.5 47.1667,67.5 47.5,67.5C 49.2798,66.0101 49.9465,64.0101 49.5,61.5C 50.1667,61.1667 50.8333,60.8333 51.5,60.5 Z"/></g>
<g><path style="opacity:1" fill="#a8ae49" d="M 58.5,64.5 C 59.1667,65.8333 59.8333,67.1667 60.5,68.5C 60.5,69.1667 60.5,69.8333 60.5,70.5C 58.0034,68.1289 55.0034,67.1289 51.5,67.5C 51.5,65.5 51.5,63.5 51.5,61.5C 53.5983,60.0857 54.5983,60.7524 54.5,63.5C 55.9587,63.4326 57.2921,63.7659 58.5,64.5 Z"/></g>
<g><path style="opacity:1" fill="#acaf4a" d="M 81.5,60.5 C 82.4614,62.2646 82.7947,64.2646 82.5,66.5C 80.3792,66.6747 78.3792,66.3414 76.5,65.5C 75.8333,61.5 77.5,59.8333 81.5,60.5 Z"/></g>
<g><path style="opacity:1" fill="#545c2d" d="M 88.5,60.5 C 90.0418,61.3007 91.7085,61.634 93.5,61.5C 93.5,63.1667 93.5,64.8333 93.5,66.5C 92.0387,65.3143 90.7054,65.3143 89.5,66.5C 89.1667,66.5 88.8333,66.5 88.5,66.5C 87.5,66.5 86.5,66.5 85.5,66.5C 85.5,66.1667 85.5,65.8333 85.5,65.5C 86.6873,63.9275 87.6873,62.2608 88.5,60.5 Z"/></g>
<g><path style="opacity:0.934" fill="#242e1b" d="M 112.5,59.5 C 113.833,59.8333 115.167,60.1667 116.5,60.5C 116.415,61.9953 117.081,62.9953 118.5,63.5C 119.48,66.0865 119.813,68.7531 119.5,71.5C 119.5,72.1667 119.167,72.5 118.5,72.5C 118.768,70.901 118.434,69.5676 117.5,68.5C 118.234,67.2921 118.567,65.9587 118.5,64.5C 115.813,64.6641 113.146,64.4974 110.5,64C 112.107,62.951 112.773,61.451 112.5,59.5 Z"/></g>
<g><path style="opacity:1" fill="#dfe0b9" d="M 16.5,60.5 C 16.8333,60.5 17.1667,60.5 17.5,60.5C 17.5,61.1667 17.5,61.8333 17.5,62.5C 17.815,66.3714 17.4816,70.0381 16.5,73.5C 16.7852,71.712 16.4519,70.0453 15.5,68.5C 14.9348,70.5435 13.9348,72.2102 12.5,73.5C 13.6687,70.0762 14.002,66.7428 13.5,63.5C 14.5,63.5 15.5,63.5 16.5,63.5C 16.5,62.5 16.5,61.5 16.5,60.5 Z"/></g>
<g><path style="opacity:1" fill="#5d652d" d="M 37.5,62.5 C 37.56,63.0431 37.8933,63.3764 38.5,63.5C 39.2826,61.7118 40.6159,60.7118 42.5,60.5C 41.0582,61.8195 40.3915,63.4862 40.5,65.5C 39.8826,65.6107 39.3826,65.944 39,66.5C 37.561,64.552 35.7277,63.2186 33.5,62.5C 31.9623,62.4534 30.9623,63.1201 30.5,64.5C 29.5416,64.9528 28.7083,65.6195 28,66.5C 26.9887,65.6634 25.8221,65.33 24.5,65.5C 24.0038,59.1746 25.1705,58.8413 28,64.5C 30.6453,61.4198 33.812,60.7531 37.5,62.5 Z"/></g>
<g><path style="opacity:1" fill="#dcce59" d="M 30.5,64.5 C 34.2604,63.7736 36.927,65.1069 38.5,68.5C 35.5701,67.701 32.5701,67.3677 29.5,67.5C 30.1098,66.609 30.4431,65.609 30.5,64.5 Z"/></g>
<g><path style="opacity:1" fill="#6b6f34" d="M 106.5,61.5 C 108.912,61.6941 109.912,63.0274 109.5,65.5C 111.833,65.5 114.167,65.5 116.5,65.5C 116.5,66.5 116.5,67.5 116.5,68.5C 115.167,68.5 113.833,68.5 112.5,68.5C 110.5,68.5 108.5,68.5 106.5,68.5C 104.55,66.2472 102.216,65.9139 99.5,67.5C 99.3284,66.5084 99.6618,65.8417 100.5,65.5C 102.167,65.5 103.833,65.5 105.5,65.5C 105.433,64.0413 105.766,62.7079 106.5,61.5 Z"/></g>
<g><path style="opacity:1" fill="#8c8c43" d="M 30.5,64.5 C 30.4431,65.609 30.1098,66.609 29.5,67.5C 28.5489,68.9187 28.2155,70.5853 28.5,72.5C 28.1667,72.5 27.8333,72.5 27.5,72.5C 27.5,70.8333 27.5,69.1667 27.5,67.5C 26.0413,67.4326 24.7079,67.7659 23.5,68.5C 23.5,67.8333 23.5,67.1667 23.5,66.5C 24.1667,66.5 24.5,66.1667 24.5,65.5C 25.8221,65.33 26.9887,65.6634 28,66.5C 28.7083,65.6195 29.5416,64.9528 30.5,64.5 Z"/></g>
<g><path style="opacity:1" fill="#919a42" d="M 64.5,59.5 C 64.8333,59.5 65.1667,59.5 65.5,59.5C 65.5,62.5 65.5,65.5 65.5,68.5C 64.8902,69.391 64.5569,70.391 64.5,71.5C 64.1667,71.5 63.8333,71.5 63.5,71.5C 63.2367,67.3998 63.5701,63.3998 64.5,59.5 Z"/></g>
<g><path style="opacity:1" fill="#af9e48" d="M 71.5,65.5 C 73.3344,66.494 75.0011,66.494 76.5,65.5C 78.3792,66.3414 80.3792,66.6747 82.5,66.5C 82.5,66.8333 82.5,67.1667 82.5,67.5C 81.1266,67.3433 79.7932,67.51 78.5,68C 80.607,69.2635 81.607,71.0968 81.5,73.5C 81.1667,73.5 80.8333,73.5 80.5,73.5C 79.7886,71.7986 78.4553,70.7986 76.5,70.5C 74.5,69.1667 72.8333,67.5 71.5,65.5 Z"/></g>
<g><path style="opacity:1" fill="#979d68" d="M 17.5,60.5 C 18.7095,60.9321 19.7095,61.5987 20.5,62.5C 20.7471,65.9387 20.4137,69.272 19.5,72.5C 19.1667,72.5 18.8333,72.5 18.5,72.5C 18.8128,68.9581 18.4794,65.6248 17.5,62.5C 17.5,61.8333 17.5,61.1667 17.5,60.5 Z"/></g>
<g><path style="opacity:1" fill="#585f34" d="M 16.5,54.5 C 19.9602,57.9244 22.2935,61.9244 23.5,66.5C 23.5,67.1667 23.5,67.8333 23.5,68.5C 21.9397,66.8439 20.9397,64.8439 20.5,62.5C 19.7095,61.5987 18.7095,60.9321 17.5,60.5C 17.4828,58.4352 17.1495,56.4352 16.5,54.5 Z"/></g>
<g><path style="opacity:1" fill="#d4ca5a" d="M 46.5,67.5 C 46.5,68.5 46.5,69.5 46.5,70.5C 44.8333,70.5 43.1667,70.5 41.5,70.5C 41.1667,70.5 40.8333,70.5 40.5,70.5C 40.5,69.8333 40.5,69.1667 40.5,68.5C 40.5,68.1667 40.5,67.8333 40.5,67.5C 42.4513,66.3586 44.4513,66.3586 46.5,67.5 Z"/></g>
<g><path style="opacity:1" fill="#c5c698" d="M 68.5,64.5 C 69.1667,64.5 69.8333,64.5 70.5,64.5C 70.8333,64.5 71.1667,64.5 71.5,64.5C 71.5,64.8333 71.5,65.1667 71.5,65.5C 72.8333,67.5 74.5,69.1667 76.5,70.5C 76.1788,72.0481 75.1788,72.7148 73.5,72.5C 73.0269,71.0937 72.0269,70.427 70.5,70.5C 70.0997,68.6233 69.0997,67.1233 67.5,66C 67.5699,65.2352 67.9033,64.7352 68.5,64.5 Z"/></g>
<g><path style="opacity:1" fill="#757636" d="M 83.5,66.5 C 84.1667,66.5 84.8333,66.5 85.5,66.5C 86.5,66.5 87.5,66.5 88.5,66.5C 89.0547,70.5841 88.0547,71.2508 85.5,68.5C 84.52,71.0865 84.1866,73.7531 84.5,76.5C 83.5,76.5 82.5,76.5 81.5,76.5C 81.5,75.5 81.5,74.5 81.5,73.5C 81.607,71.0968 80.607,69.2635 78.5,68C 79.7932,67.51 81.1266,67.3433 82.5,67.5C 83.1667,67.5 83.5,67.1667 83.5,66.5 Z"/></g>
<g><path style="opacity:0.11" fill="#3d3f35" d="M 12.5,66.5 C 12.7148,68.1788 12.0481,69.1788 10.5,69.5C 10.9321,68.2905 11.5987,67.2905 12.5,66.5 Z"/></g>
<g><path style="opacity:0.894" fill="#dfd88d" d="M 29.5,67.5 C 32.5701,67.3677 35.5701,67.701 38.5,68.5C 39.1667,68.5 39.8333,68.5 40.5,68.5C 40.5,69.1667 40.5,69.8333 40.5,70.5C 36.3902,70.2992 32.7235,69.2992 29.5,67.5 Z"/></g>
<g><path style="opacity:1" fill="#e0d15d" d="M 51.5,67.5 C 55.0034,67.1289 58.0034,68.1289 60.5,70.5C 61.0527,72.5518 62.0527,72.8852 63.5,71.5C 63.8333,71.5 64.1667,71.5 64.5,71.5C 64.6716,72.4916 64.3382,73.1583 63.5,73.5C 60.7938,73.4249 58.1272,73.0916 55.5,72.5C 53.5,71.8333 51.5,71.1667 49.5,70.5C 49.427,68.9731 50.0937,67.9731 51.5,67.5 Z"/></g>
<g><path style="opacity:1" fill="#a0a847" d="M 93.5,66.5 C 93.5,67.1667 93.5,67.8333 93.5,68.5C 93.5,68.8333 93.5,69.1667 93.5,69.5C 92.5,69.5 91.5,69.5 90.5,69.5C 90.5,70.5 90.5,71.5 90.5,72.5C 89.5386,70.7354 89.2053,68.7354 89.5,66.5C 90.7054,65.3143 92.0387,65.3143 93.5,66.5 Z"/></g>
<g><path style="opacity:1" fill="#99a145" d="M 106.5,68.5 C 105.5,68.5 104.5,68.5 103.5,68.5C 103.5,69.5 103.5,70.5 103.5,71.5C 102.167,71.5 100.833,71.5 99.5,71.5C 97.3736,70.9518 95.3736,70.2852 93.5,69.5C 93.5,69.1667 93.5,68.8333 93.5,68.5C 95.6208,68.6747 97.6208,68.3414 99.5,67.5C 102.216,65.9139 104.55,66.2472 106.5,68.5 Z"/></g>
<g><path style="opacity:1" fill="#b5b24f" d="M 106.5,68.5 C 108.5,68.5 110.5,68.5 112.5,68.5C 112.5,68.8333 112.5,69.1667 112.5,69.5C 110.167,69.5 107.833,69.5 105.5,69.5C 105.5,70.5 105.5,71.5 105.5,72.5C 104.081,73.4511 102.415,73.7845 100.5,73.5C 100.167,72.8333 99.8333,72.1667 99.5,71.5C 100.833,71.5 102.167,71.5 103.5,71.5C 103.5,70.5 103.5,69.5 103.5,68.5C 104.5,68.5 105.5,68.5 106.5,68.5 Z"/></g>
<g><path style="opacity:0.812" fill="#b4b38a" d="M 29.5,67.5 C 32.7235,69.2992 36.3902,70.2992 40.5,70.5C 40.8333,70.5 41.1667,70.5 41.5,70.5C 41.5,70.8333 41.5,71.1667 41.5,71.5C 40.8333,71.5 40.1667,71.5 39.5,71.5C 38.0413,71.4326 36.7079,71.7659 35.5,72.5C 33.1667,72.5 30.8333,72.5 28.5,72.5C 28.2155,70.5853 28.5489,68.9187 29.5,67.5 Z"/></g>
<g><path style="opacity:0.937" fill="#676939" d="M 20.5,62.5 C 20.9397,64.8439 21.9397,66.8439 23.5,68.5C 23.5271,70.1993 24.1938,71.5326 25.5,72.5C 23.5,72.5 21.5,72.5 19.5,72.5C 20.4137,69.272 20.7471,65.9387 20.5,62.5 Z"/></g>
<g><path style="opacity:0.384" fill="#a69b43" d="M 27.5,72.5 C 26.8333,72.5 26.1667,72.5 25.5,72.5C 24.1938,71.5326 23.5271,70.1993 23.5,68.5C 24.7079,67.7659 26.0413,67.4326 27.5,67.5C 27.5,69.1667 27.5,70.8333 27.5,72.5 Z"/></g>
<g><path style="opacity:1" fill="#a3a04a" d="M 88.5,66.5 C 88.8333,66.5 89.1667,66.5 89.5,66.5C 89.2053,68.7354 89.5386,70.7354 90.5,72.5C 90.6107,73.1174 90.944,73.6174 91.5,74C 93.4727,74.4955 95.4727,74.6621 97.5,74.5C 97.5,74.8333 97.5,75.1667 97.5,75.5C 96.5,75.5 95.5,75.5 94.5,75.5C 92.7839,75.6287 91.1172,75.962 89.5,76.5C 88.9344,74.9217 87.9344,73.5884 86.5,72.5C 85.8281,73.9492 85.1614,75.2825 84.5,76.5C 84.1866,73.7531 84.52,71.0865 85.5,68.5C 88.0547,71.2508 89.0547,70.5841 88.5,66.5 Z"/></g>
<g><path style="opacity:1" fill="#dfcf61" d="M 112.5,69.5 C 111.449,70.2223 110.782,71.2223 110.5,72.5C 108.833,72.5 107.167,72.5 105.5,72.5C 105.5,71.5 105.5,70.5 105.5,69.5C 107.833,69.5 110.167,69.5 112.5,69.5 Z"/></g>
<g><path style="opacity:0.965" fill="#dbd383" d="M 41.5,71.5 C 41.5,71.1667 41.5,70.8333 41.5,70.5C 43.1667,70.5 44.8333,70.5 46.5,70.5C 47.5,70.5 48.5,70.5 49.5,70.5C 51.5,71.1667 53.5,71.8333 55.5,72.5C 54.1667,72.5 52.8333,72.5 51.5,72.5C 48.1194,72.5405 44.7861,72.2071 41.5,71.5 Z"/></g>
<g><path style="opacity:1" fill="#e3d157" d="M 65.5,68.5 C 68.4,68.4078 70.0667,69.7411 70.5,72.5C 70.5,72.8333 70.5,73.1667 70.5,73.5C 70.5,73.8333 70.5,74.1667 70.5,74.5C 67.9407,74.8016 65.6074,74.4682 63.5,73.5C 64.3382,73.1583 64.6716,72.4916 64.5,71.5C 64.5569,70.391 64.8902,69.391 65.5,68.5 Z"/></g>
<g><path style="opacity:1" fill="#d0c557" d="M 93.5,69.5 C 95.3736,70.2852 97.3736,70.9518 99.5,71.5C 99.8333,72.1667 100.167,72.8333 100.5,73.5C 99.791,74.404 98.791,74.7373 97.5,74.5C 95.4727,74.6621 93.4727,74.4955 91.5,74C 90.944,73.6174 90.6107,73.1174 90.5,72.5C 90.5,71.5 90.5,70.5 90.5,69.5C 91.5,69.5 92.5,69.5 93.5,69.5 Z"/></g>
<g><path style="opacity:1" fill="#edefc8" d="M 16.5,73.5 C 15.5788,74.981 14.4121,76.3144 13,77.5C 12.5,77.3333 12,77.1667 11.5,77C 12.3366,75.9887 12.67,74.8221 12.5,73.5C 13.9348,72.2102 14.9348,70.5435 15.5,68.5C 16.4519,70.0453 16.7852,71.712 16.5,73.5 Z"/></g>
<g><path style="opacity:0.659" fill="#acac89" d="M 39.5,71.5 C 40.1667,71.5 40.8333,71.5 41.5,71.5C 44.7861,72.2071 48.1194,72.5405 51.5,72.5C 52.1667,73.1667 52.8333,73.8333 53.5,74.5C 49.6441,73.8814 45.9775,73.8814 42.5,74.5C 41.5,74.5 40.5,74.5 39.5,74.5C 39.5,73.5 39.5,72.5 39.5,71.5 Z"/></g>
<g><path style="opacity:1" fill="#6d6e3a" d="M 70.5,70.5 C 72.0269,70.427 73.0269,71.0937 73.5,72.5C 73.1959,74.7957 72.1959,75.129 70.5,73.5C 70.5,73.1667 70.5,72.8333 70.5,72.5C 70.5,71.8333 70.5,71.1667 70.5,70.5 Z"/></g>
<g><path style="opacity:1" fill="#b5ab60" d="M 76.5,70.5 C 78.4553,70.7986 79.7886,71.7986 80.5,73.5C 78.5,73.5 76.5,73.5 74.5,73.5C 74.5,74.5 74.5,75.5 74.5,76.5C 74.1667,76.5 73.8333,76.5 73.5,76.5C 72.5,75.8333 71.5,75.1667 70.5,74.5C 70.5,74.1667 70.5,73.8333 70.5,73.5C 72.1959,75.129 73.1959,74.7957 73.5,72.5C 75.1788,72.7148 76.1788,72.0481 76.5,70.5 Z"/></g>
<g><path style="opacity:0.153" fill="#aeae88" d="M 112.5,68.5 C 113.833,68.5 115.167,68.5 116.5,68.5C 116.833,68.5 117.167,68.5 117.5,68.5C 117.5,69.5 117.5,70.5 117.5,71.5C 114.711,73.0144 111.711,74.0144 108.5,74.5C 106.958,75.3007 105.292,75.634 103.5,75.5C 105.779,74.3485 108.112,73.3485 110.5,72.5C 110.782,71.2223 111.449,70.2223 112.5,69.5C 112.5,69.1667 112.5,68.8333 112.5,68.5 Z"/></g>
<g><path style="opacity:0.004" fill="#4c4e41" d="M 39.5,71.5 C 39.5,72.5 39.5,73.5 39.5,74.5C 37.847,74.3404 36.5137,73.6737 35.5,72.5C 36.7079,71.7659 38.0413,71.4326 39.5,71.5 Z"/></g>
<g><path style="opacity:0.816" fill="#7c6d48" d="M 42.5,74.5 C 45.9775,73.8814 49.6441,73.8814 53.5,74.5C 53.5,74.8333 53.5,75.1667 53.5,75.5C 52.8333,75.5 52.1667,75.5 51.5,75.5C 49.5,75.5 47.5,75.5 45.5,75.5C 44.791,74.596 43.791,74.2627 42.5,74.5 Z"/></g>
<g><path style="opacity:0.994" fill="#d9d38c" d="M 51.5,72.5 C 52.8333,72.5 54.1667,72.5 55.5,72.5C 58.1272,73.0916 60.7938,73.4249 63.5,73.5C 65.6074,74.4682 67.9407,74.8016 70.5,74.5C 71.5,75.1667 72.5,75.8333 73.5,76.5C 66.8635,75.552 60.1969,74.8854 53.5,74.5C 52.8333,73.8333 52.1667,73.1667 51.5,72.5 Z"/></g>
<g><path style="opacity:0.98" fill="#cec789" d="M 105.5,72.5 C 107.167,72.5 108.833,72.5 110.5,72.5C 108.112,73.3485 105.779,74.3485 103.5,75.5C 101.5,75.5 99.5,75.5 97.5,75.5C 97.5,75.1667 97.5,74.8333 97.5,74.5C 98.791,74.7373 99.791,74.404 100.5,73.5C 102.415,73.7845 104.081,73.4511 105.5,72.5 Z"/></g>
<g><path style="opacity:0.02" fill="#55574a" d="M 117.5,68.5 C 118.434,69.5676 118.768,70.901 118.5,72.5C 115.386,74.3908 112.052,75.7241 108.5,76.5C 108.5,75.8333 108.5,75.1667 108.5,74.5C 111.711,74.0144 114.711,73.0144 117.5,71.5C 117.5,70.5 117.5,69.5 117.5,68.5 Z"/></g>
<g><path style="opacity:0.173" fill="#696b59" d="M 10.5,71.5 C 11.3382,71.8417 11.6716,72.5084 11.5,73.5C 10.2857,75.808 10.2857,78.1413 11.5,80.5C 14.9396,78.7317 17.2729,76.0651 18.5,72.5C 18.8333,72.5 19.1667,72.5 19.5,72.5C 19.5,74.1667 19.5,75.8333 19.5,77.5C 16.7423,80.9007 13.409,81.9007 9.5,80.5C 9.79472,78.2646 9.46138,76.2646 8.5,74.5C 8.93205,73.2905 9.59872,72.2905 10.5,71.5 Z"/></g>
<g><path style="opacity:0.039" fill="#4d5040" d="M 19.5,72.5 C 21.5,72.5 23.5,72.5 25.5,72.5C 23.5398,74.1563 21.5398,75.823 19.5,77.5C 19.5,75.8333 19.5,74.1667 19.5,72.5 Z"/></g>
<g><path style="opacity:0.8" fill="#9c8b41" d="M 45.5,75.5 C 47.5,75.5 49.5,75.5 51.5,75.5C 51.5,75.8333 51.5,76.1667 51.5,76.5C 50.1667,76.5 48.8333,76.5 47.5,76.5C 46.4265,77.2506 46.2599,78.2506 47,79.5C 48.3756,80.7051 49.5423,82.0384 50.5,83.5C 46.4273,82.413 44.7606,79.7464 45.5,75.5 Z"/></g>
<g><path style="opacity:1" fill="#dfce5c" d="M 80.5,73.5 C 80.8333,73.5 81.1667,73.5 81.5,73.5C 81.5,74.5 81.5,75.5 81.5,76.5C 79.8333,76.5 78.1667,76.5 76.5,76.5C 75.8333,76.5 75.1667,76.5 74.5,76.5C 74.5,75.5 74.5,74.5 74.5,73.5C 76.5,73.5 78.5,73.5 80.5,73.5 Z"/></g>
<g><path style="opacity:0.449" fill="#b3b390" d="M 53.5,75.5 C 53.5,75.1667 53.5,74.8333 53.5,74.5C 60.1969,74.8854 66.8635,75.552 73.5,76.5C 73.8333,76.5 74.1667,76.5 74.5,76.5C 75.1667,76.5 75.8333,76.5 76.5,76.5C 76.5,77.1667 76.5,77.8333 76.5,78.5C 75.791,79.404 74.791,79.7373 73.5,79.5C 73.1667,79.5 72.8333,79.5 72.5,79.5C 71.1667,79.5 69.8333,79.5 68.5,79.5C 65.665,77.5869 62.3317,76.5869 58.5,76.5C 57.0813,75.5489 55.4147,75.2155 53.5,75.5 Z"/></g>
<g><path style="opacity:1" fill="#cfc46f" d="M 89.5,76.5 C 89.5,77.1667 89.5,77.8333 89.5,78.5C 85.1667,78.5 80.8333,78.5 76.5,78.5C 76.5,77.8333 76.5,77.1667 76.5,76.5C 78.1667,76.5 79.8333,76.5 81.5,76.5C 82.5,76.5 83.5,76.5 84.5,76.5C 85.1614,75.2825 85.8281,73.9492 86.5,72.5C 87.9344,73.5884 88.9344,74.9217 89.5,76.5 Z"/></g>
<g><path style="opacity:0.502" fill="#8f9077" d="M 108.5,74.5 C 108.5,75.1667 108.5,75.8333 108.5,76.5C 105.193,77.0508 101.86,77.3841 98.5,77.5C 97.1667,76.8333 95.8333,76.1667 94.5,75.5C 95.5,75.5 96.5,75.5 97.5,75.5C 99.5,75.5 101.5,75.5 103.5,75.5C 105.292,75.634 106.958,75.3007 108.5,74.5 Z"/></g>
<g><path style="opacity:0.075" fill="#282921" d="M 8.5,74.5 C 9.46138,76.2646 9.79472,78.2646 9.5,80.5C 7.15458,79.0121 6.82125,77.0121 8.5,74.5 Z"/></g>
<g><path style="opacity:0.851" fill="#c1c3a2" d="M 17.5,62.5 C 18.4794,65.6248 18.8128,68.9581 18.5,72.5C 17.2729,76.0651 14.9396,78.7317 11.5,80.5C 10.2857,78.1413 10.2857,75.808 11.5,73.5C 11.8333,73.5 12.1667,73.5 12.5,73.5C 12.67,74.8221 12.3366,75.9887 11.5,77C 12,77.1667 12.5,77.3333 13,77.5C 14.4121,76.3144 15.5788,74.981 16.5,73.5C 17.4816,70.0381 17.815,66.3714 17.5,62.5 Z"/></g>
<g><path style="opacity:0.988" fill="#815331" d="M 51.5,76.5 C 51.5,76.1667 51.5,75.8333 51.5,75.5C 52.1667,75.5 52.8333,75.5 53.5,75.5C 55.4147,75.2155 57.0813,75.5489 58.5,76.5C 58.5,77.1667 58.8333,77.5 59.5,77.5C 59.7148,79.1788 59.0481,80.1788 57.5,80.5C 56.5134,77.9142 54.5134,76.5809 51.5,76.5 Z"/></g>
<g><path style="opacity:0.251" fill="#626452" d="M 58.5,76.5 C 62.3317,76.5869 65.665,77.5869 68.5,79.5C 68.1667,79.5 67.8333,79.5 67.5,79.5C 64.9471,78.7451 62.2804,78.0784 59.5,77.5C 58.8333,77.5 58.5,77.1667 58.5,76.5 Z"/></g>
<g><path style="opacity:0.592" fill="#787a64" d="M 94.5,75.5 C 95.8333,76.1667 97.1667,76.8333 98.5,77.5C 96.8212,77.2852 95.8212,77.9519 95.5,79.5C 94.5,79.5 93.5,79.5 92.5,79.5C 91.5,79.5 90.5,79.5 89.5,79.5C 89.5,79.1667 89.5,78.8333 89.5,78.5C 89.5,77.8333 89.5,77.1667 89.5,76.5C 91.1172,75.962 92.7839,75.6287 94.5,75.5 Z"/></g>
<g><path style="opacity:0.027" fill="#353830" d="M 108.5,76.5 C 107.319,78.0672 105.653,78.9005 103.5,79C 100.854,79.4974 98.1873,79.6641 95.5,79.5C 95.8212,77.9519 96.8212,77.2852 98.5,77.5C 101.86,77.3841 105.193,77.0508 108.5,76.5 Z"/></g>
<g><path style="opacity:1" fill="#debd38" d="M 47.5,76.5 C 48.8333,76.5 50.1667,76.5 51.5,76.5C 52.0478,78.5323 53.3812,79.5323 55.5,79.5C 55.5,80.5 55.5,81.5 55.5,82.5C 51.4105,82.4119 48.7438,80.4119 47.5,76.5 Z"/></g>
<g><path style="opacity:0.831" fill="#878051" d="M 76.5,78.5 C 80.8333,78.5 85.1667,78.5 89.5,78.5C 89.5,78.8333 89.5,79.1667 89.5,79.5C 88.5,79.5 87.5,79.5 86.5,79.5C 85.1667,79.5 83.8333,79.5 82.5,79.5C 80.901,79.2322 79.5676,79.5655 78.5,80.5C 76.6203,80.2291 75.287,80.8958 74.5,82.5C 73.1024,83.7767 72.4357,85.4434 72.5,87.5C 72.6399,89.0296 73.3065,90.0296 74.5,90.5C 74.5,90.8333 74.5,91.1667 74.5,91.5C 73.5,91.5 72.5,91.5 71.5,91.5C 71.8064,88.6146 71.4731,85.9479 70.5,83.5C 70.5,82.8333 70.8333,82.5 71.5,82.5C 72.9063,82.0269 73.573,81.0269 73.5,79.5C 74.791,79.7373 75.791,79.404 76.5,78.5 Z"/></g>
<g><path style="opacity:0.98" fill="#c8b355" d="M 47.5,76.5 C 48.7438,80.4119 51.4105,82.4119 55.5,82.5C 55.5,82.8333 55.5,83.1667 55.5,83.5C 54.1667,83.5 52.8333,83.5 51.5,83.5C 51.1667,83.5 50.8333,83.5 50.5,83.5C 49.5423,82.0384 48.3756,80.7051 47,79.5C 46.2599,78.2506 46.4265,77.2506 47.5,76.5 Z"/></g>
<g><path style="opacity:0.98" fill="#ad882e" d="M 51.5,76.5 C 54.5134,76.5809 56.5134,77.9142 57.5,80.5C 57.5,81.5 57.5,82.5 57.5,83.5C 56.8333,83.5 56.1667,83.5 55.5,83.5C 55.5,83.1667 55.5,82.8333 55.5,82.5C 55.5,81.5 55.5,80.5 55.5,79.5C 53.3812,79.5323 52.0478,78.5323 51.5,76.5 Z"/></g>
<g><path style="opacity:0.224" fill="#212315" d="M 86.5,79.5 C 87.5,79.5 88.5,79.5 89.5,79.5C 90.5,79.5 91.5,79.5 92.5,79.5C 89.9078,81.1378 87.2411,82.8044 84.5,84.5C 84.8308,82.6776 85.4975,81.0109 86.5,79.5 Z"/></g>
<g><path style="opacity:0.024" fill="#252011" d="M 59.5,77.5 C 62.2804,78.0784 64.9471,78.7451 67.5,79.5C 65.4727,79.3379 63.4727,79.5045 61.5,80C 60.4677,81.6268 59.1344,82.7934 57.5,83.5C 57.5,82.5 57.5,81.5 57.5,80.5C 59.0481,80.1788 59.7148,79.1788 59.5,77.5 Z"/></g>
<g><path style="opacity:0.071" fill="#2e312b" d="M 72.5,79.5 C 72.8333,79.5 73.1667,79.5 73.5,79.5C 73.573,81.0269 72.9063,82.0269 71.5,82.5C 71.5569,81.391 71.8902,80.391 72.5,79.5 Z"/></g>
<g><path style="opacity:1" fill="#b8a443" d="M 78.5,80.5 C 79.6861,82.7922 79.6861,85.1256 78.5,87.5C 78.5,88.1667 78.5,88.8333 78.5,89.5C 77.1667,89.5 75.8333,89.5 74.5,89.5C 74.5,87.1667 74.5,84.8333 74.5,82.5C 75.287,80.8958 76.6203,80.2291 78.5,80.5 Z"/></g>
<g><path style="opacity:0.098" fill="#42432c" d="M 42.5,74.5 C 43.791,74.2627 44.791,74.596 45.5,75.5C 44.7606,79.7464 46.4273,82.413 50.5,83.5C 50.8333,83.5 51.1667,83.5 51.5,83.5C 51.5,84.1667 51.5,84.8333 51.5,85.5C 45.6646,83.7073 42.6646,80.0406 42.5,74.5 Z"/></g>
<g><path style="opacity:0.82" fill="#866031" d="M 82.5,79.5 C 82.7055,82.9968 81.3722,85.6635 78.5,87.5C 79.6861,85.1256 79.6861,82.7922 78.5,80.5C 79.5676,79.5655 80.901,79.2322 82.5,79.5 Z"/></g>
<g><path style="opacity:0.051" fill="#7f7841" d="M 51.5,83.5 C 52.8333,83.5 54.1667,83.5 55.5,83.5C 55.5,84.1667 55.5,84.8333 55.5,85.5C 54.0387,86.6857 52.7054,86.6857 51.5,85.5C 51.5,84.8333 51.5,84.1667 51.5,83.5 Z"/></g>
<g><path style="opacity:0.012" fill="#2c290f" d="M 55.5,83.5 C 56.1667,83.5 56.8333,83.5 57.5,83.5C 57.5,84.8333 56.8333,85.5 55.5,85.5C 55.5,84.8333 55.5,84.1667 55.5,83.5 Z"/></g>
<g><path style="opacity:0.178" fill="#1b1e16" d="M 70.5,83.5 C 71.4731,85.9479 71.8064,88.6146 71.5,91.5C 72.5,91.5 73.5,91.5 74.5,91.5C 73.1155,92.8009 71.6155,92.8009 70,91.5C 69.2782,88.7395 69.4448,86.0728 70.5,83.5 Z"/></g>
<g><path style="opacity:0.882" fill="#cbc791" d="M 74.5,82.5 C 74.5,84.8333 74.5,87.1667 74.5,89.5C 74.5,89.8333 74.5,90.1667 74.5,90.5C 73.3065,90.0296 72.6399,89.0296 72.5,87.5C 72.4357,85.4434 73.1024,83.7767 74.5,82.5 Z"/></g>
<g><path style="opacity:0.004" fill="#4f4a2b" d="M 82.5,79.5 C 83.8333,79.5 85.1667,79.5 86.5,79.5C 85.4975,81.0109 84.8308,82.6776 84.5,84.5C 83.1092,86.8903 81.1092,88.5569 78.5,89.5C 78.5,88.8333 78.5,88.1667 78.5,87.5C 81.3722,85.6635 82.7055,82.9968 82.5,79.5 Z"/></g>
<g><path style="opacity:0.047" fill="#484528" d="M 74.5,89.5 C 75.8333,89.5 77.1667,89.5 78.5,89.5C 77.713,91.1042 76.3797,91.7709 74.5,91.5C 74.5,91.1667 74.5,90.8333 74.5,90.5C 74.5,90.1667 74.5,89.8333 74.5,89.5 Z"/></g>
</svg>
