<?xml version="1.0" encoding="UTF-8"?>
<!DOCTYPE svg PUBLIC "-//W3C//DTD SVG 1.1//EN" "http://www.w3.org/Graphics/SVG/1.1/DTD/svg11.dtd">
<svg xmlns="http://www.w3.org/2000/svg" version="1.1" width="128px" height="128px" style="shape-rendering:geometricPrecision; text-rendering:geometricPrecision; image-rendering:optimizeQuality; fill-rule:evenodd; clip-rule:evenodd" xmlns:xlink="http://www.w3.org/1999/xlink">
<g><path style="opacity:1" fill="#000000" d="M 74.5,37.5 C 84.0951,36.8052 90.7617,40.9719 94.5,50C 102.5,54.3333 110.5,58.6667 118.5,63C 120.415,65.185 120.582,67.685 119,70.5C 109.455,76.7928 98.9549,80.2928 87.5,81C 83.2152,85.2888 78.3819,88.7888 73,91.5C 71.0532,90.9561 70.2199,89.6228 70.5,87.5C 70.627,84.6127 71.627,82.1127 73.5,80C 66.5949,76.644 60.9283,77.9773 56.5,84C 50.5294,85.5143 46.196,83.5143 43.5,78C 44.5,77 45.5,76 46.5,75C 39.7969,71.9661 32.7969,70.9661 25.5,72C 21.9573,73.6083 18.9573,75.9416 16.5,79C 13.1511,81.4789 10.4845,80.9789 8.5,77.5C 10.2287,73.9809 11.562,70.3142 12.5,66.5C 2.68326,48.1173 6.34993,44.9506 23.5,57C 29.5219,57.5752 35.5219,57.4085 41.5,56.5C 41.7791,50.2207 45.1124,46.8874 51.5,46.5C 54.684,46.5087 57.5173,47.5087 60,49.5C 64.7316,45.2584 69.5649,41.2584 74.5,37.5 Z"/></g>
</svg>
