<?xml version="1.0" encoding="UTF-8"?>
<!DOCTYPE svg PUBLIC "-//W3C//DTD SVG 1.1//EN" "http://www.w3.org/Graphics/SVG/1.1/DTD/svg11.dtd">
<svg xmlns="http://www.w3.org/2000/svg" version="1.1" width="128px" height="128px" style="shape-rendering:geometricPrecision; text-rendering:geometricPrecision; image-rendering:optimizeQuality; fill-rule:evenodd; clip-rule:evenodd" xmlns:xlink="http://www.w3.org/1999/xlink">
<g><path style="opacity:0.141" fill="#edf2c0" d="M 36.5,46.5 C 33.1667,46.5 29.8333,46.5 26.5,46.5C 26.6107,45.8826 26.944,45.3826 27.5,45C 29,44.8333 30.5,44.6667 32,44.5C 33.9855,44.5687 35.4855,45.2353 36.5,46.5 Z"/></g>
<g><path style="opacity:0.357" fill="#cfb287" d="M 26.5,46.5 C 29.8333,46.5 33.1667,46.5 36.5,46.5C 36.8333,46.5 37.1667,46.5 37.5,46.5C 37.5,47.1667 37.5,47.8333 37.5,48.5C 34.5547,47.5325 31.5547,47.3658 28.5,48C 27.5769,50.0408 27.2436,52.2075 27.5,54.5C 27.8333,55.1667 28.1667,55.8333 28.5,56.5C 26.5977,53.6627 25.931,50.3293 26.5,46.5 Z"/></g>
<g><path style="opacity:0.686" fill="#dad6aa" d="M 37.5,46.5 C 41.1587,46.1494 44.1587,47.1494 46.5,49.5C 44.4352,49.4828 42.4352,49.1495 40.5,48.5C 39.5,48.5 38.5,48.5 37.5,48.5C 37.5,47.8333 37.5,47.1667 37.5,46.5 Z"/></g>
<g><path style="opacity:1" fill="#d59472" d="M 37.5,48.5 C 38.5,48.5 39.5,48.5 40.5,48.5C 40.5,48.8333 40.5,49.1667 40.5,49.5C 38.5853,49.2155 36.9187,49.5489 35.5,50.5C 34.1266,50.3433 32.7932,50.51 31.5,51C 30.2642,52.3875 28.9308,53.5542 27.5,54.5C 27.2436,52.2075 27.5769,50.0408 28.5,48C 31.5547,47.3658 34.5547,47.5325 37.5,48.5 Z"/></g>
<g><path style="opacity:1" fill="#b3735f" d="M 40.5,49.5 C 40.5,49.8333 40.5,50.1667 40.5,50.5C 37.6085,51.7891 35.2752,53.7891 33.5,56.5C 32.609,57.1098 31.609,57.4431 30.5,57.5C 30.1667,57.5 29.8333,57.5 29.5,57.5C 31.448,55.2113 33.448,52.878 35.5,50.5C 36.9187,49.5489 38.5853,49.2155 40.5,49.5 Z"/></g>
<g><path style="opacity:0.663" fill="#bdbd93" d="M 40.5,48.5 C 42.4352,49.1495 44.4352,49.4828 46.5,49.5C 58.1667,49.5 69.8333,49.5 81.5,49.5C 70.8333,50.1667 60.1667,50.8333 49.5,51.5C 48.5,51.5 47.5,51.5 46.5,51.5C 45.8333,51.1667 45.1667,50.8333 44.5,50.5C 43.1667,50.5 41.8333,50.5 40.5,50.5C 40.5,50.1667 40.5,49.8333 40.5,49.5C 40.5,49.1667 40.5,48.8333 40.5,48.5 Z"/></g>
<g><path style="opacity:0.894" fill="#b5b78d" d="M 81.5,49.5 C 86.5,49.5 91.5,49.5 96.5,49.5C 96.5,50.1667 96.5,50.8333 96.5,51.5C 80.8333,51.5 65.1667,51.5 49.5,51.5C 60.1667,50.8333 70.8333,50.1667 81.5,49.5 Z"/></g>
<g><path style="opacity:0.194" fill="#e2e3b3" d="M 96.5,49.5 C 102.158,48.8291 107.158,50.1624 111.5,53.5C 108.833,53.1667 106.167,52.8333 103.5,52.5C 101.393,51.5318 99.0593,51.1984 96.5,51.5C 96.5,50.8333 96.5,50.1667 96.5,49.5 Z"/></g>
<g><path style="opacity:1" fill="#80523a" d="M 40.5,50.5 C 41.8333,50.5 43.1667,50.5 44.5,50.5C 40.8422,52.4986 37.1755,54.4986 33.5,56.5C 35.2752,53.7891 37.6085,51.7891 40.5,50.5 Z"/></g>
<g><path style="opacity:0.247" fill="#c8b38a" d="M 5.5,52.5 C 7.5,52.5 9.5,52.5 11.5,52.5C 11.8333,53.1667 12.1667,53.8333 12.5,54.5C 9.9407,54.1984 7.60737,54.5318 5.5,55.5C 5.5,57.1667 5.5,58.8333 5.5,60.5C 2.98169,57.9631 2.98169,55.2964 5.5,52.5 Z"/></g>
<g><path style="opacity:1" fill="#cd8d78" d="M 35.5,50.5 C 33.448,52.878 31.448,55.2113 29.5,57.5C 28.8333,57.5 28.5,57.1667 28.5,56.5C 28.1667,55.8333 27.8333,55.1667 27.5,54.5C 28.9308,53.5542 30.2642,52.3875 31.5,51C 32.7932,50.51 34.1266,50.3433 35.5,50.5 Z"/></g>
<g><path style="opacity:1" fill="#51602e" d="M 88.5,52.5 C 91.7131,52.19 94.7131,52.5233 97.5,53.5C 96.0413,53.4326 94.7079,53.7659 93.5,54.5C 92.1667,54.5 90.8333,54.5 89.5,54.5C 89.1667,53.8333 88.8333,53.1667 88.5,52.5 Z"/></g>
<g><path style="opacity:1" fill="#8f946b" d="M 46.5,52.5 C 46.5,52.1667 46.5,51.8333 46.5,51.5C 47.5,51.5 48.5,51.5 49.5,51.5C 65.1667,51.5 80.8333,51.5 96.5,51.5C 99.0593,51.1984 101.393,51.5318 103.5,52.5C 103.5,52.8333 103.5,53.1667 103.5,53.5C 102.167,53.5 100.833,53.5 99.5,53.5C 98.8333,53.5 98.1667,53.5 97.5,53.5C 94.7131,52.5233 91.7131,52.19 88.5,52.5C 88.1667,52.5 87.8333,52.5 87.5,52.5C 81.8333,52.5 76.1667,52.5 70.5,52.5C 62.5,52.5 54.5,52.5 46.5,52.5 Z"/></g>
<g><path style="opacity:0.294" fill="#e4e1b1" d="M 11.5,52.5 C 15.2883,52.309 18.2883,53.6423 20.5,56.5C 19.8333,56.5 19.1667,56.5 18.5,56.5C 17.791,55.596 16.791,55.2627 15.5,55.5C 14.609,54.8902 13.609,54.5569 12.5,54.5C 12.1667,53.8333 11.8333,53.1667 11.5,52.5 Z"/></g>
<g><path style="opacity:0.29" fill="#cfcb9e" d="M 26.5,46.5 C 25.931,50.3293 26.5977,53.6627 28.5,56.5C 28.5,57.1667 28.8333,57.5 29.5,57.5C 26.3601,58.6408 23.0267,58.8075 19.5,58C 18.944,57.6174 18.6107,57.1174 18.5,56.5C 19.1667,56.5 19.8333,56.5 20.5,56.5C 21.8333,56.5 23.1667,56.5 24.5,56.5C 23.931,52.6707 24.5977,49.3373 26.5,46.5 Z"/></g>
<g><path style="opacity:1" fill="#4f5d2b" d="M 46.5,52.5 C 54.5,52.5 62.5,52.5 70.5,52.5C 70.5,53.1667 70.5,53.8333 70.5,54.5C 67.1667,54.5 63.8333,54.5 60.5,54.5C 57.5,54.5 54.5,54.5 51.5,54.5C 47.7657,54.3227 44.0991,54.6561 40.5,55.5C 42.0326,53.7549 44.0326,52.7549 46.5,52.5 Z"/></g>
<g><path style="opacity:1" fill="#56642e" d="M 70.5,52.5 C 76.1667,52.5 81.8333,52.5 87.5,52.5C 87.3893,53.1174 87.056,53.6174 86.5,54C 81.8452,54.4992 77.1785,54.6658 72.5,54.5C 72.0623,53.4937 71.3957,53.4937 70.5,54.5C 70.5,53.8333 70.5,53.1667 70.5,52.5 Z"/></g>
<g><path style="opacity:0.086" fill="#cdcfa1" d="M 103.5,53.5 C 103.5,53.1667 103.5,52.8333 103.5,52.5C 106.167,52.8333 108.833,53.1667 111.5,53.5C 113.895,54.3158 116.229,55.3158 118.5,56.5C 120.279,58.3435 122.612,59.0102 125.5,58.5C 126.167,58.5 126.833,58.5 127.5,58.5C 127.5,60.5 127.5,62.5 127.5,64.5C 126.609,65.1098 125.609,65.4431 124.5,65.5C 125.167,64.5 125.833,63.5 126.5,62.5C 124.718,60.643 122.385,59.643 119.5,59.5C 118.5,59.5 117.5,59.5 116.5,59.5C 116.179,57.9519 115.179,57.2852 113.5,57.5C 113.047,56.5416 112.381,55.7083 111.5,55C 109.134,54.5604 106.801,54.0604 104.5,53.5C 104.167,53.5 103.833,53.5 103.5,53.5 Z"/></g>
<g><path style="opacity:1" fill="#6d7f3d" d="M 87.5,52.5 C 87.8333,52.5 88.1667,52.5 88.5,52.5C 88.8333,53.1667 89.1667,53.8333 89.5,54.5C 89.5569,55.609 89.8902,56.609 90.5,57.5C 85.1667,57.5 79.8333,57.5 74.5,57.5C 73.8333,56.5 73.1667,55.5 72.5,54.5C 77.1785,54.6658 81.8452,54.4992 86.5,54C 87.056,53.6174 87.3893,53.1174 87.5,52.5 Z"/></g>
<g><path style="opacity:1" fill="#7c8b45" d="M 97.5,53.5 C 98.1667,53.5 98.8333,53.5 99.5,53.5C 99.5,54.1667 99.5,54.8333 99.5,55.5C 99.2942,57.5492 98.4609,57.8825 97,56.5C 96.5172,57.448 96.3505,58.448 96.5,59.5C 96.1667,59.5 95.8333,59.5 95.5,59.5C 94.0582,58.1805 93.3915,56.5138 93.5,54.5C 94.7079,53.7659 96.0413,53.4326 97.5,53.5 Z"/></g>
<g><path style="opacity:1" fill="#6a7c3b" d="M 51.5,54.5 C 54.5,54.5 57.5,54.5 60.5,54.5C 60.5569,55.609 60.8902,56.609 61.5,57.5C 59.1667,57.5 56.8333,57.5 54.5,57.5C 54.1667,57.5 53.8333,57.5 53.5,57.5C 53.1667,57.5 52.8333,57.5 52.5,57.5C 51.8902,56.609 51.5569,55.609 51.5,54.5 Z"/></g>
<g><path style="opacity:1" fill="#718240" d="M 72.5,54.5 C 73.1667,55.5 73.8333,56.5 74.5,57.5C 70.5,57.5 66.5,57.5 62.5,57.5C 62.1667,57.5 61.8333,57.5 61.5,57.5C 60.8902,56.609 60.5569,55.609 60.5,54.5C 63.8333,54.5 67.1667,54.5 70.5,54.5C 71.3957,53.4937 72.0623,53.4937 72.5,54.5 Z"/></g>
<g><path style="opacity:1" fill="#576c33" d="M 99.5,53.5 C 100.833,53.5 102.167,53.5 103.5,53.5C 103.833,53.5 104.167,53.5 104.5,53.5C 104.973,54.9063 105.973,55.573 107.5,55.5C 107.737,56.791 107.404,57.791 106.5,58.5C 104.771,56.2733 102.438,55.2733 99.5,55.5C 99.5,54.8333 99.5,54.1667 99.5,53.5 Z"/></g>
<g><path style="opacity:1" fill="#575c2f" d="M 44.5,50.5 C 45.1667,50.8333 45.8333,51.1667 46.5,51.5C 46.5,51.8333 46.5,52.1667 46.5,52.5C 44.0326,52.7549 42.0326,53.7549 40.5,55.5C 40.3893,56.1174 40.056,56.6174 39.5,57C 36.6318,58.383 33.6318,59.2163 30.5,59.5C 30.5,58.8333 30.5,58.1667 30.5,57.5C 31.609,57.4431 32.609,57.1098 33.5,56.5C 37.1755,54.4986 40.8422,52.4986 44.5,50.5 Z"/></g>
<g><path style="opacity:1" fill="#667939" d="M 51.5,54.5 C 51.5569,55.609 51.8902,56.609 52.5,57.5C 50.4352,57.5172 48.4352,57.8505 46.5,58.5C 44.6621,57.3217 42.9955,57.655 41.5,59.5C 40.8333,59.5 40.5,59.8333 40.5,60.5C 39.8333,60.5 39.1667,60.5 38.5,60.5C 35.976,60.957 33.3093,60.957 30.5,60.5C 30.5,60.1667 30.5,59.8333 30.5,59.5C 33.6318,59.2163 36.6318,58.383 39.5,57C 40.056,56.6174 40.3893,56.1174 40.5,55.5C 44.0991,54.6561 47.7657,54.3227 51.5,54.5 Z"/></g>
<g><path style="opacity:1" fill="#6c8040" d="M 99.5,55.5 C 102.438,55.2733 104.771,56.2733 106.5,58.5C 105.041,58.4326 103.708,58.7659 102.5,59.5C 100.46,59.5535 98.4599,59.5535 96.5,59.5C 96.3505,58.448 96.5172,57.448 97,56.5C 98.4609,57.8825 99.2942,57.5492 99.5,55.5 Z"/></g>
<g><path style="opacity:1" fill="#899369" d="M 104.5,53.5 C 106.801,54.0604 109.134,54.5604 111.5,55C 112.381,55.7083 113.047,56.5416 113.5,57.5C 111.883,58.038 110.216,58.3713 108.5,58.5C 108.737,57.209 108.404,56.209 107.5,55.5C 105.973,55.573 104.973,54.9063 104.5,53.5 Z"/></g>
<g><path style="opacity:0.068" fill="#eaebb9" d="M 118.5,56.5 C 120.527,56.3379 122.527,56.5045 124.5,57C 125.056,57.3826 125.389,57.8826 125.5,58.5C 122.612,59.0102 120.279,58.3435 118.5,56.5 Z"/></g>
<g><path style="opacity:1" fill="#d09276" d="M 5.5,55.5 C 7.60737,54.5318 9.9407,54.1984 12.5,54.5C 13.609,54.5569 14.609,54.8902 15.5,55.5C 15.5,55.8333 15.5,56.1667 15.5,56.5C 14.8333,57.5 14.1667,58.5 13.5,59.5C 12.209,59.2627 11.209,59.596 10.5,60.5C 9.00003,58.6925 7.33336,57.0258 5.5,55.5 Z"/></g>
<g><path style="opacity:0.831" fill="#999772" d="M 15.5,56.5 C 15.5,56.1667 15.5,55.8333 15.5,55.5C 16.791,55.2627 17.791,55.596 18.5,56.5C 18.6107,57.1174 18.944,57.6174 19.5,58C 23.0267,58.8075 26.3601,58.6408 29.5,57.5C 29.8333,57.5 30.1667,57.5 30.5,57.5C 30.5,58.1667 30.5,58.8333 30.5,59.5C 26.0685,59.7693 21.7352,59.436 17.5,58.5C 17.1667,57.5 16.5,56.8333 15.5,56.5 Z"/></g>
<g><path style="opacity:1" fill="#8e9a56" d="M 46.5,58.5 C 45.0813,59.4511 43.4147,59.7845 41.5,59.5C 42.9955,57.655 44.6621,57.3217 46.5,58.5 Z"/></g>
<g><path style="opacity:1" fill="#c0c38b" d="M 65.5,59.5 C 66.6009,58.4017 67.9343,58.235 69.5,59C 70.9494,60.117 72.6161,60.7837 74.5,61C 73.552,61.4828 72.552,61.6495 71.5,61.5C 70.1667,61.5 68.8333,61.5 67.5,61.5C 67.1667,60.5 66.5,59.8333 65.5,59.5 Z"/></g>
<g><path style="opacity:1" fill="#babe88" d="M 82.5,60.5 C 83.9179,62.3079 85.9179,62.9746 88.5,62.5C 88.5,62.8333 88.5,63.1667 88.5,63.5C 87.8333,63.5 87.1667,63.5 86.5,63.5C 85.8333,63.5 85.1667,63.5 84.5,63.5C 81.2153,63.2104 78.2153,63.877 75.5,65.5C 75.6741,63.139 76.0074,60.8056 76.5,58.5C 78.7179,58.6138 80.7179,59.2804 82.5,60.5 Z"/></g>
<g><path style="opacity:1" fill="#9faa79" d="M 62.5,57.5 C 66.5,57.5 70.5,57.5 74.5,57.5C 79.8333,57.5 85.1667,57.5 90.5,57.5C 91.7199,59.2837 91.7199,60.9504 90.5,62.5C 88.9128,58.0064 86.2461,57.3398 82.5,60.5C 80.7179,59.2804 78.7179,58.6138 76.5,58.5C 76.0074,60.8056 75.6741,63.139 75.5,65.5C 74.8333,65.5 74.1667,65.5 73.5,65.5C 72.3995,64.3951 71.7329,63.0618 71.5,61.5C 72.552,61.6495 73.552,61.4828 74.5,61C 72.6161,60.7837 70.9494,60.117 69.5,59C 67.9343,58.235 66.6009,58.4017 65.5,59.5C 63.8212,59.7148 62.8212,59.0481 62.5,57.5 Z"/></g>
<g><path style="opacity:1" fill="#b2b988" d="M 90.5,62.5 C 89.8333,62.5 89.1667,62.5 88.5,62.5C 85.9179,62.9746 83.9179,62.3079 82.5,60.5C 86.2461,57.3398 88.9128,58.0064 90.5,62.5 Z"/></g>
<g><path style="opacity:1" fill="#708147" d="M 89.5,54.5 C 90.8333,54.5 92.1667,54.5 93.5,54.5C 93.3915,56.5138 94.0582,58.1805 95.5,59.5C 94.9033,59.7352 94.5699,60.2352 94.5,61C 95.2718,62.221 96.2718,63.221 97.5,64C 96.9056,64.4643 96.2389,64.631 95.5,64.5C 93.283,63.6314 90.9496,63.298 88.5,63.5C 88.5,63.1667 88.5,62.8333 88.5,62.5C 89.1667,62.5 89.8333,62.5 90.5,62.5C 91.7199,60.9504 91.7199,59.2837 90.5,57.5C 89.8902,56.609 89.5569,55.609 89.5,54.5 Z"/></g>
<g><path style="opacity:0.447" fill="#e2dfb4" d="M 5.5,52.5 C 2.98169,55.2964 2.98169,57.9631 5.5,60.5C 5.5,61.1667 5.5,61.8333 5.5,62.5C 5.67158,63.4916 5.33825,64.1583 4.5,64.5C 1.77699,61.2175 1.11032,57.5509 2.5,53.5C 3.32496,52.6143 4.32496,52.281 5.5,52.5 Z"/></g>
<g><path style="opacity:0.988" fill="#596432" d="M 17.5,58.5 C 21.7352,59.436 26.0685,59.7693 30.5,59.5C 30.5,59.8333 30.5,60.1667 30.5,60.5C 29.8333,60.5 29.5,60.8333 29.5,61.5C 26.1667,61.5 22.8333,61.5 19.5,61.5C 18.1667,61.5 16.8333,61.5 15.5,61.5C 15.5,61.1667 15.5,60.8333 15.5,60.5C 16.5,60.1667 17.1667,59.5 17.5,58.5 Z"/></g>
<g><path style="opacity:1" fill="#96a374" d="M 52.5,57.5 C 52.8333,57.5 53.1667,57.5 53.5,57.5C 53.0472,58.4584 52.3805,59.2917 51.5,60C 47.8484,60.4986 44.1817,60.6653 40.5,60.5C 40.5,59.8333 40.8333,59.5 41.5,59.5C 43.4147,59.7845 45.0813,59.4511 46.5,58.5C 48.4352,57.8505 50.4352,57.5172 52.5,57.5 Z"/></g>
<g><path style="opacity:1" fill="#98a678" d="M 54.5,57.5 C 56.8333,57.5 59.1667,57.5 61.5,57.5C 61.8333,57.5 62.1667,57.5 62.5,57.5C 62.8212,59.0481 63.8212,59.7148 65.5,59.5C 66.5,59.8333 67.1667,60.5 67.5,61.5C 63.9009,60.6561 60.2343,60.3227 56.5,60.5C 55.448,60.6495 54.448,60.4828 53.5,60C 54.2524,59.3292 54.5858,58.4959 54.5,57.5 Z"/></g>
<g><path style="opacity:1" fill="#6f8149" d="M 107.5,55.5 C 108.404,56.209 108.737,57.209 108.5,58.5C 110.216,58.3713 111.883,58.038 113.5,57.5C 115.179,57.2852 116.179,57.9519 116.5,59.5C 115.735,59.0766 114.902,58.7432 114,58.5C 112.75,60.7058 110.916,62.0391 108.5,62.5C 108.804,61.8501 109.137,61.1835 109.5,60.5C 108.398,59.8243 107.398,59.1577 106.5,58.5C 107.404,57.791 107.737,56.791 107.5,55.5 Z"/></g>
<g><path style="opacity:1" fill="#a36854" d="M 15.5,56.5 C 16.5,56.8333 17.1667,57.5 17.5,58.5C 17.1667,59.5 16.5,60.1667 15.5,60.5C 14.5318,62.6074 14.1984,64.9407 14.5,67.5C 13.5269,65.0521 13.1936,62.3854 13.5,59.5C 14.1667,58.5 14.8333,57.5 15.5,56.5 Z"/></g>
<g><path style="opacity:1" fill="#929b58" d="M 56.5,60.5 C 60.2343,60.3227 63.9009,60.6561 67.5,61.5C 66.7002,63.7409 65.0336,64.7409 62.5,64.5C 62.5,63.5 62.5,62.5 62.5,61.5C 61.5,61.5 60.5,61.5 59.5,61.5C 59.5,62.5 59.5,63.5 59.5,64.5C 58.5,64.5 57.5,64.5 56.5,64.5C 56.5,63.5 56.5,62.5 56.5,61.5C 56.5,61.1667 56.5,60.8333 56.5,60.5 Z"/></g>
<g><path style="opacity:1" fill="#84935c" d="M 102.5,59.5 C 102.5,60.1667 102.5,60.8333 102.5,61.5C 100.645,61.272 99.8119,61.9387 100,63.5C 101.699,64.4061 103.533,64.7394 105.5,64.5C 105.833,64.5 106.167,64.5 106.5,64.5C 107.209,65.404 108.209,65.7373 109.5,65.5C 106.375,66.4794 103.042,66.8128 99.5,66.5C 98.1667,66.1667 96.8333,65.8333 95.5,65.5C 95.5,65.1667 95.5,64.8333 95.5,64.5C 96.2389,64.631 96.9056,64.4643 97.5,64C 96.2718,63.221 95.2718,62.221 94.5,61C 94.5699,60.2352 94.9033,59.7352 95.5,59.5C 95.8333,59.5 96.1667,59.5 96.5,59.5C 98.4599,59.5535 100.46,59.5535 102.5,59.5 Z"/></g>
<g><path style="opacity:1" fill="#5c7234" d="M 116.5,59.5 C 117.5,59.5 118.5,59.5 119.5,59.5C 120.11,60.391 120.443,61.391 120.5,62.5C 118.102,62.2594 116.102,62.9261 114.5,64.5C 112.585,64.2155 110.919,64.5489 109.5,65.5C 108.209,65.7373 107.209,65.404 106.5,64.5C 106.833,63.5 107.5,62.8333 108.5,62.5C 110.916,62.0391 112.75,60.7058 114,58.5C 114.902,58.7432 115.735,59.0766 116.5,59.5 Z"/></g>
<g><path style="opacity:0.976" fill="#838e5d" d="M 119.5,59.5 C 122.385,59.643 124.718,60.643 126.5,62.5C 125.833,62.5 125.167,62.5 124.5,62.5C 123.167,62.5 121.833,62.5 120.5,62.5C 120.443,61.391 120.11,60.391 119.5,59.5 Z"/></g>
<g><path style="opacity:1" fill="#84925a" d="M 19.5,61.5 C 22.8333,61.5 26.1667,61.5 29.5,61.5C 26.6946,62.3195 23.6946,62.8195 20.5,63C 21.7119,64.1068 21.3786,64.6068 19.5,64.5C 19.5,63.5 19.5,62.5 19.5,61.5 Z"/></g>
<g><path style="opacity:1" fill="#9fa568" d="M 30.5,60.5 C 33.3093,60.957 35.976,60.957 38.5,60.5C 38.8212,62.0481 39.8212,62.7148 41.5,62.5C 38.023,63.3227 34.3563,63.8227 30.5,64C 29.7476,64.6708 29.4142,65.5041 29.5,66.5C 28.8333,66.5 28.1667,66.5 27.5,66.5C 27.5,65.5 27.5,64.5 27.5,63.5C 25.8333,63.5 24.1667,63.5 22.5,63.5C 22.5,64.5 22.5,65.5 22.5,66.5C 20.7163,65.2801 19.0496,65.2801 17.5,66.5C 16.8333,66.5 16.5,66.1667 16.5,65.5C 17.209,64.596 18.209,64.2627 19.5,64.5C 21.3786,64.6068 21.7119,64.1068 20.5,63C 23.6946,62.8195 26.6946,62.3195 29.5,61.5C 29.5,60.8333 29.8333,60.5 30.5,60.5 Z"/></g>
<g><path style="opacity:1" fill="#b0b77f" d="M 53.5,57.5 C 53.8333,57.5 54.1667,57.5 54.5,57.5C 54.5858,58.4959 54.2524,59.3292 53.5,60C 54.448,60.4828 55.448,60.6495 56.5,60.5C 56.5,60.8333 56.5,61.1667 56.5,61.5C 53.4824,61.7038 50.4824,62.0371 47.5,62.5C 46.1667,62.5 44.8333,62.5 43.5,62.5C 42.8333,62.5 42.1667,62.5 41.5,62.5C 39.8212,62.7148 38.8212,62.0481 38.5,60.5C 39.1667,60.5 39.8333,60.5 40.5,60.5C 44.1817,60.6653 47.8484,60.4986 51.5,60C 52.3805,59.2917 53.0472,58.4584 53.5,57.5 Z"/></g>
<g><path style="opacity:1" fill="#8c9b60" d="M 106.5,58.5 C 107.398,59.1577 108.398,59.8243 109.5,60.5C 109.137,61.1835 108.804,61.8501 108.5,62.5C 107.5,62.8333 106.833,63.5 106.5,64.5C 106.167,64.5 105.833,64.5 105.5,64.5C 104.1,63.8999 103.1,62.8999 102.5,61.5C 102.5,60.8333 102.5,60.1667 102.5,59.5C 103.708,58.7659 105.041,58.4326 106.5,58.5 Z"/></g>
<g><path style="opacity:0.8" fill="#c1a77f" d="M 5.5,60.5 C 8.69671,62.0037 9.03004,63.6703 6.5,65.5C 6.73731,64.209 6.40397,63.209 5.5,62.5C 5.5,61.8333 5.5,61.1667 5.5,60.5 Z"/></g>
<g><path style="opacity:1" fill="#a6a858" d="M 56.5,61.5 C 56.5,62.5 56.5,63.5 56.5,64.5C 57.5,64.5 58.5,64.5 59.5,64.5C 56.8976,65.9687 54.731,65.302 53,62.5C 52.5172,63.448 52.3505,64.448 52.5,65.5C 50.7839,65.6287 49.1172,65.962 47.5,66.5C 47.5,65.1667 47.5,63.8333 47.5,62.5C 50.4824,62.0371 53.4824,61.7038 56.5,61.5 Z"/></g>
<g><path style="opacity:1" fill="#6e7d3e" d="M 15.5,61.5 C 16.8333,61.5 18.1667,61.5 19.5,61.5C 19.5,62.5 19.5,63.5 19.5,64.5C 18.209,64.2627 17.209,64.596 16.5,65.5C 15.5655,64.4324 15.2322,63.099 15.5,61.5 Z"/></g>
<g><path style="opacity:1" fill="#88934e" d="M 43.5,62.5 C 44.8333,62.5 46.1667,62.5 47.5,62.5C 47.5,63.8333 47.5,65.1667 47.5,66.5C 47.1667,66.5 46.8333,66.5 46.5,66.5C 45.5,65.1667 44.5,63.8333 43.5,62.5 Z"/></g>
<g><path style="opacity:1" fill="#beba64" d="M 62.5,64.5 C 65.2869,65.4767 68.2869,65.81 71.5,65.5C 69.0521,66.4731 66.3854,66.8064 63.5,66.5C 62.5,66.5 61.5,66.5 60.5,66.5C 57.7628,66.5987 55.0961,66.2653 52.5,65.5C 52.3505,64.448 52.5172,63.448 53,62.5C 54.731,65.302 56.8976,65.9687 59.5,64.5C 59.5,63.5 59.5,62.5 59.5,61.5C 60.5,61.5 61.5,61.5 62.5,61.5C 62.5,62.5 62.5,63.5 62.5,64.5 Z"/></g>
<g><path style="opacity:1" fill="#a0ab76" d="M 102.5,61.5 C 103.1,62.8999 104.1,63.8999 105.5,64.5C 103.533,64.7394 101.699,64.4061 100,63.5C 99.8119,61.9387 100.645,61.272 102.5,61.5 Z"/></g>
<g><path style="opacity:1" fill="#a0a375" d="M 120.5,62.5 C 121.833,62.5 123.167,62.5 124.5,62.5C 122.5,63.1667 120.5,63.8333 118.5,64.5C 117.167,64.5 115.833,64.5 114.5,64.5C 116.102,62.9261 118.102,62.2594 120.5,62.5 Z"/></g>
<g><path style="opacity:1" fill="#b8b86e" d="M 27.5,66.5 C 25.8333,66.5 24.1667,66.5 22.5,66.5C 22.5,65.5 22.5,64.5 22.5,63.5C 24.1667,63.5 25.8333,63.5 27.5,63.5C 27.5,64.5 27.5,65.5 27.5,66.5 Z"/></g>
<g><path style="opacity:1" fill="#bbbb70" d="M 67.5,61.5 C 68.8333,61.5 70.1667,61.5 71.5,61.5C 71.7329,63.0618 72.3995,64.3951 73.5,65.5C 72.8333,65.5 72.1667,65.5 71.5,65.5C 68.2869,65.81 65.2869,65.4767 62.5,64.5C 65.0336,64.7409 66.7002,63.7409 67.5,61.5 Z"/></g>
<g><path style="opacity:1" fill="#bfbb69" d="M 86.5,63.5 C 87.1667,63.5 87.8333,63.5 88.5,63.5C 90.9496,63.298 93.283,63.6314 95.5,64.5C 95.5,64.8333 95.5,65.1667 95.5,65.5C 95.1788,67.0481 94.1788,67.7148 92.5,67.5C 90.7354,66.5386 88.7354,66.2053 86.5,66.5C 85.375,65.6522 85.375,64.6522 86.5,63.5 Z"/></g>
<g><path style="opacity:0.845" fill="#d5d4b2" d="M 124.5,62.5 C 125.167,62.5 125.833,62.5 126.5,62.5C 125.833,63.5 125.167,64.5 124.5,65.5C 121.193,66.0508 117.86,66.3841 114.5,66.5C 114.5,66.1667 114.5,65.8333 114.5,65.5C 116.099,65.7678 117.432,65.4345 118.5,64.5C 120.5,63.8333 122.5,63.1667 124.5,62.5 Z"/></g>
<g><path style="opacity:1" fill="#ca856d" d="M 13.5,59.5 C 13.1936,62.3854 13.5269,65.0521 14.5,67.5C 14.5,68.5 14.5,69.5 14.5,70.5C 14.5,70.8333 14.5,71.1667 14.5,71.5C 11.2869,71.81 8.2869,71.4767 5.5,70.5C 7.01739,70.4894 8.18405,69.8228 9,68.5C 9.8215,65.8832 10.3215,63.2165 10.5,60.5C 11.209,59.596 12.209,59.2627 13.5,59.5 Z"/></g>
<g><path style="opacity:1" fill="#b5b462" d="M 41.5,62.5 C 42.1667,62.5 42.8333,62.5 43.5,62.5C 44.5,63.8333 45.5,65.1667 46.5,66.5C 42.3596,66.3107 38.3596,65.6441 34.5,64.5C 34.5,65.5 34.5,66.5 34.5,67.5C 33.8333,67.5 33.1667,67.5 32.5,67.5C 31.209,67.7373 30.209,67.404 29.5,66.5C 29.4142,65.5041 29.7476,64.6708 30.5,64C 34.3563,63.8227 38.023,63.3227 41.5,62.5 Z"/></g>
<g><path style="opacity:1" fill="#c0bc67" d="M 84.5,63.5 C 84.0472,64.4584 83.3805,65.2917 82.5,66C 79.3035,66.8045 76.3035,66.6378 73.5,65.5C 74.1667,65.5 74.8333,65.5 75.5,65.5C 78.2153,63.877 81.2153,63.2104 84.5,63.5 Z"/></g>
<g><path style="opacity:0.973" fill="#c7c59b" d="M 22.5,66.5 C 24.1667,66.5 25.8333,66.5 27.5,66.5C 28.1667,66.5 28.8333,66.5 29.5,66.5C 30.209,67.404 31.209,67.7373 32.5,67.5C 32.5,67.8333 32.5,68.1667 32.5,68.5C 31.209,68.2627 30.209,68.596 29.5,69.5C 29.5,70.1667 29.1667,70.5 28.5,70.5C 28.5,69.5 28.5,68.5 28.5,67.5C 25.1445,67.0914 22.1445,67.7581 19.5,69.5C 19.5,68.1667 18.8333,67.5 17.5,67.5C 17.5,67.1667 17.5,66.8333 17.5,66.5C 19.0496,65.2801 20.7163,65.2801 22.5,66.5 Z"/></g>
<g><path style="opacity:1" fill="#ccc56f" d="M 46.5,66.5 C 46.8333,66.5 47.1667,66.5 47.5,66.5C 49.1172,65.962 50.7839,65.6287 52.5,65.5C 55.0961,66.2653 57.7628,66.5987 60.5,66.5C 52.0161,67.493 43.3494,67.8264 34.5,67.5C 34.5,66.5 34.5,65.5 34.5,64.5C 38.3596,65.6441 42.3596,66.3107 46.5,66.5 Z"/></g>
<g><path style="opacity:1" fill="#cfc66d" d="M 84.5,63.5 C 85.1667,63.5 85.8333,63.5 86.5,63.5C 85.375,64.6522 85.375,65.6522 86.5,66.5C 79.0182,67.492 71.3516,67.8254 63.5,67.5C 63.5,67.1667 63.5,66.8333 63.5,66.5C 66.3854,66.8064 69.0521,66.4731 71.5,65.5C 72.1667,65.5 72.8333,65.5 73.5,65.5C 76.3035,66.6378 79.3035,66.8045 82.5,66C 83.3805,65.2917 84.0472,64.4584 84.5,63.5 Z"/></g>
<g><path style="opacity:0.98" fill="#b6b893" d="M 114.5,64.5 C 115.833,64.5 117.167,64.5 118.5,64.5C 117.432,65.4345 116.099,65.7678 114.5,65.5C 111.574,66.9118 108.407,67.5785 105,67.5C 102.967,67.4944 101.134,67.1611 99.5,66.5C 103.042,66.8128 106.375,66.4794 109.5,65.5C 110.919,64.5489 112.585,64.2155 114.5,64.5 Z"/></g>
<g><path style="opacity:0.469" fill="#e5e6b7" d="M 127.5,64.5 C 127.5,65.1667 127.5,65.8333 127.5,66.5C 121.362,67.4095 115.362,68.7429 109.5,70.5C 109.5,69.8333 109.5,69.1667 109.5,68.5C 111.167,67.8333 112.833,67.1667 114.5,66.5C 117.86,66.3841 121.193,66.0508 124.5,65.5C 125.609,65.4431 126.609,65.1098 127.5,64.5 Z"/></g>
<g><path style="opacity:1" fill="#ca764d" d="M 5.5,55.5 C 7.33336,57.0258 9.00003,58.6925 10.5,60.5C 10.3215,63.2165 9.8215,65.8832 9,68.5C 8.18405,69.8228 7.01739,70.4894 5.5,70.5C 5.5,69.1667 5.5,67.8333 5.5,66.5C 6.16667,66.5 6.5,66.1667 6.5,65.5C 9.03004,63.6703 8.69671,62.0037 5.5,60.5C 5.5,58.8333 5.5,57.1667 5.5,55.5 Z"/></g>
<g><path style="opacity:1" fill="#8c5c45" d="M 15.5,60.5 C 15.5,60.8333 15.5,61.1667 15.5,61.5C 15.2322,63.099 15.5655,64.4324 16.5,65.5C 16.5,66.1667 16.8333,66.5 17.5,66.5C 17.5,66.8333 17.5,67.1667 17.5,67.5C 17.5,69.5 16.5,70.5 14.5,70.5C 14.5,69.5 14.5,68.5 14.5,67.5C 14.1984,64.9407 14.5318,62.6074 15.5,60.5 Z"/></g>
<g><path style="opacity:0.684" fill="#dbd7aa" d="M 28.5,70.5 C 27.3143,71.9613 27.3143,73.2946 28.5,74.5C 31.1667,75.1667 33.8333,75.8333 36.5,76.5C 33.1667,76.5 29.8333,76.5 26.5,76.5C 26.2436,74.2075 26.5769,72.0408 27.5,70C 25.1209,67.8578 23.1209,68.0245 21.5,70.5C 18.4708,73.4004 14.8041,74.7337 10.5,74.5C 10.5,73.8333 10.5,73.1667 10.5,72.5C 11.8333,72.5 13.1667,72.5 14.5,72.5C 16.3325,71.7515 17.9991,70.7515 19.5,69.5C 22.1445,67.7581 25.1445,67.0914 28.5,67.5C 28.5,68.5 28.5,69.5 28.5,70.5 Z"/></g>
<g><path style="opacity:1" fill="#e3dfb3" d="M 60.5,66.5 C 61.5,66.5 62.5,66.5 63.5,66.5C 63.5,66.8333 63.5,67.1667 63.5,67.5C 68.3054,68.4872 73.3054,68.8205 78.5,68.5C 74.03,69.4861 69.3633,69.8195 64.5,69.5C 63.5,69.5 62.5,69.5 61.5,69.5C 61.1667,69.5 60.8333,69.5 60.5,69.5C 51.3483,68.5064 42.015,68.1731 32.5,68.5C 32.5,68.1667 32.5,67.8333 32.5,67.5C 33.1667,67.5 33.8333,67.5 34.5,67.5C 43.3494,67.8264 52.0161,67.493 60.5,66.5 Z"/></g>
<g><path style="opacity:1" fill="#dfd9a3" d="M 86.5,66.5 C 88.7354,66.2053 90.7354,66.5386 92.5,67.5C 90.901,67.2322 89.5676,67.5655 88.5,68.5C 85.1667,68.5 81.8333,68.5 78.5,68.5C 73.3054,68.8205 68.3054,68.4872 63.5,67.5C 71.3516,67.8254 79.0182,67.492 86.5,66.5 Z"/></g>
<g><path style="opacity:1" fill="#e4e1c6" d="M 29.5,69.5 C 30.209,68.596 31.209,68.2627 32.5,68.5C 42.015,68.1731 51.3483,68.5064 60.5,69.5C 59.791,70.404 58.791,70.7373 57.5,70.5C 51.1903,69.8096 44.857,69.4763 38.5,69.5C 35.8333,69.5 33.1667,69.5 30.5,69.5C 30.1667,69.5 29.8333,69.5 29.5,69.5 Z"/></g>
<g><path style="opacity:1" fill="#d1cfb9" d="M 92.5,67.5 C 93.8333,68.1667 95.1667,68.8333 96.5,69.5C 95.209,69.2627 94.209,69.596 93.5,70.5C 91.8828,69.962 90.2161,69.6287 88.5,69.5C 88.5,69.1667 88.5,68.8333 88.5,68.5C 89.5676,67.5655 90.901,67.2322 92.5,67.5 Z"/></g>
<g><path style="opacity:0.748" fill="#d6d6b0" d="M 95.5,65.5 C 96.8333,65.8333 98.1667,66.1667 99.5,66.5C 101.134,67.1611 102.967,67.4944 105,67.5C 108.407,67.5785 111.574,66.9118 114.5,65.5C 114.5,65.8333 114.5,66.1667 114.5,66.5C 112.833,67.1667 111.167,67.8333 109.5,68.5C 105.176,68.9272 100.842,69.2605 96.5,69.5C 95.1667,68.8333 93.8333,68.1667 92.5,67.5C 94.1788,67.7148 95.1788,67.0481 95.5,65.5 Z"/></g>
<g><path style="opacity:0.298" fill="#dfdfb4" d="M 109.5,68.5 C 109.5,69.1667 109.5,69.8333 109.5,70.5C 105.774,70.1774 102.107,70.5108 98.5,71.5C 97.9649,73.261 96.9649,74.5943 95.5,75.5C 95.4326,74.0413 95.7659,72.7079 96.5,71.5C 96.5,70.8333 96.5,70.1667 96.5,69.5C 100.842,69.2605 105.176,68.9272 109.5,68.5 Z"/></g>
<g><path style="opacity:0.184" fill="#ddd8ac" d="M 5.5,62.5 C 6.40397,63.209 6.73731,64.209 6.5,65.5C 6.5,66.1667 6.16667,66.5 5.5,66.5C 4.16667,68.5 4.16667,70.5 5.5,72.5C 5.5,73.1667 5.5,73.8333 5.5,74.5C 2.87872,74.5228 1.54538,73.1895 1.5,70.5C 1.62174,67.874 2.62174,65.874 4.5,64.5C 5.33825,64.1583 5.67158,63.4916 5.5,62.5 Z"/></g>
<g><path style="opacity:0.973" fill="#dddbc0" d="M 78.5,68.5 C 81.8333,68.5 85.1667,68.5 88.5,68.5C 88.5,68.8333 88.5,69.1667 88.5,69.5C 88.1667,69.5 87.8333,69.5 87.5,69.5C 85.847,69.6596 84.5137,70.3263 83.5,71.5C 83.1667,71.5 82.8333,71.5 82.5,71.5C 77.5,71.5 72.5,71.5 67.5,71.5C 67.1667,71.5 66.8333,71.5 66.5,71.5C 65.8333,70.8333 65.1667,70.1667 64.5,69.5C 69.3633,69.8195 74.03,69.4861 78.5,68.5 Z"/></g>
<g><path style="opacity:0.824" fill="#a89978" d="M 17.5,67.5 C 18.8333,67.5 19.5,68.1667 19.5,69.5C 17.9991,70.7515 16.3325,71.7515 14.5,72.5C 14.5,72.1667 14.5,71.8333 14.5,71.5C 14.5,71.1667 14.5,70.8333 14.5,70.5C 16.5,70.5 17.5,69.5 17.5,67.5 Z"/></g>
<g><path style="opacity:0.157" fill="#e9ebb8" d="M 36.5,76.5 C 33.0242,77.6433 29.3575,77.8099 25.5,77C 24.5769,74.9592 24.2436,72.7925 24.5,70.5C 23.5,70.5 22.5,70.5 21.5,70.5C 23.1209,68.0245 25.1209,67.8578 27.5,70C 26.5769,72.0408 26.2436,74.2075 26.5,76.5C 29.8333,76.5 33.1667,76.5 36.5,76.5 Z"/></g>
<g><path style="opacity:1" fill="#a47563" d="M 30.5,70.5 C 34.0781,70.5488 37.4115,71.2154 40.5,72.5C 39.0813,73.4511 37.4147,73.7845 35.5,73.5C 33.9611,72.2329 32.2944,71.2329 30.5,70.5 Z"/></g>
<g><path style="opacity:1" fill="#a08c78" d="M 30.5,70.5 C 30.5,70.1667 30.5,69.8333 30.5,69.5C 33.1667,69.5 35.8333,69.5 38.5,69.5C 40.5313,69.9724 42.1979,70.9724 43.5,72.5C 43.1667,72.5 42.8333,72.5 42.5,72.5C 41.8333,72.5 41.1667,72.5 40.5,72.5C 37.4115,71.2154 34.0781,70.5488 30.5,70.5 Z"/></g>
<g><path style="opacity:0.671" fill="#d7d6b8" d="M 38.5,69.5 C 44.857,69.4763 51.1903,69.8096 57.5,70.5C 57.5,70.8333 57.5,71.1667 57.5,71.5C 57.1667,71.5 56.8333,71.5 56.5,71.5C 52.0685,71.2307 47.7352,71.564 43.5,72.5C 42.1979,70.9724 40.5313,69.9724 38.5,69.5 Z"/></g>
<g><path style="opacity:0.643" fill="#a69e7d" d="M 93.5,70.5 C 94.209,69.596 95.209,69.2627 96.5,69.5C 96.5,70.1667 96.5,70.8333 96.5,71.5C 95.8333,71.5 95.1667,71.5 94.5,71.5C 94.5,70.8333 94.1667,70.5 93.5,70.5 Z"/></g>
<g><path style="opacity:0.973" fill="#d09e73" d="M 5.5,66.5 C 5.5,67.8333 5.5,69.1667 5.5,70.5C 8.2869,71.4767 11.2869,71.81 14.5,71.5C 14.5,71.8333 14.5,72.1667 14.5,72.5C 13.1667,72.5 11.8333,72.5 10.5,72.5C 8.83333,72.5 7.16667,72.5 5.5,72.5C 4.16667,70.5 4.16667,68.5 5.5,66.5 Z"/></g>
<g><path style="opacity:0.133" fill="#e0dfb0" d="M 56.5,71.5 C 55.1346,73.5909 54.4679,75.9242 54.5,78.5C 53.5655,77.4324 53.2322,76.099 53.5,74.5C 49.6579,73.4608 45.6579,73.4608 41.5,74.5C 41.8333,73.8333 42.1667,73.1667 42.5,72.5C 42.8333,72.5 43.1667,72.5 43.5,72.5C 47.7352,71.564 52.0685,71.2307 56.5,71.5 Z"/></g>
<g><path style="opacity:1" fill="#c2a095" d="M 60.5,69.5 C 60.8333,69.5 61.1667,69.5 61.5,69.5C 60.8505,71.4352 60.5172,73.4352 60.5,75.5C 59.4246,76.5624 58.4246,76.5624 57.5,75.5C 58.7053,74.0052 58.7053,72.6719 57.5,71.5C 57.5,71.1667 57.5,70.8333 57.5,70.5C 58.791,70.7373 59.791,70.404 60.5,69.5 Z"/></g>
<g><path style="opacity:1" fill="#8d756d" d="M 61.5,69.5 C 62.5,69.5 63.5,69.5 64.5,69.5C 65.1667,70.1667 65.8333,70.8333 66.5,71.5C 66.5,71.8333 66.5,72.1667 66.5,72.5C 64.6203,72.2291 63.287,72.8958 62.5,74.5C 62.5,74.8333 62.5,75.1667 62.5,75.5C 61.8333,75.5 61.1667,75.5 60.5,75.5C 60.5172,73.4352 60.8505,71.4352 61.5,69.5 Z"/></g>
<g><path style="opacity:0.19" fill="#d8d6a7" d="M 67.5,71.5 C 72.5,71.5 77.5,71.5 82.5,71.5C 81.6993,73.0418 81.366,74.7085 81.5,76.5C 84.201,77.2493 86.8677,78.2493 89.5,79.5C 89.0831,80.1239 88.4164,80.4573 87.5,80.5C 84.8546,79.8924 82.1879,79.3924 79.5,79C 78.5939,77.3005 78.2606,75.4672 78.5,73.5C 74.5874,73.1868 70.9207,73.8534 67.5,75.5C 67.5,74.1667 67.5,72.8333 67.5,71.5 Z"/></g>
<g><path style="opacity:1" fill="#c4a498" d="M 87.5,69.5 C 87.8588,71.7659 87.1922,73.5993 85.5,75C 86.0944,75.4643 86.7611,75.631 87.5,75.5C 87.5,75.8333 87.5,76.1667 87.5,76.5C 86.5,76.5 85.5,76.5 84.5,76.5C 84.7845,74.5853 84.4511,72.9187 83.5,71.5C 84.5137,70.3263 85.847,69.6596 87.5,69.5 Z"/></g>
<g><path style="opacity:1" fill="#d5a883" d="M 82.5,71.5 C 82.8333,71.5 83.1667,71.5 83.5,71.5C 84.4511,72.9187 84.7845,74.5853 84.5,76.5C 83.5,76.5 82.5,76.5 81.5,76.5C 81.366,74.7085 81.6993,73.0418 82.5,71.5 Z"/></g>
<g><path style="opacity:1" fill="#a28b82" d="M 87.5,69.5 C 87.8333,69.5 88.1667,69.5 88.5,69.5C 90.2161,69.6287 91.8828,69.962 93.5,70.5C 92.8333,71.5 92.1667,72.5 91.5,73.5C 89.9382,73.7329 88.6049,74.3995 87.5,75.5C 86.7611,75.631 86.0944,75.4643 85.5,75C 87.1922,73.5993 87.8588,71.7659 87.5,69.5 Z"/></g>
<g><path style="opacity:1" fill="#a56d52" d="M 93.5,70.5 C 94.1667,70.5 94.5,70.8333 94.5,71.5C 94.573,73.0269 93.9063,74.0269 92.5,74.5C 91.8333,74.5 91.5,74.1667 91.5,73.5C 92.1667,72.5 92.8333,71.5 93.5,70.5 Z"/></g>
<g><path style="opacity:0.298" fill="#c8b188" d="M 5.5,72.5 C 7.16667,72.5 8.83333,72.5 10.5,72.5C 10.5,73.1667 10.5,73.8333 10.5,74.5C 8.83333,74.5 7.16667,74.5 5.5,74.5C 5.5,73.8333 5.5,73.1667 5.5,72.5 Z"/></g>
<g><path style="opacity:1" fill="#c8906d" d="M 29.5,69.5 C 29.8333,69.5 30.1667,69.5 30.5,69.5C 30.5,69.8333 30.5,70.1667 30.5,70.5C 32.2944,71.2329 33.9611,72.2329 35.5,73.5C 33.3926,74.4682 31.0593,74.8016 28.5,74.5C 27.3143,73.2946 27.3143,71.9613 28.5,70.5C 29.1667,70.5 29.5,70.1667 29.5,69.5 Z"/></g>
<g><path style="opacity:0.757" fill="#bfab84" d="M 40.5,72.5 C 41.1667,72.5 41.8333,72.5 42.5,72.5C 42.1667,73.1667 41.8333,73.8333 41.5,74.5C 39.5168,74.1568 38.1834,74.8235 37.5,76.5C 37.1667,76.5 36.8333,76.5 36.5,76.5C 33.8333,75.8333 31.1667,75.1667 28.5,74.5C 31.0593,74.8016 33.3926,74.4682 35.5,73.5C 37.4147,73.7845 39.0813,73.4511 40.5,72.5 Z"/></g>
<g><path style="opacity:1" fill="#87503a" d="M 66.5,72.5 C 66.1667,73.5 65.5,74.1667 64.5,74.5C 63.8333,74.5 63.1667,74.5 62.5,74.5C 63.287,72.8958 64.6203,72.2291 66.5,72.5 Z"/></g>
<g><path style="opacity:0.384" fill="#b6a37e" d="M 66.5,71.5 C 66.8333,71.5 67.1667,71.5 67.5,71.5C 67.5,72.8333 67.5,74.1667 67.5,75.5C 66.391,75.5569 65.391,75.8902 64.5,76.5C 64.5,75.8333 64.5,75.1667 64.5,74.5C 65.5,74.1667 66.1667,73.5 66.5,72.5C 66.5,72.1667 66.5,71.8333 66.5,71.5 Z"/></g>
<g><path style="opacity:1" fill="#c0815a" d="M 91.5,73.5 C 91.5,74.1667 91.8333,74.5 92.5,74.5C 91.3646,76.2132 89.698,76.8799 87.5,76.5C 87.5,76.1667 87.5,75.8333 87.5,75.5C 88.6049,74.3995 89.9382,73.7329 91.5,73.5 Z"/></g>
<g><path style="opacity:0.008" fill="#e2e2b1" d="M 41.5,74.5 C 40.8166,76.1765 39.4832,76.8432 37.5,76.5C 38.1834,74.8235 39.5168,74.1568 41.5,74.5 Z"/></g>
<g><path style="opacity:0.98" fill="#b37147" d="M 62.5,74.5 C 63.1667,74.5 63.8333,74.5 64.5,74.5C 64.5,75.1667 64.5,75.8333 64.5,76.5C 63.5084,76.6716 62.8417,76.3382 62.5,75.5C 62.5,75.1667 62.5,74.8333 62.5,74.5 Z"/></g>
<g><path style="opacity:0.357" fill="#d6cc9f" d="M 94.5,71.5 C 95.1667,71.5 95.8333,71.5 96.5,71.5C 95.7659,72.7079 95.4326,74.0413 95.5,75.5C 94.1718,77.719 92.1718,79.0523 89.5,79.5C 86.8677,78.2493 84.201,77.2493 81.5,76.5C 82.5,76.5 83.5,76.5 84.5,76.5C 85.5,76.5 86.5,76.5 87.5,76.5C 89.698,76.8799 91.3646,76.2132 92.5,74.5C 93.9063,74.0269 94.573,73.0269 94.5,71.5 Z"/></g>
<g><path style="opacity:0.91" fill="#cab18a" d="M 56.5,71.5 C 56.8333,71.5 57.1667,71.5 57.5,71.5C 58.7053,72.6719 58.7053,74.0052 57.5,75.5C 58.4246,76.5624 59.4246,76.5624 60.5,75.5C 61.1667,75.5 61.8333,75.5 62.5,75.5C 62.8417,76.3382 63.5084,76.6716 64.5,76.5C 64.38,77.5862 63.7133,78.2528 62.5,78.5C 59.905,77.7628 57.2384,77.7628 54.5,78.5C 54.4679,75.9242 55.1346,73.5909 56.5,71.5 Z"/></g>
<g><path style="opacity:0.157" fill="#e1e1b1" d="M 53.5,74.5 C 53.2322,76.099 53.5655,77.4324 54.5,78.5C 57.2384,77.7628 59.905,77.7628 62.5,78.5C 63.7133,78.2528 64.38,77.5862 64.5,76.5C 65.391,75.8902 66.391,75.5569 67.5,75.5C 67.3757,77.5816 66.3757,79.0816 64.5,80C 60.6004,79.6159 56.6004,79.7825 52.5,80.5C 52.2053,78.2646 52.5386,76.2646 53.5,74.5 Z"/></g>
</svg>
