<?xml version="1.0" encoding="UTF-8"?>
<!DOCTYPE svg PUBLIC "-//W3C//DTD SVG 1.1//EN" "http://www.w3.org/Graphics/SVG/1.1/DTD/svg11.dtd">
<svg xmlns="http://www.w3.org/2000/svg" version="1.1" width="128px" height="128px" style="shape-rendering:geometricPrecision; text-rendering:geometricPrecision; image-rendering:optimizeQuality; fill-rule:evenodd; clip-rule:evenodd" xmlns:xlink="http://www.w3.org/1999/xlink">
<g><path style="opacity:0.007" fill="#ecefbf" d="M 36.5,46.5 C 33.2005,45.2525 29.8672,45.2525 26.5,46.5C 26.6107,45.8826 26.944,45.3826 27.5,45C 29,44.8333 30.5,44.6667 32,44.5C 33.9855,44.5687 35.4855,45.2353 36.5,46.5 Z"/></g>
<g><path style="opacity:1" fill="#0a0a08" d="M 36.5,46.5 C 40.0128,46.3075 43.3462,46.9741 46.5,48.5C 66.2312,49.1782 85.8978,49.8449 105.5,50.5C 106.29,51.4013 107.29,52.0679 108.5,52.5C 112.298,53.4767 115.964,54.81 119.5,56.5C 121.214,57.7384 123.214,58.405 125.5,58.5C 126.167,58.5 126.833,58.5 127.5,58.5C 127.5,61.1667 127.5,63.8333 127.5,66.5C 117.944,68.7081 108.278,70.3747 98.5,71.5C 97.9649,73.261 96.9649,74.5943 95.5,75.5C 94.5,75.8333 93.8333,76.5 93.5,77.5C 91.9611,79.2463 89.9611,80.2463 87.5,80.5C 84.6507,80.0356 81.984,79.3689 79.5,78.5C 79.5,76.5 79.5,74.5 79.5,72.5C 75.9581,72.1872 72.6248,72.5206 69.5,73.5C 68.8776,75.1216 67.8776,76.4549 66.5,77.5C 65.5,77.8333 64.8333,78.5 64.5,79.5C 61.2082,79.8534 57.8748,80.1867 54.5,80.5C 53.4696,77.8962 53.4696,75.2295 54.5,72.5C 51.2869,72.19 48.2869,72.5233 45.5,73.5C 44.4324,74.4345 43.099,74.7678 41.5,74.5C 40.0048,74.9887 38.6715,75.6554 37.5,76.5C 33.5874,77.5958 29.5874,77.7625 25.5,77C 24.6198,75.6439 24.2865,74.1439 24.5,72.5C 25.404,71.791 25.7373,70.791 25.5,69.5C 23.5853,69.2155 21.9187,69.5489 20.5,70.5C 19.5475,72.61 17.8808,73.7767 15.5,74C 11.1287,74.8275 6.79535,74.6609 2.5,73.5C 1.18101,71.4684 1.18101,69.4684 2.5,67.5C 3.40128,66.7095 4.06795,65.7095 4.5,64.5C 4.5,63.8333 4.5,63.1667 4.5,62.5C 4.16667,61.5 3.5,60.8333 2.5,60.5C 1.17827,58.1979 1.17827,55.8646 2.5,53.5C 7.21638,52.2254 11.883,52.2254 16.5,53.5C 16.9731,54.9063 17.9731,55.573 19.5,55.5C 21.0418,56.3007 22.7085,56.634 24.5,56.5C 23.931,52.6707 24.5977,49.3373 26.5,46.5C 29.8672,45.2525 33.2005,45.2525 36.5,46.5 Z"/></g>
<g><path style="opacity:0.016" fill="#ecedbb" d="M 105.5,50.5 C 107.179,50.2852 108.179,50.9519 108.5,52.5C 107.29,52.0679 106.29,51.4013 105.5,50.5 Z"/></g>
<g><path style="opacity:0.004" fill="#f0f1bf" d="M 16.5,53.5 C 18.0269,53.427 19.0269,54.0937 19.5,55.5C 17.9731,55.573 16.9731,54.9063 16.5,53.5 Z"/></g>
<g><path style="opacity:0.012" fill="#eeefbc" d="M 119.5,56.5 C 122.01,56.0535 124.01,56.7202 125.5,58.5C 123.214,58.405 121.214,57.7384 119.5,56.5 Z"/></g>
<g><path style="opacity:0.004" fill="#eeefbc" d="M 2.5,60.5 C 3.5,60.8333 4.16667,61.5 4.5,62.5C 3.16667,62.5 2.5,61.8333 2.5,60.5 Z"/></g>
<g><path style="opacity:0.059" fill="#e6e8b7" d="M 4.5,64.5 C 4.06795,65.7095 3.40128,66.7095 2.5,67.5C 2.28519,65.8212 2.95186,64.8212 4.5,64.5 Z"/></g>
<g><path style="opacity:0.025" fill="#e2e3b2" d="M 20.5,70.5 C 21.9187,69.5489 23.5853,69.2155 25.5,69.5C 25.7373,70.791 25.404,71.791 24.5,72.5C 23.8166,70.8235 22.4832,70.1568 20.5,70.5 Z"/></g>
<g><path style="opacity:0.047" fill="#dfe0b0" d="M 45.5,73.5 C 48.2869,72.5233 51.2869,72.19 54.5,72.5C 53.4696,75.2295 53.4696,77.8962 54.5,80.5C 52.2336,78.8067 51.9003,76.6401 53.5,74C 50.854,73.5026 48.1873,73.3359 45.5,73.5 Z"/></g>
<g><path style="opacity:0.043" fill="#d2d2a5" d="M 69.5,73.5 C 72.6248,72.5206 75.9581,72.1872 79.5,72.5C 79.5,74.5 79.5,76.5 79.5,78.5C 78.5489,77.0813 78.2155,75.4147 78.5,73.5C 75.5,73.5 72.5,73.5 69.5,73.5 Z"/></g>
<g><path style="opacity:0.008" fill="#dadaab" d="M 41.5,74.5 C 40.8166,76.1765 39.4832,76.8432 37.5,76.5C 38.6715,75.6554 40.0048,74.9887 41.5,74.5 Z"/></g>
<g><path style="opacity:0.004" fill="#f4f4ca" d="M 95.5,75.5 C 95.5,76.8333 94.8333,77.5 93.5,77.5C 93.8333,76.5 94.5,75.8333 95.5,75.5 Z"/></g>
<g><path style="opacity:0.004" fill="#dedcad" d="M 66.5,77.5 C 66.5,78.8333 65.8333,79.5 64.5,79.5C 64.8333,78.5 65.5,77.8333 66.5,77.5 Z"/></g>
</svg>
