<?xml version="1.0" encoding="UTF-8"?>
<!DOCTYPE svg PUBLIC "-//W3C//DTD SVG 1.1//EN" "http://www.w3.org/Graphics/SVG/1.1/DTD/svg11.dtd">
<svg xmlns="http://www.w3.org/2000/svg" version="1.1" width="128px" height="128px" style="shape-rendering:geometricPrecision; text-rendering:geometricPrecision; image-rendering:optimizeQuality; fill-rule:evenodd; clip-rule:evenodd" xmlns:xlink="http://www.w3.org/1999/xlink">
<g><path style="opacity:1" fill="#060606" d="M 59.5,38.5 C 64.5538,41.3741 69.2205,44.8741 73.5,49C 89.179,49.3382 103.846,53.3382 117.5,61C 120.311,64.2935 119.978,67.2935 116.5,70C 103.069,77.1077 88.7353,80.6077 73.5,80.5C 67.2825,91.818 64.2825,91.1514 64.5,78.5C 60.4934,77.9963 56.4934,77.8297 52.5,78C 49.2079,81.4146 45.3746,82.9146 41,82.5C 40.6725,78.3585 39.8392,74.3585 38.5,70.5C 36.3037,70.41 34.137,70.0767 32,69.5C 26.1241,71.5199 20.2908,73.6866 14.5,76C 11.854,76.4974 9.1873,76.6641 6.5,76.5C 6.35055,75.448 6.51722,74.448 7,73.5C 10.6724,70.6579 14.1724,67.6579 17.5,64.5C 14.0925,60.6819 10.9259,56.6819 8,52.5C 7.38277,51.5509 7.54943,50.7175 8.5,50C 9.83333,49.3333 11.1667,49.3333 12.5,50C 17.8333,53 23.1667,56 28.5,59C 37.6606,59.7677 46.3273,58.101 54.5,54C 54.1667,53.6667 53.8333,53.3333 53.5,53C 57.5364,49.0334 59.5364,44.2 59.5,38.5 Z"/></g>
</svg>
