<?xml version="1.0" encoding="UTF-8"?>
<!DOCTYPE svg PUBLIC "-//W3C//DTD SVG 1.1//EN" "http://www.w3.org/Graphics/SVG/1.1/DTD/svg11.dtd">
<svg xmlns="http://www.w3.org/2000/svg" version="1.1" width="128px" height="128px" style="shape-rendering:geometricPrecision; text-rendering:geometricPrecision; image-rendering:optimizeQuality; fill-rule:evenodd; clip-rule:evenodd" xmlns:xlink="http://www.w3.org/1999/xlink">
<g><path style="opacity:0.09" fill="#c6b1a9" d="M 61.5,39.5 C 63.4044,39.7376 64.7377,40.7376 65.5,42.5C 63.5956,42.2624 62.2623,41.2624 61.5,39.5 Z"/></g>
<g><path style="opacity:1" fill="#724e41" d="M 56.5,53.5 C 55.9569,53.44 55.6236,53.1067 55.5,52.5C 56.6302,51.3777 57.2969,50.0443 57.5,48.5C 58.9573,46.7582 60.124,44.7582 61,42.5C 61.9025,43.7014 63.0692,44.5348 64.5,45C 62.1088,45.6914 62.1088,46.6914 64.5,48C 61.2444,49.116 58.5777,50.9493 56.5,53.5 Z"/></g>
<g><path style="opacity:1" fill="#906455" d="M 61.5,39.5 C 62.2623,41.2624 63.5956,42.2624 65.5,42.5C 66.8333,43.5 68.1667,44.5 69.5,45.5C 70.075,47.4113 71.075,49.078 72.5,50.5C 67.7723,51.2455 63.1056,52.2455 58.5,53.5C 57.8333,53.5 57.1667,53.5 56.5,53.5C 58.5777,50.9493 61.2444,49.116 64.5,48C 62.1088,46.6914 62.1088,45.6914 64.5,45C 63.0692,44.5348 61.9025,43.7014 61,42.5C 60.124,44.7582 58.9573,46.7582 57.5,48.5C 58.1882,45.0821 59.1882,41.7488 60.5,38.5C 61.1067,38.6236 61.44,38.9569 61.5,39.5 Z"/></g>
<g><path style="opacity:0.345" fill="#aaa8a2" d="M 69.5,45.5 C 70.9616,46.4577 72.2949,47.6244 73.5,49C 76.6946,49.1805 79.6946,49.6805 82.5,50.5C 79.1667,50.5 75.8333,50.5 72.5,50.5C 71.075,49.078 70.075,47.4113 69.5,45.5 Z"/></g>
<g><path style="opacity:0.988" fill="#998b84" d="M 57.5,48.5 C 57.2969,50.0443 56.6302,51.3777 55.5,52.5C 55.6236,53.1067 55.9569,53.44 56.5,53.5C 57.1667,53.5 57.8333,53.5 58.5,53.5C 57.2196,54.9313 55.5529,55.5979 53.5,55.5C 53.4139,52.6965 54.7473,50.3632 57.5,48.5 Z"/></g>
<g><path style="opacity:1" fill="#907a72" d="M 14.5,51.5 C 8.17464,51.0038 7.84131,52.1705 13.5,55C 13.1667,55.3333 12.8333,55.6667 12.5,56C 14.0854,58.0693 15.4187,60.236 16.5,62.5C 13.1752,59.1677 10.1752,55.5011 7.5,51.5C 9.78583,48.9805 12.1192,48.9805 14.5,51.5 Z"/></g>
<g><path style="opacity:1" fill="#4f655d" d="M 72.5,50.5 C 75.8333,50.5 79.1667,50.5 82.5,50.5C 90.0526,50.3617 97.0526,52.0284 103.5,55.5C 103.38,58.2048 104.38,58.8715 106.5,57.5C 108.78,58.1359 110.78,59.1359 112.5,60.5C 111.391,60.5569 110.391,60.8902 109.5,61.5C 107.898,59.9261 105.898,59.2594 103.5,59.5C 88.878,52.8543 73.878,51.8543 58.5,56.5C 48.7306,59.6539 38.7306,61.6539 28.5,62.5C 28.5,61.8333 28.5,61.1667 28.5,60.5C 29.1667,60.5 29.5,60.1667 29.5,59.5C 37.701,59.3262 45.701,57.9929 53.5,55.5C 55.5529,55.5979 57.2196,54.9313 58.5,53.5C 63.1056,52.2455 67.7723,51.2455 72.5,50.5 Z"/></g>
<g><path style="opacity:1" fill="#a1bbb1" d="M 103.5,59.5 C 98.9148,68.4251 101.581,71.5918 111.5,69C 113.459,68.0691 115.459,67.2357 117.5,66.5C 118.298,66.0431 118.631,65.3764 118.5,64.5C 118.833,64.5 119.167,64.5 119.5,64.5C 119.607,66.9032 118.607,68.7365 116.5,70C 113.473,71.5133 110.473,73.0133 107.5,74.5C 107.209,73.3509 106.376,72.6842 105,72.5C 102.654,73.5034 100.487,73.5034 98.5,72.5C 97.1048,70.6206 95.1048,69.6206 92.5,69.5C 94.9028,68.8692 97.2361,67.8692 99.5,66.5C 95.039,64.6396 90.3724,63.473 85.5,63C 77.1733,62.5003 68.84,62.3336 60.5,62.5C 59.2702,60.7028 58.6036,58.7028 58.5,56.5C 73.878,51.8543 88.878,52.8543 103.5,59.5 Z"/></g>
<g><path style="opacity:1" fill="#775548" d="M 14.5,51.5 C 16.674,51.7497 18.3406,52.7497 19.5,54.5C 20.6843,55.6879 20.6843,56.8545 19.5,58C 20.8333,58.6667 22.1667,59.3333 23.5,60C 22.3595,60.7412 22.3595,61.5745 23.5,62.5C 21.6155,63.1973 21.2822,64.1973 22.5,65.5C 21.9747,66.1924 21.3081,66.6924 20.5,67C 21.9561,67.4226 22.4561,68.2559 22,69.5C 20.1598,68.1669 19.6598,68.3335 20.5,70C 19.5,70.3333 18.5,70.6667 17.5,71C 18.4158,71.2784 19.0825,71.7784 19.5,72.5C 15.8562,74.8775 11.8562,75.7108 7.5,75C 8.7101,73.9609 9.7101,72.7942 10.5,71.5C 12.1696,68.9984 14.3363,66.9984 17,65.5C 17.4696,64.4232 17.3029,63.4232 16.5,62.5C 15.4187,60.236 14.0854,58.0693 12.5,56C 12.8333,55.6667 13.1667,55.3333 13.5,55C 7.84131,52.1705 8.17464,51.0038 14.5,51.5 Z"/></g>
<g><path style="opacity:1" fill="#788883" d="M 103.5,55.5 C 108.408,56.6375 113.074,58.4708 117.5,61C 118.823,61.8159 119.489,62.9826 119.5,64.5C 119.167,64.5 118.833,64.5 118.5,64.5C 117.292,63.7659 115.959,63.4326 114.5,63.5C 114.573,61.9731 113.906,60.9731 112.5,60.5C 110.78,59.1359 108.78,58.1359 106.5,57.5C 104.38,58.8715 103.38,58.2048 103.5,55.5 Z"/></g>
<g><path style="opacity:1" fill="#9eb7ae" d="M 58.5,56.5 C 58.6036,58.7028 59.2702,60.7028 60.5,62.5C 57.3775,62.3182 54.7109,63.3182 52.5,65.5C 48.8333,62.8333 45.1667,62.8333 41.5,65.5C 36.8491,64.8843 32.1825,64.2177 27.5,63.5C 27.6236,62.8933 27.9569,62.56 28.5,62.5C 38.7306,61.6539 48.7306,59.6539 58.5,56.5 Z"/></g>
<g><path style="opacity:1" fill="#7a978b" d="M 103.5,59.5 C 105.898,59.2594 107.898,59.9261 109.5,61.5C 109.176,64.6802 110.51,65.8469 113.5,65C 114.056,64.6174 114.389,64.1174 114.5,63.5C 115.959,63.4326 117.292,63.7659 118.5,64.5C 118.631,65.3764 118.298,66.0431 117.5,66.5C 115.459,67.2357 113.459,68.0691 111.5,69C 101.581,71.5918 98.9148,68.4251 103.5,59.5 Z"/></g>
<g><path style="opacity:1" fill="#996959" d="M 19.5,54.5 C 22.8068,56.1534 26.1401,57.8201 29.5,59.5C 29.5,60.1667 29.1667,60.5 28.5,60.5C 24.5327,63.2561 24.5327,65.9227 28.5,68.5C 27.8333,69.1667 27.1667,69.8333 26.5,70.5C 24.079,70.8782 21.7457,71.5448 19.5,72.5C 19.0825,71.7784 18.4158,71.2784 17.5,71C 18.5,70.6667 19.5,70.3333 20.5,70C 19.6598,68.3335 20.1598,68.1669 22,69.5C 22.4561,68.2559 21.9561,67.4226 20.5,67C 21.3081,66.6924 21.9747,66.1924 22.5,65.5C 21.2822,64.1973 21.6155,63.1973 23.5,62.5C 22.3595,61.5745 22.3595,60.7412 23.5,60C 22.1667,59.3333 20.8333,58.6667 19.5,58C 20.6843,56.8545 20.6843,55.6879 19.5,54.5 Z"/></g>
<g><path style="opacity:1" fill="#90a79f" d="M 28.5,60.5 C 28.5,61.1667 28.5,61.8333 28.5,62.5C 27.9569,62.56 27.6236,62.8933 27.5,63.5C 32.1825,64.2177 36.8491,64.8843 41.5,65.5C 45.1667,62.8333 48.8333,62.8333 52.5,65.5C 54.7109,63.3182 57.3775,62.3182 60.5,62.5C 68.84,62.3336 77.1733,62.5003 85.5,63C 90.3724,63.473 95.039,64.6396 99.5,66.5C 97.2361,67.8692 94.9028,68.8692 92.5,69.5C 88.6707,68.931 85.3373,69.5977 82.5,71.5C 70.7166,70.9129 59.0499,69.4129 47.5,67C 48.6956,66.3457 48.6956,65.8457 47.5,65.5C 40.8834,66.2962 34.2167,66.7962 27.5,67C 28.056,67.3826 28.3893,67.8826 28.5,68.5C 24.5327,65.9227 24.5327,63.2561 28.5,60.5 Z"/></g>
<g><path style="opacity:1" fill="#93563f" d="M 112.5,60.5 C 113.906,60.9731 114.573,61.9731 114.5,63.5C 114.389,64.1174 114.056,64.6174 113.5,65C 110.51,65.8469 109.176,64.6802 109.5,61.5C 110.391,60.8902 111.391,60.5569 112.5,60.5 Z"/></g>
<g><path style="opacity:1" fill="#a9c2b7" d="M 82.5,71.5 C 84.2163,73.0248 86.2163,74.0248 88.5,74.5C 84.7238,75.8248 80.5572,76.4915 76,76.5C 71.8333,76.3333 67.6667,76.1667 63.5,76C 56.1052,73.8684 48.7719,71.5351 41.5,69C 37.1794,68.501 32.8461,68.3343 28.5,68.5C 28.3893,67.8826 28.056,67.3826 27.5,67C 34.2167,66.7962 40.8834,66.2962 47.5,65.5C 48.6956,65.8457 48.6956,66.3457 47.5,67C 59.0499,69.4129 70.7166,70.9129 82.5,71.5 Z"/></g>
<g><path style="opacity:1" fill="#845c4d" d="M 92.5,69.5 C 95.1048,69.6206 97.1048,70.6206 98.5,72.5C 95.3209,73.7934 91.9876,74.4601 88.5,74.5C 86.2163,74.0248 84.2163,73.0248 82.5,71.5C 85.3373,69.5977 88.6707,68.931 92.5,69.5 Z"/></g>
<g><path style="opacity:1" fill="#99aba4" d="M 28.5,68.5 C 32.8461,68.3343 37.1794,68.501 41.5,69C 48.7719,71.5351 56.1052,73.8684 63.5,76C 67.6667,76.1667 71.8333,76.3333 76,76.5C 80.5572,76.4915 84.7238,75.8248 88.5,74.5C 91.9876,74.4601 95.3209,73.7934 98.5,72.5C 100.487,73.5034 102.654,73.5034 105,72.5C 106.376,72.6842 107.209,73.3509 107.5,74.5C 95.9303,78.0349 84.2636,80.3682 72.5,81.5C 72.5,80.5 72.5,79.5 72.5,78.5C 70.8014,78.3796 69.1347,78.0463 67.5,77.5C 66.2613,77.9424 65.2613,78.6091 64.5,79.5C 60.7329,78.2053 56.7329,77.5387 52.5,77.5C 49.6933,74.2568 46.0266,72.2568 41.5,71.5C 40.2867,71.7472 39.62,72.4138 39.5,73.5C 38.596,72.791 38.2627,71.791 38.5,70.5C 34.4868,69.2948 30.4868,69.2948 26.5,70.5C 27.1667,69.8333 27.8333,69.1667 28.5,68.5 Z"/></g>
<g><path style="opacity:0.424" fill="#a79691" d="M 26.5,70.5 C 20.5744,74.6951 13.9078,76.6951 6.5,76.5C 6.36922,73.6333 7.70256,71.9666 10.5,71.5C 9.7101,72.7942 8.7101,73.9609 7.5,75C 11.8562,75.7108 15.8562,74.8775 19.5,72.5C 21.7457,71.5448 24.079,70.8782 26.5,70.5 Z"/></g>
<g><path style="opacity:1" fill="#966757" d="M 52.5,77.5 C 50.9731,77.427 49.9731,78.0937 49.5,79.5C 49.1667,79.5 48.8333,79.5 48.5,79.5C 46.6182,78.7627 45.9515,77.5961 46.5,76C 44.5932,74.878 42.5932,74.0447 40.5,73.5C 40.1667,73.5 39.8333,73.5 39.5,73.5C 39.62,72.4138 40.2867,71.7472 41.5,71.5C 46.0266,72.2568 49.6933,74.2568 52.5,77.5 Z"/></g>
<g><path style="opacity:1" fill="#6e4c3f" d="M 40.5,73.5 C 42.5932,74.0447 44.5932,74.878 46.5,76C 45.9515,77.5961 46.6182,78.7627 48.5,79.5C 46.412,80.9395 44.0786,81.6061 41.5,81.5C 41.7214,78.7212 41.388,76.0545 40.5,73.5 Z"/></g>
<g><path style="opacity:0.008" fill="#dccac3" d="M 52.5,77.5 C 52.0269,78.9063 51.0269,79.573 49.5,79.5C 49.9731,78.0937 50.9731,77.427 52.5,77.5 Z"/></g>
<g><path style="opacity:1" fill="#7f5d50" d="M 72.5,81.5 C 67.0912,91.4601 64.4246,90.7934 64.5,79.5C 65.2613,78.6091 66.2613,77.9424 67.5,77.5C 69.1347,78.0463 70.8014,78.3796 72.5,78.5C 72.5,79.5 72.5,80.5 72.5,81.5 Z"/></g>
<g><path style="opacity:0.996" fill="#ab9891" d="M 39.5,73.5 C 39.8333,73.5 40.1667,73.5 40.5,73.5C 41.388,76.0545 41.7214,78.7212 41.5,81.5C 44.0786,81.6061 46.412,80.9395 48.5,79.5C 48.8333,79.5 49.1667,79.5 49.5,79.5C 47.3808,81.9283 44.7141,83.0949 41.5,83C 40.6962,79.8826 40.0295,76.716 39.5,73.5 Z"/></g>
</svg>
