<?xml version="1.0" encoding="UTF-8"?>
<!DOCTYPE svg PUBLIC "-//W3C//DTD SVG 1.1//EN" "http://www.w3.org/Graphics/SVG/1.1/DTD/svg11.dtd">
<svg xmlns="http://www.w3.org/2000/svg" version="1.1" width="128px" height="128px" style="shape-rendering:geometricPrecision; text-rendering:geometricPrecision; image-rendering:optimizeQuality; fill-rule:evenodd; clip-rule:evenodd" xmlns:xlink="http://www.w3.org/1999/xlink">
<g><path style="opacity:1" fill="#070606" d="M 50.5,36.5 C 56.0322,37.8571 60.6989,40.6905 64.5,45C 84.8982,44.3917 104.065,48.8917 122,58.5C 122.387,62.165 120.887,64.9984 117.5,67C 104.588,73.1437 90.9211,76.3103 76.5,76.5C 77.1118,81.9546 74.7785,85.288 69.5,86.5C 66.8956,85.731 65.0623,84.0643 64,81.5C 63.2571,79.5594 63.4238,77.7261 64.5,76C 61.0182,75.0879 57.5182,74.2546 54,73.5C 51.2044,74.9359 48.3711,76.4359 45.5,78C 43.8659,78.4935 42.1992,78.6602 40.5,78.5C 40.0762,72.1206 37.0762,67.7872 31.5,65.5C 29.3659,65.5153 27.3659,66.0153 25.5,67C 21.1019,70.3943 16.4352,73.3943 11.5,76C 4.55681,78.6087 2.72348,76.442 6,69.5C 7.2257,66.0482 8.7257,62.7148 10.5,59.5C 7.06921,54.3118 5.06921,48.6451 4.5,42.5C 6.5273,42.3379 8.5273,42.5045 10.5,43C 16.8713,46.8487 23.2046,50.682 29.5,54.5C 36.9129,52.9801 44.2462,51.1468 51.5,49C 50.6919,48.6924 50.0253,48.1924 49.5,47.5C 51.0573,43.7935 51.3906,40.1268 50.5,36.5 Z"/></g>
</svg>
