<?xml version="1.0" encoding="UTF-8"?>
<!DOCTYPE svg PUBLIC "-//W3C//DTD SVG 1.1//EN" "http://www.w3.org/Graphics/SVG/1.1/DTD/svg11.dtd">
<svg xmlns="http://www.w3.org/2000/svg" version="1.1" width="128px" height="128px" style="shape-rendering:geometricPrecision; text-rendering:geometricPrecision; image-rendering:optimizeQuality; fill-rule:evenodd; clip-rule:evenodd" xmlns:xlink="http://www.w3.org/1999/xlink">
<g><path style="opacity:1" fill="#ecaf87" d="M 57.5,39.5 C 59.1354,42.8285 58.8021,45.8285 56.5,48.5C 54.8828,49.038 53.2161,49.3713 51.5,49.5C 50.9094,48.8485 50.2427,48.1818 49.5,47.5C 50.7287,43.7116 51.3954,40.0449 51.5,36.5C 53.78,37.1359 55.78,38.1359 57.5,39.5 Z"/></g>
<g><path style="opacity:1" fill="#ed804b" d="M 52.5,38.5 C 54.5666,38.5323 55.8999,39.5323 56.5,41.5C 55.6636,43.8419 54.3302,45.8419 52.5,47.5C 51.9315,44.5884 51.9315,41.5884 52.5,38.5 Z"/></g>
<g><path style="opacity:1" fill="#c7a389" d="M 57.5,39.5 C 60.2446,40.7372 62.5779,42.5705 64.5,45C 66.4727,45.4955 68.4727,45.6621 70.5,45.5C 66.8091,46.3934 63.1424,47.3934 59.5,48.5C 58.5,48.5 57.5,48.5 56.5,48.5C 58.8021,45.8285 59.1354,42.8285 57.5,39.5 Z"/></g>
<g><path style="opacity:1" fill="#df3813" d="M 10.5,43.5 C 11.0283,44.7206 11.695,45.8873 12.5,47C 12.1667,48 11.8333,49 11.5,50C 12.1667,50.3333 12.8333,50.6667 13.5,51C 13.1667,52 12.8333,53 12.5,54C 13.1667,54.3333 13.8333,54.6667 14.5,55C 13.2068,55.49 11.8734,55.6567 10.5,55.5C 7.89913,52.126 6.23246,48.2927 5.5,44C 7.13414,43.5065 8.80081,43.3398 10.5,43.5 Z"/></g>
<g><path style="opacity:0.753" fill="#f7cdb4" d="M 12.5,44.5 C 15.1979,44.8449 17.1979,46.1782 18.5,48.5C 18.1667,48.5 17.8333,48.5 17.5,48.5C 15.6115,47.396 13.9448,46.0627 12.5,44.5 Z"/></g>
<g><path style="opacity:1" fill="#292f32" d="M 70.5,45.5 C 73.1667,45.5 75.8333,45.5 78.5,45.5C 79.5,46.1667 80.5,46.8333 81.5,47.5C 74.4708,47.6703 67.1375,48.0036 59.5,48.5C 63.1424,47.3934 66.8091,46.3934 70.5,45.5 Z"/></g>
<g><path style="opacity:0.643" fill="#767778" d="M 78.5,45.5 C 84.082,45.8567 89.4154,46.8567 94.5,48.5C 90.19,47.9198 85.8566,47.5865 81.5,47.5C 80.5,46.8333 79.5,46.1667 78.5,45.5 Z"/></g>
<g><path style="opacity:1" fill="#e55b35" d="M 10.5,43.5 C 11.4916,43.3284 12.1583,43.6618 12.5,44.5C 13.9448,46.0627 15.6115,47.396 17.5,48.5C 19.1383,50.9555 18.805,52.9555 16.5,54.5C 15.2264,55.1894 15.2264,56.0228 16.5,57C 14.1088,58.3086 14.1088,59.3086 16.5,60C 14.1261,60.7432 12.1261,60.2432 10.5,58.5C 10.5,57.5 10.5,56.5 10.5,55.5C 11.8734,55.6567 13.2068,55.49 14.5,55C 13.8333,54.6667 13.1667,54.3333 12.5,54C 12.8333,53 13.1667,52 13.5,51C 12.8333,50.6667 12.1667,50.3333 11.5,50C 11.8333,49 12.1667,48 12.5,47C 11.695,45.8873 11.0283,44.7206 10.5,43.5 Z"/></g>
<g><path style="opacity:1" fill="#2d493f" d="M 81.5,47.5 C 85.8566,47.5865 90.19,47.9198 94.5,48.5C 95.2625,49.2679 96.2625,49.7679 97.5,50C 95.0095,50.2592 92.5095,50.0925 90,49.5C 88.3419,49.6752 87.0086,50.3418 86,51.5C 85.3333,48.8333 84.6667,48.8333 84,51.5C 83.3333,48.8333 82.6667,48.8333 82,51.5C 81.3333,48.8333 80.6667,48.8333 80,51.5C 79.2208,48.9028 78.7208,48.9028 78.5,51.5C 77.7784,51.9175 77.2784,52.5842 77,53.5C 76.3333,50.8333 75.6667,50.8333 75,53.5C 74.3333,50.8333 73.6667,50.8333 73,53.5C 72.3333,50.8333 71.6667,50.8333 71,53.5C 70.3333,50.8333 69.6667,50.8333 69,53.5C 68.7216,52.5842 68.2216,51.9175 67.5,51.5C 61.4751,51.4287 55.1417,51.4287 48.5,51.5C 49.5,50.8333 50.5,50.1667 51.5,49.5C 53.2161,49.3713 54.8828,49.038 56.5,48.5C 57.5,48.5 58.5,48.5 59.5,48.5C 67.1375,48.0036 74.4708,47.6703 81.5,47.5 Z"/></g>
<g><path style="opacity:1" fill="#5b7964" d="M 67.5,51.5 C 67.631,52.2389 67.4643,52.9056 67,53.5C 59.6764,52.3159 51.1764,52.1492 41.5,53C 43.8127,52.338 46.146,51.838 48.5,51.5C 55.1417,51.4287 61.4751,51.4287 67.5,51.5 Z"/></g>
<g><path style="opacity:1" fill="#406756" d="M 94.5,48.5 C 97.1522,48.4095 99.4855,49.0762 101.5,50.5C 103.858,52.1286 106.524,53.2952 109.5,54C 106.398,53.9238 103.398,54.0905 100.5,54.5C 95.767,53.8103 90.9336,53.1437 86,52.5C 83.6667,52.8333 81.3333,53.1667 79,53.5C 78.5357,52.9056 78.369,52.2389 78.5,51.5C 78.7208,48.9028 79.2208,48.9028 80,51.5C 80.6667,48.8333 81.3333,48.8333 82,51.5C 82.6667,48.8333 83.3333,48.8333 84,51.5C 84.6667,48.8333 85.3333,48.8333 86,51.5C 87.0086,50.3418 88.3419,49.6752 90,49.5C 92.5095,50.0925 95.0095,50.2592 97.5,50C 96.2625,49.7679 95.2625,49.2679 94.5,48.5 Z"/></g>
<g><path style="opacity:1" fill="#889e85" d="M 51.5,49.5 C 50.5,50.1667 49.5,50.8333 48.5,51.5C 46.146,51.838 43.8127,52.338 41.5,53C 51.1764,52.1492 59.6764,52.3159 67,53.5C 67.4643,52.9056 67.631,52.2389 67.5,51.5C 68.2216,51.9175 68.7216,52.5842 69,53.5C 69.6667,50.8333 70.3333,50.8333 71,53.5C 71.6667,50.8333 72.3333,50.8333 73,53.5C 73.6667,50.8333 74.3333,50.8333 75,53.5C 75.6667,50.8333 76.3333,50.8333 77,53.5C 77.2784,52.5842 77.7784,51.9175 78.5,51.5C 78.369,52.2389 78.5357,52.9056 79,53.5C 81.3333,53.1667 83.6667,52.8333 86,52.5C 90.9336,53.1437 95.767,53.8103 100.5,54.5C 100.5,55.1667 100.167,55.5 99.5,55.5C 96.5185,54.8351 93.3518,54.5018 90,54.5C 86.4242,54.5152 83.2575,55.1818 80.5,56.5C 79.7784,56.0825 79.2784,55.4158 79,54.5C 78.3333,57.1667 77.6667,57.1667 77,54.5C 76.3333,57.1667 75.6667,57.1667 75,54.5C 74.3333,57.1667 73.6667,57.1667 73,54.5C 72.3333,57.1667 71.6667,57.1667 71,54.5C 70.3333,57.1667 69.6667,57.1667 69,54.5C 68.3333,57.1667 67.6667,57.1667 67,54.5C 66.3333,57.1667 65.6667,57.1667 65,54.5C 64.3333,57.1667 63.6667,57.1667 63,54.5C 62.3333,57.1667 61.6667,57.1667 61,54.5C 60.7216,55.4158 60.2216,56.0825 59.5,56.5C 51.048,54.8445 42.3813,53.8445 33.5,53.5C 39.5063,52.1649 45.5063,50.8316 51.5,49.5 Z"/></g>
<g><path style="opacity:0.514" fill="#e7a393" d="M 10.5,43.5 C 8.80081,43.3398 7.13414,43.5065 5.5,44C 6.23246,48.2927 7.89913,52.126 10.5,55.5C 10.5,56.5 10.5,57.5 10.5,58.5C 6.85355,53.8584 4.85355,48.525 4.5,42.5C 6.73535,42.2053 8.73535,42.5386 10.5,43.5 Z"/></g>
<g><path style="opacity:1" fill="#abb699" d="M 24.5,52.5 C 27.306,54.6187 30.306,54.952 33.5,53.5C 42.3813,53.8445 51.048,54.8445 59.5,56.5C 59.2792,59.0972 58.7792,59.0972 58,56.5C 57.6667,57.1667 57.3333,57.8333 57,58.5C 56.7216,57.5842 56.2216,56.9175 55.5,56.5C 50.0248,55.9193 44.8582,56.5859 40,58.5C 39.3333,55.8333 38.6667,55.8333 38,58.5C 37.3333,55.8333 36.6667,55.8333 36,58.5C 35.3333,55.8333 34.6667,55.8333 34,58.5C 33.3333,55.8333 32.6667,55.8333 32,58.5C 31.5814,57.3279 30.9147,56.3279 30,55.5C 27.7141,56.2535 25.2141,56.2535 22.5,55.5C 21.3606,53.6043 22.0272,52.6043 24.5,52.5 Z"/></g>
<g><path style="opacity:1" fill="#66624e" d="M 101.5,50.5 C 108.557,51.9087 115.224,54.4087 121.5,58C 122.252,58.6708 122.586,59.5041 122.5,60.5C 121.833,60.8333 121.167,61.1667 120.5,61.5C 118.883,60.962 117.216,60.6287 115.5,60.5C 114.738,56.452 112.404,55.452 108.5,57.5C 105.183,57.219 102.017,57.219 99,57.5C 98.3083,56.5632 98.475,55.8966 99.5,55.5C 100.167,55.5 100.5,55.1667 100.5,54.5C 103.398,54.0905 106.398,53.9238 109.5,54C 106.524,53.2952 103.858,52.1286 101.5,50.5 Z"/></g>
<g><path style="opacity:1" fill="#bdc09e" d="M 99.5,55.5 C 98.475,55.8966 98.3083,56.5632 99,57.5C 102.017,57.219 105.183,57.219 108.5,57.5C 108.5,58.1667 108.5,58.8333 108.5,59.5C 104.833,58.1667 101.167,58.1667 97.5,59.5C 93.5335,59.0805 89.7001,58.0805 86,56.5C 85.3333,59.1667 84.6667,59.1667 84,56.5C 83.3333,59.1667 82.6667,59.1667 82,56.5C 81.2208,59.0972 80.7208,59.0972 80.5,56.5C 83.2575,55.1818 86.4242,54.5152 90,54.5C 93.3518,54.5018 96.5185,54.8351 99.5,55.5 Z"/></g>
<g><path style="opacity:1" fill="#c6c2a3" d="M 18.5,48.5 C 20.8525,49.3403 22.8525,50.6736 24.5,52.5C 22.0272,52.6043 21.3606,53.6043 22.5,55.5C 25.2141,56.2535 27.7141,56.2535 30,55.5C 30.9147,56.3279 31.5814,57.3279 32,58.5C 32.6667,55.8333 33.3333,55.8333 34,58.5C 34.6667,55.8333 35.3333,55.8333 36,58.5C 36.6667,55.8333 37.3333,55.8333 38,58.5C 38.6667,55.8333 39.3333,55.8333 40,58.5C 44.8582,56.5859 50.0248,55.9193 55.5,56.5C 55.6068,58.3786 55.1068,58.7119 54,57.5C 51.3927,58.1233 48.8927,58.79 46.5,59.5C 38.5937,60.3681 31.7603,60.3681 26,59.5C 25.5357,60.0944 25.369,60.7611 25.5,61.5C 24.7784,61.0825 24.2784,60.4158 24,59.5C 23.3333,62.1667 22.6667,62.1667 22,59.5C 21.1666,63.8362 22.9999,65.8362 27.5,65.5C 27.1583,66.3382 26.4916,66.6716 25.5,66.5C 23.4862,66.3915 21.8195,67.0582 20.5,68.5C 20.0205,61.7679 19.3538,55.1013 18.5,48.5 Z"/></g>
<g><path style="opacity:1" fill="#cbcdaf" d="M 80.5,56.5 C 80.7208,59.0972 81.2208,59.0972 82,56.5C 82.6667,59.1667 83.3333,59.1667 84,56.5C 84.6667,59.1667 85.3333,59.1667 86,56.5C 89.7001,58.0805 93.5335,59.0805 97.5,59.5C 97.1667,59.5 96.8333,59.5 96.5,59.5C 84.6369,59.8936 74.1369,59.8936 65,59.5C 64.5357,60.0944 64.369,60.7611 64.5,61.5C 63.7784,61.0825 63.2784,60.4158 63,59.5C 61.752,62.2836 59.9187,62.9503 57.5,61.5C 57.2792,58.9028 56.7792,58.9028 56,61.5C 53.1963,59.6556 50.0297,58.9889 46.5,59.5C 48.8927,58.79 51.3927,58.1233 54,57.5C 55.1068,58.7119 55.6068,58.3786 55.5,56.5C 56.2216,56.9175 56.7216,57.5842 57,58.5C 57.3333,57.8333 57.6667,57.1667 58,56.5C 58.7792,59.0972 59.2792,59.0972 59.5,56.5C 60.2216,56.0825 60.7216,55.4158 61,54.5C 61.6667,57.1667 62.3333,57.1667 63,54.5C 63.6667,57.1667 64.3333,57.1667 65,54.5C 65.6667,57.1667 66.3333,57.1667 67,54.5C 67.6667,57.1667 68.3333,57.1667 69,54.5C 69.6667,57.1667 70.3333,57.1667 71,54.5C 71.6667,57.1667 72.3333,57.1667 73,54.5C 73.6667,57.1667 74.3333,57.1667 75,54.5C 75.6667,57.1667 76.3333,57.1667 77,54.5C 77.6667,57.1667 78.3333,57.1667 79,54.5C 79.2784,55.4158 79.7784,56.0825 80.5,56.5 Z"/></g>
<g><path style="opacity:1" fill="#c8b976" d="M 120.5,61.5 C 119.085,63.8786 117.418,63.8786 115.5,61.5C 112.407,63.2451 110.074,62.5785 108.5,59.5C 108.5,58.8333 108.5,58.1667 108.5,57.5C 112.404,55.452 114.738,56.452 115.5,60.5C 117.216,60.6287 118.883,60.962 120.5,61.5 Z"/></g>
<g><path style="opacity:1" fill="#252b3a" d="M 111.5,57.5 C 113.625,58.3676 113.791,59.3676 112,60.5C 110.317,59.8235 110.15,58.8235 111.5,57.5 Z"/></g>
<g><path style="opacity:1" fill="#e8dbbb" d="M 46.5,59.5 C 50.0297,58.9889 53.1963,59.6556 56,61.5C 56.7792,58.9028 57.2792,58.9028 57.5,61.5C 57.5,62.1667 57.5,62.8333 57.5,63.5C 56.8333,64.1667 56.1667,64.8333 55.5,65.5C 54.8472,61.235 53.3472,60.5683 51,63.5C 50.3333,60.8333 49.6667,60.8333 49,63.5C 48.6667,62.8333 48.3333,62.1667 48,61.5C 47.3333,62.8333 46.6667,64.1667 46,65.5C 45.7216,64.5842 45.2216,63.9175 44.5,63.5C 38.588,61.5437 32.2547,60.8771 25.5,61.5C 25.369,60.7611 25.5357,60.0944 26,59.5C 31.7603,60.3681 38.5937,60.3681 46.5,59.5 Z"/></g>
<g><path style="opacity:1" fill="#de825a" d="M 17.5,48.5 C 17.8333,48.5 18.1667,48.5 18.5,48.5C 19.3538,55.1013 20.0205,61.7679 20.5,68.5C 19.7095,69.4013 18.7095,70.0679 17.5,70.5C 17.7035,68.6096 17.0368,67.1096 15.5,66C 16.1667,65.6667 16.8333,65.3333 17.5,65C 17.7427,61.6101 17.4093,58.1101 16.5,54.5C 18.805,52.9555 19.1383,50.9555 17.5,48.5 Z"/></g>
<g><path style="opacity:1" fill="#e8dbb9" d="M 96.5,59.5 C 95.1889,61.3358 94.0222,63.3358 93,65.5C 92.7216,64.5842 92.2216,63.9175 91.5,63.5C 82.8955,61.5289 73.8955,60.8623 64.5,61.5C 64.369,60.7611 64.5357,60.0944 65,59.5C 74.1369,59.8936 84.6369,59.8936 96.5,59.5 Z"/></g>
<g><path style="opacity:1" fill="#f6e5cf" d="M 25.5,61.5 C 32.2547,60.8771 38.588,61.5437 44.5,63.5C 44.2792,66.0972 43.7792,66.0972 43,63.5C 42.3333,66.1667 41.6667,66.1667 41,63.5C 40.5172,64.448 40.3505,65.448 40.5,66.5C 42.7028,66.6036 44.7028,67.2702 46.5,68.5C 49.1354,69.8109 51.4687,71.4776 53.5,73.5C 51.5,74.5 49.5,75.5 47.5,76.5C 45.3958,70.7277 41.3958,67.061 35.5,65.5C 32.8333,65.5 30.1667,65.5 27.5,65.5C 22.9999,65.8362 21.1666,63.8362 22,59.5C 22.6667,62.1667 23.3333,62.1667 24,59.5C 24.2784,60.4158 24.7784,61.0825 25.5,61.5 Z"/></g>
<g><path style="opacity:1" fill="#f4e7d0" d="M 64.5,61.5 C 73.8955,60.8623 82.8955,61.5289 91.5,63.5C 91.2792,66.0972 90.7792,66.0972 90,63.5C 89.3333,66.1667 88.6667,66.1667 88,63.5C 87.7216,64.4158 87.2216,65.0825 86.5,65.5C 85.1667,65.5 83.8333,65.5 82.5,65.5C 76.5,64.1667 70.5,62.8333 64.5,61.5 Z"/></g>
<g><path style="opacity:1" fill="#f7efdf" d="M 64.5,61.5 C 70.5,62.8333 76.5,64.1667 82.5,65.5C 81.1667,65.5 79.8333,65.5 78.5,65.5C 75.8049,65.086 72.8049,65.086 69.5,65.5C 66.3872,65.4377 63.5539,64.7711 61,63.5C 60.3333,66.1667 59.6667,66.1667 59,63.5C 58.2208,66.0972 57.7208,66.0972 57.5,63.5C 57.5,62.8333 57.5,62.1667 57.5,61.5C 59.9187,62.9503 61.752,62.2836 63,59.5C 63.2784,60.4158 63.7784,61.0825 64.5,61.5 Z"/></g>
<g><path style="opacity:1" fill="#e6643d" d="M 16.5,54.5 C 17.4093,58.1101 17.7427,61.6101 17.5,65C 16.8333,65.3333 16.1667,65.6667 15.5,66C 17.0368,67.1096 17.7035,68.6096 17.5,70.5C 16.205,71.4884 14.8717,72.4884 13.5,73.5C 13.4142,72.5041 13.7476,71.6708 14.5,71C 12.1088,69.6914 12.1088,68.6914 14.5,68C 11.8333,67.3333 11.8333,66.6667 14.5,66C 11.8333,65.3333 11.8333,64.6667 14.5,64C 12.867,63.5204 11.5336,62.6871 10.5,61.5C 10.5,61.1667 10.5,60.8333 10.5,60.5C 10.5,59.8333 10.5,59.1667 10.5,58.5C 12.1261,60.2432 14.1261,60.7432 16.5,60C 14.1088,59.3086 14.1088,58.3086 16.5,57C 15.2264,56.0228 15.2264,55.1894 16.5,54.5 Z"/></g>
<g><path style="opacity:1" fill="#e5e2c1" d="M 108.5,59.5 C 110.074,62.5785 112.407,63.2451 115.5,61.5C 117.418,63.8786 119.085,63.8786 120.5,61.5C 121.167,61.1667 121.833,60.8333 122.5,60.5C 121.167,63.8333 118.833,66.1667 115.5,67.5C 114.5,67.5 113.5,67.5 112.5,67.5C 112.611,66.8826 112.944,66.3826 113.5,66C 111.833,65.6667 110.167,65.3333 108.5,65C 105.766,61.1993 102.266,60.0326 98,61.5C 97.5357,60.9056 97.369,60.2389 97.5,59.5C 101.167,58.1667 104.833,58.1667 108.5,59.5 Z"/></g>
<g><path style="opacity:1" fill="#f7f1e8" d="M 55.5,65.5 C 55.5299,66.4972 55.0299,67.1639 54,67.5C 52.2041,67.0874 50.5374,67.0874 49,67.5C 47.9926,65.2584 47.1593,65.5918 46.5,68.5C 44.7028,67.2702 42.7028,66.6036 40.5,66.5C 40.3505,65.448 40.5172,64.448 41,63.5C 41.6667,66.1667 42.3333,66.1667 43,63.5C 43.7792,66.0972 44.2792,66.0972 44.5,63.5C 45.2216,63.9175 45.7216,64.5842 46,65.5C 46.6667,64.1667 47.3333,62.8333 48,61.5C 48.3333,62.1667 48.6667,62.8333 49,63.5C 49.6667,60.8333 50.3333,60.8333 51,63.5C 53.3472,60.5683 54.8472,61.235 55.5,65.5 Z"/></g>
<g><path style="opacity:1" fill="#ead5bf" d="M 78.5,65.5 C 79.8333,65.5 81.1667,65.5 82.5,65.5C 83.8333,65.5 85.1667,65.5 86.5,65.5C 89.5091,66.2829 92.6758,66.9496 96,67.5C 97.0299,67.8361 97.5299,68.5028 97.5,69.5C 97.3893,70.1174 97.056,70.6174 96.5,71C 93.854,71.4974 91.1873,71.6641 88.5,71.5C 86.079,71.1218 83.7457,70.4552 81.5,69.5C 80.2112,68.3634 79.2112,67.0301 78.5,65.5 Z"/></g>
<g><path style="opacity:1" fill="#f5f3e6" d="M 96.5,59.5 C 96.8333,59.5 97.1667,59.5 97.5,59.5C 97.369,60.2389 97.5357,60.9056 98,61.5C 102.266,60.0326 105.766,61.1993 108.5,65C 110.167,65.3333 111.833,65.6667 113.5,66C 112.944,66.3826 112.611,66.8826 112.5,67.5C 108.385,70.9462 104.051,71.2795 99.5,68.5C 98.8165,68.8627 98.1499,69.1961 97.5,69.5C 97.5299,68.5028 97.0299,67.8361 96,67.5C 92.6758,66.9496 89.5091,66.2829 86.5,65.5C 87.2216,65.0825 87.7216,64.4158 88,63.5C 88.6667,66.1667 89.3333,66.1667 90,63.5C 90.7792,66.0972 91.2792,66.0972 91.5,63.5C 92.2216,63.9175 92.7216,64.5842 93,65.5C 94.0222,63.3358 95.1889,61.3358 96.5,59.5 Z"/></g>
<g><path style="opacity:1" fill="#df3a15" d="M 10.5,61.5 C 11.5336,62.6871 12.867,63.5204 14.5,64C 11.8333,64.6667 11.8333,65.3333 14.5,66C 11.8333,66.6667 11.8333,67.3333 14.5,68C 12.1088,68.6914 12.1088,69.6914 14.5,71C 13.7476,71.6708 13.4142,72.5041 13.5,73.5C 11.8427,74.5755 10.0093,75.2421 8,75.5C 6.62439,75.3158 5.79106,74.6491 5.5,73.5C 7.67872,69.7975 9.34538,65.7975 10.5,61.5 Z"/></g>
<g><path style="opacity:1" fill="#e97d5b" d="M 35.5,65.5 C 41.3958,67.061 45.3958,70.7277 47.5,76.5C 45.5615,78.1628 43.2282,78.8294 40.5,78.5C 40.1667,76.5 39.8333,74.5 39.5,72.5C 38.6618,72.1583 38.3284,71.4916 38.5,70.5C 38.573,68.9731 37.9063,67.9731 36.5,67.5C 35.6618,67.1583 35.3284,66.4916 35.5,65.5 Z"/></g>
<g><path style="opacity:1" fill="#e58e7b" d="M 10.5,60.5 C 10.5,60.8333 10.5,61.1667 10.5,61.5C 9.34538,65.7975 7.67872,69.7975 5.5,73.5C 5.80666,68.5705 7.47333,64.2371 10.5,60.5 Z"/></g>
<g><path style="opacity:0.247" fill="#ebb3a4" d="M 36.5,67.5 C 37.9063,67.9731 38.573,68.9731 38.5,70.5C 37.0937,70.0269 36.427,69.0269 36.5,67.5 Z"/></g>
<g><path style="opacity:1" fill="#f5f5f7" d="M 57.5,63.5 C 57.7208,66.0972 58.2208,66.0972 59,63.5C 59.6667,66.1667 60.3333,66.1667 61,63.5C 63.5539,64.7711 66.3872,65.4377 69.5,65.5C 72.8049,65.086 75.8049,65.086 78.5,65.5C 79.2112,67.0301 80.2112,68.3634 81.5,69.5C 80.1196,70.7065 78.9529,70.3731 78,68.5C 77.3333,69.1667 76.6667,69.8333 76,70.5C 73.3333,70.5 70.6667,70.5 68,70.5C 67.0853,69.6721 66.4186,68.6721 66,67.5C 65.5814,68.6721 64.9147,69.6721 64,70.5C 61,70.1667 58,69.8333 55,69.5C 54.5,70 54,70.5 53.5,71C 54.9007,71.4101 56.234,71.9101 57.5,72.5C 59.7146,73.2679 62.0479,73.9346 64.5,74.5C 64.5,74.8333 64.5,75.1667 64.5,75.5C 60.8026,74.9922 57.1359,74.3255 53.5,73.5C 51.4687,71.4776 49.1354,69.8109 46.5,68.5C 47.1593,65.5918 47.9926,65.2584 49,67.5C 50.5374,67.0874 52.2041,67.0874 54,67.5C 55.0299,67.1639 55.5299,66.4972 55.5,65.5C 56.1667,64.8333 56.8333,64.1667 57.5,63.5 Z"/></g>
<g><path style="opacity:1" fill="#f2f4fc" d="M 81.5,69.5 C 83.7457,70.4552 86.079,71.1218 88.5,71.5C 88.1667,72.5 87.5,73.1667 86.5,73.5C 84.7966,72.2633 82.9633,72.2633 81,73.5C 80.3333,72.8333 79.6667,72.1667 79,71.5C 71.8619,72.1238 64.6952,72.4572 57.5,72.5C 56.234,71.9101 54.9007,71.4101 53.5,71C 54,70.5 54.5,70 55,69.5C 58,69.8333 61,70.1667 64,70.5C 64.9147,69.6721 65.5814,68.6721 66,67.5C 66.4186,68.6721 67.0853,69.6721 68,70.5C 70.6667,70.5 73.3333,70.5 76,70.5C 76.6667,69.8333 77.3333,69.1667 78,68.5C 78.9529,70.3731 80.1196,70.7065 81.5,69.5 Z"/></g>
<g><path style="opacity:1" fill="#f5f7fc" d="M 86.5,73.5 C 79.3524,74.4916 72.0191,74.825 64.5,74.5C 62.0479,73.9346 59.7146,73.2679 57.5,72.5C 64.6952,72.4572 71.8619,72.1238 79,71.5C 79.6667,72.1667 80.3333,72.8333 81,73.5C 82.9633,72.2633 84.7966,72.2633 86.5,73.5 Z"/></g>
<g><path style="opacity:1" fill="#f7f2f2" d="M 112.5,67.5 C 113.5,67.5 114.5,67.5 115.5,67.5C 113.879,69.1172 111.879,70.2838 109.5,71C 98.708,74.132 87.708,75.9653 76.5,76.5C 76.7845,78.4147 76.4511,80.0813 75.5,81.5C 75.8588,79.2341 75.1922,77.4007 73.5,76C 70.5248,75.9565 67.5248,76.1231 64.5,76.5C 64.5,76.1667 64.5,75.8333 64.5,75.5C 64.5,75.1667 64.5,74.8333 64.5,74.5C 72.0191,74.825 79.3524,74.4916 86.5,73.5C 87.5,73.1667 88.1667,72.5 88.5,71.5C 91.1873,71.6641 93.854,71.4974 96.5,71C 97.056,70.6174 97.3893,70.1174 97.5,69.5C 98.1499,69.1961 98.8165,68.8627 99.5,68.5C 104.051,71.2795 108.385,70.9462 112.5,67.5 Z"/></g>
<g><path style="opacity:0.298" fill="#ebb69d" d="M 25.5,66.5 C 21.2849,70.1948 16.6183,73.3614 11.5,76C 9.55269,76.9913 7.55269,77.3247 5.5,77C 4.20891,75.7083 4.20891,74.5417 5.5,73.5C 5.79106,74.6491 6.62439,75.3158 8,75.5C 10.0093,75.2421 11.8427,74.5755 13.5,73.5C 14.8717,72.4884 16.205,71.4884 17.5,70.5C 18.7095,70.0679 19.7095,69.4013 20.5,68.5C 21.8195,67.0582 23.4862,66.3915 25.5,66.5 Z"/></g>
<g><path style="opacity:1" fill="#df3812" d="M 39.5,72.5 C 39.272,70.6453 39.9387,69.8119 41.5,70C 43.0814,71.828 44.4147,73.828 45.5,76C 44.4366,77.1882 43.1033,77.6882 41.5,77.5C 41.5979,75.4471 40.9313,73.7804 39.5,72.5 Z"/></g>
<g><path style="opacity:1" fill="#f58f63" d="M 75.5,81.5 C 75.1667,81.5 74.8333,81.5 74.5,81.5C 74.741,78.001 73.9076,77.6677 72,80.5C 69.9288,76.8792 67.4288,76.5459 64.5,79.5C 65.1272,80.4168 65.4606,81.4168 65.5,82.5C 64.0532,81.8658 63.3866,80.6991 63.5,79C 63.528,77.9302 63.8614,77.0968 64.5,76.5C 67.5248,76.1231 70.5248,75.9565 73.5,76C 75.1922,77.4007 75.8588,79.2341 75.5,81.5 Z"/></g>
<g><path style="opacity:1" fill="#ea562d" d="M 74.5,81.5 C 73.0858,83.0542 71.4192,84.3875 69.5,85.5C 68.3777,84.3698 67.0443,83.7031 65.5,83.5C 65.5,83.1667 65.5,82.8333 65.5,82.5C 65.4606,81.4168 65.1272,80.4168 64.5,79.5C 67.4288,76.5459 69.9288,76.8792 72,80.5C 73.9076,77.6677 74.741,78.001 74.5,81.5 Z"/></g>
<g><path style="opacity:0.02" fill="#ecb3a5" d="M 74.5,81.5 C 74.8333,81.5 75.1667,81.5 75.5,81.5C 74.382,84.0805 72.382,85.7472 69.5,86.5C 67.5828,86.2462 66.2495,85.2462 65.5,83.5C 67.0443,83.7031 68.3777,84.3698 69.5,85.5C 71.4192,84.3875 73.0858,83.0542 74.5,81.5 Z"/></g>
</svg>
