<?xml version="1.0" encoding="UTF-8"?>
<!DOCTYPE svg PUBLIC "-//W3C//DTD SVG 1.1//EN" "http://www.w3.org/Graphics/SVG/1.1/DTD/svg11.dtd">
<svg xmlns="http://www.w3.org/2000/svg" version="1.1" width="128px" height="128px" style="shape-rendering:geometricPrecision; text-rendering:geometricPrecision; image-rendering:optimizeQuality; fill-rule:evenodd; clip-rule:evenodd" xmlns:xlink="http://www.w3.org/1999/xlink">
<g><path style="opacity:1" fill="#0e0e0c" d="M 83.5,45.5 C 83.3379,47.5273 83.5045,49.5273 84,51.5C 84.3826,50.944 84.8826,50.6107 85.5,50.5C 86.2485,51.531 86.9152,52.6976 87.5,54C 94.6783,56.0431 101.678,58.5431 108.5,61.5C 109.553,62.4383 110.22,63.605 110.5,65C 109.513,67.3206 107.846,68.9872 105.5,70C 98.528,73.4094 91.1947,75.5761 83.5,76.5C 84.0044,82.076 81.6711,85.9093 76.5,88C 72.1932,89.3082 69.8599,87.8082 69.5,83.5C 69.4357,81.4434 70.1024,79.7767 71.5,78.5C 72.4734,78.0133 73.4734,77.5133 74.5,77C 71.633,76.1993 68.9664,76.3659 66.5,77.5C 62.8183,77.3347 59.1516,77.5014 55.5,78C 53.6958,82.3041 50.6958,85.4707 46.5,87.5C 46.0894,86.7376 45.9227,85.7376 46,84.5C 45.6667,84.8333 45.3333,85.1667 45,85.5C 42.3412,82.638 40.1745,79.3047 38.5,75.5C 38.9767,74.5224 39.6433,73.6891 40.5,73C 38.5,72.3333 36.5,72.3333 34.5,73C 29.2872,75.7733 23.9539,78.2733 18.5,80.5C 15.7429,78.9124 14.9096,76.579 16,73.5C 19.2006,69.9117 19.2006,66.245 16,62.5C 14.9737,59.4066 15.807,57.0732 18.5,55.5C 24.4771,57.88 30.3105,60.5466 36,63.5C 37.1127,57.0212 40.946,53.3545 47.5,52.5C 49.5925,52.4858 51.4259,53.1524 53,54.5C 55.352,52.9697 57.5187,51.3031 59.5,49.5C 60.8333,49.5 61.5,48.8333 61.5,47.5C 64.248,46.1181 66.748,43.7847 69,40.5C 70.7787,43.2764 71.7787,42.9431 72,39.5C 73.2788,41.9371 74.7788,42.4371 76.5,41C 75.3533,39.7189 75.6866,39.3856 77.5,40C 79.317,41.7998 80.4837,43.9664 81,46.5C 81.9186,43.5984 82.7519,43.2651 83.5,45.5 Z"/></g>
<g><path style="opacity:0.012" fill="#d3c19a" d="M 61.5,47.5 C 61.5,48.8333 60.8333,49.5 59.5,49.5C 59.8333,48.5 60.5,47.8333 61.5,47.5 Z"/></g>
<g><path style="opacity:0.027" fill="#d7caaa" d="M 83.5,45.5 C 84.3092,47.0276 84.9759,48.6943 85.5,50.5C 84.8826,50.6107 84.3826,50.944 84,51.5C 83.5045,49.5273 83.3379,47.5273 83.5,45.5 Z"/></g>
<g><path style="opacity:0.024" fill="#f7efbd" d="M 66.5,77.5 C 68.9664,76.3659 71.633,76.1993 74.5,77C 73.4734,77.5133 72.4734,78.0133 71.5,78.5C 70.0813,77.5489 68.4147,77.2155 66.5,77.5 Z"/></g>
</svg>
