<?xml version="1.0" encoding="UTF-8"?>
<!DOCTYPE svg PUBLIC "-//W3C//DTD SVG 1.1//EN" "http://www.w3.org/Graphics/SVG/1.1/DTD/svg11.dtd">
<svg xmlns="http://www.w3.org/2000/svg" version="1.1" width="128px" height="128px" style="shape-rendering:geometricPrecision; text-rendering:geometricPrecision; image-rendering:optimizeQuality; fill-rule:evenodd; clip-rule:evenodd" xmlns:xlink="http://www.w3.org/1999/xlink">
<g><path style="opacity:0.035" fill="#dfc896" d="M 72.5,40.5 C 72.5,41.5 72.5,42.5 72.5,43.5C 69.5,44.8333 66.5,46.1667 63.5,47.5C 63.5,46.8333 63.1667,46.5 62.5,46.5C 64.5917,45.1845 66.7583,43.1845 69,40.5C 69.6667,41.1667 70.3333,41.8333 71,42.5C 71.1587,40.6573 71.6587,39.9907 72.5,40.5 Z"/></g>
<g><path style="opacity:0.997" fill="#dcc382" d="M 72.5,43.5 C 72.719,44.675 72.3857,45.675 71.5,46.5C 69.0386,47.9872 66.7052,49.6538 64.5,51.5C 63.7492,50.624 63.2492,49.624 63,48.5C 62.9005,50.6526 62.0672,52.3192 60.5,53.5C 59.1667,53.1667 57.8333,52.8333 56.5,52.5C 58.5,50.5 60.5,48.5 62.5,46.5C 63.1667,46.5 63.5,46.8333 63.5,47.5C 66.5,46.1667 69.5,44.8333 72.5,43.5 Z"/></g>
<g><path style="opacity:1" fill="#e0c88e" d="M 86.5,52.5 C 83.9162,51.9517 82.9162,50.285 83.5,47.5C 82.1667,47.5 80.8333,47.5 79.5,47.5C 79.6495,48.552 79.4828,49.552 79,50.5C 78.0797,47.8987 77.413,45.2321 77,42.5C 76.51,43.7932 76.3433,45.1266 76.5,46.5C 76.1667,46.5 75.8333,46.5 75.5,46.5C 73.744,45.4479 73.0773,43.7812 73.5,41.5C 75.5673,42.5932 76.234,42.0932 75.5,40C 76.1667,39.3333 76.8333,39.3333 77.5,40C 79.317,41.7998 80.4837,43.9664 81,46.5C 81.4186,45.3279 82.0853,44.3279 83,43.5C 84.0221,46.618 85.1887,49.618 86.5,52.5 Z"/></g>
<g><path style="opacity:1" fill="#d6bc77" d="M 75.5,46.5 C 75.8333,46.5 76.1667,46.5 76.5,46.5C 75.3139,48.8744 75.3139,51.2078 76.5,53.5C 75.8333,53.5 75.5,53.8333 75.5,54.5C 74.5,54.5 73.5,54.5 72.5,54.5C 71.3263,53.4863 70.6596,52.153 70.5,50.5C 71.7899,49.9423 72.6232,48.9423 73,47.5C 73.8817,51.0416 74.715,50.7083 75.5,46.5 Z"/></g>
<g><path style="opacity:1" fill="#d0b776" d="M 86.5,52.5 C 86.5,52.8333 86.5,53.1667 86.5,53.5C 83.1667,53.5 79.8333,53.5 76.5,53.5C 75.3139,51.2078 75.3139,48.8744 76.5,46.5C 76.3433,45.1266 76.51,43.7932 77,42.5C 77.413,45.2321 78.0797,47.8987 79,50.5C 79.4828,49.552 79.6495,48.552 79.5,47.5C 80.8333,47.5 82.1667,47.5 83.5,47.5C 82.9162,50.285 83.9162,51.9517 86.5,52.5 Z"/></g>
<g><path style="opacity:1" fill="#cfb773" d="M 72.5,40.5 C 73.1667,40.5 73.5,40.8333 73.5,41.5C 73.0773,43.7812 73.744,45.4479 75.5,46.5C 74.715,50.7083 73.8817,51.0416 73,47.5C 72.6232,48.9423 71.7899,49.9423 70.5,50.5C 69.6214,52.2297 68.288,53.563 66.5,54.5C 64.4815,53.1835 62.4815,53.1835 60.5,54.5C 60.5,54.1667 60.5,53.8333 60.5,53.5C 62.0672,52.3192 62.9005,50.6526 63,48.5C 63.2492,49.624 63.7492,50.624 64.5,51.5C 66.7052,49.6538 69.0386,47.9872 71.5,46.5C 72.3857,45.675 72.719,44.675 72.5,43.5C 72.5,42.5 72.5,41.5 72.5,40.5 Z"/></g>
<g><path style="opacity:1" fill="#c4af6c" d="M 70.5,50.5 C 70.6596,52.153 71.3263,53.4863 72.5,54.5C 72.1583,55.3382 71.4916,55.6716 70.5,55.5C 68.1667,56.1667 65.8333,56.8333 63.5,57.5C 62.6935,56.2719 61.6935,55.2719 60.5,54.5C 62.4815,53.1835 64.4815,53.1835 66.5,54.5C 68.288,53.563 69.6214,52.2297 70.5,50.5 Z"/></g>
<g><path style="opacity:1" fill="#817450" d="M 75.5,54.5 C 75.5,53.8333 75.8333,53.5 76.5,53.5C 79.8333,53.5 83.1667,53.5 86.5,53.5C 87.9952,53.9887 89.3285,54.6554 90.5,55.5C 89.4721,55.9258 88.1388,55.9258 86.5,55.5C 83.0381,54.5184 79.3714,54.185 75.5,54.5 Z"/></g>
<g><path style="opacity:1" fill="#d6bc77" d="M 56.5,52.5 C 57.8333,52.8333 59.1667,53.1667 60.5,53.5C 60.5,53.8333 60.5,54.1667 60.5,54.5C 61.6935,55.2719 62.6935,56.2719 63.5,57.5C 62.1667,57.8333 60.8333,58.1667 59.5,58.5C 58.1667,58.8333 56.8333,59.1667 55.5,59.5C 54.5655,58.4324 54.2322,57.099 54.5,55.5C 55.2625,54.7321 56.2625,54.2321 57.5,54C 56.944,53.6174 56.6107,53.1174 56.5,52.5 Z"/></g>
<g><path style="opacity:1" fill="#352514" d="M 72.5,54.5 C 73.5,54.5 74.5,54.5 75.5,54.5C 79.3714,54.185 83.0381,54.5184 86.5,55.5C 85.02,57.6031 83.8534,57.6031 83,55.5C 80.0597,55.8463 77.5597,56.8463 75.5,58.5C 73.8762,58.6399 72.7096,57.9733 72,56.5C 71.5357,57.0944 71.369,57.7611 71.5,58.5C 69.2043,58.1959 68.871,57.1959 70.5,55.5C 71.4916,55.6716 72.1583,55.3382 72.5,54.5 Z"/></g>
<g><path style="opacity:1" fill="#432c16" d="M 86.5,55.5 C 88.1388,55.9258 89.4721,55.9258 90.5,55.5C 90.8333,55.5 91.1667,55.5 91.5,55.5C 93.2299,57.1214 95.2299,58.4548 97.5,59.5C 95.5,59.5 94.5,60.5 94.5,62.5C 93.1779,62.33 92.0113,62.6634 91,63.5C 90.1667,62.5 89.3333,61.5 88.5,60.5C 87.5745,61.6405 86.7412,61.6405 86,60.5C 85.0255,62.8776 84.3589,62.5443 84,59.5C 83.7216,60.4158 83.2216,61.0825 82.5,61.5C 82.6495,60.448 82.4828,59.448 82,58.5C 80,59.1667 78,59.8333 76,60.5C 75.5357,59.9056 75.369,59.2389 75.5,58.5C 77.5597,56.8463 80.0597,55.8463 83,55.5C 83.8534,57.6031 85.02,57.6031 86.5,55.5 Z"/></g>
<g><path style="opacity:1" fill="#c0ad7a" d="M 56.5,52.5 C 56.6107,53.1174 56.944,53.6174 57.5,54C 56.2625,54.2321 55.2625,54.7321 54.5,55.5C 52.025,56.7883 49.6917,56.455 47.5,54.5C 46.5734,55.9056 45.5734,57.4056 44.5,59C 43.1011,59.5946 41.7678,59.4279 40.5,58.5C 39.2888,59.2739 39.2888,60.1072 40.5,61C 39.2624,60.9227 38.2624,61.0894 37.5,61.5C 38.9492,62.1719 40.2825,62.8386 41.5,63.5C 38.3752,64.4794 35.0419,64.8128 31.5,64.5C 32.5676,63.5655 33.901,63.2322 35.5,63.5C 36.8737,57.1314 40.8737,53.4647 47.5,52.5C 50.7267,54.3766 53.7267,54.3766 56.5,52.5 Z"/></g>
<g><path style="opacity:1" fill="#4a3216" d="M 70.5,55.5 C 68.871,57.1959 69.2043,58.1959 71.5,58.5C 70.6822,61.5719 69.5155,61.9052 68,59.5C 67.5357,60.0944 67.369,60.7611 67.5,61.5C 67.1667,61.5 66.8333,61.5 66.5,61.5C 66.2792,58.9028 65.7792,58.9028 65,61.5C 64.6827,59.6992 64.016,59.3659 63,60.5C 61.6976,59.9152 60.531,59.2485 59.5,58.5C 60.8333,58.1667 62.1667,57.8333 63.5,57.5C 65.8333,56.8333 68.1667,56.1667 70.5,55.5 Z"/></g>
<g><path style="opacity:1" fill="#d5be7a" d="M 29.5,60.5 C 27.4588,60.1459 25.6255,60.1459 24,60.5C 22.1115,57.6213 19.6115,56.9547 16.5,58.5C 17.3482,60.4086 17.6816,62.4086 17.5,64.5C 14.5393,61.1022 14.8727,58.1022 18.5,55.5C 22.3761,56.942 26.0428,58.6087 29.5,60.5 Z"/></g>
<g><path style="opacity:1" fill="#c1ab6c" d="M 54.5,55.5 C 54.2322,57.099 54.5655,58.4324 55.5,59.5C 54.3285,60.3446 52.9952,61.0113 51.5,61.5C 49.1016,61.2594 47.1016,61.9261 45.5,63.5C 44.1667,63.5 42.8333,63.5 41.5,63.5C 40.2825,62.8386 38.9492,62.1719 37.5,61.5C 38.2624,61.0894 39.2624,60.9227 40.5,61C 39.2888,60.1072 39.2888,59.2739 40.5,58.5C 41.7678,59.4279 43.1011,59.5946 44.5,59C 45.5734,57.4056 46.5734,55.9056 47.5,54.5C 49.6917,56.455 52.025,56.7883 54.5,55.5 Z"/></g>
<g><path style="opacity:1" fill="#62462e" d="M 75.5,58.5 C 75.369,59.2389 75.5357,59.9056 76,60.5C 78,59.8333 80,59.1667 82,58.5C 82.4828,59.448 82.6495,60.448 82.5,61.5C 81.6554,62.6715 80.9887,64.0048 80.5,65.5C 79.1667,65.1667 77.8333,64.8333 76.5,64.5C 74.0521,63.5269 71.3854,63.1936 68.5,63.5C 67.6618,63.1583 67.3284,62.4916 67.5,61.5C 67.369,60.7611 67.5357,60.0944 68,59.5C 69.5155,61.9052 70.6822,61.5719 71.5,58.5C 71.369,57.7611 71.5357,57.0944 72,56.5C 72.7096,57.9733 73.8762,58.6399 75.5,58.5 Z"/></g>
<g><path style="opacity:1" fill="#644832" d="M 59.5,58.5 C 60.531,59.2485 61.6976,59.9152 63,60.5C 64.016,59.3659 64.6827,59.6992 65,61.5C 65.7792,58.9028 66.2792,58.9028 66.5,61.5C 64.9226,62.7221 63.256,63.7221 61.5,64.5C 60.147,63.3147 58.9803,61.9814 58,60.5C 57.3333,61.8333 56.3333,62.8333 55,63.5C 54.2588,62.3595 53.4255,62.3595 52.5,63.5C 51.7025,63.0431 51.3691,62.3764 51.5,61.5C 52.9952,61.0113 54.3285,60.3446 55.5,59.5C 56.8333,59.1667 58.1667,58.8333 59.5,58.5 Z"/></g>
<g><path style="opacity:1" fill="#cbc7a4" d="M 97.5,59.5 C 101.284,59.5253 102.284,61.1919 100.5,64.5C 100.167,64.5 99.8333,64.5 99.5,64.5C 97.302,64.8799 95.6354,64.2132 94.5,62.5C 94.5,60.5 95.5,59.5 97.5,59.5 Z"/></g>
<g><path style="opacity:1" fill="#35342f" d="M 97.5,60.5 C 99.6246,61.3676 99.7913,62.3676 98,63.5C 96.3167,62.8235 96.1501,61.8235 97.5,60.5 Z"/></g>
<g><path style="opacity:1" fill="#786a5a" d="M 91.5,55.5 C 96.2542,56.6893 100.921,58.1893 105.5,60C 107.544,60.4983 108.878,61.665 109.5,63.5C 108.879,66.1213 107.212,67.788 104.5,68.5C 103.537,68.0302 103.537,67.3635 104.5,66.5C 105.643,66.0919 106.643,65.4252 107.5,64.5C 105.189,63.4249 102.856,63.4249 100.5,64.5C 102.284,61.1919 101.284,59.5253 97.5,59.5C 95.2299,58.4548 93.2299,57.1214 91.5,55.5 Z"/></g>
<g><path style="opacity:1" fill="#794a0f" d="M 66.5,61.5 C 66.8333,61.5 67.1667,61.5 67.5,61.5C 67.3284,62.4916 67.6618,63.1583 68.5,63.5C 68.1667,64.5 67.5,65.1667 66.5,65.5C 65.7784,65.9175 65.2784,66.5842 65,67.5C 64.6012,67.2716 64.4346,66.9382 64.5,66.5C 60.3656,65.5151 56.0323,65.1818 51.5,65.5C 51.189,64.5222 50.5223,63.8555 49.5,63.5C 48.135,64.8069 46.8016,64.8069 45.5,63.5C 47.1016,61.9261 49.1016,61.2594 51.5,61.5C 51.3691,62.3764 51.7025,63.0431 52.5,63.5C 53.4255,62.3595 54.2588,62.3595 55,63.5C 56.3333,62.8333 57.3333,61.8333 58,60.5C 58.9803,61.9814 60.147,63.3147 61.5,64.5C 63.256,63.7221 64.9226,62.7221 66.5,61.5 Z"/></g>
<g><path style="opacity:1" fill="#cbaf50" d="M 29.5,60.5 C 29.0472,61.4584 28.3805,62.2917 27.5,63C 28.6405,63.7412 28.6405,64.5745 27.5,65.5C 28.0253,66.1924 28.6919,66.6924 29.5,67C 28.5842,67.2784 27.9175,67.7784 27.5,68.5C 25.8599,69.3201 24.1932,70.1534 22.5,71C 22.8916,73.3543 22.8916,75.8543 22.5,78.5C 22.1667,78.5 21.8333,78.5 21.5,78.5C 19.8561,78.7135 18.3561,78.3802 17,77.5C 16.8648,75.0784 17.3648,72.7451 18.5,70.5C 18.4828,68.4352 18.1495,66.4352 17.5,64.5C 17.6816,62.4086 17.3482,60.4086 16.5,58.5C 19.6115,56.9547 22.1115,57.6213 24,60.5C 25.6255,60.1459 27.4588,60.1459 29.5,60.5 Z"/></g>
<g><path style="opacity:1" fill="#7b4808" d="M 41.5,63.5 C 42.8333,63.5 44.1667,63.5 45.5,63.5C 46.8016,64.8069 48.135,64.8069 49.5,63.5C 50.5223,63.8555 51.189,64.5222 51.5,65.5C 48.4363,66.6993 45.2696,66.6993 42,65.5C 41.0546,65.9054 40.3879,66.572 40,67.5C 39.3086,65.1088 38.3086,65.1088 37,67.5C 36.6667,66.8333 36.3333,66.1667 36,65.5C 34.7913,65.6526 33.6246,65.9859 32.5,66.5C 31.8333,66.8333 31.1667,67.1667 30.5,67.5C 30.2627,66.209 30.596,65.209 31.5,64.5C 35.0419,64.8128 38.3752,64.4794 41.5,63.5 Z"/></g>
<g><path style="opacity:1" fill="#6d594b" d="M 94.5,62.5 C 95.6354,64.2132 97.302,64.8799 99.5,64.5C 95.9674,65.7146 92.3008,65.7146 88.5,64.5C 87.2789,63.5354 85.9456,63.702 84.5,65C 85.8398,67.1785 85.5065,67.6785 83.5,66.5C 82.391,66.4431 81.391,66.1098 80.5,65.5C 80.9887,64.0048 81.6554,62.6715 82.5,61.5C 83.2216,61.0825 83.7216,60.4158 84,59.5C 84.3589,62.5443 85.0255,62.8776 86,60.5C 86.7412,61.6405 87.5745,61.6405 88.5,60.5C 89.3333,61.5 90.1667,62.5 91,63.5C 92.0113,62.6634 93.1779,62.33 94.5,62.5 Z"/></g>
<g><path style="opacity:1" fill="#d3bb73" d="M 29.5,60.5 C 31.8185,60.9925 33.8185,61.9925 35.5,63.5C 33.901,63.2322 32.5676,63.5655 31.5,64.5C 30.596,65.209 30.2627,66.209 30.5,67.5C 31.2341,68.7079 31.5674,70.0413 31.5,71.5C 33.099,71.2322 34.4324,71.5655 35.5,72.5C 31.9568,74.4383 28.2901,76.1049 24.5,77.5C 25.6166,75.1958 26.95,73.0291 28.5,71C 27.7476,70.3292 27.4142,69.4959 27.5,68.5C 27.9175,67.7784 28.5842,67.2784 29.5,67C 28.6919,66.6924 28.0253,66.1924 27.5,65.5C 28.6405,64.5745 28.6405,63.7412 27.5,63C 28.3805,62.2917 29.0472,61.4584 29.5,60.5 Z"/></g>
<g><path style="opacity:1" fill="#a29180" d="M 88.5,64.5 C 88.8333,65.1667 89.1667,65.8333 89.5,66.5C 88.3263,67.5137 87.6596,68.847 87.5,70.5C 86.4721,70.9258 85.1388,70.9258 83.5,70.5C 83.5,69.1667 83.5,67.8333 83.5,66.5C 85.5065,67.6785 85.8398,67.1785 84.5,65C 85.9456,63.702 87.2789,63.5354 88.5,64.5 Z"/></g>
<g><path style="opacity:1" fill="#8c6f53" d="M 51.5,65.5 C 56.0323,65.1818 60.3656,65.5151 64.5,66.5C 62.795,67.5353 61.1284,67.5353 59.5,66.5C 58.4593,68.9913 57.6259,68.9913 57,66.5C 56.15,67.4239 55.15,67.4239 54,66.5C 52.699,66.6387 51.8656,67.3054 51.5,68.5C 49.9081,67.3984 49.0748,68.065 49,70.5C 48.6667,69.5 48.3333,68.5 48,67.5C 47.5357,68.0944 47.369,68.7611 47.5,69.5C 46.7784,69.0825 46.2784,68.4158 46,67.5C 42.3333,68.1667 38.6667,68.8333 35,69.5C 33.959,68.5289 33.1257,67.5289 32.5,66.5C 33.6246,65.9859 34.7913,65.6526 36,65.5C 36.3333,66.1667 36.6667,66.8333 37,67.5C 38.3086,65.1088 39.3086,65.1088 40,67.5C 40.3879,66.572 41.0546,65.9054 42,65.5C 45.2696,66.6993 48.4363,66.6993 51.5,65.5 Z"/></g>
<g><path style="opacity:1" fill="#b7a268" d="M 68.5,63.5 C 71.3854,63.1936 74.0521,63.5269 76.5,64.5C 74.7988,64.9662 73.2988,64.9662 72,64.5C 70.5846,66.8435 70.4179,69.1768 71.5,71.5C 70.8333,71.5 70.1667,71.5 69.5,71.5C 68.5,69.5 67.5,67.5 66.5,65.5C 67.5,65.1667 68.1667,64.5 68.5,63.5 Z"/></g>
<g><path style="opacity:1" fill="#d8be79" d="M 76.5,64.5 C 77.8333,64.8333 79.1667,65.1667 80.5,65.5C 81.391,66.1098 82.391,66.4431 83.5,66.5C 83.5,67.8333 83.5,69.1667 83.5,70.5C 83.5,70.8333 83.5,71.1667 83.5,71.5C 80.1667,71.8333 76.8333,72.1667 73.5,72.5C 73.1583,71.6618 72.4916,71.3284 71.5,71.5C 70.4179,69.1768 70.5846,66.8435 72,64.5C 73.2988,64.9662 74.7988,64.9662 76.5,64.5 Z"/></g>
<g><path style="opacity:1" fill="#94857a" d="M 104.5,66.5 C 104.265,65.9033 103.765,65.5699 103,65.5C 99.4591,66.4262 95.9591,67.4262 92.5,68.5C 90.9731,68.573 89.9731,67.9063 89.5,66.5C 89.1667,65.8333 88.8333,65.1667 88.5,64.5C 92.3008,65.7146 95.9674,65.7146 99.5,64.5C 99.8333,64.5 100.167,64.5 100.5,64.5C 102.856,63.4249 105.189,63.4249 107.5,64.5C 106.643,65.4252 105.643,66.0919 104.5,66.5 Z"/></g>
<g><path style="opacity:1" fill="#a3968b" d="M 109.5,63.5 C 110.799,65.1534 110.466,66.6534 108.5,68C 106.133,69.8448 103.467,71.0114 100.5,71.5C 98.4727,71.6621 96.4727,71.4955 94.5,71C 93.244,70.5831 92.5774,69.7498 92.5,68.5C 95.9591,67.4262 99.4591,66.4262 103,65.5C 103.765,65.5699 104.265,65.9033 104.5,66.5C 103.537,67.3635 103.537,68.0302 104.5,68.5C 107.212,67.788 108.879,66.1213 109.5,63.5 Z"/></g>
<g><path style="opacity:1" fill="#957f64" d="M 66.5,65.5 C 67.5,67.5 68.5,69.5 69.5,71.5C 68.5041,71.4142 67.6708,71.7476 67,72.5C 66.6667,71.1667 66.3333,69.8333 66,68.5C 65.3333,71.1667 64.6667,71.1667 64,68.5C 62.3732,69.5323 61.2066,70.8656 60.5,72.5C 59.3221,71.3381 58.1554,70.3381 57,69.5C 55.984,70.6341 55.3173,70.3008 55,68.5C 53.7083,69.7911 52.5417,69.7911 51.5,68.5C 51.8656,67.3054 52.699,66.6387 54,66.5C 55.15,67.4239 56.15,67.4239 57,66.5C 57.6259,68.9913 58.4593,68.9913 59.5,66.5C 61.1284,67.5353 62.795,67.5353 64.5,66.5C 64.4346,66.9382 64.6012,67.2716 65,67.5C 65.2784,66.5842 65.7784,65.9175 66.5,65.5 Z"/></g>
<g><path style="opacity:0.973" fill="#c1ad8c" d="M 32.5,66.5 C 33.1257,67.5289 33.959,68.5289 35,69.5C 38.6667,68.8333 42.3333,68.1667 46,67.5C 46.2784,68.4158 46.7784,69.0825 47.5,69.5C 47.5,70.1667 47.5,70.8333 47.5,71.5C 46.0048,71.9887 44.6715,72.6554 43.5,73.5C 41.8595,74.147 40.5261,75.147 39.5,76.5C 38.3552,75.2073 38.6885,74.0407 40.5,73C 38.8659,72.5065 37.1992,72.3398 35.5,72.5C 34.4324,71.5655 33.099,71.2322 31.5,71.5C 31.5674,70.0413 31.2341,68.7079 30.5,67.5C 31.1667,67.1667 31.8333,66.8333 32.5,66.5 Z"/></g>
<g><path style="opacity:1" fill="#bfb3ab" d="M 89.5,66.5 C 89.9731,67.9063 90.9731,68.573 92.5,68.5C 92.5774,69.7498 93.244,70.5831 94.5,71C 96.4727,71.4955 98.4727,71.6621 100.5,71.5C 99.0697,72.5375 97.403,73.2041 95.5,73.5C 92.7198,72.8049 90.0531,71.8049 87.5,70.5C 87.6596,68.847 88.3263,67.5137 89.5,66.5 Z"/></g>
<g><path style="opacity:1" fill="#c4b28d" d="M 51.5,68.5 C 52.5417,69.7911 53.7083,69.7911 55,68.5C 55.3173,70.3008 55.984,70.6341 57,69.5C 58.1554,70.3381 59.3221,71.3381 60.5,72.5C 60.5,73.1667 60.1667,73.5 59.5,73.5C 56.4136,72.8465 53.4136,73.1798 50.5,74.5C 49.7784,74.0825 49.2784,73.4158 49,72.5C 47.8932,73.7119 47.3932,73.3786 47.5,71.5C 47.5,70.8333 47.5,70.1667 47.5,69.5C 47.369,68.7611 47.5357,68.0944 48,67.5C 48.3333,68.5 48.6667,69.5 49,70.5C 49.0748,68.065 49.9081,67.3984 51.5,68.5 Z"/></g>
<g><path style="opacity:1" fill="#dec686" d="M 83.5,71.5 C 85.0898,71.6282 86.4231,72.2949 87.5,73.5C 87.1543,74.6956 86.6543,74.6956 86,73.5C 85.5172,74.448 85.3505,75.448 85.5,76.5C 85.1667,76.5 84.8333,76.5 84.5,76.5C 84.6495,75.448 84.4828,74.448 84,73.5C 80.6536,74.1186 77.487,74.452 74.5,74.5C 74.1667,74.5 73.8333,74.5 73.5,74.5C 73.5,73.8333 73.5,73.1667 73.5,72.5C 76.8333,72.1667 80.1667,71.8333 83.5,71.5 Z"/></g>
<g><path style="opacity:1" fill="#cabb93" d="M 69.5,71.5 C 70.1667,71.5 70.8333,71.5 71.5,71.5C 72.4916,71.3284 73.1583,71.6618 73.5,72.5C 73.5,73.1667 73.5,73.8333 73.5,74.5C 69.8538,75.1784 66.1871,74.8451 62.5,73.5C 61.5224,73.9767 60.6891,74.6433 60,75.5C 59.5357,74.9056 59.369,74.2389 59.5,73.5C 60.1667,73.5 60.5,73.1667 60.5,72.5C 61.2066,70.8656 62.3732,69.5323 64,68.5C 64.6667,71.1667 65.3333,71.1667 66,68.5C 66.3333,69.8333 66.6667,71.1667 67,72.5C 67.6708,71.7476 68.5041,71.4142 69.5,71.5 Z"/></g>
<g><path style="opacity:0.557" fill="#dbcba2" d="M 83.5,71.5 C 83.5,71.1667 83.5,70.8333 83.5,70.5C 85.1388,70.9258 86.4721,70.9258 87.5,70.5C 90.0531,71.8049 92.7198,72.8049 95.5,73.5C 92.3582,74.7903 89.0248,75.7903 85.5,76.5C 85.3505,75.448 85.5172,74.448 86,73.5C 86.6543,74.6956 87.1543,74.6956 87.5,73.5C 86.4231,72.2949 85.0898,71.6282 83.5,71.5 Z"/></g>
<g><path style="opacity:1" fill="#ceb45d" d="M 27.5,68.5 C 27.4142,69.4959 27.7476,70.3292 28.5,71C 26.95,73.0291 25.6166,75.1958 24.5,77.5C 24.1583,78.3382 23.4916,78.6716 22.5,78.5C 22.8916,75.8543 22.8916,73.3543 22.5,71C 24.1932,70.1534 25.8599,69.3201 27.5,68.5 Z"/></g>
<g><path style="opacity:1" fill="#d8c06e" d="M 43.5,73.5 C 46.063,75.7102 48.563,78.0435 51,80.5C 51.4828,81.448 51.6495,82.448 51.5,83.5C 50.1957,85.982 48.1957,87.1487 45.5,87C 46.8331,85.1598 46.6665,84.6598 45,85.5C 42.7714,82.7821 40.9381,79.7821 39.5,76.5C 40.5261,75.147 41.8595,74.147 43.5,73.5 Z"/></g>
<g><path style="opacity:1" fill="#ebe0ad" d="M 59.5,73.5 C 59.369,74.2389 59.5357,74.9056 60,75.5C 60.6891,74.6433 61.5224,73.9767 62.5,73.5C 66.1871,74.8451 69.8538,75.1784 73.5,74.5C 73.8333,74.5 74.1667,74.5 74.5,74.5C 74.6068,76.3786 74.1068,76.7119 73,75.5C 72.2828,76.0442 71.7828,76.7109 71.5,77.5C 65.7414,77.2143 60.0748,77.5476 54.5,78.5C 53.6304,76.7263 52.297,75.393 50.5,74.5C 53.4136,73.1798 56.4136,72.8465 59.5,73.5 Z"/></g>
<g><path style="opacity:1" fill="#ede0af" d="M 84.5,76.5 C 83.8333,78.1667 83.1667,79.8333 82.5,81.5C 82.5,79.8333 82.5,78.1667 82.5,76.5C 79.7852,74.9243 77.4519,75.2576 75.5,77.5C 74.5084,77.3284 73.8417,77.6618 73.5,78.5C 72.8333,78.5 72.1667,78.5 71.5,78.5C 71.5,78.1667 71.5,77.8333 71.5,77.5C 71.7828,76.7109 72.2828,76.0442 73,75.5C 74.1068,76.7119 74.6068,76.3786 74.5,74.5C 77.487,74.452 80.6536,74.1186 84,73.5C 84.4828,74.448 84.6495,75.448 84.5,76.5 Z"/></g>
<g><path style="opacity:1" fill="#dfc57a" d="M 47.5,71.5 C 47.3932,73.3786 47.8932,73.7119 49,72.5C 49.2784,73.4158 49.7784,74.0825 50.5,74.5C 52.297,75.393 53.6304,76.7263 54.5,78.5C 53.8897,80.4341 52.8897,82.1007 51.5,83.5C 51.6495,82.448 51.4828,81.448 51,80.5C 48.563,78.0435 46.063,75.7102 43.5,73.5C 44.6715,72.6554 46.0048,71.9887 47.5,71.5 Z"/></g>
<g><path style="opacity:0.721" fill="#d6c181" d="M 18.5,70.5 C 17.3648,72.7451 16.8648,75.0784 17,77.5C 18.3561,78.3802 19.8561,78.7135 21.5,78.5C 19.6885,80.9834 17.8552,80.9834 16,78.5C 15.0228,75.1827 15.8562,72.516 18.5,70.5 Z"/></g>
<g><path style="opacity:1" fill="#c4af6c" d="M 75.5,77.5 C 76.7665,79.5666 78.4332,81.2333 80.5,82.5C 79.6446,83.293 78.8113,82.9597 78,81.5C 77.5,82 77,82.5 76.5,83C 77.8228,83.8159 78.4894,84.9826 78.5,86.5C 74.2089,85.2235 72.5422,82.5569 73.5,78.5C 73.8417,77.6618 74.5084,77.3284 75.5,77.5 Z"/></g>
<g><path style="opacity:1" fill="#d1bd7c" d="M 71.5,78.5 C 72.1667,78.5 72.8333,78.5 73.5,78.5C 72.5422,82.5569 74.2089,85.2235 78.5,86.5C 76.1431,88.5567 73.4764,88.89 70.5,87.5C 69.0005,84.1905 69.3338,81.1905 71.5,78.5 Z"/></g>
<g><path style="opacity:1" fill="#d4be7c" d="M 82.5,81.5 C 82.226,83.9806 80.8927,85.6473 78.5,86.5C 78.4894,84.9826 77.8228,83.8159 76.5,83C 77,82.5 77.5,82 78,81.5C 78.8113,82.9597 79.6446,83.293 80.5,82.5C 78.4332,81.2333 76.7665,79.5666 75.5,77.5C 77.4519,75.2576 79.7852,74.9243 82.5,76.5C 82.5,78.1667 82.5,79.8333 82.5,81.5 Z"/></g>
</svg>
