<?xml version="1.0" encoding="UTF-8"?>
<!DOCTYPE svg PUBLIC "-//W3C//DTD SVG 1.1//EN" "http://www.w3.org/Graphics/SVG/1.1/DTD/svg11.dtd">
<svg xmlns="http://www.w3.org/2000/svg" version="1.1" width="128px" height="128px" style="shape-rendering:geometricPrecision; text-rendering:geometricPrecision; image-rendering:optimizeQuality; fill-rule:evenodd; clip-rule:evenodd" xmlns:xlink="http://www.w3.org/1999/xlink">
<g><path style="opacity:0.369" fill="#d5b29c" d="M 66.5,39.5 C 65.4168,39.4606 64.4168,39.1272 63.5,38.5C 62.4822,39.1925 61.4822,39.8592 60.5,40.5C 60.484,38.5159 61.484,37.5159 63.5,37.5C 65.0377,37.4534 66.0377,38.1201 66.5,39.5 Z"/></g>
<g><path style="opacity:0.655" fill="#d1ad97" d="M 66.5,39.5 C 70.1884,41.1884 72.8551,43.855 74.5,47.5C 71.4517,45.1185 68.7851,42.4518 66.5,39.5 Z"/></g>
<g><path style="opacity:0.31" fill="#dbbba5" d="M 60.5,40.5 C 60.539,43.089 59.539,45.089 57.5,46.5C 57.9925,44.1815 58.9925,42.1815 60.5,40.5 Z"/></g>
<g><path style="opacity:0.741" fill="#cea793" d="M 4.5,48.5 C 8.70939,47.7957 12.3761,49.129 15.5,52.5C 11.9416,50.8883 8.27489,49.555 4.5,48.5 Z"/></g>
<g><path style="opacity:0.89" fill="#d0a88a" d="M 57.5,46.5 C 57.4894,48.0174 56.8228,49.1841 55.5,50C 56.056,50.3826 56.3893,50.8826 56.5,51.5C 55.0813,52.4511 53.4147,52.7845 51.5,52.5C 53.1394,50.1939 55.1394,48.1939 57.5,46.5 Z"/></g>
<g><path style="opacity:1" fill="#b4672b" d="M 66.5,39.5 C 68.7851,42.4518 71.4517,45.1185 74.5,47.5C 75.5,47.8333 76.1667,48.5 76.5,49.5C 69.9809,50.2812 63.3142,50.9479 56.5,51.5C 56.3893,50.8826 56.056,50.3826 55.5,50C 56.8228,49.1841 57.4894,48.0174 57.5,46.5C 59.539,45.089 60.539,43.089 60.5,40.5C 61.4822,39.8592 62.4822,39.1925 63.5,38.5C 64.4168,39.1272 65.4168,39.4606 66.5,39.5 Z"/></g>
<g><path style="opacity:1" fill="#c28e48" d="M 76.5,49.5 C 80.1545,49.9422 83.8212,50.2756 87.5,50.5C 87.8417,51.3382 88.5084,51.6716 89.5,51.5C 84.8333,52.1667 80.1667,52.8333 75.5,53.5C 72.2663,53.5498 68.933,53.5498 65.5,53.5C 63.8839,54.1152 62.5505,55.1152 61.5,56.5C 58.0797,53.688 55.413,54.3546 53.5,58.5C 52.3774,57.4563 51.0441,56.7896 49.5,56.5C 46.8214,56.9357 44.1547,57.4357 41.5,58C 42.6956,58.6543 42.6956,59.1543 41.5,59.5C 38.8955,57.942 36.5622,58.2753 34.5,60.5C 30.244,60.064 25.9107,60.064 21.5,60.5C 20.8333,60.5 20.1667,60.5 19.5,60.5C 19.427,58.9731 20.0937,57.9731 21.5,57.5C 24.8333,57.5 28.1667,57.5 31.5,57.5C 31.1568,55.5168 31.8235,54.1834 33.5,53.5C 36.0961,54.2653 38.7628,54.5987 41.5,54.5C 45.0781,54.4512 48.4115,53.7846 51.5,52.5C 53.4147,52.7845 55.0813,52.4511 56.5,51.5C 63.3142,50.9479 69.9809,50.2812 76.5,49.5 Z"/></g>
<g><path style="opacity:0.714" fill="#d9bfa0" d="M 87.5,50.5 C 90.7273,50.6761 93.7273,51.3428 96.5,52.5C 94.0504,52.702 91.717,52.3686 89.5,51.5C 88.5084,51.6716 87.8417,51.3382 87.5,50.5 Z"/></g>
<g><path style="opacity:0.729" fill="#ca9f69" d="M 89.5,51.5 C 91.717,52.3686 94.0504,52.702 96.5,52.5C 97.1667,52.5 97.8333,52.5 98.5,52.5C 100.054,53.8946 99.721,54.5613 97.5,54.5C 94.6731,53.3369 92.0065,53.3369 89.5,54.5C 84.8969,53.6167 80.2303,53.2834 75.5,53.5C 80.1667,52.8333 84.8333,52.1667 89.5,51.5 Z"/></g>
<g><path style="opacity:0.192" fill="#d2b4a2" d="M 15.5,52.5 C 17.0269,52.427 18.0269,53.0937 18.5,54.5C 16.9731,54.573 15.9731,53.9063 15.5,52.5 Z"/></g>
<g><path style="opacity:0.62" fill="#d6bb9b" d="M 51.5,52.5 C 48.4115,53.7846 45.0781,54.4512 41.5,54.5C 44.5443,52.9886 47.8776,52.322 51.5,52.5 Z"/></g>
<g><path style="opacity:1" fill="#cba85b" d="M 75.5,53.5 C 80.2303,53.2834 84.8969,53.6167 89.5,54.5C 95.3727,55.0518 101.039,56.3851 106.5,58.5C 106.426,60.0782 106.76,61.7448 107.5,63.5C 107.5,63.8333 107.5,64.1667 107.5,64.5C 108.463,65.3635 108.463,66.0302 107.5,66.5C 105.214,65.5804 102.881,65.5804 100.5,66.5C 100.5,68.1667 100.5,69.8333 100.5,71.5C 98.0971,71.448 95.7638,71.7814 93.5,72.5C 93.5106,70.9826 94.1772,69.8159 95.5,69C 93.4024,68.3224 91.4024,68.4891 89.5,69.5C 81.5619,67.0738 73.3952,65.0738 65,63.5C 64.228,63.6448 63.5613,63.9781 63,64.5C 60.2748,63.5205 57.4415,62.8538 54.5,62.5C 52.9559,62.7896 51.6226,63.4563 50.5,64.5C 44.8021,62.8905 38.9687,61.8905 33,61.5C 29.1495,64.0362 24.9828,64.7028 20.5,63.5C 21.1272,62.5832 21.4606,61.5832 21.5,60.5C 25.9107,60.064 30.244,60.064 34.5,60.5C 36.5622,58.2753 38.8955,57.942 41.5,59.5C 42.6956,59.1543 42.6956,58.6543 41.5,58C 44.1547,57.4357 46.8214,56.9357 49.5,56.5C 51.0441,56.7896 52.3774,57.4563 53.5,58.5C 55.413,54.3546 58.0797,53.688 61.5,56.5C 62.5505,55.1152 63.8839,54.1152 65.5,53.5C 68.933,53.5498 72.2663,53.5498 75.5,53.5 Z"/></g>
<g><path style="opacity:0.769" fill="#dabd97" d="M 98.5,52.5 C 100.698,52.8751 102.698,53.5418 104.5,54.5C 103.127,54.3433 101.793,54.51 100.5,55C 102.436,55.813 104.436,56.313 106.5,56.5C 106.5,57.1667 106.5,57.8333 106.5,58.5C 101.039,56.3851 95.3727,55.0518 89.5,54.5C 92.0065,53.3369 94.6731,53.3369 97.5,54.5C 99.721,54.5613 100.054,53.8946 98.5,52.5 Z"/></g>
<g><path style="opacity:1" fill="#c29357" d="M 104.5,54.5 C 104.833,54.5 105.167,54.5 105.5,54.5C 105.833,55.1667 106.167,55.8333 106.5,56.5C 104.436,56.313 102.436,55.813 100.5,55C 101.793,54.51 103.127,54.3433 104.5,54.5 Z"/></g>
<g><path style="opacity:0.657" fill="#d8b89c" d="M 33.5,53.5 C 31.8235,54.1834 31.1568,55.5168 31.5,57.5C 28.1667,57.5 24.8333,57.5 21.5,57.5C 20.3065,56.7281 19.3065,55.7281 18.5,54.5C 21.9664,56.0916 25.6331,56.7583 29.5,56.5C 29.3369,52.9652 30.6702,51.9652 33.5,53.5 Z"/></g>
<g><path style="opacity:0.612" fill="#d5b897" d="M 105.5,54.5 C 109.149,55.2667 112.482,56.6001 115.5,58.5C 112.5,57.8333 109.5,57.1667 106.5,56.5C 106.167,55.8333 105.833,55.1667 105.5,54.5 Z"/></g>
<g><path style="opacity:1" fill="#c28b44" d="M 106.5,56.5 C 109.5,57.1667 112.5,57.8333 115.5,58.5C 116.492,58.3284 117.158,58.6618 117.5,59.5C 118.514,60.6737 119.847,61.3404 121.5,61.5C 121.158,62.3382 120.492,62.6716 119.5,62.5C 116.801,62.5339 114.301,61.8672 112,60.5C 111.888,63.4471 110.388,64.7804 107.5,64.5C 107.5,64.1667 107.5,63.8333 107.5,63.5C 106.76,61.7448 106.426,60.0782 106.5,58.5C 106.5,57.8333 106.5,57.1667 106.5,56.5 Z"/></g>
<g><path style="opacity:0.29" fill="#d3b694" d="M 117.5,59.5 C 119.38,59.2291 120.713,59.8958 121.5,61.5C 119.847,61.3404 118.514,60.6737 117.5,59.5 Z"/></g>
<g><path style="opacity:0.255" fill="#d6b29a" d="M 4.5,50.5 C 5.26791,51.2625 5.76791,52.2625 6,53.5C 6.73597,61.5353 6.56931,69.5353 5.5,77.5C 5.16667,77.5 4.83333,77.5 4.5,77.5C 5.7968,68.5045 5.7968,59.5045 4.5,50.5 Z"/></g>
<g><path style="opacity:1" fill="#d7ba6c" d="M 19.5,60.5 C 20.1667,60.5 20.8333,60.5 21.5,60.5C 21.4606,61.5832 21.1272,62.5832 20.5,63.5C 24.9828,64.7028 29.1495,64.0362 33,61.5C 38.9687,61.8905 44.8021,62.8905 50.5,64.5C 51.6226,63.4563 52.9559,62.7896 54.5,62.5C 57.4415,62.8538 60.2748,63.5205 63,64.5C 63.5613,63.9781 64.228,63.6448 65,63.5C 73.3952,65.0738 81.5619,67.0738 89.5,69.5C 82.1958,70.7353 81.8625,72.7353 88.5,75.5C 89.9397,74.0476 91.6064,73.0476 93.5,72.5C 95.7638,71.7814 98.0971,71.448 100.5,71.5C 100.5,69.8333 100.5,68.1667 100.5,66.5C 102.881,65.5804 105.214,65.5804 107.5,66.5C 108.463,66.0302 108.463,65.3635 107.5,64.5C 110.388,64.7804 111.888,63.4471 112,60.5C 114.301,61.8672 116.801,62.5339 119.5,62.5C 118.167,63.8333 118.167,65.1667 119.5,66.5C 119.389,67.1174 119.056,67.6174 118.5,68C 120.437,68.1216 121.77,68.955 122.5,70.5C 120.316,72.5848 117.649,73.5848 114.5,73.5C 112.473,73.6621 110.473,73.4955 108.5,73C 109.5,72.6667 110.5,72.3333 111.5,72C 108.776,71.7305 106.109,71.2305 103.5,70.5C 102.429,72.3255 103.096,73.4921 105.5,74C 104.584,74.2784 103.918,74.7784 103.5,75.5C 101.735,76.4614 99.7354,76.7947 97.5,76.5C 92.4635,76.5874 87.4635,76.254 82.5,75.5C 72.7191,73.5871 62.7191,72.2538 52.5,71.5C 55.8499,71.665 59.1832,71.4983 62.5,71C 52.4141,69.8443 42.4141,68.511 32.5,67C 35.0037,67.6976 37.337,68.5309 39.5,69.5C 33.9285,68.9526 28.4285,67.9526 23,66.5C 20.0459,66.5944 19.8792,67.0944 22.5,68C 21.0715,68.5791 19.7382,68.4124 18.5,67.5C 18.1984,64.9407 18.5318,62.6074 19.5,60.5 Z"/></g>
<g><path style="opacity:1" fill="#dfbd74" d="M 107.5,63.5 C 107.5,62.5 107.5,61.5 107.5,60.5C 111.31,61.2458 111.31,62.2458 107.5,63.5 Z"/></g>
<g><path style="opacity:1" fill="#dfc389" d="M 121.5,61.5 C 124.059,63.4566 123.726,65.1233 120.5,66.5C 120.167,66.5 119.833,66.5 119.5,66.5C 118.167,65.1667 118.167,63.8333 119.5,62.5C 120.492,62.6716 121.158,62.3382 121.5,61.5 Z"/></g>
<g><path style="opacity:1" fill="#b96b2c" d="M 4.5,48.5 C 8.27489,49.555 11.9416,50.8883 15.5,52.5C 15.9731,53.9063 16.9731,54.573 18.5,54.5C 19.3065,55.7281 20.3065,56.7281 21.5,57.5C 20.0937,57.9731 19.427,58.9731 19.5,60.5C 18.5318,62.6074 18.1984,64.9407 18.5,67.5C 18.5,68.1667 18.5,68.8333 18.5,69.5C 16.4381,74.4011 12.7714,77.7345 7.5,79.5C 6.4777,79.1445 5.81103,78.4778 5.5,77.5C 6.56931,69.5353 6.73597,61.5353 6,53.5C 5.76791,52.2625 5.26791,51.2625 4.5,50.5C 3.16667,49.8333 3.16667,49.1667 4.5,48.5 Z"/></g>
<g><path style="opacity:1" fill="#e0cb93" d="M 52.5,71.5 C 48.2064,70.6484 43.873,69.9817 39.5,69.5C 37.337,68.5309 35.0037,67.6976 32.5,67C 42.4141,68.511 52.4141,69.8443 62.5,71C 59.1832,71.4983 55.8499,71.665 52.5,71.5 Z"/></g>
<g><path style="opacity:0.353" fill="#d1b8a6" d="M 119.5,66.5 C 119.833,66.5 120.167,66.5 120.5,66.5C 121.209,67.404 122.209,67.7373 123.5,67.5C 123.737,68.791 123.404,69.791 122.5,70.5C 121.77,68.955 120.437,68.1216 118.5,68C 119.056,67.6174 119.389,67.1174 119.5,66.5 Z"/></g>
<g><path style="opacity:1" fill="#e6c678" d="M 39.5,69.5 C 43.873,69.9817 48.2064,70.6484 52.5,71.5C 62.7191,72.2538 72.7191,73.5871 82.5,75.5C 79.8654,74.2706 77.1987,74.2706 74.5,75.5C 74.6236,76.1067 74.9569,76.44 75.5,76.5C 74.5,77.8333 73.5,77.8333 72.5,76.5C 73.7383,76.19 73.7383,75.69 72.5,75C 63.0799,74.941 53.7465,74.1077 44.5,72.5C 43.5,72.6667 42.5,72.8333 41.5,73C 42.7375,73.2321 43.7375,73.7321 44.5,74.5C 41.8478,74.5905 39.5145,73.9238 37.5,72.5C 38.552,72.6495 39.552,72.4828 40.5,72C 34.6884,69.3233 28.6884,68.8233 22.5,70.5C 20.901,70.7678 19.5676,70.4345 18.5,69.5C 18.5,68.8333 18.5,68.1667 18.5,67.5C 19.7382,68.4124 21.0715,68.5791 22.5,68C 19.8792,67.0944 20.0459,66.5944 23,66.5C 28.4285,67.9526 33.9285,68.9526 39.5,69.5 Z"/></g>
<g><path style="opacity:0.737" fill="#edd6a3" d="M 37.5,72.5 C 35.5,71.1667 33.5,71.1667 31.5,72.5C 28.7131,71.5233 25.7131,71.19 22.5,71.5C 22.5,71.1667 22.5,70.8333 22.5,70.5C 28.6884,68.8233 34.6884,69.3233 40.5,72C 39.552,72.4828 38.552,72.6495 37.5,72.5 Z"/></g>
<g><path style="opacity:1" fill="#b5672c" d="M 93.5,72.5 C 91.6064,73.0476 89.9397,74.0476 88.5,75.5C 81.8625,72.7353 82.1958,70.7353 89.5,69.5C 91.4024,68.4891 93.4024,68.3224 95.5,69C 94.1772,69.8159 93.5106,70.9826 93.5,72.5 Z"/></g>
<g><path style="opacity:1" fill="#d59d57" d="M 37.5,72.5 C 39.5145,73.9238 41.8478,74.5905 44.5,74.5C 45.3382,74.8417 45.6716,75.5084 45.5,76.5C 44.1667,77.5 42.8333,78.5 41.5,79.5C 39.9731,79.427 38.9731,80.0937 38.5,81.5C 34.5164,79.9021 32.1831,76.9021 31.5,72.5C 33.5,71.1667 35.5,71.1667 37.5,72.5 Z"/></g>
<g><path style="opacity:1" fill="#edd69e" d="M 114.5,73.5 C 111.091,74.9034 107.425,75.5701 103.5,75.5C 103.918,74.7784 104.584,74.2784 105.5,74C 103.096,73.4921 102.429,72.3255 103.5,70.5C 106.109,71.2305 108.776,71.7305 111.5,72C 110.5,72.3333 109.5,72.6667 108.5,73C 110.473,73.4955 112.473,73.6621 114.5,73.5 Z"/></g>
<g><path style="opacity:1" fill="#b56d45" d="M 18.5,69.5 C 19.5676,70.4345 20.901,70.7678 22.5,70.5C 22.5,70.8333 22.5,71.1667 22.5,71.5C 21.5,73.1667 20.1667,74.5 18.5,75.5C 16.9731,75.427 15.9731,76.0937 15.5,77.5C 15.1583,78.3382 14.4916,78.6716 13.5,78.5C 11.326,78.7497 9.65938,79.7497 8.5,81.5C 4.2596,83.2602 2.92627,81.9269 4.5,77.5C 4.83333,77.5 5.16667,77.5 5.5,77.5C 5.81103,78.4778 6.4777,79.1445 7.5,79.5C 12.7714,77.7345 16.4381,74.4011 18.5,69.5 Z"/></g>
<g><path style="opacity:1" fill="#eed7a3" d="M 72.5,76.5 C 67.0629,76.166 62.3962,76.4993 58.5,77.5C 58.5,79.5 58.5,81.5 58.5,83.5C 58.5,84.8333 58.5,86.1667 58.5,87.5C 57.7986,84.4371 57.132,81.2704 56.5,78C 52.8546,77.2811 49.1879,76.7811 45.5,76.5C 45.6716,75.5084 45.3382,74.8417 44.5,74.5C 43.7375,73.7321 42.7375,73.2321 41.5,73C 42.5,72.8333 43.5,72.6667 44.5,72.5C 53.7465,74.1077 63.0799,74.941 72.5,75C 73.7383,75.69 73.7383,76.19 72.5,76.5 Z"/></g>
<g><path style="opacity:1" fill="#f0dcac" d="M 82.5,75.5 C 80.3926,76.4682 78.0593,76.8016 75.5,76.5C 74.9569,76.44 74.6236,76.1067 74.5,75.5C 77.1987,74.2706 79.8654,74.2706 82.5,75.5 Z"/></g>
<g><path style="opacity:0.004" fill="#e6d3c4" d="M 18.5,75.5 C 18.0269,76.9063 17.0269,77.573 15.5,77.5C 15.9731,76.0937 16.9731,75.427 18.5,75.5 Z"/></g>
<g><path style="opacity:1" fill="#ecd193" d="M 82.5,75.5 C 87.4635,76.254 92.4635,76.5874 97.5,76.5C 86.9478,77.9829 76.2812,79.3162 65.5,80.5C 65.5858,79.5041 65.2524,78.6708 64.5,78C 62.5273,77.5045 60.5273,77.3379 58.5,77.5C 62.3962,76.4993 67.0629,76.166 72.5,76.5C 73.5,77.8333 74.5,77.8333 75.5,76.5C 78.0593,76.8016 80.3926,76.4682 82.5,75.5 Z"/></g>
<g><path style="opacity:1" fill="#d59e54" d="M 58.5,77.5 C 60.5273,77.3379 62.5273,77.5045 64.5,78C 65.2524,78.6708 65.5858,79.5041 65.5,80.5C 63.5395,82.3122 61.2061,83.3122 58.5,83.5C 58.5,81.5 58.5,79.5 58.5,77.5 Z"/></g>
<g><path style="opacity:0.392" fill="#cfab9a" d="M 13.5,78.5 C 12.3406,80.2503 10.674,81.2503 8.5,81.5C 9.65938,79.7497 11.326,78.7497 13.5,78.5 Z"/></g>
<g><path style="opacity:0.008" fill="#f3e4c2" d="M 41.5,79.5 C 41.0269,80.9063 40.0269,81.573 38.5,81.5C 38.9731,80.0937 39.9731,79.427 41.5,79.5 Z"/></g>
<g><path style="opacity:1" fill="#eace8e" d="M 31.5,72.5 C 32.1831,76.9021 34.5164,79.9021 38.5,81.5C 36.6597,83.6689 34.3263,85.0023 31.5,85.5C 31.0342,80.9705 31.0342,76.6372 31.5,72.5 Z"/></g>
<g><path style="opacity:1" fill="#e9ca89" d="M 65.5,80.5 C 64.8717,83.09 63.705,85.4234 62,87.5C 60.7083,88.7911 59.5417,88.7911 58.5,87.5C 58.5,86.1667 58.5,84.8333 58.5,83.5C 61.2061,83.3122 63.5395,82.3122 65.5,80.5 Z"/></g>
</svg>
