<?xml version="1.0" encoding="UTF-8"?>
<!DOCTYPE svg PUBLIC "-//W3C//DTD SVG 1.1//EN" "http://www.w3.org/Graphics/SVG/1.1/DTD/svg11.dtd">
<svg xmlns="http://www.w3.org/2000/svg" version="1.1" width="128px" height="128px" style="shape-rendering:geometricPrecision; text-rendering:geometricPrecision; image-rendering:optimizeQuality; fill-rule:evenodd; clip-rule:evenodd" xmlns:xlink="http://www.w3.org/1999/xlink">
<g><path style="opacity:1" fill="#080807" d="M 61.5,37.5 C 68.0107,39.1557 73.0107,42.989 76.5,49C 91.8027,50.159 106.469,53.8257 120.5,60C 124.5,62.3333 124.5,64.6667 120.5,67C 121.448,67.4828 122.448,67.6495 123.5,67.5C 123.67,68.8221 123.337,69.9887 122.5,71C 120.043,72.5621 117.376,73.5621 114.5,74C 98.6455,77.1485 82.6455,79.1485 66.5,80C 60.5868,91.8054 57.2535,91.1387 56.5,78C 52.5274,77.0023 48.5274,76.6689 44.5,77C 40.7779,80.9109 36.4445,83.7443 31.5,85.5C 31.0173,80.9023 31.0173,76.4023 31.5,72C 25.5239,70.172 20.8572,71.8387 17.5,77C 14.5,78.6667 11.5,80.3333 8.5,82C 6.0752,82.9859 4.40853,82.3193 3.5,80C 6.14954,69.8206 6.14954,59.6539 3.5,49.5C 3.70931,48.914 4.04265,48.414 4.5,48C 6.55269,47.6753 8.55269,48.0087 10.5,49C 14.5,51.3333 18.5,53.6667 22.5,56C 24.8098,56.4966 27.1432,56.6633 29.5,56.5C 29.147,54.3652 29.9803,53.0319 32,52.5C 34.0353,53.6014 36.2019,54.268 38.5,54.5C 43.1787,53.4986 47.8454,52.4986 52.5,51.5C 56.5081,47.4845 59.5081,42.8178 61.5,37.5 Z"/></g>
</svg>
