<?xml version="1.0" encoding="UTF-8"?>
<!DOCTYPE svg PUBLIC "-//W3C//DTD SVG 1.1//EN" "http://www.w3.org/Graphics/SVG/1.1/DTD/svg11.dtd">
<svg xmlns="http://www.w3.org/2000/svg" version="1.1" width="128px" height="128px" style="shape-rendering:geometricPrecision; text-rendering:geometricPrecision; image-rendering:optimizeQuality; fill-rule:evenodd; clip-rule:evenodd" xmlns:xlink="http://www.w3.org/1999/xlink">
<g><path style="opacity:1" fill="#b9a88d" d="M 26.5,48.5 C 23.172,44.175 19.172,40.5083 14.5,37.5C 13.8933,37.6236 13.56,37.9569 13.5,38.5C 12.8333,38.5 12.5,38.8333 12.5,39.5C 11.1434,38.3146 9.64341,37.3146 8,36.5C 6.31643,36.6834 6.14976,37.3501 7.5,38.5C 3.69413,37.1868 4.02747,36.0202 8.5,35C 18.2328,34.379 24.2328,38.879 26.5,48.5 Z"/></g>
<g><path style="opacity:0.949" fill="#a99e8e" d="M 12.5,39.5 C 14.1436,41.4807 15.8103,43.4807 17.5,45.5C 16.7366,46.7193 15.7366,47.7193 14.5,48.5C 15.5498,49.4288 15.5498,50.0954 14.5,50.5C 13.8826,50.6107 13.3826,50.944 13,51.5C 10.6301,48.3318 11.4634,46.3318 15.5,45.5C 13.4108,42.4046 10.7441,40.0713 7.5,38.5C 6.14976,37.3501 6.31643,36.6834 8,36.5C 9.64341,37.3146 11.1434,38.3146 12.5,39.5 Z"/></g>
<g><path style="opacity:1" fill="#c9b38d" d="M 13.5,38.5 C 19.861,41.2357 22.5277,45.9024 21.5,52.5C 20.5,52.5 19.5,52.5 18.5,52.5C 16.847,52.3404 15.5137,51.6737 14.5,50.5C 15.5498,50.0954 15.5498,49.4288 14.5,48.5C 15.7366,47.7193 16.7366,46.7193 17.5,45.5C 15.8103,43.4807 14.1436,41.4807 12.5,39.5C 12.5,38.8333 12.8333,38.5 13.5,38.5 Z"/></g>
<g><path style="opacity:1" fill="#b3a692" d="M 26.5,48.5 C 29.1025,51.0941 32.1025,51.9274 35.5,51C 37.1412,52.129 38.1412,53.629 38.5,55.5C 37.2058,54.7101 36.0391,53.7101 35,52.5C 33.0412,53.0439 31.2079,53.3773 29.5,53.5C 28.1103,52.1007 27.1103,50.4341 26.5,48.5 Z"/></g>
<g><path style="opacity:1" fill="#7f7669" d="M 13.5,38.5 C 13.56,37.9569 13.8933,37.6236 14.5,37.5C 19.172,40.5083 23.172,44.175 26.5,48.5C 27.1103,50.4341 28.1103,52.1007 29.5,53.5C 32.1443,55.7226 35.1443,57.3893 38.5,58.5C 42.9265,60.984 47.5932,61.984 52.5,61.5C 55.6071,62.3655 58.6071,62.6988 61.5,62.5C 59.1331,63.6893 57.1331,65.356 55.5,67.5C 51.9006,67.5192 48.2339,67.5192 44.5,67.5C 41.5729,66.199 38.5729,65.199 35.5,64.5C 34.8163,62.8148 33.483,61.8148 31.5,61.5C 30.3044,61.8457 30.3044,62.3457 31.5,63C 30.9056,63.4643 30.2389,63.631 29.5,63.5C 28.2262,60.2402 26.5595,57.2402 24.5,54.5C 23.5,53.8333 22.5,53.1667 21.5,52.5C 22.5277,45.9024 19.861,41.2357 13.5,38.5 Z"/></g>
<g><path style="opacity:1" fill="#bba682" d="M 38.5,55.5 C 38.5,56.5 38.5,57.5 38.5,58.5C 35.1443,57.3893 32.1443,55.7226 29.5,53.5C 31.2079,53.3773 33.0412,53.0439 35,52.5C 36.0391,53.7101 37.2058,54.7101 38.5,55.5 Z"/></g>
<g><path style="opacity:0.769" fill="#aca498" d="M 91.5,57.5 C 90.1667,57.5 88.8333,57.5 87.5,57.5C 85.1964,56.8368 82.8631,56.1702 80.5,55.5C 79.8933,55.6236 79.56,55.9569 79.5,56.5C 78.5,56.5 77.5,56.5 76.5,56.5C 77.4961,55.3349 78.8295,54.6682 80.5,54.5C 84.3916,55.1364 88.0582,56.1364 91.5,57.5 Z"/></g>
<g><path style="opacity:1" fill="#a28e6c" d="M 79.5,56.5 C 79.56,55.9569 79.8933,55.6236 80.5,55.5C 82.8631,56.1702 85.1964,56.8368 87.5,57.5C 84.6697,58.9371 82.003,58.6037 79.5,56.5 Z"/></g>
<g><path style="opacity:1" fill="#baaa94" d="M 38.5,55.5 C 39.9683,56.8691 41.635,58.0357 43.5,59C 46.8511,59.0572 49.8511,59.8906 52.5,61.5C 47.5932,61.984 42.9265,60.984 38.5,58.5C 38.5,57.5 38.5,56.5 38.5,55.5 Z"/></g>
<g><path style="opacity:0.773" fill="#b19f84" d="M 73.5,56.5 C 77.5334,59.3205 77.0334,59.9871 72,58.5C 69.5775,61.2799 66.7442,61.9465 63.5,60.5C 63.6107,59.8826 63.944,59.3826 64.5,59C 67.6246,58.4562 70.6246,57.6229 73.5,56.5 Z"/></g>
<g><path style="opacity:1" fill="#80786c" d="M 73.5,56.5 C 74.5,56.5 75.5,56.5 76.5,56.5C 77.5,56.5 78.5,56.5 79.5,56.5C 82.003,58.6037 84.6697,58.9371 87.5,57.5C 88.8333,57.5 90.1667,57.5 91.5,57.5C 92.9587,57.4326 94.2921,57.7659 95.5,58.5C 97.0897,60.821 99.4231,61.821 102.5,61.5C 103.791,61.2627 104.791,61.596 105.5,62.5C 105.918,63.2216 106.584,63.7216 107.5,64C 111.167,64.3333 114.833,64.6667 118.5,65C 114.284,67.803 110.117,67.9696 106,65.5C 104.513,66.2529 104.346,67.0862 105.5,68C 104.263,68.2321 103.263,68.7321 102.5,69.5C 101.5,69.5 100.5,69.5 99.5,69.5C 99.3718,67.9102 98.7051,66.5769 97.5,65.5C 93.284,63.075 89.1173,63.075 85,65.5C 82.9943,63.9977 81.3277,64.331 80,66.5C 78.2015,66.2795 76.3682,65.9461 74.5,65.5C 73.4826,68.028 72.3159,68.028 71,65.5C 70.3333,66.1667 69.6667,66.8333 69,67.5C 64.3707,67.4751 59.8707,67.4751 55.5,67.5C 57.1331,65.356 59.1331,63.6893 61.5,62.5C 62.3382,62.1583 62.6716,61.4916 62.5,60.5C 62.8333,60.5 63.1667,60.5 63.5,60.5C 66.7442,61.9465 69.5775,61.2799 72,58.5C 77.0334,59.9871 77.5334,59.3205 73.5,56.5 Z"/></g>
<g><path style="opacity:1" fill="#b5a58a" d="M 18.5,52.5 C 19.5,52.5 20.5,52.5 21.5,52.5C 22.5,53.1667 23.5,53.8333 24.5,54.5C 26.5595,57.2402 28.2262,60.2402 29.5,63.5C 28.7611,63.631 28.0944,63.4643 27.5,63C 23.8297,59.8484 20.8297,56.3484 18.5,52.5 Z"/></g>
<g><path style="opacity:0.998" fill="#bbac95" d="M 62.5,60.5 C 62.6716,61.4916 62.3382,62.1583 61.5,62.5C 58.6071,62.6988 55.6071,62.3655 52.5,61.5C 54.1561,60.8535 55.8228,60.1869 57.5,59.5C 59.1347,60.0463 60.8014,60.3796 62.5,60.5 Z"/></g>
<g><path style="opacity:0.686" fill="#aaa39a" d="M 95.5,58.5 C 97.9872,59.3228 100.321,60.3228 102.5,61.5C 99.4231,61.821 97.0897,60.821 95.5,58.5 Z"/></g>
<g><path style="opacity:1" fill="#a6977f" d="M 35.5,64.5 C 36.4293,65.3149 37.4293,66.1482 38.5,67C 37.451,67.4922 36.451,67.3256 35.5,66.5C 34.537,66.9698 34.537,67.6365 35.5,68.5C 33.5193,66.8564 31.5193,65.1897 29.5,63.5C 30.2389,63.631 30.9056,63.4643 31.5,63C 30.3044,62.3457 30.3044,61.8457 31.5,61.5C 33.483,61.8148 34.8163,62.8148 35.5,64.5 Z"/></g>
<g><path style="opacity:1" fill="#c5ad85" d="M 99.5,69.5 C 97.7278,71.2896 95.7278,72.6229 93.5,73.5C 92.5,73.1667 91.8333,72.5 91.5,71.5C 91.058,67.1534 90.2247,66.82 89,70.5C 88.6667,69.1667 88.3333,67.8333 88,66.5C 86.8652,68.3699 86.0319,70.3699 85.5,72.5C 80.7299,72.6917 76.0633,73.5251 71.5,75C 65.8333,75.6667 60.1667,75.6667 54.5,75C 48.055,72.9079 41.7216,70.7412 35.5,68.5C 34.537,67.6365 34.537,66.9698 35.5,66.5C 36.451,67.3256 37.451,67.4922 38.5,67C 37.4293,66.1482 36.4293,65.3149 35.5,64.5C 38.5729,65.199 41.5729,66.199 44.5,67.5C 48.2339,67.5192 51.9006,67.5192 55.5,67.5C 59.8707,67.4751 64.3707,67.4751 69,67.5C 69.6667,66.8333 70.3333,66.1667 71,65.5C 72.3159,68.028 73.4826,68.028 74.5,65.5C 76.3682,65.9461 78.2015,66.2795 80,66.5C 81.3277,64.331 82.9943,63.9977 85,65.5C 89.1173,63.075 93.284,63.075 97.5,65.5C 98.7051,66.5769 99.3718,67.9102 99.5,69.5 Z"/></g>
<g><path style="opacity:0.992" fill="#b0a897" d="M 105.5,62.5 C 111.513,63.6611 117.513,63.8277 123.5,63C 121.957,64.8783 120.124,66.3783 118,67.5C 117.53,72.9987 115.697,73.6653 112.5,69.5C 107.257,70.0969 102.257,71.9303 97.5,75C 96.2068,75.49 94.8734,75.6567 93.5,75.5C 93.5,74.8333 93.5,74.1667 93.5,73.5C 94.8734,73.6567 96.2068,73.49 97.5,73C 100.017,72.0568 101.684,70.8901 102.5,69.5C 103.263,68.7321 104.263,68.2321 105.5,68C 104.346,67.0862 104.513,66.2529 106,65.5C 110.117,67.9696 114.284,67.803 118.5,65C 114.833,64.6667 111.167,64.3333 107.5,64C 106.584,63.7216 105.918,63.2216 105.5,62.5 Z"/></g>
<g><path style="opacity:1" fill="#70614b" d="M 91.5,71.5 C 91.8333,72.5 92.5,73.1667 93.5,73.5C 93.5,74.1667 93.5,74.8333 93.5,75.5C 92.391,75.4431 91.391,75.1098 90.5,74.5C 87.6618,72.6941 87.9952,71.6941 91.5,71.5 Z"/></g>
<g><path style="opacity:1" fill="#e3d9b8" d="M 99.5,69.5 C 100.5,69.5 101.5,69.5 102.5,69.5C 101.684,70.8901 100.017,72.0568 97.5,73C 96.2068,73.49 94.8734,73.6567 93.5,73.5C 95.7278,72.6229 97.7278,71.2896 99.5,69.5 Z"/></g>
<g><path style="opacity:0.251" fill="#a39d92" d="M 36.5,71.5 C 35.1667,72.5 35.1667,73.5 36.5,74.5C 32.69,73.2458 32.69,72.2458 36.5,71.5 Z"/></g>
<g><path style="opacity:1" fill="#c2ad88" d="M 40.5,72.5 C 40.6107,73.1174 40.944,73.6174 41.5,74C 39.8659,74.4935 38.1992,74.6602 36.5,74.5C 35.1667,73.5 35.1667,72.5 36.5,71.5C 37.9582,69.1451 39.2915,69.4785 40.5,72.5 Z"/></g>
<g><path style="opacity:1" fill="#e3dabb" d="M 35.5,68.5 C 41.7216,70.7412 48.055,72.9079 54.5,75C 60.1667,75.6667 65.8333,75.6667 71.5,75C 76.0633,73.5251 80.7299,72.6917 85.5,72.5C 82.2363,75.1474 78.903,77.8141 75.5,80.5C 74.8333,80.5 74.1667,80.5 73.5,80.5C 73.1667,80.5 72.8333,80.5 72.5,80.5C 69.2176,80.019 66.0509,79.019 63,77.5C 59.1989,78.5153 55.3655,78.3486 51.5,77C 47.7353,75.5826 44.0686,74.0826 40.5,72.5C 39.2915,69.4785 37.9582,69.1451 36.5,71.5C 35.8902,70.609 35.5569,69.609 35.5,68.5 Z"/></g>
<g><path style="opacity:1" fill="#a79373" d="M 91.5,71.5 C 87.9952,71.6941 87.6618,72.6941 90.5,74.5C 90.7148,76.1788 90.0481,77.1788 88.5,77.5C 88.2785,75.3364 87.2785,73.6697 85.5,72.5C 86.0319,70.3699 86.8652,68.3699 88,66.5C 88.3333,67.8333 88.6667,69.1667 89,70.5C 90.2247,66.82 91.058,67.1534 91.5,71.5 Z"/></g>
<g><path style="opacity:0.447" fill="#a99f8e" d="M 40.5,72.5 C 44.0686,74.0826 47.7353,75.5826 51.5,77C 55.3655,78.3486 59.1989,78.5153 63,77.5C 66.0509,79.019 69.2176,80.019 72.5,80.5C 67.8215,80.6658 63.1548,80.4992 58.5,80C 50.9917,78.2065 43.6584,76.3732 36.5,74.5C 38.1992,74.6602 39.8659,74.4935 41.5,74C 40.944,73.6174 40.6107,73.1174 40.5,72.5 Z"/></g>
<g><path style="opacity:1" fill="#cbb58e" d="M 85.5,72.5 C 87.2785,73.6697 88.2785,75.3364 88.5,77.5C 84.3026,81.6018 79.3026,83.4352 73.5,83C 74.3805,82.2917 75.0472,81.4584 75.5,80.5C 78.903,77.8141 82.2363,75.1474 85.5,72.5 Z"/></g>
<g><path style="opacity:0.953" fill="#aa9d88" d="M 90.5,74.5 C 91.391,75.1098 92.391,75.4431 93.5,75.5C 89.1266,80.8544 83.46,83.8544 76.5,84.5C 74.5168,84.8432 73.1834,84.1765 72.5,82.5C 72.8333,81.8333 73.1667,81.1667 73.5,80.5C 74.1667,80.5 74.8333,80.5 75.5,80.5C 75.0472,81.4584 74.3805,82.2917 73.5,83C 79.3026,83.4352 84.3026,81.6018 88.5,77.5C 90.0481,77.1788 90.7148,76.1788 90.5,74.5 Z"/></g>
<g><path style="opacity:0.2" fill="#cac4bc" d="M 72.5,82.5 C 73.1834,84.1765 74.5168,84.8432 76.5,84.5C 75.0813,85.4511 73.4147,85.7845 71.5,85.5C 71.2627,84.209 71.596,83.209 72.5,82.5 Z"/></g>
</svg>
