<?xml version="1.0" encoding="UTF-8"?>
<!DOCTYPE svg PUBLIC "-//W3C//DTD SVG 1.1//EN" "http://www.w3.org/Graphics/SVG/1.1/DTD/svg11.dtd">
<svg xmlns="http://www.w3.org/2000/svg" version="1.1" width="128px" height="128px" style="shape-rendering:geometricPrecision; text-rendering:geometricPrecision; image-rendering:optimizeQuality; fill-rule:evenodd; clip-rule:evenodd" xmlns:xlink="http://www.w3.org/1999/xlink">
<g><path style="opacity:1" fill="#0b0a0a" d="M 8.5,34.5 C 13.8012,34.0993 18.3012,35.766 22,39.5C 24.0414,43.0838 26.208,46.5838 28.5,50C 30.4248,51.5948 32.4248,51.7615 34.5,50.5C 37.1819,53.7265 40.1819,56.5599 43.5,59C 47.0271,59.1446 50.3604,59.9779 53.5,61.5C 54.6113,60.3887 55.9446,59.722 57.5,59.5C 59.4731,60.3311 61.4731,60.4978 63.5,60C 69.0299,57.8793 74.6966,56.046 80.5,54.5C 90.0961,56.4646 99.4294,59.2979 108.5,63C 113.551,63.4916 118.551,63.4916 123.5,63C 121.957,64.8783 120.124,66.3783 118,67.5C 117.53,72.9987 115.697,73.6653 112.5,69.5C 111.167,70.8333 109.833,70.8333 108.5,69.5C 103.496,71.7749 98.4957,73.9416 93.5,76C 87.4788,82.1766 80.1454,85.3433 71.5,85.5C 71.2965,83.6096 71.9632,82.1096 73.5,81C 60.0839,80.7158 47.0839,78.3825 34.5,74C 33.4477,72.2835 34.1144,71.2835 36.5,71C 34.4435,67.2771 31.4435,64.6104 27.5,63C 24.374,60.5497 22.0406,57.5497 20.5,54C 18.2537,52.9605 16.087,51.7938 14,50.5C 13.6667,50.8333 13.3333,51.1667 13,51.5C 10.6301,48.3318 11.4634,46.3318 15.5,45.5C 12.9254,41.2488 9.25876,38.5822 4.5,37.5C 5.62434,36.1408 6.95767,35.1408 8.5,34.5 Z"/></g>
</svg>
