<?xml version="1.0" encoding="UTF-8"?>
<!DOCTYPE svg PUBLIC "-//W3C//DTD SVG 1.1//EN" "http://www.w3.org/Graphics/SVG/1.1/DTD/svg11.dtd">
<svg xmlns="http://www.w3.org/2000/svg" version="1.1" width="128px" height="128px" style="shape-rendering:geometricPrecision; text-rendering:geometricPrecision; image-rendering:optimizeQuality; fill-rule:evenodd; clip-rule:evenodd" xmlns:xlink="http://www.w3.org/1999/xlink">
<g><path style="opacity:0.71" fill="#82797a" d="M 67.5,37.5 C 65.8333,36.5 64.5,35.1667 63.5,33.5C 60.4403,29.3018 56.4403,27.9684 51.5,29.5C 51.6107,28.8826 51.944,28.3826 52.5,28C 59.7386,27.6199 64.7386,30.7865 67.5,37.5 Z"/></g>
<g><path style="opacity:1" fill="#160203" d="M 63.5,33.5 C 62.4168,33.5394 61.4168,33.8728 60.5,34.5C 58.8333,36.8333 56.8333,38.8333 54.5,40.5C 53.438,42.0217 52.7713,43.6883 52.5,45.5C 50.0777,44.3077 49.0777,42.3077 49.5,39.5C 49.8541,36.087 50.5207,32.7537 51.5,29.5C 56.4403,27.9684 60.4403,29.3018 63.5,33.5 Z"/></g>
<g><path style="opacity:1" fill="#370403" d="M 63.5,33.5 C 64.5,35.1667 65.8333,36.5 67.5,37.5C 67.427,39.0269 68.0937,40.0269 69.5,40.5C 69.5569,41.609 69.8902,42.609 70.5,43.5C 67.1226,43.0679 64.1226,43.7345 61.5,45.5C 59.5,45.8333 57.5,46.1667 55.5,46.5C 54.391,46.4431 53.391,46.1098 52.5,45.5C 52.7713,43.6883 53.438,42.0217 54.5,40.5C 56.8333,38.8333 58.8333,36.8333 60.5,34.5C 61.4168,33.8728 62.4168,33.5394 63.5,33.5 Z"/></g>
<g><path style="opacity:0.616" fill="#997d7e" d="M 67.5,37.5 C 68.9063,37.9731 69.573,38.9731 69.5,40.5C 68.0937,40.0269 67.427,39.0269 67.5,37.5 Z"/></g>
<g><path style="opacity:0.667" fill="#9f9796" d="M 51.5,29.5 C 50.5207,32.7537 49.8541,36.087 49.5,39.5C 49.0777,42.3077 50.0777,44.3077 52.5,45.5C 53.391,46.1098 54.391,46.4431 55.5,46.5C 55.5,47.1667 55.1667,47.5 54.5,47.5C 53.8333,47.5 53.1667,47.5 52.5,47.5C 49.0813,45.7971 47.7479,42.9637 48.5,39C 48.6667,37.1667 48.8333,35.3333 49,33.5C 49.2004,31.6803 50.0337,30.347 51.5,29.5 Z"/></g>
<g><path style="opacity:0.91" fill="#8e897b" d="M 69.5,40.5 C 70.2891,40.7828 70.9558,41.2828 71.5,42C 81.0012,42.0566 89.6679,44.5566 97.5,49.5C 88.9943,45.469 79.9943,43.469 70.5,43.5C 69.8902,42.609 69.5569,41.609 69.5,40.5 Z"/></g>
<g><path style="opacity:1" fill="#382e09" d="M 70.5,43.5 C 79.9943,43.469 88.9943,45.469 97.5,49.5C 94.6965,50.6378 91.6965,50.8045 88.5,50C 79.6499,47.7376 70.6499,46.2376 61.5,45.5C 64.1226,43.7345 67.1226,43.0679 70.5,43.5 Z"/></g>
<g><path style="opacity:1" fill="#400403" d="M 17.5,45.5 C 21.4812,47.987 25.8146,49.6537 30.5,50.5C 30.5,50.8333 30.5,51.1667 30.5,51.5C 22.3428,51.3117 19.6762,54.9784 22.5,62.5C 23.4151,64.7541 24.7484,66.7541 26.5,68.5C 23.8877,69.3705 21.221,70.0372 18.5,70.5C 16.9563,66.8906 16.2896,63.0573 16.5,59C 16.7076,54.2367 17.0409,49.7367 17.5,45.5 Z"/></g>
<g><path style="opacity:0.682" fill="#9d8383" d="M 10.5,44.5 C 12.2884,43.3775 14.2884,43.2109 16.5,44C 21.0619,46.0519 25.7285,47.8853 30.5,49.5C 30.5,49.8333 30.5,50.1667 30.5,50.5C 25.8146,49.6537 21.4812,47.987 17.5,45.5C 16.8333,45.5 16.1667,45.5 15.5,45.5C 14.0813,44.5489 12.4147,44.2155 10.5,44.5 Z"/></g>
<g><path style="opacity:1" fill="#504004" d="M 61.5,45.5 C 70.6499,46.2376 79.6499,47.7376 88.5,50C 91.6965,50.8045 94.6965,50.6378 97.5,49.5C 99.153,49.6596 100.486,50.3263 101.5,51.5C 102.306,52.7281 103.306,53.7281 104.5,54.5C 100.519,53.9791 96.5191,53.6458 92.5,53.5C 78.2347,51.5935 63.9013,51.0935 49.5,52C 44.2645,55.438 39.2645,55.2713 34.5,51.5C 41.5297,51.4039 48.1964,50.0705 54.5,47.5C 55.1667,47.5 55.5,47.1667 55.5,46.5C 57.5,46.1667 59.5,45.8333 61.5,45.5 Z"/></g>
<g><path style="opacity:0.718" fill="#928f8f" d="M 9.5,45.5 C 8.97588,47.3057 8.30921,48.9724 7.5,50.5C 6.48482,49.5398 6.48482,48.3731 7.5,47C 7.83611,45.9701 8.50278,45.4701 9.5,45.5 Z"/></g>
<g><path style="opacity:1" fill="#150808" d="M 10.5,44.5 C 12.4147,44.2155 14.0813,44.5489 15.5,45.5C 13.5289,54.1045 12.8623,63.1045 13.5,72.5C 10.8791,74.1258 9.04572,73.4591 8,70.5C 7.97729,66.1506 8.47729,61.8172 9.5,57.5C 9.1217,55.2835 8.45503,53.2835 7.5,51.5C 7.5,51.1667 7.5,50.8333 7.5,50.5C 8.30921,48.9724 8.97588,47.3057 9.5,45.5C 9.5,44.8333 9.83333,44.5 10.5,44.5 Z"/></g>
<g><path style="opacity:0.49" fill="#b4ac8f" d="M 52.5,47.5 C 53.1667,47.5 53.8333,47.5 54.5,47.5C 48.1964,50.0705 41.5297,51.4039 34.5,51.5C 33.1667,51.5 31.8333,51.5 30.5,51.5C 30.5,51.1667 30.5,50.8333 30.5,50.5C 30.5,50.1667 30.5,49.8333 30.5,49.5C 37.9378,50.5512 45.2711,49.8846 52.5,47.5 Z"/></g>
<g><path style="opacity:1" fill="#a78606" d="M 30.5,51.5 C 31.8333,51.5 33.1667,51.5 34.5,51.5C 39.2645,55.2713 44.2645,55.438 49.5,52C 63.9013,51.0935 78.2347,51.5935 92.5,53.5C 97.3882,56.6884 102.721,59.0218 108.5,60.5C 108.5,61.8333 108.5,63.1667 108.5,64.5C 110.38,64.7709 111.713,64.1042 112.5,62.5C 116.68,62.77 117.346,64.27 114.5,67C 115.448,67.4828 116.448,67.6495 117.5,67.5C 116.71,68.7942 115.71,69.9609 114.5,71C 108.375,73.8746 102.042,76.0413 95.5,77.5C 91.2984,77.8168 87.2984,77.4834 83.5,76.5C 84.8333,76.5 86.1667,76.5 87.5,76.5C 89.5,76.5 91.5,76.5 93.5,76.5C 94.4345,75.4324 94.7678,74.099 94.5,72.5C 95.9305,72.4208 97.2638,72.7542 98.5,73.5C 98.5173,72.6063 98.8506,71.6063 99.5,70.5C 101.142,72.0808 103.142,72.7475 105.5,72.5C 103.887,68.3225 102.887,63.9892 102.5,59.5C 99.8344,59.067 97.1677,58.567 94.5,58C 94.8333,57.6667 95.1667,57.3333 95.5,57C 93.913,56.1376 92.2464,55.4709 90.5,55C 84.8431,54.5006 79.1764,54.3339 73.5,54.5C 66.1929,54.0011 61.0263,57.0011 58,63.5C 48.9228,62.137 39.7561,61.137 30.5,60.5C 27.4098,60.5217 24.7432,61.1883 22.5,62.5C 19.6762,54.9784 22.3428,51.3117 30.5,51.5 Z"/></g>
<g><path style="opacity:0.71" fill="#aba48c" d="M 101.5,51.5 C 104.78,52.8068 107.78,54.4735 110.5,56.5C 108.297,56.3964 106.297,55.7298 104.5,54.5C 103.306,53.7281 102.306,52.7281 101.5,51.5 Z"/></g>
<g><path style="opacity:1" fill="#614e0d" d="M 92.5,53.5 C 96.5191,53.6458 100.519,53.9791 104.5,54.5C 106.297,55.7298 108.297,56.3964 110.5,56.5C 112.55,58.5475 114.883,60.2141 117.5,61.5C 120.019,63.6409 120.019,65.6409 117.5,67.5C 116.448,67.6495 115.448,67.4828 114.5,67C 117.346,64.27 116.68,62.77 112.5,62.5C 111.713,60.8958 110.38,60.2291 108.5,60.5C 102.721,59.0218 97.3882,56.6884 92.5,53.5 Z"/></g>
<g><path style="opacity:0.706" fill="#bbb59e" d="M 110.5,56.5 C 113.674,57.0102 116.008,58.6769 117.5,61.5C 114.883,60.2141 112.55,58.5475 110.5,56.5 Z"/></g>
<g><path style="opacity:0.18" fill="#9d9694" d="M 7.5,51.5 C 8.45503,53.2835 9.1217,55.2835 9.5,57.5C 8.47729,61.8172 7.97729,66.1506 8,70.5C 9.04572,73.4591 10.8791,74.1258 13.5,72.5C 15.403,72.2041 17.0697,71.5375 18.5,70.5C 21.221,70.0372 23.8877,69.3705 26.5,68.5C 27.5,68.5 28.5,68.5 29.5,68.5C 29.5,68.8333 29.5,69.1667 29.5,69.5C 24.3023,70.2876 19.3023,71.7876 14.5,74C 8.9786,75.8123 6.31193,73.8123 6.5,68C 7.31825,62.5294 7.65158,57.0294 7.5,51.5 Z"/></g>
<g><path style="opacity:1" fill="#c09a06" d="M 73.5,54.5 C 79.1764,54.3339 84.8431,54.5006 90.5,55C 92.2464,55.4709 93.913,56.1376 95.5,57C 95.1667,57.3333 94.8333,57.6667 94.5,58C 97.1677,58.567 99.8344,59.067 102.5,59.5C 102.887,63.9892 103.887,68.3225 105.5,72.5C 103.142,72.7475 101.142,72.0808 99.5,70.5C 98.236,68.7299 96.736,67.0632 95,65.5C 92.9185,67.3245 93.0852,68.9911 95.5,70.5C 95.0431,71.2975 94.3764,71.6309 93.5,71.5C 90.031,70.3 86.6977,70.3 83.5,71.5C 82.5,71.5 81.5,71.5 80.5,71.5C 75.5409,71.9347 70.8743,71.1014 66.5,69C 64.981,67.6487 63.6477,66.1487 62.5,64.5C 63.0253,63.8076 63.6919,63.3076 64.5,63C 62.9559,62.7104 61.6226,62.0437 60.5,61C 64.2051,57.3879 68.5385,55.2213 73.5,54.5 Z"/></g>
<g><path style="opacity:1" fill="#ab8802" d="M 73.5,54.5 C 68.5385,55.2213 64.2051,57.3879 60.5,61C 61.6226,62.0437 62.9559,62.7104 64.5,63C 63.6919,63.3076 63.0253,63.8076 62.5,64.5C 63.6477,66.1487 64.981,67.6487 66.5,69C 70.8743,71.1014 75.5409,71.9347 80.5,71.5C 79.1667,72.8333 79.1667,74.1667 80.5,75.5C 72.8348,75.0835 65.1682,74.7502 57.5,74.5C 56.8333,74.6667 56.1667,74.8333 55.5,75C 56.4158,75.2784 57.0825,75.7784 57.5,76.5C 56.8333,76.5 56.1667,76.5 55.5,76.5C 55.1667,76.5 54.8333,76.5 54.5,76.5C 51.825,73.8287 48.4916,72.1621 44.5,71.5C 43.653,70.0337 42.3197,69.2004 40.5,69C 36.8484,68.5014 33.1817,68.3347 29.5,68.5C 28.5,68.5 27.5,68.5 26.5,68.5C 24.7484,66.7541 23.4151,64.7541 22.5,62.5C 24.7432,61.1883 27.4098,60.5217 30.5,60.5C 39.7561,61.137 48.9228,62.137 58,63.5C 61.0263,57.0011 66.1929,54.0011 73.5,54.5 Z"/></g>
<g><path style="opacity:1" fill="#2a0101" d="M 15.5,45.5 C 16.1667,45.5 16.8333,45.5 17.5,45.5C 17.0409,49.7367 16.7076,54.2367 16.5,59C 16.2896,63.0573 16.9563,66.8906 18.5,70.5C 17.0697,71.5375 15.403,72.2041 13.5,72.5C 12.8623,63.1045 13.5289,54.1045 15.5,45.5 Z"/></g>
<g><path style="opacity:1" fill="#7f7866" d="M 108.5,60.5 C 110.38,60.2291 111.713,60.8958 112.5,62.5C 111.713,64.1042 110.38,64.7709 108.5,64.5C 108.5,63.1667 108.5,61.8333 108.5,60.5 Z"/></g>
<g><path style="opacity:1" fill="#deb202" d="M 73.5,58.5 C 78.9302,58.161 84.2636,58.661 89.5,60C 88.8333,60.3333 88.1667,60.6667 87.5,61C 93.0559,62.2676 93.7226,64.7676 89.5,68.5C 83.2381,70.1252 77.2381,69.6252 71.5,67C 70.3413,65.1733 69.008,63.5067 67.5,62C 69.2573,60.2505 71.2573,59.0838 73.5,58.5 Z"/></g>
<g><path style="opacity:1" fill="#866b1a" d="M 99.5,70.5 C 98.8506,71.6063 98.5173,72.6063 98.5,73.5C 97.2638,72.7542 95.9305,72.4208 94.5,72.5C 94.7678,74.099 94.4345,75.4324 93.5,76.5C 93.5,74.8333 93.5,73.1667 93.5,71.5C 94.3764,71.6309 95.0431,71.2975 95.5,70.5C 93.0852,68.9911 92.9185,67.3245 95,65.5C 96.736,67.0632 98.236,68.7299 99.5,70.5 Z"/></g>
<g><path style="opacity:0.604" fill="#ddd3b0" d="M 29.5,69.5 C 29.5,69.1667 29.5,68.8333 29.5,68.5C 33.1817,68.3347 36.8484,68.5014 40.5,69C 42.3197,69.2004 43.653,70.0337 44.5,71.5C 43.8333,71.5 43.1667,71.5 42.5,71.5C 42.1667,71.5 41.8333,71.5 41.5,71.5C 37.7905,69.8643 33.7905,69.1977 29.5,69.5 Z"/></g>
<g><path style="opacity:1" fill="#1b0902" d="M 80.5,71.5 C 81.5,71.5 82.5,71.5 83.5,71.5C 84.8333,71.5 86.1667,71.5 87.5,71.5C 87.5,73.1667 87.5,74.8333 87.5,76.5C 86.1667,76.5 84.8333,76.5 83.5,76.5C 82.609,75.8902 81.609,75.5569 80.5,75.5C 79.1667,74.1667 79.1667,72.8333 80.5,71.5 Z"/></g>
<g><path style="opacity:1" fill="#380c03" d="M 83.5,71.5 C 86.6977,70.3 90.031,70.3 93.5,71.5C 93.5,73.1667 93.5,74.8333 93.5,76.5C 91.5,76.5 89.5,76.5 87.5,76.5C 87.5,74.8333 87.5,73.1667 87.5,71.5C 86.1667,71.5 84.8333,71.5 83.5,71.5 Z"/></g>
<g><path style="opacity:1" fill="#3a0402" d="M 42.5,71.5 C 43.1667,71.5 43.8333,71.5 44.5,71.5C 48.4916,72.1621 51.825,73.8287 54.5,76.5C 52.6871,79.6472 50.0204,81.6472 46.5,82.5C 44.8777,79.5451 42.8777,76.8785 40.5,74.5C 41.1667,73.5 41.8333,72.5 42.5,71.5 Z"/></g>
<g><path style="opacity:0.463" fill="#f2ecc5" d="M 55.5,77.5 C 55.5,77.1667 55.5,76.8333 55.5,76.5C 56.1667,76.5 56.8333,76.5 57.5,76.5C 58.5,76.8333 59.1667,77.5 59.5,78.5C 58.1667,78.1667 56.8333,77.8333 55.5,77.5 Z"/></g>
<g><path style="opacity:0.114" fill="#ede8c2" d="M 117.5,61.5 C 119.722,61.5587 120.722,62.7253 120.5,65C 120.022,68.1503 118.355,70.4836 115.5,72C 104.348,78.2877 92.3476,81.121 79.5,80.5C 79.5,80.1667 79.5,79.8333 79.5,79.5C 85.1136,79.927 90.4469,79.2604 95.5,77.5C 102.042,76.0413 108.375,73.8746 114.5,71C 115.71,69.9609 116.71,68.7942 117.5,67.5C 120.019,65.6409 120.019,63.6409 117.5,61.5 Z"/></g>
<g><path style="opacity:1" fill="#c29b14" d="M 80.5,75.5 C 81.609,75.5569 82.609,75.8902 83.5,76.5C 87.2984,77.4834 91.2984,77.8168 95.5,77.5C 90.4469,79.2604 85.1136,79.927 79.5,79.5C 79.1667,79.5 78.8333,79.5 78.5,79.5C 78.6309,78.6236 78.2975,77.9569 77.5,77.5C 74.8556,78.2951 72.1889,78.9618 69.5,79.5C 66.3752,78.5206 63.0419,78.1872 59.5,78.5C 59.1667,77.5 58.5,76.8333 57.5,76.5C 57.0825,75.7784 56.4158,75.2784 55.5,75C 56.1667,74.8333 56.8333,74.6667 57.5,74.5C 65.1682,74.7502 72.8348,75.0835 80.5,75.5 Z"/></g>
<g><path style="opacity:1" fill="#cfc4a1" d="M 59.5,78.5 C 63.0419,78.1872 66.3752,78.5206 69.5,79.5C 69.5,79.8333 69.5,80.1667 69.5,80.5C 67.2048,81.4746 65.2048,82.8079 63.5,84.5C 64.0283,83.2794 64.695,82.1127 65.5,81C 63.4982,79.9808 61.4982,79.1475 59.5,78.5 Z"/></g>
<g><path style="opacity:1" fill="#150101" d="M 40.5,74.5 C 42.8777,76.8785 44.8777,79.5451 46.5,82.5C 40.2651,85.7886 37.7651,83.7886 39,76.5C 39.2784,75.5842 39.7784,74.9175 40.5,74.5 Z"/></g>
<g><path style="opacity:1" fill="#350503" d="M 78.5,79.5 C 78.233,81.9653 77.5664,84.2986 76.5,86.5C 74.4048,85.588 72.4048,84.4213 70.5,83C 69.7476,82.3292 69.4142,81.4959 69.5,80.5C 69.5,80.1667 69.5,79.8333 69.5,79.5C 72.1889,78.9618 74.8556,78.2951 77.5,77.5C 78.2975,77.9569 78.6309,78.6236 78.5,79.5 Z"/></g>
<g><path style="opacity:0.443" fill="#918382" d="M 41.5,71.5 C 41.8333,71.5 42.1667,71.5 42.5,71.5C 41.8333,72.5 41.1667,73.5 40.5,74.5C 39.7784,74.9175 39.2784,75.5842 39,76.5C 37.7651,83.7886 40.2651,85.7886 46.5,82.5C 50.0204,81.6472 52.6871,79.6472 54.5,76.5C 54.8333,76.5 55.1667,76.5 55.5,76.5C 55.5,76.8333 55.5,77.1667 55.5,77.5C 50.9623,84.0489 45.1289,86.0489 38,83.5C 36.593,78.5994 37.7597,74.5994 41.5,71.5 Z"/></g>
<g><path style="opacity:0.012" fill="#b9a8a5" d="M 78.5,79.5 C 78.8333,79.5 79.1667,79.5 79.5,79.5C 79.5,79.8333 79.5,80.1667 79.5,80.5C 79.6545,83.716 78.6545,86.3826 76.5,88.5C 76.5,87.8333 76.5,87.1667 76.5,86.5C 77.5664,84.2986 78.233,81.9653 78.5,79.5 Z"/></g>
<g><path style="opacity:1" fill="#190c0c" d="M 69.5,80.5 C 69.4142,81.4959 69.7476,82.3292 70.5,83C 72.4048,84.4213 74.4048,85.588 76.5,86.5C 76.5,87.1667 76.5,87.8333 76.5,88.5C 76.6716,89.4916 76.3382,90.1583 75.5,90.5C 73.4287,92.1004 71.0953,92.6004 68.5,92C 66.635,89.8064 64.9683,87.6397 63.5,85.5C 63.5,85.1667 63.5,84.8333 63.5,84.5C 65.2048,82.8079 67.2048,81.4746 69.5,80.5 Z"/></g>
<g><path style="opacity:0.729" fill="#7b7a7a" d="M 63.5,85.5 C 64.9683,87.6397 66.635,89.8064 68.5,92C 71.0953,92.6004 73.4287,92.1004 75.5,90.5C 72.1226,94.4778 68.6226,94.4778 65,90.5C 64.3923,88.8455 63.8923,87.1789 63.5,85.5 Z"/></g>
</svg>
