<?xml version="1.0" encoding="UTF-8"?>
<!DOCTYPE svg PUBLIC "-//W3C//DTD SVG 1.1//EN" "http://www.w3.org/Graphics/SVG/1.1/DTD/svg11.dtd">
<svg xmlns="http://www.w3.org/2000/svg" version="1.1" width="128px" height="128px" style="shape-rendering:geometricPrecision; text-rendering:geometricPrecision; image-rendering:optimizeQuality; fill-rule:evenodd; clip-rule:evenodd" xmlns:xlink="http://www.w3.org/1999/xlink">
<g><path style="opacity:1" fill="#050505" d="M 52.5,27.5 C 56.7189,26.979 60.3855,28.1457 63.5,31C 66.1667,34.6667 68.8333,38.3333 71.5,42C 89.6053,44.3042 105.772,51.1375 120,62.5C 120.687,64.5675 120.52,66.5675 119.5,68.5C 107.754,77.4411 94.4205,81.4411 79.5,80.5C 79.424,84.2285 78.2574,87.5619 76,90.5C 69.3273,95.5663 65.1606,93.8997 63.5,85.5C 63.7605,83.8129 64.4272,82.3129 65.5,81C 62.5234,79.8968 59.5234,78.7301 56.5,77.5C 51.9733,82.767 46.3066,85.267 39.5,85C 36.4753,79.8704 37.142,75.2038 41.5,71C 38.567,70.1066 35.567,69.6066 32.5,69.5C 25.2436,70.1421 18.2436,71.8088 11.5,74.5C 7.83651,74.05 6.16985,71.8833 6.5,68C 7.71851,61.8035 7.71851,55.6368 6.5,49.5C 8.05518,44.4465 11.3885,42.6131 16.5,44C 20.7031,45.2093 24.7031,46.876 28.5,49C 36.6736,50.9704 44.6736,50.3037 52.5,47C 49.0631,45.494 47.7298,42.8274 48.5,39C 48.1637,34.5057 49.497,30.6724 52.5,27.5 Z"/></g>
</svg>
