<?xml version="1.0" encoding="UTF-8"?>
<!DOCTYPE svg PUBLIC "-//W3C//DTD SVG 1.1//EN" "http://www.w3.org/Graphics/SVG/1.1/DTD/svg11.dtd">
<svg xmlns="http://www.w3.org/2000/svg" version="1.1" width="128px" height="128px" style="shape-rendering:geometricPrecision; text-rendering:geometricPrecision; image-rendering:optimizeQuality; fill-rule:evenodd; clip-rule:evenodd" xmlns:xlink="http://www.w3.org/1999/xlink">
<g><path style="opacity:1" fill="#6d5933" d="M 64.5,40.5 C 66.9798,41.242 69.3131,42.242 71.5,43.5C 71.5,44.1667 71.5,44.8333 71.5,45.5C 69.8333,45.5 68.1667,45.5 66.5,45.5C 66.8039,44.8501 67.1373,44.1835 67.5,43.5C 65.5269,42.6689 63.5269,42.5022 61.5,43C 62.0779,41.583 63.0779,40.7496 64.5,40.5 Z"/></g>
<g><path style="opacity:0.18" fill="#282321" d="M 64.5,40.5 C 64.5,40.1667 64.5,39.8333 64.5,39.5C 67.6145,39.5548 69.9478,40.8881 71.5,43.5C 69.3131,42.242 66.9798,41.242 64.5,40.5 Z"/></g>
<g><path style="opacity:1" fill="#51402a" d="M 64.5,39.5 C 64.5,39.8333 64.5,40.1667 64.5,40.5C 63.0779,40.7496 62.0779,41.583 61.5,43C 63.5269,42.5022 65.5269,42.6689 67.5,43.5C 67.1373,44.1835 66.8039,44.8501 66.5,45.5C 66.0618,45.4346 65.7284,45.6012 65.5,46C 66.9423,46.3768 67.9423,47.2101 68.5,48.5C 67.1667,48.1667 65.8333,47.8333 64.5,47.5C 63.791,46.596 62.791,46.2627 61.5,46.5C 61.5,45.8333 61.1667,45.5 60.5,45.5C 60.5,44.8333 60.5,44.1667 60.5,43.5C 60.7086,42.0783 61.2086,40.745 62,39.5C 62.7697,38.4019 63.603,38.4019 64.5,39.5 Z"/></g>
<g><path style="opacity:1" fill="#66502f" d="M 60.5,45.5 C 61.1667,45.5 61.5,45.8333 61.5,46.5C 62.1157,47.7978 62.1157,48.7978 61.5,49.5C 60.8333,49.5 60.1667,49.5 59.5,49.5C 59.1583,48.6618 58.4916,48.3284 57.5,48.5C 58.1667,47.1667 59.1667,46.1667 60.5,45.5 Z"/></g>
<g><path style="opacity:1" fill="#6e431e" d="M 61.5,46.5 C 62.791,46.2627 63.791,46.596 64.5,47.5C 64.5,47.8333 64.5,48.1667 64.5,48.5C 64.5,49.8333 63.8333,50.5 62.5,50.5C 61.8333,50.5 61.5,50.1667 61.5,49.5C 62.1157,48.7978 62.1157,47.7978 61.5,46.5 Z"/></g>
<g><path style="opacity:1" fill="#623e20" d="M 66.5,45.5 C 68.1667,45.5 69.8333,45.5 71.5,45.5C 72.1667,45.5 72.5,45.8333 72.5,46.5C 72.4226,47.7498 71.756,48.5831 70.5,49C 70.7284,49.3988 71.0618,49.5654 71.5,49.5C 71.5,49.8333 71.5,50.1667 71.5,50.5C 69.8212,50.7148 68.8212,50.0481 68.5,48.5C 67.9423,47.2101 66.9423,46.3768 65.5,46C 65.7284,45.6012 66.0618,45.4346 66.5,45.5 Z"/></g>
<g><path style="opacity:0.929" fill="#3b2d25" d="M 71.5,43.5 C 74.1667,45.5 76.5,47.8333 78.5,50.5C 76.2459,49.5849 74.2459,48.2516 72.5,46.5C 72.5,45.8333 72.1667,45.5 71.5,45.5C 71.5,44.8333 71.5,44.1667 71.5,43.5 Z"/></g>
<g><path style="opacity:1" fill="#663f1e" d="M 71.5,49.5 C 73.9328,49.2729 75.5994,50.2729 76.5,52.5C 75.1667,52.5 73.8333,52.5 72.5,52.5C 72.1667,51.8333 71.8333,51.1667 71.5,50.5C 71.5,50.1667 71.5,49.8333 71.5,49.5 Z"/></g>
<g><path style="opacity:0.769" fill="#3c312b" d="M 60.5,43.5 C 60.5,44.1667 60.5,44.8333 60.5,45.5C 59.1667,46.1667 58.1667,47.1667 57.5,48.5C 55.6216,49.9345 54.955,51.6011 55.5,53.5C 54.6618,53.1583 54.3284,52.4916 54.5,51.5C 55.3528,47.9796 57.3528,45.3129 60.5,43.5 Z"/></g>
<g><path style="opacity:1" fill="#6b3d19" d="M 64.5,48.5 C 65.6262,50.5363 67.2929,51.8697 69.5,52.5C 68.8333,52.5 68.5,52.8333 68.5,53.5C 68.1667,53.5 67.8333,53.5 67.5,53.5C 66.1667,53.5 64.8333,53.5 63.5,53.5C 62.8902,52.609 62.5569,51.609 62.5,50.5C 63.8333,50.5 64.5,49.8333 64.5,48.5 Z"/></g>
<g><path style="opacity:1" fill="#7a461a" d="M 64.5,48.5 C 64.5,48.1667 64.5,47.8333 64.5,47.5C 65.8333,47.8333 67.1667,48.1667 68.5,48.5C 68.8212,50.0481 69.8212,50.7148 71.5,50.5C 71.8333,51.1667 72.1667,51.8333 72.5,52.5C 71.5,52.5 70.5,52.5 69.5,52.5C 67.2929,51.8697 65.6262,50.5363 64.5,48.5 Z"/></g>
<g><path style="opacity:1" fill="#73461d" d="M 72.5,46.5 C 74.2459,48.2516 76.2459,49.5849 78.5,50.5C 78.5,51.8333 77.8333,52.5 76.5,52.5C 75.5994,50.2729 73.9328,49.2729 71.5,49.5C 71.0618,49.5654 70.7284,49.3988 70.5,49C 71.756,48.5831 72.4226,47.7498 72.5,46.5 Z"/></g>
<g><path style="opacity:1" fill="#65422a" d="M 57.5,48.5 C 58.4916,48.3284 59.1583,48.6618 59.5,49.5C 58.3489,52.0526 59.3489,53.3859 62.5,53.5C 62.5,53.8333 62.5,54.1667 62.5,54.5C 61.8333,54.5 61.1667,54.5 60.5,54.5C 58.8828,53.962 57.2161,53.6287 55.5,53.5C 54.955,51.6011 55.6216,49.9345 57.5,48.5 Z"/></g>
<g><path style="opacity:1" fill="#825027" d="M 59.5,49.5 C 60.1667,49.5 60.8333,49.5 61.5,49.5C 61.5,50.1667 61.8333,50.5 62.5,50.5C 62.5569,51.609 62.8902,52.609 63.5,53.5C 63.1667,53.5 62.8333,53.5 62.5,53.5C 59.3489,53.3859 58.3489,52.0526 59.5,49.5 Z"/></g>
<g><path style="opacity:1" fill="#38342f" d="M 80.5,51.5 C 83.0593,51.1984 85.3926,51.5318 87.5,52.5C 87.5,52.8333 87.5,53.1667 87.5,53.5C 86.1667,53.5 84.8333,53.5 83.5,53.5C 82.2905,53.0679 81.2905,52.4013 80.5,51.5 Z"/></g>
<g><path style="opacity:0.667" fill="#2d2925" d="M 87.5,53.5 C 87.5,53.1667 87.5,52.8333 87.5,52.5C 90.5,52.5 93.5,52.5 96.5,52.5C 96.5,53.5 96.5,54.5 96.5,55.5C 95.8333,54.8333 95.1667,54.1667 94.5,53.5C 92.1667,53.5 89.8333,53.5 87.5,53.5 Z"/></g>
<g><path style="opacity:0.843" fill="#2f2a26" d="M 18.5,55.5 C 17.5,55.5 16.5,55.5 15.5,55.5C 14.3285,54.6554 12.9952,53.9887 11.5,53.5C 8.71497,52.9162 7.0483,53.9162 6.5,56.5C 6.67158,57.4916 6.33825,58.1583 5.5,58.5C 5.14638,52.7962 7.81304,50.9629 13.5,53C 15.4913,53.3736 17.158,54.207 18.5,55.5 Z"/></g>
<g><path style="opacity:1" fill="#4d4637" d="M 62.5,54.5 C 62.5,54.1667 62.5,53.8333 62.5,53.5C 62.8333,53.5 63.1667,53.5 63.5,53.5C 64.8333,53.5 66.1667,53.5 67.5,53.5C 67.5,54.1667 67.5,54.8333 67.5,55.5C 66.5041,55.4142 65.6708,55.7476 65,56.5C 64.7216,55.5842 64.2216,54.9175 63.5,54.5C 63.1667,54.5 62.8333,54.5 62.5,54.5 Z"/></g>
<g><path style="opacity:1" fill="#5d5847" d="M 67.5,53.5 C 67.8333,53.5 68.1667,53.5 68.5,53.5C 72.0122,52.9455 75.0122,53.6122 77.5,55.5C 74.1667,55.5 70.8333,55.5 67.5,55.5C 67.5,54.8333 67.5,54.1667 67.5,53.5 Z"/></g>
<g><path style="opacity:1" fill="#5a4e3c" d="M 78.5,50.5 C 79.1667,50.8333 79.8333,51.1667 80.5,51.5C 81.2905,52.4013 82.2905,53.0679 83.5,53.5C 83.5,53.8333 83.5,54.1667 83.5,54.5C 82.1529,55.1712 80.9862,55.1712 80,54.5C 79.5357,55.0944 79.369,55.7611 79.5,56.5C 78.8333,56.5 78.5,56.8333 78.5,57.5C 77.209,57.7373 76.209,57.404 75.5,56.5C 76.4916,56.6716 77.1583,56.3382 77.5,55.5C 75.0122,53.6122 72.0122,52.9455 68.5,53.5C 68.5,52.8333 68.8333,52.5 69.5,52.5C 70.5,52.5 71.5,52.5 72.5,52.5C 73.8333,52.5 75.1667,52.5 76.5,52.5C 77.8333,52.5 78.5,51.8333 78.5,50.5 Z"/></g>
<g><path style="opacity:1" fill="#534b3d" d="M 83.5,54.5 C 83.5,54.1667 83.5,53.8333 83.5,53.5C 84.8333,53.5 86.1667,53.5 87.5,53.5C 89.8333,53.5 92.1667,53.5 94.5,53.5C 94.5,54.8333 93.8333,55.5 92.5,55.5C 91.4324,54.5655 90.099,54.2322 88.5,54.5C 86.8333,54.5 85.1667,54.5 83.5,54.5 Z"/></g>
<g><path style="opacity:1" fill="#6c5736" d="M 11.5,53.5 C 10.6935,54.7281 9.69354,55.7281 8.5,56.5C 7.83333,56.5 7.16667,56.5 6.5,56.5C 7.0483,53.9162 8.71497,52.9162 11.5,53.5 Z"/></g>
<g><path style="opacity:1" fill="#9a968e" d="M 83.5,54.5 C 85.1667,54.5 86.8333,54.5 88.5,54.5C 89.5063,55.3957 89.5063,56.0623 88.5,56.5C 86.1667,56.5 83.8333,56.5 81.5,56.5C 80.8333,56.5 80.1667,56.5 79.5,56.5C 79.369,55.7611 79.5357,55.0944 80,54.5C 80.9862,55.1712 82.1529,55.1712 83.5,54.5 Z"/></g>
<g><path style="opacity:1" fill="#585043" d="M 96.5,52.5 C 97.4916,52.3284 98.1583,52.6618 98.5,53.5C 98.754,54.3321 99.754,54.9987 101.5,55.5C 101.5,55.8333 101.5,56.1667 101.5,56.5C 100.833,56.5 100.167,56.5 99.5,56.5C 98.791,55.596 97.791,55.2627 96.5,55.5C 96.5,54.5 96.5,53.5 96.5,52.5 Z"/></g>
<g><path style="opacity:0.973" fill="#39342f" d="M 98.5,53.5 C 100.621,53.3253 102.621,53.6586 104.5,54.5C 104.5,54.8333 104.5,55.1667 104.5,55.5C 103.5,55.5 102.5,55.5 101.5,55.5C 99.754,54.9987 98.754,54.3321 98.5,53.5 Z"/></g>
<g><path style="opacity:0.435" fill="#2d2a26" d="M 104.5,55.5 C 104.5,55.1667 104.5,54.8333 104.5,54.5C 107.598,54.7556 110.598,55.4222 113.5,56.5C 113.5,56.8333 113.5,57.1667 113.5,57.5C 110.5,56.8333 107.5,56.1667 104.5,55.5 Z"/></g>
<g><path style="opacity:1" fill="#614124" d="M 36.5,53.5 C 38.7857,53.595 40.7857,54.2616 42.5,55.5C 37.8108,55.6314 37.4775,56.6314 41.5,58.5C 41.5,59.1667 41.1667,59.5 40.5,59.5C 40.1667,59.5 39.8333,59.5 39.5,59.5C 38.8333,58.8333 38.1667,58.1667 37.5,57.5C 36.7659,56.2921 36.4326,54.9587 36.5,53.5 Z"/></g>
<g><path style="opacity:0.149" fill="#2b2724" d="M 54.5,51.5 C 54.3284,52.4916 54.6618,53.1583 55.5,53.5C 57.2161,53.6287 58.8828,53.962 60.5,54.5C 59.1667,55.1667 57.8333,55.8333 56.5,56.5C 54.5853,56.2155 52.9187,56.5489 51.5,57.5C 50.8333,57.5 50.1667,57.5 49.5,57.5C 48.5084,57.6716 47.8417,57.3382 47.5,56.5C 49.854,56.162 52.1873,55.662 54.5,55C 53.2089,53.7083 53.2089,52.5417 54.5,51.5 Z"/></g>
<g><path style="opacity:1" fill="#534a3a" d="M 60.5,54.5 C 61.1667,54.5 61.8333,54.5 62.5,54.5C 62.8333,54.5 63.1667,54.5 63.5,54.5C 62.9002,55.8999 61.9002,56.8999 60.5,57.5C 60.1667,57.5 59.8333,57.5 59.5,57.5C 58.609,56.8902 57.609,56.5569 56.5,56.5C 57.8333,55.8333 59.1667,55.1667 60.5,54.5 Z"/></g>
<g><path style="opacity:1" fill="#827c71" d="M 63.5,54.5 C 64.2216,54.9175 64.7216,55.5842 65,56.5C 65.6708,55.7476 66.5041,55.4142 67.5,55.5C 70.8333,55.5 74.1667,55.5 77.5,55.5C 77.1583,56.3382 76.4916,56.6716 75.5,56.5C 74.8333,56.5 74.1667,56.5 73.5,56.5C 72.8333,56.5 72.1667,56.5 71.5,56.5C 68.5701,57.299 65.5701,57.6323 62.5,57.5C 61.8333,57.5 61.1667,57.5 60.5,57.5C 61.9002,56.8999 62.9002,55.8999 63.5,54.5 Z"/></g>
<g><path style="opacity:1" fill="#564936" d="M 101.5,56.5 C 101.5,56.1667 101.5,55.8333 101.5,55.5C 102.5,55.5 103.5,55.5 104.5,55.5C 107.5,56.1667 110.5,56.8333 113.5,57.5C 113.5,57.8333 113.5,58.1667 113.5,58.5C 111.435,58.4828 109.435,58.1495 107.5,57.5C 105.784,57.3713 104.117,57.038 102.5,56.5C 102.167,56.5 101.833,56.5 101.5,56.5 Z"/></g>
<g><path style="opacity:1" fill="#5f4c30" d="M 6.5,56.5 C 7.16667,56.5 7.83333,56.5 8.5,56.5C 9.16667,56.5 9.5,56.8333 9.5,57.5C 6.90173,58.5278 6.90173,59.5278 9.5,60.5C 9.84171,61.3382 10.5084,61.6716 11.5,61.5C 11.5,62.1667 11.1667,62.5 10.5,62.5C 9.39105,62.4431 8.39105,62.1098 7.5,61.5C 6.59872,60.7095 5.93205,59.7095 5.5,58.5C 6.33825,58.1583 6.67158,57.4916 6.5,56.5 Z"/></g>
<g><path style="opacity:1" fill="#603719" d="M 11.5,53.5 C 12.9952,53.9887 14.3285,54.6554 15.5,55.5C 14.8333,55.5 14.1667,55.5 13.5,55.5C 11.7673,56.0076 11.434,56.841 12.5,58C 11.4232,58.4696 10.4232,58.3029 9.5,57.5C 9.5,56.8333 9.16667,56.5 8.5,56.5C 9.69354,55.7281 10.6935,54.7281 11.5,53.5 Z"/></g>
<g><path style="opacity:1" fill="#55331d" d="M 13.5,55.5 C 14.1667,55.5 14.8333,55.5 15.5,55.5C 16.5,55.5 17.5,55.5 18.5,55.5C 18.8333,56.1667 19.1667,56.8333 19.5,57.5C 17.965,56.6457 16.6316,56.6457 15.5,57.5C 14.1667,57.5 13.5,56.8333 13.5,55.5 Z"/></g>
<g><path style="opacity:1" fill="#55442e" d="M 36.5,53.5 C 36.4326,54.9587 36.7659,56.2921 37.5,57.5C 35.5168,57.8432 34.1834,57.1765 33.5,55.5C 33.9731,54.0937 34.9731,53.427 36.5,53.5 Z"/></g>
<g><path style="opacity:1" fill="#544d3c" d="M 51.5,57.5 C 52.9187,56.5489 54.5853,56.2155 56.5,56.5C 57.609,56.5569 58.609,56.8902 59.5,57.5C 58.791,58.404 57.791,58.7373 56.5,58.5C 55.0813,57.5489 53.4147,57.2155 51.5,57.5 Z"/></g>
<g><path style="opacity:1" fill="#857a68" d="M 88.5,54.5 C 90.099,54.2322 91.4324,54.5655 92.5,55.5C 91.6618,55.8417 91.3284,56.5084 91.5,57.5C 90.8333,57.8333 90.1667,58.1667 89.5,58.5C 88.5,58.5 87.5,58.5 86.5,58.5C 85.7611,58.631 85.0944,58.4643 84.5,58C 86.0581,57.79 87.3915,57.29 88.5,56.5C 89.5063,56.0623 89.5063,55.3957 88.5,54.5 Z"/></g>
<g><path style="opacity:1" fill="#8c877d" d="M 94.5,53.5 C 95.1667,54.1667 95.8333,54.8333 96.5,55.5C 97.791,55.2627 98.791,55.596 99.5,56.5C 97.901,56.2322 96.5676,56.5655 95.5,57.5C 94.1667,57.5 92.8333,57.5 91.5,57.5C 91.3284,56.5084 91.6618,55.8417 92.5,55.5C 93.8333,55.5 94.5,54.8333 94.5,53.5 Z"/></g>
<g><path style="opacity:1" fill="#bab5af" d="M 95.5,57.5 C 96.5676,56.5655 97.901,56.2322 99.5,56.5C 100.167,56.5 100.833,56.5 101.5,56.5C 101.833,56.5 102.167,56.5 102.5,56.5C 102.5,57.1667 102.5,57.8333 102.5,58.5C 100.236,57.7814 97.9029,57.448 95.5,57.5 Z"/></g>
<g><path style="opacity:1" fill="#6e461e" d="M 42.5,55.5 C 42.8333,56.5 43.5,57.1667 44.5,57.5C 43.791,58.404 42.791,58.7373 41.5,58.5C 37.4775,56.6314 37.8108,55.6314 42.5,55.5 Z"/></g>
<g><path style="opacity:0.975" fill="#3a3530" d="M 42.5,55.5 C 44.1172,56.038 45.7839,56.3713 47.5,56.5C 47.8417,57.3382 48.5084,57.6716 49.5,57.5C 49.5,57.8333 49.5,58.1667 49.5,58.5C 48.1667,58.5 46.8333,58.5 45.5,58.5C 45.5,57.8333 45.1667,57.5 44.5,57.5C 43.5,57.1667 42.8333,56.5 42.5,55.5 Z"/></g>
<g><path style="opacity:1" fill="#5d5949" d="M 49.5,58.5 C 49.5,58.1667 49.5,57.8333 49.5,57.5C 50.1667,57.5 50.8333,57.5 51.5,57.5C 53.4147,57.2155 55.0813,57.5489 56.5,58.5C 56.5,58.8333 56.5,59.1667 56.5,59.5C 55.8333,59.5 55.1667,59.5 54.5,59.5C 53.0813,58.5489 51.4147,58.2155 49.5,58.5 Z"/></g>
<g><path style="opacity:1" fill="#a23725" d="M 71.5,56.5 C 72.1667,56.5 72.8333,56.5 73.5,56.5C 73.5,57.1667 73.5,57.8333 73.5,58.5C 72.8333,58.5 72.1667,58.5 71.5,58.5C 71.5,57.8333 71.5,57.1667 71.5,56.5 Z"/></g>
<g><path style="opacity:1" fill="#8d7f5d" d="M 73.5,56.5 C 74.1667,56.5 74.8333,56.5 75.5,56.5C 76.209,57.404 77.209,57.7373 78.5,57.5C 78.5,58.5 78.5,59.5 78.5,60.5C 77.0413,60.5674 75.7079,60.2341 74.5,59.5C 74.5,58.8333 74.1667,58.5 73.5,58.5C 73.5,57.8333 73.5,57.1667 73.5,56.5 Z"/></g>
<g><path style="opacity:0.882" fill="#37322d" d="M 113.5,56.5 C 116.032,57.5957 118.365,58.9291 120.5,60.5C 119.833,60.5 119.167,60.5 118.5,60.5C 117.833,60.5 117.167,60.5 116.5,60.5C 115.71,59.5987 114.71,58.9321 113.5,58.5C 113.5,58.1667 113.5,57.8333 113.5,57.5C 113.5,57.1667 113.5,56.8333 113.5,56.5 Z"/></g>
<g><path style="opacity:1" fill="#6a3e1c" d="M 19.5,57.5 C 21.153,57.6596 22.4863,58.3263 23.5,59.5C 23.5,59.8333 23.5,60.1667 23.5,60.5C 20.9179,60.0254 18.9179,60.6921 17.5,62.5C 17.1667,62.5 16.8333,62.5 16.5,62.5C 16.5,61.1667 15.8333,60.5 14.5,60.5C 14.3893,59.8826 14.056,59.3826 13.5,59C 14.4158,58.7216 15.0825,58.2216 15.5,57.5C 16.6316,56.6457 17.965,56.6457 19.5,57.5 Z"/></g>
<g><path style="opacity:0.843" fill="#332c2a" d="M 18.5,55.5 C 21.6592,57.0795 24.9925,58.0795 28.5,58.5C 27.0813,59.4511 25.4147,59.7845 23.5,59.5C 22.4863,58.3263 21.153,57.6596 19.5,57.5C 19.1667,56.8333 18.8333,56.1667 18.5,55.5 Z"/></g>
<g><path style="opacity:0.047" fill="#2d2623" d="M 33.5,55.5 C 34.1834,57.1765 35.5168,57.8432 37.5,57.5C 38.1667,58.1667 38.8333,58.8333 39.5,59.5C 38.8333,59.5 38.1667,59.5 37.5,59.5C 36.391,59.4431 35.391,59.1098 34.5,58.5C 32.4482,57.9473 32.1148,56.9473 33.5,55.5 Z"/></g>
<g><path style="opacity:1" fill="#675d48" d="M 59.5,57.5 C 59.8333,57.5 60.1667,57.5 60.5,57.5C 61.1667,57.5 61.8333,57.5 62.5,57.5C 62.5,58.1667 62.5,58.8333 62.5,59.5C 61.5084,59.3284 60.8417,59.6618 60.5,60.5C 59.0413,60.5674 57.7079,60.2341 56.5,59.5C 56.5,59.1667 56.5,58.8333 56.5,58.5C 57.791,58.7373 58.791,58.404 59.5,57.5 Z"/></g>
<g><path style="opacity:1" fill="#6d634b" d="M 71.5,56.5 C 71.5,57.1667 71.5,57.8333 71.5,58.5C 71.1583,59.3382 70.4916,59.6716 69.5,59.5C 68.1054,58.1854 67.1054,58.5188 66.5,60.5C 65.6618,60.8417 65.3284,61.5084 65.5,62.5C 64.6618,62.1583 64.3284,61.4916 64.5,60.5C 64.5912,58.3023 63.9245,57.9689 62.5,59.5C 62.5,58.8333 62.5,58.1667 62.5,57.5C 65.5701,57.6323 68.5701,57.299 71.5,56.5 Z"/></g>
<g><path style="opacity:1" fill="#a28b64" d="M 79.5,56.5 C 80.1667,56.5 80.8333,56.5 81.5,56.5C 81.7822,57.7777 82.4489,58.7777 83.5,59.5C 83.7373,60.791 83.404,61.791 82.5,62.5C 81.209,62.2627 80.209,62.596 79.5,63.5C 78.0755,61.9689 77.4088,62.3023 77.5,64.5C 76.6618,64.1583 76.3284,63.4916 76.5,62.5C 75.4489,61.7777 74.7822,60.7777 74.5,59.5C 75.7079,60.2341 77.0413,60.5674 78.5,60.5C 78.5,59.5 78.5,58.5 78.5,57.5C 78.5,56.8333 78.8333,56.5 79.5,56.5 Z"/></g>
<g><path style="opacity:1" fill="#6e684e" d="M 81.5,56.5 C 83.8333,56.5 86.1667,56.5 88.5,56.5C 87.3915,57.29 86.0581,57.79 84.5,58C 85.0944,58.4643 85.7611,58.631 86.5,58.5C 86.5,59.8333 86.5,61.1667 86.5,62.5C 85.1001,61.9002 84.1001,60.9002 83.5,59.5C 82.4489,58.7777 81.7822,57.7777 81.5,56.5 Z"/></g>
<g><path style="opacity:1" fill="#655f49" d="M 91.5,57.5 C 92.8333,57.5 94.1667,57.5 95.5,57.5C 95.5,57.8333 95.5,58.1667 95.5,58.5C 95.5,59.1667 95.5,59.8333 95.5,60.5C 95.44,61.0431 95.1067,61.3764 94.5,61.5C 92.9246,60.5435 91.258,59.8769 89.5,59.5C 89.5,59.1667 89.5,58.8333 89.5,58.5C 90.1667,58.1667 90.8333,57.8333 91.5,57.5 Z"/></g>
<g><path style="opacity:1" fill="#5f533c" d="M 107.5,57.5 C 109.435,58.1495 111.435,58.4828 113.5,58.5C 114.71,58.9321 115.71,59.5987 116.5,60.5C 115.833,60.5 115.167,60.5 114.5,60.5C 113.969,61.7954 112.636,62.4621 110.5,62.5C 109.853,60.8595 108.853,59.5261 107.5,58.5C 107.5,58.1667 107.5,57.8333 107.5,57.5 Z"/></g>
<g><path style="opacity:1" fill="#714c21" d="M 13.5,55.5 C 13.5,56.8333 14.1667,57.5 15.5,57.5C 15.0825,58.2216 14.4158,58.7216 13.5,59C 14.056,59.3826 14.3893,59.8826 14.5,60.5C 12.8333,60.5 11.1667,60.5 9.5,60.5C 6.90173,59.5278 6.90173,58.5278 9.5,57.5C 10.4232,58.3029 11.4232,58.4696 12.5,58C 11.434,56.841 11.7673,56.0076 13.5,55.5 Z"/></g>
<g><path style="opacity:1" fill="#493f36" d="M 28.5,58.5 C 30.6907,59.2907 32.6907,59.2907 34.5,58.5C 35.391,59.1098 36.391,59.4431 37.5,59.5C 35.7354,60.4614 33.7354,60.7947 31.5,60.5C 29.901,60.2322 28.5676,60.5655 27.5,61.5C 27.1667,61.5 26.8333,61.5 26.5,61.5C 25.791,60.596 24.791,60.2627 23.5,60.5C 23.5,60.1667 23.5,59.8333 23.5,59.5C 25.4147,59.7845 27.0813,59.4511 28.5,58.5 Z"/></g>
<g><path style="opacity:1" fill="#584b37" d="M 44.5,57.5 C 45.1667,57.5 45.5,57.8333 45.5,58.5C 44.8166,60.1765 43.4832,60.8432 41.5,60.5C 41.1667,60.5 40.8333,60.5 40.5,60.5C 40.5,60.1667 40.5,59.8333 40.5,59.5C 41.1667,59.5 41.5,59.1667 41.5,58.5C 42.791,58.7373 43.791,58.404 44.5,57.5 Z"/></g>
<g><path style="opacity:1" fill="#817a68" d="M 49.5,59.5 C 49.5,59.1667 49.5,58.8333 49.5,58.5C 51.4147,58.2155 53.0813,58.5489 54.5,59.5C 54.5,59.8333 54.5,60.1667 54.5,60.5C 53.6522,61.625 52.6522,61.625 51.5,60.5C 51.1583,59.6618 50.4916,59.3284 49.5,59.5 Z"/></g>
<g><path style="opacity:1" fill="#a49370" d="M 64.5,60.5 C 63.6618,60.8417 63.3284,61.5084 63.5,62.5C 62.5,62.5 61.5,62.5 60.5,62.5C 60.9175,61.7784 61.5842,61.2784 62.5,61C 61.9056,60.5357 61.2389,60.369 60.5,60.5C 60.8417,59.6618 61.5084,59.3284 62.5,59.5C 63.9245,57.9689 64.5912,58.3023 64.5,60.5 Z"/></g>
<g><path style="opacity:1" fill="#b48261" d="M 71.5,58.5 C 72.1667,58.5 72.8333,58.5 73.5,58.5C 72.7659,59.7079 72.4326,61.0413 72.5,62.5C 71.391,62.4431 70.391,62.1098 69.5,61.5C 69.5,60.8333 69.5,60.1667 69.5,59.5C 70.4916,59.6716 71.1583,59.3382 71.5,58.5 Z"/></g>
<g><path style="opacity:1" fill="#67604d" d="M 95.5,58.5 C 95.5,58.1667 95.5,57.8333 95.5,57.5C 97.9029,57.448 100.236,57.7814 102.5,58.5C 105.925,58.3668 106.258,59.0335 103.5,60.5C 102.662,60.8417 102.328,61.5084 102.5,62.5C 101.833,61.8333 101.167,61.1667 100.5,60.5C 99.0697,59.4625 97.403,58.7959 95.5,58.5 Z"/></g>
<g><path style="opacity:1" fill="#7d7a52" d="M 107.5,58.5 C 108.853,59.5261 109.853,60.8595 110.5,62.5C 109.5,62.5 108.5,62.5 107.5,62.5C 107.167,62.5 106.833,62.5 106.5,62.5C 106.232,60.901 106.566,59.5676 107.5,58.5 Z"/></g>
<g><path style="opacity:1" fill="#7a4719" d="M 9.5,60.5 C 11.1667,60.5 12.8333,60.5 14.5,60.5C 15.8333,60.5 16.5,61.1667 16.5,62.5C 16.1583,63.3382 15.4916,63.6716 14.5,63.5C 13.7777,62.4489 12.7777,61.7822 11.5,61.5C 10.5084,61.6716 9.84171,61.3382 9.5,60.5 Z"/></g>
<g><path style="opacity:1" fill="#715539" d="M 23.5,60.5 C 24.791,60.2627 25.791,60.596 26.5,61.5C 25.1667,61.5 23.8333,61.5 22.5,61.5C 21.8333,61.5 21.1667,61.5 20.5,61.5C 19.6618,61.8417 19.3284,62.5084 19.5,63.5C 18.8333,63.1667 18.1667,62.8333 17.5,62.5C 18.9179,60.6921 20.9179,60.0254 23.5,60.5 Z"/></g>
<g><path style="opacity:1" fill="#574d3b" d="M 37.5,59.5 C 38.1667,59.5 38.8333,59.5 39.5,59.5C 39.8333,59.5 40.1667,59.5 40.5,59.5C 40.5,59.8333 40.5,60.1667 40.5,60.5C 39.8333,60.5 39.5,60.8333 39.5,61.5C 36.6146,61.8064 33.9479,61.4731 31.5,60.5C 33.7354,60.7947 35.7354,60.4614 37.5,59.5 Z"/></g>
<g><path style="opacity:1" fill="#716752" d="M 49.5,59.5 C 50.4916,59.3284 51.1583,59.6618 51.5,60.5C 50.7611,60.369 50.0944,60.5357 49.5,61C 50.4158,61.2784 51.0825,61.7784 51.5,62.5C 50.3412,63.7403 49.3412,65.0736 48.5,66.5C 48.7373,65.209 48.404,64.209 47.5,63.5C 47.1568,61.5168 47.8235,60.1834 49.5,59.5 Z"/></g>
<g><path style="opacity:1" fill="#857b5a" d="M 54.5,60.5 C 54.5,60.1667 54.5,59.8333 54.5,59.5C 55.1667,59.5 55.8333,59.5 56.5,59.5C 57.7079,60.2341 59.0413,60.5674 60.5,60.5C 61.2389,60.369 61.9056,60.5357 62.5,61C 61.5842,61.2784 60.9175,61.7784 60.5,62.5C 59.8333,62.5 59.1667,62.5 58.5,62.5C 57.8333,62.5 57.1667,62.5 56.5,62.5C 56.5,61.1667 55.8333,60.5 54.5,60.5 Z"/></g>
<g><path style="opacity:1" fill="#ad8f65" d="M 86.5,58.5 C 87.5,58.5 88.5,58.5 89.5,58.5C 89.5,58.8333 89.5,59.1667 89.5,59.5C 89.5569,60.609 89.8902,61.609 90.5,62.5C 89.8333,62.5 89.1667,62.5 88.5,62.5C 88.1667,62.5 87.8333,62.5 87.5,62.5C 87.1667,62.5 86.8333,62.5 86.5,62.5C 86.5,61.1667 86.5,59.8333 86.5,58.5 Z"/></g>
<g><path style="opacity:1" fill="#827c67" d="M 102.5,56.5 C 104.117,57.038 105.784,57.3713 107.5,57.5C 107.5,57.8333 107.5,58.1667 107.5,58.5C 106.566,59.5676 106.232,60.901 106.5,62.5C 104.973,62.573 103.973,61.9063 103.5,60.5C 106.258,59.0335 105.925,58.3668 102.5,58.5C 102.5,57.8333 102.5,57.1667 102.5,56.5 Z"/></g>
<g><path style="opacity:0.678" fill="#3f3c32" d="M 118.5,60.5 C 119.167,60.5 119.833,60.5 120.5,60.5C 121.833,62.8333 121.833,65.1667 120.5,67.5C 120.5,66.5 120.5,65.5 120.5,64.5C 120.672,63.5084 120.338,62.8417 119.5,62.5C 119.167,61.8333 118.833,61.1667 118.5,60.5 Z"/></g>
<g><path style="opacity:1" fill="#755c44" d="M 31.5,60.5 C 33.9479,61.4731 36.6146,61.8064 39.5,61.5C 38.5,62.1667 37.5,62.8333 36.5,63.5C 35.8333,63.5 35.1667,63.5 34.5,63.5C 33.0011,62.506 31.3344,62.506 29.5,63.5C 28.8333,62.8333 28.1667,62.1667 27.5,61.5C 28.5676,60.5655 29.901,60.2322 31.5,60.5 Z"/></g>
<g><path style="opacity:1" fill="#5a5240" d="M 45.5,58.5 C 46.8333,58.5 48.1667,58.5 49.5,58.5C 49.5,58.8333 49.5,59.1667 49.5,59.5C 47.8235,60.1834 47.1568,61.5168 47.5,63.5C 46.8333,63.5 46.1667,63.5 45.5,63.5C 45.5299,62.5028 45.0299,61.8361 44,61.5C 41.4416,63.1466 40.6083,62.8133 41.5,60.5C 43.4832,60.8432 44.8166,60.1765 45.5,58.5 Z"/></g>
<g><path style="opacity:1" fill="#ab815d" d="M 51.5,60.5 C 52.6522,61.625 53.6522,61.625 54.5,60.5C 55.8333,60.5 56.5,61.1667 56.5,62.5C 56.5,63.1667 56.5,63.8333 56.5,64.5C 55.5,64.5 54.5,64.5 53.5,64.5C 53.5,63.1667 52.8333,62.5 51.5,62.5C 51.0825,61.7784 50.4158,61.2784 49.5,61C 50.0944,60.5357 50.7611,60.369 51.5,60.5 Z"/></g>
<g><path style="opacity:1" fill="#8b7f5a" d="M 69.5,59.5 C 69.5,60.1667 69.5,60.8333 69.5,61.5C 68.4937,61.9377 68.4937,62.6043 69.5,63.5C 68.7611,63.631 68.0944,63.4643 67.5,63C 67.1164,62.0494 66.7831,61.2161 66.5,60.5C 67.1054,58.5188 68.1054,58.1854 69.5,59.5 Z"/></g>
<g><path style="opacity:1" fill="#867a5f" d="M 73.5,58.5 C 74.1667,58.5 74.5,58.8333 74.5,59.5C 74.7822,60.7777 75.4489,61.7777 76.5,62.5C 75.7777,63.5511 74.7777,64.2178 73.5,64.5C 73.6716,63.5084 73.3382,62.8417 72.5,62.5C 72.4326,61.0413 72.7659,59.7079 73.5,58.5 Z"/></g>
<g><path style="opacity:1" fill="#8b8660" d="M 89.5,59.5 C 91.258,59.8769 92.9246,60.5435 94.5,61.5C 95.1067,61.3764 95.44,61.0431 95.5,60.5C 96.552,60.3505 97.552,60.5172 98.5,61C 97.6195,61.7083 96.9528,62.5416 96.5,63.5C 96.1667,63.5 95.8333,63.5 95.5,63.5C 95.1667,62.1667 94.8333,62.1667 94.5,63.5C 93.1667,63.1667 91.8333,62.8333 90.5,62.5C 89.8902,61.609 89.5569,60.609 89.5,59.5 Z"/></g>
<g><path style="opacity:1" fill="#817d64" d="M 114.5,60.5 C 115.167,60.5 115.833,60.5 116.5,60.5C 117.167,60.5 117.833,60.5 118.5,60.5C 118.833,61.1667 119.167,61.8333 119.5,62.5C 117.833,62.5 116.167,62.5 114.5,62.5C 114.5,61.8333 114.5,61.1667 114.5,60.5 Z"/></g>
<g><path style="opacity:1" fill="#694320" d="M 11.5,61.5 C 12.7777,61.7822 13.7777,62.4489 14.5,63.5C 13.3303,65.2785 11.6636,66.2785 9.5,66.5C 9.83333,65.1667 10.1667,63.8333 10.5,62.5C 11.1667,62.5 11.5,62.1667 11.5,61.5 Z"/></g>
<g><path style="opacity:1" fill="#8d7b62" d="M 20.5,61.5 C 20.7921,62.8736 21.1254,64.2069 21.5,65.5C 21.5,66.5 21.5,67.5 21.5,68.5C 19.8235,67.8166 19.1568,66.4832 19.5,64.5C 19.5,64.1667 19.5,63.8333 19.5,63.5C 19.3284,62.5084 19.6618,61.8417 20.5,61.5 Z"/></g>
<g><path style="opacity:1" fill="#888162" d="M 22.5,61.5 C 23.8333,61.5 25.1667,61.5 26.5,61.5C 26.8333,61.5 27.1667,61.5 27.5,61.5C 28.1667,62.1667 28.8333,62.8333 29.5,63.5C 29.5,63.8333 29.5,64.1667 29.5,64.5C 28.8333,64.5 28.1667,64.5 27.5,64.5C 26.4863,63.3263 25.153,62.6596 23.5,62.5C 22.8333,62.5 22.5,62.1667 22.5,61.5 Z"/></g>
<g><path style="opacity:1" fill="#b79470" d="M 58.5,62.5 C 59.1667,62.5 59.8333,62.5 60.5,62.5C 62.4931,63.4716 62.8264,64.8049 61.5,66.5C 60.8333,66.5 60.1667,66.5 59.5,66.5C 59.5674,65.0413 59.2341,63.7079 58.5,62.5 Z"/></g>
<g><path style="opacity:1" fill="#aca17a" d="M 83.5,59.5 C 84.1001,60.9002 85.1001,61.9002 86.5,62.5C 86.8333,62.5 87.1667,62.5 87.5,62.5C 87.5,63.1667 87.5,63.8333 87.5,64.5C 85.4471,64.5979 83.7804,63.9313 82.5,62.5C 83.404,61.791 83.7373,60.791 83.5,59.5 Z"/></g>
<g><path style="opacity:1" fill="#706a4f" d="M 95.5,58.5 C 97.403,58.7959 99.0697,59.4625 100.5,60.5C 100.66,62.1992 100.494,63.8659 100,65.5C 99.7216,64.5842 99.2216,63.9175 98.5,63.5C 97.8333,63.5 97.1667,63.5 96.5,63.5C 96.9528,62.5416 97.6195,61.7083 98.5,61C 97.552,60.5172 96.552,60.3505 95.5,60.5C 95.5,59.8333 95.5,59.1667 95.5,58.5 Z"/></g>
<g><path style="opacity:1" fill="#8a825d" d="M 103.5,60.5 C 103.973,61.9063 104.973,62.573 106.5,62.5C 106.833,62.5 107.167,62.5 107.5,62.5C 107.5,62.8333 107.5,63.1667 107.5,63.5C 106.365,64.1027 105.365,64.4361 104.5,64.5C 104.167,64.5 103.833,64.5 103.5,64.5C 103.672,63.5084 103.338,62.8417 102.5,62.5C 102.328,61.5084 102.662,60.8417 103.5,60.5 Z"/></g>
<g><path style="opacity:1" fill="#a5a870" d="M 114.5,62.5 C 116.167,62.5 117.833,62.5 119.5,62.5C 120.338,62.8417 120.672,63.5084 120.5,64.5C 119.317,65.5045 117.984,66.3378 116.5,67C 117.598,67.7697 117.598,68.603 116.5,69.5C 115.662,69.1583 115.328,68.4916 115.5,67.5C 115.443,66.391 115.11,65.391 114.5,64.5C 114.5,63.8333 114.5,63.1667 114.5,62.5 Z"/></g>
<g><path style="opacity:1" fill="#544738" d="M 7.5,61.5 C 8.39105,62.1098 9.39105,62.4431 10.5,62.5C 10.1667,63.8333 9.83333,65.1667 9.5,66.5C 8.44272,67.206 8.77606,67.5393 10.5,67.5C 9.09982,68.1001 8.09982,69.1001 7.5,70.5C 7.5,71.5 7.5,72.5 7.5,73.5C 7.5,74.1667 7.5,74.8333 7.5,75.5C 7.16667,75.5 6.83333,75.5 6.5,75.5C 5.43799,71.6378 6.10466,67.9711 8.5,64.5C 7.87277,63.5832 7.53944,62.5832 7.5,61.5 Z"/></g>
<g><path style="opacity:1" fill="#847a5a" d="M 34.5,63.5 C 34.5,63.8333 34.5,64.1667 34.5,64.5C 32.9008,65.562 31.2341,65.562 29.5,64.5C 29.5,64.1667 29.5,63.8333 29.5,63.5C 31.3344,62.506 33.0011,62.506 34.5,63.5 Z"/></g>
<g><path style="opacity:1" fill="#918868" d="M 40.5,60.5 C 40.8333,60.5 41.1667,60.5 41.5,60.5C 40.6083,62.8133 41.4416,63.1466 44,61.5C 45.0299,61.8361 45.5299,62.5028 45.5,63.5C 45.5,63.8333 45.5,64.1667 45.5,64.5C 42.2869,64.81 39.2869,64.4767 36.5,63.5C 37.5,62.8333 38.5,62.1667 39.5,61.5C 39.5,60.8333 39.8333,60.5 40.5,60.5 Z"/></g>
<g><path style="opacity:1" fill="#93906d" d="M 64.5,60.5 C 64.3284,61.4916 64.6618,62.1583 65.5,62.5C 65.7822,63.7777 66.4489,64.7777 67.5,65.5C 65.0274,65.9118 63.6941,64.9118 63.5,62.5C 63.3284,61.5084 63.6618,60.8417 64.5,60.5 Z"/></g>
<g><path style="opacity:1" fill="#aca380" d="M 66.5,60.5 C 66.7831,61.2161 67.1164,62.0494 67.5,63C 68.0944,63.4643 68.7611,63.631 69.5,63.5C 69.1667,64.5 68.5,65.1667 67.5,65.5C 66.4489,64.7777 65.7822,63.7777 65.5,62.5C 65.3284,61.5084 65.6618,60.8417 66.5,60.5 Z"/></g>
<g><path style="opacity:1" fill="#a33628" d="M 79.5,63.5 C 79.5,63.8333 79.5,64.1667 79.5,64.5C 78.8333,64.5 78.1667,64.5 77.5,64.5C 77.4088,62.3023 78.0755,61.9689 79.5,63.5 Z"/></g>
<g><path style="opacity:1" fill="#97975d" d="M 114.5,60.5 C 114.5,61.1667 114.5,61.8333 114.5,62.5C 114.5,63.1667 114.5,63.8333 114.5,64.5C 113.5,64.5 112.5,64.5 111.5,64.5C 110.041,64.4326 108.708,64.7659 107.5,65.5C 107.5,64.8333 107.5,64.1667 107.5,63.5C 107.5,63.1667 107.5,62.8333 107.5,62.5C 108.5,62.5 109.5,62.5 110.5,62.5C 112.636,62.4621 113.969,61.7954 114.5,60.5 Z"/></g>
<g><path style="opacity:1" fill="#bdb29b" d="M 20.5,61.5 C 21.1667,61.5 21.8333,61.5 22.5,61.5C 22.5,62.1667 22.8333,62.5 23.5,62.5C 23.5774,63.7498 24.244,64.5831 25.5,65C 24.2068,65.49 22.8734,65.6567 21.5,65.5C 21.1254,64.2069 20.7921,62.8736 20.5,61.5 Z"/></g>
<g><path style="opacity:1" fill="#baa980" d="M 23.5,62.5 C 25.153,62.6596 26.4863,63.3263 27.5,64.5C 28.1667,65.1667 28.8333,65.8333 29.5,66.5C 26.6122,65.9898 24.2789,66.6565 22.5,68.5C 22.1667,68.5 21.8333,68.5 21.5,68.5C 21.5,67.5 21.5,66.5 21.5,65.5C 22.8734,65.6567 24.2068,65.49 25.5,65C 24.244,64.5831 23.5774,63.7498 23.5,62.5 Z"/></g>
<g><path style="opacity:1" fill="#b1a782" d="M 27.5,64.5 C 28.1667,64.5 28.8333,64.5 29.5,64.5C 31.2341,65.562 32.9008,65.562 34.5,64.5C 35.1667,65.1667 35.8333,65.8333 36.5,66.5C 33.5404,67.032 33.2071,67.6987 35.5,68.5C 34.8333,69.1667 34.1667,69.8333 33.5,70.5C 33.1667,70.5 32.8333,70.5 32.5,70.5C 32.7148,68.8212 32.0481,67.8212 30.5,67.5C 30.5,66.8333 30.1667,66.5 29.5,66.5C 28.8333,65.8333 28.1667,65.1667 27.5,64.5 Z"/></g>
<g><path style="opacity:1" fill="#b29e7b" d="M 34.5,63.5 C 35.1667,63.5 35.8333,63.5 36.5,63.5C 39.2869,64.4767 42.2869,64.81 45.5,64.5C 45.5,65.1667 45.5,65.8333 45.5,66.5C 43.8333,66.5 42.1667,66.5 40.5,66.5C 39.1667,66.5 37.8333,66.5 36.5,66.5C 35.8333,65.8333 35.1667,65.1667 34.5,64.5C 34.5,64.1667 34.5,63.8333 34.5,63.5 Z"/></g>
<g><path style="opacity:1" fill="#aea77f" d="M 45.5,63.5 C 46.1667,63.5 46.8333,63.5 47.5,63.5C 48.404,64.209 48.7373,65.209 48.5,66.5C 48.1667,66.5 47.8333,66.5 47.5,66.5C 46.8333,66.5 46.1667,66.5 45.5,66.5C 45.5,65.8333 45.5,65.1667 45.5,64.5C 45.5,64.1667 45.5,63.8333 45.5,63.5 Z"/></g>
<g><path style="opacity:1" fill="#b2bb95" d="M 56.5,62.5 C 57.1667,62.5 57.8333,62.5 58.5,62.5C 59.2341,63.7079 59.5674,65.0413 59.5,66.5C 58.8333,66.8333 58.1667,67.1667 57.5,67.5C 57.4431,66.391 57.1098,65.391 56.5,64.5C 56.5,63.8333 56.5,63.1667 56.5,62.5 Z"/></g>
<g><path style="opacity:1" fill="#a5b796" d="M 69.5,63.5 C 70.675,63.281 71.675,63.6143 72.5,64.5C 71.0065,65.1411 70.0065,66.1411 69.5,67.5C 67.8333,67.5 66.1667,67.5 64.5,67.5C 63.8333,67.5 63.5,67.8333 63.5,68.5C 61.5992,68.7535 60.9326,68.4202 61.5,67.5C 63.6264,66.9518 65.6264,66.2852 67.5,65.5C 68.5,65.1667 69.1667,64.5 69.5,63.5 Z"/></g>
<g><path style="opacity:1" fill="#baa987" d="M 76.5,62.5 C 76.3284,63.4916 76.6618,64.1583 77.5,64.5C 78.1667,64.5 78.8333,64.5 79.5,64.5C 78.1667,65.1667 76.8333,65.8333 75.5,66.5C 74.5,66.1667 73.8333,65.5 73.5,64.5C 74.7777,64.2178 75.7777,63.5511 76.5,62.5 Z"/></g>
<g><path style="opacity:1" fill="#cdbc93" d="M 87.5,62.5 C 87.8333,62.5 88.1667,62.5 88.5,62.5C 89.1667,65.1667 89.8333,65.1667 90.5,62.5C 91.8333,62.8333 93.1667,63.1667 94.5,63.5C 94.573,65.0269 93.9063,66.0269 92.5,66.5C 91.0813,65.5489 89.4147,65.2155 87.5,65.5C 87.5,65.1667 87.5,64.8333 87.5,64.5C 87.5,63.8333 87.5,63.1667 87.5,62.5 Z"/></g>
<g><path style="opacity:1" fill="#9d2919" d="M 88.5,62.5 C 89.1667,62.5 89.8333,62.5 90.5,62.5C 89.8333,65.1667 89.1667,65.1667 88.5,62.5 Z"/></g>
<g><path style="opacity:1" fill="#7b4e1f" d="M 16.5,62.5 C 16.8333,62.5 17.1667,62.5 17.5,62.5C 18.1667,62.8333 18.8333,63.1667 19.5,63.5C 19.5,63.8333 19.5,64.1667 19.5,64.5C 17.9519,64.8212 17.2852,65.8212 17.5,67.5C 15.2078,68.6861 12.8744,68.6861 10.5,67.5C 8.77606,67.5393 8.44272,67.206 9.5,66.5C 11.6636,66.2785 13.3303,65.2785 14.5,63.5C 15.4916,63.6716 16.1583,63.3382 16.5,62.5 Z"/></g>
<g><path style="opacity:1" fill="#aba883" d="M 53.5,64.5 C 54.5,64.5 55.5,64.5 56.5,64.5C 57.1098,65.391 57.4431,66.391 57.5,67.5C 57.5,68.1667 57.5,68.8333 57.5,69.5C 56.8333,69.1667 56.1667,68.8333 55.5,68.5C 55.4621,66.3639 54.7954,65.0306 53.5,64.5 Z"/></g>
<g><path style="opacity:1" fill="#b1b692" d="M 60.5,62.5 C 61.5,62.5 62.5,62.5 63.5,62.5C 63.6941,64.9118 65.0274,65.9118 67.5,65.5C 65.6264,66.2852 63.6264,66.9518 61.5,67.5C 61.5,67.1667 61.5,66.8333 61.5,66.5C 62.8264,64.8049 62.4931,63.4716 60.5,62.5 Z"/></g>
<g><path style="opacity:1" fill="#b7ab84" d="M 69.5,61.5 C 70.391,62.1098 71.391,62.4431 72.5,62.5C 73.3382,62.8417 73.6716,63.5084 73.5,64.5C 73.8333,65.5 74.5,66.1667 75.5,66.5C 75.5,66.8333 75.5,67.1667 75.5,67.5C 74.1667,67.8333 72.8333,68.1667 71.5,68.5C 70.8333,68.1667 70.1667,67.8333 69.5,67.5C 70.0065,66.1411 71.0065,65.1411 72.5,64.5C 71.675,63.6143 70.675,63.281 69.5,63.5C 68.4937,62.6043 68.4937,61.9377 69.5,61.5 Z"/></g>
<g><path style="opacity:1" fill="#acb993" d="M 79.5,64.5 C 81.2303,65.0256 82.5637,66.0256 83.5,67.5C 82.0413,67.4326 80.7079,67.7659 79.5,68.5C 78.8166,66.8235 77.4832,66.1568 75.5,66.5C 76.8333,65.8333 78.1667,65.1667 79.5,64.5 Z"/></g>
<g><path style="opacity:1" fill="#abba81" d="M 82.5,62.5 C 83.7804,63.9313 85.4471,64.5979 87.5,64.5C 87.5,64.8333 87.5,65.1667 87.5,65.5C 86.6618,65.8417 86.3284,66.5084 86.5,67.5C 85.5,67.5 84.5,67.5 83.5,67.5C 82.5637,66.0256 81.2303,65.0256 79.5,64.5C 79.5,64.1667 79.5,63.8333 79.5,63.5C 80.209,62.596 81.209,62.2627 82.5,62.5 Z"/></g>
<g><path style="opacity:1" fill="#a39d6c" d="M 100.5,60.5 C 101.167,61.1667 101.833,61.8333 102.5,62.5C 103.338,62.8417 103.672,63.5084 103.5,64.5C 101.896,65.287 101.229,66.6203 101.5,68.5C 100.292,67.7659 98.9587,67.4326 97.5,67.5C 97.8333,66.1667 98.1667,64.8333 98.5,63.5C 99.2216,63.9175 99.7216,64.5842 100,65.5C 100.494,63.8659 100.66,62.1992 100.5,60.5 Z"/></g>
<g><path style="opacity:1" fill="#787750" d="M 103.5,64.5 C 103.833,64.5 104.167,64.5 104.5,64.5C 103.766,65.7079 103.433,67.0413 103.5,68.5C 103.771,70.4305 104.771,71.7638 106.5,72.5C 106.5,73.1667 106.167,73.5 105.5,73.5C 103.833,72.5 102.5,71.1667 101.5,69.5C 101.5,69.1667 101.5,68.8333 101.5,68.5C 101.229,66.6203 101.896,65.287 103.5,64.5 Z"/></g>
<g><path style="opacity:1" fill="#b8b080" d="M 107.5,63.5 C 107.5,64.1667 107.5,64.8333 107.5,65.5C 105.176,65.8773 104.509,66.8773 105.5,68.5C 104.833,68.5 104.167,68.5 103.5,68.5C 103.433,67.0413 103.766,65.7079 104.5,64.5C 105.365,64.4361 106.365,64.1027 107.5,63.5 Z"/></g>
<g><path style="opacity:1" fill="#d4d89a" d="M 111.5,64.5 C 112.5,64.5 113.5,64.5 114.5,64.5C 115.11,65.391 115.443,66.391 115.5,67.5C 114.039,68.6857 112.705,68.6857 111.5,67.5C 112.625,66.6522 112.625,65.6522 111.5,64.5 Z"/></g>
<g><path style="opacity:1" fill="#baa16a" d="M 29.5,66.5 C 30.1667,66.5 30.5,66.8333 30.5,67.5C 28.901,67.2322 27.5676,67.5655 26.5,68.5C 25.1667,68.5 23.8333,68.5 22.5,68.5C 24.2789,66.6565 26.6122,65.9898 29.5,66.5 Z"/></g>
<g><path style="opacity:1" fill="#b4af87" d="M 51.5,62.5 C 52.8333,62.5 53.5,63.1667 53.5,64.5C 51.2043,64.8041 50.871,65.8041 52.5,67.5C 50.901,67.7678 49.5676,67.4345 48.5,66.5C 49.3412,65.0736 50.3412,63.7403 51.5,62.5 Z"/></g>
<g><path style="opacity:1" fill="#8b8a72" d="M 53.5,64.5 C 54.7954,65.0306 55.4621,66.3639 55.5,68.5C 55.1667,68.5 54.8333,68.5 54.5,68.5C 54.1583,67.6618 53.4916,67.3284 52.5,67.5C 50.871,65.8041 51.2043,64.8041 53.5,64.5 Z"/></g>
<g><path style="opacity:1" fill="#b8c380" d="M 95.5,63.5 C 95.0535,66.0101 95.7202,68.0101 97.5,69.5C 96.0646,70.0965 94.398,70.0965 92.5,69.5C 92.5,69.1667 92.5,68.8333 92.5,68.5C 92.5,67.8333 92.5,67.1667 92.5,66.5C 93.9063,66.0269 94.573,65.0269 94.5,63.5C 94.8333,62.1667 95.1667,62.1667 95.5,63.5 Z"/></g>
<g><path style="opacity:1" fill="#868758" d="M 120.5,64.5 C 120.5,65.5 120.5,66.5 120.5,67.5C 119.486,68.6737 118.153,69.3404 116.5,69.5C 117.598,68.603 117.598,67.7697 116.5,67C 117.984,66.3378 119.317,65.5045 120.5,64.5 Z"/></g>
<g><path style="opacity:1" fill="#c9c394" d="M 40.5,66.5 C 40.8333,67.1667 41.1667,67.8333 41.5,68.5C 41.5,68.8333 41.5,69.1667 41.5,69.5C 40.209,69.2627 39.209,69.596 38.5,70.5C 37.7777,69.4489 36.7777,68.7822 35.5,68.5C 33.2071,67.6987 33.5404,67.032 36.5,66.5C 37.8333,66.5 39.1667,66.5 40.5,66.5 Z"/></g>
<g><path style="opacity:1" fill="#b4bb94" d="M 40.5,66.5 C 42.1667,66.5 43.8333,66.5 45.5,66.5C 46.1667,66.5 46.8333,66.5 47.5,66.5C 46.0101,68.2798 44.0101,68.9465 41.5,68.5C 41.1667,67.8333 40.8333,67.1667 40.5,66.5 Z"/></g>
<g><path style="opacity:1" fill="#aec28d" d="M 75.5,66.5 C 77.4832,66.1568 78.8166,66.8235 79.5,68.5C 78.6618,68.8417 78.3284,69.5084 78.5,70.5C 77.2223,70.2178 76.2223,69.5511 75.5,68.5C 75.5,68.1667 75.5,67.8333 75.5,67.5C 75.5,67.1667 75.5,66.8333 75.5,66.5 Z"/></g>
<g><path style="opacity:1" fill="#a4b58f" d="M 87.5,65.5 C 89.4147,65.2155 91.0813,65.5489 92.5,66.5C 92.5,67.1667 92.5,67.8333 92.5,68.5C 90.4352,68.4828 88.4352,68.1495 86.5,67.5C 86.3284,66.5084 86.6618,65.8417 87.5,65.5 Z"/></g>
<g><path style="opacity:1" fill="#71714d" d="M 95.5,63.5 C 95.8333,63.5 96.1667,63.5 96.5,63.5C 97.1667,63.5 97.8333,63.5 98.5,63.5C 98.1667,64.8333 97.8333,66.1667 97.5,67.5C 97.5,68.1667 97.5,68.8333 97.5,69.5C 95.7202,68.0101 95.0535,66.0101 95.5,63.5 Z"/></g>
<g><path style="opacity:1" fill="#c2c687" d="M 97.5,67.5 C 98.9587,67.4326 100.292,67.7659 101.5,68.5C 101.5,68.8333 101.5,69.1667 101.5,69.5C 100.635,69.5639 99.6348,69.8973 98.5,70.5C 98.5,69.8333 98.1667,69.5 97.5,69.5C 97.5,68.8333 97.5,68.1667 97.5,67.5 Z"/></g>
<g><path style="opacity:1" fill="#9d9a6b" d="M 111.5,64.5 C 112.625,65.6522 112.625,66.6522 111.5,67.5C 111.167,67.5 110.833,67.5 110.5,67.5C 109.833,67.8333 109.167,68.1667 108.5,68.5C 107.5,68.5 106.5,68.5 105.5,68.5C 104.509,66.8773 105.176,65.8773 107.5,65.5C 108.708,64.7659 110.041,64.4326 111.5,64.5 Z"/></g>
<g><path style="opacity:1" fill="#756850" d="M 30.5,67.5 C 32.0481,67.8212 32.7148,68.8212 32.5,70.5C 30.6208,69.6586 28.6208,69.3253 26.5,69.5C 26.5,69.1667 26.5,68.8333 26.5,68.5C 27.5676,67.5655 28.901,67.2322 30.5,67.5 Z"/></g>
<g><path style="opacity:1" fill="#cacc9d" d="M 47.5,66.5 C 47.8333,66.5 48.1667,66.5 48.5,66.5C 49.5676,67.4345 50.901,67.7678 52.5,67.5C 53.4916,67.3284 54.1583,67.6618 54.5,68.5C 52.5853,68.2155 50.9187,68.5489 49.5,69.5C 48.391,69.5569 47.391,69.8902 46.5,70.5C 44.5853,70.7845 42.9187,70.4511 41.5,69.5C 41.5,69.1667 41.5,68.8333 41.5,68.5C 44.0101,68.9465 46.0101,68.2798 47.5,66.5 Z"/></g>
<g><path style="opacity:1" fill="#cfcfa1" d="M 49.5,69.5 C 50.9187,68.5489 52.5853,68.2155 54.5,68.5C 54.8333,68.5 55.1667,68.5 55.5,68.5C 56.1667,68.8333 56.8333,69.1667 57.5,69.5C 57.5,69.8333 57.5,70.1667 57.5,70.5C 56.209,70.2627 55.209,70.596 54.5,71.5C 52.8333,70.8333 51.1667,70.1667 49.5,69.5 Z"/></g>
<g><path style="opacity:1" fill="#b8c499" d="M 59.5,66.5 C 60.1667,66.5 60.8333,66.5 61.5,66.5C 61.5,66.8333 61.5,67.1667 61.5,67.5C 60.9326,68.4202 61.5992,68.7535 63.5,68.5C 63.631,69.2389 63.4643,69.9056 63,70.5C 61.8545,69.3157 60.6879,69.3157 59.5,70.5C 58.8333,70.5 58.1667,70.5 57.5,70.5C 57.5,70.1667 57.5,69.8333 57.5,69.5C 57.5,68.8333 57.5,68.1667 57.5,67.5C 58.1667,67.1667 58.8333,66.8333 59.5,66.5 Z"/></g>
<g><path style="opacity:1" fill="#abc395" d="M 75.5,67.5 C 75.5,67.8333 75.5,68.1667 75.5,68.5C 75.1898,70.1436 74.1898,71.1436 72.5,71.5C 72.1667,70.8333 71.8333,70.1667 71.5,69.5C 71.5,69.1667 71.5,68.8333 71.5,68.5C 72.8333,68.1667 74.1667,67.8333 75.5,67.5 Z"/></g>
<g><path style="opacity:1" fill="#635a42" d="M 83.5,67.5 C 84.5,67.5 85.5,67.5 86.5,67.5C 88.4352,68.1495 90.4352,68.4828 92.5,68.5C 92.5,68.8333 92.5,69.1667 92.5,69.5C 89.8333,69.5 87.1667,69.5 84.5,69.5C 82.901,69.2322 81.5676,69.5655 80.5,70.5C 79.6618,70.1583 79.3284,69.4916 79.5,68.5C 80.7079,67.7659 82.0413,67.4326 83.5,67.5 Z"/></g>
<g><path style="opacity:1" fill="#684020" d="M 10.5,67.5 C 12.8744,68.6861 15.2078,68.6861 17.5,67.5C 18.404,68.209 18.7373,69.209 18.5,70.5C 17.8333,70.5 17.1667,70.5 16.5,70.5C 13.4215,71.3719 10.4215,71.3719 7.5,70.5C 8.09982,69.1001 9.09982,68.1001 10.5,67.5 Z"/></g>
<g><path style="opacity:1" fill="#7a5431" d="M 19.5,64.5 C 19.1568,66.4832 19.8235,67.8166 21.5,68.5C 21.8333,68.5 22.1667,68.5 22.5,68.5C 23.8333,68.5 25.1667,68.5 26.5,68.5C 26.5,68.8333 26.5,69.1667 26.5,69.5C 25.8333,69.5 25.1667,69.5 24.5,69.5C 22.5,69.8333 20.5,70.1667 18.5,70.5C 18.7373,69.209 18.404,68.209 17.5,67.5C 17.2852,65.8212 17.9519,64.8212 19.5,64.5 Z"/></g>
<g><path style="opacity:1" fill="#bda068" d="M 35.5,68.5 C 36.7777,68.7822 37.7777,69.4489 38.5,70.5C 40.6976,70.8751 42.6976,71.5418 44.5,72.5C 44.1667,72.5 43.8333,72.5 43.5,72.5C 40.4824,72.2962 37.4824,71.9629 34.5,71.5C 34.5,70.8333 34.1667,70.5 33.5,70.5C 34.1667,69.8333 34.8333,69.1667 35.5,68.5 Z"/></g>
<g><path style="opacity:1" fill="#bac498" d="M 64.5,67.5 C 66.1667,67.5 67.8333,67.5 69.5,67.5C 70.1667,67.8333 70.8333,68.1667 71.5,68.5C 71.5,68.8333 71.5,69.1667 71.5,69.5C 70.391,69.5569 69.391,69.8902 68.5,70.5C 67.1526,71.0283 65.8193,71.195 64.5,71C 65.6843,69.8545 65.6843,68.6879 64.5,67.5 Z"/></g>
<g><path style="opacity:1" fill="#babd86" d="M 103.5,68.5 C 104.167,68.5 104.833,68.5 105.5,68.5C 106.5,68.5 107.5,68.5 108.5,68.5C 108.5,70.5 109.5,71.5 111.5,71.5C 110.081,72.4511 108.415,72.7845 106.5,72.5C 104.771,71.7638 103.771,70.4305 103.5,68.5 Z"/></g>
<g><path style="opacity:1" fill="#e2e5a3" d="M 110.5,67.5 C 110.733,69.0618 111.4,70.3951 112.5,71.5C 112.167,71.5 111.833,71.5 111.5,71.5C 109.5,71.5 108.5,70.5 108.5,68.5C 109.167,68.1667 109.833,67.8333 110.5,67.5 Z"/></g>
<g><path style="opacity:1" fill="#8c8d62" d="M 110.5,67.5 C 110.833,67.5 111.167,67.5 111.5,67.5C 112.705,68.6857 114.039,68.6857 115.5,67.5C 115.328,68.4916 115.662,69.1583 116.5,69.5C 116.5,70.1667 116.167,70.5 115.5,70.5C 114.391,70.5569 113.391,70.8902 112.5,71.5C 111.4,70.3951 110.733,69.0618 110.5,67.5 Z"/></g>
<g><path style="opacity:1" fill="#5f3d1f" d="M 24.5,69.5 C 24.5,69.8333 24.5,70.1667 24.5,70.5C 21.3777,71.5612 18.3777,72.8946 15.5,74.5C 14.8333,74.8333 14.1667,75.1667 13.5,75.5C 13.8333,74.1667 14.1667,72.8333 14.5,71.5C 15.4916,71.6716 16.1583,71.3382 16.5,70.5C 17.1667,70.5 17.8333,70.5 18.5,70.5C 20.5,70.1667 22.5,69.8333 24.5,69.5 Z"/></g>
<g><path style="opacity:0.098" fill="#2c2521" d="M 24.5,70.5 C 24.5,70.1667 24.5,69.8333 24.5,69.5C 25.1667,69.5 25.8333,69.5 26.5,69.5C 28.6208,69.3253 30.6208,69.6586 32.5,70.5C 32.8333,70.5 33.1667,70.5 33.5,70.5C 32.0998,71.1001 31.0998,72.1001 30.5,73.5C 30.1667,73.5 29.8333,73.5 29.5,73.5C 29.5,72.5 29.5,71.5 29.5,70.5C 27.8333,70.5 26.1667,70.5 24.5,70.5 Z"/></g>
<g><path style="opacity:1" fill="#d3c6a6" d="M 38.5,70.5 C 39.209,69.596 40.209,69.2627 41.5,69.5C 42.9187,70.4511 44.5853,70.7845 46.5,70.5C 47.5,71.1667 48.5,71.8333 49.5,72.5C 47.8333,72.5 46.1667,72.5 44.5,72.5C 42.6976,71.5418 40.6976,70.8751 38.5,70.5 Z"/></g>
<g><path style="opacity:1" fill="#d6cfa7" d="M 54.5,71.5 C 55.209,70.596 56.209,70.2627 57.5,70.5C 58.1667,70.5 58.8333,70.5 59.5,70.5C 59.3893,71.1174 59.056,71.6174 58.5,72C 61.8168,72.4983 65.1501,72.665 68.5,72.5C 69.5573,73.206 69.2239,73.5393 67.5,73.5C 62.1667,73.5 56.8333,73.5 51.5,73.5C 50.8333,73.5 50.5,73.1667 50.5,72.5C 53.8683,72.9639 55.2016,72.6305 54.5,71.5 Z"/></g>
<g><path style="opacity:1" fill="#cccc9c" d="M 64.5,67.5 C 65.6843,68.6879 65.6843,69.8545 64.5,71C 65.8193,71.195 67.1526,71.0283 68.5,70.5C 68.5,71.1667 68.5,71.8333 68.5,72.5C 65.1501,72.665 61.8168,72.4983 58.5,72C 59.056,71.6174 59.3893,71.1174 59.5,70.5C 60.6879,69.3157 61.8545,69.3157 63,70.5C 63.4643,69.9056 63.631,69.2389 63.5,68.5C 63.5,67.8333 63.8333,67.5 64.5,67.5 Z"/></g>
<g><path style="opacity:1" fill="#cacd9f" d="M 75.5,68.5 C 76.2223,69.5511 77.2223,70.2178 78.5,70.5C 77.5,71.1667 76.5,71.8333 75.5,72.5C 74.209,72.7373 73.209,72.404 72.5,71.5C 74.1898,71.1436 75.1898,70.1436 75.5,68.5 Z"/></g>
<g><path style="opacity:1" fill="#845624" d="M 84.5,69.5 C 85.9187,70.4511 87.5853,70.7845 89.5,70.5C 89.5,70.8333 89.5,71.1667 89.5,71.5C 86.9407,71.1984 84.6074,71.5318 82.5,72.5C 81.5,72.1667 80.8333,71.5 80.5,70.5C 81.5676,69.5655 82.901,69.2322 84.5,69.5 Z"/></g>
<g><path style="opacity:1" fill="#77471b" d="M 89.5,70.5 C 91.4147,70.2155 93.0813,70.5489 94.5,71.5C 93.2921,72.2341 91.9587,72.5674 90.5,72.5C 90.1667,72.5 89.8333,72.5 89.5,72.5C 89.5,72.1667 89.5,71.8333 89.5,71.5C 89.5,71.1667 89.5,70.8333 89.5,70.5 Z"/></g>
<g><path style="opacity:1" fill="#7b643d" d="M 84.5,69.5 C 87.1667,69.5 89.8333,69.5 92.5,69.5C 94.398,70.0965 96.0646,70.0965 97.5,69.5C 98.1667,69.5 98.5,69.8333 98.5,70.5C 98.1667,71.1667 97.8333,71.8333 97.5,72.5C 97.1667,72.5 96.8333,72.5 96.5,72.5C 96.1583,71.6618 95.4916,71.3284 94.5,71.5C 93.0813,70.5489 91.4147,70.2155 89.5,70.5C 87.5853,70.7845 85.9187,70.4511 84.5,69.5 Z"/></g>
<g><path style="opacity:1" fill="#a4a57b" d="M 101.5,69.5 C 102.5,71.1667 103.833,72.5 105.5,73.5C 105.5,73.8333 105.5,74.1667 105.5,74.5C 103.64,73.9285 101.973,73.9285 100.5,74.5C 100.179,72.9519 99.1788,72.2852 97.5,72.5C 97.8333,71.8333 98.1667,71.1667 98.5,70.5C 99.6348,69.8973 100.635,69.5639 101.5,69.5 Z"/></g>
<g><path style="opacity:1" fill="#834c21" d="M 7.5,70.5 C 10.4215,71.3719 13.4215,71.3719 16.5,70.5C 16.1583,71.3382 15.4916,71.6716 14.5,71.5C 12.412,72.9395 10.0786,73.6061 7.5,73.5C 7.5,72.5 7.5,71.5 7.5,70.5 Z"/></g>
<g><path style="opacity:1" fill="#7a572d" d="M 33.5,70.5 C 34.1667,70.5 34.5,70.8333 34.5,71.5C 34.6716,72.4916 34.3382,73.1583 33.5,73.5C 32.5,73.5 31.5,73.5 30.5,73.5C 31.0998,72.1001 32.0998,71.1001 33.5,70.5 Z"/></g>
<g><path style="opacity:1" fill="#76471d" d="M 34.5,71.5 C 37.4824,71.9629 40.4824,72.2962 43.5,72.5C 43.5,72.8333 43.5,73.1667 43.5,73.5C 42.1773,74.6078 40.6773,74.6078 39,73.5C 37.1739,74.0104 37.0072,74.8438 38.5,76C 37.9056,76.4643 37.2389,76.631 36.5,76.5C 34.8102,76.1436 33.8102,75.1436 33.5,73.5C 34.3382,73.1583 34.6716,72.4916 34.5,71.5 Z"/></g>
<g><path style="opacity:1" fill="#e2dbc5" d="M 49.5,69.5 C 51.1667,70.1667 52.8333,70.8333 54.5,71.5C 55.2016,72.6305 53.8683,72.9639 50.5,72.5C 50.1667,72.5 49.8333,72.5 49.5,72.5C 48.5,71.8333 47.5,71.1667 46.5,70.5C 47.391,69.8902 48.391,69.5569 49.5,69.5 Z"/></g>
<g><path style="opacity:1" fill="#d0ca98" d="M 71.5,69.5 C 71.8333,70.1667 72.1667,70.8333 72.5,71.5C 73.209,72.404 74.209,72.7373 75.5,72.5C 76.8734,72.3433 78.2068,72.51 79.5,73C 78.944,73.3826 78.6107,73.8826 78.5,74.5C 77.609,73.8902 76.609,73.5569 75.5,73.5C 72.9039,74.2653 70.2372,74.5987 67.5,74.5C 67.5,74.1667 67.5,73.8333 67.5,73.5C 69.2239,73.5393 69.5573,73.206 68.5,72.5C 68.5,71.8333 68.5,71.1667 68.5,70.5C 69.391,69.8902 70.391,69.5569 71.5,69.5 Z"/></g>
<g><path style="opacity:1" fill="#cbc89f" d="M 79.5,68.5 C 79.3284,69.4916 79.6618,70.1583 80.5,70.5C 80.8333,71.5 81.5,72.1667 82.5,72.5C 82.5,72.8333 82.5,73.1667 82.5,73.5C 82.5,74.8333 81.8333,75.5 80.5,75.5C 79.5084,75.6716 78.8417,75.3382 78.5,74.5C 78.6107,73.8826 78.944,73.3826 79.5,73C 78.2068,72.51 76.8734,72.3433 75.5,72.5C 76.5,71.8333 77.5,71.1667 78.5,70.5C 78.3284,69.5084 78.6618,68.8417 79.5,68.5 Z"/></g>
<g><path style="opacity:1" fill="#834f1a" d="M 89.5,71.5 C 89.5,71.8333 89.5,72.1667 89.5,72.5C 87.4352,72.5172 85.4352,72.8505 83.5,73.5C 83.1667,73.5 82.8333,73.5 82.5,73.5C 82.5,73.1667 82.5,72.8333 82.5,72.5C 84.6074,71.5318 86.9407,71.1984 89.5,71.5 Z"/></g>
<g><path style="opacity:1" fill="#7d6d50" d="M 43.5,73.5 C 43.5,73.1667 43.5,72.8333 43.5,72.5C 43.8333,72.5 44.1667,72.5 44.5,72.5C 46.1667,72.5 47.8333,72.5 49.5,72.5C 49.8333,72.5 50.1667,72.5 50.5,72.5C 50.5,73.1667 50.8333,73.5 51.5,73.5C 52.5,74.1667 53.5,74.8333 54.5,75.5C 52.0504,75.702 49.717,75.3686 47.5,74.5C 46.4324,73.5655 45.099,73.2322 43.5,73.5 Z"/></g>
<g><path style="opacity:1" fill="#624d2f" d="M 89.5,72.5 C 89.8333,72.5 90.1667,72.5 90.5,72.5C 91.8333,73.1667 93.1667,73.8333 94.5,74.5C 92.2362,75.2186 89.9029,75.552 87.5,75.5C 85.847,75.3404 84.5137,74.6737 83.5,73.5C 85.4352,72.8505 87.4352,72.5172 89.5,72.5 Z"/></g>
<g><path style="opacity:1" fill="#6c431f" d="M 94.5,71.5 C 95.4916,71.3284 96.1583,71.6618 96.5,72.5C 95.6618,72.8417 95.3284,73.5084 95.5,74.5C 95.1667,74.5 94.8333,74.5 94.5,74.5C 93.1667,73.8333 91.8333,73.1667 90.5,72.5C 91.9587,72.5674 93.2921,72.2341 94.5,71.5 Z"/></g>
<g><path style="opacity:1" fill="#d7db99" d="M 96.5,72.5 C 96.8333,72.5 97.1667,72.5 97.5,72.5C 99.1788,72.2852 100.179,72.9519 100.5,74.5C 100.167,74.5 99.8333,74.5 99.5,74.5C 98.1667,74.5 96.8333,74.5 95.5,74.5C 95.3284,73.5084 95.6618,72.8417 96.5,72.5 Z"/></g>
<g><path style="opacity:0.492" fill="#272421" d="M 115.5,70.5 C 112.808,73.1807 109.475,74.5141 105.5,74.5C 105.5,74.1667 105.5,73.8333 105.5,73.5C 106.167,73.5 106.5,73.1667 106.5,72.5C 108.415,72.7845 110.081,72.4511 111.5,71.5C 111.833,71.5 112.167,71.5 112.5,71.5C 113.391,70.8902 114.391,70.5569 115.5,70.5 Z"/></g>
<g><path style="opacity:1" fill="#c1a973" d="M 51.5,73.5 C 56.8333,73.5 62.1667,73.5 67.5,73.5C 67.5,73.8333 67.5,74.1667 67.5,74.5C 65.5853,74.2155 63.9187,74.5489 62.5,75.5C 59.8333,75.5 57.1667,75.5 54.5,75.5C 53.5,74.8333 52.5,74.1667 51.5,73.5 Z"/></g>
<g><path style="opacity:1" fill="#704720" d="M 14.5,71.5 C 14.1667,72.8333 13.8333,74.1667 13.5,75.5C 11.5,76.8333 9.5,76.8333 7.5,75.5C 7.5,74.8333 7.5,74.1667 7.5,73.5C 10.0786,73.6061 12.412,72.9395 14.5,71.5 Z"/></g>
<g><path style="opacity:0.2" fill="#353232" d="M 24.5,70.5 C 22.2515,73.3934 19.2515,75.0601 15.5,75.5C 15.5,75.1667 15.5,74.8333 15.5,74.5C 18.3777,72.8946 21.3777,71.5612 24.5,70.5 Z"/></g>
<g><path style="opacity:1" fill="#563b24" d="M 43.5,73.5 C 45.099,73.2322 46.4324,73.5655 47.5,74.5C 45.2972,74.6036 43.2972,75.2702 41.5,76.5C 40.391,76.5569 39.391,76.8902 38.5,77.5C 37.8333,77.5 37.1667,77.5 36.5,77.5C 36.5,77.1667 36.5,76.8333 36.5,76.5C 37.2389,76.631 37.9056,76.4643 38.5,76C 37.0072,74.8438 37.1739,74.0104 39,73.5C 40.6773,74.6078 42.1773,74.6078 43.5,73.5 Z"/></g>
<g><path style="opacity:1" fill="#cdb06e" d="M 75.5,73.5 C 72.3157,75.4136 68.649,76.0803 64.5,75.5C 63.8333,75.5 63.1667,75.5 62.5,75.5C 63.9187,74.5489 65.5853,74.2155 67.5,74.5C 70.2372,74.5987 72.9039,74.2653 75.5,73.5 Z"/></g>
<g><path style="opacity:0.49" fill="#2b2826" d="M 54.5,75.5 C 57.1667,75.5 59.8333,75.5 62.5,75.5C 63.1667,75.5 63.8333,75.5 64.5,75.5C 64.5,75.8333 64.5,76.1667 64.5,76.5C 63.8333,76.5 63.5,76.8333 63.5,77.5C 62.8333,77.5 62.1667,77.5 61.5,77.5C 59.1667,76.8333 56.8333,76.1667 54.5,75.5 Z"/></g>
<g><path style="opacity:1" fill="#b79f68" d="M 75.5,73.5 C 76.609,73.5569 77.609,73.8902 78.5,74.5C 78.8417,75.3382 79.5084,75.6716 80.5,75.5C 80.5,75.8333 80.5,76.1667 80.5,76.5C 77.1667,76.5 73.8333,76.5 70.5,76.5C 69.5,76.5 68.5,76.5 67.5,76.5C 66.5,76.5 65.5,76.5 64.5,76.5C 64.5,76.1667 64.5,75.8333 64.5,75.5C 68.649,76.0803 72.3157,75.4136 75.5,73.5 Z"/></g>
<g><path style="opacity:1" fill="#a9af69" d="M 82.5,73.5 C 82.8333,73.5 83.1667,73.5 83.5,73.5C 84.5137,74.6737 85.847,75.3404 87.5,75.5C 87.5,75.8333 87.5,76.1667 87.5,76.5C 85.1667,76.5 82.8333,76.5 80.5,76.5C 80.5,76.1667 80.5,75.8333 80.5,75.5C 81.8333,75.5 82.5,74.8333 82.5,73.5 Z"/></g>
<g><path style="opacity:1" fill="#787e52" d="M 94.5,74.5 C 94.8333,74.5 95.1667,74.5 95.5,74.5C 96.8333,74.5 98.1667,74.5 99.5,74.5C 97.8333,75.1667 96.1667,75.8333 94.5,76.5C 92.1667,76.5 89.8333,76.5 87.5,76.5C 87.5,76.1667 87.5,75.8333 87.5,75.5C 89.9029,75.552 92.2362,75.2186 94.5,74.5 Z"/></g>
<g><path style="opacity:0.329" fill="#32302f" d="M 105.5,74.5 C 102.091,75.9034 98.4248,76.5701 94.5,76.5C 96.1667,75.8333 97.8333,75.1667 99.5,74.5C 99.8333,74.5 100.167,74.5 100.5,74.5C 101.973,73.9285 103.64,73.9285 105.5,74.5 Z"/></g>
<g><path style="opacity:0.484" fill="#252323" d="M 15.5,74.5 C 15.5,74.8333 15.5,75.1667 15.5,75.5C 14.0539,76.9402 12.2206,77.6068 10,77.5C 8.31887,77.3917 7.1522,76.7251 6.5,75.5C 6.83333,75.5 7.16667,75.5 7.5,75.5C 9.5,76.8333 11.5,76.8333 13.5,75.5C 14.1667,75.1667 14.8333,74.8333 15.5,74.5 Z"/></g>
<g><path style="opacity:1" fill="#71441c" d="M 67.5,76.5 C 68.5,76.5 69.5,76.5 70.5,76.5C 69.1667,77.5 69.1667,78.5 70.5,79.5C 70.5674,80.9587 70.2341,82.2921 69.5,83.5C 68.6236,83.6309 67.9569,83.2975 67.5,82.5C 68.6527,81.3132 68.6527,80.3132 67.5,79.5C 67.5,78.5 67.5,77.5 67.5,76.5 Z"/></g>
<g><path style="opacity:0.486" fill="#342f2c" d="M 70.5,76.5 C 73.8333,76.5 77.1667,76.5 80.5,76.5C 82.8333,76.5 85.1667,76.5 87.5,76.5C 89.8333,76.5 92.1667,76.5 94.5,76.5C 86.6615,78.0162 78.6615,79.0162 70.5,79.5C 69.1667,78.5 69.1667,77.5 70.5,76.5 Z"/></g>
<g><path style="opacity:1" fill="#7b5b39" d="M 30.5,73.5 C 31.5,73.5 32.5,73.5 33.5,73.5C 33.8102,75.1436 34.8102,76.1436 36.5,76.5C 36.5,76.8333 36.5,77.1667 36.5,77.5C 34.8828,78.038 33.2161,78.3713 31.5,78.5C 30.5489,77.0813 30.2155,75.4147 30.5,73.5 Z"/></g>
<g><path style="opacity:0.776" fill="#282426" d="M 29.5,73.5 C 29.8333,73.5 30.1667,73.5 30.5,73.5C 30.2155,75.4147 30.5489,77.0813 31.5,78.5C 31.4701,79.4972 31.9701,80.1639 33,80.5C 35.1204,79.8598 36.9537,78.8598 38.5,77.5C 39.391,76.8902 40.391,76.5569 41.5,76.5C 38.3502,81.0309 34.5169,82.0309 30,79.5C 29.5045,77.5273 29.3379,75.5273 29.5,73.5 Z"/></g>
<g><path style="opacity:1" fill="#53462f" d="M 36.5,77.5 C 37.1667,77.5 37.8333,77.5 38.5,77.5C 36.9537,78.8598 35.1204,79.8598 33,80.5C 31.9701,80.1639 31.4701,79.4972 31.5,78.5C 33.2161,78.3713 34.8828,78.038 36.5,77.5 Z"/></g>
<g><path style="opacity:1" fill="#7c4c1e" d="M 64.5,76.5 C 65.5,76.5 66.5,76.5 67.5,76.5C 67.5,77.5 67.5,78.5 67.5,79.5C 66.0048,79.9887 64.6715,80.6554 63.5,81.5C 63.1667,81.5 62.8333,81.5 62.5,81.5C 62.4326,80.0413 62.7659,78.7079 63.5,77.5C 63.5,76.8333 63.8333,76.5 64.5,76.5 Z"/></g>
<g><path style="opacity:1" fill="#695431" d="M 59.5,77.5 C 60.1667,77.5 60.8333,77.5 61.5,77.5C 62.1667,77.5 62.8333,77.5 63.5,77.5C 62.7659,78.7079 62.4326,80.0413 62.5,81.5C 61.5,81.5 60.5,81.5 59.5,81.5C 59.5,80.1667 59.5,78.8333 59.5,77.5 Z"/></g>
<g><path style="opacity:1" fill="#613e1f" d="M 67.5,79.5 C 68.6527,80.3132 68.6527,81.3132 67.5,82.5C 67.9569,83.2975 68.6236,83.6309 69.5,83.5C 69.1667,84.5 68.5,85.1667 67.5,85.5C 66.7784,85.0825 66.2784,84.4158 66,83.5C 65.6174,84.056 65.1174,84.3893 64.5,84.5C 64.4142,83.5041 64.7476,82.6708 65.5,82C 64.9056,81.5357 64.2389,81.369 63.5,81.5C 64.6715,80.6554 66.0048,79.9887 67.5,79.5 Z"/></g>
<g><path style="opacity:1" fill="#73451f" d="M 59.5,81.5 C 60.5,81.5 61.5,81.5 62.5,81.5C 62.7709,83.3797 62.1042,84.713 60.5,85.5C 59.7659,84.2921 59.4326,82.9587 59.5,81.5 Z"/></g>
<g><path style="opacity:1" fill="#634829" d="M 62.5,81.5 C 62.8333,81.5 63.1667,81.5 63.5,81.5C 64.2389,81.369 64.9056,81.5357 65.5,82C 64.7476,82.6708 64.4142,83.5041 64.5,84.5C 63.2954,86.1376 61.9621,86.4709 60.5,85.5C 62.1042,84.713 62.7709,83.3797 62.5,81.5 Z"/></g>
<g><path style="opacity:0.2" fill="#2a2422" d="M 59.5,77.5 C 59.5,78.8333 59.5,80.1667 59.5,81.5C 59.4326,82.9587 59.7659,84.2921 60.5,85.5C 61.9621,86.4709 63.2954,86.1376 64.5,84.5C 65.1174,84.3893 65.6174,84.056 66,83.5C 66.2784,84.4158 66.7784,85.0825 67.5,85.5C 62.1708,90.3346 59.1708,89.168 58.5,82C 58.5085,80.2933 58.8418,78.7933 59.5,77.5 Z"/></g>
</svg>
