<?xml version="1.0" encoding="UTF-8"?>
<!DOCTYPE svg PUBLIC "-//W3C//DTD SVG 1.1//EN" "http://www.w3.org/Graphics/SVG/1.1/DTD/svg11.dtd">
<svg xmlns="http://www.w3.org/2000/svg" version="1.1" width="128px" height="128px" style="shape-rendering:geometricPrecision; text-rendering:geometricPrecision; image-rendering:optimizeQuality; fill-rule:evenodd; clip-rule:evenodd" xmlns:xlink="http://www.w3.org/1999/xlink">
<g><path style="opacity:0.997" fill="#020101" d="M 62.5,38.5 C 64.8591,39.176 67.1924,40.0093 69.5,41C 72.8333,44.3333 76.1667,47.6667 79.5,51C 89.2462,51.7949 98.9129,53.1282 108.5,55C 112.729,56.1146 116.729,57.7813 120.5,60C 121.833,62.6667 121.833,65.3333 120.5,68C 117.066,70.4349 113.4,72.4349 109.5,74C 97.0545,77.3559 84.3878,79.0225 71.5,79C 70.3199,84.1801 67.1533,87.3468 62,88.5C 60.7387,88.2409 59.7387,87.5742 59,86.5C 58.502,83.5184 58.3354,80.5184 58.5,77.5C 59.552,77.6495 60.552,77.4828 61.5,77C 56.4624,76.3826 51.4624,75.5493 46.5,74.5C 42.3581,77.4635 37.8581,79.7968 33,81.5C 31.6739,81.2451 30.6739,80.5784 30,79.5C 29.502,76.5184 29.3354,73.5184 29.5,70.5C 27.8008,70.3398 26.1341,70.5065 24.5,71C 19.2121,75.1442 13.2121,77.3109 6.5,77.5C 4.94675,72.8967 5.61341,68.5634 8.5,64.5C 5.71419,60.9498 5.04752,57.1165 6.5,53C 13.0687,52.4089 19.0687,54.0756 24.5,58C 27.8626,58.6257 31.1959,58.9591 34.5,59C 31.9974,57.4506 31.9974,55.7839 34.5,54C 38.9806,53.8776 43.3139,54.7109 47.5,56.5C 49.8668,56.1583 52.2001,55.6583 54.5,55C 53.4829,53.9505 53.3162,52.7839 54,51.5C 57.0561,47.2841 59.8894,42.9507 62.5,38.5 Z"/></g>
</svg>
