<?xml version="1.0" encoding="UTF-8"?>
<!DOCTYPE svg PUBLIC "-//W3C//DTD SVG 1.1//EN" "http://www.w3.org/Graphics/SVG/1.1/DTD/svg11.dtd">
<svg xmlns="http://www.w3.org/2000/svg" version="1.1" width="128px" height="128px" style="shape-rendering:geometricPrecision; text-rendering:geometricPrecision; image-rendering:optimizeQuality; fill-rule:evenodd; clip-rule:evenodd" xmlns:xlink="http://www.w3.org/1999/xlink">
<g><path style="opacity:0.929" fill="#979d91" d="M 68.5,43.5 C 67.5178,42.8592 66.5178,42.1925 65.5,41.5C 64.4822,42.1925 63.4822,42.8592 62.5,43.5C 64.5,38.1667 66.5,38.1667 68.5,43.5 Z"/></g>
<g><path style="opacity:1" fill="#4e6755" d="M 68.5,43.5 C 69.3382,43.8417 69.6716,44.5084 69.5,45.5C 67.0747,43.8806 65.0747,44.2139 63.5,46.5C 62.8333,47.1667 62.1667,47.8333 61.5,48.5C 61.3893,47.8826 61.056,47.3826 60.5,47C 61.8228,46.1841 62.4894,45.0174 62.5,43.5C 63.4822,42.8592 64.4822,42.1925 65.5,41.5C 66.5178,42.1925 67.5178,42.8592 68.5,43.5 Z"/></g>
<g><path style="opacity:1" fill="#3f6653" d="M 69.5,45.5 C 69.5,45.8333 69.5,46.1667 69.5,46.5C 68.8333,47.1667 68.1667,47.8333 67.5,48.5C 67.5912,46.3023 66.9245,45.9689 65.5,47.5C 64.0755,49.0311 63.4088,48.6977 63.5,46.5C 65.0747,44.2139 67.0747,43.8806 69.5,45.5 Z"/></g>
<g><path style="opacity:1" fill="#345d4a" d="M 67.5,48.5 C 68.038,50.1172 68.3713,51.7839 68.5,53.5C 67.8333,53.5 67.1667,53.5 66.5,53.5C 66.6495,52.448 66.4828,51.448 66,50.5C 65.31,51.7383 64.81,51.7383 64.5,50.5C 65.1098,49.609 65.4431,48.609 65.5,47.5C 66.9245,45.9689 67.5912,46.3023 67.5,48.5 Z"/></g>
<g><path style="opacity:1" fill="#789581" d="M 62.5,43.5 C 62.4894,45.0174 61.8228,46.1841 60.5,47C 61.056,47.3826 61.3893,47.8826 61.5,48.5C 60.8333,48.5 60.5,48.8333 60.5,49.5C 59.4489,50.2223 58.7822,51.2223 58.5,52.5C 57.6987,48.8513 59.0321,45.8513 62.5,43.5 Z"/></g>
<g><path style="opacity:1" fill="#43755f" d="M 63.5,46.5 C 63.4088,48.6977 64.0755,49.0311 65.5,47.5C 65.4431,48.609 65.1098,49.609 64.5,50.5C 63.8333,51.5 63.1667,52.5 62.5,53.5C 62.3404,51.847 61.6737,50.5137 60.5,49.5C 60.5,48.8333 60.8333,48.5 61.5,48.5C 62.1667,47.8333 62.8333,47.1667 63.5,46.5 Z"/></g>
<g><path style="opacity:1" fill="#355342" d="M 69.5,46.5 C 69.8333,48.5 70.1667,50.5 70.5,52.5C 69.8333,52.8333 69.1667,53.1667 68.5,53.5C 68.3713,51.7839 68.038,50.1172 67.5,48.5C 68.1667,47.8333 68.8333,47.1667 69.5,46.5 Z"/></g>
<g><path style="opacity:1" fill="#4e846b" d="M 60.5,49.5 C 61.6737,50.5137 62.3404,51.847 62.5,53.5C 62.1667,53.5 61.8333,53.5 61.5,53.5C 60.609,52.8902 59.609,52.5569 58.5,52.5C 58.7822,51.2223 59.4489,50.2223 60.5,49.5 Z"/></g>
<g><path style="opacity:0.843" fill="#959c92" d="M 69.5,45.5 C 70.7384,47.2143 71.405,49.2143 71.5,51.5C 74.7131,51.19 77.7131,51.5233 80.5,52.5C 79.8333,52.5 79.1667,52.5 78.5,52.5C 75.8333,52.5 73.1667,52.5 70.5,52.5C 70.1667,50.5 69.8333,48.5 69.5,46.5C 69.5,46.1667 69.5,45.8333 69.5,45.5 Z"/></g>
<g><path style="opacity:0.925" fill="#8ba293" d="M 58.5,52.5 C 59.609,52.5569 60.609,52.8902 61.5,53.5C 61.5,53.8333 61.5,54.1667 61.5,54.5C 60.8333,54.5 60.5,54.8333 60.5,55.5C 59.5,55.5 58.5,55.5 57.5,55.5C 57.9175,54.7784 58.5842,54.2784 59.5,54C 58.944,53.6174 58.6107,53.1174 58.5,52.5 Z"/></g>
<g><path style="opacity:1" fill="#396b54" d="M 64.5,50.5 C 64.81,51.7383 65.31,51.7383 66,50.5C 66.4828,51.448 66.6495,52.448 66.5,53.5C 64.8828,54.038 63.2161,54.3713 61.5,54.5C 61.5,54.1667 61.5,53.8333 61.5,53.5C 61.8333,53.5 62.1667,53.5 62.5,53.5C 63.1667,52.5 63.8333,51.5 64.5,50.5 Z"/></g>
<g><path style="opacity:1" fill="#20201a" d="M 70.5,52.5 C 73.1667,52.5 75.8333,52.5 78.5,52.5C 78.5,52.8333 78.5,53.1667 78.5,53.5C 78.1667,54.1667 77.8333,54.8333 77.5,55.5C 76.5,55.5 75.5,55.5 74.5,55.5C 73.5525,54.0221 72.2191,53.0221 70.5,52.5 Z"/></g>
<g><path style="opacity:0.761" fill="#75736e" d="M 78.5,53.5 C 78.5,53.1667 78.5,52.8333 78.5,52.5C 79.1667,52.5 79.8333,52.5 80.5,52.5C 83.2372,52.4013 85.9039,52.7347 88.5,53.5C 88.5,53.8333 88.5,54.1667 88.5,54.5C 85.5448,53.8413 82.5448,53.5079 79.5,53.5C 79.1667,53.5 78.8333,53.5 78.5,53.5 Z"/></g>
<g><path style="opacity:1" fill="#1c231b" d="M 66.5,53.5 C 67.5511,54.2223 68.2178,55.2223 68.5,56.5C 68.5,56.8333 68.5,57.1667 68.5,57.5C 68.1667,57.5 67.8333,57.5 67.5,57.5C 65.5,56.5 63.5,55.5 61.5,54.5C 63.2161,54.3713 64.8828,54.038 66.5,53.5 Z"/></g>
<g><path style="opacity:1" fill="#181a12" d="M 70.5,52.5 C 72.2191,53.0221 73.5525,54.0221 74.5,55.5C 72.3792,55.3253 70.3792,55.6586 68.5,56.5C 68.2178,55.2223 67.5511,54.2223 66.5,53.5C 67.1667,53.5 67.8333,53.5 68.5,53.5C 69.1667,53.1667 69.8333,52.8333 70.5,52.5 Z"/></g>
<g><path style="opacity:1" fill="#181a12" d="M 78.5,53.5 C 78.8333,53.5 79.1667,53.5 79.5,53.5C 80.5676,54.4345 81.901,54.7678 83.5,54.5C 83.1583,55.3382 82.4916,55.6716 81.5,55.5C 80.1667,55.5 78.8333,55.5 77.5,55.5C 77.8333,54.8333 78.1667,54.1667 78.5,53.5 Z"/></g>
<g><path style="opacity:1" fill="#1a1d16" d="M 83.5,54.5 C 85.0495,55.4408 86.7162,56.1075 88.5,56.5C 90.1667,57.1667 91.8333,57.8333 93.5,58.5C 92.1667,58.5 90.8333,58.5 89.5,58.5C 86.994,57.2504 84.3274,56.5838 81.5,56.5C 81.5,56.1667 81.5,55.8333 81.5,55.5C 82.4916,55.6716 83.1583,55.3382 83.5,54.5 Z"/></g>
<g><path style="opacity:1" fill="#181812" d="M 79.5,53.5 C 82.5448,53.5079 85.5448,53.8413 88.5,54.5C 89.1667,54.5 89.5,54.8333 89.5,55.5C 88.8333,55.5 88.5,55.8333 88.5,56.5C 86.7162,56.1075 85.0495,55.4408 83.5,54.5C 81.901,54.7678 80.5676,54.4345 79.5,53.5 Z"/></g>
<g><path style="opacity:0.506" fill="#96938e" d="M 88.5,54.5 C 88.5,54.1667 88.5,53.8333 88.5,53.5C 91.0177,54.2638 93.351,55.2638 95.5,56.5C 95.1667,56.5 94.8333,56.5 94.5,56.5C 92.7839,56.3713 91.1172,56.038 89.5,55.5C 89.5,54.8333 89.1667,54.5 88.5,54.5 Z"/></g>
<g><path style="opacity:0.624" fill="#a0a698" d="M 18.5,55.5 C 17.1779,55.67 16.0113,55.3366 15,54.5C 14.5172,55.448 14.3505,56.448 14.5,57.5C 15.2341,58.7079 15.5674,60.0413 15.5,61.5C 13.7773,59.22 13.1107,56.5533 13.5,53.5C 15.5529,53.4021 17.2196,54.0687 18.5,55.5 Z"/></g>
<g><path style="opacity:1" fill="#7b8577" d="M 18.5,55.5 C 20.0269,55.427 21.0269,56.0937 21.5,57.5C 20.8333,57.5 20.1667,57.5 19.5,57.5C 19.1583,56.6618 18.4916,56.3284 17.5,56.5C 16.609,57.1098 15.609,57.4431 14.5,57.5C 14.3505,56.448 14.5172,55.448 15,54.5C 16.0113,55.3366 17.1779,55.67 18.5,55.5 Z"/></g>
<g><path style="opacity:1" fill="#222d24" d="M 61.5,54.5 C 63.5,55.5 65.5,56.5 67.5,57.5C 65.1667,57.5 62.8333,57.5 60.5,57.5C 60.5,56.8333 60.5,56.1667 60.5,55.5C 60.5,54.8333 60.8333,54.5 61.5,54.5 Z"/></g>
<g><path style="opacity:1" fill="#1f291e" d="M 74.5,55.5 C 75.5,55.5 76.5,55.5 77.5,55.5C 78.8333,55.5 80.1667,55.5 81.5,55.5C 81.5,55.8333 81.5,56.1667 81.5,56.5C 78.6146,56.1936 75.9479,56.5269 73.5,57.5C 72.8333,57.5 72.1667,57.5 71.5,57.5C 70.5,57.5 69.5,57.5 68.5,57.5C 68.5,57.1667 68.5,56.8333 68.5,56.5C 70.3792,55.6586 72.3792,55.3253 74.5,55.5 Z"/></g>
<g><path style="opacity:1" fill="#23251d" d="M 57.5,55.5 C 58.5,55.5 59.5,55.5 60.5,55.5C 60.5,56.1667 60.5,56.8333 60.5,57.5C 58.847,57.6596 57.5137,58.3263 56.5,59.5C 53.6146,59.8064 50.9479,59.4731 48.5,58.5C 51.7846,58.0719 54.7846,57.0719 57.5,55.5 Z"/></g>
<g><path style="opacity:1" fill="#29382c" d="M 73.5,57.5 C 75.9479,56.5269 78.6146,56.1936 81.5,56.5C 84.3274,56.5838 86.994,57.2504 89.5,58.5C 89.5,58.8333 89.5,59.1667 89.5,59.5C 87.0971,59.552 84.7638,59.2186 82.5,58.5C 79.7131,57.5233 76.7131,57.19 73.5,57.5 Z"/></g>
<g><path style="opacity:1" fill="#14130e" d="M 89.5,55.5 C 91.1172,56.038 92.7839,56.3713 94.5,56.5C 95.1667,57.1667 95.8333,57.8333 96.5,58.5C 95.8333,58.5 95.1667,58.5 94.5,58.5C 94.1667,58.5 93.8333,58.5 93.5,58.5C 91.8333,57.8333 90.1667,57.1667 88.5,56.5C 88.5,55.8333 88.8333,55.5 89.5,55.5 Z"/></g>
<g><path style="opacity:1" fill="#697163" d="M 17.5,56.5 C 17.3259,58.861 16.9926,61.1944 16.5,63.5C 15.6618,63.1583 15.3284,62.4916 15.5,61.5C 15.5674,60.0413 15.2341,58.7079 14.5,57.5C 15.609,57.4431 16.609,57.1098 17.5,56.5 Z"/></g>
<g><path style="opacity:0.976" fill="#72716c" d="M 57.5,55.5 C 54.7846,57.0719 51.7846,58.0719 48.5,58.5C 48.1667,58.5 47.8333,58.5 47.5,58.5C 50.5046,56.7234 53.8379,55.7234 57.5,55.5 Z"/></g>
<g><path style="opacity:1" fill="#314839" d="M 60.5,57.5 C 62.8333,57.5 65.1667,57.5 67.5,57.5C 67.8333,57.5 68.1667,57.5 68.5,57.5C 69.5,57.5 70.5,57.5 71.5,57.5C 71.5,58.1667 71.5,58.8333 71.5,59.5C 66.5683,58.5664 61.5683,58.5664 56.5,59.5C 57.5137,58.3263 58.847,57.6596 60.5,57.5 Z"/></g>
<g><path style="opacity:0.678" fill="#8c8984" d="M 94.5,56.5 C 94.8333,56.5 95.1667,56.5 95.5,56.5C 100.467,57.9884 105.134,59.9884 109.5,62.5C 107.5,62.1667 105.5,61.8333 103.5,61.5C 102.71,60.5987 101.71,59.9321 100.5,59.5C 99.2921,58.7659 97.9587,58.4326 96.5,58.5C 95.8333,57.8333 95.1667,57.1667 94.5,56.5 Z"/></g>
<g><path style="opacity:1" fill="#5b6b5d" d="M 19.5,57.5 C 20.1667,57.5 20.8333,57.5 21.5,57.5C 22.4916,57.3284 23.1583,57.6618 23.5,58.5C 22.209,58.2627 21.209,58.596 20.5,59.5C 20.5,59.8333 20.5,60.1667 20.5,60.5C 18.5188,59.8946 18.1854,58.8946 19.5,57.5 Z"/></g>
<g><path style="opacity:1" fill="#3a5f4c" d="M 71.5,57.5 C 72.1667,57.5 72.8333,57.5 73.5,57.5C 76.7131,57.19 79.7131,57.5233 82.5,58.5C 81.8333,58.5 81.1667,58.5 80.5,58.5C 79.1529,59.1712 77.9862,59.1712 77,58.5C 76.2828,59.0442 75.7828,59.7109 75.5,60.5C 74.1667,59.1667 72.8333,59.1667 71.5,60.5C 71.5,60.1667 71.5,59.8333 71.5,59.5C 71.5,58.8333 71.5,58.1667 71.5,57.5 Z"/></g>
<g><path style="opacity:1" fill="#313b30" d="M 20.5,59.5 C 21.209,58.596 22.209,58.2627 23.5,58.5C 23.3284,59.4916 23.6618,60.1583 24.5,60.5C 24.5,61.1667 24.5,61.8333 24.5,62.5C 24.0623,63.5063 23.3957,63.5063 22.5,62.5C 22.0679,61.2905 21.4013,60.2905 20.5,59.5 Z"/></g>
<g><path style="opacity:1" fill="#72716c" d="M 47.5,58.5 C 46.8333,59.1667 46.1667,59.8333 45.5,60.5C 44.1667,60.5 42.8333,60.5 41.5,60.5C 43.1016,58.9261 45.1016,58.2594 47.5,58.5 Z"/></g>
<g><path style="opacity:1" fill="#353c30" d="M 47.5,58.5 C 47.8333,58.5 48.1667,58.5 48.5,58.5C 50.9479,59.4731 53.6146,59.8064 56.5,59.5C 54.7354,60.4614 52.7354,60.7947 50.5,60.5C 48.8333,60.5 47.1667,60.5 45.5,60.5C 46.1667,59.8333 46.8333,59.1667 47.5,58.5 Z"/></g>
<g><path style="opacity:1" fill="#4b745e" d="M 71.5,59.5 C 71.5,59.8333 71.5,60.1667 71.5,60.5C 66.9677,60.1818 62.6344,60.5151 58.5,61.5C 55.8333,61.5 53.1667,61.5 50.5,61.5C 50.5,61.1667 50.5,60.8333 50.5,60.5C 52.7354,60.7947 54.7354,60.4614 56.5,59.5C 61.5683,58.5664 66.5683,58.5664 71.5,59.5 Z"/></g>
<g><path style="opacity:1" fill="#43705b" d="M 80.5,58.5 C 80.5,59.1667 80.5,59.8333 80.5,60.5C 78.8333,60.5 77.1667,60.5 75.5,60.5C 75.7828,59.7109 76.2828,59.0442 77,58.5C 77.9862,59.1712 79.1529,59.1712 80.5,58.5 Z"/></g>
<g><path style="opacity:1" fill="#436f5b" d="M 80.5,58.5 C 81.1667,58.5 81.8333,58.5 82.5,58.5C 84.7638,59.2186 87.0971,59.552 89.5,59.5C 89.8333,59.5 90.1667,59.5 90.5,59.5C 92.4385,61.1628 94.7718,61.8294 97.5,61.5C 97.5,61.8333 97.5,62.1667 97.5,62.5C 97.1667,62.5 96.8333,62.5 96.5,62.5C 92.8019,62.4476 89.1352,62.1143 85.5,61.5C 84.0813,60.5489 82.4147,60.2155 80.5,60.5C 80.5,59.8333 80.5,59.1667 80.5,58.5 Z"/></g>
<g><path style="opacity:1" fill="#1b241c" d="M 89.5,59.5 C 89.5,59.1667 89.5,58.8333 89.5,58.5C 90.8333,58.5 92.1667,58.5 93.5,58.5C 93.8333,58.5 94.1667,58.5 94.5,58.5C 95.5,59.1667 96.5,59.8333 97.5,60.5C 95.139,60.3259 92.8056,59.9926 90.5,59.5C 90.1667,59.5 89.8333,59.5 89.5,59.5 Z"/></g>
<g><path style="opacity:1" fill="#151610" d="M 94.5,58.5 C 95.1667,58.5 95.8333,58.5 96.5,58.5C 97.9587,58.4326 99.2921,58.7659 100.5,59.5C 99.791,60.404 98.791,60.7373 97.5,60.5C 96.5,59.8333 95.5,59.1667 94.5,58.5 Z"/></g>
<g><path style="opacity:1" fill="#526254" d="M 17.5,56.5 C 18.4916,56.3284 19.1583,56.6618 19.5,57.5C 18.1854,58.8946 18.5188,59.8946 20.5,60.5C 20.397,62.7602 20.0637,65.0935 19.5,67.5C 18.8333,67.5 18.1667,67.5 17.5,67.5C 17.5674,66.0413 17.2341,64.7079 16.5,63.5C 16.9926,61.1944 17.3259,58.861 17.5,56.5 Z"/></g>
<g><path style="opacity:1" fill="#34372b" d="M 41.5,60.5 C 42.8333,60.5 44.1667,60.5 45.5,60.5C 45.5,61.1667 45.5,61.8333 45.5,62.5C 45.1667,62.5 44.8333,62.5 44.5,62.5C 42.3792,62.3253 40.3792,62.6586 38.5,63.5C 39.0998,62.1001 40.0998,61.1001 41.5,60.5 Z"/></g>
<g><path style="opacity:1" fill="#445240" d="M 45.5,60.5 C 47.1667,60.5 48.8333,60.5 50.5,60.5C 50.5,60.8333 50.5,61.1667 50.5,61.5C 48.8828,62.038 47.2161,62.3713 45.5,62.5C 45.5,61.8333 45.5,61.1667 45.5,60.5 Z"/></g>
<g><path style="opacity:1" fill="#659078" d="M 75.5,60.5 C 77.1667,60.5 78.8333,60.5 80.5,60.5C 82.4147,60.2155 84.0813,60.5489 85.5,61.5C 76.5,61.5 67.5,61.5 58.5,61.5C 62.6344,60.5151 66.9677,60.1818 71.5,60.5C 72.8333,59.1667 74.1667,59.1667 75.5,60.5 Z"/></g>
<g><path style="opacity:1" fill="#2b4639" d="M 90.5,59.5 C 92.8056,59.9926 95.139,60.3259 97.5,60.5C 97.5,60.8333 97.5,61.1667 97.5,61.5C 94.7718,61.8294 92.4385,61.1628 90.5,59.5 Z"/></g>
<g><path style="opacity:1" fill="#191a13" d="M 100.5,59.5 C 101.71,59.9321 102.71,60.5987 103.5,61.5C 101.5,61.5 99.5,61.5 97.5,61.5C 97.5,61.1667 97.5,60.8333 97.5,60.5C 98.791,60.7373 99.791,60.404 100.5,59.5 Z"/></g>
<g><path style="opacity:1" fill="#21241b" d="M 97.5,62.5 C 97.5,62.1667 97.5,61.8333 97.5,61.5C 99.5,61.5 101.5,61.5 103.5,61.5C 105.5,61.8333 107.5,62.1667 109.5,62.5C 110.66,64.2027 109.993,64.8693 107.5,64.5C 106.791,63.596 105.791,63.2627 104.5,63.5C 103.167,63.1667 101.833,62.8333 100.5,62.5C 99.5,62.5 98.5,62.5 97.5,62.5 Z"/></g>
<g><path style="opacity:1" fill="#334739" d="M 20.5,59.5 C 21.4013,60.2905 22.0679,61.2905 22.5,62.5C 21.9522,64.15 21.6189,65.8166 21.5,67.5C 20.8333,67.5 20.1667,67.5 19.5,67.5C 20.0637,65.0935 20.397,62.7602 20.5,60.5C 20.5,60.1667 20.5,59.8333 20.5,59.5 Z"/></g>
<g><path style="opacity:1" fill="#33392e" d="M 24.5,60.5 C 25.6366,61.7888 26.9699,62.7888 28.5,63.5C 30.5,63.5 32.5,63.5 34.5,63.5C 34.5,63.8333 34.5,64.1667 34.5,64.5C 31.8127,64.3359 29.146,64.5026 26.5,65C 25.944,65.3826 25.6107,65.8826 25.5,66.5C 25.1667,65.1667 24.8333,63.8333 24.5,62.5C 24.5,61.8333 24.5,61.1667 24.5,60.5 Z"/></g>
<g><path style="opacity:1" fill="#6a6961" d="M 23.5,58.5 C 25.754,59.1237 27.4206,60.457 28.5,62.5C 28.5,62.8333 28.5,63.1667 28.5,63.5C 26.9699,62.7888 25.6366,61.7888 24.5,60.5C 23.6618,60.1583 23.3284,59.4916 23.5,58.5 Z"/></g>
<g><path style="opacity:0.592" fill="#6e6e68" d="M 37.5,61.5 C 36.5,62.1667 35.5,62.8333 34.5,63.5C 32.5,63.5 30.5,63.5 28.5,63.5C 28.5,63.1667 28.5,62.8333 28.5,62.5C 31.5176,62.2962 34.5176,61.9629 37.5,61.5 Z"/></g>
<g><path style="opacity:1" fill="#4e5146" d="M 41.5,60.5 C 40.0998,61.1001 39.0998,62.1001 38.5,63.5C 37.5084,63.3284 36.8417,63.6618 36.5,64.5C 35.8333,64.5 35.1667,64.5 34.5,64.5C 34.5,64.1667 34.5,63.8333 34.5,63.5C 35.5,62.8333 36.5,62.1667 37.5,61.5C 38.5676,60.5655 39.901,60.2322 41.5,60.5 Z"/></g>
<g><path style="opacity:1" fill="#7c967d" d="M 50.5,61.5 C 53.1667,61.5 55.8333,61.5 58.5,61.5C 58.5,61.8333 58.5,62.1667 58.5,62.5C 57.8333,62.5 57.5,62.8333 57.5,63.5C 56.609,62.8902 55.609,62.5569 54.5,62.5C 51.2186,62.4203 48.2186,63.087 45.5,64.5C 44.0357,65.4054 42.7024,65.4054 41.5,64.5C 42.5,63.8333 43.5,63.1667 44.5,62.5C 44.8333,62.5 45.1667,62.5 45.5,62.5C 47.2161,62.3713 48.8828,62.038 50.5,61.5 Z"/></g>
<g><path style="opacity:1" fill="#acbea8" d="M 57.5,63.5 C 57.5,62.8333 57.8333,62.5 58.5,62.5C 65.8333,62.5 73.1667,62.5 80.5,62.5C 80.5,62.8333 80.5,63.1667 80.5,63.5C 80.1667,63.5 79.8333,63.5 79.5,63.5C 77.1667,63.5 74.8333,63.5 72.5,63.5C 68.9581,63.1872 65.6248,63.5206 62.5,64.5C 62.1667,64.5 61.8333,64.5 61.5,64.5C 60.4324,63.5655 59.099,63.2322 57.5,63.5 Z"/></g>
<g><path style="opacity:1" fill="#87a88f" d="M 58.5,62.5 C 58.5,62.1667 58.5,61.8333 58.5,61.5C 67.5,61.5 76.5,61.5 85.5,61.5C 89.1352,62.1143 92.8019,62.4476 96.5,62.5C 96.5,62.8333 96.5,63.1667 96.5,63.5C 93.8333,63.5 91.1667,63.5 88.5,63.5C 86.7354,62.5386 84.7354,62.2053 82.5,62.5C 81.8333,62.5 81.1667,62.5 80.5,62.5C 73.1667,62.5 65.8333,62.5 58.5,62.5 Z"/></g>
<g><path style="opacity:1" fill="#516a48" d="M 96.5,63.5 C 96.5,63.1667 96.5,62.8333 96.5,62.5C 96.8333,62.5 97.1667,62.5 97.5,62.5C 98.5,62.5 99.5,62.5 100.5,62.5C 100.5,63.1667 100.5,63.8333 100.5,64.5C 100.672,65.4916 100.338,66.1583 99.5,66.5C 99.5,65.5 99.5,64.5 99.5,63.5C 98.5,63.5 97.5,63.5 96.5,63.5 Z"/></g>
<g><path style="opacity:1" fill="#293527" d="M 22.5,62.5 C 23.3957,63.5063 24.0623,63.5063 24.5,62.5C 24.8333,63.8333 25.1667,65.1667 25.5,66.5C 25.5,66.8333 25.5,67.1667 25.5,67.5C 24.8333,67.5 24.1667,67.5 23.5,67.5C 23.3713,65.7839 23.038,64.1172 22.5,62.5 Z"/></g>
<g><path style="opacity:1" fill="#606f5c" d="M 44.5,62.5 C 43.5,63.1667 42.5,63.8333 41.5,64.5C 41.5,65.1667 41.1667,65.5 40.5,65.5C 39.4324,64.5655 38.099,64.2322 36.5,64.5C 36.8417,63.6618 37.5084,63.3284 38.5,63.5C 40.3792,62.6586 42.3792,62.3253 44.5,62.5 Z"/></g>
<g><path style="opacity:1" fill="#9daa94" d="M 54.5,62.5 C 54.5,63.1667 54.1667,63.5 53.5,63.5C 52.8333,63.5 52.5,63.8333 52.5,64.5C 50.5168,64.1568 49.1834,64.8235 48.5,66.5C 47.7784,66.0825 47.2784,65.4158 47,64.5C 46.5357,65.0944 46.369,65.7611 46.5,66.5C 46.1667,66.5 45.8333,66.5 45.5,66.5C 45.5,65.8333 45.5,65.1667 45.5,64.5C 48.2186,63.087 51.2186,62.4203 54.5,62.5 Z"/></g>
<g><path style="opacity:1" fill="#cbcfbf" d="M 72.5,63.5 C 71.9094,64.1515 71.2427,64.8182 70.5,65.5C 70.6236,66.1067 70.9569,66.44 71.5,66.5C 71.5,67.1667 71.5,67.8333 71.5,68.5C 71.5,69.1667 71.5,69.8333 71.5,70.5C 71.1667,70.5 70.8333,70.5 70.5,70.5C 70.1667,69.1667 69.8333,67.8333 69.5,66.5C 68.8166,64.8235 67.4832,64.1568 65.5,64.5C 64.8333,65.1667 64.1667,65.8333 63.5,66.5C 63.1667,65.8333 62.8333,65.1667 62.5,64.5C 65.6248,63.5206 68.9581,63.1872 72.5,63.5 Z"/></g>
<g><path style="opacity:1" fill="#a8b49f" d="M 82.5,62.5 C 84.7354,62.2053 86.7354,62.5386 88.5,63.5C 87.8333,63.5 87.1667,63.5 86.5,63.5C 85.0413,63.4326 83.7079,63.7659 82.5,64.5C 82.5,63.8333 82.5,63.1667 82.5,62.5 Z"/></g>
<g><path style="opacity:1" fill="#b1bda6" d="M 86.5,63.5 C 87.1667,63.5 87.8333,63.5 88.5,63.5C 91.1667,63.5 93.8333,63.5 96.5,63.5C 96.5,63.8333 96.5,64.1667 96.5,64.5C 96.1667,64.5 95.8333,64.5 95.5,64.5C 93.64,65.0715 91.9733,65.0715 90.5,64.5C 88.901,64.7678 87.5676,64.4345 86.5,63.5 Z"/></g>
<g><path style="opacity:1" fill="#454e36" d="M 100.5,62.5 C 101.833,62.8333 103.167,63.1667 104.5,63.5C 104.5,63.8333 104.5,64.1667 104.5,64.5C 103.508,64.3284 102.842,64.6618 102.5,65.5C 101.833,65.1667 101.167,64.8333 100.5,64.5C 100.5,63.8333 100.5,63.1667 100.5,62.5 Z"/></g>
<g><path style="opacity:1" fill="#29392c" d="M 22.5,62.5 C 23.038,64.1172 23.3713,65.7839 23.5,67.5C 22.8333,67.5 22.1667,67.5 21.5,67.5C 21.6189,65.8166 21.9522,64.15 22.5,62.5 Z"/></g>
<g><path style="opacity:1" fill="#aeb8a6" d="M 54.5,62.5 C 55.609,62.5569 56.609,62.8902 57.5,63.5C 56.8902,64.391 56.5569,65.391 56.5,66.5C 56.1667,66.5 55.8333,66.5 55.5,66.5C 55.2178,65.2223 54.5511,64.2223 53.5,63.5C 54.1667,63.5 54.5,63.1667 54.5,62.5 Z"/></g>
<g><path style="opacity:1" fill="#bec9b6" d="M 57.5,63.5 C 59.099,63.2322 60.4324,63.5655 61.5,64.5C 61.1583,65.3382 60.4916,65.6716 59.5,65.5C 58.391,65.5569 57.391,65.8902 56.5,66.5C 56.5569,65.391 56.8902,64.391 57.5,63.5 Z"/></g>
<g><path style="opacity:1" fill="#c9cbbd" d="M 65.5,64.5 C 67.4832,64.1568 68.8166,64.8235 69.5,66.5C 68.8333,67.1667 68.1667,67.8333 67.5,68.5C 66.3995,67.3951 65.7329,66.0618 65.5,64.5 Z"/></g>
<g><path style="opacity:1" fill="#c5c8b7" d="M 72.5,63.5 C 74.8333,63.5 77.1667,63.5 79.5,63.5C 79.5,64.1667 79.5,64.8333 79.5,65.5C 78.1667,65.5 76.8333,65.5 75.5,65.5C 74.1667,65.8333 72.8333,66.1667 71.5,66.5C 70.9569,66.44 70.6236,66.1067 70.5,65.5C 71.2427,64.8182 71.9094,64.1515 72.5,63.5 Z"/></g>
<g><path style="opacity:1" fill="#bec1b1" d="M 80.5,62.5 C 81.1667,62.5 81.8333,62.5 82.5,62.5C 82.5,63.1667 82.5,63.8333 82.5,64.5C 82.5,65.1667 82.8333,65.5 83.5,65.5C 83.5,65.8333 83.5,66.1667 83.5,66.5C 82.8333,66.5 82.5,66.8333 82.5,67.5C 81.6554,66.3285 80.9887,64.9952 80.5,63.5C 80.5,63.1667 80.5,62.8333 80.5,62.5 Z"/></g>
<g><path style="opacity:1" fill="#c4c9b4" d="M 86.5,63.5 C 87.5676,64.4345 88.901,64.7678 90.5,64.5C 90.1667,65.1667 89.8333,65.8333 89.5,66.5C 89.1667,66.5 88.8333,66.5 88.5,66.5C 88.1583,65.6618 87.4916,65.3284 86.5,65.5C 85.5,65.5 84.5,65.5 83.5,65.5C 82.8333,65.5 82.5,65.1667 82.5,64.5C 83.7079,63.7659 85.0413,63.4326 86.5,63.5 Z"/></g>
<g><path style="opacity:1" fill="#a28742" d="M 104.5,63.5 C 105.791,63.2627 106.791,63.596 107.5,64.5C 107.5,65.1667 107.5,65.8333 107.5,66.5C 107.167,66.5 106.833,66.5 106.5,66.5C 105.5,66.1667 104.833,65.5 104.5,64.5C 104.5,64.1667 104.5,63.8333 104.5,63.5 Z"/></g>
<g><path style="opacity:1" fill="#626055" d="M 109.5,62.5 C 113.357,62.6897 115.024,64.6897 114.5,68.5C 113.833,68.5 113.167,68.5 112.5,68.5C 111.83,65.4969 110.163,64.8303 107.5,66.5C 107.5,65.8333 107.5,65.1667 107.5,64.5C 109.993,64.8693 110.66,64.2027 109.5,62.5 Z"/></g>
<g><path style="opacity:1" fill="#7a8a77" d="M 34.5,64.5 C 35.1667,64.5 35.8333,64.5 36.5,64.5C 35.1667,65.1667 33.8333,65.8333 32.5,66.5C 32.1667,66.5 31.8333,66.5 31.5,66.5C 29.5,66.5 27.5,66.5 25.5,66.5C 25.6107,65.8826 25.944,65.3826 26.5,65C 29.146,64.5026 31.8127,64.3359 34.5,64.5 Z"/></g>
<g><path style="opacity:1" fill="#9eac98" d="M 36.5,64.5 C 38.099,64.2322 39.4324,64.5655 40.5,65.5C 40.5,65.8333 40.5,66.1667 40.5,66.5C 40.5,67.1667 40.1667,67.5 39.5,67.5C 38.791,66.596 37.791,66.2627 36.5,66.5C 34.9974,66.8346 33.664,66.8346 32.5,66.5C 33.8333,65.8333 35.1667,65.1667 36.5,64.5 Z"/></g>
<g><path style="opacity:1" fill="#acb8a5" d="M 41.5,64.5 C 42.7024,65.4054 44.0357,65.4054 45.5,64.5C 45.5,65.1667 45.5,65.8333 45.5,66.5C 44.8902,67.391 44.5569,68.391 44.5,69.5C 44.1667,69.5 43.8333,69.5 43.5,69.5C 43.7373,68.209 43.404,67.209 42.5,66.5C 41.8333,66.5 41.1667,66.5 40.5,66.5C 40.5,66.1667 40.5,65.8333 40.5,65.5C 41.1667,65.5 41.5,65.1667 41.5,64.5 Z"/></g>
<g><path style="opacity:1" fill="#c1c5b6" d="M 52.5,64.5 C 52.7329,66.0618 53.3995,67.3951 54.5,68.5C 54.5,69.1667 54.5,69.8333 54.5,70.5C 54.1667,70.5 53.8333,70.5 53.5,70.5C 53.5,68.5 52.5,67.5 50.5,67.5C 49.8333,67.1667 49.1667,66.8333 48.5,66.5C 49.1834,64.8235 50.5168,64.1568 52.5,64.5 Z"/></g>
<g><path style="opacity:1" fill="#bdc2b2" d="M 53.5,63.5 C 54.5511,64.2223 55.2178,65.2223 55.5,66.5C 55.5,67.1667 55.5,67.8333 55.5,68.5C 55.1667,68.5 54.8333,68.5 54.5,68.5C 53.3995,67.3951 52.7329,66.0618 52.5,64.5C 52.5,63.8333 52.8333,63.5 53.5,63.5 Z"/></g>
<g><path style="opacity:1" fill="#cacaba" d="M 75.5,65.5 C 76.8333,65.5 78.1667,65.5 79.5,65.5C 80.1098,66.391 80.4431,67.391 80.5,68.5C 79.1667,68.1667 77.8333,67.8333 76.5,67.5C 76.1667,66.8333 75.8333,66.1667 75.5,65.5 Z"/></g>
<g><path style="opacity:1" fill="#cfd0be" d="M 79.5,63.5 C 79.8333,63.5 80.1667,63.5 80.5,63.5C 80.9887,64.9952 81.6554,66.3285 82.5,67.5C 82.5,67.8333 82.5,68.1667 82.5,68.5C 81.8333,68.5 81.1667,68.5 80.5,68.5C 80.4431,67.391 80.1098,66.391 79.5,65.5C 79.5,64.8333 79.5,64.1667 79.5,63.5 Z"/></g>
<g><path style="opacity:1" fill="#ccc7ae" d="M 90.5,64.5 C 91.9733,65.0715 93.64,65.0715 95.5,64.5C 95.5,66.1667 95.5,67.8333 95.5,69.5C 95.5,69.8333 95.5,70.1667 95.5,70.5C 95.1667,70.5 94.8333,70.5 94.5,70.5C 93.5637,69.0256 92.2303,68.0256 90.5,67.5C 90.1667,67.5 89.8333,67.5 89.5,67.5C 89.5,67.1667 89.5,66.8333 89.5,66.5C 89.8333,65.8333 90.1667,65.1667 90.5,64.5 Z"/></g>
<g><path style="opacity:1" fill="#c2c2b4" d="M 59.5,65.5 C 60.1098,66.391 60.4431,67.391 60.5,68.5C 59.0048,68.0113 57.6715,67.3446 56.5,66.5C 57.391,65.8902 58.391,65.5569 59.5,65.5 Z"/></g>
<g><path style="opacity:1" fill="#d1d4c5" d="M 61.5,64.5 C 61.8333,64.5 62.1667,64.5 62.5,64.5C 62.8333,65.1667 63.1667,65.8333 63.5,66.5C 62.6618,66.8417 62.3284,67.5084 62.5,68.5C 61.8333,68.5 61.5,68.8333 61.5,69.5C 61.1667,70.8333 60.8333,70.8333 60.5,69.5C 60.5,69.1667 60.5,68.8333 60.5,68.5C 60.4431,67.391 60.1098,66.391 59.5,65.5C 60.4916,65.6716 61.1583,65.3382 61.5,64.5 Z"/></g>
<g><path style="opacity:1" fill="#d3d3c5" d="M 65.5,64.5 C 65.7329,66.0618 66.3995,67.3951 67.5,68.5C 67.5,68.8333 67.5,69.1667 67.5,69.5C 67.1667,69.5 66.8333,69.5 66.5,69.5C 65.2954,67.8624 63.9621,67.5291 62.5,68.5C 62.3284,67.5084 62.6618,66.8417 63.5,66.5C 64.1667,65.8333 64.8333,65.1667 65.5,64.5 Z"/></g>
<g><path style="opacity:1" fill="#d1d1c3" d="M 75.5,65.5 C 75.8333,66.1667 76.1667,66.8333 76.5,67.5C 76.427,69.0269 77.0937,70.0269 78.5,70.5C 79.1667,71.1667 79.8333,71.8333 80.5,72.5C 80.5,72.8333 80.5,73.1667 80.5,73.5C 79.391,73.4431 78.391,73.1098 77.5,72.5C 76.5275,70.8608 75.1942,69.5274 73.5,68.5C 72.8333,68.5 72.1667,68.5 71.5,68.5C 71.5,67.8333 71.5,67.1667 71.5,66.5C 72.8333,66.1667 74.1667,65.8333 75.5,65.5 Z"/></g>
<g><path style="opacity:1" fill="#b0ab76" d="M 112.5,68.5 C 110.596,68.9566 109.263,68.9566 108.5,68.5C 107.391,68.5569 106.391,68.8902 105.5,69.5C 105.557,68.391 105.89,67.391 106.5,66.5C 106.833,66.5 107.167,66.5 107.5,66.5C 110.163,64.8303 111.83,65.4969 112.5,68.5 Z"/></g>
<g><path style="opacity:1" fill="#b2b5a7" d="M 25.5,66.5 C 27.5,66.5 29.5,66.5 31.5,66.5C 31.5,67.1667 31.5,67.8333 31.5,68.5C 29.5168,68.1568 28.1834,68.8235 27.5,70.5C 26.8333,69.8333 26.1667,69.1667 25.5,68.5C 25.5,68.1667 25.5,67.8333 25.5,67.5C 25.5,67.1667 25.5,66.8333 25.5,66.5 Z"/></g>
<g><path style="opacity:1" fill="#bec0b0" d="M 31.5,66.5 C 31.8333,66.5 32.1667,66.5 32.5,66.5C 33.664,66.8346 34.9974,66.8346 36.5,66.5C 36.5,67.1667 36.5,67.8333 36.5,68.5C 35.5,69.8333 34.5,69.8333 33.5,68.5C 32.8333,68.5 32.1667,68.5 31.5,68.5C 31.5,67.8333 31.5,67.1667 31.5,66.5 Z"/></g>
<g><path style="opacity:1" fill="#bfc2b3" d="M 48.5,66.5 C 49.1667,66.8333 49.8333,67.1667 50.5,67.5C 50.5,68.1667 50.1667,68.5 49.5,68.5C 49.1667,68.5 48.8333,68.5 48.5,68.5C 47.5,68.1667 46.8333,67.5 46.5,66.5C 46.369,65.7611 46.5357,65.0944 47,64.5C 47.2784,65.4158 47.7784,66.0825 48.5,66.5 Z"/></g>
<g><path style="opacity:1" fill="#b0a587" d="M 83.5,65.5 C 84.5,65.5 85.5,65.5 86.5,65.5C 86.5,65.8333 86.5,66.1667 86.5,66.5C 85.6618,66.8417 85.3284,67.5084 85.5,68.5C 84.1667,68.5 83.5,67.8333 83.5,66.5C 83.5,66.1667 83.5,65.8333 83.5,65.5 Z"/></g>
<g><path style="opacity:1" fill="#c8b78c" d="M 86.5,65.5 C 87.4916,65.3284 88.1583,65.6618 88.5,66.5C 87.5489,67.9187 87.2155,69.5853 87.5,71.5C 86.5489,70.0813 86.2155,68.4147 86.5,66.5C 86.5,66.1667 86.5,65.8333 86.5,65.5 Z"/></g>
<g><path style="opacity:1" fill="#ada789" d="M 95.5,64.5 C 95.8333,64.5 96.1667,64.5 96.5,64.5C 97.9281,66.0741 98.2614,67.7408 97.5,69.5C 96.8333,69.5 96.1667,69.5 95.5,69.5C 95.5,67.8333 95.5,66.1667 95.5,64.5 Z"/></g>
<g><path style="opacity:1" fill="#3f473f" d="M 17.5,67.5 C 18.1667,67.5 18.8333,67.5 19.5,67.5C 20.1667,67.5 20.8333,67.5 21.5,67.5C 21.1667,68.1667 20.8333,68.8333 20.5,69.5C 20.1667,69.5 19.8333,69.5 19.5,69.5C 18.8333,69.5 18.1667,69.5 17.5,69.5C 17.5,68.8333 17.5,68.1667 17.5,67.5 Z"/></g>
<g><path style="opacity:1" fill="#252e25" d="M 21.5,67.5 C 22.1667,67.5 22.8333,67.5 23.5,67.5C 24.1667,67.5 24.8333,67.5 25.5,67.5C 25.5,67.8333 25.5,68.1667 25.5,68.5C 24.8902,69.391 24.5569,70.391 24.5,71.5C 22.6203,71.7709 21.287,71.1042 20.5,69.5C 20.8333,68.8333 21.1667,68.1667 21.5,67.5 Z"/></g>
<g><path style="opacity:1" fill="#d5d6c8" d="M 55.5,66.5 C 55.8333,66.5 56.1667,66.5 56.5,66.5C 57.6715,67.3446 59.0048,68.0113 60.5,68.5C 60.5,68.8333 60.5,69.1667 60.5,69.5C 59.5084,69.3284 58.8417,69.6618 58.5,70.5C 57.5,69.8333 56.5,69.1667 55.5,68.5C 55.5,67.8333 55.5,67.1667 55.5,66.5 Z"/></g>
<g><path style="opacity:1" fill="#d8d7cb" d="M 66.5,69.5 C 66.5,70.1667 66.5,70.8333 66.5,71.5C 65.8333,71.8333 65.1667,72.1667 64.5,72.5C 63.5084,72.6716 62.8417,72.3382 62.5,71.5C 62.6716,70.5084 62.3382,69.8417 61.5,69.5C 61.5,68.8333 61.8333,68.5 62.5,68.5C 63.9621,67.5291 65.2954,67.8624 66.5,69.5 Z"/></g>
<g><path style="opacity:1" fill="#d8d7ca" d="M 69.5,66.5 C 69.8333,67.8333 70.1667,69.1667 70.5,70.5C 69.3652,69.8973 68.3652,69.5639 67.5,69.5C 67.5,69.1667 67.5,68.8333 67.5,68.5C 68.1667,67.8333 68.8333,67.1667 69.5,66.5 Z"/></g>
<g><path style="opacity:1" fill="#d6d5c7" d="M 76.5,67.5 C 77.8333,67.8333 79.1667,68.1667 80.5,68.5C 79.8333,69.1667 79.1667,69.8333 78.5,70.5C 77.0937,70.0269 76.427,69.0269 76.5,67.5 Z"/></g>
<g><path style="opacity:1" fill="#cac7b8" d="M 80.5,68.5 C 81.1667,68.5 81.8333,68.5 82.5,68.5C 82.8333,69.1667 83.1667,69.8333 83.5,70.5C 82.2905,70.9321 81.2905,71.5987 80.5,72.5C 79.8333,71.8333 79.1667,71.1667 78.5,70.5C 79.1667,69.8333 79.8333,69.1667 80.5,68.5 Z"/></g>
<g><path style="opacity:1" fill="#a2987d" d="M 83.5,66.5 C 83.5,67.8333 84.1667,68.5 85.5,68.5C 85.5,69.5 85.5,70.5 85.5,71.5C 84.8333,71.1667 84.1667,70.8333 83.5,70.5C 83.1667,69.8333 82.8333,69.1667 82.5,68.5C 82.5,68.1667 82.5,67.8333 82.5,67.5C 82.5,66.8333 82.8333,66.5 83.5,66.5 Z"/></g>
<g><path style="opacity:1" fill="#bbb276" d="M 96.5,64.5 C 96.5,64.1667 96.5,63.8333 96.5,63.5C 97.5,63.5 98.5,63.5 99.5,63.5C 99.5,64.5 99.5,65.5 99.5,66.5C 99.2852,68.1788 99.9519,69.1788 101.5,69.5C 101.5,70.1667 101.5,70.8333 101.5,71.5C 101.167,71.5 100.833,71.5 100.5,71.5C 99.5,70.8333 98.5,70.1667 97.5,69.5C 98.2614,67.7408 97.9281,66.0741 96.5,64.5 Z"/></g>
<g><path style="opacity:1" fill="#9b9963" d="M 100.5,64.5 C 101.167,64.8333 101.833,65.1667 102.5,65.5C 102.5,66.8333 102.5,68.1667 102.5,69.5C 102.167,69.5 101.833,69.5 101.5,69.5C 99.9519,69.1788 99.2852,68.1788 99.5,66.5C 100.338,66.1583 100.672,65.4916 100.5,64.5 Z"/></g>
<g><path style="opacity:1" fill="#bdba80" d="M 104.5,64.5 C 104.833,65.5 105.5,66.1667 106.5,66.5C 105.89,67.391 105.557,68.391 105.5,69.5C 104.5,69.5 103.5,69.5 102.5,69.5C 102.5,68.1667 102.5,66.8333 102.5,65.5C 102.842,64.6618 103.508,64.3284 104.5,64.5 Z"/></g>
<g><path style="opacity:1" fill="#5a5d53" d="M 25.5,68.5 C 26.1667,69.1667 26.8333,69.8333 27.5,70.5C 28.1667,70.5 28.5,70.8333 28.5,71.5C 26.9505,72.4408 25.2838,73.1075 23.5,73.5C 23.8333,72.8333 24.1667,72.1667 24.5,71.5C 24.5569,70.391 24.8902,69.391 25.5,68.5 Z"/></g>
<g><path style="opacity:0.518" fill="#ccc9b9" d="M 31.5,68.5 C 32.1667,68.5 32.8333,68.5 33.5,68.5C 33.5,69.1667 33.5,69.8333 33.5,70.5C 31.8828,71.038 30.2161,71.3713 28.5,71.5C 28.5,70.8333 28.1667,70.5 27.5,70.5C 28.1834,68.8235 29.5168,68.1568 31.5,68.5 Z"/></g>
<g><path style="opacity:0.42" fill="#c9c7b9" d="M 33.5,68.5 C 34.5,69.8333 35.5,69.8333 36.5,68.5C 36.5,69.1667 36.5,69.8333 36.5,70.5C 35.6618,70.8417 35.3284,71.5084 35.5,72.5C 34.8333,71.8333 34.1667,71.1667 33.5,70.5C 33.5,69.8333 33.5,69.1667 33.5,68.5 Z"/></g>
<g><path style="opacity:0.973" fill="#b7bbab" d="M 36.5,66.5 C 37.791,66.2627 38.791,66.596 39.5,67.5C 39.4431,68.609 39.1098,69.609 38.5,70.5C 37.8333,70.5 37.1667,70.5 36.5,70.5C 36.5,69.8333 36.5,69.1667 36.5,68.5C 36.5,67.8333 36.5,67.1667 36.5,66.5 Z"/></g>
<g><path style="opacity:1" fill="#cccec0" d="M 45.5,66.5 C 45.8333,66.5 46.1667,66.5 46.5,66.5C 46.8333,67.5 47.5,68.1667 48.5,68.5C 47.8106,69.7736 46.9772,69.7736 46,68.5C 45.5357,69.0944 45.369,69.7611 45.5,70.5C 44.8333,70.5 44.5,70.1667 44.5,69.5C 44.5569,68.391 44.8902,67.391 45.5,66.5 Z"/></g>
<g><path style="opacity:1" fill="#bebfb0" d="M 48.5,68.5 C 48.8333,68.5 49.1667,68.5 49.5,68.5C 49.5,69.1667 49.5,69.8333 49.5,70.5C 48.2976,71.4054 46.9643,71.4054 45.5,70.5C 45.369,69.7611 45.5357,69.0944 46,68.5C 46.9772,69.7736 47.8106,69.7736 48.5,68.5 Z"/></g>
<g><path style="opacity:1" fill="#f69c19" d="M 90.5,67.5 C 92.2303,68.0256 93.5637,69.0256 94.5,70.5C 94.1667,70.5 93.8333,70.5 93.5,70.5C 91.5,70.5 90.5,69.5 90.5,67.5 Z"/></g>
<g><path style="opacity:1" fill="#d5d29d" d="M 101.5,69.5 C 101.833,69.5 102.167,69.5 102.5,69.5C 103.5,69.5 104.5,69.5 105.5,69.5C 105.167,70.1667 104.833,70.8333 104.5,71.5C 103.5,71.5 102.5,71.5 101.5,71.5C 101.5,70.8333 101.5,70.1667 101.5,69.5 Z"/></g>
<g><path style="opacity:0.816" fill="#95998f" d="M 17.5,67.5 C 17.5,68.1667 17.5,68.8333 17.5,69.5C 16.1667,70.1667 15.1667,71.1667 14.5,72.5C 14.1667,72.5 13.8333,72.5 13.5,72.5C 14.0798,70.2512 15.4131,68.5846 17.5,67.5 Z"/></g>
<g><path style="opacity:1" fill="#bfc0b0" d="M 40.5,66.5 C 41.1667,66.5 41.8333,66.5 42.5,66.5C 42.0651,68.7033 42.0651,70.7033 42.5,72.5C 40.9382,72.2671 39.6049,71.6005 38.5,70.5C 39.1098,69.609 39.4431,68.609 39.5,67.5C 40.1667,67.5 40.5,67.1667 40.5,66.5 Z"/></g>
<g><path style="opacity:1" fill="#cccdbd" d="M 42.5,66.5 C 43.404,67.209 43.7373,68.209 43.5,69.5C 43.5569,70.609 43.8902,71.609 44.5,72.5C 43.8333,72.5 43.1667,72.5 42.5,72.5C 42.0651,70.7033 42.0651,68.7033 42.5,66.5 Z"/></g>
<g><path style="opacity:1" fill="#ccccbf" d="M 50.5,67.5 C 52.5,67.5 53.5,68.5 53.5,70.5C 53.3404,72.153 52.6737,73.4863 51.5,74.5C 51.2671,72.9382 50.6005,71.6049 49.5,70.5C 49.5,69.8333 49.5,69.1667 49.5,68.5C 50.1667,68.5 50.5,68.1667 50.5,67.5 Z"/></g>
<g><path style="opacity:1" fill="#d9dacc" d="M 53.5,70.5 C 53.8333,70.5 54.1667,70.5 54.5,70.5C 54.5,71.8333 54.5,73.1667 54.5,74.5C 53.609,75.1098 52.609,75.4431 51.5,75.5C 51.5,75.1667 51.5,74.8333 51.5,74.5C 52.6737,73.4863 53.3404,72.153 53.5,70.5 Z"/></g>
<g><path style="opacity:1" fill="#cccdbf" d="M 58.5,70.5 C 58.8417,69.6618 59.5084,69.3284 60.5,69.5C 60.8333,70.8333 61.1667,70.8333 61.5,69.5C 62.3382,69.8417 62.6716,70.5084 62.5,71.5C 61.8333,72.1667 61.1667,72.8333 60.5,73.5C 60.573,71.9731 59.9063,70.9731 58.5,70.5 Z"/></g>
<g><path style="opacity:1" fill="#cac8bb" d="M 66.5,69.5 C 66.8333,69.5 67.1667,69.5 67.5,69.5C 68.3652,69.5639 69.3652,69.8973 70.5,70.5C 70.5,71.1667 70.5,71.8333 70.5,72.5C 69.1667,72.1667 67.8333,71.8333 66.5,71.5C 66.5,70.8333 66.5,70.1667 66.5,69.5 Z"/></g>
<g><path style="opacity:1" fill="#d7d4c8" d="M 71.5,68.5 C 72.1667,68.5 72.8333,68.5 73.5,68.5C 73.4142,69.4959 73.7476,70.3292 74.5,71C 72.0688,72.0924 72.0688,73.2591 74.5,74.5C 73.5041,74.4142 72.6708,74.7476 72,75.5C 71.5065,73.8659 71.3398,72.1992 71.5,70.5C 71.5,69.8333 71.5,69.1667 71.5,68.5 Z"/></g>
<g><path style="opacity:1" fill="#ac9f7f" d="M 86.5,66.5 C 86.2155,68.4147 86.5489,70.0813 87.5,71.5C 88.4674,72.8062 89.8007,73.4729 91.5,73.5C 90.4324,74.4345 89.099,74.7678 87.5,74.5C 87.1583,73.6618 86.4916,73.3284 85.5,73.5C 85.5,73.1667 85.5,72.8333 85.5,72.5C 85.5,72.1667 85.5,71.8333 85.5,71.5C 85.5,70.5 85.5,69.5 85.5,68.5C 85.3284,67.5084 85.6618,66.8417 86.5,66.5 Z"/></g>
<g><path style="opacity:1" fill="#e2dcc8" d="M 108.5,68.5 C 108.263,69.791 108.596,70.791 109.5,71.5C 108.432,72.4345 107.099,72.7678 105.5,72.5C 105.5,71.8333 105.167,71.5 104.5,71.5C 104.833,70.8333 105.167,70.1667 105.5,69.5C 106.391,68.8902 107.391,68.5569 108.5,68.5 Z"/></g>
<g><path style="opacity:0.878" fill="#d9d2bf" d="M 112.5,68.5 C 113.167,68.5 113.833,68.5 114.5,68.5C 113.341,70.2503 111.674,71.2503 109.5,71.5C 108.596,70.791 108.263,69.791 108.5,68.5C 109.263,68.9566 110.596,68.9566 112.5,68.5 Z"/></g>
<g><path style="opacity:1" fill="#2e3b30" d="M 19.5,69.5 C 19.8333,69.5 20.1667,69.5 20.5,69.5C 21.287,71.1042 22.6203,71.7709 24.5,71.5C 24.1667,72.1667 23.8333,72.8333 23.5,73.5C 22.391,73.4431 21.391,73.1098 20.5,72.5C 19.609,71.8902 18.609,71.5569 17.5,71.5C 18.1667,70.8333 18.8333,70.1667 19.5,69.5 Z"/></g>
<g><path style="opacity:1" fill="#d1d1c1" d="M 43.5,69.5 C 43.8333,69.5 44.1667,69.5 44.5,69.5C 44.5,70.1667 44.8333,70.5 45.5,70.5C 46.9643,71.4054 48.2976,71.4054 49.5,70.5C 50.6005,71.6049 51.2671,72.9382 51.5,74.5C 51.5,74.8333 51.5,75.1667 51.5,75.5C 50.5,75.5 49.5,75.5 48.5,75.5C 47.791,74.596 46.791,74.2627 45.5,74.5C 45.1667,73.8333 44.8333,73.1667 44.5,72.5C 43.8902,71.609 43.5569,70.609 43.5,69.5 Z"/></g>
<g><path style="opacity:1" fill="#d5d5c8" d="M 54.5,68.5 C 54.8333,68.5 55.1667,68.5 55.5,68.5C 55.5172,70.5648 55.8505,72.5648 56.5,74.5C 56.5,74.8333 56.5,75.1667 56.5,75.5C 55.5084,75.6716 54.8417,75.3382 54.5,74.5C 54.5,73.1667 54.5,71.8333 54.5,70.5C 54.5,69.8333 54.5,69.1667 54.5,68.5 Z"/></g>
<g><path style="opacity:1" fill="#c9c9bb" d="M 55.5,68.5 C 56.5,69.1667 57.5,69.8333 58.5,70.5C 58.3404,72.153 57.6737,73.4863 56.5,74.5C 55.8505,72.5648 55.5172,70.5648 55.5,68.5 Z"/></g>
<g><path style="opacity:1" fill="#d0cec1" d="M 73.5,68.5 C 75.1942,69.5274 76.5275,70.8608 77.5,72.5C 76.7095,73.4013 75.7095,74.0679 74.5,74.5C 72.0688,73.2591 72.0688,72.0924 74.5,71C 73.7476,70.3292 73.4142,69.4959 73.5,68.5 Z"/></g>
<g><path style="opacity:1" fill="#f4ae32" d="M 89.5,67.5 C 89.8333,67.5 90.1667,67.5 90.5,67.5C 90.5,69.5 91.5,70.5 93.5,70.5C 93.5,71.1667 93.5,71.8333 93.5,72.5C 92.1667,72.5 90.8333,72.5 89.5,72.5C 89.5,70.8333 89.5,69.1667 89.5,67.5 Z"/></g>
<g><path style="opacity:1" fill="#d9d9c9" d="M 95.5,70.5 C 95.5,70.1667 95.5,69.8333 95.5,69.5C 96.1667,69.5 96.8333,69.5 97.5,69.5C 98.5,70.1667 99.5,70.8333 100.5,71.5C 101.167,72.1667 101.833,72.8333 102.5,73.5C 101.167,73.8333 99.8333,74.1667 98.5,74.5C 98.6716,73.5084 98.3382,72.8417 97.5,72.5C 97.1667,71.5 96.5,70.8333 95.5,70.5 Z"/></g>
<g><path style="opacity:0.984" fill="#cac0ac" d="M 100.5,71.5 C 100.833,71.5 101.167,71.5 101.5,71.5C 102.5,71.5 103.5,71.5 104.5,71.5C 105.167,71.5 105.5,71.8333 105.5,72.5C 104.609,73.1098 103.609,73.4431 102.5,73.5C 101.833,72.8333 101.167,72.1667 100.5,71.5 Z"/></g>
<g><path style="opacity:1" fill="#4a5b4e" d="M 17.5,69.5 C 18.1667,69.5 18.8333,69.5 19.5,69.5C 18.8333,70.1667 18.1667,70.8333 17.5,71.5C 17.1692,73.3224 16.5025,74.9891 15.5,76.5C 14.8344,75.0878 14.5011,73.7545 14.5,72.5C 15.1667,71.1667 16.1667,70.1667 17.5,69.5 Z"/></g>
<g><path style="opacity:0.998" fill="#5d675c" d="M 20.5,72.5 C 21.391,73.1098 22.391,73.4431 23.5,73.5C 22.7095,74.4013 21.7095,75.0679 20.5,75.5C 20.1667,75.5 19.8333,75.5 19.5,75.5C 19.5569,74.391 19.8902,73.391 20.5,72.5 Z"/></g>
<g><path style="opacity:1" fill="#555e51" d="M 36.5,70.5 C 37.1667,70.5 37.8333,70.5 38.5,70.5C 39.6049,71.6005 40.9382,72.2671 42.5,72.5C 43.1667,72.5 43.8333,72.5 44.5,72.5C 44.8333,73.1667 45.1667,73.8333 45.5,74.5C 43.4884,73.9862 41.4884,73.8195 39.5,74C 40.3805,74.7083 41.0472,75.5416 41.5,76.5C 39.2228,75.5514 37.2228,74.2181 35.5,72.5C 35.3284,71.5084 35.6618,70.8417 36.5,70.5 Z"/></g>
<g><path style="opacity:1" fill="#d9dacd" d="M 62.5,71.5 C 62.8417,72.3382 63.5084,72.6716 64.5,72.5C 65.1098,73.391 65.4431,74.391 65.5,75.5C 64.0357,74.5946 62.7024,74.5946 61.5,75.5C 61.1667,74.8333 60.8333,74.1667 60.5,73.5C 61.1667,72.8333 61.8333,72.1667 62.5,71.5 Z"/></g>
<g><path style="opacity:1" fill="#dedccf" d="M 66.5,71.5 C 67.8333,71.8333 69.1667,72.1667 70.5,72.5C 69.5525,73.9779 68.2191,74.9779 66.5,75.5C 66.1667,75.5 65.8333,75.5 65.5,75.5C 65.4431,74.391 65.1098,73.391 64.5,72.5C 65.1667,72.1667 65.8333,71.8333 66.5,71.5 Z"/></g>
<g><path style="opacity:1" fill="#dedbcd" d="M 77.5,72.5 C 78.391,73.1098 79.391,73.4431 80.5,73.5C 80.8333,73.5 81.1667,73.5 81.5,73.5C 81.5,74.1667 81.1667,74.5 80.5,74.5C 79.603,75.5981 78.7697,75.5981 78,74.5C 77.5357,75.0944 77.369,75.7611 77.5,76.5C 77.1667,76.5 76.8333,76.5 76.5,76.5C 75.8333,75.8333 75.1667,75.1667 74.5,74.5C 75.7095,74.0679 76.7095,73.4013 77.5,72.5 Z"/></g>
<g><path style="opacity:1" fill="#d2cebe" d="M 83.5,70.5 C 84.1667,70.8333 84.8333,71.1667 85.5,71.5C 85.5,71.8333 85.5,72.1667 85.5,72.5C 83.901,72.2322 82.5676,72.5655 81.5,73.5C 81.1667,73.5 80.8333,73.5 80.5,73.5C 80.5,73.1667 80.5,72.8333 80.5,72.5C 81.2905,71.5987 82.2905,70.9321 83.5,70.5 Z"/></g>
<g><path style="opacity:1" fill="#dddbca" d="M 85.5,72.5 C 85.5,72.8333 85.5,73.1667 85.5,73.5C 84.2022,73.2804 82.8688,73.9471 81.5,75.5C 80.8933,75.3764 80.56,75.0431 80.5,74.5C 81.1667,74.5 81.5,74.1667 81.5,73.5C 82.5676,72.5655 83.901,72.2322 85.5,72.5 Z"/></g>
<g><path style="opacity:1" fill="#dec17e" d="M 88.5,66.5 C 88.8333,66.5 89.1667,66.5 89.5,66.5C 89.5,66.8333 89.5,67.1667 89.5,67.5C 89.5,69.1667 89.5,70.8333 89.5,72.5C 90.8333,72.5 92.1667,72.5 93.5,72.5C 93.5,72.8333 93.5,73.1667 93.5,73.5C 92.8333,73.5 92.1667,73.5 91.5,73.5C 89.8007,73.4729 88.4674,72.8062 87.5,71.5C 87.2155,69.5853 87.5489,67.9187 88.5,66.5 Z"/></g>
<g><path style="opacity:1" fill="#e0dfce" d="M 93.5,70.5 C 93.8333,70.5 94.1667,70.5 94.5,70.5C 94.8333,70.5 95.1667,70.5 95.5,70.5C 96.5,70.8333 97.1667,71.5 97.5,72.5C 96.4082,72.3382 95.0749,72.6716 93.5,73.5C 93.5,73.1667 93.5,72.8333 93.5,72.5C 93.5,71.8333 93.5,71.1667 93.5,70.5 Z"/></g>
<g><path style="opacity:1" fill="#dbdbce" d="M 58.5,70.5 C 59.9063,70.9731 60.573,71.9731 60.5,73.5C 59.5,73.8333 58.8333,74.5 58.5,75.5C 57.8333,75.5 57.1667,75.5 56.5,75.5C 56.5,75.1667 56.5,74.8333 56.5,74.5C 57.6737,73.4863 58.3404,72.153 58.5,70.5 Z"/></g>
<g><path style="opacity:0.839" fill="#cccdbe" d="M 97.5,72.5 C 98.3382,72.8417 98.6716,73.5084 98.5,74.5C 96.8333,75.1667 95.1667,75.8333 93.5,76.5C 93.5,75.5 93.5,74.5 93.5,73.5C 95.0749,72.6716 96.4082,72.3382 97.5,72.5 Z"/></g>
<g><path style="opacity:1" fill="#415347" d="M 17.5,71.5 C 18.609,71.5569 19.609,71.8902 20.5,72.5C 19.8902,73.391 19.5569,74.391 19.5,75.5C 18.1667,75.8333 16.8333,76.1667 15.5,76.5C 16.5025,74.9891 17.1692,73.3224 17.5,71.5 Z"/></g>
<g><path style="opacity:1" fill="#d7d3c1" d="M 70.5,70.5 C 70.8333,70.5 71.1667,70.5 71.5,70.5C 71.3398,72.1992 71.5065,73.8659 72,75.5C 72.6708,74.7476 73.5041,74.4142 74.5,74.5C 75.1667,75.1667 75.8333,75.8333 76.5,76.5C 75.5,76.5 74.5,76.5 73.5,76.5C 72.609,77.1098 71.609,77.4431 70.5,77.5C 70.0269,76.0937 69.0269,75.427 67.5,75.5C 67.1667,75.5 66.8333,75.5 66.5,75.5C 68.2191,74.9779 69.5525,73.9779 70.5,72.5C 70.5,71.8333 70.5,71.1667 70.5,70.5 Z"/></g>
<g><path style="opacity:1" fill="#c1c5b3" d="M 91.5,73.5 C 92.1667,73.5 92.8333,73.5 93.5,73.5C 93.5,74.5 93.5,75.5 93.5,76.5C 89.8648,77.1143 86.1981,77.4476 82.5,77.5C 83.6564,76.74 85.3231,75.74 87.5,74.5C 89.099,74.7678 90.4324,74.4345 91.5,73.5 Z"/></g>
<g><path style="opacity:1" fill="#627568" d="M 13.5,72.5 C 13.8333,72.5 14.1667,72.5 14.5,72.5C 14.5011,73.7545 14.8344,75.0878 15.5,76.5C 15.5,76.8333 15.5,77.1667 15.5,77.5C 14.5,77.5 13.5,77.5 12.5,77.5C 12.6287,75.7839 12.962,74.1172 13.5,72.5 Z"/></g>
<g><path style="opacity:0.337" fill="#b2bdb0" d="M 19.5,75.5 C 19.8333,75.5 20.1667,75.5 20.5,75.5C 19.0351,76.7368 17.3684,77.7368 15.5,78.5C 15.5,78.1667 15.5,77.8333 15.5,77.5C 15.5,77.1667 15.5,76.8333 15.5,76.5C 16.8333,76.1667 18.1667,75.8333 19.5,75.5 Z"/></g>
<g><path style="opacity:1" fill="#32392e" d="M 45.5,74.5 C 45.5,74.8333 45.5,75.1667 45.5,75.5C 44.5084,75.3284 43.8417,75.6618 43.5,76.5C 42.8333,76.5 42.1667,76.5 41.5,76.5C 41.0472,75.5416 40.3805,74.7083 39.5,74C 41.4884,73.8195 43.4884,73.9862 45.5,74.5 Z"/></g>
<g><path style="opacity:1" fill="#394b3e" d="M 45.5,74.5 C 46.791,74.2627 47.791,74.596 48.5,75.5C 49.1667,76.1667 49.8333,76.8333 50.5,77.5C 48.4471,77.5979 46.7804,76.9313 45.5,75.5C 45.5,75.1667 45.5,74.8333 45.5,74.5 Z"/></g>
<g><path style="opacity:1" fill="#b6baad" d="M 54.5,74.5 C 54.8417,75.3382 55.5084,75.6716 56.5,75.5C 57.1667,75.5 57.8333,75.5 58.5,75.5C 59.3382,75.8417 59.6716,76.5084 59.5,77.5C 57.0532,77.615 55.0532,78.615 53.5,80.5C 53.5106,78.9826 54.1772,77.8159 55.5,77C 53.9419,76.79 52.6085,76.29 51.5,75.5C 52.609,75.4431 53.609,75.1098 54.5,74.5 Z"/></g>
<g><path style="opacity:1" fill="#b9b8a5" d="M 65.5,75.5 C 65.8333,75.5 66.1667,75.5 66.5,75.5C 66.8333,75.5 67.1667,75.5 67.5,75.5C 67.5,75.8333 67.5,76.1667 67.5,76.5C 66.5084,76.3284 65.8417,76.6618 65.5,77.5C 64.0048,77.0113 62.6715,76.3446 61.5,75.5C 62.7024,74.5946 64.0357,74.5946 65.5,75.5 Z"/></g>
<g><path style="opacity:1" fill="#cdcfbd" d="M 85.5,73.5 C 86.4916,73.3284 87.1583,73.6618 87.5,74.5C 85.3231,75.74 83.6564,76.74 82.5,77.5C 82.1583,78.3382 81.4916,78.6716 80.5,78.5C 80.1788,76.9519 79.1788,76.2852 77.5,76.5C 77.369,75.7611 77.5357,75.0944 78,74.5C 78.7697,75.5981 79.603,75.5981 80.5,74.5C 80.56,75.0431 80.8933,75.3764 81.5,75.5C 82.8688,73.9471 84.2022,73.2804 85.5,73.5 Z"/></g>
<g><path style="opacity:0.957" fill="#7a7a75" d="M 41.5,76.5 C 42.1667,76.5 42.8333,76.5 43.5,76.5C 43.8333,77.5 44.5,78.1667 45.5,78.5C 45.5,79.1667 45.5,79.8333 45.5,80.5C 43.8333,79.5 42.5,78.1667 41.5,76.5 Z"/></g>
<g><path style="opacity:1" fill="#2d2f28" d="M 45.5,75.5 C 46.7804,76.9313 48.4471,77.5979 50.5,77.5C 51.1667,78.5 51.8333,79.5 52.5,80.5C 52.5,81.1667 52.1667,81.5 51.5,81.5C 50.8333,81.5 50.1667,81.5 49.5,81.5C 50.6736,79.6322 50.0069,78.6322 47.5,78.5C 46.8333,78.5 46.1667,78.5 45.5,78.5C 44.5,78.1667 43.8333,77.5 43.5,76.5C 43.8417,75.6618 44.5084,75.3284 45.5,75.5 Z"/></g>
<g><path style="opacity:0.488" fill="#cdcdbc" d="M 60.5,73.5 C 60.8333,74.1667 61.1667,74.8333 61.5,75.5C 62.6715,76.3446 64.0048,77.0113 65.5,77.5C 65.5,78.1667 65.5,78.8333 65.5,79.5C 64.8333,79.1667 64.1667,78.8333 63.5,78.5C 62.4324,77.5655 61.099,77.2322 59.5,77.5C 59.6716,76.5084 59.3382,75.8417 58.5,75.5C 58.8333,74.5 59.5,73.8333 60.5,73.5 Z"/></g>
<g><path style="opacity:1" fill="#bcbcaa" d="M 73.5,77.5 C 73.5,77.1667 73.5,76.8333 73.5,76.5C 74.5,76.5 75.5,76.5 76.5,76.5C 76.8333,76.5 77.1667,76.5 77.5,76.5C 79.1788,76.2852 80.1788,76.9519 80.5,78.5C 78.5,78.5 76.5,78.5 74.5,78.5C 74.5,77.8333 74.1667,77.5 73.5,77.5 Z"/></g>
<g><path style="opacity:0.137" fill="#a7b4a8" d="M 13.5,72.5 C 12.962,74.1172 12.6287,75.7839 12.5,77.5C 13.5,77.5 14.5,77.5 15.5,77.5C 15.5,77.8333 15.5,78.1667 15.5,78.5C 14.1667,78.5 12.8333,78.5 11.5,78.5C 11.0535,75.9899 11.7202,73.9899 13.5,72.5 Z"/></g>
<g><path style="opacity:1" fill="#496152" d="M 48.5,75.5 C 49.5,75.5 50.5,75.5 51.5,75.5C 52.6085,76.29 53.9419,76.79 55.5,77C 54.1772,77.8159 53.5106,78.9826 53.5,80.5C 53.1667,80.5 52.8333,80.5 52.5,80.5C 51.8333,79.5 51.1667,78.5 50.5,77.5C 49.8333,76.8333 49.1667,76.1667 48.5,75.5 Z"/></g>
<g><path style="opacity:1" fill="#d1a857" d="M 67.5,75.5 C 69.0269,75.427 70.0269,76.0937 70.5,77.5C 69.6618,77.8417 69.3284,78.5084 69.5,79.5C 68.8333,79.1667 68.1667,78.8333 67.5,78.5C 67.5,77.8333 67.5,77.1667 67.5,76.5C 67.5,76.1667 67.5,75.8333 67.5,75.5 Z"/></g>
<g><path style="opacity:1" fill="#dfa73e" d="M 73.5,76.5 C 73.5,76.8333 73.5,77.1667 73.5,77.5C 73.5,78.8333 73.5,80.1667 73.5,81.5C 72.5,81.5 71.5,81.5 70.5,81.5C 70.1667,80.8333 69.8333,80.1667 69.5,79.5C 69.3284,78.5084 69.6618,77.8417 70.5,77.5C 71.609,77.4431 72.609,77.1098 73.5,76.5 Z"/></g>
<g><path style="opacity:1" fill="#4c4d46" d="M 45.5,78.5 C 46.1667,78.5 46.8333,78.5 47.5,78.5C 47.6264,80.6216 48.2931,81.6216 49.5,81.5C 50.1667,81.5 50.8333,81.5 51.5,81.5C 51.5,82.1667 51.5,82.8333 51.5,83.5C 50.1667,86.1667 48.8333,86.1667 47.5,83.5C 47.573,81.9731 46.9063,80.9731 45.5,80.5C 45.5,79.8333 45.5,79.1667 45.5,78.5 Z"/></g>
<g><path style="opacity:1" fill="#262720" d="M 47.5,78.5 C 50.0069,78.6322 50.6736,79.6322 49.5,81.5C 48.2931,81.6216 47.6264,80.6216 47.5,78.5 Z"/></g>
<g><path style="opacity:1" fill="#cbc8a1" d="M 67.5,76.5 C 67.5,77.1667 67.5,77.8333 67.5,78.5C 67.5,79.1667 67.5,79.8333 67.5,80.5C 67.1667,80.5 66.8333,80.5 66.5,80.5C 65.8333,80.5 65.5,80.1667 65.5,79.5C 65.5,78.8333 65.5,78.1667 65.5,77.5C 65.8417,76.6618 66.5084,76.3284 67.5,76.5 Z"/></g>
<g><path style="opacity:0.641" fill="#d5d5c8" d="M 63.5,78.5 C 64.1667,78.8333 64.8333,79.1667 65.5,79.5C 65.5,80.1667 65.8333,80.5 66.5,80.5C 66.366,82.2915 66.6993,83.9582 67.5,85.5C 64.9173,84.015 63.584,81.6817 63.5,78.5 Z"/></g>
<g><path style="opacity:0.008" fill="#b1b5ad" d="M 52.5,80.5 C 52.8333,80.5 53.1667,80.5 53.5,80.5C 53.573,82.0269 52.9063,83.0269 51.5,83.5C 51.5,82.8333 51.5,82.1667 51.5,81.5C 52.1667,81.5 52.5,81.1667 52.5,80.5 Z"/></g>
<g><path style="opacity:0.055" fill="#b2b2ab" d="M 45.5,80.5 C 46.9063,80.9731 47.573,81.9731 47.5,83.5C 46.0937,83.0269 45.427,82.0269 45.5,80.5 Z"/></g>
<g><path style="opacity:1" fill="#cdc693" d="M 67.5,78.5 C 68.1667,78.8333 68.8333,79.1667 69.5,79.5C 69.8333,80.1667 70.1667,80.8333 70.5,81.5C 70.5,82.1667 70.5,82.8333 70.5,83.5C 69.8333,83.1667 69.1667,82.8333 68.5,82.5C 67.6618,82.1583 67.3284,81.4916 67.5,80.5C 67.5,79.8333 67.5,79.1667 67.5,78.5 Z"/></g>
<g><path style="opacity:1" fill="#ddcc90" d="M 73.5,77.5 C 74.1667,77.5 74.5,77.8333 74.5,78.5C 74.5,79.8333 74.5,81.1667 74.5,82.5C 73.2921,83.2341 71.9587,83.5674 70.5,83.5C 70.5,82.8333 70.5,82.1667 70.5,81.5C 71.5,81.5 72.5,81.5 73.5,81.5C 73.5,80.1667 73.5,78.8333 73.5,77.5 Z"/></g>
<g><path style="opacity:0.99" fill="#c9c9b4" d="M 66.5,80.5 C 66.8333,80.5 67.1667,80.5 67.5,80.5C 67.3284,81.4916 67.6618,82.1583 68.5,82.5C 68.8333,83.8333 69.1667,85.1667 69.5,86.5C 68.5084,86.6716 67.8417,86.3382 67.5,85.5C 66.6993,83.9582 66.366,82.2915 66.5,80.5 Z"/></g>
<g><path style="opacity:1" fill="#ccc6a3" d="M 74.5,82.5 C 74.4431,83.609 74.1098,84.609 73.5,85.5C 71.8212,85.7148 70.8212,85.0481 70.5,83.5C 71.9587,83.5674 73.2921,83.2341 74.5,82.5 Z"/></g>
<g><path style="opacity:0.965" fill="#c6c3ab" d="M 68.5,82.5 C 69.1667,82.8333 69.8333,83.1667 70.5,83.5C 70.8212,85.0481 71.8212,85.7148 73.5,85.5C 73.38,86.5862 72.7133,87.2528 71.5,87.5C 70.5836,87.4573 69.9169,87.1239 69.5,86.5C 69.1667,85.1667 68.8333,83.8333 68.5,82.5 Z"/></g>
</svg>
