<?xml version="1.0" encoding="UTF-8"?>
<!DOCTYPE svg PUBLIC "-//W3C//DTD SVG 1.1//EN" "http://www.w3.org/Graphics/SVG/1.1/DTD/svg11.dtd">
<svg xmlns="http://www.w3.org/2000/svg" version="1.1" width="128px" height="128px" style="shape-rendering:geometricPrecision; text-rendering:geometricPrecision; image-rendering:optimizeQuality; fill-rule:evenodd; clip-rule:evenodd" xmlns:xlink="http://www.w3.org/1999/xlink">
<g><path style="opacity:1" fill="#070707" d="M 64.5,39.5 C 66.0174,39.5106 67.1841,40.1772 68,41.5C 69.8681,44.6051 71.0348,47.9385 71.5,51.5C 86.4496,52.315 100.45,56.4816 113.5,64C 115.565,68.2905 114.232,70.9572 109.5,72C 98.1278,75.7745 86.4612,77.9412 74.5,78.5C 74.4921,81.5448 74.1587,84.5448 73.5,87.5C 66.8333,87.5 63.5,84.1667 63.5,77.5C 61.1432,77.3367 58.8098,77.5034 56.5,78C 54.5055,80.8274 52.1722,83.3274 49.5,85.5C 44.7788,79.6107 39.2788,74.6107 33,70.5C 27.063,72.052 21.563,74.552 16.5,78C 14.8659,78.4935 13.1992,78.6602 11.5,78.5C 11.3398,76.8008 11.5065,75.1341 12,73.5C 13.8478,70.9893 15.6811,68.4893 17.5,66C 14.59,62.3446 13.2567,58.178 13.5,53.5C 19.08,55.2326 24.08,58.0659 28.5,62C 39.0374,60.4484 49.3707,57.7817 59.5,54C 57.6751,52.5341 57.1751,50.7008 58,48.5C 60.3852,45.6215 62.5518,42.6215 64.5,39.5 Z"/></g>
</svg>
