<?xml version="1.0" encoding="UTF-8"?>
<!DOCTYPE svg PUBLIC "-//W3C//DTD SVG 1.1//EN" "http://www.w3.org/Graphics/SVG/1.1/DTD/svg11.dtd">
<svg xmlns="http://www.w3.org/2000/svg" version="1.1" width="128px" height="128px" style="shape-rendering:geometricPrecision; text-rendering:geometricPrecision; image-rendering:optimizeQuality; fill-rule:evenodd; clip-rule:evenodd" xmlns:xlink="http://www.w3.org/1999/xlink">
<g><path style="opacity:1" fill="#080807" d="M 59.5,35.5 C 59.8417,36.3382 60.5084,36.6716 61.5,36.5C 65.3366,39.2522 69.3366,41.7522 73.5,44C 81.3573,44.0262 89.0239,45.1929 96.5,47.5C 103.662,52.5818 110.995,57.4152 118.5,62C 120.774,63.7651 122.441,65.9318 123.5,68.5C 123.124,70.3829 122.124,71.8829 120.5,73C 117.065,74.1332 113.899,75.6332 111,77.5C 110.439,76.9781 109.772,76.6448 109,76.5C 103.153,77.8849 97.8198,80.2182 93,83.5C 91.6015,82.9491 90.2682,82.6158 89,82.5C 85.3215,83.8851 81.4882,84.7184 77.5,85C 75.2974,88.1688 72.1307,91.0021 68,93.5C 67.9025,92.3595 67.0692,91.1929 65.5,90C 66.2335,88.2341 66.5668,86.4008 66.5,84.5C 64.8561,84.7135 63.3561,84.3802 62,83.5C 56.6826,87.2204 50.8493,89.887 44.5,91.5C 44.5602,88.4393 44.0602,85.4393 43,82.5C 39.8292,78.8294 36.3292,75.496 32.5,72.5C 23.9246,77.0246 14.9246,80.3579 5.5,82.5C 4.5,82.1667 3.83333,81.5 3.5,80.5C 4.30614,77.5544 5.63947,74.8877 7.5,72.5C 10.3437,70.1553 13.0103,67.6553 15.5,65C 10.9787,62.1434 7.47873,58.3101 5,53.5C 4.27969,51.8876 4.44636,50.3876 5.5,49C 14.6527,49.7958 22.3194,52.7958 28.5,58C 38.1422,59.0068 47.1422,57.0068 55.5,52C 53.8333,50.8333 52.1667,49.6667 50.5,48.5C 53.9872,43.8766 54.3205,39.0433 51.5,34C 54.3327,33.5538 56.9994,34.0538 59.5,35.5 Z"/></g>
<g><path style="opacity:0.008" fill="#ece5de" d="M 61.5,36.5 C 60.5084,36.6716 59.8417,36.3382 59.5,35.5C 60.9245,33.9689 61.5912,34.3023 61.5,36.5 Z"/></g>
</svg>
