<?xml version="1.0" encoding="UTF-8"?>
<!DOCTYPE svg PUBLIC "-//W3C//DTD SVG 1.1//EN" "http://www.w3.org/Graphics/SVG/1.1/DTD/svg11.dtd">
<svg xmlns="http://www.w3.org/2000/svg" version="1.1" width="128px" height="128px" style="shape-rendering:geometricPrecision; text-rendering:geometricPrecision; image-rendering:optimizeQuality; fill-rule:evenodd; clip-rule:evenodd" xmlns:xlink="http://www.w3.org/1999/xlink">
<g><path style="opacity:0.69" fill="#ccc8be" d="M 55.5,34.5 C 55.1667,34.5 54.8333,34.5 54.5,34.5C 53.6618,34.8417 53.3284,35.5084 53.5,36.5C 53.5,37.5 53.5,38.5 53.5,39.5C 52.776,37.7816 52.1094,35.9483 51.5,34C 53.0657,33.235 54.3991,33.4017 55.5,34.5 Z"/></g>
<g><path style="opacity:0.741" fill="#b7b0a1" d="M 54.5,34.5 C 54.8333,34.5 55.1667,34.5 55.5,34.5C 57.46,35.1383 59.2933,35.1383 61,34.5C 61.4643,35.0944 61.631,35.7611 61.5,36.5C 58.8478,36.5905 56.5145,35.9238 54.5,34.5 Z"/></g>
<g><path style="opacity:1" fill="#766e62" d="M 54.5,34.5 C 56.5145,35.9238 58.8478,36.5905 61.5,36.5C 62.5,36.8333 63.1667,37.5 63.5,38.5C 62.5041,38.5858 61.6708,38.2524 61,37.5C 60.2917,38.3805 59.4584,39.0472 58.5,39.5C 57.7377,37.7376 56.4044,36.7376 54.5,36.5C 54.1667,36.5 53.8333,36.5 53.5,36.5C 53.3284,35.5084 53.6618,34.8417 54.5,34.5 Z"/></g>
<g><path style="opacity:1" fill="#6a6254" d="M 54.5,36.5 C 56.4044,36.7376 57.7377,37.7376 58.5,39.5C 58.5,39.8333 58.5,40.1667 58.5,40.5C 58.0623,41.5063 57.3957,41.5063 56.5,40.5C 55.8333,39.1667 55.1667,37.8333 54.5,36.5 Z"/></g>
<g><path style="opacity:1" fill="#615546" d="M 63.5,38.5 C 62.5946,39.7024 62.5946,41.0357 63.5,42.5C 62.8333,42.1667 62.1667,41.8333 61.5,41.5C 60.609,40.8902 59.609,40.5569 58.5,40.5C 58.5,40.1667 58.5,39.8333 58.5,39.5C 59.4584,39.0472 60.2917,38.3805 61,37.5C 61.6708,38.2524 62.5041,38.5858 63.5,38.5 Z"/></g>
<g><path style="opacity:1" fill="#918b80" d="M 53.5,36.5 C 53.8333,36.5 54.1667,36.5 54.5,36.5C 55.1667,37.8333 55.8333,39.1667 56.5,40.5C 55.8333,40.5 55.5,40.8333 55.5,41.5C 54.8333,42.5 54.1667,43.5 53.5,44.5C 53.5,43.8333 53.5,43.1667 53.5,42.5C 53.5,41.5 53.5,40.5 53.5,39.5C 53.5,38.5 53.5,37.5 53.5,36.5 Z"/></g>
<g><path style="opacity:1" fill="#82807a" d="M 55.5,41.5 C 55.5,40.8333 55.8333,40.5 56.5,40.5C 57.3957,41.5063 58.0623,41.5063 58.5,40.5C 59.609,40.5569 60.609,40.8902 61.5,41.5C 60.8333,42.5 60.1667,43.5 59.5,44.5C 58.8333,44.5 58.1667,44.5 57.5,44.5C 55.7091,43.7721 55.0424,42.7721 55.5,41.5 Z"/></g>
<g><path style="opacity:1" fill="#60594f" d="M 61.5,41.5 C 62.1667,41.8333 62.8333,42.1667 63.5,42.5C 63.0472,43.4584 62.3805,44.2917 61.5,45C 61.7284,45.3988 62.0618,45.5654 62.5,45.5C 62.5,45.8333 62.5,46.1667 62.5,46.5C 61.8333,46.5 61.1667,46.5 60.5,46.5C 60.1667,45.8333 59.8333,45.1667 59.5,44.5C 60.1667,43.5 60.8333,42.5 61.5,41.5 Z"/></g>
<g><path style="opacity:1" fill="#7c7266" d="M 63.5,38.5 C 65.9687,39.5686 68.3021,40.9019 70.5,42.5C 70.5,43.1667 70.5,43.8333 70.5,44.5C 70.5654,44.9382 70.3988,45.2716 70,45.5C 68.5847,43.6812 67.0847,43.0146 65.5,43.5C 64.8333,43.1667 64.1667,42.8333 63.5,42.5C 62.5946,41.0357 62.5946,39.7024 63.5,38.5 Z"/></g>
<g><path style="opacity:1" fill="#554b3f" d="M 63.5,42.5 C 64.1667,42.8333 64.8333,43.1667 65.5,43.5C 66.5511,44.2223 67.2178,45.2223 67.5,46.5C 65.9582,45.6993 64.2915,45.366 62.5,45.5C 62.0618,45.5654 61.7284,45.3988 61.5,45C 62.3805,44.2917 63.0472,43.4584 63.5,42.5 Z"/></g>
<g><path style="opacity:1" fill="#5d5043" d="M 70.5,44.5 C 71.1667,44.5 71.5,44.8333 71.5,45.5C 71.5,45.8333 71.5,46.1667 71.5,46.5C 70.0413,46.4326 68.7079,46.7659 67.5,47.5C 67.5,47.1667 67.5,46.8333 67.5,46.5C 67.2178,45.2223 66.5511,44.2223 65.5,43.5C 67.0847,43.0146 68.5847,43.6812 70,45.5C 70.3988,45.2716 70.5654,44.9382 70.5,44.5 Z"/></g>
<g><path style="opacity:1" fill="#776f63" d="M 55.5,41.5 C 55.0424,42.7721 55.7091,43.7721 57.5,44.5C 59.129,46.1959 58.7957,47.1959 56.5,47.5C 56.0269,46.0937 55.0269,45.427 53.5,45.5C 53.5,45.1667 53.5,44.8333 53.5,44.5C 54.1667,43.5 54.8333,42.5 55.5,41.5 Z"/></g>
<g><path style="opacity:1" fill="#51483e" d="M 57.5,44.5 C 58.1667,44.5 58.8333,44.5 59.5,44.5C 59.8333,45.1667 60.1667,45.8333 60.5,46.5C 59.4937,46.9377 59.4937,47.6043 60.5,48.5C 59.2921,49.2341 57.9587,49.5674 56.5,49.5C 56.5,48.8333 56.5,48.1667 56.5,47.5C 58.7957,47.1959 59.129,46.1959 57.5,44.5 Z"/></g>
<g><path style="opacity:0.965" fill="#9c968d" d="M 70.5,42.5 C 72.1667,43.1667 73.8333,43.8333 75.5,44.5C 75.5,44.8333 75.5,45.1667 75.5,45.5C 74.1667,45.5 72.8333,45.5 71.5,45.5C 71.5,44.8333 71.1667,44.5 70.5,44.5C 70.5,43.8333 70.5,43.1667 70.5,42.5 Z"/></g>
<g><path style="opacity:0.439" fill="#89857f" d="M 75.5,45.5 C 75.5,45.1667 75.5,44.8333 75.5,44.5C 80.2142,44.3531 84.8809,44.6864 89.5,45.5C 89.5,45.8333 89.5,46.1667 89.5,46.5C 87.8333,46.5 86.1667,46.5 84.5,46.5C 81.7131,45.5233 78.7131,45.19 75.5,45.5 Z"/></g>
<g><path style="opacity:1" fill="#4f4235" d="M 62.5,46.5 C 62.5,46.1667 62.5,45.8333 62.5,45.5C 64.2915,45.366 65.9582,45.6993 67.5,46.5C 67.5,46.8333 67.5,47.1667 67.5,47.5C 65.8333,48.1667 64.1667,48.8333 62.5,49.5C 62.9528,48.5416 63.6195,47.7083 64.5,47C 63.9056,46.5357 63.2389,46.369 62.5,46.5 Z"/></g>
<g><path style="opacity:1" fill="#625646" d="M 53.5,45.5 C 55.0269,45.427 56.0269,46.0937 56.5,47.5C 56.5,48.1667 56.5,48.8333 56.5,49.5C 56.5,49.8333 56.5,50.1667 56.5,50.5C 55.8999,49.0998 54.8999,48.0998 53.5,47.5C 53.5,46.8333 53.5,46.1667 53.5,45.5 Z"/></g>
<g><path style="opacity:1" fill="#46392c" d="M 71.5,46.5 C 71.5,47.1667 71.5,47.8333 71.5,48.5C 70.209,48.2627 69.209,48.596 68.5,49.5C 67.8333,49.5 67.1667,49.5 66.5,49.5C 66.8333,48.8333 67.1667,48.1667 67.5,47.5C 68.7079,46.7659 70.0413,46.4326 71.5,46.5 Z"/></g>
<g><path style="opacity:1" fill="#504131" d="M 71.5,45.5 C 72.8333,45.5 74.1667,45.5 75.5,45.5C 78.7131,45.19 81.7131,45.5233 84.5,46.5C 84.5,46.8333 84.5,47.1667 84.5,47.5C 79.8737,46.5129 75.5404,46.8462 71.5,48.5C 71.5,47.8333 71.5,47.1667 71.5,46.5C 71.5,46.1667 71.5,45.8333 71.5,45.5 Z"/></g>
<g><path style="opacity:1" fill="#5c4832" d="M 84.5,46.5 C 86.1667,46.5 87.8333,46.5 89.5,46.5C 91.7014,47.5664 94.0347,48.233 96.5,48.5C 97.1098,49.391 97.4431,50.391 97.5,51.5C 95.8333,50.8333 94.1667,50.1667 92.5,49.5C 90.8632,48.6204 89.0299,47.9537 87,47.5C 86.2352,47.5699 85.7352,47.9033 85.5,48.5C 85.1667,48.5 84.8333,48.5 84.5,48.5C 84.5,48.1667 84.5,47.8333 84.5,47.5C 84.5,47.1667 84.5,46.8333 84.5,46.5 Z"/></g>
<g><path style="opacity:0.792" fill="#a6a09a" d="M 89.5,46.5 C 89.5,46.1667 89.5,45.8333 89.5,45.5C 92.3852,45.643 94.7185,46.643 96.5,48.5C 94.0347,48.233 91.7014,47.5664 89.5,46.5 Z"/></g>
<g><path style="opacity:1" fill="#8c8272" d="M 53.5,47.5 C 54.8999,48.0998 55.8999,49.0998 56.5,50.5C 57.404,51.209 57.7373,52.209 57.5,53.5C 56.1667,53.5 54.8333,53.5 53.5,53.5C 55.7369,51.589 55.0703,50.2556 51.5,49.5C 51.8333,48.5 52.5,47.8333 53.5,47.5 Z"/></g>
<g><path style="opacity:1" fill="#554a3e" d="M 60.5,46.5 C 61.1667,46.5 61.8333,46.5 62.5,46.5C 63.2389,46.369 63.9056,46.5357 64.5,47C 63.6195,47.7083 62.9528,48.5416 62.5,49.5C 61.8333,49.8333 61.1667,50.1667 60.5,50.5C 60.5,49.8333 60.5,49.1667 60.5,48.5C 59.4937,47.6043 59.4937,46.9377 60.5,46.5 Z"/></g>
<g><path style="opacity:1" fill="#63513c" d="M 84.5,47.5 C 84.5,47.8333 84.5,48.1667 84.5,48.5C 83.1667,48.5 81.8333,48.5 80.5,48.5C 78.8333,48.5 77.1667,48.5 75.5,48.5C 73.2362,49.2186 70.9029,49.552 68.5,49.5C 69.209,48.596 70.209,48.2627 71.5,48.5C 75.5404,46.8462 79.8737,46.5129 84.5,47.5 Z"/></g>
<g><path style="opacity:0.251" fill="#c2bdb2" d="M 53.5,42.5 C 53.5,43.1667 53.5,43.8333 53.5,44.5C 53.5,44.8333 53.5,45.1667 53.5,45.5C 53.5,46.1667 53.5,46.8333 53.5,47.5C 52.5,47.8333 51.8333,48.5 51.5,49.5C 50.9569,49.44 50.6236,49.1067 50.5,48.5C 51.8007,46.556 52.8007,44.556 53.5,42.5 Z"/></g>
<g><path style="opacity:1" fill="#89764e" d="M 75.5,48.5 C 77.1667,48.5 78.8333,48.5 80.5,48.5C 80.5,49.1667 80.5,49.8333 80.5,50.5C 79.5,50.5 78.5,50.5 77.5,50.5C 76.5084,50.6716 75.8417,50.3382 75.5,49.5C 75.5,49.1667 75.5,48.8333 75.5,48.5 Z"/></g>
<g><path style="opacity:1" fill="#816c48" d="M 80.5,48.5 C 81.8333,48.5 83.1667,48.5 84.5,48.5C 84.8333,48.5 85.1667,48.5 85.5,48.5C 86.4916,48.3284 87.1583,48.6618 87.5,49.5C 86.8333,49.5 86.1667,49.5 85.5,49.5C 85.1667,49.5 84.8333,49.5 84.5,49.5C 83.209,49.2627 82.209,49.596 81.5,50.5C 81.1667,50.5 80.8333,50.5 80.5,50.5C 80.5,49.8333 80.5,49.1667 80.5,48.5 Z"/></g>
<g><path style="opacity:1" fill="#6c573e" d="M 85.5,48.5 C 85.7352,47.9033 86.2352,47.5699 87,47.5C 89.0299,47.9537 90.8632,48.6204 92.5,49.5C 90.8333,49.5 89.1667,49.5 87.5,49.5C 87.1583,48.6618 86.4916,48.3284 85.5,48.5 Z"/></g>
<g><path style="opacity:0.467" fill="#bdb49e" d="M 12.5,50.5 C 12.1667,50.5 11.8333,50.5 11.5,50.5C 9.58533,50.2155 7.91866,50.5489 6.5,51.5C 5.66175,51.1583 5.32842,50.4916 5.5,49.5C 5.55999,48.9569 5.89333,48.6236 6.5,48.5C 8.65676,49.0505 10.6568,49.7171 12.5,50.5 Z"/></g>
<g><path style="opacity:1" fill="#5a4f43" d="M 60.5,48.5 C 60.5,49.1667 60.5,49.8333 60.5,50.5C 57.8136,51.9881 58.1469,52.6547 61.5,52.5C 61.5,52.8333 61.5,53.1667 61.5,53.5C 60.1667,53.5 58.8333,53.5 57.5,53.5C 57.7373,52.209 57.404,51.209 56.5,50.5C 56.5,50.1667 56.5,49.8333 56.5,49.5C 57.9587,49.5674 59.2921,49.2341 60.5,48.5 Z"/></g>
<g><path style="opacity:1" fill="#46392d" d="M 67.5,47.5 C 67.1667,48.1667 66.8333,48.8333 66.5,49.5C 65.5,49.8333 64.8333,50.5 64.5,51.5C 63.391,51.5569 62.391,51.8902 61.5,52.5C 58.1469,52.6547 57.8136,51.9881 60.5,50.5C 61.1667,50.1667 61.8333,49.8333 62.5,49.5C 64.1667,48.8333 65.8333,48.1667 67.5,47.5 Z"/></g>
<g><path style="opacity:1" fill="#9a8043" d="M 75.5,49.5 C 75.8417,50.3382 76.5084,50.6716 77.5,50.5C 77.5,50.8333 77.5,51.1667 77.5,51.5C 77.2792,54.0972 76.7792,54.0972 76,51.5C 75.7216,52.4158 75.2216,53.0825 74.5,53.5C 74.2792,50.9028 73.7792,50.9028 73,53.5C 72.6174,52.944 72.1174,52.6107 71.5,52.5C 71.5,51.8333 71.5,51.1667 71.5,50.5C 72.9587,50.5674 74.2921,50.2341 75.5,49.5 Z"/></g>
<g><path style="opacity:1" fill="#987f4b" d="M 81.5,50.5 C 82.209,49.596 83.209,49.2627 84.5,49.5C 84.8333,50.8333 85.1667,52.1667 85.5,53.5C 85.1667,53.5 84.8333,53.5 84.5,53.5C 84.1667,52.5 83.5,51.8333 82.5,51.5C 82.5,50.8333 82.1667,50.5 81.5,50.5 Z"/></g>
<g><path style="opacity:0.243" fill="#e8e5cd" d="M 5.5,49.5 C 5.32842,50.4916 5.66175,51.1583 6.5,51.5C 6.5,52.5 6.5,53.5 6.5,54.5C 4.40309,53.1214 4.06975,51.4547 5.5,49.5 Z"/></g>
<g><path style="opacity:1" fill="#7e6a49" d="M 6.5,51.5 C 7.91866,50.5489 9.58533,50.2155 11.5,50.5C 9.96895,51.9245 10.3023,52.5912 12.5,52.5C 11.205,53.4884 9.87165,54.4884 8.5,55.5C 10.0974,53.2436 9.43072,51.9103 6.5,51.5 Z"/></g>
<g><path style="opacity:1" fill="#745f3b" d="M 75.5,48.5 C 75.5,48.8333 75.5,49.1667 75.5,49.5C 74.2921,50.2341 72.9587,50.5674 71.5,50.5C 70.1667,50.8333 68.8333,51.1667 67.5,51.5C 66.5,51.5 65.5,51.5 64.5,51.5C 64.8333,50.5 65.5,49.8333 66.5,49.5C 67.1667,49.5 67.8333,49.5 68.5,49.5C 70.9029,49.552 73.2362,49.2186 75.5,48.5 Z"/></g>
<g><path style="opacity:1" fill="#a0864c" d="M 77.5,51.5 C 77.5,51.1667 77.5,50.8333 77.5,50.5C 78.5,50.5 79.5,50.5 80.5,50.5C 80.8333,50.5 81.1667,50.5 81.5,50.5C 82.1667,50.5 82.5,50.8333 82.5,51.5C 82.6716,52.4916 82.3382,53.1583 81.5,53.5C 81.631,52.7611 81.4643,52.0944 81,51.5C 80.5814,52.6721 79.9147,53.6721 79,54.5C 78.3828,53.5509 78.5494,52.7175 79.5,52C 78.9056,51.5357 78.2389,51.369 77.5,51.5 Z"/></g>
<g><path style="opacity:1" fill="#ad9a6c" d="M 84.5,49.5 C 84.8333,49.5 85.1667,49.5 85.5,49.5C 86.5676,50.4345 87.901,50.7678 89.5,50.5C 89.7822,51.7777 90.4489,52.7777 91.5,53.5C 90.8333,53.5 90.1667,53.5 89.5,53.5C 89.1667,53.5 88.8333,53.5 88.5,53.5C 87.5,53.5 86.5,53.5 85.5,53.5C 85.1667,52.1667 84.8333,50.8333 84.5,49.5 Z"/></g>
<g><path style="opacity:1" fill="#96835b" d="M 85.5,49.5 C 86.1667,49.5 86.8333,49.5 87.5,49.5C 89.1667,49.5 90.8333,49.5 92.5,49.5C 94.1667,50.1667 95.8333,50.8333 97.5,51.5C 97.5,51.8333 97.5,52.1667 97.5,52.5C 94.7334,52.1417 92.0667,51.475 89.5,50.5C 87.901,50.7678 86.5676,50.4345 85.5,49.5 Z"/></g>
<g><path style="opacity:1" fill="#796b5a" d="M 96.5,48.5 C 98.153,48.6596 99.4863,49.3263 100.5,50.5C 100.833,51.5 101.5,52.1667 102.5,52.5C 102.158,53.3382 101.492,53.6716 100.5,53.5C 99.609,52.8902 98.609,52.5569 97.5,52.5C 97.5,52.1667 97.5,51.8333 97.5,51.5C 97.4431,50.391 97.1098,49.391 96.5,48.5 Z"/></g>
<g><path style="opacity:0.004" fill="#d5d3d1" d="M 100.5,50.5 C 101.833,50.5 102.5,51.1667 102.5,52.5C 101.5,52.1667 100.833,51.5 100.5,50.5 Z"/></g>
<g><path style="opacity:1" fill="#aea281" d="M 89.5,50.5 C 92.0667,51.475 94.7334,52.1417 97.5,52.5C 98.609,52.5569 99.609,52.8902 100.5,53.5C 100.5,53.8333 100.5,54.1667 100.5,54.5C 98.8828,53.962 97.2161,53.6287 95.5,53.5C 94.5,53.5 93.5,53.5 92.5,53.5C 92.1667,53.5 91.8333,53.5 91.5,53.5C 90.4489,52.7777 89.7822,51.7777 89.5,50.5 Z"/></g>
<g><path style="opacity:1" fill="#968365" d="M 11.5,50.5 C 11.8333,50.5 12.1667,50.5 12.5,50.5C 13.791,50.2627 14.791,50.596 15.5,51.5C 15.5,52.1667 15.5,52.8333 15.5,53.5C 14.609,52.8902 13.609,52.5569 12.5,52.5C 10.3023,52.5912 9.96895,51.9245 11.5,50.5 Z"/></g>
<g><path style="opacity:1" fill="#79643c" d="M 64.5,51.5 C 65.5,51.5 66.5,51.5 67.5,51.5C 67.5,51.8333 67.5,52.1667 67.5,52.5C 66.5084,52.3284 65.8417,52.6618 65.5,53.5C 64.2976,52.5946 62.9643,52.5946 61.5,53.5C 61.5,53.1667 61.5,52.8333 61.5,52.5C 62.391,51.8902 63.391,51.5569 64.5,51.5 Z"/></g>
<g><path style="opacity:1" fill="#a78d47" d="M 74.5,53.5 C 74.5,54.1667 74.5,54.8333 74.5,55.5C 73.8902,56.391 73.5569,57.391 73.5,58.5C 73.1667,58.5 72.8333,58.5 72.5,58.5C 72.6716,57.5084 72.3382,56.8417 71.5,56.5C 71.5,56.1667 71.5,55.8333 71.5,55.5C 70.8843,54.2022 70.8843,53.2022 71.5,52.5C 72.1174,52.6107 72.6174,52.944 73,53.5C 73.7792,50.9028 74.2792,50.9028 74.5,53.5 Z"/></g>
<g><path style="opacity:1" fill="#96835c" d="M 6.5,51.5 C 9.43072,51.9103 10.0974,53.2436 8.5,55.5C 7.83333,55.1667 7.16667,54.8333 6.5,54.5C 6.5,53.5 6.5,52.5 6.5,51.5 Z"/></g>
<g><path style="opacity:1" fill="#aba08f" d="M 15.5,51.5 C 17.5529,51.4021 19.2196,52.0687 20.5,53.5C 19.391,53.5569 18.391,53.8902 17.5,54.5C 17.5912,52.3023 16.9245,51.9689 15.5,53.5C 15.5,52.8333 15.5,52.1667 15.5,51.5 Z"/></g>
<g><path style="opacity:1" fill="#987f47" d="M 65.5,53.5 C 64.8902,54.391 64.5569,55.391 64.5,56.5C 64.1667,56.5 63.8333,56.5 63.5,56.5C 63.5393,54.7761 63.206,54.4427 62.5,55.5C 61.8333,55.5 61.5,55.1667 61.5,54.5C 61.5,54.1667 61.5,53.8333 61.5,53.5C 62.9643,52.5946 64.2976,52.5946 65.5,53.5 Z"/></g>
<g><path style="opacity:1" fill="#9c854a" d="M 71.5,50.5 C 71.5,51.1667 71.5,51.8333 71.5,52.5C 70.8843,53.2022 70.8843,54.2022 71.5,55.5C 70.1667,55.1667 68.8333,54.8333 67.5,54.5C 67.5,53.8333 67.5,53.1667 67.5,52.5C 67.5,52.1667 67.5,51.8333 67.5,51.5C 68.8333,51.1667 70.1667,50.8333 71.5,50.5 Z"/></g>
<g><path style="opacity:1" fill="#b0944d" d="M 77.5,51.5 C 78.2389,51.369 78.9056,51.5357 79.5,52C 78.5494,52.7175 78.3828,53.5509 79,54.5C 79.9147,53.6721 80.5814,52.6721 81,51.5C 81.4643,52.0944 81.631,52.7611 81.5,53.5C 81.4431,54.609 81.1098,55.609 80.5,56.5C 80.6716,57.4916 80.3382,58.1583 79.5,58.5C 79.6068,56.6214 79.1068,56.2881 78,57.5C 77.2917,56.6195 76.4584,55.9528 75.5,55.5C 75.1667,55.5 74.8333,55.5 74.5,55.5C 74.5,54.8333 74.5,54.1667 74.5,53.5C 75.2216,53.0825 75.7216,52.4158 76,51.5C 76.7792,54.0972 77.2792,54.0972 77.5,51.5 Z"/></g>
<g><path style="opacity:1" fill="#b2a377" d="M 92.5,53.5 C 93.5,53.5 94.5,53.5 95.5,53.5C 95.5,53.8333 95.5,54.1667 95.5,54.5C 96.5903,55.8571 97.9236,56.8571 99.5,57.5C 98.391,57.5569 97.391,57.8902 96.5,58.5C 96.1667,58.5 95.8333,58.5 95.5,58.5C 94.9525,56.5153 93.9525,54.8486 92.5,53.5 Z"/></g>
<g><path style="opacity:1" fill="#97876d" d="M 102.5,52.5 C 104.027,52.427 105.027,53.0937 105.5,54.5C 105.5,54.8333 105.5,55.1667 105.5,55.5C 104.604,54.4937 103.938,54.4937 103.5,55.5C 102.833,55.5 102.167,55.5 101.5,55.5C 101.5,54.8333 101.167,54.5 100.5,54.5C 100.5,54.1667 100.5,53.8333 100.5,53.5C 101.492,53.6716 102.158,53.3382 102.5,52.5 Z"/></g>
<g><path style="opacity:1" fill="#a68c50" d="M 67.5,52.5 C 67.5,53.1667 67.5,53.8333 67.5,54.5C 67.5,55.1667 67.5,55.8333 67.5,56.5C 66.2022,57.1157 65.2022,57.1157 64.5,56.5C 64.5569,55.391 64.8902,54.391 65.5,53.5C 65.8417,52.6618 66.5084,52.3284 67.5,52.5 Z"/></g>
<g><path style="opacity:1" fill="#ab9251" d="M 67.5,54.5 C 68.8333,54.8333 70.1667,55.1667 71.5,55.5C 71.5,55.8333 71.5,56.1667 71.5,56.5C 69.8212,56.2852 68.8212,56.9519 68.5,58.5C 68.1667,58.5 67.8333,58.5 67.5,58.5C 67.5,57.8333 67.5,57.1667 67.5,56.5C 67.5,55.8333 67.5,55.1667 67.5,54.5 Z"/></g>
<g><path style="opacity:1" fill="#b2974f" d="M 84.5,53.5 C 84.8333,53.5 85.1667,53.5 85.5,53.5C 86.5,53.5 87.5,53.5 88.5,53.5C 87.8902,54.391 87.5569,55.391 87.5,56.5C 86.8826,56.3893 86.3826,56.056 86,55.5C 85.7216,56.4158 85.2216,57.0825 84.5,57.5C 83.6457,55.965 83.6457,54.6316 84.5,53.5 Z"/></g>
<g><path style="opacity:1" fill="#c0baa7" d="M 95.5,54.5 C 95.5,54.1667 95.5,53.8333 95.5,53.5C 97.2161,53.6287 98.8828,53.962 100.5,54.5C 101.167,54.5 101.5,54.8333 101.5,55.5C 99.4352,55.4828 97.4352,55.1495 95.5,54.5 Z"/></g>
<g><path style="opacity:0.043" fill="#e5e2cc" d="M 6.5,54.5 C 7.16667,54.8333 7.83333,55.1667 8.5,55.5C 8.73758,57.4044 9.73758,58.7377 11.5,59.5C 11.8333,60.1667 12.1667,60.8333 12.5,61.5C 9.09221,60.4222 7.09221,58.0889 6.5,54.5 Z"/></g>
<g><path style="opacity:1" fill="#8e8574" d="M 12.5,52.5 C 13.609,52.5569 14.609,52.8902 15.5,53.5C 14.8902,54.391 14.5569,55.391 14.5,56.5C 13.8333,57.1667 13.1667,57.8333 12.5,58.5C 11.8333,58.5 11.5,58.8333 11.5,59.5C 9.73758,58.7377 8.73758,57.4044 8.5,55.5C 9.87165,54.4884 11.205,53.4884 12.5,52.5 Z"/></g>
<g><path style="opacity:1" fill="#807767" d="M 17.5,54.5 C 17.1667,55.1667 16.8333,55.8333 16.5,56.5C 15.8333,56.5 15.1667,56.5 14.5,56.5C 14.5569,55.391 14.8902,54.391 15.5,53.5C 16.9245,51.9689 17.5912,52.3023 17.5,54.5 Z"/></g>
<g><path style="opacity:1" fill="#847968" d="M 20.5,53.5 C 21.4916,53.3284 22.1583,53.6618 22.5,54.5C 20.6203,54.2291 19.287,54.8958 18.5,56.5C 18.5,56.8333 18.5,57.1667 18.5,57.5C 17.8333,57.1667 17.1667,56.8333 16.5,56.5C 16.8333,55.8333 17.1667,55.1667 17.5,54.5C 18.391,53.8902 19.391,53.5569 20.5,53.5 Z"/></g>
<g><path style="opacity:1" fill="#6b5a43" d="M 22.5,54.5 C 22.8333,55.1667 23.1667,55.8333 23.5,56.5C 21.8333,56.5 20.1667,56.5 18.5,56.5C 19.287,54.8958 20.6203,54.2291 22.5,54.5 Z"/></g>
<g><path style="opacity:0.231" fill="#c2bcaf" d="M 22.5,54.5 C 24.0269,54.427 25.0269,55.0937 25.5,56.5C 24.8333,56.5 24.1667,56.5 23.5,56.5C 23.1667,55.8333 22.8333,55.1667 22.5,54.5 Z"/></g>
<g><path style="opacity:1" fill="#735f3d" d="M 57.5,54.5 C 56.4489,55.2223 55.7822,56.2223 55.5,57.5C 55.1667,57.5 54.8333,57.5 54.5,57.5C 53.3774,56.2426 52.7107,56.5759 52.5,58.5C 51.5,57.1667 50.5,57.1667 49.5,58.5C 49.5,58.1667 49.5,57.8333 49.5,57.5C 51.7916,55.7329 54.4582,54.7329 57.5,54.5 Z"/></g>
<g><path style="opacity:1" fill="#867245" d="M 57.5,53.5 C 58.8333,53.5 60.1667,53.5 61.5,53.5C 61.5,53.8333 61.5,54.1667 61.5,54.5C 59.9731,54.427 58.9731,55.0937 58.5,56.5C 57.5416,56.9528 56.7083,57.6195 56,58.5C 55.6012,58.2716 55.4346,57.9382 55.5,57.5C 55.7822,56.2223 56.4489,55.2223 57.5,54.5C 57.5,54.1667 57.5,53.8333 57.5,53.5 Z"/></g>
<g><path style="opacity:1" fill="#9d854e" d="M 61.5,54.5 C 61.5,55.1667 61.8333,55.5 62.5,55.5C 62.1667,56.5 61.5,57.1667 60.5,57.5C 60.5,56.8333 60.1667,56.5 59.5,56.5C 59.1667,56.5 58.8333,56.5 58.5,56.5C 58.9731,55.0937 59.9731,54.427 61.5,54.5 Z"/></g>
<g><path style="opacity:1" fill="#bda660" d="M 82.5,51.5 C 83.5,51.8333 84.1667,52.5 84.5,53.5C 83.6457,54.6316 83.6457,55.965 84.5,57.5C 83.8333,57.1667 83.1667,56.8333 82.5,56.5C 81.8333,56.5 81.1667,56.5 80.5,56.5C 81.1098,55.609 81.4431,54.609 81.5,53.5C 82.3382,53.1583 82.6716,52.4916 82.5,51.5 Z"/></g>
<g><path style="opacity:1" fill="#ad9055" d="M 88.5,53.5 C 88.8333,53.5 89.1667,53.5 89.5,53.5C 89.5858,54.4959 89.2524,55.3292 88.5,56C 92.449,56.8068 92.449,57.3068 88.5,57.5C 87.8333,57.5 87.5,57.1667 87.5,56.5C 87.5569,55.391 87.8902,54.391 88.5,53.5 Z"/></g>
<g><path style="opacity:1" fill="#ae9451" d="M 89.5,53.5 C 90.1667,53.5 90.8333,53.5 91.5,53.5C 91.8333,53.5 92.1667,53.5 92.5,53.5C 93.9525,54.8486 94.9525,56.5153 95.5,58.5C 94.1667,58.5 92.8333,58.5 91.5,58.5C 90.5041,58.4142 89.6708,58.7476 89,59.5C 88.5357,58.9056 88.369,58.2389 88.5,57.5C 92.449,57.3068 92.449,56.8068 88.5,56C 89.2524,55.3292 89.5858,54.4959 89.5,53.5 Z"/></g>
<g><path style="opacity:1" fill="#c2ba99" d="M 95.5,54.5 C 97.4352,55.1495 99.4352,55.4828 101.5,55.5C 102.167,55.5 102.833,55.5 103.5,55.5C 103.5,55.8333 103.5,56.1667 103.5,56.5C 102.432,57.4345 101.099,57.7678 99.5,57.5C 97.9236,56.8571 96.5903,55.8571 95.5,54.5 Z"/></g>
<g><path style="opacity:0.094" fill="#d5cdc2" d="M 105.5,55.5 C 105.5,55.1667 105.5,54.8333 105.5,54.5C 107.027,54.427 108.027,55.0937 108.5,56.5C 107.391,56.4431 106.391,56.1098 105.5,55.5 Z"/></g>
<g><path style="opacity:1" fill="#6e6458" d="M 53.5,53.5 C 54.8333,53.5 56.1667,53.5 57.5,53.5C 57.5,53.8333 57.5,54.1667 57.5,54.5C 54.4582,54.7329 51.7916,55.7329 49.5,57.5C 47.5,57.5 45.5,57.5 43.5,57.5C 46.54,55.6541 49.8733,54.3208 53.5,53.5 Z"/></g>
<g><path style="opacity:1" fill="#b09557" d="M 74.5,55.5 C 74.8333,55.5 75.1667,55.5 75.5,55.5C 75.5569,56.609 75.8902,57.609 76.5,58.5C 75.6236,58.3691 74.9569,58.7025 74.5,59.5C 75.5498,60.4288 75.5498,61.0954 74.5,61.5C 73.7611,61.631 73.0944,61.4643 72.5,61C 73.2524,60.3292 73.5858,59.4959 73.5,58.5C 73.5569,57.391 73.8902,56.391 74.5,55.5 Z"/></g>
<g><path style="opacity:1" fill="#60503a" d="M 105.5,55.5 C 106.391,56.1098 107.391,56.4431 108.5,56.5C 108.5,56.8333 108.5,57.1667 108.5,57.5C 107.957,57.56 107.624,57.8933 107.5,58.5C 108.612,59.2652 109.279,60.2652 109.5,61.5C 108.348,60.375 107.348,60.375 106.5,61.5C 106.614,59.6522 106.281,57.6522 105.5,55.5 Z"/></g>
<g><path style="opacity:1" fill="#8f897d" d="M 14.5,56.5 C 15.1667,56.5 15.8333,56.5 16.5,56.5C 17.1667,56.8333 17.8333,57.1667 18.5,57.5C 18.1667,58.1667 17.8333,58.8333 17.5,59.5C 15.7839,59.3713 14.1172,59.038 12.5,58.5C 13.1667,57.8333 13.8333,57.1667 14.5,56.5 Z"/></g>
<g><path style="opacity:1" fill="#4f4232" d="M 18.5,57.5 C 18.5,57.1667 18.5,56.8333 18.5,56.5C 20.1667,56.5 21.8333,56.5 23.5,56.5C 24.1667,56.5 24.8333,56.5 25.5,56.5C 25.8333,57.1667 26.1667,57.8333 26.5,58.5C 24.8333,58.5 23.1667,58.5 21.5,58.5C 20.391,58.4431 19.391,58.1098 18.5,57.5 Z"/></g>
<g><path style="opacity:0.376" fill="#c4c0af" d="M 25.5,56.5 C 26.8734,56.3433 28.2068,56.51 29.5,57C 28.944,57.3826 28.6107,57.8826 28.5,58.5C 27.8333,58.5 27.1667,58.5 26.5,58.5C 26.1667,57.8333 25.8333,57.1667 25.5,56.5 Z"/></g>
<g><path style="opacity:1" fill="#b19a5c" d="M 63.5,56.5 C 63.8333,56.5 64.1667,56.5 64.5,56.5C 65.2022,57.1157 66.2022,57.1157 67.5,56.5C 67.5,57.1667 67.5,57.8333 67.5,58.5C 67.1667,59.8333 66.8333,61.1667 66.5,62.5C 65.8333,61.8333 65.1667,61.1667 64.5,60.5C 64.1667,59.1667 63.8333,57.8333 63.5,56.5 Z"/></g>
<g><path style="opacity:1" fill="#baa059" d="M 75.5,55.5 C 76.4584,55.9528 77.2917,56.6195 78,57.5C 79.1068,56.2881 79.6068,56.6214 79.5,58.5C 79.5,58.8333 79.5,59.1667 79.5,59.5C 78.8333,59.8333 78.1667,60.1667 77.5,60.5C 76.6618,60.1583 76.3284,59.4916 76.5,58.5C 75.8902,57.609 75.5569,56.609 75.5,55.5 Z"/></g>
<g><path style="opacity:1" fill="#c1aa61" d="M 80.5,56.5 C 81.1667,56.5 81.8333,56.5 82.5,56.5C 82.5569,57.609 82.8902,58.609 83.5,59.5C 82.5,59.5 81.5,59.5 80.5,59.5C 80.1667,59.5 79.8333,59.5 79.5,59.5C 79.5,59.1667 79.5,58.8333 79.5,58.5C 80.3382,58.1583 80.6716,57.4916 80.5,56.5 Z"/></g>
<g><path style="opacity:1" fill="#ad914b" d="M 82.5,56.5 C 83.1667,56.8333 83.8333,57.1667 84.5,57.5C 84.8925,59.2838 85.5592,60.9505 86.5,62.5C 86.5,62.8333 86.5,63.1667 86.5,63.5C 85.5084,63.6716 84.8417,63.3382 84.5,62.5C 84.6716,61.5084 84.3382,60.8417 83.5,60.5C 83.5,60.1667 83.5,59.8333 83.5,59.5C 82.8902,58.609 82.5569,57.609 82.5,56.5 Z"/></g>
<g><path style="opacity:1" fill="#c4b275" d="M 103.5,56.5 C 104.434,57.5676 104.768,58.901 104.5,60.5C 103.833,60.5 103.5,60.8333 103.5,61.5C 102.778,62.5511 101.778,63.2178 100.5,63.5C 101.11,62.609 101.443,61.609 101.5,60.5C 101.938,60.5654 102.272,60.3988 102.5,60C 101.429,59.1482 100.429,58.3149 99.5,57.5C 101.099,57.7678 102.432,57.4345 103.5,56.5 Z"/></g>
<g><path style="opacity:1" fill="#665a4c" d="M 18.5,57.5 C 19.391,58.1098 20.391,58.4431 21.5,58.5C 21.5,58.8333 21.5,59.1667 21.5,59.5C 19.3023,59.4088 18.9689,60.0755 20.5,61.5C 20.5,61.8333 20.5,62.1667 20.5,62.5C 20.1667,62.5 19.8333,62.5 19.5,62.5C 19.0679,61.2905 18.4013,60.2905 17.5,59.5C 17.8333,58.8333 18.1667,58.1667 18.5,57.5 Z"/></g>
<g><path style="opacity:1" fill="#3c332a" d="M 21.5,59.5 C 21.5,59.1667 21.5,58.8333 21.5,58.5C 23.1667,58.5 24.8333,58.5 26.5,58.5C 26.0269,59.9063 25.0269,60.573 23.5,60.5C 23.1583,59.6618 22.4916,59.3284 21.5,59.5 Z"/></g>
<g><path style="opacity:1" fill="#827970" d="M 43.5,57.5 C 42.8333,58.1667 42.1667,58.8333 41.5,59.5C 39.5853,59.7845 37.9187,59.4511 36.5,58.5C 38.8056,58.0074 41.139,57.6741 43.5,57.5 Z"/></g>
<g><path style="opacity:1" fill="#655946" d="M 43.5,57.5 C 45.5,57.5 47.5,57.5 49.5,57.5C 49.5,57.8333 49.5,58.1667 49.5,58.5C 48.8333,58.5 48.5,58.8333 48.5,59.5C 47.5,59.5 46.5,59.5 45.5,59.5C 44.1667,59.5 42.8333,59.5 41.5,59.5C 42.1667,58.8333 42.8333,58.1667 43.5,57.5 Z"/></g>
<g><path style="opacity:1" fill="#ab904f" d="M 58.5,56.5 C 58.8333,56.5 59.1667,56.5 59.5,56.5C 59.1667,57.8333 58.8333,59.1667 58.5,60.5C 58.1667,60.5 57.8333,60.5 57.5,60.5C 56.0998,59.8999 55.0998,58.8999 54.5,57.5C 54.8333,57.5 55.1667,57.5 55.5,57.5C 55.4346,57.9382 55.6012,58.2716 56,58.5C 56.7083,57.6195 57.5416,56.9528 58.5,56.5 Z"/></g>
<g><path style="opacity:1" fill="#b7a265" d="M 71.5,56.5 C 72.3382,56.8417 72.6716,57.5084 72.5,58.5C 71.8333,59.1667 71.1667,59.8333 70.5,60.5C 70.1667,60.5 69.8333,60.5 69.5,60.5C 68.6618,60.1583 68.3284,59.4916 68.5,58.5C 68.8212,56.9519 69.8212,56.2852 71.5,56.5 Z"/></g>
<g><path style="opacity:0.847" fill="#a19a8a" d="M 108.5,56.5 C 110.23,57.0256 111.564,58.0256 112.5,59.5C 110.847,59.3404 109.514,58.6737 108.5,57.5C 108.5,57.1667 108.5,56.8333 108.5,56.5 Z"/></g>
<g><path style="opacity:1" fill="#9e874f" d="M 52.5,58.5 C 53.3382,58.8417 53.6716,59.5084 53.5,60.5C 53.5,61.1667 53.1667,61.5 52.5,61.5C 52.1583,60.6618 51.4916,60.3284 50.5,60.5C 50.1583,59.6618 49.4916,59.3284 48.5,59.5C 48.5,58.8333 48.8333,58.5 49.5,58.5C 50.5,57.1667 51.5,57.1667 52.5,58.5 Z"/></g>
<g><path style="opacity:1" fill="#997f4a" d="M 54.5,57.5 C 55.0998,58.8999 56.0998,59.8999 57.5,60.5C 56.6618,60.8417 56.3284,61.5084 56.5,62.5C 56.1667,62.5 55.8333,62.5 55.5,62.5C 55.5,61.1667 54.8333,60.5 53.5,60.5C 53.6716,59.5084 53.3382,58.8417 52.5,58.5C 52.7107,56.5759 53.3774,56.2426 54.5,57.5 Z"/></g>
<g><path style="opacity:1" fill="#b39a5f" d="M 59.5,56.5 C 60.1667,56.5 60.5,56.8333 60.5,57.5C 61.1098,58.391 61.4431,59.391 61.5,60.5C 60.5,61.8333 59.5,61.8333 58.5,60.5C 58.8333,59.1667 59.1667,57.8333 59.5,56.5 Z"/></g>
<g><path style="opacity:1" fill="#a78d52" d="M 63.5,56.5 C 63.8333,57.8333 64.1667,59.1667 64.5,60.5C 63.2616,60.0732 62.2616,60.0732 61.5,60.5C 61.4431,59.391 61.1098,58.391 60.5,57.5C 61.5,57.1667 62.1667,56.5 62.5,55.5C 63.206,54.4427 63.5393,54.7761 63.5,56.5 Z"/></g>
<g><path style="opacity:1" fill="#b49b5b" d="M 80.5,59.5 C 81.5,59.5 82.5,59.5 83.5,59.5C 83.5,59.8333 83.5,60.1667 83.5,60.5C 82.8333,61.1667 82.1667,61.8333 81.5,62.5C 80.6618,62.1583 80.3284,61.4916 80.5,60.5C 80.5,60.1667 80.5,59.8333 80.5,59.5 Z"/></g>
<g><path style="opacity:1" fill="#baa159" d="M 87.5,56.5 C 87.5,57.1667 87.8333,57.5 88.5,57.5C 88.369,58.2389 88.5357,58.9056 89,59.5C 89.6708,58.7476 90.5041,58.4142 91.5,58.5C 90.8902,59.391 90.5569,60.391 90.5,61.5C 89.5041,61.5858 88.6708,61.2524 88,60.5C 87.7216,61.4158 87.2216,62.0825 86.5,62.5C 85.5592,60.9505 84.8925,59.2838 84.5,57.5C 85.2216,57.0825 85.7216,56.4158 86,55.5C 86.3826,56.056 86.8826,56.3893 87.5,56.5 Z"/></g>
<g><path style="opacity:1" fill="#ad9249" d="M 91.5,58.5 C 92.8333,58.5 94.1667,58.5 95.5,58.5C 94.3995,59.6049 93.7329,60.9382 93.5,62.5C 92.209,62.7373 91.209,62.404 90.5,61.5C 90.5569,60.391 90.8902,59.391 91.5,58.5 Z"/></g>
<g><path style="opacity:1" fill="#af9751" d="M 99.5,57.5 C 100.429,58.3149 101.429,59.1482 102.5,60C 102.272,60.3988 101.938,60.5654 101.5,60.5C 100.833,60.8333 100.167,61.1667 99.5,61.5C 98.8333,61.8333 98.1667,62.1667 97.5,62.5C 96.7659,61.2921 96.4326,59.9587 96.5,58.5C 97.391,57.8902 98.391,57.5569 99.5,57.5 Z"/></g>
<g><path style="opacity:1" fill="#544432" d="M 108.5,57.5 C 109.514,58.6737 110.847,59.3404 112.5,59.5C 113.11,60.391 113.443,61.391 113.5,62.5C 112.041,62.5674 110.708,62.2341 109.5,61.5C 109.279,60.2652 108.612,59.2652 107.5,58.5C 107.624,57.8933 107.957,57.56 108.5,57.5 Z"/></g>
<g><path style="opacity:1" fill="#716656" d="M 12.5,58.5 C 14.1172,59.038 15.7839,59.3713 17.5,59.5C 17.0825,60.2216 16.4158,60.7216 15.5,61C 17.9316,62.0875 17.5983,62.5875 14.5,62.5C 13.8333,62.1667 13.1667,61.8333 12.5,61.5C 12.1667,60.8333 11.8333,60.1667 11.5,59.5C 11.5,58.8333 11.8333,58.5 12.5,58.5 Z"/></g>
<g><path style="opacity:1" fill="#4a3e32" d="M 21.5,59.5 C 22.4916,59.3284 23.1583,59.6618 23.5,60.5C 23.5,60.8333 23.5,61.1667 23.5,61.5C 22.5,61.5 21.5,61.5 20.5,61.5C 18.9689,60.0755 19.3023,59.4088 21.5,59.5 Z"/></g>
<g><path style="opacity:1" fill="#4b4033" d="M 26.5,58.5 C 27.1667,58.5 27.8333,58.5 28.5,58.5C 29.5,59.1667 30.5,59.8333 31.5,60.5C 31.1667,60.5 30.8333,60.5 30.5,60.5C 28.9382,60.7329 27.6049,61.3995 26.5,62.5C 26.1667,62.5 25.8333,62.5 25.5,62.5C 25.1583,61.6618 24.4916,61.3284 23.5,61.5C 23.5,61.1667 23.5,60.8333 23.5,60.5C 25.0269,60.573 26.0269,59.9063 26.5,58.5 Z"/></g>
<g><path style="opacity:1" fill="#7d6536" d="M 30.5,60.5 C 30.8333,60.5 31.1667,60.5 31.5,60.5C 33.099,60.2322 34.4324,60.5655 35.5,61.5C 33.7839,61.6287 32.1172,61.962 30.5,62.5C 30.5,61.8333 30.5,61.1667 30.5,60.5 Z"/></g>
<g><path style="opacity:1" fill="#7c6f57" d="M 28.5,58.5 C 31.1667,58.5 33.8333,58.5 36.5,58.5C 37.9187,59.4511 39.5853,59.7845 41.5,59.5C 42.8333,59.5 44.1667,59.5 45.5,59.5C 45.1667,60.1667 44.8333,60.8333 44.5,61.5C 42.8333,61.5 41.1667,61.5 39.5,61.5C 38.1667,61.5 36.8333,61.5 35.5,61.5C 34.4324,60.5655 33.099,60.2322 31.5,60.5C 30.5,59.8333 29.5,59.1667 28.5,58.5 Z"/></g>
<g><path style="opacity:1" fill="#a38d56" d="M 45.5,59.5 C 46.5,59.5 47.5,59.5 48.5,59.5C 49.4916,59.3284 50.1583,59.6618 50.5,60.5C 50.5912,62.6977 49.9245,63.0311 48.5,61.5C 47.4721,61.0742 46.1388,61.0742 44.5,61.5C 44.8333,60.8333 45.1667,60.1667 45.5,59.5 Z"/></g>
<g><path style="opacity:1" fill="#bfaa64" d="M 67.5,58.5 C 67.8333,58.5 68.1667,58.5 68.5,58.5C 68.3284,59.4916 68.6618,60.1583 69.5,60.5C 69.631,61.2389 69.4643,61.9056 69,62.5C 68.2303,61.4019 67.397,61.4019 66.5,62.5C 66.8333,61.1667 67.1667,59.8333 67.5,58.5 Z"/></g>
<g><path style="opacity:1" fill="#8b7642" d="M 105.5,55.5 C 106.281,57.6522 106.614,59.6522 106.5,61.5C 106.5,61.8333 106.5,62.1667 106.5,62.5C 104.797,63.6602 104.131,62.9935 104.5,60.5C 104.768,58.901 104.434,57.5676 103.5,56.5C 103.5,56.1667 103.5,55.8333 103.5,55.5C 103.938,54.4937 104.604,54.4937 105.5,55.5 Z"/></g>
<g><path style="opacity:1" fill="#b9a466" d="M 53.5,60.5 C 54.8333,60.5 55.5,61.1667 55.5,62.5C 53.9382,62.7329 52.6049,63.3995 51.5,64.5C 51.5569,63.391 51.8902,62.391 52.5,61.5C 53.1667,61.5 53.5,61.1667 53.5,60.5 Z"/></g>
<g><path style="opacity:1" fill="#b79e5d" d="M 72.5,58.5 C 72.8333,58.5 73.1667,58.5 73.5,58.5C 73.5858,59.4959 73.2524,60.3292 72.5,61C 73.0944,61.4643 73.7611,61.631 74.5,61.5C 74.5,61.8333 74.5,62.1667 74.5,62.5C 73.8333,62.5 73.1667,62.5 72.5,62.5C 71.1667,62.5 70.5,61.8333 70.5,60.5C 71.1667,59.8333 71.8333,59.1667 72.5,58.5 Z"/></g>
<g><path style="opacity:1" fill="#bda45e" d="M 76.5,58.5 C 76.3284,59.4916 76.6618,60.1583 77.5,60.5C 77.1788,62.0481 76.1788,62.7148 74.5,62.5C 74.5,62.1667 74.5,61.8333 74.5,61.5C 75.5498,61.0954 75.5498,60.4288 74.5,59.5C 74.9569,58.7025 75.6236,58.3691 76.5,58.5 Z"/></g>
<g><path style="opacity:1" fill="#a28644" d="M 95.5,58.5 C 95.8333,58.5 96.1667,58.5 96.5,58.5C 96.4326,59.9587 96.7659,61.2921 97.5,62.5C 96.2976,63.4054 94.9643,63.4054 93.5,62.5C 93.7329,60.9382 94.3995,59.6049 95.5,58.5 Z"/></g>
<g><path style="opacity:1" fill="#a68f4f" d="M 101.5,60.5 C 101.443,61.609 101.11,62.609 100.5,63.5C 100.5,64.1667 100.5,64.8333 100.5,65.5C 99.8333,65.1667 99.1667,64.8333 98.5,64.5C 99.1098,63.609 99.4431,62.609 99.5,61.5C 100.167,61.1667 100.833,60.8333 101.5,60.5 Z"/></g>
<g><path style="opacity:1" fill="#a49c8b" d="M 112.5,59.5 C 114.284,59.8925 115.95,60.5592 117.5,61.5C 117.5,61.8333 117.5,62.1667 117.5,62.5C 116.202,61.8843 115.202,61.8843 114.5,62.5C 114.167,62.5 113.833,62.5 113.5,62.5C 113.443,61.391 113.11,60.391 112.5,59.5 Z"/></g>
<g><path style="opacity:0.008" fill="#ece4d4" d="M 12.5,61.5 C 13.1667,61.8333 13.8333,62.1667 14.5,62.5C 14.8333,63.1667 15.1667,63.8333 15.5,64.5C 13.5,64.5 12.5,63.5 12.5,61.5 Z"/></g>
<g><path style="opacity:1" fill="#4a3e30" d="M 19.5,62.5 C 19.8333,62.5 20.1667,62.5 20.5,62.5C 21.8333,63.1667 23.1667,63.8333 24.5,64.5C 24.5,65.5 24.5,66.5 24.5,67.5C 23.8333,67.5 23.1667,67.5 22.5,67.5C 22.0113,66.0048 21.3446,64.6715 20.5,63.5C 18.7761,63.5393 18.4427,63.206 19.5,62.5 Z"/></g>
<g><path style="opacity:1" fill="#3d3126" d="M 20.5,62.5 C 20.5,62.1667 20.5,61.8333 20.5,61.5C 21.5,61.5 22.5,61.5 23.5,61.5C 24.4916,61.3284 25.1583,61.6618 25.5,62.5C 24.6618,62.8417 24.3284,63.5084 24.5,64.5C 23.1667,63.8333 21.8333,63.1667 20.5,62.5 Z"/></g>
<g><path style="opacity:1" fill="#806d40" d="M 30.5,60.5 C 30.5,61.1667 30.5,61.8333 30.5,62.5C 29.8333,62.5 29.5,62.8333 29.5,63.5C 29.5,63.8333 29.5,64.1667 29.5,64.5C 28.7784,64.9175 28.2784,65.5842 28,66.5C 27.6174,65.944 27.1174,65.6107 26.5,65.5C 26.5,64.5 26.5,63.5 26.5,62.5C 27.6049,61.3995 28.9382,60.7329 30.5,60.5 Z"/></g>
<g><path style="opacity:1" fill="#937b43" d="M 35.5,61.5 C 36.8333,61.5 38.1667,61.5 39.5,61.5C 39.1667,62.1667 38.8333,62.8333 38.5,63.5C 35.5,63.5 32.5,63.5 29.5,63.5C 29.5,62.8333 29.8333,62.5 30.5,62.5C 32.1172,61.962 33.7839,61.6287 35.5,61.5 Z"/></g>
<g><path style="opacity:1" fill="#ab985c" d="M 39.5,61.5 C 41.1667,61.5 42.8333,61.5 44.5,61.5C 44.8333,62.1667 45.1667,62.8333 45.5,63.5C 44.0597,64.3629 42.7264,64.3629 41.5,63.5C 40.4777,63.8555 39.811,64.5222 39.5,65.5C 37.3023,65.5912 36.9689,64.9245 38.5,63.5C 38.8333,62.8333 39.1667,62.1667 39.5,61.5 Z"/></g>
<g><path style="opacity:1" fill="#b5a265" d="M 48.5,61.5 C 47.8902,62.391 47.5569,63.391 47.5,64.5C 46.6618,64.8417 46.3284,65.5084 46.5,66.5C 45.8333,66.5 45.5,66.1667 45.5,65.5C 45.5,64.8333 45.5,64.1667 45.5,63.5C 45.1667,62.8333 44.8333,62.1667 44.5,61.5C 46.1388,61.0742 47.4721,61.0742 48.5,61.5 Z"/></g>
<g><path style="opacity:1" fill="#b5a371" d="M 50.5,60.5 C 51.4916,60.3284 52.1583,60.6618 52.5,61.5C 51.8902,62.391 51.5569,63.391 51.5,64.5C 49.965,65.3543 48.6316,65.3543 47.5,64.5C 47.5569,63.391 47.8902,62.391 48.5,61.5C 49.9245,63.0311 50.5912,62.6977 50.5,60.5 Z"/></g>
<g><path style="opacity:1" fill="#ad9b69" d="M 55.5,62.5 C 55.8333,62.5 56.1667,62.5 56.5,62.5C 57.3382,62.8417 57.6716,63.5084 57.5,64.5C 56.8333,65.1667 56.1667,65.8333 55.5,66.5C 55.1667,66.5 54.8333,66.5 54.5,66.5C 53.5,65.1667 52.5,65.1667 51.5,66.5C 51.5,65.8333 51.5,65.1667 51.5,64.5C 52.6049,63.3995 53.9382,62.7329 55.5,62.5 Z"/></g>
<g><path style="opacity:1" fill="#ae985e" d="M 57.5,60.5 C 57.8333,60.5 58.1667,60.5 58.5,60.5C 58.8333,61.8333 59.1667,63.1667 59.5,64.5C 58.8333,64.5 58.1667,64.5 57.5,64.5C 57.6716,63.5084 57.3382,62.8417 56.5,62.5C 56.3284,61.5084 56.6618,60.8417 57.5,60.5 Z"/></g>
<g><path style="opacity:1" fill="#b39a5a" d="M 64.5,60.5 C 63.962,62.1172 63.6287,63.7839 63.5,65.5C 63.1667,65.5 62.8333,65.5 62.5,65.5C 62.316,63.0752 61.6493,63.0752 60.5,65.5C 59.8933,65.3764 59.56,65.0431 59.5,64.5C 59.1667,63.1667 58.8333,61.8333 58.5,60.5C 59.5,61.8333 60.5,61.8333 61.5,60.5C 62.2616,60.0732 63.2616,60.0732 64.5,60.5 Z"/></g>
<g><path style="opacity:1" fill="#ac9556" d="M 69.5,60.5 C 69.8333,60.5 70.1667,60.5 70.5,60.5C 70.5,61.8333 71.1667,62.5 72.5,62.5C 72.5,62.8333 72.5,63.1667 72.5,63.5C 71.6618,63.8417 71.3284,64.5084 71.5,65.5C 69.3023,65.4088 68.9689,66.0755 70.5,67.5C 69.8333,67.5 69.1667,67.5 68.5,67.5C 68.631,66.7611 68.4643,66.0944 68,65.5C 67.7216,66.4158 67.2216,67.0825 66.5,67.5C 66.5,66.8333 66.5,66.1667 66.5,65.5C 66.0825,64.7784 65.4158,64.2784 64.5,64C 65.4158,63.7216 66.0825,63.2216 66.5,62.5C 67.397,61.4019 68.2303,61.4019 69,62.5C 69.4643,61.9056 69.631,61.2389 69.5,60.5 Z"/></g>
<g><path style="opacity:1" fill="#ac914d" d="M 79.5,59.5 C 79.8333,59.5 80.1667,59.5 80.5,59.5C 80.5,59.8333 80.5,60.1667 80.5,60.5C 79.9033,60.7352 79.5699,61.2352 79.5,62C 80.3195,63.8003 80.9862,65.6336 81.5,67.5C 81.6716,68.4916 81.3382,69.1583 80.5,69.5C 80.2914,68.0783 79.7914,66.745 79,65.5C 78.2208,68.0972 77.7208,68.0972 77.5,65.5C 77.631,64.7611 77.4643,64.0944 77,63.5C 76.2917,64.3805 75.4584,65.0472 74.5,65.5C 74.631,64.7611 74.4643,64.0944 74,63.5C 73.31,64.7383 72.81,64.7383 72.5,63.5C 72.5,63.1667 72.5,62.8333 72.5,62.5C 73.1667,62.5 73.8333,62.5 74.5,62.5C 76.1788,62.7148 77.1788,62.0481 77.5,60.5C 78.1667,60.1667 78.8333,59.8333 79.5,59.5 Z"/></g>
<g><path style="opacity:1" fill="#b99e58" d="M 83.5,60.5 C 84.3382,60.8417 84.6716,61.5084 84.5,62.5C 83.6618,62.8417 83.3284,63.5084 83.5,64.5C 82.1667,64.5 81.5,63.8333 81.5,62.5C 82.1667,61.8333 82.8333,61.1667 83.5,60.5 Z"/></g>
<g><path style="opacity:1" fill="#af9a4f" d="M 109.5,61.5 C 109.5,62.1667 109.5,62.8333 109.5,63.5C 109.5,64.1667 109.167,64.5 108.5,64.5C 108.158,63.6618 107.492,63.3284 106.5,63.5C 106.5,63.1667 106.5,62.8333 106.5,62.5C 106.5,62.1667 106.5,61.8333 106.5,61.5C 107.348,60.375 108.348,60.375 109.5,61.5 Z"/></g>
<g><path style="opacity:0.569" fill="#d8d5ca" d="M 117.5,61.5 C 119.167,62.5 120.5,63.8333 121.5,65.5C 120.391,65.4431 119.391,65.1098 118.5,64.5C 118.167,63.8333 117.833,63.1667 117.5,62.5C 117.5,62.1667 117.5,61.8333 117.5,61.5 Z"/></g>
<g><path style="opacity:1" fill="#827e75" d="M 17.5,59.5 C 18.4013,60.2905 19.0679,61.2905 19.5,62.5C 18.4427,63.206 18.7761,63.5393 20.5,63.5C 20.0113,64.9952 19.3446,66.3285 18.5,67.5C 17.5,67.5 16.5,67.5 15.5,67.5C 16.625,66.3478 16.625,65.3478 15.5,64.5C 15.1667,63.8333 14.8333,63.1667 14.5,62.5C 17.5983,62.5875 17.9316,62.0875 15.5,61C 16.4158,60.7216 17.0825,60.2216 17.5,59.5 Z"/></g>
<g><path style="opacity:1" fill="#ac9550" d="M 29.5,64.5 C 29.5,64.1667 29.5,63.8333 29.5,63.5C 32.5,63.5 35.5,63.5 38.5,63.5C 36.9689,64.9245 37.3023,65.5912 39.5,65.5C 39.5,65.8333 39.5,66.1667 39.5,66.5C 38.8333,66.5 38.1667,66.5 37.5,66.5C 35.6381,64.5252 33.6381,64.1919 31.5,65.5C 30.8333,65.1667 30.1667,64.8333 29.5,64.5 Z"/></g>
<g><path style="opacity:1" fill="#ab8c45" d="M 84.5,62.5 C 84.8417,63.3382 85.5084,63.6716 86.5,63.5C 86.5,63.8333 86.5,64.1667 86.5,64.5C 85.4937,64.9377 85.4937,65.6043 86.5,66.5C 86.5,67.1667 86.1667,67.5 85.5,67.5C 85.5654,67.0618 85.3988,66.7284 85,66.5C 84.7216,67.4158 84.2216,68.0825 83.5,68.5C 83.5,68.1667 83.5,67.8333 83.5,67.5C 82.1667,66.5 82.1667,65.5 83.5,64.5C 83.3284,63.5084 83.6618,62.8417 84.5,62.5 Z"/></g>
<g><path style="opacity:1" fill="#a88d4e" d="M 90.5,61.5 C 91.209,62.404 92.209,62.7373 93.5,62.5C 92.8333,63.1667 92.1667,63.8333 91.5,64.5C 91.1667,64.5 90.8333,64.5 90.5,64.5C 89.0357,65.4054 87.7024,65.4054 86.5,64.5C 86.5,64.1667 86.5,63.8333 86.5,63.5C 86.5,63.1667 86.5,62.8333 86.5,62.5C 87.2216,62.0825 87.7216,61.4158 88,60.5C 88.6708,61.2524 89.5041,61.5858 90.5,61.5 Z"/></g>
<g><path style="opacity:1" fill="#a28b43" d="M 104.5,60.5 C 104.131,62.9935 104.797,63.6602 106.5,62.5C 106.5,62.8333 106.5,63.1667 106.5,63.5C 106.5,64.1667 106.167,64.5 105.5,64.5C 104.833,64.8333 104.167,65.1667 103.5,65.5C 103.5,64.1667 103.5,62.8333 103.5,61.5C 103.5,60.8333 103.833,60.5 104.5,60.5 Z"/></g>
<g><path style="opacity:1" fill="#695c40" d="M 109.5,61.5 C 110.708,62.2341 112.041,62.5674 113.5,62.5C 113.833,62.5 114.167,62.5 114.5,62.5C 114.5,62.8333 114.5,63.1667 114.5,63.5C 113.209,63.2627 112.209,63.596 111.5,64.5C 111.167,64.5 110.833,64.5 110.5,64.5C 110.5,63.8333 110.167,63.5 109.5,63.5C 109.5,62.8333 109.5,62.1667 109.5,61.5 Z"/></g>
<g><path style="opacity:1" fill="#817458" d="M 117.5,62.5 C 117.833,63.1667 118.167,63.8333 118.5,64.5C 117.833,64.5 117.167,64.5 116.5,64.5C 115.508,64.6716 114.842,64.3382 114.5,63.5C 114.5,63.1667 114.5,62.8333 114.5,62.5C 115.202,61.8843 116.202,61.8843 117.5,62.5 Z"/></g>
<g><path style="opacity:1" fill="#b6a471" d="M 45.5,63.5 C 45.5,64.1667 45.5,64.8333 45.5,65.5C 43.5,65.5 41.5,65.5 39.5,65.5C 39.811,64.5222 40.4777,63.8555 41.5,63.5C 42.7264,64.3629 44.0597,64.3629 45.5,63.5 Z"/></g>
<g><path style="opacity:1" fill="#a38f58" d="M 64.5,60.5 C 65.1667,61.1667 65.8333,61.8333 66.5,62.5C 66.0825,63.2216 65.4158,63.7216 64.5,64C 65.4158,64.2784 66.0825,64.7784 66.5,65.5C 65.5,66.8333 64.5,66.8333 63.5,65.5C 63.6287,63.7839 63.962,62.1172 64.5,60.5 Z"/></g>
<g><path style="opacity:1" fill="#9b7e45" d="M 72.5,63.5 C 72.81,64.7383 73.31,64.7383 74,63.5C 74.4643,64.0944 74.631,64.7611 74.5,65.5C 73.6618,65.8417 73.3284,66.5084 73.5,67.5C 72.8333,66.8333 72.1667,66.1667 71.5,65.5C 71.3284,64.5084 71.6618,63.8417 72.5,63.5 Z"/></g>
<g><path style="opacity:1" fill="#a88b46" d="M 90.5,64.5 C 90.8333,64.5 91.1667,64.5 91.5,64.5C 92.5511,65.2223 93.2178,66.2223 93.5,67.5C 92.3478,66.375 91.3478,66.375 90.5,67.5C 89.8333,67.5 89.5,67.1667 89.5,66.5C 89.8333,65.8333 90.1667,65.1667 90.5,64.5 Z"/></g>
<g><path style="opacity:1" fill="#b69e53" d="M 99.5,61.5 C 99.4431,62.609 99.1098,63.609 98.5,64.5C 98.5,65.1667 98.1667,65.5 97.5,65.5C 96.791,64.596 95.791,64.2627 94.5,64.5C 94.5,65.5 94.5,66.5 94.5,67.5C 94.1667,67.5 93.8333,67.5 93.5,67.5C 93.2178,66.2223 92.5511,65.2223 91.5,64.5C 92.1667,63.8333 92.8333,63.1667 93.5,62.5C 94.9643,63.4054 96.2976,63.4054 97.5,62.5C 98.1667,62.1667 98.8333,61.8333 99.5,61.5 Z"/></g>
<g><path style="opacity:1" fill="#c2b06b" d="M 103.5,61.5 C 103.5,62.8333 103.5,64.1667 103.5,65.5C 103.5,66.8333 102.833,67.5 101.5,67.5C 101.167,67.5 100.833,67.5 100.5,67.5C 100.5,66.8333 100.5,66.1667 100.5,65.5C 100.5,64.8333 100.5,64.1667 100.5,63.5C 101.778,63.2178 102.778,62.5511 103.5,61.5 Z"/></g>
<g><path style="opacity:1" fill="#b0a684" d="M 114.5,63.5 C 114.842,64.3382 115.508,64.6716 116.5,64.5C 116.167,65.1667 115.833,65.8333 115.5,66.5C 115.167,66.5 114.833,66.5 114.5,66.5C 113.778,66.0825 113.278,65.4158 113,64.5C 112.221,67.0972 111.721,67.0972 111.5,64.5C 112.209,63.596 113.209,63.2627 114.5,63.5 Z"/></g>
<g><path style="opacity:1" fill="#5b4d39" d="M 25.5,62.5 C 25.8333,62.5 26.1667,62.5 26.5,62.5C 26.5,63.5 26.5,64.5 26.5,65.5C 26.5,66.1667 26.5,66.8333 26.5,67.5C 26.5,67.8333 26.5,68.1667 26.5,68.5C 26.1667,68.5 25.8333,68.5 25.5,68.5C 25.5,67.8333 25.1667,67.5 24.5,67.5C 24.5,66.5 24.5,65.5 24.5,64.5C 24.3284,63.5084 24.6618,62.8417 25.5,62.5 Z"/></g>
<g><path style="opacity:1" fill="#8c733d" d="M 29.5,64.5 C 30.1667,64.8333 30.8333,65.1667 31.5,65.5C 32.1667,66.1667 32.8333,66.8333 33.5,67.5C 32.8333,67.5 32.1667,67.5 31.5,67.5C 29.8333,67.5 28.1667,67.5 26.5,67.5C 26.5,66.8333 26.5,66.1667 26.5,65.5C 27.1174,65.6107 27.6174,65.944 28,66.5C 28.2784,65.5842 28.7784,64.9175 29.5,64.5 Z"/></g>
<g><path style="opacity:1" fill="#967e44" d="M 37.5,66.5 C 36.4324,67.4345 35.099,67.7678 33.5,67.5C 32.8333,66.8333 32.1667,66.1667 31.5,65.5C 33.6381,64.1919 35.6381,64.5252 37.5,66.5 Z"/></g>
<g><path style="opacity:1" fill="#998550" d="M 39.5,65.5 C 41.5,65.5 43.5,65.5 45.5,65.5C 45.5,66.1667 45.8333,66.5 46.5,66.5C 46.6716,67.4916 46.3382,68.1583 45.5,68.5C 43.3024,68.1249 41.3024,67.4582 39.5,66.5C 39.5,66.1667 39.5,65.8333 39.5,65.5 Z"/></g>
<g><path style="opacity:1" fill="#a08b53" d="M 62.5,65.5 C 61.6457,67.035 61.6457,68.3684 62.5,69.5C 62.6716,70.4916 62.3382,71.1583 61.5,71.5C 60.7839,71.2169 59.9506,70.8836 59,70.5C 58.2828,71.0442 57.7828,71.7109 57.5,72.5C 57.5,72.8333 57.5,73.1667 57.5,73.5C 56.2089,72.4583 56.2089,71.2917 57.5,70C 56.2559,69.5439 55.4226,70.0439 55,71.5C 54.6155,69.8034 54.7822,68.1368 55.5,66.5C 56.1667,65.8333 56.8333,65.1667 57.5,64.5C 58.1667,64.5 58.8333,64.5 59.5,64.5C 59.56,65.0431 59.8933,65.3764 60.5,65.5C 61.6493,63.0752 62.316,63.0752 62.5,65.5 Z"/></g>
<g><path style="opacity:1" fill="#a48746" d="M 80.5,60.5 C 80.3284,61.4916 80.6618,62.1583 81.5,62.5C 81.5,63.8333 82.1667,64.5 83.5,64.5C 82.1667,65.5 82.1667,66.5 83.5,67.5C 82.8333,67.5 82.1667,67.5 81.5,67.5C 80.9862,65.6336 80.3195,63.8003 79.5,62C 79.5699,61.2352 79.9033,60.7352 80.5,60.5 Z"/></g>
<g><path style="opacity:1" fill="#b89c53" d="M 86.5,64.5 C 87.7024,65.4054 89.0357,65.4054 90.5,64.5C 90.1667,65.1667 89.8333,65.8333 89.5,66.5C 88.8333,66.5 88.5,66.8333 88.5,67.5C 87.8333,67.1667 87.1667,66.8333 86.5,66.5C 85.4937,65.6043 85.4937,64.9377 86.5,64.5 Z"/></g>
<g><path style="opacity:1" fill="#c9b25a" d="M 105.5,64.5 C 105.5,66.1667 105.5,67.8333 105.5,69.5C 104.005,69.0113 102.671,68.3446 101.5,67.5C 102.833,67.5 103.5,66.8333 103.5,65.5C 104.167,65.1667 104.833,64.8333 105.5,64.5 Z"/></g>
<g><path style="opacity:1" fill="#625444" d="M 20.5,63.5 C 21.3446,64.6715 22.0113,66.0048 22.5,67.5C 21.1667,68.1667 19.8333,68.8333 18.5,69.5C 18.5,68.8333 18.5,68.1667 18.5,67.5C 19.3446,66.3285 20.0113,64.9952 20.5,63.5 Z"/></g>
<g><path style="opacity:1" fill="#958355" d="M 54.5,66.5 C 53.8333,67.1667 53.1667,67.8333 52.5,68.5C 51.234,67.9101 49.9007,67.4101 48.5,67C 49.448,66.5172 50.448,66.3505 51.5,66.5C 52.5,65.1667 53.5,65.1667 54.5,66.5 Z"/></g>
<g><path style="opacity:1" fill="#b19851" d="M 77.5,65.5 C 77.7208,68.0972 78.2208,68.0972 79,65.5C 79.7914,66.745 80.2914,68.0783 80.5,69.5C 80.1667,69.5 79.8333,69.5 79.5,69.5C 77.6267,70.0891 75.96,69.4224 74.5,67.5C 75.2905,66.5987 76.2905,65.9321 77.5,65.5 Z"/></g>
<g><path style="opacity:1" fill="#a98943" d="M 86.5,66.5 C 87.1667,66.8333 87.8333,67.1667 88.5,67.5C 89.0478,69.5323 90.3812,70.5323 92.5,70.5C 92.5,70.8333 92.5,71.1667 92.5,71.5C 90.5,71.5 88.5,71.5 86.5,71.5C 87.8264,69.8049 87.4931,68.4716 85.5,67.5C 86.1667,67.5 86.5,67.1667 86.5,66.5 Z"/></g>
<g><path style="opacity:1" fill="#856f3c" d="M 98.5,64.5 C 99.1667,64.8333 99.8333,65.1667 100.5,65.5C 100.5,66.1667 100.5,66.8333 100.5,67.5C 99.5084,67.3284 98.8417,67.6618 98.5,68.5C 98.5,69.1667 98.5,69.8333 98.5,70.5C 98.1667,70.5 97.8333,70.5 97.5,70.5C 97.5,69.8333 97.5,69.1667 97.5,68.5C 97.5,67.5 97.5,66.5 97.5,65.5C 98.1667,65.5 98.5,65.1667 98.5,64.5 Z"/></g>
<g><path style="opacity:1" fill="#b5a15b" d="M 109.5,63.5 C 110.167,63.5 110.5,63.8333 110.5,64.5C 110.5,65.5 110.5,66.5 110.5,67.5C 112.099,67.7678 113.432,67.4345 114.5,66.5C 114.833,66.5 115.167,66.5 115.5,66.5C 115.672,67.4916 115.338,68.1583 114.5,68.5C 112.585,68.2155 110.919,68.5489 109.5,69.5C 108.075,67.9689 107.409,68.3023 107.5,70.5C 106.833,70.5 106.5,70.1667 106.5,69.5C 106.831,67.6776 107.498,66.0109 108.5,64.5C 109.167,64.5 109.5,64.1667 109.5,63.5 Z"/></g>
<g><path style="opacity:1" fill="#897c57" d="M 110.5,64.5 C 110.833,64.5 111.167,64.5 111.5,64.5C 111.721,67.0972 112.221,67.0972 113,64.5C 113.278,65.4158 113.778,66.0825 114.5,66.5C 113.432,67.4345 112.099,67.7678 110.5,67.5C 110.5,66.5 110.5,65.5 110.5,64.5 Z"/></g>
<g><path style="opacity:1" fill="#c8b66c" d="M 116.5,64.5 C 117.167,64.5 117.833,64.5 118.5,64.5C 118.833,65.8333 119.167,67.1667 119.5,68.5C 118.5,69.1667 117.5,69.8333 116.5,70.5C 114.833,70.5 113.167,70.5 111.5,70.5C 112.5,69.8333 113.5,69.1667 114.5,68.5C 115.338,68.1583 115.672,67.4916 115.5,66.5C 115.833,65.8333 116.167,65.1667 116.5,64.5 Z"/></g>
<g><path style="opacity:1" fill="#7f735d" d="M 15.5,67.5 C 16.5,67.5 17.5,67.5 18.5,67.5C 18.5,68.1667 18.5,68.8333 18.5,69.5C 17.8333,70.1667 17.1667,70.8333 16.5,71.5C 16.5,70.8333 16.5,70.1667 16.5,69.5C 16.1667,68.8333 15.8333,68.1667 15.5,67.5 Z"/></g>
<g><path style="opacity:1" fill="#765d34" d="M 26.5,67.5 C 28.1667,67.5 29.8333,67.5 31.5,67.5C 31.8417,68.3382 32.5084,68.6716 33.5,68.5C 33.1583,69.3382 32.4916,69.6716 31.5,69.5C 29.8041,67.871 28.8041,68.2043 28.5,70.5C 28.1667,70.5 27.8333,70.5 27.5,70.5C 26.6618,70.1583 26.3284,69.4916 26.5,68.5C 26.5,68.1667 26.5,67.8333 26.5,67.5 Z"/></g>
<g><path style="opacity:1" fill="#886f3b" d="M 37.5,66.5 C 38.1667,66.5 38.8333,66.5 39.5,66.5C 41.3024,67.4582 43.3024,68.1249 45.5,68.5C 45.5,68.8333 45.5,69.1667 45.5,69.5C 42.8728,68.9084 40.2062,68.5751 37.5,68.5C 36.1667,68.5 34.8333,68.5 33.5,68.5C 32.5084,68.6716 31.8417,68.3382 31.5,67.5C 32.1667,67.5 32.8333,67.5 33.5,67.5C 35.099,67.7678 36.4324,67.4345 37.5,66.5 Z"/></g>
<g><path style="opacity:1" fill="#a18e5b" d="M 47.5,64.5 C 48.6316,65.3543 49.965,65.3543 51.5,64.5C 51.5,65.1667 51.5,65.8333 51.5,66.5C 50.448,66.3505 49.448,66.5172 48.5,67C 49.9007,67.4101 51.234,67.9101 52.5,68.5C 53.3382,68.8417 53.6716,69.5084 53.5,70.5C 52.0357,69.5946 50.7024,69.5946 49.5,70.5C 49.6309,69.6236 49.2975,68.9569 48.5,68.5C 47.5832,69.1272 46.5832,69.4606 45.5,69.5C 45.5,69.1667 45.5,68.8333 45.5,68.5C 46.3382,68.1583 46.6716,67.4916 46.5,66.5C 46.3284,65.5084 46.6618,64.8417 47.5,64.5 Z"/></g>
<g><path style="opacity:1" fill="#9a854e" d="M 62.5,65.5 C 62.8333,65.5 63.1667,65.5 63.5,65.5C 64.5,66.8333 65.5,66.8333 66.5,65.5C 66.5,66.1667 66.5,66.8333 66.5,67.5C 66.1667,68.8333 65.8333,70.1667 65.5,71.5C 64.7321,70.7375 64.2321,69.7375 64,68.5C 63.6174,69.056 63.1174,69.3893 62.5,69.5C 61.6457,68.3684 61.6457,67.035 62.5,65.5 Z"/></g>
<g><path style="opacity:1" fill="#a48a47" d="M 71.5,65.5 C 72.1667,66.1667 72.8333,66.8333 73.5,67.5C 73.5,68.1667 73.5,68.8333 73.5,69.5C 73.1583,70.3382 72.4916,70.6716 71.5,70.5C 71.5,69.8333 71.1667,69.5 70.5,69.5C 69.4937,69.0623 69.4937,68.3957 70.5,67.5C 68.9689,66.0755 69.3023,65.4088 71.5,65.5 Z"/></g>
<g><path style="opacity:1" fill="#a18849" d="M 77.5,65.5 C 76.2905,65.9321 75.2905,66.5987 74.5,67.5C 74.5,68.1667 74.5,68.8333 74.5,69.5C 74.1667,69.5 73.8333,69.5 73.5,69.5C 73.5,68.8333 73.5,68.1667 73.5,67.5C 73.3284,66.5084 73.6618,65.8417 74.5,65.5C 75.4584,65.0472 76.2917,64.3805 77,63.5C 77.4643,64.0944 77.631,64.7611 77.5,65.5 Z"/></g>
<g><path style="opacity:1" fill="#a08443" d="M 89.5,66.5 C 89.5,67.1667 89.8333,67.5 90.5,67.5C 91.0998,68.8999 92.0998,69.8999 93.5,70.5C 93.1667,70.5 92.8333,70.5 92.5,70.5C 90.3812,70.5323 89.0478,69.5323 88.5,67.5C 88.5,66.8333 88.8333,66.5 89.5,66.5 Z"/></g>
<g><path style="opacity:1" fill="#b1954d" d="M 93.5,67.5 C 93.8333,67.5 94.1667,67.5 94.5,67.5C 94.5,68.1667 94.5,68.8333 94.5,69.5C 94.5,70.1667 94.1667,70.5 93.5,70.5C 92.0998,69.8999 91.0998,68.8999 90.5,67.5C 91.3478,66.375 92.3478,66.375 93.5,67.5 Z"/></g>
<g><path style="opacity:1" fill="#a58a48" d="M 97.5,65.5 C 97.5,66.5 97.5,67.5 97.5,68.5C 96.8826,68.3893 96.3826,68.056 96,67.5C 95.7216,68.4158 95.2216,69.0825 94.5,69.5C 94.5,68.8333 94.5,68.1667 94.5,67.5C 94.5,66.5 94.5,65.5 94.5,64.5C 95.791,64.2627 96.791,64.596 97.5,65.5 Z"/></g>
<g><path style="opacity:1" fill="#c6b475" d="M 106.5,63.5 C 107.492,63.3284 108.158,63.6618 108.5,64.5C 107.498,66.0109 106.831,67.6776 106.5,69.5C 106.167,69.5 105.833,69.5 105.5,69.5C 105.5,67.8333 105.5,66.1667 105.5,64.5C 106.167,64.5 106.5,64.1667 106.5,63.5 Z"/></g>
<g><path style="opacity:1" fill="#aa9a64" d="M 118.5,64.5 C 119.391,65.1098 120.391,65.4431 121.5,65.5C 121.5,66.5 121.5,67.5 121.5,68.5C 120.833,68.5 120.167,68.5 119.5,68.5C 119.167,67.1667 118.833,65.8333 118.5,64.5 Z"/></g>
<g><path style="opacity:0.082" fill="#d6d1c7" d="M 121.5,65.5 C 123.597,66.8786 123.93,68.5453 122.5,70.5C 122.672,69.5084 122.338,68.8417 121.5,68.5C 121.5,67.5 121.5,66.5 121.5,65.5 Z"/></g>
<g><path style="opacity:0.945" fill="#ccc7b5" d="M 15.5,64.5 C 16.625,65.3478 16.625,66.3478 15.5,67.5C 15.8333,68.1667 16.1667,68.8333 16.5,69.5C 14.302,69.1201 12.6354,69.7868 11.5,71.5C 9.83333,72.5 8.5,73.8333 7.5,75.5C 7.5,75.8333 7.5,76.1667 7.5,76.5C 6.5,76.8333 5.83333,77.5 5.5,78.5C 5.16667,78.5 4.83333,78.5 4.5,78.5C 4.96166,76.2433 5.96166,74.2433 7.5,72.5C 10.5483,70.1185 13.2149,67.4518 15.5,64.5 Z"/></g>
<g><path style="opacity:1" fill="#3f362c" d="M 22.5,67.5 C 23.1667,67.5 23.8333,67.5 24.5,67.5C 25.1667,67.5 25.5,67.8333 25.5,68.5C 25.1667,69.1667 24.8333,69.8333 24.5,70.5C 23.8333,70.5 23.1667,70.5 22.5,70.5C 21.7611,70.631 21.0944,70.4643 20.5,70C 22.935,69.9252 23.6016,69.0919 22.5,67.5 Z"/></g>
<g><path style="opacity:1" fill="#675030" d="M 31.5,69.5 C 31.1667,70.1667 30.8333,70.8333 30.5,71.5C 29.5084,71.6716 28.8417,71.3382 28.5,70.5C 28.8041,68.2043 29.8041,67.871 31.5,69.5 Z"/></g>
<g><path style="opacity:1" fill="#917742" d="M 68.5,67.5 C 67.5592,69.0495 66.8925,70.7162 66.5,72.5C 65.8333,72.5 65.5,72.1667 65.5,71.5C 65.8333,70.1667 66.1667,68.8333 66.5,67.5C 67.2216,67.0825 67.7216,66.4158 68,65.5C 68.4643,66.0944 68.631,66.7611 68.5,67.5 Z"/></g>
<g><path style="opacity:1" fill="#b49748" d="M 85.5,67.5 C 87.4931,68.4716 87.8264,69.8049 86.5,71.5C 85.7784,71.0825 85.2784,70.4158 85,69.5C 84.7216,70.4158 84.2216,71.0825 83.5,71.5C 83.5,70.5 83.5,69.5 83.5,68.5C 84.2216,68.0825 84.7216,67.4158 85,66.5C 85.3988,66.7284 85.5654,67.0618 85.5,67.5 Z"/></g>
<g><path style="opacity:1" fill="#88713d" d="M 98.5,68.5 C 98.8417,67.6618 99.5084,67.3284 100.5,67.5C 100.833,67.5 101.167,67.5 101.5,67.5C 102.671,68.3446 104.005,69.0113 105.5,69.5C 105.5,69.8333 105.5,70.1667 105.5,70.5C 102.875,71.3798 100.542,70.7131 98.5,68.5 Z"/></g>
<g><path style="opacity:1" fill="#c1a959" d="M 114.5,68.5 C 113.5,69.1667 112.5,69.8333 111.5,70.5C 110.508,70.6716 109.842,70.3382 109.5,69.5C 110.919,68.5489 112.585,68.2155 114.5,68.5 Z"/></g>
<g><path style="opacity:1" fill="#d6cb9b" d="M 119.5,68.5 C 120.167,68.5 120.833,68.5 121.5,68.5C 122.338,68.8417 122.672,69.5084 122.5,70.5C 122.5,71.1667 122.167,71.5 121.5,71.5C 119.5,72.1667 117.5,72.8333 115.5,73.5C 114.508,73.6716 113.842,73.3382 113.5,72.5C 114.71,72.0679 115.71,71.4013 116.5,70.5C 117.5,69.8333 118.5,69.1667 119.5,68.5 Z"/></g>
<g><path style="opacity:1" fill="#4e3e2f" d="M 22.5,67.5 C 23.6016,69.0919 22.935,69.9252 20.5,70C 21.0944,70.4643 21.7611,70.631 22.5,70.5C 21.375,71.6522 21.375,72.6522 22.5,73.5C 22.1667,74.1667 21.8333,74.8333 21.5,75.5C 20.448,75.6495 19.448,75.4828 18.5,75C 19.1664,73.3395 19.1664,71.5062 18.5,69.5C 19.8333,68.8333 21.1667,68.1667 22.5,67.5 Z"/></g>
<g><path style="opacity:1" fill="#4d3f33" d="M 25.5,68.5 C 25.8333,68.5 26.1667,68.5 26.5,68.5C 26.3284,69.4916 26.6618,70.1583 27.5,70.5C 27.1667,71.1667 26.8333,71.8333 26.5,72.5C 25.609,73.1098 24.609,73.4431 23.5,73.5C 24.1098,72.609 24.4431,71.609 24.5,70.5C 24.8333,69.8333 25.1667,69.1667 25.5,68.5 Z"/></g>
<g><path style="opacity:1" fill="#775a32" d="M 33.5,68.5 C 34.8333,68.5 36.1667,68.5 37.5,68.5C 37.8333,69.1667 38.1667,69.8333 38.5,70.5C 36.5853,70.2155 34.9187,70.5489 33.5,71.5C 33.1667,71.5 32.8333,71.5 32.5,71.5C 31.8333,71.5 31.1667,71.5 30.5,71.5C 30.8333,70.8333 31.1667,70.1667 31.5,69.5C 32.4916,69.6716 33.1583,69.3382 33.5,68.5 Z"/></g>
<g><path style="opacity:1" fill="#7b5f35" d="M 37.5,68.5 C 40.2062,68.5751 42.8728,68.9084 45.5,69.5C 46.2625,70.2679 47.2625,70.7679 48.5,71C 47.5842,71.2784 46.9175,71.7784 46.5,72.5C 45.2921,71.7659 43.9587,71.4326 42.5,71.5C 41.2921,70.7659 39.9587,70.4326 38.5,70.5C 38.1667,69.8333 37.8333,69.1667 37.5,68.5 Z"/></g>
<g><path style="opacity:1" fill="#978152" d="M 65.5,71.5 C 65.5,72.1667 65.8333,72.5 66.5,72.5C 66.5,73.8333 65.8333,74.5 64.5,74.5C 63.7777,73.4489 62.7777,72.7822 61.5,72.5C 61.5,72.1667 61.5,71.8333 61.5,71.5C 62.3382,71.1583 62.6716,70.4916 62.5,69.5C 63.1174,69.3893 63.6174,69.056 64,68.5C 64.2321,69.7375 64.7321,70.7375 65.5,71.5 Z"/></g>
<g><path style="opacity:1" fill="#b79d52" d="M 74.5,67.5 C 75.96,69.4224 77.6267,70.0891 79.5,69.5C 79.5875,72.5983 79.0875,72.9316 78,70.5C 77.5357,71.0944 77.369,71.7611 77.5,72.5C 76.8333,71.8333 76.1667,71.1667 75.5,70.5C 75.5,69.8333 75.1667,69.5 74.5,69.5C 74.5,68.8333 74.5,68.1667 74.5,67.5 Z"/></g>
<g><path style="opacity:1" fill="#b19448" d="M 81.5,67.5 C 82.1667,67.5 82.8333,67.5 83.5,67.5C 83.5,67.8333 83.5,68.1667 83.5,68.5C 83.5,69.5 83.5,70.5 83.5,71.5C 82.5084,71.3284 81.8417,71.6618 81.5,72.5C 81.1667,72.5 80.8333,72.5 80.5,72.5C 80.5,71.5 80.5,70.5 80.5,69.5C 81.3382,69.1583 81.6716,68.4916 81.5,67.5 Z"/></g>
<g><path style="opacity:1" fill="#b3984b" d="M 97.5,68.5 C 97.5,69.1667 97.5,69.8333 97.5,70.5C 96.5084,70.3284 95.8417,70.6618 95.5,71.5C 95.1667,71.5 94.8333,71.5 94.5,71.5C 93.8333,71.5 93.1667,71.5 92.5,71.5C 92.5,71.1667 92.5,70.8333 92.5,70.5C 92.8333,70.5 93.1667,70.5 93.5,70.5C 94.1667,70.5 94.5,70.1667 94.5,69.5C 95.2216,69.0825 95.7216,68.4158 96,67.5C 96.3826,68.056 96.8826,68.3893 97.5,68.5 Z"/></g>
<g><path style="opacity:1" fill="#8c8573" d="M 16.5,69.5 C 16.5,70.1667 16.5,70.8333 16.5,71.5C 15.8333,71.5 15.1667,71.5 14.5,71.5C 13.5,71.5 12.5,71.5 11.5,71.5C 12.6354,69.7868 14.302,69.1201 16.5,69.5 Z"/></g>
<g><path style="opacity:1" fill="#9a8453" d="M 33.5,71.5 C 34.9187,70.5489 36.5853,70.2155 38.5,70.5C 39.9587,70.4326 41.2921,70.7659 42.5,71.5C 42.5,71.8333 42.5,72.1667 42.5,72.5C 42.5,72.8333 42.5,73.1667 42.5,73.5C 41.391,73.4431 40.391,73.1098 39.5,72.5C 38.5,72.5 37.5,72.5 36.5,72.5C 35.791,71.596 34.791,71.2627 33.5,71.5 Z"/></g>
<g><path style="opacity:1" fill="#856d3b" d="M 53.5,70.5 C 53.5,71.5 53.5,72.5 53.5,73.5C 53.1667,73.5 52.8333,73.5 52.5,73.5C 52.6068,71.6214 52.1068,71.2881 51,72.5C 50.2828,71.9558 49.7828,71.2891 49.5,70.5C 50.7024,69.5946 52.0357,69.5946 53.5,70.5 Z"/></g>
<g><path style="opacity:1" fill="#8e7542" d="M 54.5,66.5 C 54.8333,66.5 55.1667,66.5 55.5,66.5C 54.7822,68.1368 54.6155,69.8034 55,71.5C 55.4226,70.0439 56.2559,69.5439 57.5,70C 56.2089,71.2917 56.2089,72.4583 57.5,73.5C 56.3684,74.3543 55.035,74.3543 53.5,73.5C 53.5,72.5 53.5,71.5 53.5,70.5C 53.6716,69.5084 53.3382,68.8417 52.5,68.5C 53.1667,67.8333 53.8333,67.1667 54.5,66.5 Z"/></g>
<g><path style="opacity:1" fill="#a58d51" d="M 68.5,67.5 C 69.1667,67.5 69.8333,67.5 70.5,67.5C 69.4937,68.3957 69.4937,69.0623 70.5,69.5C 69.6935,70.7281 68.6935,71.7281 67.5,72.5C 67.1667,72.5 66.8333,72.5 66.5,72.5C 66.8925,70.7162 67.5592,69.0495 68.5,67.5 Z"/></g>
<g><path style="opacity:1" fill="#ab914b" d="M 73.5,69.5 C 73.8333,69.5 74.1667,69.5 74.5,69.5C 75.1667,69.5 75.5,69.8333 75.5,70.5C 75.3713,72.2161 75.038,73.8828 74.5,75.5C 74.5,76.1667 74.8333,76.5 75.5,76.5C 75.1667,77.5 74.5,78.1667 73.5,78.5C 73.5,78.1667 73.5,77.8333 73.5,77.5C 73.9746,74.9179 73.3079,72.9179 71.5,71.5C 71.5,71.1667 71.5,70.8333 71.5,70.5C 72.4916,70.6716 73.1583,70.3382 73.5,69.5 Z"/></g>
<g><path style="opacity:1" fill="#967a3f" d="M 109.5,69.5 C 109.842,70.3382 110.508,70.6716 111.5,70.5C 111.5,70.8333 111.5,71.1667 111.5,71.5C 110.833,71.5 110.167,71.5 109.5,71.5C 108.833,71.5 108.167,71.5 107.5,71.5C 107.5,71.1667 107.5,70.8333 107.5,70.5C 107.409,68.3023 108.075,67.9689 109.5,69.5 Z"/></g>
<g><path style="opacity:1" fill="#b49e57" d="M 111.5,71.5 C 111.5,71.1667 111.5,70.8333 111.5,70.5C 113.167,70.5 114.833,70.5 116.5,70.5C 115.71,71.4013 114.71,72.0679 113.5,72.5C 112.833,72.1667 112.167,71.8333 111.5,71.5 Z"/></g>
<g><path style="opacity:1" fill="#907d5a" d="M 11.5,71.5 C 12.5,71.5 13.5,71.5 14.5,71.5C 14.1667,72.5 13.5,73.1667 12.5,73.5C 10.8333,74.1667 9.16667,74.8333 7.5,75.5C 8.5,73.8333 9.83333,72.5 11.5,71.5 Z"/></g>
<g><path style="opacity:1" fill="#45362a" d="M 22.5,70.5 C 23.1667,70.5 23.8333,70.5 24.5,70.5C 24.4431,71.609 24.1098,72.609 23.5,73.5C 23.1667,73.5 22.8333,73.5 22.5,73.5C 21.375,72.6522 21.375,71.6522 22.5,70.5 Z"/></g>
<g><path style="opacity:1" fill="#574a3a" d="M 27.5,70.5 C 27.8333,70.5 28.1667,70.5 28.5,70.5C 28.8417,71.3382 29.5084,71.6716 30.5,71.5C 29.4863,72.6737 28.153,73.3404 26.5,73.5C 26.5,73.1667 26.5,72.8333 26.5,72.5C 26.8333,71.8333 27.1667,71.1667 27.5,70.5 Z"/></g>
<g><path style="opacity:1" fill="#81683a" d="M 49.5,70.5 C 49.7828,71.2891 50.2828,71.9558 51,72.5C 52.1068,71.2881 52.6068,71.6214 52.5,73.5C 51.8333,73.8333 51.1667,74.1667 50.5,74.5C 49.4863,73.3263 48.153,72.6596 46.5,72.5C 46.9175,71.7784 47.5842,71.2784 48.5,71C 47.2625,70.7679 46.2625,70.2679 45.5,69.5C 46.5832,69.4606 47.5832,69.1272 48.5,68.5C 49.2975,68.9569 49.6309,69.6236 49.5,70.5 Z"/></g>
<g><path style="opacity:1" fill="#907a4b" d="M 61.5,71.5 C 61.5,71.8333 61.5,72.1667 61.5,72.5C 60.6618,72.8417 60.3284,73.5084 60.5,74.5C 60.1667,74.5 59.8333,74.5 59.5,74.5C 58.8333,73.8333 58.1667,73.1667 57.5,72.5C 57.7828,71.7109 58.2828,71.0442 59,70.5C 59.9506,70.8836 60.7839,71.2169 61.5,71.5 Z"/></g>
<g><path style="opacity:1" fill="#99824d" d="M 70.5,69.5 C 71.1667,69.5 71.5,69.8333 71.5,70.5C 71.5,70.8333 71.5,71.1667 71.5,71.5C 71.5,71.8333 71.5,72.1667 71.5,72.5C 70.7784,72.9175 70.2784,73.5842 70,74.5C 69.6667,74.1667 69.3333,73.8333 69,73.5C 69.1085,74.7688 68.9418,75.7688 68.5,76.5C 67.7611,76.631 67.0944,76.4643 66.5,76C 67.3366,74.9887 67.67,73.8221 67.5,72.5C 68.6935,71.7281 69.6935,70.7281 70.5,69.5 Z"/></g>
<g><path style="opacity:1" fill="#a18647" d="M 71.5,71.5 C 73.3079,72.9179 73.9746,74.9179 73.5,77.5C 72.8333,77.5 72.1667,77.5 71.5,77.5C 71.5,75.8333 71.5,74.1667 71.5,72.5C 71.5,72.1667 71.5,71.8333 71.5,71.5 Z"/></g>
<g><path style="opacity:1" fill="#967b42" d="M 86.5,71.5 C 88.5,71.5 90.5,71.5 92.5,71.5C 93.1667,71.5 93.8333,71.5 94.5,71.5C 94.1583,72.3382 93.4916,72.6716 92.5,72.5C 91.5,72.5 90.5,72.5 89.5,72.5C 86.8333,72.5 84.1667,72.5 81.5,72.5C 81.8417,71.6618 82.5084,71.3284 83.5,71.5C 84.2216,71.0825 84.7216,70.4158 85,69.5C 85.2784,70.4158 85.7784,71.0825 86.5,71.5 Z"/></g>
<g><path style="opacity:1" fill="#cfc184" d="M 97.5,70.5 C 97.8333,70.5 98.1667,70.5 98.5,70.5C 98.8333,71.1667 99.1667,71.8333 99.5,72.5C 98.1667,72.5 96.8333,72.5 95.5,72.5C 95.5,72.1667 95.5,71.8333 95.5,71.5C 95.8417,70.6618 96.5084,70.3284 97.5,70.5 Z"/></g>
<g><path style="opacity:1" fill="#b6a36b" d="M 98.5,68.5 C 100.542,70.7131 102.875,71.3798 105.5,70.5C 105.5,71.1667 105.5,71.8333 105.5,72.5C 103.007,72.1307 102.34,72.7973 103.5,74.5C 102.167,74.1667 100.833,73.8333 99.5,73.5C 99.5,73.1667 99.5,72.8333 99.5,72.5C 99.1667,71.8333 98.8333,71.1667 98.5,70.5C 98.5,69.8333 98.5,69.1667 98.5,68.5 Z"/></g>
<g><path style="opacity:1" fill="#d3c07e" d="M 105.5,69.5 C 105.833,69.5 106.167,69.5 106.5,69.5C 106.5,70.1667 106.833,70.5 107.5,70.5C 107.5,70.8333 107.5,71.1667 107.5,71.5C 107.833,72.1667 108.167,72.8333 108.5,73.5C 107.833,73.5 107.167,73.5 106.5,73.5C 105.833,73.5 105.5,73.1667 105.5,72.5C 105.5,71.8333 105.5,71.1667 105.5,70.5C 105.5,70.1667 105.5,69.8333 105.5,69.5 Z"/></g>
<g><path style="opacity:1" fill="#473d31" d="M 36.5,72.5 C 37.5,72.5 38.5,72.5 39.5,72.5C 39.8333,73.8333 40.1667,75.1667 40.5,76.5C 40.1667,76.5 39.8333,76.5 39.5,76.5C 38.1851,75.5244 36.8518,74.5244 35.5,73.5C 35.6236,72.8933 35.9569,72.56 36.5,72.5 Z"/></g>
<g><path style="opacity:1" fill="#947f4f" d="M 42.5,72.5 C 42.5,72.1667 42.5,71.8333 42.5,71.5C 43.9587,71.4326 45.2921,71.7659 46.5,72.5C 48.153,72.6596 49.4863,73.3263 50.5,74.5C 50.5,74.8333 50.5,75.1667 50.5,75.5C 49.2921,74.7659 47.9587,74.4326 46.5,74.5C 45.4863,73.3263 44.153,72.6596 42.5,72.5 Z"/></g>
<g><path style="opacity:1" fill="#a28641" d="M 79.5,69.5 C 79.8333,69.5 80.1667,69.5 80.5,69.5C 80.5,70.5 80.5,71.5 80.5,72.5C 80.5,73.1667 80.1667,73.5 79.5,73.5C 78.6043,74.5063 77.9377,74.5063 77.5,73.5C 77.5,73.1667 77.5,72.8333 77.5,72.5C 77.369,71.7611 77.5357,71.0944 78,70.5C 79.0875,72.9316 79.5875,72.5983 79.5,69.5 Z"/></g>
<g><path style="opacity:1" fill="#49392b" d="M 80.5,72.5 C 80.8333,72.5 81.1667,72.5 81.5,72.5C 84.1667,72.5 86.8333,72.5 89.5,72.5C 89.5,73.1667 89.5,73.8333 89.5,74.5C 88.609,73.8902 87.609,73.5569 86.5,73.5C 85.5,73.5 84.5,73.5 83.5,73.5C 81.3023,73.4088 80.9689,74.0755 82.5,75.5C 80.9731,75.573 79.9731,74.9063 79.5,73.5C 80.1667,73.5 80.5,73.1667 80.5,72.5 Z"/></g>
<g><path style="opacity:0.408" fill="#e2ddc2" d="M 121.5,71.5 C 120.089,73.539 118.089,74.539 115.5,74.5C 115.5,74.1667 115.5,73.8333 115.5,73.5C 117.5,72.8333 119.5,72.1667 121.5,71.5 Z"/></g>
<g><path style="opacity:1" fill="#72644d" d="M 14.5,71.5 C 15.1667,71.5 15.8333,71.5 16.5,71.5C 17.8333,72.5 17.8333,73.5 16.5,74.5C 15.1667,74.5 13.8333,74.5 12.5,74.5C 12.5,74.1667 12.5,73.8333 12.5,73.5C 13.5,73.1667 14.1667,72.5 14.5,71.5 Z"/></g>
<g><path style="opacity:1" fill="#5f4f3b" d="M 18.5,69.5 C 19.1664,71.5062 19.1664,73.3395 18.5,75C 19.448,75.4828 20.448,75.6495 21.5,75.5C 21.5,75.8333 21.5,76.1667 21.5,76.5C 20.8333,76.5 20.1667,76.5 19.5,76.5C 17.8212,76.7148 16.8212,76.0481 16.5,74.5C 17.8333,73.5 17.8333,72.5 16.5,71.5C 17.1667,70.8333 17.8333,70.1667 18.5,69.5 Z"/></g>
<g><path style="opacity:1" fill="#40372d" d="M 39.5,72.5 C 40.391,73.1098 41.391,73.4431 42.5,73.5C 43.6049,74.6005 44.9382,75.2671 46.5,75.5C 47.5,75.8333 48.1667,76.5 48.5,77.5C 47.8333,77.5 47.5,77.8333 47.5,78.5C 47.5,79.1667 47.1667,79.5 46.5,79.5C 45.3933,77.0311 43.3933,76.0311 40.5,76.5C 40.1667,75.1667 39.8333,73.8333 39.5,72.5 Z"/></g>
<g><path style="opacity:1" fill="#ad9756" d="M 42.5,73.5 C 42.5,73.1667 42.5,72.8333 42.5,72.5C 44.153,72.6596 45.4863,73.3263 46.5,74.5C 46.5,74.8333 46.5,75.1667 46.5,75.5C 44.9382,75.2671 43.6049,74.6005 42.5,73.5 Z"/></g>
<g><path style="opacity:1" fill="#947c49" d="M 61.5,72.5 C 62.7777,72.7822 63.7777,73.4489 64.5,74.5C 64.5,75.5 64.5,76.5 64.5,77.5C 63.2022,78.1157 62.2022,78.1157 61.5,77.5C 63.129,75.8041 62.7957,74.8041 60.5,74.5C 60.3284,73.5084 60.6618,72.8417 61.5,72.5 Z"/></g>
<g><path style="opacity:1" fill="#7b7161" d="M 94.5,71.5 C 94.8333,71.5 95.1667,71.5 95.5,71.5C 95.5,71.8333 95.5,72.1667 95.5,72.5C 95.5,73.1667 95.5,73.8333 95.5,74.5C 95.5,74.8333 95.5,75.1667 95.5,75.5C 94.391,75.5569 93.391,75.8902 92.5,76.5C 92.5,75.1667 92.5,73.8333 92.5,72.5C 93.4916,72.6716 94.1583,72.3382 94.5,71.5 Z"/></g>
<g><path style="opacity:1" fill="#e6e4d3" d="M 95.5,72.5 C 96.8333,72.5 98.1667,72.5 99.5,72.5C 99.5,72.8333 99.5,73.1667 99.5,73.5C 98.2921,74.2341 96.9587,74.5674 95.5,74.5C 95.5,73.8333 95.5,73.1667 95.5,72.5 Z"/></g>
<g><path style="opacity:1" fill="#d8cda5" d="M 105.5,72.5 C 105.5,73.1667 105.833,73.5 106.5,73.5C 105.833,74.1667 105.167,74.8333 104.5,75.5C 103.833,75.5 103.5,75.1667 103.5,74.5C 102.34,72.7973 103.007,72.1307 105.5,72.5 Z"/></g>
<g><path style="opacity:1" fill="#d6cda3" d="M 107.5,71.5 C 108.167,71.5 108.833,71.5 109.5,71.5C 111.03,73.3465 113.03,74.3465 115.5,74.5C 114.432,75.4345 113.099,75.7678 111.5,75.5C 111.167,75.5 110.833,75.5 110.5,75.5C 110.167,74.5 109.5,73.8333 108.5,73.5C 108.167,72.8333 107.833,72.1667 107.5,71.5 Z"/></g>
<g><path style="opacity:1" fill="#cbbc88" d="M 109.5,71.5 C 110.167,71.5 110.833,71.5 111.5,71.5C 112.167,71.8333 112.833,72.1667 113.5,72.5C 113.842,73.3382 114.508,73.6716 115.5,73.5C 115.5,73.8333 115.5,74.1667 115.5,74.5C 113.03,74.3465 111.03,73.3465 109.5,71.5 Z"/></g>
<g><path style="opacity:1" fill="#706351" d="M 12.5,73.5 C 12.5,73.8333 12.5,74.1667 12.5,74.5C 11.8333,74.5 11.5,74.8333 11.5,75.5C 10.2921,76.2341 8.95875,76.5674 7.5,76.5C 7.5,76.1667 7.5,75.8333 7.5,75.5C 9.16667,74.8333 10.8333,74.1667 12.5,73.5 Z"/></g>
<g><path style="opacity:1" fill="#5b5043" d="M 12.5,74.5 C 13.8333,74.5 15.1667,74.5 16.5,74.5C 16.8212,76.0481 17.8212,76.7148 19.5,76.5C 18.8333,77.1667 18.1667,77.8333 17.5,78.5C 15.5,78.8333 13.5,79.1667 11.5,79.5C 12.7653,78.5207 14.0986,77.5207 15.5,76.5C 14.0951,76.24 12.7618,75.9066 11.5,75.5C 11.5,74.8333 11.8333,74.5 12.5,74.5 Z"/></g>
<g><path style="opacity:1" fill="#685844" d="M 26.5,72.5 C 26.5,72.8333 26.5,73.1667 26.5,73.5C 25.1667,74.5 23.8333,75.5 22.5,76.5C 22.1667,76.5 21.8333,76.5 21.5,76.5C 21.5,76.1667 21.5,75.8333 21.5,75.5C 21.8333,74.8333 22.1667,74.1667 22.5,73.5C 22.8333,73.5 23.1667,73.5 23.5,73.5C 24.609,73.4431 25.609,73.1098 26.5,72.5 Z"/></g>
<g><path style="opacity:0.361" fill="#cbc3b1" d="M 30.5,71.5 C 31.1667,71.5 31.8333,71.5 32.5,71.5C 32.5,71.8333 32.5,72.1667 32.5,72.5C 29.3858,74.3908 26.0525,75.7241 22.5,76.5C 23.8333,75.5 25.1667,74.5 26.5,73.5C 28.153,73.3404 29.4863,72.6737 30.5,71.5 Z"/></g>
<g><path style="opacity:0.506" fill="#d0cab6" d="M 32.5,72.5 C 32.5,72.1667 32.5,71.8333 32.5,71.5C 32.8333,71.5 33.1667,71.5 33.5,71.5C 34.791,71.2627 35.791,71.596 36.5,72.5C 35.9569,72.56 35.6236,72.8933 35.5,73.5C 36.8518,74.5244 38.1851,75.5244 39.5,76.5C 39.5,76.8333 39.5,77.1667 39.5,77.5C 36.5913,76.5539 34.258,74.8872 32.5,72.5 Z"/></g>
<g><path style="opacity:1" fill="#b29b53" d="M 46.5,75.5 C 46.5,75.1667 46.5,74.8333 46.5,74.5C 47.9587,74.4326 49.2921,74.7659 50.5,75.5C 51.4916,75.3284 52.1583,75.6618 52.5,76.5C 51.5084,76.3284 50.8417,76.6618 50.5,77.5C 49.8333,77.5 49.1667,77.5 48.5,77.5C 48.1667,76.5 47.5,75.8333 46.5,75.5 Z"/></g>
<g><path style="opacity:1" fill="#937943" d="M 52.5,73.5 C 53.4057,74.9649 54.739,75.9649 56.5,76.5C 57.5272,75.2086 58.5272,75.2086 59.5,76.5C 59.5,76.8333 59.5,77.1667 59.5,77.5C 58.8333,77.5 58.1667,77.5 57.5,77.5C 57.1667,77.5 56.8333,77.5 56.5,77.5C 55.1667,77.1667 53.8333,76.8333 52.5,76.5C 52.1583,75.6618 51.4916,75.3284 50.5,75.5C 50.5,75.1667 50.5,74.8333 50.5,74.5C 51.1667,74.1667 51.8333,73.8333 52.5,73.5 Z"/></g>
<g><path style="opacity:1" fill="#7e6336" d="M 57.5,72.5 C 58.1667,73.1667 58.8333,73.8333 59.5,74.5C 59.5,75.1667 59.5,75.8333 59.5,76.5C 58.5272,75.2086 57.5272,75.2086 56.5,76.5C 54.739,75.9649 53.4057,74.9649 52.5,73.5C 52.8333,73.5 53.1667,73.5 53.5,73.5C 55.035,74.3543 56.3684,74.3543 57.5,73.5C 57.5,73.1667 57.5,72.8333 57.5,72.5 Z"/></g>
<g><path style="opacity:1" fill="#b08f48" d="M 75.5,70.5 C 76.1667,71.1667 76.8333,71.8333 77.5,72.5C 77.5,72.8333 77.5,73.1667 77.5,73.5C 76.7777,74.5511 75.7777,75.2178 74.5,75.5C 75.038,73.8828 75.3713,72.2161 75.5,70.5 Z"/></g>
<g><path style="opacity:1" fill="#a78441" d="M 77.5,73.5 C 77.9377,74.5063 78.6043,74.5063 79.5,73.5C 79.9731,74.9063 80.9731,75.573 82.5,75.5C 82.5,75.8333 82.5,76.1667 82.5,76.5C 81.5084,76.3284 80.8417,76.6618 80.5,77.5C 80.1667,77.5 79.8333,77.5 79.5,77.5C 79.1583,76.6618 78.4916,76.3284 77.5,76.5C 76.8333,76.5 76.1667,76.5 75.5,76.5C 74.8333,76.5 74.5,76.1667 74.5,75.5C 75.7777,75.2178 76.7777,74.5511 77.5,73.5 Z"/></g>
<g><path style="opacity:1" fill="#5d564e" d="M 83.5,73.5 C 83.9175,74.2216 84.5842,74.7216 85.5,75C 84.944,75.3826 84.6107,75.8826 84.5,76.5C 83.8333,76.5 83.1667,76.5 82.5,76.5C 82.5,76.1667 82.5,75.8333 82.5,75.5C 80.9689,74.0755 81.3023,73.4088 83.5,73.5 Z"/></g>
<g><path style="opacity:1" fill="#3d3127" d="M 86.5,73.5 C 87.609,73.5569 88.609,73.8902 89.5,74.5C 90.404,75.209 90.7373,76.209 90.5,77.5C 89.8333,77.5 89.1667,77.5 88.5,77.5C 87.8333,76.1667 87.1667,74.8333 86.5,73.5 Z"/></g>
<g><path style="opacity:1" fill="#d5c68c" d="M 106.5,73.5 C 107.167,73.5 107.833,73.5 108.5,73.5C 109.5,73.8333 110.167,74.5 110.5,75.5C 108.708,75.366 107.042,75.6993 105.5,76.5C 105.167,76.5 104.833,76.5 104.5,76.5C 104.5,76.1667 104.5,75.8333 104.5,75.5C 105.167,74.8333 105.833,74.1667 106.5,73.5 Z"/></g>
<g><path style="opacity:1" fill="#927b44" d="M 66.5,72.5 C 66.8333,72.5 67.1667,72.5 67.5,72.5C 67.67,73.8221 67.3366,74.9887 66.5,76C 67.0944,76.4643 67.7611,76.631 68.5,76.5C 68.5,76.8333 68.5,77.1667 68.5,77.5C 67.2069,77.8746 65.8736,78.2079 64.5,78.5C 64.5,78.1667 64.5,77.8333 64.5,77.5C 64.5,76.5 64.5,75.5 64.5,74.5C 65.8333,74.5 66.5,73.8333 66.5,72.5 Z"/></g>
<g><path style="opacity:1" fill="#a08a51" d="M 71.5,72.5 C 71.5,74.1667 71.5,75.8333 71.5,77.5C 70.5,77.5 69.5,77.5 68.5,77.5C 68.5,77.1667 68.5,76.8333 68.5,76.5C 68.9418,75.7688 69.1085,74.7688 69,73.5C 69.3333,73.8333 69.6667,74.1667 70,74.5C 70.2784,73.5842 70.7784,72.9175 71.5,72.5 Z"/></g>
<g><path style="opacity:1" fill="#51473b" d="M 83.5,73.5 C 84.5,73.5 85.5,73.5 86.5,73.5C 87.1667,74.8333 87.8333,76.1667 88.5,77.5C 87.1667,77.5 85.8333,77.5 84.5,77.5C 84.5,77.1667 84.5,76.8333 84.5,76.5C 84.6107,75.8826 84.944,75.3826 85.5,75C 84.5842,74.7216 83.9175,74.2216 83.5,73.5 Z"/></g>
<g><path style="opacity:1" fill="#574434" d="M 89.5,72.5 C 90.5,72.5 91.5,72.5 92.5,72.5C 92.5,73.8333 92.5,75.1667 92.5,76.5C 91.8333,76.8333 91.1667,77.1667 90.5,77.5C 90.7373,76.209 90.404,75.209 89.5,74.5C 89.5,73.8333 89.5,73.1667 89.5,72.5 Z"/></g>
<g><path style="opacity:1" fill="#e2d899" d="M 99.5,73.5 C 100.833,73.8333 102.167,74.1667 103.5,74.5C 103.5,75.1667 103.833,75.5 104.5,75.5C 104.5,75.8333 104.5,76.1667 104.5,76.5C 102.579,77.3627 100.579,78.0293 98.5,78.5C 97.1667,78.5 95.8333,78.5 94.5,78.5C 95.3984,77.8423 96.3984,77.1757 97.5,76.5C 97.0431,75.7025 96.3764,75.3691 95.5,75.5C 95.5,75.1667 95.5,74.8333 95.5,74.5C 96.9587,74.5674 98.2921,74.2341 99.5,73.5 Z"/></g>
<g><path style="opacity:0.686" fill="#e6e0c3" d="M 110.5,75.5 C 110.833,75.5 111.167,75.5 111.5,75.5C 111.631,76.2389 111.464,76.9056 111,77.5C 109.224,76.4639 107.391,76.4639 105.5,77.5C 105.5,77.1667 105.5,76.8333 105.5,76.5C 107.042,75.6993 108.708,75.366 110.5,75.5 Z"/></g>
<g><path style="opacity:1" fill="#645440" d="M 11.5,75.5 C 12.7618,75.9066 14.0951,76.24 15.5,76.5C 14.0986,77.5207 12.7653,78.5207 11.5,79.5C 11.5,79.8333 11.5,80.1667 11.5,80.5C 8.91791,80.9746 6.91791,80.3079 5.5,78.5C 5.83333,77.5 6.5,76.8333 7.5,76.5C 8.95875,76.5674 10.2921,76.2341 11.5,75.5 Z"/></g>
<g><path style="opacity:0.565" fill="#b9b1a2" d="M 19.5,76.5 C 20.1667,76.5 20.8333,76.5 21.5,76.5C 21.8333,76.5 22.1667,76.5 22.5,76.5C 21.2196,77.9313 19.5529,78.5979 17.5,78.5C 18.1667,77.8333 18.8333,77.1667 19.5,76.5 Z"/></g>
<g><path style="opacity:1" fill="#615a4d" d="M 39.5,77.5 C 39.5,77.1667 39.5,76.8333 39.5,76.5C 39.8333,76.5 40.1667,76.5 40.5,76.5C 43.3933,76.0311 45.3933,77.0311 46.5,79.5C 45.5,79.5 44.5,79.5 43.5,79.5C 42.3951,78.3995 41.0618,77.7329 39.5,77.5 Z"/></g>
<g><path style="opacity:1" fill="#8f7241" d="M 59.5,74.5 C 59.8333,74.5 60.1667,74.5 60.5,74.5C 62.7957,74.8041 63.129,75.8041 61.5,77.5C 60.8333,77.5 60.1667,77.5 59.5,77.5C 59.5,77.1667 59.5,76.8333 59.5,76.5C 59.5,75.8333 59.5,75.1667 59.5,74.5 Z"/></g>
<g><path style="opacity:1" fill="#bca251" d="M 52.5,76.5 C 53.8333,76.8333 55.1667,77.1667 56.5,77.5C 55.8902,78.391 55.5569,79.391 55.5,80.5C 54.1667,79.8333 52.8333,79.1667 51.5,78.5C 50.8333,78.5 50.5,78.1667 50.5,77.5C 50.8417,76.6618 51.5084,76.3284 52.5,76.5 Z"/></g>
<g><path style="opacity:1" fill="#c6ad5e" d="M 56.5,77.5 C 56.8333,77.5 57.1667,77.5 57.5,77.5C 59.1016,79.0739 61.1016,79.7406 63.5,79.5C 63.5,80.1667 63.5,80.8333 63.5,81.5C 61.8333,81.5 60.1667,81.5 58.5,81.5C 57.391,81.4431 56.391,81.1098 55.5,80.5C 55.5569,79.391 55.8902,78.391 56.5,77.5 Z"/></g>
<g><path style="opacity:1" fill="#b89a47" d="M 77.5,76.5 C 78.4916,76.3284 79.1583,76.6618 79.5,77.5C 79.5,78.1667 79.5,78.8333 79.5,79.5C 78.5,79.5 77.5,79.5 76.5,79.5C 77.1098,78.609 77.4431,77.609 77.5,76.5 Z"/></g>
<g><path style="opacity:1" fill="#b99e4e" d="M 82.5,76.5 C 83.1667,76.5 83.8333,76.5 84.5,76.5C 84.5,76.8333 84.5,77.1667 84.5,77.5C 84.5,77.8333 84.5,78.1667 84.5,78.5C 83.1779,78.33 82.0113,78.6634 81,79.5C 80.5357,78.9056 80.369,78.2389 80.5,77.5C 80.8417,76.6618 81.5084,76.3284 82.5,76.5 Z"/></g>
<g><path style="opacity:0.841" fill="#e3dbaf" d="M 104.5,76.5 C 104.833,76.5 105.167,76.5 105.5,76.5C 105.5,76.8333 105.5,77.1667 105.5,77.5C 103.299,78.5664 100.965,79.233 98.5,79.5C 98.5,79.1667 98.5,78.8333 98.5,78.5C 100.579,78.0293 102.579,77.3627 104.5,76.5 Z"/></g>
<g><path style="opacity:1" fill="#3e352b" d="M 47.5,78.5 C 47.5,77.8333 47.8333,77.5 48.5,77.5C 49.1667,77.5 49.8333,77.5 50.5,77.5C 50.5,78.1667 50.8333,78.5 51.5,78.5C 51.5,79.1667 51.5,79.8333 51.5,80.5C 49.8007,80.4729 48.4674,79.8062 47.5,78.5 Z"/></g>
<g><path style="opacity:1" fill="#ad9151" d="M 57.5,77.5 C 58.1667,77.5 58.8333,77.5 59.5,77.5C 60.1667,77.5 60.8333,77.5 61.5,77.5C 62.2022,78.1157 63.2022,78.1157 64.5,77.5C 64.5,77.8333 64.5,78.1667 64.5,78.5C 63.8333,78.5 63.5,78.8333 63.5,79.5C 61.1016,79.7406 59.1016,79.0739 57.5,77.5 Z"/></g>
<g><path style="opacity:1" fill="#a48643" d="M 68.5,77.5 C 69.5,77.5 70.5,77.5 71.5,77.5C 72.1667,77.5 72.8333,77.5 73.5,77.5C 73.5,77.8333 73.5,78.1667 73.5,78.5C 72.209,78.2627 71.209,78.596 70.5,79.5C 68.2646,79.7947 66.2646,79.4614 64.5,78.5C 65.8736,78.2079 67.2069,77.8746 68.5,77.5 Z"/></g>
<g><path style="opacity:1" fill="#b3944a" d="M 75.5,76.5 C 76.1667,76.5 76.8333,76.5 77.5,76.5C 77.4431,77.609 77.1098,78.609 76.5,79.5C 74.8333,79.5 73.1667,79.5 71.5,79.5C 71.1667,79.5 70.8333,79.5 70.5,79.5C 71.209,78.596 72.209,78.2627 73.5,78.5C 74.5,78.1667 75.1667,77.5 75.5,76.5 Z"/></g>
<g><path style="opacity:1" fill="#bda75c" d="M 84.5,77.5 C 85.8333,77.5 87.1667,77.5 88.5,77.5C 89.1667,77.5 89.8333,77.5 90.5,77.5C 90.5,78.1667 90.1667,78.5 89.5,78.5C 88.0222,78.238 86.6888,78.5713 85.5,79.5C 85.9569,80.2975 86.6236,80.6309 87.5,80.5C 86.4324,81.4345 85.099,81.7678 83.5,81.5C 84.1098,80.609 84.4431,79.609 84.5,78.5C 84.5,78.1667 84.5,77.8333 84.5,77.5 Z"/></g>
<g><path style="opacity:1" fill="#dccd84" d="M 95.5,75.5 C 96.3764,75.3691 97.0431,75.7025 97.5,76.5C 96.3984,77.1757 95.3984,77.8423 94.5,78.5C 92.7839,78.6287 91.1172,78.962 89.5,79.5C 89.5,79.1667 89.5,78.8333 89.5,78.5C 90.1667,78.5 90.5,78.1667 90.5,77.5C 91.1667,77.1667 91.8333,76.8333 92.5,76.5C 93.391,75.8902 94.391,75.5569 95.5,75.5 Z"/></g>
<g><path style="opacity:0.733" fill="#c1baa8" d="M 4.5,78.5 C 4.83333,78.5 5.16667,78.5 5.5,78.5C 6.91791,80.3079 8.91791,80.9746 11.5,80.5C 9.65676,81.2829 7.65676,81.9495 5.5,82.5C 3.35765,81.5629 3.02431,80.2296 4.5,78.5 Z"/></g>
<g><path style="opacity:0.439" fill="#bab3a9" d="M 17.5,78.5 C 15.8984,80.0739 13.8984,80.7406 11.5,80.5C 11.5,80.1667 11.5,79.8333 11.5,79.5C 13.5,79.1667 15.5,78.8333 17.5,78.5 Z"/></g>
<g><path style="opacity:1" fill="#4a3e31" d="M 51.5,78.5 C 52.8333,79.1667 54.1667,79.8333 55.5,80.5C 56.391,81.1098 57.391,81.4431 58.5,81.5C 58.8417,82.3382 59.5084,82.6716 60.5,82.5C 60.5,83.1667 60.1667,83.5 59.5,83.5C 58.5,83.5 57.5,83.5 56.5,83.5C 55.4617,81.4805 54.1284,81.1472 52.5,82.5C 50.3023,82.5912 49.9689,81.9245 51.5,80.5C 51.5,79.8333 51.5,79.1667 51.5,78.5 Z"/></g>
<g><path style="opacity:1" fill="#bba157" d="M 64.5,78.5 C 66.2646,79.4614 68.2646,79.7947 70.5,79.5C 70.8333,79.5 71.1667,79.5 71.5,79.5C 71.5,79.8333 71.5,80.1667 71.5,80.5C 68.7212,80.2786 66.0545,80.612 63.5,81.5C 63.5,80.8333 63.5,80.1667 63.5,79.5C 63.5,78.8333 63.8333,78.5 64.5,78.5 Z"/></g>
<g><path style="opacity:1" fill="#ceb766" d="M 71.5,80.5 C 71.5,80.1667 71.5,79.8333 71.5,79.5C 73.1667,79.5 74.8333,79.5 76.5,79.5C 77.5,79.5 78.5,79.5 79.5,79.5C 79.8333,80.1667 80.1667,80.8333 80.5,81.5C 79.8826,81.6107 79.3826,81.944 79,82.5C 78.7216,81.5842 78.2216,80.9175 77.5,80.5C 76.5,80.5 75.5,80.5 74.5,80.5C 73.5,80.5 72.5,80.5 71.5,80.5 Z"/></g>
<g><path style="opacity:1" fill="#d7c271" d="M 89.5,78.5 C 89.5,78.8333 89.5,79.1667 89.5,79.5C 89.1583,80.3382 88.4916,80.6716 87.5,80.5C 86.6236,80.6309 85.9569,80.2975 85.5,79.5C 86.6888,78.5713 88.0222,78.238 89.5,78.5 Z"/></g>
<g><path style="opacity:1" fill="#dacf9b" d="M 94.5,78.5 C 95.8333,78.5 97.1667,78.5 98.5,78.5C 98.5,78.8333 98.5,79.1667 98.5,79.5C 95.3627,82.7331 92.0293,83.7331 88.5,82.5C 86.5,82.5 84.5,82.5 82.5,82.5C 82.5,82.1667 82.5,81.8333 82.5,81.5C 82.8333,81.5 83.1667,81.5 83.5,81.5C 85.099,81.7678 86.4324,81.4345 87.5,80.5C 88.4916,80.6716 89.1583,80.3382 89.5,79.5C 91.1172,78.962 92.7839,78.6287 94.5,78.5 Z"/></g>
<g><path style="opacity:1" fill="#847c6d" d="M 43.5,79.5 C 44.5,79.5 45.5,79.5 46.5,79.5C 46.8333,80.1667 47.1667,80.8333 47.5,81.5C 46.5,81.5 45.5,81.5 44.5,81.5C 43.6618,81.1583 43.3284,80.4916 43.5,79.5 Z"/></g>
<g><path style="opacity:1" fill="#5d5347" d="M 47.5,78.5 C 48.4674,79.8062 49.8007,80.4729 51.5,80.5C 49.9689,81.9245 50.3023,82.5912 52.5,82.5C 53.5,82.8333 54.1667,83.5 54.5,84.5C 54.5,84.8333 54.5,85.1667 54.5,85.5C 53.391,85.5569 52.391,85.8902 51.5,86.5C 51.4142,85.5041 51.7476,84.6708 52.5,84C 51.552,83.5172 50.552,83.3505 49.5,83.5C 49.5,82.1667 48.8333,81.5 47.5,81.5C 47.1667,80.8333 46.8333,80.1667 46.5,79.5C 47.1667,79.5 47.5,79.1667 47.5,78.5 Z"/></g>
<g><path style="opacity:1" fill="#c7b16b" d="M 71.5,80.5 C 72.5,80.5 73.5,80.5 74.5,80.5C 74.5,81.1667 74.1667,81.5 73.5,81.5C 71.5853,81.2155 69.9187,81.5489 68.5,82.5C 65.8333,82.5 63.1667,82.5 60.5,82.5C 59.5084,82.6716 58.8417,82.3382 58.5,81.5C 60.1667,81.5 61.8333,81.5 63.5,81.5C 66.0545,80.612 68.7212,80.2786 71.5,80.5 Z"/></g>
<g><path style="opacity:1" fill="#d2ba66" d="M 79.5,77.5 C 79.8333,77.5 80.1667,77.5 80.5,77.5C 80.369,78.2389 80.5357,78.9056 81,79.5C 82.0113,78.6634 83.1779,78.33 84.5,78.5C 84.4431,79.609 84.1098,80.609 83.5,81.5C 83.1667,81.5 82.8333,81.5 82.5,81.5C 81.8333,81.5 81.1667,81.5 80.5,81.5C 80.1667,80.8333 79.8333,80.1667 79.5,79.5C 79.5,78.8333 79.5,78.1667 79.5,77.5 Z"/></g>
<g><path style="opacity:0.369" fill="#d4d0b6" d="M 39.5,77.5 C 41.0618,77.7329 42.3951,78.3995 43.5,79.5C 43.3284,80.4916 43.6618,81.1583 44.5,81.5C 44.5,82.1667 44.5,82.8333 44.5,83.5C 44.5,83.8333 44.5,84.1667 44.5,84.5C 42.6002,82.3805 40.9336,80.0472 39.5,77.5 Z"/></g>
<g><path style="opacity:0.804" fill="#cabe97" d="M 60.5,82.5 C 63.1667,82.5 65.8333,82.5 68.5,82.5C 68.5,83.5 68.5,84.5 68.5,85.5C 68.1667,85.5 67.8333,85.5 67.5,85.5C 66.4479,83.744 64.7812,83.0773 62.5,83.5C 61.609,84.1098 60.609,84.4431 59.5,84.5C 59.5,84.1667 59.5,83.8333 59.5,83.5C 60.1667,83.5 60.5,83.1667 60.5,82.5 Z"/></g>
<g><path style="opacity:1" fill="#4e4337" d="M 73.5,82.5 C 74.1667,82.5 74.5,82.8333 74.5,83.5C 73.8333,83.8333 73.1667,84.1667 72.5,84.5C 71.6522,83.375 70.6522,83.375 69.5,84.5C 70.1834,82.8235 71.5168,82.1568 73.5,82.5 Z"/></g>
<g><path style="opacity:1" fill="#d2c077" d="M 77.5,80.5 C 78.2216,80.9175 78.7216,81.5842 79,82.5C 79.3826,81.944 79.8826,81.6107 80.5,81.5C 81.1667,81.5 81.8333,81.5 82.5,81.5C 82.5,81.8333 82.5,82.1667 82.5,82.5C 82.5,83.1667 82.5,83.8333 82.5,84.5C 81.5,84.5 80.5,84.5 79.5,84.5C 78.791,83.596 77.791,83.2627 76.5,83.5C 77.1098,82.609 77.4431,81.609 77.5,80.5 Z"/></g>
<g><path style="opacity:0.459" fill="#efe9c5" d="M 82.5,82.5 C 84.5,82.5 86.5,82.5 88.5,82.5C 86.6976,83.4582 84.6976,84.1249 82.5,84.5C 82.5,83.8333 82.5,83.1667 82.5,82.5 Z"/></g>
<g><path style="opacity:1" fill="#9d9e99" d="M 44.5,81.5 C 45.5,81.5 46.5,81.5 47.5,81.5C 47.5,81.8333 47.5,82.1667 47.5,82.5C 47.573,84.0269 46.9063,85.0269 45.5,85.5C 45.6716,84.5084 45.3382,83.8417 44.5,83.5C 44.5,82.8333 44.5,82.1667 44.5,81.5 Z"/></g>
<g><path style="opacity:1" fill="#6c6459" d="M 49.5,83.5 C 50.552,83.3505 51.552,83.5172 52.5,84C 51.7476,84.6708 51.4142,85.5041 51.5,86.5C 50.8826,86.6107 50.3826,86.944 50,87.5C 50.3554,86.0406 50.1888,84.7072 49.5,83.5 Z"/></g>
<g><path style="opacity:1" fill="#54473b" d="M 52.5,82.5 C 54.1284,81.1472 55.4617,81.4805 56.5,83.5C 56.1583,84.3382 55.4916,84.6716 54.5,84.5C 54.1667,83.5 53.5,82.8333 52.5,82.5 Z"/></g>
<g><path style="opacity:0.169" fill="#e5e3d5" d="M 62.5,83.5 C 64.7812,83.0773 66.4479,83.744 67.5,85.5C 67.7373,86.791 67.404,87.791 66.5,88.5C 66.5,87.1667 66.5,85.8333 66.5,84.5C 64.901,84.7678 63.5676,84.4345 62.5,83.5 Z"/></g>
<g><path style="opacity:1" fill="#afa58e" d="M 74.5,80.5 C 75.5,80.5 76.5,80.5 77.5,80.5C 77.4431,81.609 77.1098,82.609 76.5,83.5C 76.5,84.1667 76.1667,84.5 75.5,84.5C 74.8333,84.5 74.5,84.1667 74.5,83.5C 74.5,82.8333 74.1667,82.5 73.5,82.5C 73.5,82.1667 73.5,81.8333 73.5,81.5C 74.1667,81.5 74.5,81.1667 74.5,80.5 Z"/></g>
<g><path style="opacity:1" fill="#7b7266" d="M 56.5,83.5 C 57.5,83.5 58.5,83.5 59.5,83.5C 59.5,83.8333 59.5,84.1667 59.5,84.5C 59.1583,85.3382 58.4916,85.6716 57.5,85.5C 56.8333,85.5 56.1667,85.5 55.5,85.5C 55.1667,85.5 54.8333,85.5 54.5,85.5C 54.5,85.1667 54.5,84.8333 54.5,84.5C 55.4916,84.6716 56.1583,84.3382 56.5,83.5 Z"/></g>
<g><path style="opacity:1" fill="#45372b" d="M 72.5,84.5 C 72.1667,85.1667 71.8333,85.8333 71.5,86.5C 70.8333,86.8333 70.1667,87.1667 69.5,87.5C 69.5,86.5 69.5,85.5 69.5,84.5C 70.6522,83.375 71.6522,83.375 72.5,84.5 Z"/></g>
<g><path style="opacity:1" fill="#8d8c87" d="M 47.5,82.5 C 48.8668,84.7896 48.2002,86.4563 45.5,87.5C 45.5,86.8333 45.5,86.1667 45.5,85.5C 46.9063,85.0269 47.573,84.0269 47.5,82.5 Z"/></g>
<g><path style="opacity:1" fill="#8e8677" d="M 47.5,82.5 C 47.5,82.1667 47.5,81.8333 47.5,81.5C 48.8333,81.5 49.5,82.1667 49.5,83.5C 50.1888,84.7072 50.3554,86.0406 50,87.5C 50.3826,86.944 50.8826,86.6107 51.5,86.5C 52.391,85.8902 53.391,85.5569 54.5,85.5C 54.8333,85.5 55.1667,85.5 55.5,85.5C 54.3065,86.2719 53.3065,87.2719 52.5,88.5C 51.2921,89.2341 49.9587,89.5674 48.5,89.5C 46.8212,89.7148 45.8212,89.0481 45.5,87.5C 48.2002,86.4563 48.8668,84.7896 47.5,82.5 Z"/></g>
<g><path style="opacity:1" fill="#5c503e" d="M 73.5,81.5 C 73.5,81.8333 73.5,82.1667 73.5,82.5C 71.5168,82.1568 70.1834,82.8235 69.5,84.5C 69.5,85.5 69.5,86.5 69.5,87.5C 68.5798,88.0674 68.2465,87.4008 68.5,85.5C 68.5,84.5 68.5,83.5 68.5,82.5C 69.9187,81.5489 71.5853,81.2155 73.5,81.5 Z"/></g>
<g><path style="opacity:1" fill="#6a6359" d="M 74.5,83.5 C 74.5,84.1667 74.8333,84.5 75.5,84.5C 75.5,84.8333 75.5,85.1667 75.5,85.5C 74.5,86.1667 73.5,86.8333 72.5,87.5C 71.8333,87.5 71.5,87.1667 71.5,86.5C 71.8333,85.8333 72.1667,85.1667 72.5,84.5C 73.1667,84.1667 73.8333,83.8333 74.5,83.5 Z"/></g>
<g><path style="opacity:0.184" fill="#e3dfcf" d="M 76.5,83.5 C 77.791,83.2627 78.791,83.596 79.5,84.5C 77.2215,85.1846 75.8882,86.1846 75.5,87.5C 75.5,86.8333 75.5,86.1667 75.5,85.5C 75.5,85.1667 75.5,84.8333 75.5,84.5C 76.1667,84.5 76.5,84.1667 76.5,83.5 Z"/></g>
<g><path style="opacity:0.071" fill="#cfccc3" d="M 55.5,85.5 C 56.1667,85.5 56.8333,85.5 57.5,85.5C 56.3406,87.2503 54.674,88.2503 52.5,88.5C 53.3065,87.2719 54.3065,86.2719 55.5,85.5 Z"/></g>
<g><path style="opacity:0.184" fill="#b7b2aa" d="M 75.5,85.5 C 75.5,86.1667 75.5,86.8333 75.5,87.5C 74.7777,88.5511 73.7777,89.2178 72.5,89.5C 72.5,88.8333 72.5,88.1667 72.5,87.5C 73.5,86.8333 74.5,86.1667 75.5,85.5 Z"/></g>
<g><path style="opacity:0.992" fill="#b7b2a2" d="M 44.5,83.5 C 45.3382,83.8417 45.6716,84.5084 45.5,85.5C 45.5,86.1667 45.5,86.8333 45.5,87.5C 45.8212,89.0481 46.8212,89.7148 48.5,89.5C 47.3588,90.339 46.0255,91.0057 44.5,91.5C 43.6365,89.2287 43.6365,86.8954 44.5,84.5C 44.5,84.1667 44.5,83.8333 44.5,83.5 Z"/></g>
<g><path style="opacity:1" fill="#5f5447" d="M 67.5,85.5 C 67.8333,85.5 68.1667,85.5 68.5,85.5C 68.2465,87.4008 68.5798,88.0674 69.5,87.5C 70.1667,87.1667 70.8333,86.8333 71.5,86.5C 71.5,87.1667 71.8333,87.5 72.5,87.5C 72.5,88.1667 72.5,88.8333 72.5,89.5C 71.1667,89.5 69.8333,89.5 68.5,89.5C 67.0755,91.0311 66.4088,90.6977 66.5,88.5C 67.404,87.791 67.7373,86.791 67.5,85.5 Z"/></g>
<g><path style="opacity:1" fill="#857b6d" d="M 68.5,89.5 C 69.8333,89.5 71.1667,89.5 72.5,89.5C 71.8333,90.8333 70.8333,91.8333 69.5,92.5C 68.596,91.791 68.2627,90.791 68.5,89.5 Z"/></g>
<g><path style="opacity:0.333" fill="#bbb4a7" d="M 66.5,88.5 C 66.4088,90.6977 67.0755,91.0311 68.5,89.5C 68.2627,90.791 68.596,91.791 69.5,92.5C 68.7494,93.5735 67.7494,93.7401 66.5,93C 65.9993,91.6285 65.9993,90.1285 66.5,88.5 Z"/></g>
</svg>
