<?xml version="1.0" encoding="UTF-8"?>
<!DOCTYPE svg PUBLIC "-//W3C//DTD SVG 1.1//EN" "http://www.w3.org/Graphics/SVG/1.1/DTD/svg11.dtd">
<svg xmlns="http://www.w3.org/2000/svg" version="1.1" width="128px" height="128px" style="shape-rendering:geometricPrecision; text-rendering:geometricPrecision; image-rendering:optimizeQuality; fill-rule:evenodd; clip-rule:evenodd" xmlns:xlink="http://www.w3.org/1999/xlink">
<g><path style="opacity:1" fill="#0e0e0d" d="M 45.5,31.5 C 49.0487,31.4392 52.3821,32.2725 55.5,34C 59.1667,36.3333 62.8333,38.6667 66.5,41C 74.948,41.7304 83.2813,43.0638 91.5,45C 99.2751,49.7764 106.775,54.943 114,60.5C 114.682,64.1802 113.182,66.6802 109.5,68C 100.334,71.2912 91.0003,73.9579 81.5,76C 78.9009,76.769 76.4009,76.6023 74,75.5C 69.5776,79.7899 64.411,82.4566 58.5,83.5C 58.7824,80.6533 58.7824,77.9866 58.5,75.5C 54.8333,77.6667 51.1667,79.8333 47.5,82C 45.5273,82.4955 43.5273,82.6621 41.5,82.5C 44.0197,73.8868 41.5197,67.2201 34,62.5C 27.8502,64.9955 21.6836,67.4955 15.5,70C 13.5594,70.7429 11.7261,70.5762 10,69.5C 12.1325,65.02 15.4659,61.3534 20,58.5C 19.8261,54.5947 18.1595,51.2614 15,48.5C 13.5886,46.3496 12.7553,44.0163 12.5,41.5C 14.5643,41.687 16.5643,42.187 18.5,43C 23.9619,45.6376 29.2953,48.4709 34.5,51.5C 40.5229,50.1037 46.5229,48.6037 52.5,47C 51.6667,46.1667 50.8333,45.3333 50,44.5C 49.0601,39.9576 47.5601,35.6243 45.5,31.5 Z"/></g>
</svg>
