<?xml version="1.0" encoding="UTF-8"?>
<!DOCTYPE svg PUBLIC "-//W3C//DTD SVG 1.1//EN" "http://www.w3.org/Graphics/SVG/1.1/DTD/svg11.dtd">
<svg xmlns="http://www.w3.org/2000/svg" version="1.1" width="128px" height="128px" style="shape-rendering:geometricPrecision; text-rendering:geometricPrecision; image-rendering:optimizeQuality; fill-rule:evenodd; clip-rule:evenodd" xmlns:xlink="http://www.w3.org/1999/xlink">
<g><path style="opacity:0.853" fill="#cec4c0" d="M 52.5,33.5 C 51.8333,33.5 51.1667,33.5 50.5,33.5C 49.5028,33.4701 48.8361,33.9701 48.5,35C 50.2147,38.3091 51.2147,41.8091 51.5,45.5C 49.8526,41.193 47.8526,36.8597 45.5,32.5C 48.1411,31.1644 50.4745,31.4977 52.5,33.5 Z"/></g>
<g><path style="opacity:1" fill="#b29991" d="M 50.5,33.5 C 51.1667,33.5 51.8333,33.5 52.5,33.5C 52.8333,33.5 53.1667,33.5 53.5,33.5C 54.5274,35.1942 55.8608,36.5275 57.5,37.5C 57.8333,38.1667 58.1667,38.8333 58.5,39.5C 57.2652,39.7214 56.2652,40.3881 55.5,41.5C 54.4717,39.6385 52.9717,38.3052 51,37.5C 50.51,36.2068 50.3433,34.8734 50.5,33.5 Z"/></g>
<g><path style="opacity:0.461" fill="#bdb4b1" d="M 53.5,33.5 C 56.7043,34.3833 59.3709,36.0499 61.5,38.5C 60.1667,38.1667 58.8333,37.8333 57.5,37.5C 55.8608,36.5275 54.5274,35.1942 53.5,33.5 Z"/></g>
<g><path style="opacity:1" fill="#bca59c" d="M 50.5,33.5 C 50.3433,34.8734 50.51,36.2068 51,37.5C 52.9717,38.3052 54.4717,39.6385 55.5,41.5C 56.2652,40.3881 57.2652,39.7214 58.5,39.5C 59.7095,39.9321 60.7095,40.5987 61.5,41.5C 60.7784,41.9175 60.2784,42.5842 60,43.5C 59.586,43.0426 59.086,42.7093 58.5,42.5C 57.4763,43.8532 56.143,44.5198 54.5,44.5C 54.5,45.5 54.5,46.5 54.5,47.5C 53.8333,47.5 53.1667,47.5 52.5,47.5C 52.1667,46.8333 51.8333,46.1667 51.5,45.5C 51.2147,41.8091 50.2147,38.3091 48.5,35C 48.8361,33.9701 49.5028,33.4701 50.5,33.5 Z"/></g>
<g><path style="opacity:0.941" fill="#8c7d78" d="M 57.5,37.5 C 58.8333,37.8333 60.1667,38.1667 61.5,38.5C 62.5274,40.1942 63.8608,41.5275 65.5,42.5C 64.8333,42.8333 64.1667,43.1667 63.5,43.5C 63.1667,42.5 62.5,41.8333 61.5,41.5C 60.7095,40.5987 59.7095,39.9321 58.5,39.5C 58.1667,38.8333 57.8333,38.1667 57.5,37.5 Z"/></g>
<g><path style="opacity:0.016" fill="#b6b5b4" d="M 61.5,38.5 C 64.9726,40.5664 68.6393,41.8998 72.5,42.5C 70.477,42.7153 68.1437,42.7153 65.5,42.5C 63.8608,41.5275 62.5274,40.1942 61.5,38.5 Z"/></g>
<g><path style="opacity:1" fill="#b6a098" d="M 61.5,41.5 C 62.5,41.8333 63.1667,42.5 63.5,43.5C 60.5,44.8333 57.5,46.1667 54.5,47.5C 54.5,46.5 54.5,45.5 54.5,44.5C 56.143,44.5198 57.4763,43.8532 58.5,42.5C 59.086,42.7093 59.586,43.0426 60,43.5C 60.2784,42.5842 60.7784,41.9175 61.5,41.5 Z"/></g>
<g><path style="opacity:0.106" fill="#a6a9a8" d="M 73.5,42.5 C 78.7831,42.0956 83.7831,42.7623 88.5,44.5C 87.5,44.5 86.5,44.5 85.5,44.5C 81.3357,44.0443 77.3357,43.3777 73.5,42.5 Z"/></g>
<g><path style="opacity:0.506" fill="#d5c9c5" d="M 21.5,45.5 C 19.6336,44.9862 17.8003,44.3195 16,43.5C 14.3167,44.1765 14.1501,45.1765 15.5,46.5C 16.6005,47.6049 17.2671,48.9382 17.5,50.5C 14.5505,48.2725 12.8838,45.2725 12.5,41.5C 16.1024,41.6924 19.1024,43.0257 21.5,45.5 Z"/></g>
<g><path style="opacity:1" fill="#767877" d="M 63.5,43.5 C 68.5,44.1667 73.5,44.8333 78.5,45.5C 75.1667,45.5 71.8333,45.5 68.5,45.5C 64.8405,45.1588 61.5072,45.8255 58.5,47.5C 55.6027,48.129 52.936,49.129 50.5,50.5C 49.1667,50.5 47.8333,50.5 46.5,50.5C 48.5,49.5 50.5,48.5 52.5,47.5C 53.1667,47.5 53.8333,47.5 54.5,47.5C 57.5,46.1667 60.5,44.8333 63.5,43.5 Z"/></g>
<g><path style="opacity:1" fill="#606463" d="M 65.5,42.5 C 68.1437,42.7153 70.477,42.7153 72.5,42.5C 72.8333,42.5 73.1667,42.5 73.5,42.5C 77.3357,43.3777 81.3357,44.0443 85.5,44.5C 84.791,45.404 83.791,45.7373 82.5,45.5C 81.1667,45.5 79.8333,45.5 78.5,45.5C 73.5,44.8333 68.5,44.1667 63.5,43.5C 64.1667,43.1667 64.8333,42.8333 65.5,42.5 Z"/></g>
<g><path style="opacity:1" fill="#af978f" d="M 21.5,45.5 C 22.9869,46.8036 24.6536,47.9702 26.5,49C 27.7383,49.69 27.7383,50.19 26.5,50.5C 23.1326,48.3772 19.466,47.0439 15.5,46.5C 14.1501,45.1765 14.3167,44.1765 16,43.5C 17.8003,44.3195 19.6336,44.9862 21.5,45.5 Z"/></g>
<g><path style="opacity:1" fill="#929694" d="M 68.5,45.5 C 71.8333,45.5 75.1667,45.5 78.5,45.5C 79.8333,45.5 81.1667,45.5 82.5,45.5C 84.42,46.0652 86.0867,47.0652 87.5,48.5C 84.1667,48.1667 80.8333,47.8333 77.5,47.5C 74.8127,47.6641 72.146,47.4974 69.5,47C 68.944,46.6174 68.6107,46.1174 68.5,45.5 Z"/></g>
<g><path style="opacity:0.557" fill="#c1c1c1" d="M 89.5,44.5 C 91.153,44.6596 92.4863,45.3263 93.5,46.5C 91.5168,46.8432 90.1834,46.1765 89.5,44.5 Z"/></g>
<g><path style="opacity:1" fill="#7f8382" d="M 68.5,45.5 C 68.6107,46.1174 68.944,46.6174 69.5,47C 72.146,47.4974 74.8127,47.6641 77.5,47.5C 77.5,48.1667 77.5,48.8333 77.5,49.5C 77.1667,49.5 76.8333,49.5 76.5,49.5C 75.9032,48.8614 75.0698,48.528 74,48.5C 72.3933,49.0735 70.8933,49.7402 69.5,50.5C 68.791,49.596 67.791,49.2627 66.5,49.5C 66.3893,48.8826 66.056,48.3826 65.5,48C 63.1902,47.5034 60.8568,47.3367 58.5,47.5C 61.5072,45.8255 64.8405,45.1588 68.5,45.5 Z"/></g>
<g><path style="opacity:1" fill="#777878" d="M 85.5,44.5 C 86.5,44.5 87.5,44.5 88.5,44.5C 88.8333,44.5 89.1667,44.5 89.5,44.5C 90.1834,46.1765 91.5168,46.8432 93.5,46.5C 94.1667,46.5 94.5,46.8333 94.5,47.5C 93.209,47.2627 92.209,47.596 91.5,48.5C 90.1667,48.5 88.8333,48.5 87.5,48.5C 86.0867,47.0652 84.42,46.0652 82.5,45.5C 83.791,45.7373 84.791,45.404 85.5,44.5 Z"/></g>
<g><path style="opacity:1" fill="#b8a49b" d="M 15.5,46.5 C 19.466,47.0439 23.1326,48.3772 26.5,50.5C 27.6715,51.3446 29.0048,52.0113 30.5,52.5C 30.5,53.8333 30.5,55.1667 30.5,56.5C 30.5,57.1667 30.5,57.8333 30.5,58.5C 29.8333,58.1667 29.1667,57.8333 28.5,57.5C 27.1762,52.3366 23.8429,49.8366 18.5,50C 19.5822,51.3297 20.2488,52.8297 20.5,54.5C 18.7376,53.7377 17.7376,52.4044 17.5,50.5C 17.2671,48.9382 16.6005,47.6049 15.5,46.5 Z"/></g>
<g><path style="opacity:0.51" fill="#adaead" d="M 52.5,47.5 C 50.5,48.5 48.5,49.5 46.5,50.5C 45.8333,50.5 45.1667,50.5 44.5,50.5C 44.5,50.1667 44.5,49.8333 44.5,49.5C 46.9052,48.2318 49.5718,47.5651 52.5,47.5 Z"/></g>
<g><path style="opacity:1" fill="#878a8a" d="M 58.5,47.5 C 60.8568,47.3367 63.1902,47.5034 65.5,48C 66.056,48.3826 66.3893,48.8826 66.5,49.5C 61.8189,49.6686 57.1522,50.0019 52.5,50.5C 51.8333,50.5 51.1667,50.5 50.5,50.5C 52.936,49.129 55.6027,48.129 58.5,47.5 Z"/></g>
<g><path style="opacity:1" fill="#858888" d="M 76.5,49.5 C 76.0618,49.4346 75.7284,49.6012 75.5,50C 76.1667,50.3333 76.8333,50.6667 77.5,51C 73.5138,51.4988 69.5138,51.6655 65.5,51.5C 66.5676,50.5655 67.901,50.2322 69.5,50.5C 70.8933,49.7402 72.3933,49.0735 74,48.5C 75.0698,48.528 75.9032,48.8614 76.5,49.5 Z"/></g>
<g><path style="opacity:1" fill="#878a89" d="M 77.5,47.5 C 80.8333,47.8333 84.1667,48.1667 87.5,48.5C 88.8333,48.5 90.1667,48.5 91.5,48.5C 92.1667,48.5 92.5,48.8333 92.5,49.5C 87.5,49.5 82.5,49.5 77.5,49.5C 77.5,48.8333 77.5,48.1667 77.5,47.5 Z"/></g>
<g><path style="opacity:1" fill="#7e8181" d="M 66.5,49.5 C 67.791,49.2627 68.791,49.596 69.5,50.5C 67.901,50.2322 66.5676,50.5655 65.5,51.5C 64.8333,51.5 64.1667,51.5 63.5,51.5C 62.1667,51.5 60.8333,51.5 59.5,51.5C 56.9407,51.8016 54.6074,51.4682 52.5,50.5C 57.1522,50.0019 61.8189,49.6686 66.5,49.5 Z"/></g>
<g><path style="opacity:1" fill="#8e908f" d="M 76.5,49.5 C 76.8333,49.5 77.1667,49.5 77.5,49.5C 82.5,49.5 87.5,49.5 92.5,49.5C 93.1667,49.5 93.5,49.8333 93.5,50.5C 85.1667,51.1667 76.8333,51.8333 68.5,52.5C 66.8333,52.5 65.1667,52.5 63.5,52.5C 63.5,52.1667 63.5,51.8333 63.5,51.5C 64.1667,51.5 64.8333,51.5 65.5,51.5C 69.5138,51.6655 73.5138,51.4988 77.5,51C 76.8333,50.6667 76.1667,50.3333 75.5,50C 75.7284,49.6012 76.0618,49.4346 76.5,49.5 Z"/></g>
<g><path style="opacity:0.576" fill="#a7a9a8" d="M 95.5,47.5 C 97.754,48.1237 99.4206,49.457 100.5,51.5C 98.2054,50.8645 96.5387,49.5311 95.5,47.5 Z"/></g>
<g><path style="opacity:1" fill="#b0978e" d="M 28.5,57.5 C 28.6716,58.4916 28.3382,59.1583 27.5,59.5C 26.8423,58.6016 26.1757,57.6016 25.5,56.5C 24.787,58.435 23.787,58.7683 22.5,57.5C 22.573,55.9731 21.9063,54.9731 20.5,54.5C 20.2488,52.8297 19.5822,51.3297 18.5,50C 23.8429,49.8366 27.1762,52.3366 28.5,57.5 Z"/></g>
<g><path style="opacity:1" fill="#c5b6b2" d="M 21.5,45.5 C 23.3084,45.4914 24.9751,45.9914 26.5,47C 28.7472,48.2775 30.7472,49.7775 32.5,51.5C 31.5084,51.3284 30.8417,51.6618 30.5,52.5C 29.0048,52.0113 27.6715,51.3446 26.5,50.5C 27.7383,50.19 27.7383,49.69 26.5,49C 24.6536,47.9702 22.9869,46.8036 21.5,45.5 Z"/></g>
<g><path style="opacity:0.89" fill="#b6b9b8" d="M 43.5,49.5 C 43.38,50.5862 42.7133,51.2528 41.5,51.5C 40.5836,51.4573 39.9169,51.1239 39.5,50.5C 40.8333,50.1667 42.1667,49.8333 43.5,49.5 Z"/></g>
<g><path style="opacity:1" fill="#959796" d="M 93.5,50.5 C 94.1667,50.5 94.5,50.8333 94.5,51.5C 88.2998,51.7477 82.1331,52.4143 76,53.5C 73.3097,53.4971 70.8097,53.1638 68.5,52.5C 76.8333,51.8333 85.1667,51.1667 93.5,50.5 Z"/></g>
<g><path style="opacity:1" fill="#878989" d="M 44.5,50.5 C 45.1667,50.5 45.8333,50.5 46.5,50.5C 47.8333,50.5 49.1667,50.5 50.5,50.5C 51.1667,50.5 51.8333,50.5 52.5,50.5C 54.6074,51.4682 56.9407,51.8016 59.5,51.5C 55.0189,52.6484 50.3522,52.8151 45.5,52C 44.944,51.6174 44.6107,51.1174 44.5,50.5 Z"/></g>
<g><path style="opacity:1" fill="#8b8d8c" d="M 43.5,49.5 C 43.8333,49.5 44.1667,49.5 44.5,49.5C 44.5,49.8333 44.5,50.1667 44.5,50.5C 44.6107,51.1174 44.944,51.6174 45.5,52C 50.3522,52.8151 55.0189,52.6484 59.5,51.5C 60.8333,51.5 62.1667,51.5 63.5,51.5C 63.5,51.8333 63.5,52.1667 63.5,52.5C 62.391,52.5569 61.391,52.8902 60.5,53.5C 50.6826,53.7683 41.0159,53.7683 31.5,53.5C 34.0783,53.0195 36.4116,52.0195 38.5,50.5C 38.8333,50.5 39.1667,50.5 39.5,50.5C 39.9169,51.1239 40.5836,51.4573 41.5,51.5C 42.7133,51.2528 43.38,50.5862 43.5,49.5 Z"/></g>
<g><path style="opacity:1" fill="#686b6b" d="M 91.5,48.5 C 92.209,47.596 93.209,47.2627 94.5,47.5C 94.8333,47.5 95.1667,47.5 95.5,47.5C 96.5387,49.5311 98.2054,50.8645 100.5,51.5C 100.719,52.675 100.386,53.675 99.5,54.5C 98.1482,53.4756 96.8149,52.4756 95.5,51.5C 95.1667,51.5 94.8333,51.5 94.5,51.5C 94.5,50.8333 94.1667,50.5 93.5,50.5C 93.5,49.8333 93.1667,49.5 92.5,49.5C 92.5,48.8333 92.1667,48.5 91.5,48.5 Z"/></g>
<g><path style="opacity:1" fill="#949696" d="M 31.5,53.5 C 41.0159,53.7683 50.6826,53.7683 60.5,53.5C 60.5,53.8333 60.5,54.1667 60.5,54.5C 59.8333,54.5 59.1667,54.5 58.5,54.5C 52.155,54.6527 45.8217,54.986 39.5,55.5C 36.6697,55.0372 34.003,54.3705 31.5,53.5 Z"/></g>
<g><path style="opacity:1" fill="#9ea09f" d="M 94.5,51.5 C 94.8333,51.5 95.1667,51.5 95.5,51.5C 95.5,51.8333 95.5,52.1667 95.5,52.5C 92.8333,52.5 90.1667,52.5 87.5,52.5C 85.6214,52.3932 85.2881,52.8932 86.5,54C 80.8431,54.4994 75.1764,54.6661 69.5,54.5C 66.5,54.5 63.5,54.5 60.5,54.5C 60.5,54.1667 60.5,53.8333 60.5,53.5C 61.391,52.8902 62.391,52.5569 63.5,52.5C 65.1667,52.5 66.8333,52.5 68.5,52.5C 70.8097,53.1638 73.3097,53.4971 76,53.5C 82.1331,52.4143 88.2998,51.7477 94.5,51.5 Z"/></g>
<g><path style="opacity:1" fill="#a6a7a7" d="M 87.5,52.5 C 88.1098,53.391 88.4431,54.391 88.5,55.5C 81.9597,56.0401 75.6263,56.0401 69.5,55.5C 69.5,55.1667 69.5,54.8333 69.5,54.5C 75.1764,54.6661 80.8431,54.4994 86.5,54C 85.2881,52.8932 85.6214,52.3932 87.5,52.5 Z"/></g>
<g><path style="opacity:1" fill="#b0b1ae" d="M 87.5,52.5 C 90.1667,52.5 92.8333,52.5 95.5,52.5C 95.4431,53.609 95.1098,54.609 94.5,55.5C 93.8333,56.5 93.1667,57.5 92.5,58.5C 90.5,58.1667 88.5,57.8333 86.5,57.5C 87.1667,56.8333 87.8333,56.1667 88.5,55.5C 88.4431,54.391 88.1098,53.391 87.5,52.5 Z"/></g>
<g><path style="opacity:1" fill="#a9aaa9" d="M 38.5,50.5 C 36.4116,52.0195 34.0783,53.0195 31.5,53.5C 34.003,54.3705 36.6697,55.0372 39.5,55.5C 39.5,55.8333 39.5,56.1667 39.5,56.5C 38.2976,57.4054 36.9643,57.4054 35.5,56.5C 33.8333,56.5 32.1667,56.5 30.5,56.5C 30.5,55.1667 30.5,53.8333 30.5,52.5C 30.8417,51.6618 31.5084,51.3284 32.5,51.5C 34.5648,51.4828 36.5648,51.1495 38.5,50.5 Z"/></g>
<g><path style="opacity:1" fill="#a1a4a3" d="M 58.5,54.5 C 56.4066,55.0576 54.9066,56.3909 54,58.5C 50.2893,57.0822 46.1226,56.4155 41.5,56.5C 40.8333,56.5 40.1667,56.5 39.5,56.5C 39.5,56.1667 39.5,55.8333 39.5,55.5C 45.8217,54.986 52.155,54.6527 58.5,54.5 Z"/></g>
<g><path style="opacity:1" fill="#b1b3b2" d="M 60.5,54.5 C 63.5,54.5 66.5,54.5 69.5,54.5C 69.5,54.8333 69.5,55.1667 69.5,55.5C 69.8333,56.1667 70.1667,56.8333 70.5,57.5C 68.8762,57.3601 67.7096,58.0267 67,59.5C 64.6232,57.4798 62.1232,56.4798 59.5,56.5C 59.8333,55.8333 60.1667,55.1667 60.5,54.5 Z"/></g>
<g><path style="opacity:0.224" fill="#adafaf" d="M 105.5,54.5 C 107.674,54.7497 109.341,55.7497 110.5,57.5C 108.326,57.2503 106.659,56.2503 105.5,54.5 Z"/></g>
<g><path style="opacity:1" fill="#babbb9" d="M 30.5,56.5 C 32.1667,56.5 33.8333,56.5 35.5,56.5C 37.5803,58.387 39.9136,60.0537 42.5,61.5C 41.8333,61.5 41.1667,61.5 40.5,61.5C 39.8333,61.5 39.1667,61.5 38.5,61.5C 38.44,60.9569 38.1067,60.6236 37.5,60.5C 35.4705,61.1717 33.4705,61.8384 31.5,62.5C 31.5674,61.0413 31.2341,59.7079 30.5,58.5C 30.5,57.8333 30.5,57.1667 30.5,56.5 Z"/></g>
<g><path style="opacity:1" fill="#a6a8a7" d="M 58.5,54.5 C 59.1667,54.5 59.8333,54.5 60.5,54.5C 60.1667,55.1667 59.8333,55.8333 59.5,56.5C 57.8564,56.8102 56.8564,57.8102 56.5,59.5C 52.9026,60.2159 49.4026,59.5492 46,57.5C 45.6174,58.056 45.1174,58.3893 44.5,58.5C 43.2905,58.0679 42.2905,57.4013 41.5,56.5C 46.1226,56.4155 50.2893,57.0822 54,58.5C 54.9066,56.3909 56.4066,55.0576 58.5,54.5 Z"/></g>
<g><path style="opacity:1" fill="#b8baba" d="M 59.5,56.5 C 62.1232,56.4798 64.6232,57.4798 67,59.5C 67.7096,58.0267 68.8762,57.3601 70.5,57.5C 70.4431,58.609 70.1098,59.609 69.5,60.5C 66.9364,61.3596 63.9364,61.3596 60.5,60.5C 59.2946,59.3143 57.9613,59.3143 56.5,60.5C 56.5,60.1667 56.5,59.8333 56.5,59.5C 56.8564,57.8102 57.8564,56.8102 59.5,56.5 Z"/></g>
<g><path style="opacity:1" fill="#a9a4a2" d="M 94.5,55.5 C 95.7545,55.5011 97.0878,55.8344 98.5,56.5C 95.2244,57.1216 93.8911,59.1216 94.5,62.5C 96.1897,66.5118 95.523,67.1784 92.5,64.5C 92.5,63.8333 92.5,63.1667 92.5,62.5C 92.5,61.1667 92.5,59.8333 92.5,58.5C 93.1667,57.5 93.8333,56.5 94.5,55.5 Z"/></g>
<g><path style="opacity:1" fill="#939596" d="M 95.5,51.5 C 96.8149,52.4756 98.1482,53.4756 99.5,54.5C 100.386,53.675 100.719,52.675 100.5,51.5C 102.434,52.1103 104.101,53.1103 105.5,54.5C 104.178,54.67 103.011,54.3366 102,53.5C 101.833,54 101.667,54.5 101.5,55C 102.682,56.7351 104.349,57.7351 106.5,58C 105.748,58.6708 105.414,59.5041 105.5,60.5C 104.609,59.8902 103.609,59.5569 102.5,59.5C 102.44,58.9569 102.107,58.6236 101.5,58.5C 100.614,59.325 100.281,60.325 100.5,61.5C 99.6618,61.1583 99.3284,60.4916 99.5,59.5C 99.7373,58.209 99.404,57.209 98.5,56.5C 97.0878,55.8344 95.7545,55.5011 94.5,55.5C 95.1098,54.609 95.4431,53.609 95.5,52.5C 95.5,52.1667 95.5,51.8333 95.5,51.5 Z"/></g>
<g><path style="opacity:1" fill="#b59b94" d="M 27.5,59.5 C 27.9175,60.2216 28.5842,60.7216 29.5,61C 27.6536,62.0298 25.9869,63.1964 24.5,64.5C 23.8333,65.1667 23.1667,65.8333 22.5,66.5C 21.5,66.5 20.5,66.5 19.5,66.5C 20.0906,65.8485 20.7573,65.1818 21.5,64.5C 20.3595,63.5745 20.3595,62.7412 21.5,62C 20.9056,61.5357 20.2389,61.369 19.5,61.5C 20.7888,60.3634 21.7888,59.0301 22.5,57.5C 23.787,58.7683 24.787,58.435 25.5,56.5C 26.1757,57.6016 26.8423,58.6016 27.5,59.5 Z"/></g>
<g><path style="opacity:1" fill="#b0b0ad" d="M 70.5,57.5 C 72.4918,57.3285 74.1585,57.9951 75.5,59.5C 78.8989,57.6878 82.5656,57.0211 86.5,57.5C 86.0679,58.7095 85.4013,59.7095 84.5,60.5C 79.2649,61.7323 74.2649,61.7323 69.5,60.5C 70.1098,59.609 70.4431,58.609 70.5,57.5 Z"/></g>
<g><path style="opacity:1" fill="#b5b6b5" d="M 35.5,56.5 C 36.9643,57.4054 38.2976,57.4054 39.5,56.5C 40.1667,56.5 40.8333,56.5 41.5,56.5C 42.2905,57.4013 43.2905,58.0679 44.5,58.5C 44.5,58.8333 44.5,59.1667 44.5,59.5C 43.6618,59.8417 43.3284,60.5084 43.5,61.5C 43.1667,61.5 42.8333,61.5 42.5,61.5C 39.9136,60.0537 37.5803,58.387 35.5,56.5 Z"/></g>
<g><path style="opacity:1" fill="#abacab" d="M 69.5,55.5 C 75.6263,56.0401 81.9597,56.0401 88.5,55.5C 87.8333,56.1667 87.1667,56.8333 86.5,57.5C 82.5656,57.0211 78.8989,57.6878 75.5,59.5C 74.1585,57.9951 72.4918,57.3285 70.5,57.5C 70.1667,56.8333 69.8333,56.1667 69.5,55.5 Z"/></g>
<g><path style="opacity:1" fill="#817e7b" d="M 105.5,54.5 C 106.659,56.2503 108.326,57.2503 110.5,57.5C 110.5,59.1667 110.5,60.8333 110.5,62.5C 109.778,62.0825 109.278,61.4158 109,60.5C 107.708,61.7911 106.542,61.7911 105.5,60.5C 105.414,59.5041 105.748,58.6708 106.5,58C 104.349,57.7351 102.682,56.7351 101.5,55C 101.667,54.5 101.833,54 102,53.5C 103.011,54.3366 104.178,54.67 105.5,54.5 Z"/></g>
<g><path style="opacity:1" fill="#bebebb" d="M 44.5,59.5 C 48.2402,62.9816 52.2402,63.3149 56.5,60.5C 57.9613,59.3143 59.2946,59.3143 60.5,60.5C 57.9028,60.7208 57.9028,61.2208 60.5,62C 59.2625,62.2321 58.2625,62.7321 57.5,63.5C 52.5698,63.966 47.9032,63.2994 43.5,61.5C 43.3284,60.5084 43.6618,59.8417 44.5,59.5 Z"/></g>
<g><path style="opacity:0.841" fill="#a0a0a0" d="M 110.5,57.5 C 111.833,58.1667 112.833,59.1667 113.5,60.5C 113.179,62.0481 112.179,62.7148 110.5,62.5C 110.5,60.8333 110.5,59.1667 110.5,57.5 Z"/></g>
<g><path style="opacity:0.831" fill="#d2c4c0" d="M 20.5,54.5 C 21.9063,54.9731 22.573,55.9731 22.5,57.5C 21.7888,59.0301 20.7888,60.3634 19.5,61.5C 16.7978,63.221 14.1311,64.8876 11.5,66.5C 13.8337,63.3338 16.6671,60.6671 20,58.5C 20.49,57.2068 20.6567,55.8734 20.5,54.5 Z"/></g>
<g><path style="opacity:1" fill="#aeafad" d="M 56.5,59.5 C 56.5,59.8333 56.5,60.1667 56.5,60.5C 52.2402,63.3149 48.2402,62.9816 44.5,59.5C 44.5,59.1667 44.5,58.8333 44.5,58.5C 45.1174,58.3893 45.6174,58.056 46,57.5C 49.4026,59.5492 52.9026,60.2159 56.5,59.5 Z"/></g>
<g><path style="opacity:1" fill="#c4c4c2" d="M 60.5,60.5 C 63.9364,61.3596 66.9364,61.3596 69.5,60.5C 69.2627,61.791 69.596,62.791 70.5,63.5C 70.5,64.1667 70.5,64.8333 70.5,65.5C 69.8333,65.5 69.5,65.8333 69.5,66.5C 69.1034,67.525 68.4368,67.6917 67.5,67C 68.3366,65.9887 68.67,64.8221 68.5,63.5C 64.7839,64.6567 61.1172,64.6567 57.5,63.5C 58.2625,62.7321 59.2625,62.2321 60.5,62C 57.9028,61.2208 57.9028,60.7208 60.5,60.5 Z"/></g>
<g><path style="opacity:1" fill="#c4c4c3" d="M 98.5,56.5 C 99.404,57.209 99.7373,58.209 99.5,59.5C 98.5655,60.5676 98.2322,61.901 98.5,63.5C 97.2921,62.7659 95.9587,62.4326 94.5,62.5C 93.8911,59.1216 95.2244,57.1216 98.5,56.5 Z"/></g>
<g><path style="opacity:1" fill="#af9a93" d="M 28.5,57.5 C 29.1667,57.8333 29.8333,58.1667 30.5,58.5C 31.2341,59.7079 31.5674,61.0413 31.5,62.5C 29.2986,63.5664 26.9653,64.233 24.5,64.5C 25.9869,63.1964 27.6536,62.0298 29.5,61C 28.5842,60.7216 27.9175,60.2216 27.5,59.5C 28.3382,59.1583 28.6716,58.4916 28.5,57.5 Z"/></g>
<g><path style="opacity:1" fill="#b9b8b6" d="M 69.5,60.5 C 74.2649,61.7323 79.2649,61.7323 84.5,60.5C 84.4431,61.609 84.1098,62.609 83.5,63.5C 78.8572,63.3927 74.5238,63.3927 70.5,63.5C 69.596,62.791 69.2627,61.791 69.5,60.5 Z"/></g>
<g><path style="opacity:1" fill="#c0c0bd" d="M 86.5,57.5 C 88.5,57.8333 90.5,58.1667 92.5,58.5C 92.5,59.8333 92.5,61.1667 92.5,62.5C 89.4824,62.7038 86.4824,63.0371 83.5,63.5C 84.1098,62.609 84.4431,61.609 84.5,60.5C 85.4013,59.7095 86.0679,58.7095 86.5,57.5 Z"/></g>
<g><path style="opacity:1" fill="#c2b2ab" d="M 38.5,61.5 C 39.1667,61.5 39.8333,61.5 40.5,61.5C 41.6935,62.2719 42.6935,63.2719 43.5,64.5C 43.5569,65.609 43.8902,66.609 44.5,67.5C 44.1667,67.5 43.8333,67.5 43.5,67.5C 42.5416,67.0472 41.7083,66.3805 41,65.5C 40.5357,66.0944 40.369,66.7611 40.5,67.5C 39.1667,66.8333 38.1667,65.8333 37.5,64.5C 36.1854,63.1054 36.5188,62.1054 38.5,61.5 Z"/></g>
<g><path style="opacity:1" fill="#c2bab5" d="M 102.5,59.5 C 103.609,59.5569 104.609,59.8902 105.5,60.5C 106.542,61.7911 107.708,61.7911 109,60.5C 109.278,61.4158 109.778,62.0825 110.5,62.5C 110.5,62.8333 110.5,63.1667 110.5,63.5C 106.316,65.3321 103.65,63.9988 102.5,59.5 Z"/></g>
<g><path style="opacity:0.02" fill="#dbd5cf" d="M 38.5,61.5 C 36.5188,62.1054 36.1854,63.1054 37.5,64.5C 35.9826,64.4894 34.8159,63.8228 34,62.5C 30.4109,64.5297 26.5776,65.863 22.5,66.5C 23.1667,65.8333 23.8333,65.1667 24.5,64.5C 26.9653,64.233 29.2986,63.5664 31.5,62.5C 33.4705,61.8384 35.4705,61.1717 37.5,60.5C 38.1067,60.6236 38.44,60.9569 38.5,61.5 Z"/></g>
<g><path style="opacity:1" fill="#c5c5c1" d="M 40.5,61.5 C 41.1667,61.5 41.8333,61.5 42.5,61.5C 42.8333,61.5 43.1667,61.5 43.5,61.5C 47.9032,63.2994 52.5698,63.966 57.5,63.5C 54.8333,64.1667 52.1667,64.8333 49.5,65.5C 48.0387,64.3143 46.7054,64.3143 45.5,65.5C 44.8333,65.1667 44.1667,64.8333 43.5,64.5C 42.6935,63.2719 41.6935,62.2719 40.5,61.5 Z"/></g>
<g><path style="opacity:1" fill="#dfe2df" d="M 102.5,59.5 C 103.65,63.9988 106.316,65.3321 110.5,63.5C 110.586,64.4959 110.252,65.3292 109.5,66C 107.753,66.3519 106.086,66.8519 104.5,67.5C 100.932,67.2407 99.5985,65.2407 100.5,61.5C 100.281,60.325 100.614,59.325 101.5,58.5C 102.107,58.6236 102.44,58.9569 102.5,59.5 Z"/></g>
<g><path style="opacity:1" fill="#d0d0cd" d="M 57.5,63.5 C 61.1172,64.6567 64.7839,64.6567 68.5,63.5C 68.67,64.8221 68.3366,65.9887 67.5,67C 68.4368,67.6917 69.1034,67.525 69.5,66.5C 71.4112,66.5665 73.4112,67.2332 75.5,68.5C 74.4324,69.4345 73.099,69.7678 71.5,69.5C 70.0813,68.5489 68.4147,68.2155 66.5,68.5C 66.6495,67.448 66.4828,66.448 66,65.5C 63.2809,66.4438 60.4475,66.7771 57.5,66.5C 54.9462,66.4188 52.2796,66.0855 49.5,65.5C 52.1667,64.8333 54.8333,64.1667 57.5,63.5 Z"/></g>
<g><path style="opacity:1" fill="#c3c2be" d="M 83.5,63.5 C 83.5,63.8333 83.5,64.1667 83.5,64.5C 79.2315,65.3726 74.8982,65.7059 70.5,65.5C 70.5,64.8333 70.5,64.1667 70.5,63.5C 74.5238,63.3927 78.8572,63.3927 83.5,63.5 Z"/></g>
<g><path style="opacity:1" fill="#b69c93" d="M 19.5,61.5 C 20.2389,61.369 20.9056,61.5357 21.5,62C 20.3595,62.7412 20.3595,63.5745 21.5,64.5C 20.7573,65.1818 20.0906,65.8485 19.5,66.5C 17.8427,67.5755 16.0093,68.2421 14,68.5C 12.6244,68.3158 11.7911,67.6491 11.5,66.5C 14.1311,64.8876 16.7978,63.221 19.5,61.5 Z"/></g>
<g><path style="opacity:1" fill="#d5d3d0" d="M 92.5,62.5 C 92.5,63.1667 92.5,63.8333 92.5,64.5C 91.5,65.1667 90.5,65.8333 89.5,66.5C 88.8333,66.8333 88.1667,67.1667 87.5,67.5C 87.5654,67.0618 87.3988,66.7284 87,66.5C 85.3775,67.0989 83.8775,67.7656 82.5,68.5C 80.8333,68.5 79.1667,68.5 77.5,68.5C 80.0252,68.0233 82.0252,66.6899 83.5,64.5C 83.5,64.1667 83.5,63.8333 83.5,63.5C 86.4824,63.0371 89.4824,62.7038 92.5,62.5 Z"/></g>
<g><path style="opacity:1" fill="#c8b6af" d="M 43.5,64.5 C 44.1667,64.8333 44.8333,65.1667 45.5,65.5C 46.8333,66.5 48.1667,67.5 49.5,68.5C 49.8333,69.5 50.5,70.1667 51.5,70.5C 51.5,71.1667 51.8333,71.5 52.5,71.5C 53.038,73.1172 53.3713,74.7839 53.5,76.5C 50.7279,73.3063 47.7279,70.3063 44.5,67.5C 43.8902,66.609 43.5569,65.609 43.5,64.5 Z"/></g>
<g><path style="opacity:1" fill="#d8d7d3" d="M 45.5,65.5 C 46.7054,64.3143 48.0387,64.3143 49.5,65.5C 52.2796,66.0855 54.9462,66.4188 57.5,66.5C 56.8333,66.5 56.5,66.8333 56.5,67.5C 53.9407,67.1984 51.6074,67.5318 49.5,68.5C 48.1667,67.5 46.8333,66.5 45.5,65.5 Z"/></g>
<g><path style="opacity:1" fill="#cecdc9" d="M 83.5,64.5 C 82.0252,66.6899 80.0252,68.0233 77.5,68.5C 76.6043,67.4937 75.9377,67.4937 75.5,68.5C 73.4112,67.2332 71.4112,66.5665 69.5,66.5C 69.5,65.8333 69.8333,65.5 70.5,65.5C 74.8982,65.7059 79.2315,65.3726 83.5,64.5 Z"/></g>
<g><path style="opacity:1" fill="#d7d3d0" d="M 94.5,62.5 C 95.9587,62.4326 97.2921,62.7659 98.5,63.5C 98.4326,64.9587 98.7659,66.2921 99.5,67.5C 99.5,68.1667 99.1667,68.5 98.5,68.5C 96.7659,67.438 95.0992,67.438 93.5,68.5C 92.8166,66.8235 91.4832,66.1568 89.5,66.5C 90.5,65.8333 91.5,65.1667 92.5,64.5C 95.523,67.1784 96.1897,66.5118 94.5,62.5 Z"/></g>
<g><path style="opacity:1" fill="#cfd0cf" d="M 113.5,60.5 C 114.969,63.1024 114.302,65.269 111.5,67C 108.978,68.3409 106.311,69.1743 103.5,69.5C 103.833,68.8333 104.167,68.1667 104.5,67.5C 106.086,66.8519 107.753,66.3519 109.5,66C 110.252,65.3292 110.586,64.4959 110.5,63.5C 110.5,63.1667 110.5,62.8333 110.5,62.5C 112.179,62.7148 113.179,62.0481 113.5,60.5 Z"/></g>
<g><path style="opacity:1" fill="#e5e5e2" d="M 56.5,67.5 C 58.6896,68.5436 60.8563,68.5436 63,67.5C 63.9947,68.0659 64.828,68.7326 65.5,69.5C 67.6074,70.4682 69.9407,70.8016 72.5,70.5C 72.5,70.8333 72.5,71.1667 72.5,71.5C 67.4561,71.2692 62.4561,70.6026 57.5,69.5C 55.3035,69.5046 53.3035,69.838 51.5,70.5C 50.5,70.1667 49.8333,69.5 49.5,68.5C 51.6074,67.5318 53.9407,67.1984 56.5,67.5 Z"/></g>
<g><path style="opacity:1" fill="#a3a3a1" d="M 99.5,59.5 C 99.3284,60.4916 99.6618,61.1583 100.5,61.5C 99.5985,65.2407 100.932,67.2407 104.5,67.5C 104.167,68.1667 103.833,68.8333 103.5,69.5C 103.5,70.1667 103.167,70.5 102.5,70.5C 101.5,69.5 100.5,68.5 99.5,67.5C 98.7659,66.2921 98.4326,64.9587 98.5,63.5C 98.2322,61.901 98.5655,60.5676 99.5,59.5 Z"/></g>
<g><path style="opacity:0.89" fill="#d0c3bf" d="M 11.5,66.5 C 11.7911,67.6491 12.6244,68.3158 14,68.5C 16.0093,68.2421 17.8427,67.5755 19.5,66.5C 20.5,66.5 21.5,66.5 22.5,66.5C 19.7882,68.6887 16.6215,70.022 13,70.5C 9.26005,70.0459 8.76005,68.7126 11.5,66.5 Z"/></g>
<g><path style="opacity:1" fill="#dadad7" d="M 71.5,69.5 C 69.5,69.5 67.5,69.5 65.5,69.5C 64.828,68.7326 63.9947,68.0659 63,67.5C 60.8563,68.5436 58.6896,68.5436 56.5,67.5C 56.5,66.8333 56.8333,66.5 57.5,66.5C 60.4475,66.7771 63.2809,66.4438 66,65.5C 66.4828,66.448 66.6495,67.448 66.5,68.5C 68.4147,68.2155 70.0813,68.5489 71.5,69.5 Z"/></g>
<g><path style="opacity:1" fill="#edeae8" d="M 98.5,68.5 C 95.7686,70.1981 92.7686,71.5315 89.5,72.5C 88.8933,72.3764 88.56,72.0431 88.5,71.5C 89.922,70.075 91.5887,69.075 93.5,68.5C 95.0992,67.438 96.7659,67.438 98.5,68.5 Z"/></g>
<g><path style="opacity:1" fill="#dddcd9" d="M 77.5,68.5 C 79.1667,68.5 80.8333,68.5 82.5,68.5C 79.4115,69.7846 76.0781,70.4512 72.5,70.5C 69.9407,70.8016 67.6074,70.4682 65.5,69.5C 67.5,69.5 69.5,69.5 71.5,69.5C 73.099,69.7678 74.4324,69.4345 75.5,68.5C 75.9377,67.4937 76.6043,67.4937 77.5,68.5 Z"/></g>
<g><path style="opacity:0.999" fill="#ebebe9" d="M 72.5,71.5 C 78.969,72.948 78.969,73.948 72.5,74.5C 72.1667,74.5 71.8333,74.5 71.5,74.5C 67.8849,74.155 64.5516,74.8217 61.5,76.5C 60.8333,76.5 60.1667,76.5 59.5,76.5C 59.1583,75.6618 58.4916,75.3284 57.5,75.5C 56.2178,73.8205 54.5511,72.4871 52.5,71.5C 51.8333,71.5 51.5,71.1667 51.5,70.5C 53.3035,69.838 55.3035,69.5046 57.5,69.5C 62.4561,70.6026 67.4561,71.2692 72.5,71.5 Z"/></g>
<g><path style="opacity:1" fill="#e3e1dd" d="M 87.5,67.5 C 87.2178,68.7777 86.5511,69.7777 85.5,70.5C 82.4148,70.542 80.0814,71.8753 78.5,74.5C 80.326,74.9202 82.326,74.9202 84.5,74.5C 81.0612,76.6073 77.3946,76.9407 73.5,75.5C 72.8333,75.5 72.5,75.1667 72.5,74.5C 78.969,73.948 78.969,72.948 72.5,71.5C 72.5,71.1667 72.5,70.8333 72.5,70.5C 76.0781,70.4512 79.4115,69.7846 82.5,68.5C 83.8775,67.7656 85.3775,67.0989 87,66.5C 87.3988,66.7284 87.5654,67.0618 87.5,67.5 Z"/></g>
<g><path style="opacity:0.757" fill="#d1d0ce" d="M 99.5,67.5 C 100.5,68.5 101.5,69.5 102.5,70.5C 96.6348,72.4665 90.6348,73.7998 84.5,74.5C 84.5,73.8333 84.8333,73.5 85.5,73.5C 86.5,72.8333 87.5,72.1667 88.5,71.5C 88.56,72.0431 88.8933,72.3764 89.5,72.5C 92.7686,71.5315 95.7686,70.1981 98.5,68.5C 99.1667,68.5 99.5,68.1667 99.5,67.5 Z"/></g>
<g><path style="opacity:0.478" fill="#cfc6c2" d="M 40.5,67.5 C 42.7184,69.6514 44.0517,72.3181 44.5,75.5C 43.5318,77.6074 43.1984,79.9407 43.5,82.5C 42.4138,82.38 41.7472,81.7133 41.5,80.5C 42.8135,76.0452 42.4802,71.7119 40.5,67.5 Z"/></g>
<g><path style="opacity:1" fill="#bda7a1" d="M 89.5,66.5 C 91.4832,66.1568 92.8166,66.8235 93.5,68.5C 91.5887,69.075 89.922,70.075 88.5,71.5C 87.5,72.1667 86.5,72.8333 85.5,73.5C 85.5,72.5 85.5,71.5 85.5,70.5C 86.5511,69.7777 87.2178,68.7777 87.5,67.5C 88.1667,67.1667 88.8333,66.8333 89.5,66.5 Z"/></g>
<g><path style="opacity:1" fill="#a48e88" d="M 43.5,67.5 C 45.1443,70.0045 46.6443,72.6711 48,75.5C 48.9025,76.7014 50.0692,77.5348 51.5,78C 49.559,79.9028 47.2257,80.7361 44.5,80.5C 44.5,78.8333 44.5,77.1667 44.5,75.5C 44.0517,72.3181 42.7184,69.6514 40.5,67.5C 40.369,66.7611 40.5357,66.0944 41,65.5C 41.7083,66.3805 42.5416,67.0472 43.5,67.5 Z"/></g>
<g><path style="opacity:1" fill="#b7a49d" d="M 43.5,67.5 C 43.8333,67.5 44.1667,67.5 44.5,67.5C 47.7279,70.3063 50.7279,73.3063 53.5,76.5C 53.1667,77.1667 52.8333,77.8333 52.5,78.5C 50.1645,81.1648 47.1645,82.4982 43.5,82.5C 43.1984,79.9407 43.5318,77.6074 44.5,75.5C 44.5,77.1667 44.5,78.8333 44.5,80.5C 47.2257,80.7361 49.559,79.9028 51.5,78C 50.0692,77.5348 48.9025,76.7014 48,75.5C 46.6443,72.6711 45.1443,70.0045 43.5,67.5 Z"/></g>
<g><path style="opacity:1" fill="#a99892" d="M 85.5,70.5 C 85.5,71.5 85.5,72.5 85.5,73.5C 84.8333,73.5 84.5,73.8333 84.5,74.5C 82.326,74.9202 80.326,74.9202 78.5,74.5C 80.0814,71.8753 82.4148,70.542 85.5,70.5 Z"/></g>
<g><path style="opacity:0.851" fill="#c6beb9" d="M 52.5,71.5 C 54.5511,72.4871 56.2178,73.8205 57.5,75.5C 56.1007,76.8897 54.4341,77.8897 52.5,78.5C 52.8333,77.8333 53.1667,77.1667 53.5,76.5C 53.3713,74.7839 53.038,73.1172 52.5,71.5 Z"/></g>
<g><path style="opacity:1" fill="#bfa8a3" d="M 71.5,74.5 C 70.3933,76.9689 68.3933,77.9689 65.5,77.5C 64.1667,77.5 62.8333,77.5 61.5,77.5C 61.5,77.1667 61.5,76.8333 61.5,76.5C 64.5516,74.8217 67.8849,74.155 71.5,74.5 Z"/></g>
<g><path style="opacity:1" fill="#bba29a" d="M 61.5,77.5 C 62.8333,77.5 64.1667,77.5 65.5,77.5C 65.5674,78.9587 65.2341,80.2921 64.5,81.5C 63.1667,81.5 61.8333,81.5 60.5,81.5C 60.2322,79.901 60.5655,78.5676 61.5,77.5 Z"/></g>
<g><path style="opacity:0.992" fill="#cdbcb6" d="M 71.5,74.5 C 71.8333,74.5 72.1667,74.5 72.5,74.5C 72.5,75.1667 72.8333,75.5 73.5,75.5C 71.0246,78.2411 68.0246,80.2411 64.5,81.5C 65.2341,80.2921 65.5674,78.9587 65.5,77.5C 68.3933,77.9689 70.3933,76.9689 71.5,74.5 Z"/></g>
<g><path style="opacity:0.996" fill="#cfc1bb" d="M 59.5,76.5 C 60.1667,76.5 60.8333,76.5 61.5,76.5C 61.5,76.8333 61.5,77.1667 61.5,77.5C 60.5655,78.5676 60.2322,79.901 60.5,81.5C 61.8333,81.5 63.1667,81.5 64.5,81.5C 63.0101,83.2798 61.0101,83.9465 58.5,83.5C 58.298,81.0504 58.6314,78.717 59.5,76.5 Z"/></g>
</svg>
