<?xml version="1.0" encoding="UTF-8"?>
<!DOCTYPE svg PUBLIC "-//W3C//DTD SVG 1.1//EN" "http://www.w3.org/Graphics/SVG/1.1/DTD/svg11.dtd">
<svg xmlns="http://www.w3.org/2000/svg" version="1.1" width="128px" height="128px" style="shape-rendering:geometricPrecision; text-rendering:geometricPrecision; image-rendering:optimizeQuality; fill-rule:evenodd; clip-rule:evenodd" xmlns:xlink="http://www.w3.org/1999/xlink">
<g><path style="opacity:0.004" fill="#9b9b97" d="M 83.5,43.5 C 81.2589,43.0461 79.2589,43.0461 77.5,43.5C 76.1667,43.5 74.8333,43.5 73.5,43.5C 73.7058,41.4508 74.5391,41.1175 76,42.5C 76.5696,39.1562 77.7362,38.8228 79.5,41.5C 81.5115,39.3901 82.8449,40.0568 83.5,43.5 Z"/></g>
<g><path style="opacity:0.557" fill="#94938d" d="M 73.5,43.5 C 73.5,43.8333 73.5,44.1667 73.5,44.5C 72.391,44.5569 71.391,44.8902 70.5,45.5C 70.5,44.8333 70.1667,44.5 69.5,44.5C 69.3691,43.6236 69.7025,42.9569 70.5,42.5C 71.4168,43.1272 72.4168,43.4606 73.5,43.5 Z"/></g>
<g><path style="opacity:0.216" fill="#969690" d="M 87.5,45.5 C 86.1667,45.5 84.8333,45.5 83.5,45.5C 83.5,44.8333 83.5,44.1667 83.5,43.5C 85.8293,41.9976 87.1627,42.6643 87.5,45.5 Z"/></g>
<g><path style="opacity:1" fill="#aea879" d="M 77.5,43.5 C 79.2589,43.0461 81.2589,43.0461 83.5,43.5C 83.5,44.1667 83.5,44.8333 83.5,45.5C 83.1959,47.7957 82.1959,48.129 80.5,46.5C 79.7281,45.3065 78.7281,44.3065 77.5,43.5 Z"/></g>
<g><path style="opacity:0.039" fill="#9f9e94" d="M 44.5,47.5 C 47.2933,46.254 49.96,46.5873 52.5,48.5C 51.8333,48.5 51.1667,48.5 50.5,48.5C 48.5648,47.8505 46.5648,47.5172 44.5,47.5 Z"/></g>
<g><path style="opacity:0.318" fill="#98968d" d="M 67.5,46.5 C 67.5,46.8333 67.5,47.1667 67.5,47.5C 65.2459,48.4151 63.2459,49.7484 61.5,51.5C 62.2671,47.6837 64.2671,46.017 67.5,46.5 Z"/></g>
<g><path style="opacity:1" fill="#aba570" d="M 67.5,47.5 C 69.2516,49.2459 70.5849,51.2459 71.5,53.5C 70.209,53.2627 69.209,53.596 68.5,54.5C 66.5,54.5 64.5,54.5 62.5,54.5C 62.1667,54.5 61.8333,54.5 61.5,54.5C 61.5,53.5 61.5,52.5 61.5,51.5C 63.2459,49.7484 65.2459,48.4151 67.5,47.5 Z"/></g>
<g><path style="opacity:1" fill="#b7b07b" d="M 73.5,43.5 C 74.8333,43.5 76.1667,43.5 77.5,43.5C 78.7281,44.3065 79.7281,45.3065 80.5,46.5C 80.5,47.1667 80.5,47.8333 80.5,48.5C 79.5041,48.5858 78.6708,48.2524 78,47.5C 78.0773,48.7376 77.9106,49.7376 77.5,50.5C 76.4822,49.8075 75.4822,49.1408 74.5,48.5C 74.1667,47.1667 73.8333,45.8333 73.5,44.5C 73.5,44.1667 73.5,43.8333 73.5,43.5 Z"/></g>
<g><path style="opacity:0.416" fill="#9a998a" d="M 44.5,47.5 C 43.1007,48.8897 41.4341,49.8897 39.5,50.5C 40.4006,48.2729 42.0672,47.2729 44.5,47.5 Z"/></g>
<g><path style="opacity:1" fill="#afa976" d="M 69.5,44.5 C 70.1667,44.5 70.5,44.8333 70.5,45.5C 71.391,44.8902 72.391,44.5569 73.5,44.5C 73.8333,45.8333 74.1667,47.1667 74.5,48.5C 73.962,50.1172 73.6287,51.7839 73.5,53.5C 72.8333,53.5 72.1667,53.5 71.5,53.5C 70.5849,51.2459 69.2516,49.2459 67.5,47.5C 67.5,47.1667 67.5,46.8333 67.5,46.5C 67.5,45.1667 68.1667,44.5 69.5,44.5 Z"/></g>
<g><path style="opacity:1" fill="#8c8b7e" d="M 87.5,45.5 C 89.8835,46.8851 91.5501,48.8851 92.5,51.5C 92.1667,51.5 91.8333,51.5 91.5,51.5C 90.4863,50.3263 89.153,49.6596 87.5,49.5C 87.5,48.1667 87.5,46.8333 87.5,45.5 Z"/></g>
<g><path style="opacity:1" fill="#939066" d="M 83.5,45.5 C 84.8333,45.5 86.1667,45.5 87.5,45.5C 87.5,46.8333 87.5,48.1667 87.5,49.5C 84.5757,49.8976 82.2424,51.231 80.5,53.5C 79.5,53.5 78.5,53.5 77.5,53.5C 78.7853,52.2147 80.1186,50.8814 81.5,49.5C 81.3764,48.8933 81.0431,48.56 80.5,48.5C 80.5,47.8333 80.5,47.1667 80.5,46.5C 82.1959,48.129 83.1959,47.7957 83.5,45.5 Z"/></g>
<g><path style="opacity:1" fill="#b5af75" d="M 44.5,47.5 C 46.5648,47.5172 48.5648,47.8505 50.5,48.5C 48.0078,51.6747 44.6744,53.3414 40.5,53.5C 39.448,53.6495 38.448,53.4828 37.5,53C 38.3805,52.2917 39.0472,51.4584 39.5,50.5C 41.4341,49.8897 43.1007,48.8897 44.5,47.5 Z"/></g>
<g><path style="opacity:1" fill="#9f9b6e" d="M 80.5,48.5 C 81.0431,48.56 81.3764,48.8933 81.5,49.5C 80.1186,50.8814 78.7853,52.2147 77.5,53.5C 76.1667,53.5 74.8333,53.5 73.5,53.5C 73.6287,51.7839 73.962,50.1172 74.5,48.5C 75.4822,49.1408 76.4822,49.8075 77.5,50.5C 77.9106,49.7376 78.0773,48.7376 78,47.5C 78.6708,48.2524 79.5041,48.5858 80.5,48.5 Z"/></g>
<g><path style="opacity:1" fill="#7c7a56" d="M 87.5,49.5 C 89.153,49.6596 90.4863,50.3263 91.5,51.5C 91.2792,54.0972 90.7792,54.0972 90,51.5C 87.1963,53.3444 84.0297,54.0111 80.5,53.5C 82.2424,51.231 84.5757,49.8976 87.5,49.5 Z"/></g>
<g><path style="opacity:1" fill="#aba675" d="M 50.5,48.5 C 51.1667,48.5 51.8333,48.5 52.5,48.5C 52.9528,49.4584 53.6195,50.2917 54.5,51C 53.9341,51.9947 53.2674,52.828 52.5,53.5C 51.5349,53.5997 50.3683,53.2664 49,52.5C 46.4101,54.273 43.5767,55.273 40.5,55.5C 39.4937,55.0623 39.4937,54.3957 40.5,53.5C 44.6744,53.3414 48.0078,51.6747 50.5,48.5 Z"/></g>
<g><path style="opacity:1" fill="#99967a" d="M 52.5,48.5 C 55.0562,49.5434 57.2228,51.2101 59,53.5C 59.4169,52.244 60.2502,51.5774 61.5,51.5C 61.5,52.5 61.5,53.5 61.5,54.5C 59.2646,54.2053 57.2646,54.5386 55.5,55.5C 54.5,55.5 53.5,55.5 52.5,55.5C 52.5,54.8333 52.5,54.1667 52.5,53.5C 53.2674,52.828 53.9341,51.9947 54.5,51C 53.6195,50.2917 52.9528,49.4584 52.5,48.5 Z"/></g>
<g><path style="opacity:0.941" fill="#afaca1" d="M 11.5,54.5 C 10.5,54.5 9.5,54.5 8.5,54.5C 8.16667,54.5 7.83333,54.5 7.5,54.5C 5.05227,54.0847 3.71893,55.0847 3.5,57.5C 4.17341,59.851 4.84007,62.1843 5.5,64.5C 5.5,64.8333 5.5,65.1667 5.5,65.5C 2.96303,62.3058 2.12969,58.6391 3,54.5C 5.8343,52.3342 8.66763,52.3342 11.5,54.5 Z"/></g>
<g><path style="opacity:0.999" fill="#ada878" d="M 39.5,50.5 C 39.0472,51.4584 38.3805,52.2917 37.5,53C 38.448,53.4828 39.448,53.6495 40.5,53.5C 39.4937,54.3957 39.4937,55.0623 40.5,55.5C 38.678,57.0101 36.678,58.3434 34.5,59.5C 33.325,59.719 32.325,59.3857 31.5,58.5C 33.1897,56.4807 34.8564,54.4807 36.5,52.5C 36.9731,51.0937 37.9731,50.427 39.5,50.5 Z"/></g>
<g><path style="opacity:1" fill="#6d6953" d="M 91.5,51.5 C 91.8333,51.5 92.1667,51.5 92.5,51.5C 92.7148,53.1788 92.0481,54.1788 90.5,54.5C 84.5,54.5 78.5,54.5 72.5,54.5C 71.1667,54.5 69.8333,54.5 68.5,54.5C 69.209,53.596 70.209,53.2627 71.5,53.5C 72.1667,53.5 72.8333,53.5 73.5,53.5C 74.8333,53.5 76.1667,53.5 77.5,53.5C 78.5,53.5 79.5,53.5 80.5,53.5C 84.0297,54.0111 87.1963,53.3444 90,51.5C 90.7792,54.0972 91.2792,54.0972 91.5,51.5 Z"/></g>
<g><path style="opacity:1" fill="#423b2e" d="M 61.5,54.5 C 61.8333,54.5 62.1667,54.5 62.5,54.5C 66.1729,55.9904 70.0062,57.3237 74,58.5C 74.3826,57.944 74.8826,57.6107 75.5,57.5C 75.1667,59.5 74.8333,61.5 74.5,63.5C 73.1054,64.8146 72.1054,64.4812 71.5,62.5C 71.5923,58.9286 69.9257,57.7619 66.5,59C 65.5939,60.6995 65.2606,62.5328 65.5,64.5C 64.8333,64.5 64.5,64.1667 64.5,63.5C 63.962,61.8828 63.6287,60.2161 63.5,58.5C 60.8915,58.4003 58.5582,59.0669 56.5,60.5C 56.3713,58.7839 56.038,57.1172 55.5,55.5C 57.2646,54.5386 59.2646,54.2053 61.5,54.5 Z"/></g>
<g><path style="opacity:1" fill="#362f24" d="M 62.5,54.5 C 64.5,54.5 66.5,54.5 68.5,54.5C 69.8333,54.5 71.1667,54.5 72.5,54.5C 73.5676,55.4345 74.901,55.7678 76.5,55.5C 76.1667,56.1667 75.8333,56.8333 75.5,57.5C 74.8826,57.6107 74.3826,57.944 74,58.5C 70.0062,57.3237 66.1729,55.9904 62.5,54.5 Z"/></g>
<g><path style="opacity:1" fill="#ada8a3" d="M 72.5,54.5 C 78.5,54.5 84.5,54.5 90.5,54.5C 93.9791,55.3577 96.6458,56.6911 98.5,58.5C 96.7085,58.634 95.0418,58.3007 93.5,57.5C 91.8828,56.962 90.2161,56.6287 88.5,56.5C 84.5483,55.7279 80.5483,55.3946 76.5,55.5C 74.901,55.7678 73.5676,55.4345 72.5,54.5 Z"/></g>
<g><path style="opacity:0.878" fill="#9e9a84" d="M 36.5,52.5 C 34.8564,54.4807 33.1897,56.4807 31.5,58.5C 32.325,59.3857 33.325,59.719 34.5,59.5C 35.5676,60.4345 36.901,60.7678 38.5,60.5C 38.1583,61.3382 37.4916,61.6716 36.5,61.5C 35.1667,61.8333 33.8333,62.1667 32.5,62.5C 29.7524,62.4017 29.0857,63.4017 30.5,65.5C 28.2646,65.7947 26.2646,65.4614 24.5,64.5C 26.0481,64.1788 26.7148,63.1788 26.5,61.5C 28.099,61.7678 29.4324,61.4345 30.5,60.5C 29.6971,59.5768 29.5304,58.5768 30,57.5C 31.7772,55.2101 33.9438,53.5434 36.5,52.5 Z"/></g>
<g><path style="opacity:0.698" fill="#8a8885" d="M 92.5,51.5 C 93.2674,52.172 93.9341,53.0053 94.5,54C 97.8234,55.0399 100.823,56.5399 103.5,58.5C 102.209,58.2627 101.209,58.596 100.5,59.5C 99.5084,59.6716 98.8417,59.3382 98.5,58.5C 96.6458,56.6911 93.9791,55.3577 90.5,54.5C 92.0481,54.1788 92.7148,53.1788 92.5,51.5 Z"/></g>
<g><path style="opacity:1" fill="#97946a" d="M 52.5,53.5 C 52.5,54.1667 52.5,54.8333 52.5,55.5C 51.8333,55.5 51.5,55.8333 51.5,56.5C 46.7363,56.7689 42.403,58.1022 38.5,60.5C 36.901,60.7678 35.5676,60.4345 34.5,59.5C 36.678,58.3434 38.678,57.0101 40.5,55.5C 43.5767,55.273 46.4101,54.273 49,52.5C 50.3683,53.2664 51.5349,53.5997 52.5,53.5 Z"/></g>
<g><path style="opacity:1" fill="#504839" d="M 76.5,55.5 C 80.5483,55.3946 84.5483,55.7279 88.5,56.5C 88.5,58.8333 88.5,61.1667 88.5,63.5C 86.8333,63.5 85.1667,63.5 83.5,63.5C 83.3184,61.4086 83.6518,59.4086 84.5,57.5C 82.9547,56.5481 81.288,56.2148 79.5,56.5C 80.1667,59.1667 80.8333,61.8333 81.5,64.5C 79.283,63.6314 76.9496,63.298 74.5,63.5C 74.8333,61.5 75.1667,59.5 75.5,57.5C 75.8333,56.8333 76.1667,56.1667 76.5,55.5 Z"/></g>
<g><path style="opacity:1" fill="#979389" d="M 51.5,56.5 C 52.552,56.3505 53.552,56.5172 54.5,57C 52.6547,58.128 50.6547,58.628 48.5,58.5C 46.5,59.1667 44.5,59.8333 42.5,60.5C 41.1667,60.5 39.8333,60.5 38.5,60.5C 42.403,58.1022 46.7363,56.7689 51.5,56.5 Z"/></g>
<g><path style="opacity:1" fill="#8b8870" d="M 11.5,54.5 C 15.2515,54.9399 18.2515,56.6066 20.5,59.5C 18.7659,58.438 17.0992,58.438 15.5,59.5C 15.6068,57.6214 15.1068,57.2881 14,58.5C 13.51,59.7932 13.3433,61.1266 13.5,62.5C 13.1667,62.5 12.8333,62.5 12.5,62.5C 11.8147,59.7399 11.4814,57.0732 11.5,54.5 Z"/></g>
<g><path style="opacity:1" fill="#625c4a" d="M 48.5,58.5 C 48.6287,60.2161 48.962,61.8828 49.5,63.5C 47.9582,62.6993 46.2915,62.366 44.5,62.5C 44.7373,63.791 44.404,64.791 43.5,65.5C 43.5,65.1667 43.5,64.8333 43.5,64.5C 43.5674,63.0413 43.2341,61.7079 42.5,60.5C 44.5,59.8333 46.5,59.1667 48.5,58.5 Z"/></g>
<g><path style="opacity:1" fill="#504a3b" d="M 51.5,56.5 C 51.5,55.8333 51.8333,55.5 52.5,55.5C 53.5,55.5 54.5,55.5 55.5,55.5C 56.038,57.1172 56.3713,58.7839 56.5,60.5C 54.4143,58.9766 52.7476,59.31 51.5,61.5C 51.573,63.0269 50.9063,64.0269 49.5,64.5C 49.5,64.1667 49.5,63.8333 49.5,63.5C 48.962,61.8828 48.6287,60.2161 48.5,58.5C 50.6547,58.628 52.6547,58.128 54.5,57C 53.552,56.5172 52.552,56.3505 51.5,56.5 Z"/></g>
<g><path style="opacity:1" fill="#3a3427" d="M 83.5,63.5 C 82.8333,63.8333 82.1667,64.1667 81.5,64.5C 80.8333,61.8333 80.1667,59.1667 79.5,56.5C 81.288,56.2148 82.9547,56.5481 84.5,57.5C 83.6518,59.4086 83.3184,61.4086 83.5,63.5 Z"/></g>
<g><path style="opacity:1" fill="#4e4635" d="M 93.5,57.5 C 95.0418,58.3007 96.7085,58.634 98.5,58.5C 98.8417,59.3382 99.5084,59.6716 100.5,59.5C 100.5,59.8333 100.5,60.1667 100.5,60.5C 96.7396,59.7736 94.073,61.1069 92.5,64.5C 91.8333,64.5 91.1667,64.5 90.5,64.5C 90.9255,61.8808 91.9255,59.5475 93.5,57.5 Z"/></g>
<g><path style="opacity:0.988" fill="#9d9a95" d="M 104.5,58.5 C 106.153,58.6596 107.486,59.3263 108.5,60.5C 107.262,61.4124 105.928,61.5791 104.5,61C 103.402,60.2303 103.402,59.397 104.5,58.5 Z"/></g>
<g><path style="opacity:1" fill="#b2ad89" d="M 7.5,54.5 C 7.83333,54.5 8.16667,54.5 8.5,54.5C 8.91753,55.2216 9.5842,55.7216 10.5,56C 10.0998,61.1328 10.0998,66.4662 10.5,72C 9.42317,72.4696 8.42317,72.3029 7.5,71.5C 6.40615,69.1638 5.07282,69.1638 3.5,71.5C 4.16667,69.5 4.83333,67.5 5.5,65.5C 5.5,65.1667 5.5,64.8333 5.5,64.5C 6.23891,64.631 6.90558,64.4643 7.5,64C 6.42679,60.8876 6.42679,57.7209 7.5,54.5 Z"/></g>
<g><path style="opacity:1" fill="#9d9b7f" d="M 8.5,54.5 C 9.5,54.5 10.5,54.5 11.5,54.5C 11.4814,57.0732 11.8147,59.7399 12.5,62.5C 12.2222,66.4732 11.8888,70.4732 11.5,74.5C 12.8333,74.5 14.1667,74.5 15.5,74.5C 15.8333,74.5 16.1667,74.5 16.5,74.5C 14.3877,76.7705 11.721,78.1039 8.5,78.5C 9.44275,76.9988 9.10941,75.6654 7.5,74.5C 7.5,73.5 7.5,72.5 7.5,71.5C 8.42317,72.3029 9.42317,72.4696 10.5,72C 10.0998,66.4662 10.0998,61.1328 10.5,56C 9.5842,55.7216 8.91753,55.2216 8.5,54.5 Z"/></g>
<g><path style="opacity:1" fill="#7d7a5c" d="M 15.5,59.5 C 16.1293,63.0002 15.4626,66.3335 13.5,69.5C 13.5,67.1667 13.5,64.8333 13.5,62.5C 13.3433,61.1266 13.51,59.7932 14,58.5C 15.1068,57.2881 15.6068,57.6214 15.5,59.5 Z"/></g>
<g><path style="opacity:1" fill="#595241" d="M 64.5,63.5 C 61.6467,62.1698 58.98,62.5031 56.5,64.5C 55.9517,61.9162 54.285,60.9162 51.5,61.5C 52.7476,59.31 54.4143,58.9766 56.5,60.5C 58.5582,59.0669 60.8915,58.4003 63.5,58.5C 63.6287,60.2161 63.962,61.8828 64.5,63.5 Z"/></g>
<g><path style="opacity:1" fill="#595240" d="M 71.5,62.5 C 69.2188,62.0773 67.5521,62.744 66.5,64.5C 66.1667,64.5 65.8333,64.5 65.5,64.5C 65.2606,62.5328 65.5939,60.6995 66.5,59C 69.9257,57.7619 71.5923,58.9286 71.5,62.5 Z"/></g>
<g><path style="opacity:1" fill="#3b3428" d="M 88.5,56.5 C 90.2161,56.6287 91.8828,56.962 93.5,57.5C 91.9255,59.5475 90.9255,61.8808 90.5,64.5C 89.5084,64.6716 88.8417,64.3382 88.5,63.5C 88.5,61.1667 88.5,58.8333 88.5,56.5 Z"/></g>
<g><path style="opacity:1" fill="#564f40" d="M 103.5,58.5 C 103.833,58.5 104.167,58.5 104.5,58.5C 103.402,59.397 103.402,60.2303 104.5,61C 105.928,61.5791 107.262,61.4124 108.5,60.5C 109.492,60.3284 110.158,60.6618 110.5,61.5C 111.167,62.1667 111.833,62.8333 112.5,63.5C 111.609,64.1098 110.609,64.4431 109.5,64.5C 109.158,63.6618 108.492,63.3284 107.5,63.5C 105.833,62.1667 104.167,62.1667 102.5,63.5C 101.094,63.0269 100.427,62.0269 100.5,60.5C 100.5,60.1667 100.5,59.8333 100.5,59.5C 101.209,58.596 102.209,58.2627 103.5,58.5 Z"/></g>
<g><path style="opacity:1" fill="#bbb47e" d="M 7.5,54.5 C 6.42679,57.7209 6.42679,60.8876 7.5,64C 6.90558,64.4643 6.23891,64.631 5.5,64.5C 4.84007,62.1843 4.17341,59.851 3.5,57.5C 3.71893,55.0847 5.05227,54.0847 7.5,54.5 Z"/></g>
<g><path style="opacity:1" fill="#706d53" d="M 20.5,59.5 C 23.7644,60.3242 27.0977,60.6576 30.5,60.5C 29.4324,61.4345 28.099,61.7678 26.5,61.5C 26.7148,63.1788 26.0481,64.1788 24.5,64.5C 22.8063,62.5624 20.8063,62.2291 18.5,63.5C 17.2947,64.9948 17.2947,66.3281 18.5,67.5C 19.1667,68.5 19.8333,69.5 20.5,70.5C 20.1667,71.1667 19.8333,71.8333 19.5,72.5C 19.0269,73.9063 18.0269,74.573 16.5,74.5C 16.1667,74.5 15.8333,74.5 15.5,74.5C 14.9423,73.2101 13.9423,72.3768 12.5,72C 14.6192,71.6582 14.9526,70.8249 13.5,69.5C 15.4626,66.3335 16.1293,63.0002 15.5,59.5C 17.0992,58.438 18.7659,58.438 20.5,59.5 Z"/></g>
<g><path style="opacity:1" fill="#6b6551" d="M 38.5,60.5 C 39.8333,60.5 41.1667,60.5 42.5,60.5C 43.2341,61.7079 43.5674,63.0413 43.5,64.5C 42.2209,63.032 40.5542,62.3653 38.5,62.5C 38.6495,63.552 38.4828,64.552 38,65.5C 37.2086,64.255 36.7086,62.9217 36.5,61.5C 37.4916,61.6716 38.1583,61.3382 38.5,60.5 Z"/></g>
<g><path style="opacity:1" fill="#67624c" d="M 32.5,62.5 C 32.5,63.8333 32.5,65.1667 32.5,66.5C 31.8333,66.5 31.1667,66.5 30.5,66.5C 30.5,66.1667 30.5,65.8333 30.5,65.5C 29.0857,63.4017 29.7524,62.4017 32.5,62.5 Z"/></g>
<g><path style="opacity:1" fill="#8b815f" d="M 100.5,60.5 C 100.427,62.0269 101.094,63.0269 102.5,63.5C 102.167,64.1667 101.833,64.8333 101.5,65.5C 98.8891,64.9437 96.2225,64.9437 93.5,65.5C 93.5,65.8333 93.5,66.1667 93.5,66.5C 91.8333,66.5 90.1667,66.5 88.5,66.5C 87.8333,66.5 87.1667,66.5 86.5,66.5C 86.5,66.1667 86.5,65.8333 86.5,65.5C 88.7354,65.7947 90.7354,65.4614 92.5,64.5C 94.073,61.1069 96.7396,59.7736 100.5,60.5 Z"/></g>
<g><path style="opacity:1" fill="#796f57" d="M 51.5,61.5 C 54.285,60.9162 55.9517,61.9162 56.5,64.5C 54.5853,64.2155 52.9187,64.5489 51.5,65.5C 50.5084,65.6716 49.8417,65.3382 49.5,64.5C 50.9063,64.0269 51.573,63.0269 51.5,61.5 Z"/></g>
<g><path style="opacity:0.71" fill="#716d66" d="M 110.5,61.5 C 113.715,61.9049 116.715,62.9049 119.5,64.5C 119.5,64.8333 119.5,65.1667 119.5,65.5C 117.708,65.366 116.042,65.6993 114.5,66.5C 114.218,65.2223 113.551,64.2223 112.5,63.5C 111.833,62.8333 111.167,62.1667 110.5,61.5 Z"/></g>
<g><path style="opacity:1" fill="#7f7359" d="M 64.5,63.5 C 64.5,64.1667 64.8333,64.5 65.5,64.5C 65.8333,64.5 66.1667,64.5 66.5,64.5C 66.5,64.8333 66.5,65.1667 66.5,65.5C 61.5,65.5 56.5,65.5 51.5,65.5C 52.9187,64.5489 54.5853,64.2155 56.5,64.5C 58.98,62.5031 61.6467,62.1698 64.5,63.5 Z"/></g>
<g><path style="opacity:1" fill="#7b6e53" d="M 71.5,62.5 C 72.1054,64.4812 73.1054,64.8146 74.5,63.5C 76.9496,63.298 79.283,63.6314 81.5,64.5C 82.1667,64.1667 82.8333,63.8333 83.5,63.5C 85.1667,63.5 86.8333,63.5 88.5,63.5C 88.8417,64.3382 89.5084,64.6716 90.5,64.5C 91.1667,64.5 91.8333,64.5 92.5,64.5C 90.7354,65.4614 88.7354,65.7947 86.5,65.5C 79.8333,65.5 73.1667,65.5 66.5,65.5C 66.5,65.1667 66.5,64.8333 66.5,64.5C 67.5521,62.744 69.2188,62.0773 71.5,62.5 Z"/></g>
<g><path style="opacity:1" fill="#c0b987" d="M 107.5,63.5 C 108.492,63.3284 109.158,63.6618 109.5,64.5C 109.5,64.8333 109.5,65.1667 109.5,65.5C 109.5,66.5 109.5,67.5 109.5,68.5C 105.062,69.5749 103.062,67.9083 103.5,63.5C 104.833,63.5 106.167,63.5 107.5,63.5 Z"/></g>
<g><path style="opacity:1" fill="#8d7c56" d="M 112.5,63.5 C 113.551,64.2223 114.218,65.2223 114.5,66.5C 114.265,67.0967 113.765,67.4301 113,67.5C 111.697,67.0217 110.531,66.355 109.5,65.5C 109.5,65.1667 109.5,64.8333 109.5,64.5C 110.609,64.4431 111.609,64.1098 112.5,63.5 Z"/></g>
<g><path style="opacity:1" fill="#b5aa84" d="M 24.5,64.5 C 26.2646,65.4614 28.2646,65.7947 30.5,65.5C 30.5,65.8333 30.5,66.1667 30.5,66.5C 26.2984,66.1832 22.2984,66.5166 18.5,67.5C 17.2947,66.3281 17.2947,64.9948 18.5,63.5C 20.8063,62.2291 22.8063,62.5624 24.5,64.5 Z"/></g>
<g><path style="opacity:1" fill="#998e6e" d="M 36.5,61.5 C 36.7086,62.9217 37.2086,64.255 38,65.5C 38.4828,64.552 38.6495,63.552 38.5,62.5C 40.5542,62.3653 42.2209,63.032 43.5,64.5C 43.5,64.8333 43.5,65.1667 43.5,65.5C 43.5,65.8333 43.5,66.1667 43.5,66.5C 41.1667,66.5 38.8333,66.5 36.5,66.5C 35.1667,66.5 33.8333,66.5 32.5,66.5C 32.5,65.1667 32.5,63.8333 32.5,62.5C 33.8333,62.1667 35.1667,61.8333 36.5,61.5 Z"/></g>
<g><path style="opacity:1" fill="#938767" d="M 49.5,63.5 C 49.5,63.8333 49.5,64.1667 49.5,64.5C 49.8417,65.3382 50.5084,65.6716 51.5,65.5C 56.5,65.5 61.5,65.5 66.5,65.5C 73.1667,65.5 79.8333,65.5 86.5,65.5C 86.5,65.8333 86.5,66.1667 86.5,66.5C 85.5,66.5 84.5,66.5 83.5,66.5C 82.5,66.5 81.5,66.5 80.5,66.5C 79.5,66.5 78.5,66.5 77.5,66.5C 66.1667,66.5 54.8333,66.5 43.5,66.5C 43.5,66.1667 43.5,65.8333 43.5,65.5C 44.404,64.791 44.7373,63.791 44.5,62.5C 46.2915,62.366 47.9582,62.6993 49.5,63.5 Z"/></g>
<g><path style="opacity:1" fill="#a2986e" d="M 93.5,65.5 C 96.2225,64.9437 98.8891,64.9437 101.5,65.5C 101.5,67.1667 101.5,68.8333 101.5,70.5C 101.167,70.5 100.833,70.5 100.5,70.5C 98.802,68.1325 96.4686,66.4658 93.5,65.5 Z"/></g>
<g><path style="opacity:1" fill="#b6b081" d="M 107.5,63.5 C 106.167,63.5 104.833,63.5 103.5,63.5C 103.062,67.9083 105.062,69.5749 109.5,68.5C 106.929,68.9762 104.929,70.3095 103.5,72.5C 102.833,72.1667 102.167,71.8333 101.5,71.5C 101.5,71.1667 101.5,70.8333 101.5,70.5C 101.5,68.8333 101.5,67.1667 101.5,65.5C 101.833,64.8333 102.167,64.1667 102.5,63.5C 104.167,62.1667 105.833,62.1667 107.5,63.5 Z"/></g>
<g><path style="opacity:1" fill="#d0c8a2" d="M 18.5,67.5 C 22.2984,66.5166 26.2984,66.1832 30.5,66.5C 31.1667,66.5 31.8333,66.5 32.5,66.5C 33.8333,66.5 35.1667,66.5 36.5,66.5C 37.209,67.404 38.209,67.7373 39.5,67.5C 41.9686,68.3171 44.6353,68.8171 47.5,69C 57.1609,69.4998 66.8276,69.6665 76.5,69.5C 76.8333,70.1667 77.1667,70.8333 77.5,71.5C 65.431,71.8306 53.431,71.164 41.5,69.5C 33.9064,68.1172 26.2397,67.4505 18.5,67.5 Z"/></g>
<g><path style="opacity:1" fill="#aea279" d="M 36.5,66.5 C 38.8333,66.5 41.1667,66.5 43.5,66.5C 54.8333,66.5 66.1667,66.5 77.5,66.5C 77.1667,67.1667 76.8333,67.8333 76.5,68.5C 64.1564,68.4718 51.8231,68.1384 39.5,67.5C 38.209,67.7373 37.209,67.404 36.5,66.5 Z"/></g>
<g><path style="opacity:1" fill="#b2ab7d" d="M 109.5,65.5 C 110.531,66.355 111.697,67.0217 113,67.5C 113.765,67.4301 114.265,67.0967 114.5,66.5C 116.042,65.6993 117.708,65.366 119.5,65.5C 119.611,66.1174 119.944,66.6174 120.5,67C 118.767,68.1889 117.1,69.3556 115.5,70.5C 113.584,72.1157 112.084,71.7823 111,69.5C 110.743,71.9065 109.576,73.5732 107.5,74.5C 106.5,74.5 105.5,74.5 104.5,74.5C 104.167,73.8333 103.833,73.1667 103.5,72.5C 104.929,70.3095 106.929,68.9762 109.5,68.5C 109.5,67.5 109.5,66.5 109.5,65.5 Z"/></g>
<g><path style="opacity:1" fill="#e8e6dc" d="M 18.5,67.5 C 26.2397,67.4505 33.9064,68.1172 41.5,69.5C 41.5,69.8333 41.5,70.1667 41.5,70.5C 38.0012,69.5565 34.6678,69.5565 31.5,70.5C 27.8333,70.5 24.1667,70.5 20.5,70.5C 19.8333,69.5 19.1667,68.5 18.5,67.5 Z"/></g>
<g><path style="opacity:1" fill="#c0b588" d="M 39.5,67.5 C 51.8231,68.1384 64.1564,68.4718 76.5,68.5C 76.5,68.8333 76.5,69.1667 76.5,69.5C 66.8276,69.6665 57.1609,69.4998 47.5,69C 44.6353,68.8171 41.9686,68.3171 39.5,67.5 Z"/></g>
<g><path style="opacity:1" fill="#c2ba83" d="M 77.5,66.5 C 78.5,66.5 79.5,66.5 80.5,66.5C 80.7947,68.7354 80.4614,70.7354 79.5,72.5C 79.1667,72.5 78.8333,72.5 78.5,72.5C 78.5,71.8333 78.1667,71.5 77.5,71.5C 77.1667,70.8333 76.8333,70.1667 76.5,69.5C 76.5,69.1667 76.5,68.8333 76.5,68.5C 76.8333,67.8333 77.1667,67.1667 77.5,66.5 Z"/></g>
<g><path style="opacity:1" fill="#c5c19a" d="M 80.5,66.5 C 81.5,66.5 82.5,66.5 83.5,66.5C 83.5792,67.9305 83.2458,69.2638 82.5,70.5C 82.8555,71.5223 83.5222,72.189 84.5,72.5C 84.5,72.8333 84.5,73.1667 84.5,73.5C 82.8333,73.5 81.1667,73.5 79.5,73.5C 79.5,73.1667 79.5,72.8333 79.5,72.5C 80.4614,70.7354 80.7947,68.7354 80.5,66.5 Z"/></g>
<g><path style="opacity:1" fill="#9f9a6a" d="M 88.5,66.5 C 90.1667,66.5 91.8333,66.5 93.5,66.5C 92.8333,67.1667 92.1667,67.8333 91.5,68.5C 90.8902,69.391 90.5569,70.391 90.5,71.5C 89.5,71.5 88.5,71.5 87.5,71.5C 84.9028,71.2792 84.9028,70.7792 87.5,70C 86.8333,69.6667 86.1667,69.3333 85.5,69C 86.5707,68.1482 87.5707,67.3149 88.5,66.5 Z"/></g>
<g><path style="opacity:1" fill="#b6ab7c" d="M 93.5,65.5 C 96.4686,66.4658 98.802,68.1325 100.5,70.5C 97.4606,69.99 94.4606,69.3234 91.5,68.5C 92.1667,67.8333 92.8333,67.1667 93.5,66.5C 93.5,66.1667 93.5,65.8333 93.5,65.5 Z"/></g>
<g><path style="opacity:1" fill="#cdc7a1" d="M 91.5,68.5 C 94.4606,69.3234 97.4606,69.99 100.5,70.5C 100.833,70.5 101.167,70.5 101.5,70.5C 101.5,70.8333 101.5,71.1667 101.5,71.5C 98.9407,71.1984 96.6074,71.5318 94.5,72.5C 92.901,72.7678 91.5676,72.4345 90.5,71.5C 90.5569,70.391 90.8902,69.391 91.5,68.5 Z"/></g>
<g><path style="opacity:0.424" fill="#b8b4a4" d="M 119.5,64.5 C 122.323,65.3851 122.99,67.0517 121.5,69.5C 120.833,69.8333 120.167,70.1667 119.5,70.5C 119.167,69.1667 118.833,69.1667 118.5,70.5C 117.5,70.5 116.5,70.5 115.5,70.5C 117.1,69.3556 118.767,68.1889 120.5,67C 119.944,66.6174 119.611,66.1174 119.5,65.5C 119.5,65.1667 119.5,64.8333 119.5,64.5 Z"/></g>
<g><path style="opacity:1" fill="#8b886b" d="M 12.5,62.5 C 12.8333,62.5 13.1667,62.5 13.5,62.5C 13.5,64.8333 13.5,67.1667 13.5,69.5C 14.9526,70.8249 14.6192,71.6582 12.5,72C 13.9423,72.3768 14.9423,73.2101 15.5,74.5C 14.1667,74.5 12.8333,74.5 11.5,74.5C 11.8888,70.4732 12.2222,66.4732 12.5,62.5 Z"/></g>
<g><path style="opacity:0.545" fill="#a1a09c" d="M 20.5,70.5 C 24.1667,70.5 27.8333,70.5 31.5,70.5C 33.5,70.8333 35.5,71.1667 37.5,71.5C 37.5,71.8333 37.5,72.1667 37.5,72.5C 36.5084,72.3284 35.8417,72.6618 35.5,73.5C 35.1667,73.5 34.8333,73.5 34.5,73.5C 29.7467,71.2615 24.7467,70.9281 19.5,72.5C 19.8333,71.8333 20.1667,71.1667 20.5,70.5 Z"/></g>
<g><path style="opacity:1" fill="#b6b285" d="M 83.5,66.5 C 84.5,66.5 85.5,66.5 86.5,66.5C 87.1667,66.5 87.8333,66.5 88.5,66.5C 87.5707,67.3149 86.5707,68.1482 85.5,69C 86.1667,69.3333 86.8333,69.6667 87.5,70C 84.9028,70.7792 84.9028,71.2792 87.5,71.5C 86.791,72.404 85.791,72.7373 84.5,72.5C 83.5222,72.189 82.8555,71.5223 82.5,70.5C 83.2458,69.2638 83.5792,67.9305 83.5,66.5 Z"/></g>
<g><path style="opacity:1" fill="#e1ded5" d="M 37.5,72.5 C 37.5,72.1667 37.5,71.8333 37.5,71.5C 42.7345,72.9084 48.0679,73.9084 53.5,74.5C 61.7483,75.4686 70.0817,75.8019 78.5,75.5C 72.021,76.4907 65.3543,76.824 58.5,76.5C 55.4299,76.6323 52.4299,76.299 49.5,75.5C 47.4352,75.4828 45.4352,75.1495 43.5,74.5C 41.7857,73.2616 39.7857,72.595 37.5,72.5 Z"/></g>
<g><path style="opacity:1" fill="#e7e3cf" d="M 41.5,70.5 C 41.5,70.1667 41.5,69.8333 41.5,69.5C 53.431,71.164 65.431,71.8306 77.5,71.5C 78.1667,71.5 78.5,71.8333 78.5,72.5C 67.8281,72.6665 57.1615,72.4998 46.5,72C 44.9751,70.9914 43.3084,70.4914 41.5,70.5 Z"/></g>
<g><path style="opacity:1" fill="#a8a276" d="M 115.5,70.5 C 116.952,71.3019 118.618,71.8019 120.5,72C 117.258,72.4061 114.258,73.2395 111.5,74.5C 111.167,74.5 110.833,74.5 110.5,74.5C 109.5,74.5 108.5,74.5 107.5,74.5C 109.576,73.5732 110.743,71.9065 111,69.5C 112.084,71.7823 113.584,72.1157 115.5,70.5 Z"/></g>
<g><path style="opacity:1" fill="#b9b27d" d="M 7.5,71.5 C 7.5,72.5 7.5,73.5 7.5,74.5C 7.5,75.5 7.5,76.5 7.5,77.5C 3.93186,77.2407 2.59853,75.2407 3.5,71.5C 5.07282,69.1638 6.40615,69.1638 7.5,71.5 Z"/></g>
<g><path style="opacity:1" fill="#f1efe7" d="M 31.5,70.5 C 34.6678,69.5565 38.0012,69.5565 41.5,70.5C 43.3084,70.4914 44.9751,70.9914 46.5,72C 57.1615,72.4998 67.8281,72.6665 78.5,72.5C 78.8333,72.5 79.1667,72.5 79.5,72.5C 79.5,72.8333 79.5,73.1667 79.5,73.5C 70.6506,73.1736 61.9839,73.507 53.5,74.5C 48.0679,73.9084 42.7345,72.9084 37.5,71.5C 35.5,71.1667 33.5,70.8333 31.5,70.5 Z"/></g>
<g><path style="opacity:0.69" fill="#a29f8f" d="M 121.5,69.5 C 124.07,70.484 124.07,71.6507 121.5,73C 118.312,74.3158 114.978,74.8158 111.5,74.5C 114.258,73.2395 117.258,72.4061 120.5,72C 118.618,71.8019 116.952,71.3019 115.5,70.5C 116.5,70.5 117.5,70.5 118.5,70.5C 118.833,70.5 119.167,70.5 119.5,70.5C 120.167,70.1667 120.833,69.8333 121.5,69.5 Z"/></g>
<g><path style="opacity:1" fill="#f3f1eb" d="M 53.5,74.5 C 61.9839,73.507 70.6506,73.1736 79.5,73.5C 81.1667,73.5 82.8333,73.5 84.5,73.5C 86.099,73.2322 87.4324,73.5655 88.5,74.5C 85.0977,74.3424 81.7644,74.6758 78.5,75.5C 70.0817,75.8019 61.7483,75.4686 53.5,74.5 Z"/></g>
<g><path style="opacity:1" fill="#efece3" d="M 87.5,71.5 C 88.5,71.5 89.5,71.5 90.5,71.5C 91.5676,72.4345 92.901,72.7678 94.5,72.5C 96.1788,72.2852 97.1788,72.9519 97.5,74.5C 97.1667,74.5 96.8333,74.5 96.5,74.5C 93.8333,74.5 91.1667,74.5 88.5,74.5C 87.4324,73.5655 86.099,73.2322 84.5,73.5C 84.5,73.1667 84.5,72.8333 84.5,72.5C 85.791,72.7373 86.791,72.404 87.5,71.5 Z"/></g>
<g><path style="opacity:1" fill="#d7d4c3" d="M 94.5,72.5 C 96.6074,71.5318 98.9407,71.1984 101.5,71.5C 102.167,71.8333 102.833,72.1667 103.5,72.5C 103.833,73.1667 104.167,73.8333 104.5,74.5C 102.167,74.5 99.8333,74.5 97.5,74.5C 97.1788,72.9519 96.1788,72.2852 94.5,72.5 Z"/></g>
<g><path style="opacity:0.557" fill="#a8a59e" d="M 96.5,75.5 C 96.5,75.1667 96.5,74.8333 96.5,74.5C 96.8333,74.5 97.1667,74.5 97.5,74.5C 99.8333,74.5 102.167,74.5 104.5,74.5C 105.5,74.5 106.5,74.5 107.5,74.5C 108.5,74.5 109.5,74.5 110.5,74.5C 106.664,75.3777 102.664,76.0443 98.5,76.5C 98.1583,75.6618 97.4916,75.3284 96.5,75.5 Z"/></g>
<g><path style="opacity:1" fill="#bab797" d="M 35.5,73.5 C 35.8417,72.6618 36.5084,72.3284 37.5,72.5C 39.7857,72.595 41.7857,73.2616 43.5,74.5C 42.2241,75.3864 42.2241,76.3864 43.5,77.5C 45.4159,78.2483 47.4159,78.2483 49.5,77.5C 45.019,81.3356 40.019,82.669 34.5,81.5C 35.9778,81.762 37.3112,81.4287 38.5,80.5C 39.4196,78.2143 39.4196,75.8809 38.5,73.5C 37.5,73.5 36.5,73.5 35.5,73.5 Z"/></g>
<g><path style="opacity:1" fill="#b1ab7f" d="M 43.5,74.5 C 45.4352,75.1495 47.4352,75.4828 49.5,75.5C 49.5,76.1667 49.5,76.8333 49.5,77.5C 47.4159,78.2483 45.4159,78.2483 43.5,77.5C 42.2241,76.3864 42.2241,75.3864 43.5,74.5 Z"/></g>
<g><path style="opacity:0.722" fill="#a09d95" d="M 88.5,75.5 C 91.1667,75.5 93.8333,75.5 96.5,75.5C 97.4916,75.3284 98.1583,75.6618 98.5,76.5C 92.7392,76.1691 88.0725,78.1691 84.5,82.5C 84.5,82.1667 84.5,81.8333 84.5,81.5C 86.2516,79.7541 87.5849,77.7541 88.5,75.5 Z"/></g>
<g><path style="opacity:1" fill="#bbb58a" d="M 34.5,73.5 C 34.8333,73.5 35.1667,73.5 35.5,73.5C 36.5,73.5 37.5,73.5 38.5,73.5C 39.4196,75.8809 39.4196,78.2143 38.5,80.5C 37.3112,81.4287 35.9778,81.762 34.5,81.5C 33.2329,78.728 33.2329,76.0613 34.5,73.5 Z"/></g>
<g><path style="opacity:0.949" fill="#aaa8a1" d="M 49.5,75.5 C 52.4299,76.299 55.4299,76.6323 58.5,76.5C 58.5,77.1667 58.8333,77.5 59.5,77.5C 59.5,77.8333 59.5,78.1667 59.5,78.5C 56.1401,78.3841 52.8067,78.0508 49.5,77.5C 49.5,76.8333 49.5,76.1667 49.5,75.5 Z"/></g>
<g><path style="opacity:1" fill="#ccc6ba" d="M 88.5,74.5 C 91.1667,74.5 93.8333,74.5 96.5,74.5C 96.5,74.8333 96.5,75.1667 96.5,75.5C 93.8333,75.5 91.1667,75.5 88.5,75.5C 86.5853,75.2155 84.9187,75.5489 83.5,76.5C 81.7085,76.366 80.0418,76.6993 78.5,77.5C 72.1667,77.5 65.8333,77.5 59.5,77.5C 58.8333,77.5 58.5,77.1667 58.5,76.5C 65.3543,76.824 72.021,76.4907 78.5,75.5C 81.7644,74.6758 85.0977,74.3424 88.5,74.5 Z"/></g>
<g><path style="opacity:0.945" fill="#bcb9a6" d="M 3.5,71.5 C 2.59853,75.2407 3.93186,77.2407 7.5,77.5C 7.5,76.5 7.5,75.5 7.5,74.5C 9.10941,75.6654 9.44275,76.9988 8.5,78.5C 6.5112,79.8866 4.67787,79.5532 3,77.5C 2.21086,75.2884 2.37753,73.2884 3.5,71.5 Z"/></g>
<g><path style="opacity:0.475" fill="#918f87" d="M 59.5,78.5 C 59.5,78.1667 59.5,77.8333 59.5,77.5C 65.8333,77.5 72.1667,77.5 78.5,77.5C 77.8333,78.1667 77.1667,78.8333 76.5,79.5C 76.1667,79.5 75.8333,79.5 75.5,79.5C 70.3595,78.5119 65.0262,78.1786 59.5,78.5 Z"/></g>
<g><path style="opacity:1" fill="#beb990" d="M 83.5,76.5 C 81.82,78.7264 82.1534,80.3931 84.5,81.5C 84.5,81.8333 84.5,82.1667 84.5,82.5C 84.0269,83.9063 83.0269,84.573 81.5,84.5C 77.0766,86.0813 75.4099,84.4146 76.5,79.5C 77.1667,78.8333 77.8333,78.1667 78.5,77.5C 80.0418,76.6993 81.7085,76.366 83.5,76.5 Z"/></g>
<g><path style="opacity:1" fill="#b0ac80" d="M 88.5,75.5 C 87.5849,77.7541 86.2516,79.7541 84.5,81.5C 82.1534,80.3931 81.82,78.7264 83.5,76.5C 84.9187,75.5489 86.5853,75.2155 88.5,75.5 Z"/></g>
<g><path style="opacity:0.424" fill="#a9a791" d="M 75.5,79.5 C 75.8333,79.5 76.1667,79.5 76.5,79.5C 75.4099,84.4146 77.0766,86.0813 81.5,84.5C 77.7234,87.622 75.3901,86.622 74.5,81.5C 74.5427,80.5836 74.8761,79.9169 75.5,79.5 Z"/></g>
</svg>
