<?xml version="1.0" encoding="UTF-8"?>
<!DOCTYPE svg PUBLIC "-//W3C//DTD SVG 1.1//EN" "http://www.w3.org/Graphics/SVG/1.1/DTD/svg11.dtd">
<svg xmlns="http://www.w3.org/2000/svg" version="1.1" width="128px" height="128px" style="shape-rendering:geometricPrecision; text-rendering:geometricPrecision; image-rendering:optimizeQuality; fill-rule:evenodd; clip-rule:evenodd" xmlns:xlink="http://www.w3.org/1999/xlink">
<g><path style="opacity:1" fill="#070707" d="M 76.5,39.5 C 77.7348,39.7214 78.7348,40.3881 79.5,41.5C 81.4606,39.4565 82.9606,40.1232 84,43.5C 84.7175,42.5494 85.5509,42.3828 86.5,43C 89.5216,46.363 92.1882,50.0296 94.5,54C 103.5,57.8333 112.5,61.6667 121.5,65.5C 122.731,66.6507 122.731,67.8173 121.5,69C 124.167,70.3333 124.167,71.6667 121.5,73C 110.882,74.737 100.215,76.4037 89.5,78C 86.5209,81.8231 82.8542,84.6565 78.5,86.5C 74.8775,85.0844 73.8775,82.5844 75.5,79C 67.4717,78.7716 59.4717,78.2716 51.5,77.5C 47.0328,79.734 42.3662,81.4006 37.5,82.5C 36.0055,82.2908 34.8388,81.6241 34,80.5C 33.231,77.9009 33.3977,75.4009 34.5,73C 30.2589,71.5427 25.9255,71.2093 21.5,72C 16.8249,75.1814 11.8249,77.6814 6.5,79.5C 2.74587,78.1484 1.5792,75.4817 3,71.5C 3.83333,69.8333 4.66667,68.1667 5.5,66.5C -0.408133,53.1137 3.25853,49.6137 16.5,56C 20.3583,60.069 25.025,61.4024 30.5,60C 29.5494,59.2825 29.3828,58.4491 30,57.5C 35.3235,51.427 41.8235,47.927 49.5,47C 53.4685,47.9643 56.6351,50.1309 59,53.5C 61,50.8333 63,48.1667 65,45.5C 65.414,45.9574 65.914,46.2907 66.5,46.5C 67.8333,45.1667 69.1667,43.8333 70.5,42.5C 72.4033,42.6938 74.2367,42.6938 76,42.5C 76.4828,41.552 76.6495,40.552 76.5,39.5 Z"/></g>
</svg>
